<?xml version="1.0" ?><svg id="Слой_1" style="enable-background:new 0 0 128 128;" version="1.1" viewBox="0 0 128 128" xml:space="preserve" xmlns="http://www.w3.org/2000/svg" xmlns:xlink="http://www.w3.org/1999/xlink"><style type="text/css">
	.st0{fill:#3E4E5C;}
	.st1{fill:#323E4A;}
	.st2{fill:#5992BD;}
	.st3{fill:#63A3D2;}
	.st4{fill:#487190;}
	.st5{fill:#426885;}
	.st6{fill:#EBEDEE;}
	.st7{fill:#D9DADB;}
</style><path class="st0" d="M41,89.2L60.6,83c2.2,6-3.1,7.9-2.1,15.3c0.4,2.8,2.5,2,3.7,5.1c1.1,3.1-0.8,4.5,0.3,7.6c1.1,3.1,5.2,1.9,6.3,5  c0.9,2.4-2.1,5.2-2.1,5.2s-6.6,7.5-11.3,6.7C48.8,126.9,41,89.2,41,89.2z"/><path class="st1" d="M58.5,98.3c-0.9-7.1,3.7-9.1,2.3-14.4l-12.2,2.9L41,89.2c0,0,0.2,1.1,0.7,3l17.2,7.2  C58.7,99.1,58.6,98.8,58.5,98.3z"/><path class="st0" d="M14.6,55.8L25.2,52c0.1,4.5,1.9,12.2,5,20.7c3.1,8.4,6.8,15.4,9.8,18.9l0,0l-10.6,3.8C22.2,98,13.1,91.2,9,80.3  C4.9,69.3,7.4,58.4,14.6,55.8z"/><g><g><path class="st2" d="M86.1,52.4c-8.5-22.9-11.3-43.5-7-49.1c-0.6,0.6-1.3,1.4-2.1,2.6C69.9,16.4,58,39,17.2,53.6l0,0.1    c-2.5,0.9-1.1,10.9,3.1,22.2c4.2,11.4,9.6,19.9,12.1,19c40.8-14.6,64.8-4.5,77.2-1c3.9,1.1,6.1-0.3,6.1-0.3    C109.2,96.1,95.6,77.8,86.1,52.4z"/></g></g><path class="st3" d="M77.2,13c1-6.1,1.3-7.3,1.7-9.2c0-0.1,0.1-0.2,0.1-0.3c-0.5,0.6-1.2,1.3-1.9,2.4C69.9,16.4,58,39,17.2,53.6  l0,0.1c-1,0.4-1.4,2.2-1.2,4.9l3.3-1C56.9,44.3,69.8,24.1,77.2,13z"/><path class="st4" d="M82.3,0.3c-7.9,2.9-6.8,26.2,2.5,52c9.2,25.8,23.1,44.4,31,41.4c7.9-2.9,6.8-26.2-2.5-52  C104,15.9,90.1-2.6,82.3,0.3z"/><path class="st5" d="M94.7,62.3c-9.2-25.8-10.3-49.1-2.5-52c1.7-0.6,3.6-0.3,5.7,0.9C92.1,3.1,86.4-1.2,82.3,0.3  c-7.9,2.9-6.8,26.2,2.5,52c7.3,20.4,17.5,36.2,25.3,40.5C104.7,85.4,99.2,74.7,94.7,62.3z"/><path class="st6" d="M82.5,41.8c-0.4,0.1-0.7,0.3-1,0.4c0.9,3.3,2,6.6,3.2,10.1c1.8,5,3.8,9.8,5.9,14.2c0.3-0.1,0.6-0.2,0.8-0.3  c6.7-2.5,10.2-9.9,7.8-16.7C96.7,42.8,89.3,39.3,82.5,41.8z"/><path class="st7" d="M94.7,62.3c-2.7-7.4-4.6-14.6-5.9-21.2c-2-0.3-4.2-0.1-6.3,0.7c-0.4,0.1-0.7,0.3-1,0.4c0.9,3.3,2,6.6,3.2,10.1  c1.8,5,3.8,9.8,5.9,14.2c0.3-0.1,0.6-0.2,0.8-0.3c1.5-0.5,2.8-1.3,3.9-2.3C95.1,63.4,94.9,62.9,94.7,62.3z"/></svg>