<?xml version="1.0" ?><svg height="60" id="Nature" viewBox="0 0 60 60" width="60" xmlns="http://www.w3.org/2000/svg"><title/><path d="M50.51785,14.34571c1.812,1.44474,2.9262.77134,6.10952,4.71376-3.85671-.8448-5.87689.30609-5.87689.30609-2.48544.7591-3.07312,5.59529-3.18332,9.48873A15.885,15.885,0,0,1,43.8084,38.91846c-2.314,2.71806-6.86862,5.09331-15.27992,4.33421-.7591,5.35042-4.93414,11.43545-9.15816,12.8557a10.76024,10.76024,0,0,1-7.60323-.78359c-4.06485-1.7998-7.60323-5.47286-7.67669-9.52546,5.2892-.46525,16.41857-5.35042,18.58567-10.94571C2.56,31.41318,6.37995,8.99529,10.06525,4.41621c.37955,4.37094,4.41991,8.00726,12.97814,9.21937.17141.02449.34282.049.52647.07346.12244,4.45664,8.01951,4.33421,8.91329,7.26041a4.25468,4.25468,0,0,0,4.33421-3.19556c.06122-.20814.13468-.41628.18365-.64891.551-2.38749,1.64063-4.8117,3.80774-5.93811C44.33487,9.35035,48.10588,10.02375,50.51785,14.34571Z" style="fill:#eef6ff"/><path d="M9.93768,7.52607c.37955,4.37095,2.11,7.30524,11.17428,8.18061.12241,4.45666,8.44192,4.573,9.33567,7.49915,7.90729,1.02031,7.55019-5.83393,10.15193-8.5377,2.7567-2.86481,7.26966-2.27137,9.68167,2.05063,1.0625-.03125,4.31428.01694,5.15623.46875.941-.09707-3.06248-2.1875-5.04714-2.84178-2.412-4.322-6.183-4.99538-9.70911-3.15885-2.16713,1.12638-3.04676,3.60909-3.80779,5.93808-.81417,2.4916-2.65682,3.95471-4.51786,3.84448-.89375-2.92622-8.79084-2.80374-8.91325-7.2604-.18368-.02451-.355-.04895-.52646-.07346-8.55821-1.2121-12.59863-4.84846-12.97818-9.21941-1.61294,2.00422-3.25159,7.42578-2.898,13.17778C7.29244,13.081,8.62059,9.16262,9.93768,7.52607Z" style="fill:#fff"/><path d="M21.82617,37.36966c-.62144-.10626-1.78551.86725-3.00987,1.58146A34.77654,34.77654,0,0,1,3.96284,45.79934a7.81674,7.81674,0,0,0,.69453,3.019C10.16538,48.03,19.748,42.73509,21.82617,37.36966Z" style="fill:#fff"/><path d="M50.46875,14.625a14.78177,14.78177,0,0,1-1.0625,5.09375s6.34375-2.15625,7.5625-1.4375C55.18748,16.21875,50.46875,14.625,50.46875,14.625Z" style="fill:#939fc6"/><path d="M36.396,17.66371l.29384.11019a4.25468,4.25468,0,0,1-4.33421,3.19556c-.89378-2.9262-8.79085-2.80377-8.91329-7.26041-.18365-.02449-.35506-.049-.52647-.07346l.03673-.26936C24.77686,8.15049,27.99691,3.60814,28.79274,3.4c0,3.30575.63666,6.48907,4.19953,9.29283C33.09022,15.32519,35.28181,16.03532,36.396,17.66371Z" style="fill:#ced8ee"/><path d="M33.91665,20.43273c.102-.76522-3.265-4.59132-4.94845-5.15246a4.33043,4.33043,0,0,1-2.60175-3.21393c-.15857-.55508-1.19349-1.15007-2.22519-1.62415-.42984.93224-.83569,1.91477-1.18871,2.924l-.03669.2694c.17143.02451.34278.04895.52646.07346.12241,4.45666,8.01949,4.33418,8.91325,7.2604a4.29092,4.29092,0,0,0,.7839-.03079C33.58747,20.77559,33.89379,20.60446,33.91665,20.43273Z" style="fill:#2c4b75;opacity:0.2"/><g style="opacity:0.2"><path d="M32.89636,34.0537c1.0042-1.01556.901-2.42165,1.32638-3.52C18.56123,34.0537,7.57141,21.46443,7.05824,14.136,6.52177,21.65713,9.02149,38.9001,32.89636,34.0537Z" style="fill:#2c4b75"/><path d="M49.52715,19.69307c-1.68348-.28057-4.51115,1.86809-5.45857,4.1577-3.67306,8.87655-7.85626,14.81977-18.11021,16.04412C22.974,49.53666,14.21074,52.80349,11.63955,51.6526a14.02212,14.02212,0,0,1-6.72781-5.97731c-.331.05328-.652.098-.9489.124.07346,4.0526,3.61185,7.72566,7.67671,9.52542a10.76035,10.76035,0,0,0,7.60326.7836c4.224-1.42029,8.399-7.50529,9.15813-12.8557,8.41129.75909,12.96592-1.61615,15.27989-4.33418A15.88507,15.88507,0,0,0,47.4396,28.85427C47.84209,24.95235,48.17852,20.85981,49.52715,19.69307Z" style="fill:#2c4b75"/><path d="M29.73345,37.31864c-2.90784,1.63247-9.757,2.65189-10.91714,1.98957l5.05045-5.76466,9.64178-.3571C33.71259,34.972,31.80279,36.15691,29.73345,37.31864Z" style="fill:#2c4b75"/></g><path d="M31.79492,51.77881a1,1,0,0,1-.57422-1.81934A7.05455,7.05455,0,0,0,34.167,43.75635a1,1,0,0,1,1.98633-.2334,9.019,9.019,0,0,1-3.78613,8.0752A.99514.99514,0,0,1,31.79492,51.77881Z" style="fill:#6d6daa"/><path d="M38.0752,50.81982A1.00061,1.00061,0,0,1,37.25391,49.25c1.85156-2.67139.85547-6.45312.84473-6.49072a1.00014,1.00014,0,0,1,1.92871-.53027c.05273.19043,1.26172,4.71-1.12891,8.16064A1,1,0,0,1,38.0752,50.81982Z" style="fill:#6d6daa"/><path d="M30.88672,54.15283a1.00153,1.00153,0,0,1-.917-1.39795l.43164-.99561-1.209.14209A1.00005,1.00005,0,0,1,28.958,49.915l2.93457-.34521a1.00017,1.00017,0,0,1,1.03516,1.39063L31.80566,53.5498A1.0027,1.0027,0,0,1,30.88672,54.15283Z" style="fill:#6d6daa"/><path d="M37.2998,53.63574a1.00165,1.00165,0,0,1-.96289-1.27539l.38281-1.33691-1.25488.272a.99977.99977,0,1,1-.42383-1.9541l2.8877-.62646a1.00048,1.00048,0,0,1,1.17383,1.252l-.8418,2.94336A1.00225,1.00225,0,0,1,37.2998,53.63574Z" style="fill:#6d6daa"/><path d="M36.68066,18.7002a.999.999,0,0,1-.85547-.48,6.83978,6.83978,0,0,0-1.30566-1.40869A6.05929,6.05929,0,0,1,32.12891,12.959a11.19045,11.19045,0,0,1-4.17578-7.57275,33.96259,33.96259,0,0,0-4.17676,8.228,1.00029,1.00029,0,0,1-1.89258-.64844c1.64355-4.79736,5.13867-10.51855,6.67773-10.93164A1.00008,1.00008,0,0,1,29.82031,3c0,3.36816.66113,6.13086,3.88672,8.66357a1.001,1.001,0,0,1,.38184.74658c.05469,1.36768.81152,2.05127,1.77051,2.9165a8.46933,8.46933,0,0,1,1.6748,1.85352,1.00006,1.00006,0,0,1-.85352,1.52ZM29.20605,3.91553Z" style="fill:#6d6daa"/><path d="M16.55957,57.99463a15.19282,15.19282,0,0,1-8.46875-2.90039c-3.44531-2.42627-5.457-5.69043-5.52051-8.95459A1.0005,1.0005,0,0,1,3.48145,45.124c4.62207-.41211,14.51074-4.55078,17.50781-9.41455C12.41211,33.814,8.70605,28.50732,7.10547,24.2832c-3.1582-8.33691-.5293-18.01807,1.76563-20.87012a.99988.99988,0,0,1,1.77539.5415c.375,4.37061,4.74512,7.377,12.30566,8.46582l.58594.08252a1.00153,1.00153,0,0,1,.8418.9585c.05078,1.78467,1.80664,2.63574,4.47949,3.73047,1.75586.71924,3.42969,1.40479,4.21387,2.67041a3.33668,3.33668,0,0,0,2.77344-2.45508,4.11168,4.11168,0,0,0,.20605-.66846c.78809-3.35059,2.26855-5.604,4.40527-6.71582,4.3291-2.24219,8.56055-.92236,11.09277,3.43848a7.21917,7.21917,0,0,0,1.35645.7666c1.19922.56445,2.55859,1.20508,4.87109,4.07471a1,1,0,0,1-.99414,1.604c-3.44238-.76367-5.25879.1958-5.27637.20605a1.12134,1.12134,0,0,1-.19922.085c-.69434.209-2.3291,1.47754-2.52832,8.72021a17.07424,17.07424,0,0,1-4.0498,10.86133c-2.1875,2.54932-6.61621,5.3999-15.47266,4.81836-1.167,5.7041-5.51074,11.501-9.83887,12.96A8.98379,8.98379,0,0,1,16.55957,57.99463ZM4.65234,46.98926A10.47869,10.47869,0,0,0,9.24219,53.459c3.16016,2.2251,6.90527,3.08789,9.53906,2.20313,3.8623-1.30176,7.9082-7.0376,8.6582-12.27393a1.00745,1.00745,0,0,1,1.08008-.85449c8.59961.77734,12.7373-1.77734,14.69141-4.05518a15.11355,15.11355,0,0,0,3.56934-9.61865c.17383-6.28809,1.43652-9.74121,3.85742-10.54736a8.33034,8.33034,0,0,1,3.81152-.69824,8.19305,8.19305,0,0,0-2.39355-1.57715,8.65731,8.65731,0,0,1-1.90039-1.12646,1.00868,1.00868,0,0,1-.248-.293c-1.99316-3.56592-5.10059-4.59424-8.52734-2.81982-1.59473.83008-2.73145,2.64111-3.376,5.38135a5.7938,5.7938,0,0,1-.28516.93115A5.26032,5.26032,0,0,1,32.376,21.86816a.99956.99956,0,0,1-.89258-.709c-.252-.83447-1.84375-1.48633-3.38184-2.11621-2.27344-.93115-5.0498-2.06836-5.61914-4.66992-6.88965-1.02637-11.5293-3.75293-13.18652-7.64844a24.77542,24.77542,0,0,0-.32031,16.8501c2.17383,5.73828,6.77051,9.24414,13.66211,10.41943a.99993.99993,0,0,1,.76465,1.3457C21.09863,41.30859,10.40039,46.05908,4.65234,46.98926Z" style="fill:#6d6daa"/><path d="M44.62012,16.77979a1,1,0,0,1-.71484-1.69922,2.21892,2.21892,0,0,1,2.51172-.28418,1,1,0,0,1-.81445,1.82666.64443.64443,0,0,0-.3418-.0752A1.00055,1.00055,0,0,1,44.62012,16.77979Zm.71-.29541-.001.001Zm.002-.00244-.002.00146ZM45.335,16.479l-.002.00244Z" style="fill:#6d6daa"/><path d="M11.33984,13.84033a1.00282,1.00282,0,0,1-.33008-.05664,10.33147,10.33147,0,0,1-4.2666-2.90332A1.00006,1.00006,0,0,1,8.2959,9.61963a8.43019,8.43019,0,0,0,3.374,2.27637,1.00014,1.00014,0,0,1-.33008,1.94434Z" style="fill:#6d6daa"/><path d="M25.28516,36.17236A21.775,21.775,0,0,1,22.334,35.9707a1,1,0,1,1,.27148-1.98145,18.0186,18.0186,0,0,0,9.82617-1.2583,1.00019,1.00019,0,0,1,.916,1.77832A18.85619,18.85619,0,0,1,25.28516,36.17236Z" style="fill:#6d6daa"/><path d="M17.33008,34.17041a1.00025,1.00025,0,0,1-.27637-1.96143,7.46671,7.46671,0,0,0,3.64648-2.39014.9998.9998,0,1,1,1.5,1.32227,9.49836,9.49836,0,0,1-4.59375,2.98975A.99227.99227,0,0,1,17.33008,34.17041Z" style="fill:#6d6daa"/><path d="M22.02051,35.79a1.00017,1.00017,0,0,1-.48926-1.873,9.02538,9.02538,0,0,0,2.998-2.76221.99977.99977,0,1,1,1.70117,1.05078,11.04655,11.04655,0,0,1-3.72266,3.45752A1.0002,1.0002,0,0,1,22.02051,35.79Z" style="fill:#6d6daa"/><path d="M27.59082,35.8501a1.0002,1.0002,0,0,1-.60449-1.79736,6.82355,6.82355,0,0,0,1.792-2.71094,1.00037,1.00037,0,0,1,1.88281.67676,8.79442,8.79442,0,0,1-2.46777,3.62891A.99535.99535,0,0,1,27.59082,35.8501Z" style="fill:#6d6daa"/><path d="M32.69922,34.62012a.99941.99941,0,0,1-.80566-1.59033,7.29729,7.29729,0,0,0,.76953-1.73877,1.00006,1.00006,0,0,1,1.915.57715,9.198,9.198,0,0,1-1.07129,2.34229A.99579.99579,0,0,1,32.69922,34.62012Z" style="fill:#6d6daa"/><path d="M12.999,31.73a1.00016,1.00016,0,0,1-.17383-1.98486A15.85056,15.85056,0,0,0,17.334,27.79639a.99994.99994,0,0,1,1.07324,1.6875,17.60393,17.60393,0,0,1-5.23242,2.231A1.03433,1.03433,0,0,1,12.999,31.73Z" style="fill:#6d6daa"/><path d="M10.01855,28.35986a.99988.99988,0,0,1-.19922-1.97949,26.749,26.749,0,0,0,4.68555-1.37891,1,1,0,0,1,.791,1.83691,28.29306,28.29306,0,0,1-5.07617,1.501A.977.977,0,0,1,10.01855,28.35986Z" style="fill:#6d6daa"/><path d="M8.11914,24.81006a.99991.99991,0,0,1-.18262-1.98291c2.52246-.47119,4.8418-.98779,4.86523-.99316a1.00007,1.00007,0,0,1,.43555,1.95215c-.02344.00537-2.376.5293-4.93359,1.00684A.99887.99887,0,0,1,8.11914,24.81006Z" style="fill:#6d6daa"/><path d="M9.17285,20.77051a14.26217,14.26217,0,0,1-2.09082-.1416.99985.99985,0,1,1,.29688-1.97754,16.96666,16.96666,0,0,0,4.27148-.05029,1.00007,1.00007,0,0,1,.2998,1.97754A20.46177,20.46177,0,0,1,9.17285,20.77051Z" style="fill:#6d6daa"/><path d="M11.4707,17.21c-.03027,0-.06152-.00146-.09277-.00439a22.61682,22.61682,0,0,1-4.94238-1.03027,1,1,0,0,1,.709-1.87012,20.90942,20.90942,0,0,0,4.417.90918A.99989.99989,0,0,1,11.4707,17.21Z" style="fill:#6d6daa"/><path d="M5.43945,51.71a.99987.99987,0,0,1-.168-1.98535,15.46107,15.46107,0,0,0,4.42676-1.50635,1.00006,1.00006,0,1,1,.94336,1.76367,17.58464,17.58464,0,0,1-5.03223,1.71338A.95879.95879,0,0,1,5.43945,51.71Z" style="fill:#6d6daa"/><path d="M8.87988,55.08057a1.00031,1.00031,0,0,1-.35352-1.936,25.55477,25.55477,0,0,0,4.62988-2.34326,1.00012,1.00012,0,1,1,1.14844,1.6377A27.17575,27.17575,0,0,1,9.2334,55.01563.99628.99628,0,0,1,8.87988,55.08057Z" style="fill:#6d6daa"/><path d="M13.60059,57.41016a1,1,0,0,1-.44824-1.89453,15.50318,15.50318,0,0,0,4.16016-3.001.99957.99957,0,1,1,1.375,1.45117,17.44236,17.44236,0,0,1-4.64062,3.33887A.99458.99458,0,0,1,13.60059,57.41016Z" style="fill:#6d6daa"/><path d="M23.31934,46.25a1.00031,1.00031,0,0,1-.82227-1.56836c1.57715-2.28369,3.83691-2.31348,6.00781-2.14893a.9999.9999,0,1,1-.15039,1.99414c-2.13477-.16064-3.3125-.00977-4.21094,1.2915A1.00067,1.00067,0,0,1,23.31934,46.25Z" style="fill:#6d6daa"/><path d="M50.48047,16.85986a1,1,0,0,1-.72168-1.69238,1.09911,1.09911,0,0,0,.0918-.51855,1.00066,1.00066,0,0,1,.92969-1.36914,1.05665,1.05665,0,0,1,.94238.63525,2.82723,2.82723,0,0,1-.52051,2.63721A.99743.99743,0,0,1,50.48047,16.85986Zm.2998-1.58008h0Zm-.52051-.146a.97207.97207,0,0,0,.51855.146A.99854.99854,0,0,1,50.25977,15.13379Z" style="fill:#6d6daa"/></svg>