<?xml version="1.0" ?><svg id="icons" style="enable-background:new 0 0 128 128;" version="1.1" viewBox="0 0 128 128" xml:space="preserve" xmlns="http://www.w3.org/2000/svg" xmlns:xlink="http://www.w3.org/1999/xlink"><style type="text/css">
	.st0{fill:#EF5362;}
	.st1{fill:#DC4250;}
	.st2{fill:#FE6D4B;}
	.st3{fill:#EB5638;}
	.st4{fill:#FFCF47;}
	.st5{fill:#F7BC31;}
	.st6{fill:#A46C4A;}
	.st7{fill:#87593D;}
	.st8{fill:#9FD661;}
	.st9{fill:#8BC34A;}
	.st10{fill:#40D0AD;}
	.st11{fill:#2DBD9B;}
	.st12{fill:#48C0EB;}
	.st13{fill:#33AEDC;}
	.st14{fill:#5A9AEF;}
	.st15{fill:#4787DF;}
	.st16{fill:#AC8FEF;}
	.st17{fill:#9677DF;}
	.st18{fill:#EE85C1;}
	.st19{fill:#D96EAE;}
	.st20{fill:#F5F7FA;}
	.st21{fill:#E6E9ED;}
	.st22{fill:#CCD1D9;}
	.st23{fill:#AAB2BE;}
	.st24{fill:#656D79;}
	.st25{fill:#434A54;}
	.st26{fill:#FFFFFF;}
	.st27{fill:#926141;}
	.st28{fill:#393E47;}
	.st29{fill:#F7AC31;}
</style><g><path class="st21" d="M93,95c0,3.3-2.9,6-6.6,6H39.6c-3.6,0-6.6-2.7-6.6-6V35c0-3.3,2.9-6,6.6-6h46.9c3.6,0,6.6,2.7,6.6,6V95z"/></g><g><path class="st10" d="M70,53H43c-1.1,0-2-0.9-2-2v-2c0-1.1,0.9-2,2-2h27c1.1,0,2,0.9,2,2v2C72,52.1,71.1,53,70,53z"/></g><g><path class="st10" d="M78,63H43c-1.1,0-2-0.9-2-2v-2c0-1.1,0.9-2,2-2h35c1.1,0,2,0.9,2,2v2C80,62.1,79.1,63,78,63z"/></g><g><path class="st10" d="M68,73H43c-1.1,0-2-0.9-2-2v-2c0-1.1,0.9-2,2-2h25c1.1,0,2,0.9,2,2v2C70,72.1,69.1,73,68,73z"/></g><g><path class="st10" d="M73,83H43c-1.1,0-2-0.9-2-2v-2c0-1.1,0.9-2,2-2h30c1.1,0,2,0.9,2,2v2C75,82.1,74.1,83,73,83z"/></g><g><path class="st10" d="M59,91c0,1.1-0.9,2-2,2H43c-1.1,0-2-0.9-2-2v-2c0-1.1,0.9-2,2-2h14c1.1,0,2,0.9,2,2V91z"/></g><g><path class="st22" d="M93,41H33v-6c0-3.3,2.9-6,6.6-6h46.9c3.6,0,6.6,2.7,6.6,6V41z"/></g><g><path class="st24" d="M48,30.5c0,1.4-1.1,2.5-2.5,2.5h0c-1.4,0-2.5-1.1-2.5-2.5v-5c0-1.4,1.1-2.5,2.5-2.5h0c1.4,0,2.5,1.1,2.5,2.5   V30.5z"/></g><g><path class="st24" d="M57,30.5c0,1.4-1.1,2.5-2.5,2.5h0c-1.4,0-2.5-1.1-2.5-2.5v-5c0-1.4,1.1-2.5,2.5-2.5h0c1.4,0,2.5,1.1,2.5,2.5   V30.5z"/></g><g><path class="st24" d="M66,30.5c0,1.4-1.1,2.5-2.5,2.5l0,0c-1.4,0-2.5-1.1-2.5-2.5v-5c0-1.4,1.1-2.5,2.5-2.5l0,0   c1.4,0,2.5,1.1,2.5,2.5V30.5z"/></g><g><path class="st24" d="M75,30.5c0,1.4-1.1,2.5-2.5,2.5l0,0c-1.4,0-2.5-1.1-2.5-2.5v-5c0-1.4,1.1-2.5,2.5-2.5l0,0   c1.4,0,2.5,1.1,2.5,2.5V30.5z"/></g><g><path class="st24" d="M84,30.5c0,1.4-1.1,2.5-2.5,2.5l0,0c-1.4,0-2.5-1.1-2.5-2.5v-5c0-1.4,1.1-2.5,2.5-2.5l0,0   c1.4,0,2.5,1.1,2.5,2.5V30.5z"/></g></svg>