<?xml version="1.0" ?><svg data-name="006" height="128" id="_006" viewBox="0 0 128 128" width="128" xmlns="http://www.w3.org/2000/svg" xmlns:xlink="http://www.w3.org/1999/xlink"><defs><clipPath id="clip-path"><circle cx="64.014" cy="68" r="56" style="fill:#97c1ff"/></clipPath><clipPath id="clip-path-2"><path d="M120.144,67.856a56.144,56.144,0,0,1-112.288,0C7.856,36.84853,16,0,64,0,113.75,0,120.144,36.84853,120.144,67.856Z" style="fill:none"/></clipPath></defs><title/><g style="opacity:0.30000000000000004"><circle cx="64.014" cy="68" r="56" style="fill:#97c1ff"/><g style="clip-path:url(#clip-path)"><path d="M40,77.25867V71.74133l-4.744-1.58142a15.76642,15.76642,0,0,0-1.39948-3.37915l2.23633-4.47217-3.90137-3.90137-4.47229,2.23633A15.75506,15.75506,0,0,0,24.34,59.2439L22.75867,54.5H17.24133L15.66,59.2439a15.75555,15.75555,0,0,0-3.37921,1.39966L7.80853,58.40723,3.90717,62.30859l2.23633,4.47217A15.7602,15.7602,0,0,0,4.744,70.15991L0,71.74133v5.51733L4.744,78.84a15.76119,15.76119,0,0,0,1.39948,3.37927L3.90717,86.69141l3.90137,3.90137,4.47229-2.23633A15.75519,15.75519,0,0,0,15.66,89.756l1.5813,4.744h5.51733L24.34,89.756a15.7547,15.7547,0,0,0,3.37915-1.39954l4.47229,2.23633,3.90137-3.90137-2.23633-4.47217A15.76741,15.76741,0,0,0,35.256,78.84ZM20,78.5a4,4,0,1,1,4-4A4,4,0,0,1,20,78.5Z" style="fill:#eef6ff"/><path d="M20,64.5a10,10,0,1,0,10,10A10.00007,10.00007,0,0,0,20,64.5Zm0,14a4,4,0,1,1,4-4A4,4,0,0,1,20,78.5Z" style="fill:#ced8ee"/><g style="opacity:0.30000000000000004"><path d="M20,67.5A9.99348,9.99348,0,0,1,29.87549,76a10.00028,10.00028,0,1,0-19.751,0A9.99348,9.99348,0,0,1,20,67.5Z" style="fill:#7690a8"/></g><path d="M22.75879,95.5H17.24121a.9989.9989,0,0,1-.94824-.68359l-1.418-4.25293a16.81033,16.81033,0,0,1-2.61035-1.08105L8.25586,91.4873a.997.997,0,0,1-1.1543-.1875L3.2002,87.39844a.99981.99981,0,0,1-.1875-1.1543l2.00488-4.00879A16.81033,16.81033,0,0,1,3.93652,79.625L-.31641,78.207A.9989.9989,0,0,1-1,77.25879V71.74121A.9989.9989,0,0,1-.31641,70.793l4.25293-1.418a16.81033,16.81033,0,0,1,1.08105-2.61035L3.0127,62.75586a.99981.99981,0,0,1,.1875-1.1543L7.10156,57.7002a.99647.99647,0,0,1,1.1543-.1875l4.00879,2.00488A16.81033,16.81033,0,0,1,14.875,58.43652l1.418-4.25293A.9989.9989,0,0,1,17.24121,53.5h5.51758a.9989.9989,0,0,1,.94824.68359l1.418,4.25293a16.81033,16.81033,0,0,1,2.61035,1.08105l4.00879-2.00488a.99981.99981,0,0,1,1.1543.1875l3.90137,3.90137a.99981.99981,0,0,1,.1875,1.1543l-2.00488,4.00879A16.81033,16.81033,0,0,1,36.06348,69.375l4.25293,1.418A.9989.9989,0,0,1,41,71.74121v5.51758a.9989.9989,0,0,1-.68359.94824l-4.25293,1.418a16.81033,16.81033,0,0,1-1.08105,2.61035l2.00488,4.00879a.99981.99981,0,0,1-.1875,1.1543L32.89844,91.2998a.999.999,0,0,1-1.1543.1875l-4.00879-2.00488A16.81033,16.81033,0,0,1,25.125,90.56348l-1.418,4.25293A.9989.9989,0,0,1,22.75879,95.5Zm-4.79687-2h4.07617l1.35352-4.06055a.99741.99741,0,0,1,.6748-.64551,14.80628,14.80628,0,0,0,3.165-1.31055,1.00177,1.00177,0,0,1,.93457-.02148L31.99414,89.376,34.876,86.49414,32.96191,82.666a1.00152,1.00152,0,0,1,.02148-.93457,14.80628,14.80628,0,0,0,1.31055-3.165.99741.99741,0,0,1,.64551-.6748L39,76.53809V72.46191L34.93945,71.1084a.99741.99741,0,0,1-.64551-.6748,14.80628,14.80628,0,0,0-1.31055-3.165,1.00152,1.00152,0,0,1-.02148-.93457L34.876,62.50586,31.99414,59.624,28.166,61.53809a.9962.9962,0,0,1-.93457-.02148,14.80628,14.80628,0,0,0-3.165-1.31055.99741.99741,0,0,1-.6748-.64551L22.03809,55.5H17.96191L16.6084,59.56055a.99741.99741,0,0,1-.6748.64551,14.80628,14.80628,0,0,0-3.165,1.31055.99608.99608,0,0,1-.93457.02148L8.00586,59.624,5.124,62.50586,7.03809,66.334a1.00152,1.00152,0,0,1-.02148.93457,14.80629,14.80629,0,0,0-1.31055,3.165.99741.99741,0,0,1-.64551.6748L1,72.46191v4.07617L5.06055,77.8916a.99741.99741,0,0,1,.64551.6748,14.80629,14.80629,0,0,0,1.31055,3.165,1.00152,1.00152,0,0,1,.02148.93457L5.124,86.49414,8.00586,89.376,11.834,87.46191a1.00165,1.00165,0,0,1,.93457.02148,14.80628,14.80628,0,0,0,3.165,1.31055.99741.99741,0,0,1,.6748.64551ZM40,77.25879h0ZM20,79.5a5,5,0,1,1,5-5A5.00589,5.00589,0,0,1,20,79.5Zm0-8a3,3,0,1,0,3,3A3.00328,3.00328,0,0,0,20,71.5Z" style="fill:#6d6daa"/><path d="M20,85.5a11,11,0,1,1,11-11A11.01245,11.01245,0,0,1,20,85.5Zm0-20a9,9,0,1,0,9,9A9.00984,9.00984,0,0,0,20,65.5Z" style="fill:#6d6daa"/><path d="M146.0032,62.791l-2.90875-.48474a22.88033,22.88033,0,0,0-.7052-3.55872l2.49945-1.55957a1.5,1.5,0,0,0,.5918-1.84668l-.55817-1.34766a1.5,1.5,0,0,0-1.7243-.88721l-2.87018.66455a23.033,23.033,0,0,0-2.01874-3.01367l1.715-2.40112a1.4998,1.4998,0,0,0-.15991-1.93237l-1.03143-1.03149a1.5001,1.5001,0,0,0-1.9325-.15991l-2.40106,1.71509a23.036,23.036,0,0,0-3.01373-2.0188l.66473-2.87012a1.50032,1.50032,0,0,0-.88733-1.72437l-1.3476-.55811a1.50007,1.50007,0,0,0-1.84668.5918l-1.55951,2.49951a22.88129,22.88129,0,0,0-3.55878-.70532l-.4848-2.90869A1.49992,1.49992,0,0,0,120.98592,38h-1.45862a1.49992,1.49992,0,0,0-1.47961,1.25342l-.4848,2.90869a22.88129,22.88129,0,0,0-3.55878.70532l-1.55951-2.49951a1.50007,1.50007,0,0,0-1.84668-.5918l-1.3476.55811a1.50038,1.50038,0,0,0-.88733,1.72437l.66473,2.87012a23.036,23.036,0,0,0-3.01373,2.0188l-2.40106-1.71509a1.5001,1.5001,0,0,0-1.9325.15991L100.649,46.42383a1.4998,1.4998,0,0,0-.15991,1.93237l1.715,2.40112a23.02645,23.02645,0,0,0-2.01868,3.01367l-2.87024-.66455a1.5,1.5,0,0,0-1.7243.88721l-.55817,1.34766a1.5,1.5,0,0,0,.5918,1.84668L98.124,58.74756a22.86612,22.86612,0,0,0-.7052,3.55872L94.51,62.791a1.50006,1.50006,0,0,0-1.25342,1.47974v1.4585A1.49984,1.49984,0,0,0,94.51,67.20886l2.90881.48474a22.86483,22.86483,0,0,0,.7052,3.55884L95.62453,72.812a1.5,1.5,0,0,0-.5918,1.84668l.55817,1.34741a1.50025,1.50025,0,0,0,1.72424.88745l2.8703-.66467a23.01958,23.01958,0,0,0,2.01868,3.01379l-1.715,2.401a1.5,1.5,0,0,0,.15991,1.9325l1.03143,1.03149a1.50009,1.50009,0,0,0,1.9325.15979l2.40106-1.715a23.03114,23.03114,0,0,0,3.01373,2.01868l-.66473,2.87024a1.5,1.5,0,0,0,.88733,1.72412l1.34772.55823a1.49981,1.49981,0,0,0,1.84656-.5918l1.55951-2.49939a22.8811,22.8811,0,0,0,3.55878.7052l.4848,2.90881A1.49992,1.49992,0,0,0,119.52731,92h1.45862a1.49992,1.49992,0,0,0,1.47961-1.25342l.4848-2.90881a22.8811,22.8811,0,0,0,3.55878-.7052l1.55951,2.49939a1.49987,1.49987,0,0,0,1.84662.5918l1.34766-.55823a1.49989,1.49989,0,0,0,.88733-1.72412l-.66473-2.87024a23.03114,23.03114,0,0,0,3.01373-2.01868l2.40106,1.715a1.50009,1.50009,0,0,0,1.9325-.15979l1.03143-1.03149a1.5,1.5,0,0,0,.15991-1.9325l-1.715-2.401a23.0261,23.0261,0,0,0,2.01874-3.01379l2.8703.66467a1.50017,1.50017,0,0,0,1.72418-.88745l.55817-1.34741a1.5,1.5,0,0,0-.5918-1.84668l-2.49945-1.55957a22.879,22.879,0,0,0,.7052-3.55884l2.90875-.48474a1.49984,1.49984,0,0,0,1.25342-1.47961v-1.4585A1.50006,1.50006,0,0,0,146.0032,62.791ZM120.25661,68a3,3,0,1,1,3-3A3,3,0,0,1,120.25661,68Z" style="fill:#ced8ee"/><path d="M120.25661,83a18,18,0,1,0-18-18A18,18,0,0,0,120.25661,83Zm0-21a3,3,0,1,1-3,3A3,3,0,0,1,120.25661,62Z" style="fill:#eef6ff"/><path d="M120.25661,54a11,11,0,1,0,11,11A11,11,0,0,0,120.25661,54Zm0,14a3,3,0,1,1,3-3A3,3,0,0,1,120.25661,68Z" style="fill:#ced8ee"/><g style="opacity:0.30000000000000004"><path d="M120.25661,57a10.99352,10.99352,0,0,1,10.88593,9.5,11.00031,11.00031,0,1,0-21.77185,0A10.99352,10.99352,0,0,1,120.25661,57Z" style="fill:#7690a8"/></g><path d="M120.98633,93h-1.459a2.49154,2.49154,0,0,1-2.46582-2.08984l-.36328-2.17871c-.751-.1123-1.498-.26074-2.23633-.44336l-1.16895,1.873a2.49281,2.49281,0,0,1-3.07715.98633l-1.34863-.55762a2.49255,2.49255,0,0,1-1.47754-2.875l.49707-2.15039c-.64746-.3916-1.28027-.81543-1.89258-1.26855l-1.7998,1.28516a2.49186,2.49186,0,0,1-3.2207-.2666L99.94238,84.2832a2.492,2.492,0,0,1-.2666-3.22168l1.28516-1.79883q-.68115-.91846-1.26855-1.89355l-2.15137.499a2.48839,2.48839,0,0,1-2.874-1.48047L94.10938,75.041a2.48806,2.48806,0,0,1,.9873-3.07715l1.87207-1.16895c-.18359-.73828-.332-1.48633-.44336-2.23633l-2.17969-.36328a2.4937,2.4937,0,0,1-2.08887-2.46582v-1.459a2.49373,2.49373,0,0,1,2.08789-2.46582l2.18066-.36328c.11133-.75.25977-1.498.44336-2.23633l-1.873-1.16895a2.48967,2.48967,0,0,1-.98633-3.07812l.55762-1.34668a2.4914,2.4914,0,0,1,2.873-1.47949l2.15234.499q.58594-.97266,1.26855-1.89355l-1.28516-1.7998a2.4908,2.4908,0,0,1,.2666-3.2207l1.03125-1.03125a2.49431,2.49431,0,0,1,3.2207-.26758l1.79883,1.28613c.61133-.45215,1.24512-.877,1.89355-1.26855l-.498-2.15137a2.494,2.494,0,0,1,1.47754-2.874l1.34863-.55762a2.48821,2.48821,0,0,1,3.07813.98633l1.16895,1.873c.73535-.18262,1.4834-.33105,2.23633-.44336l.36328-2.17969A2.49157,2.49157,0,0,1,119.52734,37h1.459a2.49308,2.49308,0,0,1,2.46582,2.08887l.36328,2.17969c.752.1123,1.5.26074,2.23535.44336l1.16895-1.873a2.49422,2.49422,0,0,1,3.0791-.98633l1.34668.55762a2.49556,2.49556,0,0,1,1.47949,2.873l-.499,2.15234c.64844.3916,1.28223.81641,1.89355,1.26855l1.7998-1.28516a2.49206,2.49206,0,0,1,3.2207.2666l1.03125,1.03125a2.49421,2.49421,0,0,1,.26758,3.2207l-1.28613,1.7998q.67969.91846,1.26855,1.89355l2.15137-.499a2.48668,2.48668,0,0,1,2.873,1.48047l.55859,1.34668a2.49134,2.49134,0,0,1-.98633,3.07715l-1.873,1.16992c.18262.73828.33105,1.48535.44336,2.23535l2.17871.36328h.001a2.49308,2.49308,0,0,1,2.08887,2.46582v1.459a2.49308,2.49308,0,0,1-2.08887,2.46582l-2.17969.36328c-.1123.75-.26074,1.49707-.44336,2.23535l1.873,1.16992a2.49134,2.49134,0,0,1,.98633,3.07715l-.55859,1.34766a2.4887,2.4887,0,0,1-2.873,1.47949l-2.15137-.499q-.5874.97266-1.26855,1.89355l1.28516,1.7998a2.49293,2.49293,0,0,1-.2666,3.2207L139.54,85.31445a2.4945,2.4945,0,0,1-3.2207.26758l-1.7998-1.28613c-.61133.45215-1.24512.877-1.89355,1.26855l.499,2.15137a2.49621,2.49621,0,0,1-1.47949,2.874l-1.34766.55762a2.49209,2.49209,0,0,1-3.07715-.98535l-1.16992-1.874c-.73828.18262-1.48633.33105-2.23535.44336l-.36328,2.17871A2.493,2.493,0,0,1,120.98633,93Zm-6.98242-6.86719a.99252.99252,0,0,1,.27051.03711,22.09929,22.09929,0,0,0,3.4043.6748.99988.99988,0,0,1,.87012.82813l.48535,2.9082A.49843.49843,0,0,0,119.52734,91h1.459a.49918.49918,0,0,0,.49316-.41895l.48438-2.90723a.99984.99984,0,0,1,.87012-.8291,22.00667,22.00667,0,0,0,3.4043-.6748,1.00049,1.00049,0,0,1,1.11914.43359l1.55957,2.499a.50045.50045,0,0,0,.61523.19727l1.34766-.55762a.49941.49941,0,0,0,.2959-.57617l-.665-2.86914a1.00142,1.00142,0,0,1,.48535-1.09766,22.22125,22.22125,0,0,0,2.88281-1.93164,1.00223,1.00223,0,0,1,1.20117-.02832l2.40137,1.71484a.50261.50261,0,0,0,.64453-.05371l1.03125-1.03125a.49743.49743,0,0,0,.05273-.64453l-1.71387-2.40137a1.00076,1.00076,0,0,1,.02832-1.20117,22.09081,22.09081,0,0,0,1.93164-2.88281,1.00563,1.00563,0,0,1,1.09766-.48535l2.87012.665a.49853.49853,0,0,0,.57422-.29492l.55859-1.34863a.49727.49727,0,0,0-.19727-.61426l-2.499-1.56055a1.0008,1.0008,0,0,1-.43359-1.11914,22.00668,22.00668,0,0,0,.6748-3.4043.99984.99984,0,0,1,.8291-.87012l2.9082-.48437a.49921.49921,0,0,0,.418-.49316v-1.459a.49921.49921,0,0,0-.418-.49316l-2.9082-.48437a.99984.99984,0,0,1-.8291-.87012,22.00668,22.00668,0,0,0-.6748-3.4043,1.0008,1.0008,0,0,1,.43359-1.11914l2.499-1.56055a.49727.49727,0,0,0,.19727-.61426L143.998,54.377a.494.494,0,0,0-.57422-.2959l-2.87012.665a1.00232,1.00232,0,0,1-1.09766-.48535,22.09081,22.09081,0,0,0-1.93164-2.88281,1.00076,1.00076,0,0,1-.02832-1.20117l1.71484-2.40137a.49869.49869,0,0,0-.05371-.64453L138.126,46.09961a.4978.4978,0,0,0-.64453-.05273l-2.40137,1.71387a1.00076,1.00076,0,0,1-1.20117-.02832,22.22125,22.22125,0,0,0-2.88281-1.93164,1.00142,1.00142,0,0,1-.48535-1.09766l.665-2.87012a.49877.49877,0,0,0-.2959-.5752l-1.34766-.55762a.49758.49758,0,0,0-.61621.19824l-1.55859,2.498a1.00133,1.00133,0,0,1-1.12012.43359,21.95111,21.95111,0,0,0-3.40332-.6748.99984.99984,0,0,1-.87012-.8291l-.48437-2.9082a.49921.49921,0,0,0-.49316-.418h-1.459a.49846.49846,0,0,0-.49316.418l-.48535,2.90918a.99988.99988,0,0,1-.87012.82813,21.92842,21.92842,0,0,0-3.40332.6748,1.00027,1.00027,0,0,1-1.12012-.43359l-1.55957-2.499a.49487.49487,0,0,0-.61523-.19727l-1.34766.55762a.49917.49917,0,0,0-.2959.57422l.665,2.87109a1.00142,1.00142,0,0,1-.48535,1.09766,22.22125,22.22125,0,0,0-2.88281,1.93164,1.0008,1.0008,0,0,1-1.20117.02832l-2.40039-1.71484a.49986.49986,0,0,0-.64453.05371l-1.03125,1.03125a.49747.49747,0,0,0-.05371.64355l1.71484,2.40234a.99934.99934,0,0,1-.0293,1.20117,22.03381,22.03381,0,0,0-1.92969,2.88184,1.00818,1.00818,0,0,1-1.09863.48633l-2.87012-.665a.49565.49565,0,0,0-.5752.2959L95.957,55.72461a.49576.49576,0,0,0,.19629.61426l2.5,1.56055a1.00133,1.00133,0,0,1,.43359,1.12012,21.75513,21.75513,0,0,0-.6748,3.40234,1.00089,1.00089,0,0,1-.8291.87109l-2.90918.48438a.49849.49849,0,0,0-.417.49316v1.459a.49846.49846,0,0,0,.418.49316l2.9082.48438a1.00089,1.00089,0,0,1,.8291.87109,21.75513,21.75513,0,0,0,.6748,3.40234,1.00133,1.00133,0,0,1-.43359,1.12012l-2.499,1.56055a.49416.49416,0,0,0-.19727.61328l.55762,1.34863a.49465.49465,0,0,0,.57617.2959l2.86914-.665a1.00591,1.00591,0,0,1,1.09863.48633,22.03381,22.03381,0,0,0,1.92969,2.88184.99934.99934,0,0,1,.0293,1.20117l-1.71484,2.40137a.49869.49869,0,0,0,.05371.64453l1.03125,1.03125a.49858.49858,0,0,0,.64453.05273l2.40039-1.71387a1.00073,1.00073,0,0,1,1.2002.02832,22.3,22.3,0,0,0,2.88379,1.93164,1.00142,1.00142,0,0,1,.48535,1.09766l-.66406,2.87012a.49773.49773,0,0,0,.2959.5752l1.34668.55762a.50114.50114,0,0,0,.61523-.19727l1.55957-2.499A1.00147,1.00147,0,0,1,114.00391,86.13281ZM120.25684,69a4,4,0,1,1,4-4A4.004,4.004,0,0,1,120.25684,69Zm0-6a2,2,0,1,0,2,2A2.00261,2.00261,0,0,0,120.25684,63Z" style="fill:#6d6daa"/><path d="M120.25684,77a12,12,0,1,1,12-12A12.01312,12.01312,0,0,1,120.25684,77Zm0-22a10,10,0,1,0,10,10A10.01177,10.01177,0,0,0,120.25684,55Z" style="fill:#6d6daa"/><path d="M120.25661,80a17.99183,17.99183,0,0,1-17.92426-16.5c-.041.49585-.07574.99365-.07574,1.5a18,18,0,0,0,36,0c0-.50635-.03473-1.00415-.07574-1.5A17.99179,17.99179,0,0,1,120.25661,80Z" style="fill:#fff"/></g></g><g style="clip-path:url(#clip-path-2)"><path d="M88.28906,79.29974S81.94355,76.68962,81.5,76.5a6.405,6.405,0,0,1-2.98-8.187H49.44189c1.67944,3.79013-1.11377,7.3902-2.92847,8.21988-.92549.42314-6.52087,2.8674-6.52087,2.8674A27.65362,27.65362,0,0,0,23,104.91614V125h82V104.69611A27.6535,27.6535,0,0,0,88.28906,79.29974Z" style="fill:#ced8ee"/><g style="opacity:0.5"><path d="M39.99255,84.08716S46.50708,81.209,46.5,81.187a7.916,7.916,0,0,0,3.99683-10.04492c-1.57918,3.9285-10.50427,8.25806-10.50427,8.25806A27.65369,27.65369,0,0,0,23,104.916v4.687A27.65369,27.65369,0,0,1,39.99255,84.08716Z" style="fill:#fff"/><path d="M88.28906,79.29968S81.25183,76.33521,81.5,76.5c-1.14966-.7627-3.34692-3.95-4.00439-5.43506C75.928,74.74731,78.125,79.41667,81.5,81.187c-.26381-.13838,6.78906,2.79968,6.78906,2.79968A27.65344,27.65344,0,0,1,105,109.38306v-4.687A27.65344,27.65344,0,0,0,88.28906,79.29968Z" style="fill:#fff"/></g><path d="M78.52,68.313H49.44189a5.74565,5.74565,0,0,1,.02357,4.903l1.80588,1.80588a13.58407,13.58407,0,0,0,9.60526,3.97865h6.2468a13.58407,13.58407,0,0,0,9.60526-3.97865l1.82358-1.82358A5.70746,5.70746,0,0,1,78.52,68.313Z" style="fill:#2c4b75;opacity:0.2"/><path d="M89,125a.99942.99942,0,0,1-1-1V101.5a1,1,0,0,1,2,0V124A.99942.99942,0,0,1,89,125Z" style="fill:#6d6daa"/><path d="M39,125a.99942.99942,0,0,1-1-1V101.5a1,1,0,0,1,2,0V124A.99942.99942,0,0,1,39,125Z" style="fill:#6d6daa"/><path d="M105,125a.99942.99942,0,0,1-1-1V104.69629A26.63184,26.63184,0,0,0,87.89355,80.21777l-6.80371-3.02637a7.29945,7.29945,0,0,1-3.48633-9.2793.9997.9997,0,0,1,1.832.80078A5.26941,5.26941,0,0,0,81.92773,75.375l6.76758,3.01074A28.62544,28.62544,0,0,1,106,104.69629V124A.99942.99942,0,0,1,105,125Z" style="fill:#6d6daa"/><path d="M23,125a.99942.99942,0,0,1-1-1V104.916A28.5823,28.5823,0,0,1,39.60645,78.47754c.03027-.0127,4.4375-1.93555,6.39648-2.83594,1.63281-.75,3.93848-3.78613,2.52734-6.91895a1.00009,1.00009,0,1,1,1.82422-.82031c1.97363,4.38184-1.19043,8.48828-3.5166,9.55664-1.97656.9082-6.40137,2.83887-6.44629,2.8584A26.59292,26.59292,0,0,0,24,104.916V124A.99942.99942,0,0,1,23,125Z" style="fill:#6d6daa"/><path d="M63.49414,90.00684A18.24417,18.24417,0,0,0,46,108.37451v4.29211A1.33329,1.33329,0,0,0,47.33325,114h33.3335A1.33329,1.33329,0,0,0,82,112.66663V108A18.00049,18.00049,0,0,0,63.49414,90.00684Z" style="fill:#fff"/><path d="M80.667,115H47.333A2.336,2.336,0,0,1,45,112.667v-4.293A19.32043,19.32043,0,0,1,63.4668,89.00684h0A19.00157,19.00157,0,0,1,83,108v4.667A2.336,2.336,0,0,1,80.667,115ZM63.52148,91.00684A17.30566,17.30566,0,0,0,47,108.374v4.293a.33342.33342,0,0,0,.333.333H80.667a.33342.33342,0,0,0,.333-.333V108A16.99867,16.99867,0,0,0,63.52148,91.00684Zm-.02734-1h0Z" style="fill:#6d6daa"/><path d="M70.33333,97.03031l1.3324-2.30778A15.257,15.257,0,0,0,64,92.66666v2.66667a12.592,12.592,0,0,1,6.321,1.70093Z" style="fill:#ffc661"/><path d="M56.33426,94.72253l1.3324,2.30778.01607.00167A12.59178,12.59178,0,0,1,64,95.33333V92.66666A15.257,15.257,0,0,0,56.33426,94.72253Z" style="fill:#ffed6e"/><path d="M74.96968,101.66666l-.00163.01615A12.59186,12.59186,0,0,1,76.66667,108h2.66667a15.25646,15.25646,0,0,0-2.05591-7.66573Z" style="fill:#f47d7d"/><path d="M53.03031,101.66666l-2.30774-1.3324A15.25646,15.25646,0,0,0,48.66666,108h2.66667a12.5918,12.5918,0,0,1,1.70195-6.32267Z" style="fill:#89dbba"/><path d="M71.66573,94.72253l-1.3324,2.30778-.009.006a12.71076,12.71076,0,0,1,4.63062,4.625l.01469.00533,2.30774-1.3324A15.40149,15.40149,0,0,0,71.66573,94.72253Z" style="fill:#ff9797"/><path d="M50.72257,100.33427l2.30774,1.3324.00781.00594a12.71137,12.71137,0,0,1,4.63717-4.63611l-.00863-.00618-1.3324-2.30778A15.40149,15.40149,0,0,0,50.72257,100.33427Z" style="fill:#b1f1a8"/><circle cx="64" cy="108" r="2" style="fill:#ced8ee"/><path d="M64,111a3,3,0,1,1,3-3A3.00328,3.00328,0,0,1,64,111Zm0-4a1,1,0,1,0,1,1A1.00068,1.00068,0,0,0,64,107Z" style="fill:#6d6daa"/><path d="M64,96.333a.99942.99942,0,0,1-1-1V92.667a1,1,0,0,1,2,0v2.666A.99942.99942,0,0,1,64,96.333Z" style="fill:#6d6daa"/><path d="M79.333,109H76.667a1,1,0,0,1,0-2h2.666a1,1,0,0,1,0,2Z" style="fill:#6d6daa"/><path d="M51.333,109H48.667a1,1,0,0,1,0-2h2.666a1,1,0,0,1,0,2Z" style="fill:#6d6daa"/><path d="M57.668,98.03027a.99907.99907,0,0,1-.86719-.5l-1.334-2.30957a1.00016,1.00016,0,0,1,1.73242-1l1.334,2.30957a.99991.99991,0,0,1-.86523,1.5Z" style="fill:#6d6daa"/><path d="M74.9707,102.667a1,1,0,0,1-.501-1.86621l2.30957-1.334a1.00016,1.00016,0,0,1,1,1.73242l-2.30957,1.334A.99445.99445,0,0,1,74.9707,102.667Z" style="fill:#6d6daa"/><path d="M53.0293,102.667a.99445.99445,0,0,1-.499-.13379l-2.30957-1.334a1.00016,1.00016,0,0,1,1-1.73242l2.30957,1.334a1,1,0,0,1-.501,1.86621Z" style="fill:#6d6daa"/><path d="M70.332,98.03027a.99991.99991,0,0,1-.86523-1.5l1.334-2.30957a1.00016,1.00016,0,0,1,1.73242,1l-1.334,2.30957A.99907.99907,0,0,1,70.332,98.03027Z" style="fill:#6d6daa"/><path d="M62.2666,108a.99445.99445,0,0,1-.499-.13379l-6.92773-4a1.00016,1.00016,0,1,1,1-1.73242l6.92773,4A1,1,0,0,1,62.2666,108Z" style="fill:#6d6daa"/><path d="M89.05044,35.24948h.99992A3.99964,3.99964,0,0,1,94.05,39.24913v7.00071a3.99964,3.99964,0,0,1-3.99964,3.99964h-.99992a0,0,0,0,1,0,0v-15A0,0,0,0,1,89.05044,35.24948Z" style="fill:#ced8ee"/><path d="M90.05035,47h-.99994v3.24951h.99994A3.99972,3.99972,0,0,0,94.05,46.24976V43.00037A3.99969,3.99969,0,0,1,90.05035,47Z" style="fill:#2c4b75;opacity:0.2"/><path d="M90.05007,35.24944h-.99962v4.99992h.99962c2.20919,0,3.99993,2.23854,3.99993,5V40.24944C94.05,37.48806,92.25926,35.24944,90.05007,35.24944Z" style="fill:#fff;opacity:0.5"/><path d="M90.05078,51.249h-1a.99942.99942,0,0,1-1-1v-15a.99942.99942,0,0,1,1-1h1a5.00505,5.00505,0,0,1,4.999,5V46.25A5.00422,5.00422,0,0,1,90.05078,51.249Zm0-2h0Zm0-13v13a3.00287,3.00287,0,0,0,2.999-2.999V39.249A3.00307,3.00307,0,0,0,90.05078,36.249Z" style="fill:#6d6daa"/><path d="M34.05,35.24948h.99992a3.99964,3.99964,0,0,1,3.99964,3.99964v7.00071a3.99965,3.99965,0,0,1-3.99965,3.99965H34.05a0,0,0,0,1,0,0v-15A0,0,0,0,1,34.05,35.24948Z" style="fill:#ced8ee" transform="translate(73.09956 85.49896) rotate(180)"/><path d="M34.05,43.00037v3.24939a3.99972,3.99972,0,0,0,3.99963,3.99976h.99994V47h-.99994A3.99969,3.99969,0,0,1,34.05,43.00037Z" style="fill:#2c4b75;opacity:0.2"/><path d="M38.04993,35.24944h.99962v4.99992h-.99962c-2.20919,0-3.99993,2.23854-3.99993,5V40.24944C34.05,37.48806,35.84074,35.24944,38.04993,35.24944Z" style="fill:#fff;opacity:0.5"/><path d="M39.0498,51.249h-1a5.00505,5.00505,0,0,1-5-4.999V39.249a5.00589,5.00589,0,0,1,5-5h1a.99942.99942,0,0,1,1,1v15A.99942.99942,0,0,1,39.0498,51.249Zm-1-15a3.00328,3.00328,0,0,0-3,3V46.25a3.00307,3.00307,0,0,0,3,2.999Z" style="fill:#6d6daa"/><path d="M99,44H95a1,1,0,0,1,0-2h4a1,1,0,0,1,0,2Z" style="fill:#6d6daa"/><path d="M100,45a2,2,0,1,1,2-2A2.00261,2.00261,0,0,1,100,45Zm0-2v0Z" style="fill:#6d6daa"/><path d="M34,44H30a1,1,0,0,1,0-2h4a1,1,0,0,1,0,2Z" style="fill:#6d6daa"/><path d="M29,45a2,2,0,1,1,2-2A2.00261,2.00261,0,0,1,29,45Zm0-2.002v0Z" style="fill:#6d6daa"/><path d="M64,9C47,9,39,16.262,39,23.48528V60c0,9,12,13.99976,25,13.99976C76,73.99976,89,69,89,60V23.48528C89,16.262,80,9,64,9Z" style="fill:#ced8ee"/><path d="M64,69c-13,0-25-4.99976-25-13.99976V60c0,9,12,13.99976,25,13.99976C76,73.99976,89,69,89,60V55.00024C89,64.00024,76,69,64,69Z" style="fill:#2c4b75;opacity:0.2"/><path d="M64,14.00024C51,14.00024,39,19,39,28V23.00024c0-9,12-13.99976,25-13.99976,12,0,25,4.99976,25,13.99976V28C89,19,76,14.00024,64,14.00024Z" style="fill:#fff;opacity:0.5"/><path d="M64,75c-17.86328,0-26-7.77539-26-15V23.48535C38,15.77734,46.03906,8,64,8c12.60449,0,26,5.42676,26,15.48535V60C90,69.74316,76.60449,75,64,75Zm0-65c-11.55957,0-24,4.21973-24,13.48535V60c0,8.53418,12.07324,13,24,13,11.79688,0,24-4.8623,24-13V23.48535C88,16.94824,79.58887,10,64,10Z" style="fill:#6d6daa"/><circle cx="64" cy="50" r="4" style="fill:#2c4b75;opacity:0.2"/><circle cx="51" cy="43" r="5" style="fill:#2c4b75;opacity:0.2"/><circle cx="51" cy="41" r="4" style="fill:#fff"/><path d="M51,46a5,5,0,1,1,5-5A5.00589,5.00589,0,0,1,51,46Zm0-8a3,3,0,1,0,3,3A3.00328,3.00328,0,0,0,51,38Z" style="fill:#6d6daa"/><circle cx="77" cy="43" r="5" style="fill:#2c4b75;opacity:0.2"/><circle cx="77" cy="41" r="4" style="fill:#fff"/><path d="M77,46a5,5,0,1,1,5-5A5.00589,5.00589,0,0,1,77,46Zm0-8a3,3,0,1,0,3,3A3.00328,3.00328,0,0,0,77,38Z" style="fill:#6d6daa"/><circle cx="64" cy="48" r="3" style="fill:#ffd599"/><path d="M64,52a4,4,0,1,1,4-4A4.004,4.004,0,0,1,64,52Zm0-6a2,2,0,1,0,2,2A2.00261,2.00261,0,0,0,64,46Z" style="fill:#6d6daa"/><path d="M74,58.92285H54a.99942.99942,0,0,1-1-1V56a1,1,0,0,1,2,0v.92285H73V56a1,1,0,0,1,2,0v1.92285A.99942.99942,0,0,1,74,58.92285Z" style="fill:#6d6daa"/></g></svg>