<?xml version="1.0" ?><!DOCTYPE svg  PUBLIC '-//W3C//DTD SVG 1.1//EN'  'http://www.w3.org/Graphics/SVG/1.1/DTD/svg11.dtd'><svg enable-background="new 0 0 49 49" id="Layer_1" version="1.1" viewBox="0 0 49 49" xml:space="preserve" xmlns="http://www.w3.org/2000/svg" xmlns:xlink="http://www.w3.org/1999/xlink"><g><g><g><path d="M29.68,46.172h-1.236l-5.85-17.488l-5.909,17.488h-1.236l1.744-21.62     c1.769-0.454,5.401-2.244,5.401-2.244s3.632,1.79,5.402,2.244h0.012L29.68,46.172z" fill="#2C897C"/></g><g><path d="M31.83,16.682l-1.65-6.74c-0.22-0.92-1.04-1.56-1.98-1.56H17.41c-0.72,0-1.38,0.38-1.75,1l-3.2,5.36     c-0.45,0.76-0.63,1.65-0.52,2.53c0.12,0.95,0.93,1.63,1.86,1.63c0.11,0,0.23-0.01,0.34-0.03l3.06-0.57v6.25h10.81v-3.75     l2.85-1.76C31.66,18.552,32.05,17.602,31.83,16.682z M17.2,16.392l-1.8-0.12l1.8-1.81V16.392z M28.01,18.802v-4.08l1.31,2.57     L28.01,18.802z" fill="#478E87"/></g><g><g><path d="M26.319,22.048c-0.253-0.265-0.402-0.624-0.486-1.025c-0.005-0.063,0.016-0.116,0.063-0.159l0.401-0.413      l0.842-0.302l0.465,0.618l-0.401,0.72l-0.642,0.564C26.485,22.119,26.387,22.105,26.319,22.048z" fill="#FECB00"/></g></g><g><path d="M28.387,18.365l-1.499,1.731l0.534,1.079l3.443-2.132c0.279-0.173,0.487-0.415,0.657-0.678H28.387z" fill="#478E87"/></g><g><g><g><path d="M26.235,16.218l-1.945-1.715c-0.321-0.283-0.765-0.383-1.176-0.264l-0.724,0.209l-0.44-0.388       l-0.233,0.264l3.71,3.272l-0.91,1.032l0.427,0.376l1.369-1.552C26.632,17.09,26.597,16.537,26.235,16.218z M25.447,17.186       l-2.226-1.963c-0.086-0.076-0.058-0.216,0.046-0.254c0.426-0.158,0.905-0.07,1.246,0.231l1.511,1.332       c0.184,0.163,0.194,0.438,0.039,0.615C25.903,17.328,25.627,17.345,25.447,17.186z" fill="#124860"/></g><g><path d="M23.861,19.527l-0.993,1.127c-0.057,0.062-0.153,0.07-0.214,0.013l-1.023-0.905       c-0.062-0.057-0.07-0.153-0.013-0.214l0.993-1.127c0.057-0.062,0.153-0.07,0.214-0.013l1.023,0.906       C23.91,19.369,23.918,19.465,23.861,19.527z" fill="#124860"/></g><g><path d="M21.615,14.088l-1.078,1.219l-0.373-0.319l-6.197-2.613c-0.263-0.124-0.35-0.468-0.149-0.696       l1.929-2.192c0.158-0.175,0.431-0.191,0.606-0.033L21.615,14.088z" fill="#124860"/></g><g><path d="M21.856,14.166l-0.067,0.076l-0.177-0.156l-1.079,1.224l0.681,0.601l-0.646,0.511l-2.288,0.639       l0.422,1.276l0.309-0.054l-0.085-0.237l2.048-0.679l1.321,1.165l-0.278,0.315l1.894,0.866l1.852-2.101L21.856,14.166z        M22.31,18.21c-0.086,0.005-0.173-0.022-0.243-0.083l-0.564-0.497c-0.139-0.123-0.153-0.336-0.03-0.475       c0.061-0.069,0.145-0.108,0.232-0.113c0.086-0.005,0.174,0.022,0.243,0.083l0.564,0.497c0.139,0.123,0.153,0.335,0.03,0.474       C22.479,18.166,22.396,18.204,22.31,18.21z" fill="#0A3649"/></g><g><g><path d="M21.076,16.662c0.016,0.366-0.108,0.735-0.309,1.092c-0.038,0.051-0.089,0.077-0.152,0.078        l-0.574,0.047l-0.832-0.328l0.057-0.772l0.776-0.278l0.855-0.001C20.998,16.499,21.062,16.574,21.076,16.662z" fill="#FECB00"/></g></g><g><path d="M22.196,17.345c0,0-0.333-0.025-0.494,0.237c-0.021,0.055-0.065,0.069-0.08,0.005       c0,0-0.039-0.276,0.324-0.462" fill="#0A3649"/></g><g><rect fill="#0A3649" height="0.928" transform="matrix(0.75 0.6614 -0.6614 0.75 21.4924 -13.8992)" width="9.567" x="24.351" y="21.021"/></g><g><path d="M33.022,24.1l-0.803,0.911l-6.811-5.111l-0.054-0.374l1.113-1.262c0.141-0.16,0.374-0.167,0.519-0.025       L33.022,24.1z" fill="#124860"/></g><g><g><path d="M26.991,18.668l-1.085,1.231c-0.031,0.035-0.082,0.04-0.119,0.012l-0.006-0.005        c-0.037-0.033-0.041-0.088-0.008-0.125l1.085-1.231c0.033-0.038,0.092-0.04,0.129-0.005        C27.021,18.579,27.023,18.633,26.991,18.668z" fill="#0A3649"/><path d="M27.413,19.078l-1.035,1.174c-0.031,0.035-0.083,0.04-0.12,0.012l-0.005-0.004        c-0.036-0.032-0.041-0.088-0.008-0.125l1.035-1.174c0.033-0.038,0.092-0.04,0.129-0.005        C27.442,18.988,27.444,19.043,27.413,19.078z" fill="#0A3649"/><path d="M27.834,19.488l-0.986,1.118c-0.031,0.035-0.083,0.04-0.12,0.012l-0.005-0.004        c-0.036-0.032-0.041-0.088-0.008-0.125l0.986-1.118c0.033-0.038,0.092-0.04,0.128-0.005        C27.863,19.398,27.866,19.452,27.834,19.488z" fill="#0A3649"/><path d="M28.256,19.897l-0.937,1.062c-0.031,0.035-0.083,0.04-0.12,0.012l-0.005-0.004        c-0.036-0.032-0.041-0.088-0.008-0.125l0.937-1.062c0.033-0.038,0.092-0.04,0.129-0.005        C28.285,19.807,28.287,19.862,28.256,19.897z" fill="#0A3649"/><path d="M29.099,20.717l-0.838,0.95c-0.031,0.035-0.083,0.04-0.12,0.012l-0.005-0.004        c-0.036-0.032-0.041-0.088-0.008-0.125l0.838-0.95c0.033-0.038,0.092-0.04,0.128-0.005l0.001,0        C29.128,20.627,29.13,20.681,29.099,20.717z" fill="#0A3649"/><path d="M28.677,20.307l-0.887,1.006c-0.031,0.035-0.083,0.04-0.12,0.012l-0.005-0.004        c-0.036-0.032-0.041-0.088-0.008-0.125l0.887-1.006c0.033-0.038,0.092-0.04,0.129-0.005        C28.707,20.217,28.709,20.272,28.677,20.307z" fill="#0A3649"/><path d="M29.521,21.126l-0.789,0.894c-0.031,0.035-0.082,0.04-0.119,0.012l-0.006-0.005        c-0.037-0.033-0.041-0.088-0.008-0.125l0.789-0.894c0.033-0.038,0.092-0.04,0.129-0.005        C29.55,21.036,29.552,21.091,29.521,21.126z" fill="#0A3649"/><path d="M30.363,21.945l-0.689,0.782c-0.031,0.035-0.083,0.04-0.12,0.012l-0.005-0.004        c-0.036-0.032-0.041-0.088-0.008-0.125l0.689-0.782c0.033-0.038,0.092-0.04,0.128-0.005        C30.393,21.856,30.395,21.909,30.363,21.945z" fill="#0A3649"/><path d="M29.942,21.535l-0.739,0.838c-0.031,0.035-0.083,0.04-0.12,0.012l-0.005-0.004        c-0.036-0.032-0.041-0.088-0.008-0.125l0.739-0.838c0.033-0.038,0.092-0.04,0.129-0.005        C29.971,21.446,29.973,21.5,29.942,21.535z" fill="#0A3649"/><path d="M31.207,22.764l-0.591,0.67c-0.031,0.035-0.083,0.04-0.12,0.012l-0.005-0.004        c-0.036-0.032-0.041-0.088-0.008-0.125l0.591-0.67c0.033-0.038,0.092-0.04,0.129-0.005        C31.236,22.674,31.238,22.729,31.207,22.764z" fill="#0A3649"/><path d="M32.471,23.993l-0.443,0.502c-0.031,0.035-0.082,0.04-0.119,0.012l-0.006-0.005        c-0.037-0.033-0.041-0.088-0.008-0.125l0.443-0.502c0.033-0.038,0.092-0.04,0.129-0.005        C32.501,23.903,32.502,23.958,32.471,23.993z" fill="#0A3649"/><path d="M30.785,22.354l-0.64,0.726c-0.031,0.035-0.083,0.04-0.12,0.012l-0.005-0.004        c-0.036-0.032-0.041-0.088-0.008-0.125l0.64-0.726c0.033-0.038,0.092-0.04,0.129-0.005        C30.815,22.265,30.816,22.319,30.785,22.354z" fill="#0A3649"/><path d="M31.628,23.174l-0.541,0.614c-0.031,0.035-0.083,0.04-0.12,0.012l-0.005-0.004        c-0.036-0.032-0.041-0.088-0.008-0.125l0.541-0.614c0.033-0.038,0.092-0.04,0.128-0.005        C31.657,23.084,31.66,23.138,31.628,23.174z" fill="#0A3649"/><path d="M32.05,23.583l-0.492,0.558c-0.031,0.035-0.083,0.04-0.12,0.012l-0.005-0.004        c-0.036-0.032-0.041-0.088-0.008-0.125l0.492-0.558c0.033-0.038,0.092-0.04,0.129-0.005        C32.079,23.493,32.081,23.548,32.05,23.583z" fill="#0A3649"/></g></g><g><path d="M34.327,23.816c-0.351,0.022-0.605,0.038-0.963,0.06c-0.098,0.006-0.189,0.051-0.254,0.124       l-0.486,0.551l0.931,0.821c0.008-0.009,0.988-1.12,0.988-1.12C34.696,24.076,34.56,23.802,34.327,23.816z M33.645,25.044       l-0.706-0.622l0.226-0.256c0.084-0.095,0.579-0.097,0.717-0.105c0.253-0.017,0.379,0.284,0.222,0.462L33.645,25.044z" fill="#0A3649"/></g><g><rect fill="#124860" height="0.497" transform="matrix(0.75 0.6614 -0.6614 0.75 26.2167 -16.3346)" width="5.889" x="31.774" y="26.269"/></g></g></g><g><path d="M16.654,15.006h-4.32c-0.349,0.701-0.496,1.486-0.393,2.267c0.14,1.064,1.143,1.793,2.198,1.599     l5.408-0.996v-1.337L15.4,16.267L16.654,15.006z" fill="#478E87"/></g><g><g><g><g><path d="M16.681,46.172L16.506,48.5h-2.165c-0.293,0-0.524-0.232-0.524-0.512c0-0.186,0.105-0.361,0.279-0.454        l1.35-0.745v-0.617H16.681z" fill="#124860"/></g></g></g></g><g><g><g><g><path d="M28.444,46.172l0.175,2.328h2.165c0.293,0,0.524-0.232,0.524-0.512c0-0.186-0.105-0.361-0.279-0.454        l-1.35-0.745v-0.617H28.444z" fill="#124860"/></g></g></g></g></g><g><g><g><path d="M23.71,6.878v1.894c0,0.632-0.512,1.145-1.145,1.145c-0.632,0-1.145-0.512-1.145-1.145V6.878H23.71z" fill="#FECB00"/></g></g><g><g><path d="M22.865,2.721c-1.532,0-2.775,1.242-2.775,2.775s1.242,2.775,2.775,2.775      c1.532,0,2.775-1.242,2.775-2.775V3.319l-2.438-0.029l-1.64,0.468l-0.032,0.999" fill="#FECB00"/></g><g><g><path d="M24.177,2.035H22.93c-1.041,0-2.073,0.395-2.76,1.177c-1.562,1.781-0.354,3.974,1.25,4.653       l-0.122-2.478h0.471v0.186h0.535V3.858h1.872V2.035z" fill="#124860"/></g><g><ellipse cx="21.697" cy="5.904" fill="#FECB00" rx="0.91" ry="1.16" transform="matrix(-0.9896 0.1442 -0.1442 -0.9896 44.0177 8.619)"/></g></g></g></g><g><g><g><path d="M26.214,4.384C26.157,2.23,24.567,0.5,22.603,0.5s-3.554,1.73-3.611,3.884H26.214z" fill="#2C897C"/></g></g><g><path d="M26.63,4.722c0,0.22-0.18,0.4-0.4,0.4h-7.26c-0.22,0-0.4-0.18-0.4-0.4c0-0.22,0.18-0.4,0.4-0.4h7.26     C26.45,4.322,26.63,4.502,26.63,4.722z" fill="#478E87"/></g></g></g></svg>