<?xml version="1.0" encoding="UTF-8" standalone="no"?>
<!-- Created with Inkscape (http://www.inkscape.org/) -->

<svg
   xmlns:dc="http://purl.org/dc/elements/1.1/"
   xmlns:cc="http://creativecommons.org/ns#"
   xmlns:rdf="http://www.w3.org/1999/02/22-rdf-syntax-ns#"
   xmlns:svg="http://www.w3.org/2000/svg"
   xmlns="http://www.w3.org/2000/svg"
   xmlns:sodipodi="http://sodipodi.sourceforge.net/DTD/sodipodi-0.dtd"
   xmlns:inkscape="http://www.inkscape.org/namespaces/inkscape"
   width="166.73375mm"
   height="259.98196mm"
   viewBox="0 0 166.73375 259.98196"
   version="1.1"
   id="svg13818"
   inkscape:version="0.92.4 (unknown)"
   sodipodi:docname="bard.svg">
  <defs
     id="defs13812" />
  <sodipodi:namedview
     id="base"
     pagecolor="#ffffff"
     bordercolor="#666666"
     borderopacity="1.0"
     inkscape:pageopacity="0.0"
     inkscape:pageshadow="2"
     inkscape:zoom="0.35"
     inkscape:cx="315.08739"
     inkscape:cy="491.3045"
     inkscape:document-units="mm"
     inkscape:current-layer="layer1"
     showgrid="false"
     inkscape:window-width="1920"
     inkscape:window-height="1016"
     inkscape:window-x="0"
     inkscape:window-y="27"
     inkscape:window-maximized="1" />
  <metadata
     id="metadata13815">
    <rdf:RDF>
      <cc:Work
         rdf:about="">
        <dc:format>image/svg+xml</dc:format>
        <dc:type
           rdf:resource="http://purl.org/dc/dcmitype/StillImage" />
        <dc:title></dc:title>
      </cc:Work>
    </rdf:RDF>
  </metadata>
  <g
     inkscape:label="Layer 1"
     inkscape:groupmode="layer"
     id="layer1"
     transform="translate(131.74782,-18.84236)">
    <g
       transform="matrix(0.35277777,0,0,-0.35277777,-807.25105,382.8835)"
       id="g7226">
      <g
         transform="translate(2349.8733,953.556)"
         id="g900">
        <path
           inkscape:connector-curvature="0"
           id="path902"
           style="fill:#c69c6d;fill-opacity:1;fill-rule:nonzero;stroke:none"
           d="m 0,0 c -5.431,4.65 -11.699,8.197 -18.642,10.106 10.851,5.45 22.636,11.916 26.754,23.339 -7.02,-3.169 -15.066,-3.091 -22.712,-2.16 -21.636,2.637 -41.924,11.514 -62.613,18.37 -27.874,9.237 -57.367,13.54 -83.591,-2.449 8.143,7.124 12.754,18.107 12.136,28.908 -4.542,-11.858 -16.675,-19.103 -28.78,-22.942 -14.477,-4.59 -28.892,-6.81 -42.841,-13.05 -11.478,-5.135 -14.974,-8.178 -21.104,-19.754 1.063,2.007 0.167,4.427 -0.399,6.627 -1.729,6.722 -0.123,13.801 1.484,20.554 2.178,9.16 5.084,19.329 13.267,23.986 -9.971,-5.927 -20.615,-12.625 -24.775,-23.454 -2.516,-6.55 -2.276,-13.944 -0.293,-20.676 1.436,-4.875 4.2,-9.894 8.985,-11.608 -15.833,0.134 -27.395,-12.112 -36.825,-23.908 -37.734,-47.203 -36.434,-116.295 -7.149,-167.592 10.457,-18.315 24.714,-37.23 21.448,-58.066 3.654,3.054 6.578,6.976 8.461,11.35 6.389,-12.127 16.166,-22.446 27.931,-29.48 -2.299,7.282 -2.414,15.239 -0.328,22.585 15.832,-6.252 33.459,-5.326 50.45,-4.305 31.805,1.911 63.61,3.822 95.415,5.733 1.586,0.095 3.294,0.16 4.629,-0.701 1.642,-1.059 2.202,-3.175 2.449,-5.113 1.216,-9.542 -2.233,-19.57 -9.063,-26.346 10.835,0.796 21.079,7.355 26.336,16.862 7.285,-3.881 15.51,-5.981 23.763,-6.068 -6.091,8.029 -6.606,19.212 -3.83,28.9 4.85,16.93 18.844,28.46 28.698,42.574 9.995,14.316 18.209,30.452 19.376,48.154 6.71,-6.928 17.867,-9.084 26.675,-5.156 -9.349,3.444 -13.569,14.439 -14.245,24.379 -0.605,8.896 0.706,17.793 1.648,26.659 1.97,18.542 2.263,37.726 -3.828,55.35 C 15.148,-17.573 8.633,-7.393 0,0" />
      </g>
      <g
         transform="translate(2349.8733,953.556)"
         id="g904">
        <path
           inkscape:connector-curvature="0"
           id="path906"
           style="fill:none;stroke:#794039;stroke-width:4.5170002;stroke-linecap:round;stroke-linejoin:round;stroke-miterlimit:10;stroke-dasharray:none;stroke-opacity:1"
           d="m 0,0 c -5.431,4.65 -11.699,8.197 -18.642,10.106 10.851,5.45 22.636,11.916 26.754,23.339 -7.02,-3.169 -15.066,-3.091 -22.712,-2.16 -21.636,2.637 -41.924,11.514 -62.613,18.37 -27.874,9.237 -57.367,13.54 -83.591,-2.449 8.143,7.124 12.754,18.107 12.136,28.908 -4.542,-11.858 -16.675,-19.103 -28.78,-22.942 -14.477,-4.59 -28.892,-6.81 -42.841,-13.05 -11.478,-5.135 -14.974,-8.178 -21.104,-19.754 1.063,2.007 0.167,4.427 -0.399,6.627 -1.729,6.722 -0.123,13.801 1.484,20.554 2.178,9.16 5.084,19.329 13.267,23.986 -9.971,-5.927 -20.615,-12.625 -24.775,-23.454 -2.516,-6.55 -2.276,-13.944 -0.293,-20.676 1.436,-4.875 4.2,-9.894 8.985,-11.608 -15.833,0.134 -27.395,-12.112 -36.825,-23.908 -37.734,-47.203 -36.434,-116.295 -7.149,-167.592 10.457,-18.315 24.714,-37.23 21.448,-58.066 3.654,3.054 6.578,6.976 8.461,11.35 6.389,-12.127 16.166,-22.446 27.931,-29.48 -2.299,7.282 -2.414,15.239 -0.328,22.585 15.832,-6.252 33.459,-5.326 50.45,-4.305 31.805,1.911 63.61,3.822 95.415,5.733 1.586,0.095 3.294,0.16 4.629,-0.701 1.642,-1.059 2.202,-3.175 2.449,-5.113 1.216,-9.542 -2.233,-19.57 -9.063,-26.346 10.835,0.796 21.079,7.355 26.336,16.862 7.285,-3.881 15.51,-5.981 23.763,-6.068 -6.091,8.029 -6.606,19.212 -3.83,28.9 4.85,16.93 18.844,28.46 28.698,42.574 9.995,14.316 18.209,30.452 19.376,48.154 6.71,-6.928 17.867,-9.084 26.675,-5.156 -9.349,3.444 -13.569,14.439 -14.245,24.379 -0.605,8.896 0.706,17.793 1.648,26.659 1.97,18.542 2.263,37.726 -3.828,55.35 C 15.148,-17.573 8.633,-7.393 0,0 Z" />
      </g>
      <g
         transform="translate(2180.8345,541.1315)"
         id="g908">
        <path
           inkscape:connector-curvature="0"
           id="path910"
           style="fill:#c7b299;fill-opacity:1;fill-rule:nonzero;stroke:none"
           d="m 0,0 c -4.835,0.923 -10.497,-1.621 -14.363,-5.003 -7.677,-6.714 -12.233,-16.049 -16.6,-25.132 -4.189,-8.71 -6.706,4.336 -7.35,-5.305 -0.663,-9.915 -7.072,-42.835 -8.573,-52.678 -2.947,-19.325 -5.918,-38.65 -9.22,-57.918 -2.537,-14.804 -4.921,-29.64 -7.956,-44.354 -1.517,-7.356 -3.191,-14.682 -5.134,-21.939 -1.468,-5.481 -4.482,-10.433 -6.927,-15.528 -2.215,-4.618 -5.327,-8.775 0.49,-12.1 5.228,-2.988 11.545,-4.144 17.533,-3.917 5.234,0.198 13.49,1.542 17.504,4.947 11.663,9.907 16.224,23.622 19.295,37.277 6.315,28.085 13.107,55.417 20.288,83.134 4.441,17.145 18.077,81.902 14.976,99.72 -0.899,5.162 -3.435,8.454 -6.421,12.826 -1.037,1.519 -2.1,3.066 -3.574,4.201 C 2.76,-0.838 1.416,-0.27 0,0" />
      </g>
      <g
         transform="translate(2180.8345,541.1315)"
         id="g912">
        <path
           inkscape:connector-curvature="0"
           id="path914"
           style="fill:none;stroke:#794039;stroke-width:4.5170002;stroke-linecap:round;stroke-linejoin:round;stroke-miterlimit:10;stroke-dasharray:none;stroke-opacity:1"
           d="m 0,0 c -4.835,0.923 -10.497,-1.621 -14.363,-5.003 -7.677,-6.714 -12.233,-16.049 -16.6,-25.132 -4.189,-8.71 -6.706,4.336 -7.35,-5.305 -0.663,-9.915 -7.072,-42.835 -8.573,-52.678 -2.947,-19.325 -5.918,-38.65 -9.22,-57.918 -2.537,-14.804 -4.921,-29.64 -7.956,-44.354 -1.517,-7.356 -3.191,-14.682 -5.134,-21.939 -1.468,-5.481 -4.482,-10.433 -6.927,-15.528 -2.215,-4.618 -5.327,-8.775 0.49,-12.1 5.228,-2.988 11.545,-4.144 17.533,-3.917 5.234,0.198 13.49,1.542 17.504,4.947 11.663,9.907 16.224,23.622 19.295,37.277 6.315,28.085 13.107,55.417 20.288,83.134 4.441,17.145 18.077,81.902 14.976,99.72 -0.899,5.162 -3.435,8.454 -6.421,12.826 -1.037,1.519 -2.1,3.066 -3.574,4.201 C 2.76,-0.838 1.416,-0.27 0,0 Z" />
      </g>
      <g
         transform="translate(2180.8345,547.0952)"
         id="g916">
        <path
           inkscape:connector-curvature="0"
           id="path918"
           style="fill:#ecc2a1;fill-opacity:1;fill-rule:nonzero;stroke:none"
           d="m 0,0 c -4.835,0.923 -10.497,-1.621 -14.363,-5.003 -7.677,-6.714 -12.233,-16.049 -16.6,-25.132 -4.189,-8.71 -6.706,4.336 -7.35,-5.305 -0.663,-9.915 -7.072,-42.835 -8.573,-52.678 -2.947,-19.325 -5.918,-38.65 -9.22,-57.918 -2.537,-14.804 -4.921,-29.64 -7.956,-44.354 -1.517,-7.356 -3.191,-14.682 -5.134,-21.939 -1.468,-5.481 -4.482,-10.433 -6.927,-15.528 -2.215,-4.618 -5.327,-8.775 0.49,-12.1 5.228,-2.988 11.545,-4.144 17.533,-3.917 5.234,0.198 13.49,1.542 17.504,4.947 11.663,9.907 16.224,23.622 19.295,37.277 6.315,28.085 13.107,55.417 20.288,83.134 4.441,17.145 18.077,81.902 14.976,99.72 -0.899,5.162 -3.435,8.454 -6.421,12.826 -1.037,1.519 -2.1,3.066 -3.574,4.201 C 2.76,-0.838 1.416,-0.27 0,0" />
      </g>
      <g
         transform="translate(2180.8345,547.0952)"
         id="g920">
        <path
           inkscape:connector-curvature="0"
           id="path922"
           style="fill:none;stroke:#794039;stroke-width:4.5170002;stroke-linecap:round;stroke-linejoin:round;stroke-miterlimit:10;stroke-dasharray:none;stroke-opacity:1"
           d="m 0,0 c -4.835,0.923 -10.497,-1.621 -14.363,-5.003 -7.677,-6.714 -12.233,-16.049 -16.6,-25.132 -4.189,-8.71 -6.706,4.336 -7.35,-5.305 -0.663,-9.915 -7.072,-42.835 -8.573,-52.678 -2.947,-19.325 -5.918,-38.65 -9.22,-57.918 -2.537,-14.804 -4.921,-29.64 -7.956,-44.354 -1.517,-7.356 -3.191,-14.682 -5.134,-21.939 -1.468,-5.481 -4.482,-10.433 -6.927,-15.528 -2.215,-4.618 -5.327,-8.775 0.49,-12.1 5.228,-2.988 11.545,-4.144 17.533,-3.917 5.234,0.198 13.49,1.542 17.504,4.947 11.663,9.907 16.224,23.622 19.295,37.277 6.315,28.085 13.107,55.417 20.288,83.134 4.441,17.145 18.077,81.902 14.976,99.72 -0.899,5.162 -3.435,8.454 -6.421,12.826 -1.037,1.519 -2.1,3.066 -3.574,4.201 C 2.76,-0.838 1.416,-0.27 0,0 Z" />
      </g>
      <g
         transform="translate(2272.6248,499.1492)"
         id="g924">
        <path
           inkscape:connector-curvature="0"
           id="path926"
           style="fill:#ecc2a1;fill-opacity:1;fill-rule:nonzero;stroke:#794039;stroke-width:4.5170002;stroke-linecap:round;stroke-linejoin:round;stroke-miterlimit:10;stroke-dasharray:none;stroke-opacity:1"
           d="m 0,0 c 0.373,-6.55 0.746,-13.1 1.119,-19.65 0.171,-2.998 0.446,-6.273 2.316,-8.418 1.869,-2.144 5.886,-1.861 6.492,1.065 2.139,1.925 3.221,2.366 4.287,5.038" />
      </g>
      <g
         transform="translate(2231.5491,531.205)"
         id="g928">
        <path
           inkscape:connector-curvature="0"
           id="path930"
           style="fill:#c7b299;fill-opacity:1;fill-rule:nonzero;stroke:none"
           d="m 0,0 c 0.676,0.541 1.382,1.054 2.122,1.535 5.548,3.602 13.483,4.907 19.041,1.579 6.602,-3.952 10.933,-12.342 10.818,-19.526 -0.429,-26.959 -2.284,-90.613 -2.289,-127.379 -0.002,-13.516 -0.154,-27.039 0.336,-40.539 0.244,-6.748 0.645,-13.49 1.314,-20.207 0.505,-5.072 2.579,-9.872 4.083,-14.726 1.363,-4.399 3.66,-8.504 -2.456,-10.716 -5.497,-1.987 -11.734,-2.202 -17.431,-1.227 -4.978,0.852 -12.663,3.114 -15.947,6.666 -9.541,10.33 -11.656,23.136 -12.354,35.696 -1.436,25.834 -3.453,51.059 -5.777,76.677 -1.438,15.845 -3.863,75.292 2.032,90.765 C -13.484,-13.466 -6.862,-5.688 0,0" />
      </g>
      <g
         transform="translate(2231.5491,531.205)"
         id="g932">
        <path
           inkscape:connector-curvature="0"
           id="path934"
           style="fill:none;stroke:#794039;stroke-width:4.5170002;stroke-linecap:round;stroke-linejoin:round;stroke-miterlimit:10;stroke-dasharray:none;stroke-opacity:1"
           d="m 0,0 c 0.676,0.541 1.382,1.054 2.122,1.535 5.548,3.602 13.483,4.907 19.041,1.579 6.602,-3.952 10.933,-12.342 10.818,-19.526 -0.429,-26.959 -2.284,-90.613 -2.289,-127.379 -0.002,-13.516 -0.154,-27.039 0.336,-40.539 0.244,-6.748 0.645,-13.49 1.314,-20.207 0.505,-5.072 2.579,-9.872 4.083,-14.726 1.363,-4.399 3.66,-8.504 -2.456,-10.716 -5.497,-1.987 -11.734,-2.202 -17.431,-1.227 -4.978,0.852 -12.663,3.114 -15.947,6.666 -9.541,10.33 -11.656,23.136 -12.354,35.696 -1.436,25.834 -3.453,51.059 -5.777,76.677 -1.438,15.845 -3.863,75.292 2.032,90.765 C -13.484,-13.466 -6.862,-5.688 0,0 Z" />
      </g>
      <g
         transform="translate(2232.1455,538.9577)"
         id="g936">
        <path
           inkscape:connector-curvature="0"
           id="path938"
           style="fill:#ecc2a1;fill-opacity:1;fill-rule:nonzero;stroke:none"
           d="m 0,0 c 0.676,0.541 1.382,1.054 2.122,1.535 5.548,3.602 13.483,4.907 19.041,1.579 6.602,-3.952 10.932,-12.342 10.818,-19.526 -0.429,-26.959 -2.284,-90.613 -2.289,-127.379 -0.002,-13.516 -0.154,-27.039 0.335,-40.539 0.245,-6.748 0.646,-13.49 1.315,-20.207 0.505,-5.072 2.578,-9.872 4.083,-14.726 1.363,-4.399 3.66,-8.504 -2.456,-10.716 -5.497,-1.987 -11.735,-2.202 -17.431,-1.227 -4.978,0.852 -12.663,3.114 -15.947,6.666 -9.541,10.33 -11.656,23.136 -12.354,35.696 -1.436,25.834 -3.453,51.059 -5.778,76.677 -1.438,15.845 -3.862,75.292 2.033,90.765 C -13.485,-13.466 -6.862,-5.688 0,0" />
      </g>
      <g
         transform="translate(2232.1455,538.9577)"
         id="g940">
        <path
           inkscape:connector-curvature="0"
           id="path942"
           style="fill:none;stroke:#794039;stroke-width:4.5170002;stroke-linecap:round;stroke-linejoin:round;stroke-miterlimit:10;stroke-dasharray:none;stroke-opacity:1"
           d="m 0,0 c 0.676,0.541 1.382,1.054 2.122,1.535 5.548,3.602 13.483,4.907 19.041,1.579 6.602,-3.952 10.932,-12.342 10.818,-19.526 -0.429,-26.959 -2.284,-90.613 -2.289,-127.379 -0.002,-13.516 -0.154,-27.039 0.335,-40.539 0.245,-6.748 0.646,-13.49 1.315,-20.207 0.505,-5.072 2.578,-9.872 4.083,-14.726 1.363,-4.399 3.66,-8.504 -2.456,-10.716 -5.497,-1.987 -11.735,-2.202 -17.431,-1.227 -4.978,0.852 -12.663,3.114 -15.947,6.666 -9.541,10.33 -11.656,23.136 -12.354,35.696 -1.436,25.834 -3.453,51.059 -5.778,76.677 -1.438,15.845 -3.862,75.292 2.033,90.765 C -13.485,-13.466 -6.862,-5.688 0,0 Z" />
      </g>
      <g
         transform="translate(2241.7192,566.8351)"
         id="g944">
        <path
           inkscape:connector-curvature="0"
           id="path946"
           style="fill:#ecc2a1;fill-opacity:1;fill-rule:nonzero;stroke:none"
           d="m 0,0 c 0.575,-2.061 28.04,-36.183 23.082,-71.52 -4.958,-35.337 -125.865,0.789 -120.34,21.847 5.418,20.65 16.875,55.608 23.005,64.634 C -68.124,23.986 -4.855,17.382 0,0" />
      </g>
      <g
         transform="translate(2241.7192,566.8351)"
         id="g948">
        <path
           inkscape:connector-curvature="0"
           id="path950"
           style="fill:none;stroke:#794039;stroke-width:4.5170002;stroke-linecap:round;stroke-linejoin:round;stroke-miterlimit:10;stroke-dasharray:none;stroke-opacity:1"
           d="m 0,0 c 0.575,-2.061 28.04,-36.183 23.082,-71.52 -4.958,-35.337 -125.865,0.789 -120.34,21.847 5.418,20.65 16.875,55.608 23.005,64.634 C -68.124,23.986 -4.855,17.382 0,0 Z" />
      </g>
      <g
         transform="translate(2196.1353,673.8657)"
         id="g952">
        <path
           inkscape:connector-curvature="0"
           id="path954"
           style="fill:#ffffff;fill-opacity:1;fill-rule:nonzero;stroke:none"
           d="m 0,0 c -7.359,3.397 -15.807,3.542 -23.399,0.705 -9.476,-3.542 -18.998,-6.081 -26.957,-12.096 -12.752,-9.636 -23.722,-24.249 -35.393,-35.581 -5.575,-5.412 -11.203,-11.141 -14.038,-18.376 -2.834,-7.235 -2.173,-16.405 3.601,-21.605 5.109,-4.602 12.963,-4.995 19.466,-2.762 6.504,2.233 11.977,6.67 17.3,11.022 C -50.04,-71.024 33.131,-13.459 0,0" />
      </g>
      <g
         transform="translate(2196.1353,673.8657)"
         id="g956">
        <path
           inkscape:connector-curvature="0"
           id="path958"
           style="fill:none;stroke:#794039;stroke-width:4.5170002;stroke-linecap:round;stroke-linejoin:round;stroke-miterlimit:10;stroke-dasharray:none;stroke-opacity:1"
           d="m 0,0 c -7.359,3.397 -15.807,3.542 -23.399,0.705 -9.476,-3.542 -18.998,-6.081 -26.957,-12.096 -12.752,-9.636 -23.722,-24.249 -35.393,-35.581 -5.575,-5.412 -11.203,-11.141 -14.038,-18.376 -2.834,-7.235 -2.173,-16.405 3.601,-21.605 5.109,-4.602 12.963,-4.995 19.466,-2.762 6.504,2.233 11.977,6.67 17.3,11.022 C -50.04,-71.024 33.131,-13.459 0,0 Z" />
      </g>
      <g
         transform="translate(2230.1213,676.4304)"
         id="g960">
        <path
           inkscape:connector-curvature="0"
           id="path962"
           style="fill:#ecc2a1;fill-opacity:1;fill-rule:nonzero;stroke:none"
           d="m 0,0 c 0.711,0.237 1.654,0.455 2.919,0.79 4.228,1.121 9.571,1.09 13.566,-0.929 12.678,-6.409 17.952,-26.569 21.909,-40.018 5.025,-17.077 8.388,-34.7 13.174,-51.858 4.044,-14.495 10.26,-28.479 13.518,-43.578 3.431,-15.902 5.484,-32.125 10.287,-47.709 0.93,-3.017 1.974,-6.132 1.554,-9.261 -0.609,-4.537 -8.074,-12.006 -10.771,-15.859 -2.195,-3.137 -5.449,-6.008 -9.278,-5.965 -4.078,5.327 -4.221,10.499 -6.034,16.471 -2.247,7.404 -6.543,14.362 -8.908,21.85 -4.575,14.488 -7.071,29.53 -9.447,44.504 -3.567,22.478 -10.075,44.088 -18.274,64.933 -6.077,15.451 -13.59,30.666 -15.998,47.553 -0.59,4.136 -1.123,8.632 -0.779,12.826 C -2.179,-1.584 -2.124,-0.708 0,0" />
      </g>
      <g
         transform="translate(2230.1213,676.4304)"
         id="g964">
        <path
           inkscape:connector-curvature="0"
           id="path966"
           style="fill:none;stroke:#794039;stroke-width:4.5170002;stroke-linecap:round;stroke-linejoin:round;stroke-miterlimit:10;stroke-dasharray:none;stroke-opacity:1"
           d="m 0,0 c 0.711,0.237 1.654,0.455 2.919,0.79 4.228,1.121 9.571,1.09 13.566,-0.929 12.678,-6.409 17.952,-26.569 21.909,-40.018 5.025,-17.077 8.388,-34.7 13.174,-51.858 4.044,-14.495 10.26,-28.479 13.518,-43.578 3.431,-15.902 5.484,-32.125 10.287,-47.709 0.93,-3.017 1.974,-6.132 1.554,-9.261 -0.609,-4.537 -8.074,-12.006 -10.771,-15.859 -2.195,-3.137 -5.449,-6.008 -9.278,-5.965 -4.078,5.327 -4.221,10.499 -6.034,16.471 -2.247,7.404 -6.543,14.362 -8.908,21.85 -4.575,14.488 -7.071,29.53 -9.447,44.504 -3.567,22.478 -10.075,44.088 -18.274,64.933 -6.077,15.451 -13.59,30.666 -15.998,47.553 -0.59,4.136 -1.123,8.632 -0.779,12.826 C -2.179,-1.584 -2.124,-0.708 0,0 Z" />
      </g>
      <g
         transform="translate(2230.1213,676.4304)"
         id="g968">
        <path
           inkscape:connector-curvature="0"
           id="path970"
           style="fill:#ffffff;fill-opacity:1;fill-rule:nonzero;stroke:none"
           d="m 0,0 c 0.711,0.237 1.654,0.455 2.919,0.79 9.63,2.552 21.948,-0.801 26.149,-10.032 9.338,-20.522 15.672,-42.205 23.018,-63.476 1.772,-5.129 4.335,-10.334 5.652,-15.581 1.007,-4.013 0.514,-8.124 1.553,-12.244 2.401,-9.52 7.632,-17.988 11.32,-27.013 5.148,-12.596 7.576,-26.615 11.297,-39.702 -6.757,-2.173 -13.513,-4.346 -20.27,-6.518 -1.448,-0.466 -2.93,-0.937 -4.452,-0.906 -3.462,0.072 -6.643,2.725 -10.061,2.172 -2.071,-0.335 -3.867,-1.822 -5.963,-1.912 -2.451,-0.104 -4.627,1.813 -5.597,4.067 -0.971,2.253 -0.988,4.786 -0.964,7.24 0.162,16.244 -1.591,33.186 -5.162,49.197 -3.558,15.95 -9.219,32.021 -15.224,47.289 -6.077,15.451 -13.59,30.666 -15.998,47.553 -0.59,4.136 -1.123,8.632 -0.779,12.826 C -2.179,-1.584 -2.124,-0.708 0,0" />
      </g>
      <g
         transform="translate(2230.1213,676.4304)"
         id="g972">
        <path
           inkscape:connector-curvature="0"
           id="path974"
           style="fill:none;stroke:#794039;stroke-width:4.5170002;stroke-linecap:round;stroke-linejoin:round;stroke-miterlimit:10;stroke-dasharray:none;stroke-opacity:1"
           d="m 0,0 c 0.711,0.237 1.654,0.455 2.919,0.79 9.63,2.552 21.948,-0.801 26.149,-10.032 9.338,-20.522 15.672,-42.205 23.018,-63.476 1.772,-5.129 4.335,-10.334 5.652,-15.581 1.007,-4.013 0.514,-8.124 1.553,-12.244 2.401,-9.52 7.632,-17.988 11.32,-27.013 5.148,-12.596 7.576,-26.615 11.297,-39.702 -6.757,-2.173 -13.513,-4.346 -20.27,-6.518 -1.448,-0.466 -2.93,-0.937 -4.452,-0.906 -3.462,0.072 -6.643,2.725 -10.061,2.172 -2.071,-0.335 -3.867,-1.822 -5.963,-1.912 -2.451,-0.104 -4.627,1.813 -5.597,4.067 -0.971,2.253 -0.988,4.786 -0.964,7.24 0.162,16.244 -1.591,33.186 -5.162,49.197 -3.558,15.95 -9.219,32.021 -15.224,47.289 -6.077,15.451 -13.59,30.666 -15.998,47.553 -0.59,4.136 -1.123,8.632 -0.779,12.826 C -2.179,-1.584 -2.124,-0.708 0,0 Z" />
      </g>
      <g
         transform="translate(2227.1877,682.3661)"
         id="g976">
        <path
           inkscape:connector-curvature="0"
           id="path978"
           style="fill:#ecc2a1;fill-opacity:1;fill-rule:nonzero;stroke:none"
           d="m 0,0 c -3.728,0.695 -7.5,0.829 -11.229,0.068 0.927,2.241 -4.083,23.556 -1.427,23.944 -10.139,-1.717 -20.308,-3.254 -30.502,-4.611 -0.709,-6.434 -0.918,-12.924 -0.626,-19.391 0.062,-1.368 0.135,-2.796 -0.429,-4.044 -1.795,-3.972 -14.087,-5.252 -18.009,-6.531 -4.21,-1.373 -9.152,-2.639 -12.786,-5.291 -9.418,-6.872 10.814,-49.829 14.392,-82.031 14.012,-3.499 27.955,-7.269 42.009,-10.605 9.119,-2.166 34.656,-12.278 41.416,-2.519 1.857,2.681 2.514,5.987 3.129,9.19 1.926,10.028 3.851,20.057 5.776,30.085 2.356,12.274 1.547,21.741 -1.114,33.716 -1.861,8.378 -3.97,23.206 -10.281,29.401 -1.693,1.661 -3.867,2.731 -6.022,3.722 C 9.742,-2.803 4.91,-0.915 0,0" />
      </g>
      <g
         transform="translate(2227.1877,682.3661)"
         id="g980">
        <path
           inkscape:connector-curvature="0"
           id="path982"
           style="fill:none;stroke:#794039;stroke-width:4.5170002;stroke-linecap:round;stroke-linejoin:round;stroke-miterlimit:10;stroke-dasharray:none;stroke-opacity:1"
           d="m 0,0 c -3.728,0.695 -7.5,0.829 -11.229,0.068 0.927,2.241 -4.083,23.556 -1.427,23.944 -10.139,-1.717 -20.308,-3.254 -30.502,-4.611 -0.709,-6.434 -0.918,-12.924 -0.626,-19.391 0.062,-1.368 0.135,-2.796 -0.429,-4.044 -1.795,-3.972 -14.087,-5.252 -18.009,-6.531 -4.21,-1.373 -9.152,-2.639 -12.786,-5.291 -9.418,-6.872 10.814,-49.829 14.392,-82.031 14.012,-3.499 27.955,-7.269 42.009,-10.605 9.119,-2.166 34.656,-12.278 41.416,-2.519 1.857,2.681 2.514,5.987 3.129,9.19 1.926,10.028 3.851,20.057 5.776,30.085 2.356,12.274 1.547,21.741 -1.114,33.716 -1.861,8.378 -3.97,23.206 -10.281,29.401 -1.693,1.661 -3.867,2.731 -6.022,3.722 C 9.742,-2.803 4.91,-0.915 0,0 Z" />
      </g>
      <g
         transform="translate(2226.9148,681.3602)"
         id="g984">
        <path
           inkscape:connector-curvature="0"
           id="path986"
           style="fill:#ffffff;fill-opacity:1;fill-rule:nonzero;stroke:none"
           d="m 0,0 c -4.014,0.902 -6.841,1.484 -6.877,1.369 -2.4,-7.252 -9.723,-12.268 -17.327,-12.999 -7.604,-0.732 -15.255,2.382 -21.052,7.356 -0.789,0.678 -1.606,1.417 -2.628,1.607 -1.1,0.204 -2.199,-0.272 -3.216,-0.736 -8.352,-3.814 -16.704,-7.627 -25.056,-11.441 -0.671,-0.306 -1.379,-0.644 -1.773,-1.267 -0.518,-0.82 -0.346,-1.879 -0.156,-2.83 3.776,-18.906 9.257,-36.98 10.223,-56.482 0.427,-8.607 0.278,-17.273 -1.072,-25.784 -1.357,-8.561 -3.911,-16.88 -6.458,-25.165 l -13.887,-45.176 c -17.775,-57.828 -35.663,-115.943 -62.418,-170.203 -0.877,-1.778 -1.735,-4.012 -0.563,-5.61 0.522,-0.71 1.347,-1.12 2.141,-1.504 20.081,-9.709 42.473,-19.66 63.932,-13.575 8.389,2.379 16.326,7.174 25.044,7.028 13.359,-0.222 24.308,-11.93 37.642,-12.768 7.801,-0.491 15.26,2.815 22.801,4.872 21.595,5.891 44.502,1.574 66.462,-2.767 -12.773,88.729 -24.632,177.591 -35.575,266.564 -0.944,7.677 -2.36,14.959 -1.204,22.571 1.204,7.92 2.864,15.772 4.044,23.702 1.935,12.996 3.415,26.238 1.542,39.243 -0.203,1.414 -0.467,2.875 -1.292,4.04 -1.325,1.873 -3.748,2.545 -5.977,3.09 C 27.3,-6.467 9.981,-2.244 0,0" />
      </g>
      <g
         transform="translate(2226.9148,681.3602)"
         id="g988">
        <path
           inkscape:connector-curvature="0"
           id="path990"
           style="fill:none;stroke:#794039;stroke-width:4.5170002;stroke-linecap:round;stroke-linejoin:round;stroke-miterlimit:10;stroke-dasharray:none;stroke-opacity:1"
           d="m 0,0 c -4.014,0.902 -6.841,1.484 -6.877,1.369 -2.4,-7.252 -9.723,-12.268 -17.327,-12.999 -7.604,-0.732 -15.255,2.382 -21.052,7.356 -0.789,0.678 -1.606,1.417 -2.628,1.607 -1.1,0.204 -2.199,-0.272 -3.216,-0.736 -8.352,-3.814 -16.704,-7.627 -25.056,-11.441 -0.671,-0.306 -1.379,-0.644 -1.773,-1.267 -0.518,-0.82 -0.346,-1.879 -0.156,-2.83 3.776,-18.906 9.257,-36.98 10.223,-56.482 0.427,-8.607 0.278,-17.273 -1.072,-25.784 -1.357,-8.561 -3.911,-16.88 -6.458,-25.165 l -13.887,-45.176 c -17.775,-57.828 -35.663,-115.943 -62.418,-170.203 -0.877,-1.778 -1.735,-4.012 -0.563,-5.61 0.522,-0.71 1.347,-1.12 2.141,-1.504 20.081,-9.709 42.473,-19.66 63.932,-13.575 8.389,2.379 16.326,7.174 25.044,7.028 13.359,-0.222 24.308,-11.93 37.642,-12.768 7.801,-0.491 15.26,2.815 22.801,4.872 21.595,5.891 44.502,1.574 66.462,-2.767 -12.773,88.729 -24.632,177.591 -35.575,266.564 -0.944,7.677 -2.36,14.959 -1.204,22.571 1.204,7.92 2.864,15.772 4.044,23.702 1.935,12.996 3.415,26.238 1.542,39.243 -0.203,1.414 -0.467,2.875 -1.292,4.04 -1.325,1.873 -3.748,2.545 -5.977,3.09 C 27.3,-6.467 9.981,-2.244 0,0 Z" />
      </g>
      <g
         transform="translate(2317.5525,737.0029)"
         id="g992">
        <path
           inkscape:connector-curvature="0"
           id="path994"
           style="fill:#ecc2a1;fill-opacity:1;fill-rule:nonzero;stroke:#794039;stroke-width:4.5170002;stroke-linecap:round;stroke-linejoin:round;stroke-miterlimit:10;stroke-dasharray:none;stroke-opacity:1"
           d="M 0,0 C 0,0 9.222,-10.171 23.696,-7.534 38.168,-4.898 54.718,5.326 58.015,23.636 61.312,41.946 48.753,54.86 33.946,54.35 19.139,53.84 4.857,33.805 4.857,33.805" />
      </g>
      <g
         transform="translate(2344.8381,741.2885)"
         id="g996">
        <path
           inkscape:connector-curvature="0"
           id="path998"
           style="fill:#ecc2a1;fill-opacity:1;fill-rule:nonzero;stroke:#794039;stroke-width:4.5170002;stroke-linecap:round;stroke-linejoin:round;stroke-miterlimit:10;stroke-dasharray:none;stroke-opacity:1"
           d="m 0,0 c 0,0 -10.555,0.158 -6.692,3.306 3.863,3.149 8.247,5.289 7.412,10.605 -0.835,5.315 -8.687,4.445 -8.687,4.445 0,0 7.544,12.078 14.652,15.373 7.107,3.295 13.217,-5.549 12.447,-12.206" />
      </g>
      <g
         transform="translate(2079.4297,751.1009)"
         id="g1000">
        <path
           inkscape:connector-curvature="0"
           id="path1002"
           style="fill:#ecc2a1;fill-opacity:1;fill-rule:nonzero;stroke:#794039;stroke-width:4.5170002;stroke-linecap:round;stroke-linejoin:round;stroke-miterlimit:10;stroke-dasharray:none;stroke-opacity:1"
           d="m 0,0 c 0,0 -10.059,-9.344 -24.254,-5.478 -14.194,3.865 -29.807,15.469 -31.524,33.994 -1.717,18.525 11.9,30.317 26.609,28.541 14.709,-1.776 27.224,-22.96 27.224,-22.96" />
      </g>
      <g
         transform="translate(2052.6111,757.7066)"
         id="g1004">
        <path
           inkscape:connector-curvature="0"
           id="path1006"
           style="fill:#ecc2a1;fill-opacity:1;fill-rule:nonzero;stroke:#794039;stroke-width:4.5170002;stroke-linecap:round;stroke-linejoin:round;stroke-miterlimit:10;stroke-dasharray:none;stroke-opacity:1"
           d="m 0,0 c 0,0 10.53,-0.746 6.95,2.721 -3.578,3.468 -7.763,5.976 -6.476,11.2 1.286,5.225 9.035,3.686 9.035,3.686 0,0 -6.482,12.679 -13.282,16.57 -6.799,3.892 -13.643,-4.397 -13.446,-11.095" />
      </g>
      <g
         transform="translate(2334.8687,793.1662)"
         id="g1008">
        <path
           inkscape:connector-curvature="0"
           id="path1010"
           style="fill:#ecc2a1;fill-opacity:1;fill-rule:nonzero;stroke:none"
           d="m 0,0 c -3.124,-72.846 -63.684,-105.443 -136.53,-102.319 -72.846,3.124 -130.393,40.785 -127.269,113.631 3.845,89.655 7.476,135.386 137.708,129.801 C 4.142,135.528 3.844,89.654 0,0" />
      </g>
      <g
         transform="translate(2334.8687,793.1662)"
         id="g1012">
        <path
           inkscape:connector-curvature="0"
           id="path1014"
           style="fill:none;stroke:#794039;stroke-width:4.5170002;stroke-linecap:round;stroke-linejoin:round;stroke-miterlimit:10;stroke-dasharray:none;stroke-opacity:1"
           d="m 0,0 c -3.124,-72.846 -63.684,-105.443 -136.53,-102.319 -72.846,3.124 -130.393,40.785 -127.269,113.631 3.845,89.655 7.476,135.386 137.708,129.801 C 4.142,135.528 3.844,89.654 0,0 Z" />
      </g>
      <g
         transform="translate(2155.4963,768.6859)"
         id="g1016">
        <path
           inkscape:connector-curvature="0"
           id="path1018"
           style="fill:#794039;fill-opacity:1;fill-rule:nonzero;stroke:none"
           d="m 0,0 c -0.378,-8.809 -7.825,-15.643 -16.633,-15.265 -8.809,0.377 -15.644,7.824 -15.266,16.633 0.378,8.809 7.825,15.643 16.633,15.265 C -6.457,16.256 0.378,8.809 0,0" />
      </g>
      <g
         transform="translate(2136.9229,738.3886)"
         id="g1020">
        <path
           inkscape:connector-curvature="0"
           id="path1022"
           style="fill:#faacae;fill-opacity:1;fill-rule:nonzero;stroke:none"
           d="m 0,0 c -0.429,-9.999 -8.882,-17.757 -18.881,-17.328 -9.999,0.428 -17.757,8.882 -17.329,18.881 0.429,9.999 8.883,17.757 18.882,17.328 C -7.33,18.452 0.429,9.999 0,0" />
      </g>
      <g
         transform="translate(2252.0549,764.5453)"
         id="g1024">
        <path
           inkscape:connector-curvature="0"
           id="path1026"
           style="fill:#794039;fill-opacity:1;fill-rule:nonzero;stroke:none"
           d="m 0,0 c -0.378,-8.809 6.457,-16.256 15.266,-16.633 8.808,-0.378 16.255,6.456 16.633,15.265 C 32.277,7.441 25.442,14.888 16.634,15.265 7.825,15.643 0.378,8.809 0,0" />
      </g>
      <g
         transform="translate(2268.0061,733.6876)"
         id="g1028">
        <path
           inkscape:connector-curvature="0"
           id="path1030"
           style="fill:#faacae;fill-opacity:1;fill-rule:nonzero;stroke:none"
           d="m 0,0 c -0.407,-9.492 6.958,-17.516 16.449,-17.923 9.492,-0.407 17.517,6.957 17.924,16.449 C 34.78,8.018 27.415,16.042 17.923,16.449 8.432,16.856 0.407,9.492 0,0" />
      </g>
      <g
         transform="translate(2159.157,792.0828)"
         id="g1032">
        <path
           inkscape:connector-curvature="0"
           id="path1034"
           style="fill:#794039;fill-opacity:1;fill-rule:nonzero;stroke:none"
           d="M 0,0 C 0,0 -0.164,0.11 -0.471,0.317 -0.758,0.518 -1.179,0.813 -1.715,1.188 -2.224,1.555 -2.841,2 -3.549,2.511 -4.249,3.01 -4.985,3.593 -5.812,4.192 -6.6,4.828 -7.503,5.446 -8.41,6.134 c -0.468,0.327 -0.966,0.639 -1.46,0.971 -0.243,0.171 -0.489,0.344 -0.737,0.518 -0.26,0.157 -0.522,0.314 -0.786,0.474 -0.523,0.326 -1.057,0.651 -1.579,1.011 -0.552,0.311 -1.111,0.626 -1.674,0.943 -1.092,0.711 -2.319,1.2 -3.511,1.791 -1.203,0.565 -2.484,0.95 -3.718,1.438 -1.288,0.346 -2.554,0.687 -3.78,1.016 -1.26,0.194 -2.486,0.407 -3.661,0.614 -0.586,0.133 -1.165,0.12 -1.725,0.174 -0.563,0.045 -1.106,0.068 -1.628,0.109 -1.048,0.079 -2.022,0.13 -2.88,0.13 h -2.244 c -1.263,0 -1.985,0.055 -1.985,0.055 0,0 0.677,0.237 1.886,0.606 0.61,0.178 1.351,0.399 2.2,0.647 0.851,0.283 1.837,0.434 2.921,0.598 1.084,0.145 2.266,0.42 3.53,0.463 1.265,0.041 2.613,0.098 4.013,0.099 1.387,-0.138 2.844,-0.233 4.316,-0.431 0.726,-0.159 1.458,-0.319 2.193,-0.48 0.731,-0.183 1.496,-0.281 2.206,-0.555 1.426,-0.522 2.916,-0.927 4.249,-1.637 0.677,-0.331 1.357,-0.648 2,-1.012 0.629,-0.387 1.232,-0.802 1.827,-1.202 1.207,-0.781 2.193,-1.779 3.167,-2.647 0.884,-0.975 1.766,-1.836 2.404,-2.793 0.685,-0.91 1.201,-1.83 1.612,-2.663 0.402,-0.841 0.677,-1.614 0.871,-2.259 0.185,-0.65 0.29,-1.178 0.337,-1.548 C 0.002,0.2 0,0 0,0" />
      </g>
      <g
         transform="translate(2249.0745,793.6345)"
         id="g1036">
        <path
           inkscape:connector-curvature="0"
           id="path1038"
           style="fill:#794039;fill-opacity:1;fill-rule:nonzero;stroke:none"
           d="m 0,0 c 0,0 0.028,0.198 0.132,0.551 0.102,0.358 0.285,0.864 0.567,1.478 0.289,0.609 0.678,1.331 1.203,2.102 0.532,0.761 1.181,1.592 1.997,2.387 0.776,0.85 1.777,1.568 2.799,2.397 1.094,0.711 2.22,1.547 3.531,2.137 0.65,0.305 1.308,0.624 1.989,0.912 0.691,0.261 1.411,0.472 2.13,0.697 1.425,0.5 2.96,0.673 4.447,0.974 0.744,0.164 1.515,0.144 2.265,0.214 0.751,0.048 1.499,0.095 2.241,0.143 1.485,-0.027 2.939,-0.154 4.331,-0.228 1.384,-0.213 2.708,-0.472 3.952,-0.704 1.244,-0.235 2.37,-0.684 3.419,-0.992 1.048,-0.326 1.999,-0.622 2.797,-1.031 0.803,-0.374 1.502,-0.7 2.077,-0.968 1.141,-0.548 1.775,-0.875 1.775,-0.875 0,0 -0.715,0.097 -1.967,0.266 -0.616,0.095 -1.362,0.209 -2.219,0.341 -0.841,0.176 -1.82,0.207 -2.869,0.288 -0.522,0.038 -1.066,0.077 -1.629,0.118 -0.562,0.032 -1.132,0.132 -1.731,0.089 C 30.044,10.271 28.799,10.245 27.525,10.244 26.264,10.104 24.959,9.96 23.635,9.813 22.341,9.517 21.016,9.331 19.742,8.955 18.475,8.551 17.187,8.253 16,7.717 15.395,7.488 14.795,7.261 14.203,7.037 13.632,6.761 13.055,6.521 12.488,6.277 12.203,6.16 11.92,6.044 11.64,5.928 11.368,5.793 11.099,5.66 10.833,5.527 10.294,5.274 9.755,5.041 9.243,4.789 8.242,4.246 7.255,3.772 6.381,3.263 5.472,2.796 4.656,2.332 3.889,1.944 3.111,1.547 2.434,1.2 1.875,0.915 1.289,0.625 0.829,0.397 0.514,0.242 0.179,0.084 0,0 0,0" />
      </g>
      <g
         transform="translate(2197.5376,732.5403)"
         id="g1040">
        <path
           inkscape:connector-curvature="0"
           id="path1042"
           style="fill:none;stroke:#794039;stroke-width:2.68499994;stroke-linecap:round;stroke-linejoin:round;stroke-miterlimit:10;stroke-dasharray:none;stroke-opacity:1"
           d="M 0,0 C 6.19,-1.04 12.585,-0.845 18.701,0.57" />
      </g>
      <g
         transform="translate(2130.0708,605.0499)"
         id="g1044">
        <path
           inkscape:connector-curvature="0"
           id="path1046"
           style="fill:#ecc2a1;fill-opacity:1;fill-rule:nonzero;stroke:#794039;stroke-width:4.5170002;stroke-linecap:round;stroke-linejoin:round;stroke-miterlimit:10;stroke-dasharray:none;stroke-opacity:1"
           d="m 0,0 c 1.405,3.906 1.024,9.587 -0.984,13.143 -1.5,2.654 -3.877,4.681 -6.205,6.649 -8.704,7.358 -17.407,14.716 -26.111,22.074 -2.718,2.297 -5.6,4.676 -9.093,5.359 -3.923,0.767 -8.029,-0.801 -11.106,-3.351 -21.616,-17.913 7.163,-56.99 27.371,-64.272 5.396,-1.944 10.695,-2.121 15.898,0.294" />
      </g>
      <g
         transform="translate(2133.5874,608.3879)"
         id="g1048">
        <path
           inkscape:connector-curvature="0"
           id="path1050"
           style="fill:#ffffff;fill-opacity:1;fill-rule:nonzero;stroke:#794039;stroke-width:4.5170002;stroke-linecap:round;stroke-linejoin:round;stroke-miterlimit:10;stroke-dasharray:none;stroke-opacity:1"
           d="m 0,0 c 0.046,5.596 0.021,11.485 -2.723,16.362 -1.653,2.936 -4.185,5.284 -6.884,7.302 -5.258,3.933 -11.309,6.803 -17.682,8.385 1.732,-0.427 -1.683,-22.637 -2.153,-24.687 -2.233,-9.74 -6.406,-19.043 -12.283,-27.131 -1.674,-2.305 -4.005,-4.743 -6.833,-4.405 -2.982,0.356 -4.664,3.573 -5.513,6.454 -1.68,5.705 -2.131,11.768 -1.315,17.658 -1.474,-7.215 -2.956,-14.548 -2.35,-21.887 0.607,-7.34 3.6,-14.817 9.522,-19.194 3.492,-2.579 7.727,-3.913 11.9,-5.112 6.793,-1.952 14.02,-3.668 20.852,-1.858 10.208,2.706 16.808,12.462 21.433,21.955 4.626,9.493 8.556,19.894 16.754,26.551" />
      </g>
      <g
         transform="translate(2066.4624,674.2209)"
         id="g1052">
        <path
           inkscape:connector-curvature="0"
           id="path1054"
           style="fill:#ecc2a1;fill-opacity:1;fill-rule:nonzero;stroke:none"
           d="m 0,0 c 2.912,1.283 5.879,2.442 8.89,3.471 1.749,0.597 3.795,1.12 5.348,0.116 0.647,-0.418 1.116,-1.055 1.57,-1.678 2.719,-3.725 5.437,-7.45 8.156,-11.175 0.559,-0.766 1.13,-1.557 1.353,-2.478 0.491,-2.028 -0.897,-4.134 -2.716,-5.155 -1.811,-1.017 -3.943,-1.213 -5.975,-1.367 2.198,-0.255 3.445,-3.328 4.779,-4.802 1.092,-1.206 2.428,-2.172 3.286,-3.577 2.742,-4.494 2.589,-11.153 1.094,-16.012 -1.808,-5.876 -6.094,-10.946 -11.587,-13.707 -1.557,-0.782 -3.199,-1.385 -4.872,-1.869 -2.211,-0.641 -4.56,-1.079 -6.807,-0.578 -4.546,1.015 -7.755,5.425 -11.253,8.191 -1.886,1.491 -3.039,3.773 -4.434,5.756 -1.853,2.633 -3.705,5.266 -5.557,7.9 -1.765,2.507 -3.547,5.049 -4.625,7.919 -3.394,9.043 2.507,17.445 10.003,22.048 C -9.063,-4.366 -4.6,-2.027 0,0" />
      </g>
      <g
         transform="translate(2066.4624,674.2209)"
         id="g1056">
        <path
           inkscape:connector-curvature="0"
           id="path1058"
           style="fill:none;stroke:#794039;stroke-width:4.5170002;stroke-linecap:round;stroke-linejoin:round;stroke-miterlimit:10;stroke-dasharray:none;stroke-opacity:1"
           d="m 0,0 c 2.912,1.283 5.879,2.442 8.89,3.471 1.749,0.597 3.795,1.12 5.348,0.116 0.647,-0.418 1.116,-1.055 1.57,-1.678 2.719,-3.725 5.437,-7.45 8.156,-11.175 0.559,-0.766 1.13,-1.557 1.353,-2.478 0.491,-2.028 -0.897,-4.134 -2.716,-5.155 -1.811,-1.017 -3.943,-1.213 -5.975,-1.367 2.198,-0.255 3.445,-3.328 4.779,-4.802 1.092,-1.206 2.428,-2.172 3.286,-3.577 2.742,-4.494 2.589,-11.153 1.094,-16.012 -1.808,-5.876 -6.094,-10.946 -11.587,-13.707 -1.557,-0.782 -3.199,-1.385 -4.872,-1.869 -2.211,-0.641 -4.56,-1.079 -6.807,-0.578 -4.546,1.015 -7.755,5.425 -11.253,8.191 -1.886,1.491 -3.039,3.773 -4.434,5.756 -1.853,2.633 -3.705,5.266 -5.557,7.9 -1.765,2.507 -3.547,5.049 -4.625,7.919 -3.394,9.043 2.507,17.445 10.003,22.048 C -9.063,-4.366 -4.6,-2.027 0,0 Z" />
      </g>
      <g
         transform="translate(2053.7156,852.2555)"
         id="g1060">
        <path
           inkscape:connector-curvature="0"
           id="path1062"
           style="fill:#c69c6d;fill-opacity:1;fill-rule:nonzero;stroke:#794039;stroke-width:4.5170002;stroke-linecap:round;stroke-linejoin:round;stroke-miterlimit:10;stroke-dasharray:none;stroke-opacity:1"
           d="m 0,0 c -2.927,-33.365 7.167,-67.702 27.683,-94.175 -4.963,27.095 -6.79,54.764 -5.431,82.276" />
      </g>
      <g
         transform="translate(2331.3672,843.9456)"
         id="g1064">
        <path
           inkscape:connector-curvature="0"
           id="path1066"
           style="fill:#c69c6d;fill-opacity:1;fill-rule:nonzero;stroke:#794039;stroke-width:4.5170002;stroke-linecap:round;stroke-linejoin:round;stroke-miterlimit:10;stroke-dasharray:none;stroke-opacity:1"
           d="m 0,0 c 1.036,-35.884 -5.851,-71.976 -20.025,-104.958 13.348,10.566 22.882,25.425 28.926,41.34 6.043,15.915 8.765,32.911 10.154,49.878" />
      </g>
      <g
         transform="translate(2104.4263,953.4931)"
         id="g1068">
        <path
           inkscape:connector-curvature="0"
           id="path1070"
           style="fill:#c69c6d;fill-opacity:1;fill-rule:nonzero;stroke:#794039;stroke-width:4.5170002;stroke-linecap:round;stroke-linejoin:round;stroke-miterlimit:10;stroke-dasharray:none;stroke-opacity:1"
           d="m 0,0 c -38.931,-14.755 -52.822,-61.167 -47.965,-99.422 2.906,-22.888 14.772,-45.237 34.278,-57.559 -2.561,12.173 -5.123,24.796 -2.416,36.937 4.32,19.38 20.88,33.269 31.12,50.281 9.033,15.008 13.143,32.925 11.554,50.369 6.889,-12.699 4.648,-28.317 0.812,-42.245 -4.526,-16.431 -11.249,-32.691 -22.828,-45.196 18.612,5.995 34.209,19.951 43.676,37.06 9.468,17.108 13.025,37.158 11.683,56.665 6.488,-20.111 16.365,-39.413 30.918,-54.735 14.552,-15.322 34.062,-26.44 55.078,-28.639 -13.614,5.722 -23.251,18.627 -28.035,32.599 -4.784,13.971 -5.279,29.027 -4.902,43.79 -1.077,-16.071 5.355,-32.489 17.063,-43.549 6.595,-6.232 14.604,-10.715 22.126,-15.789 24.605,-16.601 45.365,-42.417 46.495,-72.077 22.606,22.199 30.461,58.146 19.174,87.75 7.002,-14.793 8.531,-31.734 6.77,-48.006 -1.762,-16.271 -6.661,-32.031 -12.044,-47.487 27.583,19.02 42.858,54.433 37.762,87.548 -1.556,10.106 -4.823,19.866 -8.381,29.452 -3.605,9.714 -7.589,19.431 -13.763,27.752 -6.174,8.321 -14.814,15.217 -24.943,17.4" />
      </g>
      <g
         transform="translate(2117.4924,486.571)"
         id="g1072">
        <path
           inkscape:connector-curvature="0"
           id="path1074"
           style="fill:#fbb03b;fill-opacity:1;fill-rule:nonzero;stroke:none"
           d="m 0,0 c 2.918,-10.411 -2.521,-21.145 -7.784,-30.59 -4.154,-7.457 -8.309,-14.914 -12.464,-22.371 -1.122,-2.015 -2.262,-4.077 -2.677,-6.347 -0.711,-3.903 0.799,-7.821 1.436,-11.737 2.411,-14.804 -7.773,-30.931 -11.4,-45.098 65.861,34.593 120.767,94.266 146.161,164.674 5.12,14.195 10.636,27.562 14.392,42.211 4.651,18.142 9.237,36.3 13.758,54.475 1.243,4.999 2.487,10.212 1.402,15.248 -1.086,5.036 -5.251,9.808 -10.403,9.777 C 121.286,136.375 94.562,110.318 68.619,85.865 58.548,76.374 47.891,66.582 34.546,62.922 31.664,62.131 28.291,61.333 27.024,58.626 25.818,56.048 27.171,53.016 26.903,50.182 26.675,47.768 25.288,45.641 23.942,43.625 16.365,32.279 8.789,20.933 1.212,9.586 0.217,8.097 -0.809,6.518 -0.942,4.732 -1.062,3.118 -0.437,1.558 0,0" />
      </g>
      <g
         transform="translate(2117.4924,486.571)"
         id="g1076">
        <path
           inkscape:connector-curvature="0"
           id="path1078"
           style="fill:none;stroke:#794039;stroke-width:4.5170002;stroke-linecap:round;stroke-linejoin:round;stroke-miterlimit:10;stroke-dasharray:none;stroke-opacity:1"
           d="m 0,0 c 2.918,-10.411 -2.521,-21.145 -7.784,-30.59 -4.154,-7.457 -8.309,-14.914 -12.464,-22.371 -1.122,-2.015 -2.262,-4.077 -2.677,-6.347 -0.711,-3.903 0.799,-7.821 1.436,-11.737 2.411,-14.804 -7.773,-30.931 -11.4,-45.098 65.861,34.593 120.767,94.266 146.161,164.674 5.12,14.195 10.636,27.562 14.392,42.211 4.651,18.142 9.237,36.3 13.758,54.475 1.243,4.999 2.487,10.212 1.402,15.248 -1.086,5.036 -5.251,9.808 -10.403,9.777 C 121.286,136.375 94.562,110.318 68.619,85.865 58.548,76.374 47.891,66.582 34.546,62.922 31.664,62.131 28.291,61.333 27.024,58.626 25.818,56.048 27.171,53.016 26.903,50.182 26.675,47.768 25.288,45.641 23.942,43.625 16.365,32.279 8.789,20.933 1.212,9.586 0.217,8.097 -0.809,6.518 -0.942,4.732 -1.062,3.118 -0.437,1.558 0,0 Z" />
      </g>
      <g
         transform="translate(2118.6851,503.2692)"
         id="g1080">
        <path
           inkscape:connector-curvature="0"
           id="path1082"
           style="fill:#ffffff;fill-opacity:1;fill-rule:nonzero;stroke:none"
           d="m 0,0 c 2.918,-10.411 -2.521,-21.145 -7.784,-30.59 -4.154,-7.457 -8.309,-14.914 -12.463,-22.371 -1.123,-2.015 -2.263,-4.077 -2.677,-6.347 -0.712,-3.903 0.798,-7.821 1.435,-11.737 1.662,-10.21 -2.509,-20.705 -5.369,-30.361 4.062,-1.287 7.249,-5.001 7.903,-9.212 30.857,23.063 60.278,48.397 84.815,78.096 20.006,24.215 36.729,51.434 47.412,81.053 5.12,14.195 10.636,27.562 14.392,42.211 2.073,8.088 5.167,15.787 7.266,23.707 2.476,9.347 2.859,19.821 4.242,29.401 -2.415,-16.734 -1.802,-34.569 -2.313,-51.459 -0.49,-16.218 2.353,-33.58 -2.061,-49.311 5.128,4.642 5.859,13.814 12.38,16.122 3.438,1.216 7.38,-0.057 10.82,1.153 4.924,1.733 7.221,7.917 12.172,9.572 1.808,0.604 4.24,0.902 4.676,2.757 0.21,0.889 -0.183,1.797 -0.563,2.628 -11.909,26.026 -19.691,54.138 -28.624,81.24 -1.082,3.28 -2.989,7.239 -6.443,7.161 -1.23,-0.028 -2.375,-0.614 -3.431,-1.247 -12.956,-7.764 -20.037,-26.079 -29.441,-37.612 C 94.9,110.819 81.775,98.266 68.619,85.865 58.548,76.374 47.891,66.582 34.546,62.922 31.664,62.131 28.291,61.333 27.024,58.626 25.818,56.048 27.171,53.016 26.903,50.182 26.675,47.768 25.288,45.641 23.942,43.625 16.365,32.279 8.789,20.933 1.212,9.586 0.218,8.097 -0.809,6.518 -0.942,4.732 -1.062,3.118 -0.437,1.558 0,0" />
      </g>
      <g
         transform="translate(2118.6851,503.2692)"
         id="g1084">
        <path
           inkscape:connector-curvature="0"
           id="path1086"
           style="fill:none;stroke:#794039;stroke-width:4.5170002;stroke-linecap:round;stroke-linejoin:round;stroke-miterlimit:10;stroke-dasharray:none;stroke-opacity:1"
           d="m 0,0 c 2.918,-10.411 -2.521,-21.145 -7.784,-30.59 -4.154,-7.457 -8.309,-14.914 -12.463,-22.371 -1.123,-2.015 -2.263,-4.077 -2.677,-6.347 -0.712,-3.903 0.798,-7.821 1.435,-11.737 1.662,-10.21 -2.509,-20.705 -5.369,-30.361 4.062,-1.287 7.249,-5.001 7.903,-9.212 30.857,23.063 60.278,48.397 84.815,78.096 20.006,24.215 36.729,51.434 47.412,81.053 5.12,14.195 10.636,27.562 14.392,42.211 2.073,8.088 5.167,15.787 7.266,23.707 2.476,9.347 2.859,19.821 4.242,29.401 -2.415,-16.734 -1.802,-34.569 -2.313,-51.459 -0.49,-16.218 2.353,-33.58 -2.061,-49.311 5.128,4.642 5.859,13.814 12.38,16.122 3.438,1.216 7.38,-0.057 10.82,1.153 4.924,1.733 7.221,7.917 12.172,9.572 1.808,0.604 4.24,0.902 4.676,2.757 0.21,0.889 -0.183,1.797 -0.563,2.628 -11.909,26.026 -19.691,54.138 -28.624,81.24 -1.082,3.28 -2.989,7.239 -6.443,7.161 -1.23,-0.028 -2.375,-0.614 -3.431,-1.247 -12.956,-7.764 -20.037,-26.079 -29.441,-37.612 C 94.9,110.819 81.775,98.266 68.619,85.865 58.548,76.374 47.891,66.582 34.546,62.922 31.664,62.131 28.291,61.333 27.024,58.626 25.818,56.048 27.171,53.016 26.903,50.182 26.675,47.768 25.288,45.641 23.942,43.625 16.365,32.279 8.789,20.933 1.212,9.586 0.218,8.097 -0.809,6.518 -0.942,4.732 -1.062,3.118 -0.437,1.558 0,0 Z" />
      </g>
      <g
         transform="translate(2113.3845,442.2794)"
         id="g1088">
        <path
           inkscape:connector-curvature="0"
           id="path1090"
           style="fill:none;stroke:#794039;stroke-width:4.5170002;stroke-linecap:round;stroke-linejoin:round;stroke-miterlimit:10;stroke-dasharray:none;stroke-opacity:1"
           d="m 0,0 c 35.738,29.04 67.362,63.135 93.638,100.952 7.433,10.697 14.458,21.722 20.123,33.452 4.326,8.954 7.837,18.275 11.343,27.581 5.125,13.608 10.251,27.215 15.376,40.823 2.768,7.348 5.556,14.777 6.566,22.563" />
      </g>
      <g
         transform="translate(2131.0938,509.6051)"
         id="g1092">
        <path
           inkscape:connector-curvature="0"
           id="path1094"
           style="fill:none;stroke:#794039;stroke-width:4.5170002;stroke-linecap:round;stroke-linejoin:round;stroke-miterlimit:10;stroke-dasharray:none;stroke-opacity:1"
           d="m 0,0 c 25.947,13.238 48.158,33.039 66.716,55.491 18.557,22.452 33.625,47.569 47.494,73.184 4.987,9.211 9.887,18.656 11.987,28.918" />
      </g>
      <g
         transform="translate(2271.5374,661.856)"
         id="g1096">
        <path
           inkscape:connector-curvature="0"
           id="path1098"
           style="fill:#fbb03b;fill-opacity:1;fill-rule:nonzero;stroke:none"
           d="m 0,0 c 0,-9.003 -7.298,-16.301 -16.301,-16.301 -9.002,0 -16.3,7.298 -16.3,16.301 0,9.003 7.298,16.301 16.3,16.301 C -7.298,16.301 0,9.003 0,0" />
      </g>
      <g
         transform="translate(2271.5374,661.856)"
         id="g1100">
        <path
           inkscape:connector-curvature="0"
           id="path1102"
           style="fill:none;stroke:#794039;stroke-width:4.5170002;stroke-linecap:round;stroke-linejoin:round;stroke-miterlimit:10;stroke-dasharray:none;stroke-opacity:1"
           d="m 0,0 c 0,-9.003 -7.298,-16.301 -16.301,-16.301 -9.002,0 -16.3,7.298 -16.3,16.301 0,9.003 7.298,16.301 16.3,16.301 C -7.298,16.301 0,9.003 0,0 Z" />
      </g>
      <g
         transform="translate(2264.3811,661.856)"
         id="g1104">
        <path
           inkscape:connector-curvature="0"
           id="path1106"
           style="fill:#ffffff;fill-opacity:1;fill-rule:nonzero;stroke:none"
           d="m 0,0 c 0,-5.05 -4.094,-9.144 -9.144,-9.144 -5.051,0 -9.145,4.094 -9.145,9.144 0,5.05 4.094,9.144 9.145,9.144 C -4.094,9.144 0,5.05 0,0" />
      </g>
      <g
         transform="translate(2264.3811,661.856)"
         id="g1108">
        <path
           inkscape:connector-curvature="0"
           id="path1110"
           style="fill:none;stroke:#794039;stroke-width:2.53399992;stroke-linecap:round;stroke-linejoin:round;stroke-miterlimit:10;stroke-dasharray:none;stroke-opacity:1"
           d="m 0,0 c 0,-5.05 -4.094,-9.144 -9.144,-9.144 -5.051,0 -9.145,4.094 -9.145,9.144 0,5.05 4.094,9.144 9.145,9.144 C -4.094,9.144 0,5.05 0,0 Z" />
      </g>
      <g
         transform="translate(2263.2295,646.5522)"
         id="g1112">
        <path
           inkscape:connector-curvature="0"
           id="path1114"
           style="fill:none;stroke:#794039;stroke-width:4.5170002;stroke-linecap:round;stroke-linejoin:round;stroke-miterlimit:10;stroke-dasharray:none;stroke-opacity:1"
           d="M 0,0 C 0.197,-15.996 1.642,-31.977 4.318,-47.748" />
      </g>
      <g
         transform="translate(2233.7131,306.6494)"
         id="g1116">
        <path
           inkscape:connector-curvature="0"
           id="path1118"
           style="fill:none;stroke:#794039;stroke-width:4.5170002;stroke-linecap:round;stroke-linejoin:round;stroke-miterlimit:10;stroke-dasharray:none;stroke-opacity:1"
           d="M 0,0 C 3.582,6.87 10.835,11.683 18.557,12.314" />
      </g>
      <g
         transform="translate(2128.8572,318.0782)"
         id="g1120">
        <path
           inkscape:connector-curvature="0"
           id="path1122"
           style="fill:none;stroke:#794039;stroke-width:4.5170002;stroke-linecap:round;stroke-linejoin:round;stroke-miterlimit:10;stroke-dasharray:none;stroke-opacity:1"
           d="M 0,0 C 6.138,-2.427 10.352,-9.035 9.964,-15.624" />
      </g>
      <g
         transform="translate(2147.1526,613.3696)"
         id="g1124">
        <path
           inkscape:connector-curvature="0"
           id="path1126"
           style="fill:none;stroke:#794039;stroke-width:4.5170002;stroke-linecap:round;stroke-linejoin:round;stroke-miterlimit:10;stroke-dasharray:none;stroke-opacity:1"
           d="M 0,0 C 0.836,15.768 0.501,31.599 -1.003,47.317 -3.079,40.483 -6.542,31.622 -8.103,24.653" />
      </g>
      <g
         transform="translate(2094.1802,561.4824)"
         id="g1128">
        <path
           inkscape:connector-curvature="0"
           id="path1130"
           style="fill:#5a556b;fill-opacity:1;fill-rule:nonzero;stroke:none"
           d="m 0,0 -2.466,-1.641 -94.114,141.44 2.466,1.641 z" />
      </g>
      <g
         transform="translate(2094.1802,561.4824)"
         id="g1132">
        <path
           inkscape:connector-curvature="0"
           id="path1134"
           style="fill:none;stroke:#794039;stroke-width:4.17500019;stroke-linecap:round;stroke-linejoin:round;stroke-miterlimit:10;stroke-dasharray:none;stroke-opacity:1"
           d="m 0,0 -2.466,-1.641 -94.114,141.44 2.466,1.641 z" />
      </g>
      <g
         transform="translate(2082.0823,554.0069)"
         id="g1136">
        <path
           inkscape:connector-curvature="0"
           id="path1138"
           style="fill:#5a556b;fill-opacity:1;fill-rule:nonzero;stroke:none"
           d="m 0,0 -2.466,-1.641 -94.114,141.44 2.466,1.641 z" />
      </g>
      <g
         transform="translate(2082.0823,554.0069)"
         id="g1140">
        <path
           inkscape:connector-curvature="0"
           id="path1142"
           style="fill:none;stroke:#794039;stroke-width:4.17500019;stroke-linecap:round;stroke-linejoin:round;stroke-miterlimit:10;stroke-dasharray:none;stroke-opacity:1"
           d="m 0,0 -2.466,-1.641 -94.114,141.44 2.466,1.641 z" />
      </g>
      <g
         transform="translate(2057.9492,564.6183)"
         id="g1144">
        <path
           inkscape:connector-curvature="0"
           id="path1146"
           style="fill:#5a556b;fill-opacity:1;fill-rule:nonzero;stroke:none"
           d="m 0,0 -2.466,-1.641 -82.079,123.353 2.466,1.642 z" />
      </g>
      <g
         transform="translate(2057.9492,564.6183)"
         id="g1148">
        <path
           inkscape:connector-curvature="0"
           id="path1150"
           style="fill:none;stroke:#794039;stroke-width:4.17500019;stroke-linecap:round;stroke-linejoin:round;stroke-miterlimit:10;stroke-dasharray:none;stroke-opacity:1"
           d="m 0,0 -2.466,-1.641 -82.079,123.353 2.466,1.642 z" />
      </g>
      <g
         transform="translate(2035.858,572.1614)"
         id="g1152">
        <path
           inkscape:connector-curvature="0"
           id="path1154"
           style="fill:#5a556b;fill-opacity:1;fill-rule:nonzero;stroke:none"
           d="m 0,0 -2.466,-1.641 -57.081,85.784 2.466,1.642 z" />
      </g>
      <g
         transform="translate(2035.858,572.1614)"
         id="g1156">
        <path
           inkscape:connector-curvature="0"
           id="path1158"
           style="fill:none;stroke:#794039;stroke-width:4.17500019;stroke-linecap:round;stroke-linejoin:round;stroke-miterlimit:10;stroke-dasharray:none;stroke-opacity:1"
           d="m 0,0 -2.466,-1.641 -57.081,85.784 2.466,1.642 z" />
      </g>
      <g
         transform="translate(2014.3229,578.8683)"
         id="g1160">
        <path
           inkscape:connector-curvature="0"
           id="path1162"
           style="fill:#5a556b;fill-opacity:1;fill-rule:nonzero;stroke:none"
           d="m 0,0 -2.466,-1.641 -44.743,67.243 2.467,1.641 z" />
      </g>
      <g
         transform="translate(2014.3229,578.8683)"
         id="g1164">
        <path
           inkscape:connector-curvature="0"
           id="path1166"
           style="fill:none;stroke:#794039;stroke-width:4.17500019;stroke-linecap:round;stroke-linejoin:round;stroke-miterlimit:10;stroke-dasharray:none;stroke-opacity:1"
           d="m 0,0 -2.466,-1.641 -44.743,67.243 2.467,1.641 z" />
      </g>
      <g
         transform="translate(1992.2644,586.747)"
         id="g1168">
        <path
           inkscape:connector-curvature="0"
           id="path1170"
           style="fill:#5a556b;fill-opacity:1;fill-rule:nonzero;stroke:none"
           d="m 0,0 -2.461,-1.65 -34.784,51.893 2.461,1.65 z" />
      </g>
      <g
         transform="translate(1992.2644,586.747)"
         id="g1172">
        <path
           inkscape:connector-curvature="0"
           id="path1174"
           style="fill:none;stroke:#794039;stroke-width:4.17500019;stroke-linecap:round;stroke-linejoin:round;stroke-miterlimit:10;stroke-dasharray:none;stroke-opacity:1"
           d="m 0,0 -2.461,-1.65 -34.784,51.893 2.461,1.65 z" />
      </g>
      <g
         transform="translate(1943.0295,634.6993)"
         id="g1176">
        <path
           inkscape:connector-curvature="0"
           id="path1178"
           style="fill:#5a556b;fill-opacity:1;fill-rule:nonzero;stroke:none"
           d="M 0,0 25.489,-38.306 23.023,-39.947 -2.466,-1.641 Z" />
      </g>
      <g
         transform="translate(1943.0295,634.6993)"
         id="g1180">
        <path
           inkscape:connector-curvature="0"
           id="path1182"
           style="fill:none;stroke:#794039;stroke-width:4.17500019;stroke-linecap:round;stroke-linejoin:round;stroke-miterlimit:10;stroke-dasharray:none;stroke-opacity:1"
           d="M 0,0 25.489,-38.306 23.023,-39.947 -2.466,-1.641 Z" />
      </g>
      <g
         transform="translate(2030.6357,717.9602)"
         id="g1184">
        <path
           inkscape:connector-curvature="0"
           id="path1186"
           style="fill:#f8881a;fill-opacity:1;fill-rule:nonzero;stroke:none"
           d="m 0,0 c 0,0 67.194,-49.156 70.282,-153.04 l -13.143,4.111 c 0,0 -8.64,109.021 -84.199,136.26 0,0 8.125,16.054 27.06,12.669" />
      </g>
      <g
         transform="translate(2030.6357,717.9602)"
         id="g1188">
        <path
           inkscape:connector-curvature="0"
           id="path1190"
           style="fill:none;stroke:#794039;stroke-width:4.17500019;stroke-linecap:round;stroke-linejoin:round;stroke-miterlimit:10;stroke-dasharray:none;stroke-opacity:1"
           d="m 0,0 c 0,0 67.194,-49.156 70.282,-153.04 l -13.143,4.111 c 0,0 -8.64,109.021 -84.199,136.26 0,0 8.125,16.054 27.06,12.669 z" />
      </g>
      <g
         transform="translate(2003.5758,705.2916)"
         id="g1192">
        <path
           inkscape:connector-curvature="0"
           id="path1194"
           style="fill:#e7721a;fill-opacity:1;fill-rule:nonzero;stroke:none"
           d="M 0,0 C 0,0 1.293,2.545 4.037,5.394 75.758,-26.354 89.336,-130.38 90.255,-138.155 l -6.056,1.895 c 0,0 -8.641,109.021 -84.199,136.26" />
      </g>
      <g
         transform="translate(2003.5758,705.2916)"
         id="g1196">
        <path
           inkscape:connector-curvature="0"
           id="path1198"
           style="fill:none;stroke:#794039;stroke-width:4.17500019;stroke-linecap:round;stroke-linejoin:round;stroke-miterlimit:10;stroke-dasharray:none;stroke-opacity:1"
           d="M 0,0 C 0,0 1.293,2.545 4.037,5.394 75.758,-26.354 89.336,-130.38 90.255,-138.155 l -6.056,1.895 c 0,0 -8.641,109.021 -84.199,136.26 z" />
      </g>
      <g
         transform="translate(2013.4038,745.847)"
         id="g1200">
        <path
           inkscape:connector-curvature="0"
           id="path1202"
           style="fill:#f89b1a;fill-opacity:1;fill-rule:nonzero;stroke:none"
           d="m 0,0 c 0,0 -44.566,-14.72 -44.195,-46.381 0.372,-31.662 7.493,-50.476 -20.189,-57.498 -27.681,-7.022 -32.655,-21.788 -32.078,-31.28 l 7.392,-1.984 c 0,0 -0.406,16.821 24.935,21.927 25.34,5.107 42.787,18.233 43.192,49.905 0.406,31.672 38.175,37.424 38.175,37.424 0,0 4.523,18.194 -17.232,27.887" />
      </g>
      <g
         transform="translate(2013.4038,745.847)"
         id="g1204">
        <path
           inkscape:connector-curvature="0"
           id="path1206"
           style="fill:none;stroke:#794039;stroke-width:4.17500019;stroke-linecap:round;stroke-linejoin:round;stroke-miterlimit:10;stroke-dasharray:none;stroke-opacity:1"
           d="m 0,0 c 0,0 -44.566,-14.72 -44.195,-46.381 0.372,-31.662 7.493,-50.476 -20.189,-57.498 -27.681,-7.022 -32.655,-21.788 -32.078,-31.28 l 7.392,-1.984 c 0,0 -0.406,16.821 24.935,21.927 25.34,5.107 42.787,18.233 43.192,49.905 0.406,31.672 38.175,37.424 38.175,37.424 0,0 4.523,18.194 -17.232,27.887 z" />
      </g>
      <g
         transform="translate(1924.6713,620.0439)"
         id="g1208">
        <path
           inkscape:connector-curvature="0"
           id="path1210"
           style="fill:#f89b1a;fill-opacity:1;fill-rule:nonzero;stroke:none"
           d="m 0,0 195.182,-61.046 c 0,0 -9.12,-13.764 -33.731,-20.843 l -162.19,70.724 z" />
      </g>
      <g
         transform="translate(1924.6713,620.0439)"
         id="g1212">
        <path
           inkscape:connector-curvature="0"
           id="path1214"
           style="fill:none;stroke:#794039;stroke-width:4.17500019;stroke-linecap:round;stroke-linejoin:round;stroke-miterlimit:10;stroke-dasharray:none;stroke-opacity:1"
           d="m 0,0 195.182,-61.046 c 0,0 -9.12,-13.764 -33.731,-20.843 l -162.19,70.724 z" />
      </g>
      <g
         transform="translate(1975.4941,696.8173)"
         id="g1216">
        <path
           inkscape:connector-curvature="0"
           id="path1218"
           style="fill:#ffb01a;fill-opacity:1;fill-rule:nonzero;stroke:none"
           d="m 0,0 c -0.231,-32.034 6.749,-50.936 -21.939,-58.579 -25.039,-6.671 -32.348,-18.976 -33.529,-28.378 l -3.084,0.828 c -0.578,9.492 4.396,24.258 32.078,31.28 27.682,7.022 20.56,25.836 20.189,57.498 C -6.657,34.31 37.91,49.03 37.91,49.03 39.75,48.21 41.387,47.325 42.87,46.4 31.998,41.922 0.192,26.56 0,0" />
      </g>
      <g
         transform="translate(1975.4941,696.8173)"
         id="g1220">
        <path
           inkscape:connector-curvature="0"
           id="path1222"
           style="fill:none;stroke:#794039;stroke-width:4.17500019;stroke-linecap:round;stroke-linejoin:round;stroke-miterlimit:10;stroke-dasharray:none;stroke-opacity:1"
           d="m 0,0 c -0.231,-32.034 6.749,-50.936 -21.939,-58.579 -25.039,-6.671 -32.348,-18.976 -33.529,-28.378 l -3.084,0.828 c -0.578,9.492 4.396,24.258 32.078,31.28 27.682,7.022 20.56,25.836 20.189,57.498 C -6.657,34.31 37.91,49.03 37.91,49.03 39.75,48.21 41.387,47.325 42.87,46.4 31.998,41.922 0.192,26.56 0,0 Z" />
      </g>
      <g
         transform="translate(2086.1218,538.1546)"
         id="g1224">
        <path
           inkscape:connector-curvature="0"
           id="path1226"
           style="fill:#f8881a;fill-opacity:1;fill-rule:nonzero;stroke:none"
           d="M 0,0 -153.031,66.731 20.005,8.752 C 14.965,5.598 8.383,2.411 0,0" />
      </g>
      <g
         transform="translate(2086.1218,538.1546)"
         id="g1228">
        <path
           inkscape:connector-curvature="0"
           id="path1230"
           style="fill:none;stroke:#794039;stroke-width:4.17500019;stroke-linecap:round;stroke-linejoin:round;stroke-miterlimit:10;stroke-dasharray:none;stroke-opacity:1"
           d="M 0,0 -153.031,66.731 20.005,8.752 C 14.965,5.598 8.383,2.411 0,0 Z" />
      </g>
      <g
         transform="translate(2045.4587,656.566)"
         id="g1232">
        <path
           inkscape:connector-curvature="0"
           id="path1234"
           style="fill:#ecc2a1;fill-opacity:1;fill-rule:nonzero;stroke:#794039;stroke-width:4.5170002;stroke-linecap:round;stroke-linejoin:round;stroke-miterlimit:10;stroke-dasharray:none;stroke-opacity:1"
           d="m 0,0 c 6.989,8.238 15.226,15.414 24.343,21.209 1.703,1.082 4.07,2.077 5.567,0.722 2.047,-1.853 -0.24,-5.142 -0.161,-7.903 5.498,-5.288 10.224,-11.379 13.98,-18.019 0.908,-1.606 1.781,-3.32 1.828,-5.164 0.046,-1.844 -0.739,-3.601 -1.585,-5.24 -2.201,-4.269 -4.983,-8.329 -8.752,-11.306 -3.769,-2.977 -8.623,-4.787 -13.391,-4.207" />
      </g>
    </g>
  </g>
</svg>
