<?xml version="1.0" encoding="UTF-8" standalone="no"?>
<!-- Created with Inkscape (http://www.inkscape.org/) -->

<svg
   xmlns:dc="http://purl.org/dc/elements/1.1/"
   xmlns:cc="http://creativecommons.org/ns#"
   xmlns:rdf="http://www.w3.org/1999/02/22-rdf-syntax-ns#"
   xmlns:svg="http://www.w3.org/2000/svg"
   xmlns="http://www.w3.org/2000/svg"
   xmlns:sodipodi="http://sodipodi.sourceforge.net/DTD/sodipodi-0.dtd"
   xmlns:inkscape="http://www.inkscape.org/namespaces/inkscape"
   width="129.18468mm"
   height="121.19466mm"
   viewBox="0 0 129.18468 121.19466"
   version="1.1"
   id="svg13818"
   inkscape:version="0.92.4 (unknown)"
   sodipodi:docname="bard-avatar.svg">
  <defs
     id="defs13812" />
  <sodipodi:namedview
     id="base"
     pagecolor="#ffffff"
     bordercolor="#666666"
     borderopacity="1.0"
     inkscape:pageopacity="0.0"
     inkscape:pageshadow="2"
     inkscape:zoom="0.35"
     inkscape:cx="-343.97317"
     inkscape:cy="101.0398"
     inkscape:document-units="mm"
     inkscape:current-layer="layer1"
     showgrid="false"
     inkscape:window-width="1920"
     inkscape:window-height="1016"
     inkscape:window-x="0"
     inkscape:window-y="27"
     inkscape:window-maximized="1" />
  <metadata
     id="metadata13815">
    <rdf:RDF>
      <cc:Work
         rdf:about="">
        <dc:format>image/svg+xml</dc:format>
        <dc:type
           rdf:resource="http://purl.org/dc/dcmitype/StillImage" />
        <dc:title></dc:title>
      </cc:Work>
    </rdf:RDF>
  </metadata>
  <g
     inkscape:label="Layer 1"
     inkscape:groupmode="layer"
     id="layer1"
     transform="translate(111.58566,-57.395931)">
    <g
       id="g900"
       transform="matrix(0.35277777,0,0,-0.35277777,4.345109,85.043712)">
      <path
         d="m 0,0 c -5.431,4.65 -11.699,8.197 -18.642,10.106 10.851,5.45 22.636,11.916 26.754,23.339 -7.02,-3.169 -15.066,-3.091 -22.712,-2.16 -21.636,2.637 -41.924,11.514 -62.613,18.37 -27.874,9.237 -57.367,13.54 -83.591,-2.449 8.143,7.124 12.754,18.107 12.136,28.908 -4.542,-11.858 -16.675,-19.103 -28.78,-22.942 -14.477,-4.59 -28.892,-6.81 -42.841,-13.05 -11.478,-5.135 -14.974,-8.178 -21.104,-19.754 1.063,2.007 0.167,4.427 -0.399,6.627 -1.729,6.722 -0.123,13.801 1.484,20.554 2.178,9.16 5.084,19.329 13.267,23.986 -9.971,-5.927 -20.615,-12.625 -24.775,-23.454 -2.516,-6.55 -2.276,-13.944 -0.293,-20.676 1.436,-4.875 4.2,-9.894 8.985,-11.608 -15.833,0.134 -27.395,-12.112 -36.825,-23.908 -37.734,-47.203 -36.434,-116.295 -7.149,-167.592 10.457,-18.315 24.714,-37.23 21.448,-58.066 3.654,3.054 6.578,6.976 8.461,11.35 6.389,-12.127 16.166,-22.446 27.931,-29.48 -2.299,7.282 -2.414,15.239 -0.328,22.585 15.832,-6.252 33.459,-5.326 50.45,-4.305 31.805,1.911 63.61,3.822 95.415,5.733 1.586,0.095 3.294,0.16 4.629,-0.701 1.642,-1.059 2.202,-3.175 2.449,-5.113 1.216,-9.542 -2.233,-19.57 -9.063,-26.346 10.835,0.796 21.079,7.355 26.336,16.862 7.285,-3.881 15.51,-5.981 23.763,-6.068 -6.091,8.029 -6.606,19.212 -3.83,28.9 4.85,16.93 18.844,28.46 28.698,42.574 9.995,14.316 18.209,30.452 19.376,48.154 6.71,-6.928 17.867,-9.084 26.675,-5.156 -9.349,3.444 -13.569,14.439 -14.245,24.379 -0.605,8.896 0.706,17.793 1.648,26.659 1.97,18.542 2.263,37.726 -3.828,55.35 C 15.148,-17.573 8.633,-7.393 0,0"
         style="fill:#c69c6d;fill-opacity:1;fill-rule:nonzero;stroke:none"
         id="path902"
         inkscape:connector-curvature="0" />
    </g>
    <g
       id="g904"
       transform="matrix(0.35277777,0,0,-0.35277777,4.345109,85.043712)">
      <path
         d="m 0,0 c -5.431,4.65 -11.699,8.197 -18.642,10.106 10.851,5.45 22.636,11.916 26.754,23.339 -7.02,-3.169 -15.066,-3.091 -22.712,-2.16 -21.636,2.637 -41.924,11.514 -62.613,18.37 -27.874,9.237 -57.367,13.54 -83.591,-2.449 8.143,7.124 12.754,18.107 12.136,28.908 -4.542,-11.858 -16.675,-19.103 -28.78,-22.942 -14.477,-4.59 -28.892,-6.81 -42.841,-13.05 -11.478,-5.135 -14.974,-8.178 -21.104,-19.754 1.063,2.007 0.167,4.427 -0.399,6.627 -1.729,6.722 -0.123,13.801 1.484,20.554 2.178,9.16 5.084,19.329 13.267,23.986 -9.971,-5.927 -20.615,-12.625 -24.775,-23.454 -2.516,-6.55 -2.276,-13.944 -0.293,-20.676 1.436,-4.875 4.2,-9.894 8.985,-11.608 -15.833,0.134 -27.395,-12.112 -36.825,-23.908 -37.734,-47.203 -36.434,-116.295 -7.149,-167.592 10.457,-18.315 24.714,-37.23 21.448,-58.066 3.654,3.054 6.578,6.976 8.461,11.35 6.389,-12.127 16.166,-22.446 27.931,-29.48 -2.299,7.282 -2.414,15.239 -0.328,22.585 15.832,-6.252 33.459,-5.326 50.45,-4.305 31.805,1.911 63.61,3.822 95.415,5.733 1.586,0.095 3.294,0.16 4.629,-0.701 1.642,-1.059 2.202,-3.175 2.449,-5.113 1.216,-9.542 -2.233,-19.57 -9.063,-26.346 10.835,0.796 21.079,7.355 26.336,16.862 7.285,-3.881 15.51,-5.981 23.763,-6.068 -6.091,8.029 -6.606,19.212 -3.83,28.9 4.85,16.93 18.844,28.46 28.698,42.574 9.995,14.316 18.209,30.452 19.376,48.154 6.71,-6.928 17.867,-9.084 26.675,-5.156 -9.349,3.444 -13.569,14.439 -14.245,24.379 -0.605,8.896 0.706,17.793 1.648,26.659 1.97,18.542 2.263,37.726 -3.828,55.35 C 15.148,-17.573 8.633,-7.393 0,0 Z"
         style="fill:none;stroke:#794039;stroke-width:4.5170002;stroke-linecap:round;stroke-linejoin:round;stroke-miterlimit:10;stroke-dasharray:none;stroke-opacity:1"
         id="path906"
         inkscape:connector-curvature="0" />
    </g>
    <g
       id="g992"
       transform="matrix(0.35277777,0,0,-0.35277777,-7.056952,161.43883)">
      <path
         d="M 0,0 C 0,0 9.222,-10.171 23.696,-7.534 38.168,-4.898 54.718,5.326 58.015,23.636 61.312,41.946 48.753,54.86 33.946,54.35 19.139,53.84 4.857,33.805 4.857,33.805"
         style="fill:#ecc2a1;fill-opacity:1;fill-rule:nonzero;stroke:#794039;stroke-width:4.5170002;stroke-linecap:round;stroke-linejoin:round;stroke-miterlimit:10;stroke-dasharray:none;stroke-opacity:1"
         id="path994"
         inkscape:connector-curvature="0" />
    </g>
    <g
       id="g996"
       transform="matrix(0.35277777,0,0,-0.35277777,2.568799,159.92697)">
      <path
         d="m 0,0 c 0,0 -10.555,0.158 -6.692,3.306 3.863,3.149 8.247,5.289 7.412,10.605 -0.835,5.315 -8.687,4.445 -8.687,4.445 0,0 7.544,12.078 14.652,15.373 7.107,3.295 13.217,-5.549 12.447,-12.206"
         style="fill:#ecc2a1;fill-opacity:1;fill-rule:nonzero;stroke:#794039;stroke-width:4.5170002;stroke-linecap:round;stroke-linejoin:round;stroke-miterlimit:10;stroke-dasharray:none;stroke-opacity:1"
         id="path998"
         inkscape:connector-curvature="0" />
    </g>
    <g
       id="g1000"
       transform="matrix(0.35277777,0,0,-0.35277777,-91.061383,156.46537)">
      <path
         d="m 0,0 c 0,0 -10.059,-9.344 -24.254,-5.478 -14.194,3.865 -29.807,15.469 -31.524,33.994 -1.717,18.525 11.9,30.317 26.609,28.541 14.709,-1.776 27.224,-22.96 27.224,-22.96"
         style="fill:#ecc2a1;fill-opacity:1;fill-rule:nonzero;stroke:#794039;stroke-width:4.5170002;stroke-linecap:round;stroke-linejoin:round;stroke-miterlimit:10;stroke-dasharray:none;stroke-opacity:1"
         id="path1002"
         inkscape:connector-curvature="0" />
    </g>
    <g
       id="g1004"
       transform="matrix(0.35277777,0,0,-0.35277777,-100.52239,154.13503)">
      <path
         d="m 0,0 c 0,0 10.53,-0.746 6.95,2.721 -3.578,3.468 -7.763,5.976 -6.476,11.2 1.286,5.225 9.035,3.686 9.035,3.686 0,0 -6.482,12.679 -13.282,16.57 -6.799,3.892 -13.643,-4.397 -13.446,-11.095"
         style="fill:#ecc2a1;fill-opacity:1;fill-rule:nonzero;stroke:#794039;stroke-width:4.5170002;stroke-linecap:round;stroke-linejoin:round;stroke-miterlimit:10;stroke-dasharray:none;stroke-opacity:1"
         id="path1006"
         inkscape:connector-curvature="0" />
    </g>
    <g
       id="g1008"
       transform="matrix(0.35277777,0,0,-0.35277777,-0.94818095,141.62567)">
      <path
         d="m 0,0 c -3.124,-72.846 -63.684,-105.443 -136.53,-102.319 -72.846,3.124 -130.393,40.785 -127.269,113.631 3.845,89.655 7.476,135.386 137.708,129.801 C 4.142,135.528 3.844,89.654 0,0"
         style="fill:#ecc2a1;fill-opacity:1;fill-rule:nonzero;stroke:none"
         id="path1010"
         inkscape:connector-curvature="0" />
    </g>
    <g
       id="g1012"
       transform="matrix(0.35277777,0,0,-0.35277777,-0.94818095,141.62567)">
      <path
         d="m 0,0 c -3.124,-72.846 -63.684,-105.443 -136.53,-102.319 -72.846,3.124 -130.393,40.785 -127.269,113.631 3.845,89.655 7.476,135.386 137.708,129.801 C 4.142,135.528 3.844,89.654 0,0 Z"
         style="fill:none;stroke:#794039;stroke-width:4.5170002;stroke-linecap:round;stroke-linejoin:round;stroke-miterlimit:10;stroke-dasharray:none;stroke-opacity:1"
         id="path1014"
         inkscape:connector-curvature="0" />
    </g>
    <g
       id="g1016"
       transform="matrix(0.35277777,0,0,-0.35277777,-64.226777,150.26177)">
      <path
         d="m 0,0 c -0.378,-8.809 -7.825,-15.643 -16.633,-15.265 -8.809,0.377 -15.644,7.824 -15.266,16.633 0.378,8.809 7.825,15.643 16.633,15.265 C -6.457,16.256 0.378,8.809 0,0"
         style="fill:#794039;fill-opacity:1;fill-rule:nonzero;stroke:none"
         id="path1018"
         inkscape:connector-curvature="0" />
    </g>
    <g
       id="g1020"
       transform="matrix(0.35277777,0,0,-0.35277777,-70.77906,160.94999)">
      <path
         d="m 0,0 c -0.429,-9.999 -8.882,-17.757 -18.881,-17.328 -9.999,0.428 -17.757,8.882 -17.329,18.881 0.429,9.999 8.883,17.757 18.882,17.328 C -7.33,18.452 0.429,9.999 0,0"
         style="fill:#faacae;fill-opacity:1;fill-rule:nonzero;stroke:none"
         id="path1022"
         inkscape:connector-curvature="0" />
    </g>
    <g
       id="g1024"
       transform="matrix(0.35277777,0,0,-0.35277777,-30.163049,151.72248)">
      <path
         d="m 0,0 c -0.378,-8.809 6.457,-16.256 15.266,-16.633 8.808,-0.378 16.255,6.456 16.633,15.265 C 32.277,7.441 25.442,14.888 16.634,15.265 7.825,15.643 0.378,8.809 0,0"
         style="fill:#794039;fill-opacity:1;fill-rule:nonzero;stroke:none"
         id="path1026"
         inkscape:connector-curvature="0" />
    </g>
    <g
       id="g1028"
       transform="matrix(0.35277777,0,0,-0.35277777,-24.535821,162.60839)">
      <path
         d="m 0,0 c -0.407,-9.492 6.958,-17.516 16.449,-17.923 9.492,-0.407 17.517,6.957 17.924,16.449 C 34.78,8.018 27.415,16.042 17.923,16.449 8.432,16.856 0.407,9.492 0,0"
         style="fill:#faacae;fill-opacity:1;fill-rule:nonzero;stroke:none"
         id="path1030"
         inkscape:connector-curvature="0" />
    </g>
    <g
       id="g1032"
       transform="matrix(0.35277777,0,0,-0.35277777,-62.935363,142.00787)">
      <path
         d="M 0,0 C 0,0 -0.164,0.11 -0.471,0.317 -0.758,0.518 -1.179,0.813 -1.715,1.188 -2.224,1.555 -2.841,2 -3.549,2.511 -4.249,3.01 -4.985,3.593 -5.812,4.192 -6.6,4.828 -7.503,5.446 -8.41,6.134 c -0.468,0.327 -0.966,0.639 -1.46,0.971 -0.243,0.171 -0.489,0.344 -0.737,0.518 -0.26,0.157 -0.522,0.314 -0.786,0.474 -0.523,0.326 -1.057,0.651 -1.579,1.011 -0.552,0.311 -1.111,0.626 -1.674,0.943 -1.092,0.711 -2.319,1.2 -3.511,1.791 -1.203,0.565 -2.484,0.95 -3.718,1.438 -1.288,0.346 -2.554,0.687 -3.78,1.016 -1.26,0.194 -2.486,0.407 -3.661,0.614 -0.586,0.133 -1.165,0.12 -1.725,0.174 -0.563,0.045 -1.106,0.068 -1.628,0.109 -1.048,0.079 -2.022,0.13 -2.88,0.13 h -2.244 c -1.263,0 -1.985,0.055 -1.985,0.055 0,0 0.677,0.237 1.886,0.606 0.61,0.178 1.351,0.399 2.2,0.647 0.851,0.283 1.837,0.434 2.921,0.598 1.084,0.145 2.266,0.42 3.53,0.463 1.265,0.041 2.613,0.098 4.013,0.099 1.387,-0.138 2.844,-0.233 4.316,-0.431 0.726,-0.159 1.458,-0.319 2.193,-0.48 0.731,-0.183 1.496,-0.281 2.206,-0.555 1.426,-0.522 2.916,-0.927 4.249,-1.637 0.677,-0.331 1.357,-0.648 2,-1.012 0.629,-0.387 1.232,-0.802 1.827,-1.202 1.207,-0.781 2.193,-1.779 3.167,-2.647 0.884,-0.975 1.766,-1.836 2.404,-2.793 0.685,-0.91 1.201,-1.83 1.612,-2.663 0.402,-0.841 0.677,-1.614 0.871,-2.259 0.185,-0.65 0.29,-1.178 0.337,-1.548 C 0.002,0.2 0,0 0,0"
         style="fill:#794039;fill-opacity:1;fill-rule:nonzero;stroke:none"
         id="path1034"
         inkscape:connector-curvature="0" />
    </g>
    <g
       id="g1036"
       transform="matrix(0.35277777,0,0,-0.35277777,-31.214468,141.46046)">
      <path
         d="m 0,0 c 0,0 0.028,0.198 0.132,0.551 0.102,0.358 0.285,0.864 0.567,1.478 0.289,0.609 0.678,1.331 1.203,2.102 0.532,0.761 1.181,1.592 1.997,2.387 0.776,0.85 1.777,1.568 2.799,2.397 1.094,0.711 2.22,1.547 3.531,2.137 0.65,0.305 1.308,0.624 1.989,0.912 0.691,0.261 1.411,0.472 2.13,0.697 1.425,0.5 2.96,0.673 4.447,0.974 0.744,0.164 1.515,0.144 2.265,0.214 0.751,0.048 1.499,0.095 2.241,0.143 1.485,-0.027 2.939,-0.154 4.331,-0.228 1.384,-0.213 2.708,-0.472 3.952,-0.704 1.244,-0.235 2.37,-0.684 3.419,-0.992 1.048,-0.326 1.999,-0.622 2.797,-1.031 0.803,-0.374 1.502,-0.7 2.077,-0.968 1.141,-0.548 1.775,-0.875 1.775,-0.875 0,0 -0.715,0.097 -1.967,0.266 -0.616,0.095 -1.362,0.209 -2.219,0.341 -0.841,0.176 -1.82,0.207 -2.869,0.288 -0.522,0.038 -1.066,0.077 -1.629,0.118 -0.562,0.032 -1.132,0.132 -1.731,0.089 C 30.044,10.271 28.799,10.245 27.525,10.244 26.264,10.104 24.959,9.96 23.635,9.813 22.341,9.517 21.016,9.331 19.742,8.955 18.475,8.551 17.187,8.253 16,7.717 15.395,7.488 14.795,7.261 14.203,7.037 13.632,6.761 13.055,6.521 12.488,6.277 12.203,6.16 11.92,6.044 11.64,5.928 11.368,5.793 11.099,5.66 10.833,5.527 10.294,5.274 9.755,5.041 9.243,4.789 8.242,4.246 7.255,3.772 6.381,3.263 5.472,2.796 4.656,2.332 3.889,1.944 3.111,1.547 2.434,1.2 1.875,0.915 1.289,0.625 0.829,0.397 0.514,0.242 0.179,0.084 0,0 0,0"
         style="fill:#794039;fill-opacity:1;fill-rule:nonzero;stroke:none"
         id="path1038"
         inkscape:connector-curvature="0" />
    </g>
    <g
       id="g1040"
       transform="matrix(0.35277777,0,0,-0.35277777,-49.395541,163.01314)">
      <path
         d="M 0,0 C 6.19,-1.04 12.585,-0.845 18.701,0.57"
         style="fill:none;stroke:#794039;stroke-width:2.68499994;stroke-linecap:round;stroke-linejoin:round;stroke-miterlimit:10;stroke-dasharray:none;stroke-opacity:1"
         id="path1042"
         inkscape:connector-curvature="0" />
    </g>
    <g
       id="g1060"
       transform="matrix(0.35277777,0,0,-0.35277777,-100.13274,120.78028)">
      <path
         d="m 0,0 c -2.927,-33.365 7.167,-67.702 27.683,-94.175 -4.963,27.095 -6.79,54.764 -5.431,82.276"
         style="fill:#c69c6d;fill-opacity:1;fill-rule:nonzero;stroke:#794039;stroke-width:4.5170002;stroke-linecap:round;stroke-linejoin:round;stroke-miterlimit:10;stroke-dasharray:none;stroke-opacity:1"
         id="path1062"
         inkscape:connector-curvature="0" />
    </g>
    <g
       id="g1064"
       transform="matrix(0.35277777,0,0,-0.35277777,-2.183431,123.71182)">
      <path
         d="m 0,0 c 1.036,-35.884 -5.851,-71.976 -20.025,-104.958 13.348,10.566 22.882,25.425 28.926,41.34 6.043,15.915 8.765,32.911 10.154,49.878"
         style="fill:#c69c6d;fill-opacity:1;fill-rule:nonzero;stroke:#794039;stroke-width:4.5170002;stroke-linecap:round;stroke-linejoin:round;stroke-miterlimit:10;stroke-dasharray:none;stroke-opacity:1"
         id="path1066"
         inkscape:connector-curvature="0" />
    </g>
    <g
       id="g1068"
       transform="matrix(0.35277777,0,0,-0.35277777,-82.243138,85.065901)">
      <path
         d="m 0,0 c -38.931,-14.755 -52.822,-61.167 -47.965,-99.422 2.906,-22.888 14.772,-45.237 34.278,-57.559 -2.561,12.173 -5.123,24.796 -2.416,36.937 4.32,19.38 20.88,33.269 31.12,50.281 9.033,15.008 13.143,32.925 11.554,50.369 6.889,-12.699 4.648,-28.317 0.812,-42.245 -4.526,-16.431 -11.249,-32.691 -22.828,-45.196 18.612,5.995 34.209,19.951 43.676,37.06 9.468,17.108 13.025,37.158 11.683,56.665 6.488,-20.111 16.365,-39.413 30.918,-54.735 14.552,-15.322 34.062,-26.44 55.078,-28.639 -13.614,5.722 -23.251,18.627 -28.035,32.599 -4.784,13.971 -5.279,29.027 -4.902,43.79 -1.077,-16.071 5.355,-32.489 17.063,-43.549 6.595,-6.232 14.604,-10.715 22.126,-15.789 24.605,-16.601 45.365,-42.417 46.495,-72.077 22.606,22.199 30.461,58.146 19.174,87.75 7.002,-14.793 8.531,-31.734 6.77,-48.006 -1.762,-16.271 -6.661,-32.031 -12.044,-47.487 27.583,19.02 42.858,54.433 37.762,87.548 -1.556,10.106 -4.823,19.866 -8.381,29.452 -3.605,9.714 -7.589,19.431 -13.763,27.752 -6.174,8.321 -14.814,15.217 -24.943,17.4"
         style="fill:#c69c6d;fill-opacity:1;fill-rule:nonzero;stroke:#794039;stroke-width:4.5170002;stroke-linecap:round;stroke-linejoin:round;stroke-miterlimit:10;stroke-dasharray:none;stroke-opacity:1"
         id="path1070"
         inkscape:connector-curvature="0" />
    </g>
  </g>
</svg>
