<?xml version="1.0" encoding="UTF-8" standalone="no"?>
<!-- Created with Inkscape (http://www.inkscape.org/) -->

<svg
   xmlns:dc="http://purl.org/dc/elements/1.1/"
   xmlns:cc="http://creativecommons.org/ns#"
   xmlns:rdf="http://www.w3.org/1999/02/22-rdf-syntax-ns#"
   xmlns:svg="http://www.w3.org/2000/svg"
   xmlns="http://www.w3.org/2000/svg"
   xmlns:sodipodi="http://sodipodi.sourceforge.net/DTD/sodipodi-0.dtd"
   xmlns:inkscape="http://www.inkscape.org/namespaces/inkscape"
   width="165.83122mm"
   height="244.80559mm"
   viewBox="0 0 165.83122 244.80559"
   version="1.1"
   id="svg12588"
   inkscape:version="0.92.4 (unknown)"
   sodipodi:docname="ninja.svg">
  <defs
     id="defs12582" />
  <sodipodi:namedview
     id="base"
     pagecolor="#ffffff"
     bordercolor="#666666"
     borderopacity="1.0"
     inkscape:pageopacity="0.0"
     inkscape:pageshadow="2"
     inkscape:zoom="0.35"
     inkscape:cx="-329.47532"
     inkscape:cy="159.76757"
     inkscape:document-units="mm"
     inkscape:current-layer="layer1"
     showgrid="false"
     inkscape:window-width="1920"
     inkscape:window-height="1016"
     inkscape:window-x="0"
     inkscape:window-y="27"
     inkscape:window-maximized="1" />
  <metadata
     id="metadata12585">
    <rdf:RDF>
      <cc:Work
         rdf:about="">
        <dc:format>image/svg+xml</dc:format>
        <dc:type
           rdf:resource="http://purl.org/dc/dcmitype/StillImage" />
        <dc:title></dc:title>
      </cc:Work>
    </rdf:RDF>
  </metadata>
  <g
     inkscape:label="Layer 1"
     inkscape:groupmode="layer"
     id="layer1"
     transform="translate(-38.792725,53.700414)">
    <g
       transform="matrix(0.35277777,0,0,-0.35277777,-435.04037,297.44916)"
       id="g7056">
      <g
         transform="translate(1789.2156,757.7264)"
         id="g600">
        <path
           inkscape:connector-curvature="0"
           id="path602"
           style="fill:#333333;fill-opacity:1;fill-rule:nonzero;stroke:none"
           d="m 0,0 -0.251,-0.189 c -19.951,-15.004 -179.144,-137.471 -240.91,-217.338 -4.095,-5.295 -5.988,-11.962 -5.294,-18.619 l 2.106,-20.206 c 55.868,87.468 236.12,224.343 256.491,239.664 l 0.318,0.239 -12.479,16.435 6.24,-8.218 z" />
      </g>
      <g
         transform="translate(1789.2156,757.7264)"
         id="g604">
        <path
           inkscape:connector-curvature="0"
           id="path606"
           style="fill:none;stroke:#794039;stroke-width:4.59700012;stroke-linecap:round;stroke-linejoin:round;stroke-miterlimit:10;stroke-dasharray:none;stroke-opacity:1"
           d="m 0,0 -0.251,-0.189 c -19.951,-15.004 -179.144,-137.471 -240.91,-217.338 -4.095,-5.295 -5.988,-11.962 -5.294,-18.619 l 2.106,-20.206 c 55.868,87.468 236.12,224.343 256.491,239.664 l 0.318,0.239 -12.479,16.435 6.24,-8.218 z" />
      </g>
      <g
         transform="translate(1811.0743,742.6973)"
         id="g608">
        <path
           inkscape:connector-curvature="0"
           id="path610"
           style="fill:#333333;fill-opacity:1;fill-rule:nonzero;stroke:none"
           d="m 0,0 -15.087,19.871 -75.421,-57.263 15.087,-19.871 z" />
      </g>
      <g
         transform="translate(1811.0743,742.6973)"
         id="g612">
        <path
           inkscape:connector-curvature="0"
           id="path614"
           style="fill:none;stroke:#794039;stroke-width:4.29500008;stroke-linecap:round;stroke-linejoin:round;stroke-miterlimit:10;stroke-dasharray:none;stroke-opacity:1"
           d="m 0,0 -15.087,19.871 -75.421,-57.263 15.087,-19.871 z" />
      </g>
      <g
         transform="translate(1750.0525,684.4584)"
         id="g616">
        <path
           inkscape:connector-curvature="0"
           id="path618"
           style="fill:#333333;fill-opacity:1;fill-rule:nonzero;stroke:none"
           d="M 0,0 -26.558,34.979 -35.221,28.401 -8.664,-6.578 Z" />
      </g>
      <g
         transform="translate(1750.0525,684.4584)"
         id="g620">
        <path
           inkscape:connector-curvature="0"
           id="path622"
           style="fill:none;stroke:#794039;stroke-width:4.29500008;stroke-linecap:round;stroke-linejoin:round;stroke-miterlimit:10;stroke-dasharray:none;stroke-opacity:1"
           d="M 0,0 -26.558,34.979 -35.221,28.401 -8.664,-6.578 Z" />
      </g>
      <g
         transform="translate(1633.9235,565.7385)"
         id="g624">
        <path
           inkscape:connector-curvature="0"
           id="path626"
           style="fill:#4d4d4d;fill-opacity:1;fill-rule:nonzero;stroke:none"
           d="m 0,0 c -5.098,0.974 -11.068,-1.709 -15.145,-5.275 -8.095,-7.08 -12.9,-16.924 -17.505,-26.502 -4.416,-9.184 -7.071,4.572 -7.75,-5.594 -0.699,-10.455 -7.457,-45.167 -9.04,-55.547 -3.108,-20.377 -6.241,-40.755 -9.722,-61.072 -2.675,-15.611 -5.189,-31.255 -8.389,-46.77 -1.6,-7.757 -3.365,-15.482 -5.414,-23.135 -1.548,-5.78 -4.727,-11.001 -7.304,-16.374 -2.336,-4.869 -5.617,-9.252 0.517,-12.759 5.512,-3.151 12.173,-4.369 18.488,-4.13 5.518,0.209 14.225,1.626 18.457,5.216 12.298,10.448 17.108,24.909 20.345,39.308 6.66,29.615 13.822,58.435 21.394,87.663 4.683,18.078 19.062,86.363 15.792,105.151 -0.948,5.444 -3.623,8.915 -6.771,13.525 -1.094,1.602 -2.215,3.233 -3.768,4.43 C 2.911,-0.884 1.493,-0.285 0,0" />
      </g>
      <g
         transform="translate(1633.9235,565.7385)"
         id="g628">
        <path
           inkscape:connector-curvature="0"
           id="path630"
           style="fill:none;stroke:#794039;stroke-width:4.76300001;stroke-linecap:round;stroke-linejoin:round;stroke-miterlimit:10;stroke-dasharray:none;stroke-opacity:1"
           d="m 0,0 c -5.098,0.974 -11.068,-1.709 -15.145,-5.275 -8.095,-7.08 -12.9,-16.924 -17.505,-26.502 -4.416,-9.184 -7.071,4.572 -7.75,-5.594 -0.699,-10.455 -7.457,-45.167 -9.04,-55.547 -3.108,-20.377 -6.241,-40.755 -9.722,-61.072 -2.675,-15.611 -5.189,-31.255 -8.389,-46.77 -1.6,-7.757 -3.365,-15.482 -5.414,-23.135 -1.548,-5.78 -4.727,-11.001 -7.304,-16.374 -2.336,-4.869 -5.617,-9.252 0.517,-12.759 5.512,-3.151 12.173,-4.369 18.488,-4.13 5.518,0.209 14.225,1.626 18.457,5.216 12.298,10.448 17.108,24.909 20.345,39.308 6.66,29.615 13.822,58.435 21.394,87.663 4.683,18.078 19.062,86.363 15.792,105.151 -0.948,5.444 -3.623,8.915 -6.771,13.525 -1.094,1.602 -2.215,3.233 -3.768,4.43 C 2.911,-0.884 1.493,-0.285 0,0 Z" />
      </g>
      <g
         transform="translate(1601.9163,341.0907)"
         id="g632">
        <path
           inkscape:connector-curvature="0"
           id="path634"
           style="fill:#333333;fill-opacity:1;fill-rule:nonzero;stroke:none"
           d="m 0,0 c -1.067,0.294 -2.344,0.362 -3.859,0.149 -8.389,-1.175 -16.469,-4.498 -23.258,-9.565 -2.089,4.993 -6.109,9.149 -11.03,11.403 -4.479,-6.751 -22.502,-26.192 -9.694,-32.318 3.242,-1.551 7.246,-1.086 10.312,0.788 -1.99,-1.202 -1.677,-4.455 0.069,-5.991 1.745,-1.536 4.265,-1.767 6.59,-1.721 11.933,0.24 23.645,6.298 30.998,15.675 C 4.408,-16.122 7.727,-2.128 0,0" />
      </g>
      <g
         transform="translate(1601.9163,341.0907)"
         id="g636">
        <path
           inkscape:connector-curvature="0"
           id="path638"
           style="fill:none;stroke:#794039;stroke-width:4.76300001;stroke-linecap:round;stroke-linejoin:round;stroke-miterlimit:10;stroke-dasharray:none;stroke-opacity:1"
           d="m 0,0 c -1.067,0.294 -2.344,0.362 -3.859,0.149 -8.389,-1.175 -16.469,-4.498 -23.258,-9.565 -2.089,4.993 -6.109,9.149 -11.03,11.403 -4.479,-6.751 -22.502,-26.192 -9.694,-32.318 3.242,-1.551 7.246,-1.086 10.312,0.788 -1.99,-1.202 -1.677,-4.455 0.069,-5.991 1.745,-1.536 4.265,-1.767 6.59,-1.721 11.933,0.24 23.645,6.298 30.998,15.675 C 4.408,-16.122 7.727,-2.128 0,0 Z" />
      </g>
      <g
         transform="translate(1633.9235,565.7385)"
         id="g640">
        <path
           inkscape:connector-curvature="0"
           id="path642"
           style="fill:#333333;fill-opacity:1;fill-rule:nonzero;stroke:none"
           d="m 0,0 c -5.098,0.974 -11.068,-1.709 -15.145,-5.275 -6.387,-5.586 -9.263,-12.897 -14.316,-19.395 -24.02,-30.888 -34.808,-73.334 -46.266,-110.073 -0.986,-3.162 -1.947,-6.714 -0.44,-9.664 0.877,-1.716 2.467,-2.941 3.657,-4.457 2.65,-3.373 3.111,-8.317 1.132,-12.122 0.495,0.951 4.556,-4.762 4.772,-5.268 1.216,-2.85 1.145,-5.887 0.64,-8.868 -1.057,-6.246 -1.486,-12.999 -3.961,-18.963 15.471,-6.588 32.024,-10.629 48.791,-11.909 1.06,7.659 2.508,18.408 9.007,23.466 0.972,0.757 2.136,1.542 2.295,2.764 0.155,1.19 -0.725,2.239 -1.089,3.382 -0.779,2.441 0.896,5.028 2.942,6.57 2.045,1.542 4.517,2.489 6.417,4.206 3.735,3.376 4.466,8.869 4.986,13.876 1.471,14.151 3.132,28.298 5.774,42.278 2.597,13.747 6.141,27.32 8.147,41.165 2.467,17.03 0.26,31.925 -2.619,48.467 -0.948,5.444 -3.623,8.915 -6.771,13.525 -1.094,1.602 -2.215,3.233 -3.768,4.43 C 2.911,-0.884 1.493,-0.285 0,0" />
      </g>
      <g
         transform="translate(1633.9235,565.7385)"
         id="g644">
        <path
           inkscape:connector-curvature="0"
           id="path646"
           style="fill:none;stroke:#794039;stroke-width:4.76300001;stroke-linecap:round;stroke-linejoin:round;stroke-miterlimit:10;stroke-dasharray:none;stroke-opacity:1"
           d="m 0,0 c -5.098,0.974 -11.068,-1.709 -15.145,-5.275 -6.387,-5.586 -9.263,-12.897 -14.316,-19.395 -24.02,-30.888 -34.808,-73.334 -46.266,-110.073 -0.986,-3.162 -1.947,-6.714 -0.44,-9.664 0.877,-1.716 2.467,-2.941 3.657,-4.457 2.65,-3.373 3.111,-8.317 1.132,-12.122 0.495,0.951 4.556,-4.762 4.772,-5.268 1.216,-2.85 1.145,-5.887 0.64,-8.868 -1.057,-6.246 -1.486,-12.999 -3.961,-18.963 15.471,-6.588 32.024,-10.629 48.791,-11.909 1.06,7.659 2.508,18.408 9.007,23.466 0.972,0.757 2.136,1.542 2.295,2.764 0.155,1.19 -0.725,2.239 -1.089,3.382 -0.779,2.441 0.896,5.028 2.942,6.57 2.045,1.542 4.517,2.489 6.417,4.206 3.735,3.376 4.466,8.869 4.986,13.876 1.471,14.151 3.132,28.298 5.774,42.278 2.597,13.747 6.141,27.32 8.147,41.165 2.467,17.03 0.26,31.925 -2.619,48.467 -0.948,5.444 -3.623,8.915 -6.771,13.525 -1.094,1.602 -2.215,3.233 -3.768,4.43 C 2.911,-0.884 1.493,-0.285 0,0 Z" />
      </g>
      <g
         transform="translate(1733.2291,518.954)"
         id="g648">
        <path
           inkscape:connector-curvature="0"
           id="path650"
           style="fill:#333333;fill-opacity:1;fill-rule:nonzero;stroke:#794039;stroke-width:4.76300001;stroke-linecap:round;stroke-linejoin:round;stroke-miterlimit:10;stroke-dasharray:none;stroke-opacity:1"
           d="m 0,0 c 0.393,-6.907 0.786,-13.814 1.18,-20.721 0.18,-3.161 0.47,-6.615 2.442,-8.875 1.972,-2.261 6.207,-1.963 6.846,1.122 2.255,2.03 3.396,2.494 4.52,5.312" />
      </g>
      <g
         transform="translate(1688.0295,557.1578)"
         id="g652">
        <path
           inkscape:connector-curvature="0"
           id="path654"
           style="fill:#4d4d4d;fill-opacity:1;fill-rule:nonzero;stroke:none"
           d="m 0,0 c 0.713,0.571 1.457,1.112 2.237,1.618 5.851,3.799 14.218,5.175 20.079,1.666 6.961,-4.168 11.528,-13.014 11.407,-20.59 -0.453,-28.427 -2.409,-95.549 -2.414,-134.318 -0.002,-14.252 -0.162,-28.512 0.354,-42.746 0.258,-7.116 0.68,-14.226 1.386,-21.308 0.533,-5.348 2.719,-10.41 4.305,-15.528 1.438,-4.639 3.86,-8.968 -2.589,-11.3 -5.796,-2.096 -12.374,-2.322 -18.38,-1.294 -5.25,0.899 -13.354,3.284 -16.816,7.029 -10.061,10.893 -12.292,24.396 -13.028,37.641 -1.514,27.241 -3.64,53.84 -6.091,80.853 -1.517,16.709 -4.074,79.394 2.142,95.709 C -14.219,-14.199 -7.235,-5.997 0,0" />
      </g>
      <g
         transform="translate(1688.0295,557.1578)"
         id="g656">
        <path
           inkscape:connector-curvature="0"
           id="path658"
           style="fill:none;stroke:#794039;stroke-width:4.76300001;stroke-linecap:round;stroke-linejoin:round;stroke-miterlimit:10;stroke-dasharray:none;stroke-opacity:1"
           d="m 0,0 c 0.713,0.571 1.457,1.112 2.237,1.618 5.851,3.799 14.218,5.175 20.079,1.666 6.961,-4.168 11.528,-13.014 11.407,-20.59 -0.453,-28.427 -2.409,-95.549 -2.414,-134.318 -0.002,-14.252 -0.162,-28.512 0.354,-42.746 0.258,-7.116 0.68,-14.226 1.386,-21.308 0.533,-5.348 2.719,-10.41 4.305,-15.528 1.438,-4.639 3.86,-8.968 -2.589,-11.3 -5.796,-2.096 -12.374,-2.322 -18.38,-1.294 -5.25,0.899 -13.354,3.284 -16.816,7.029 -10.061,10.893 -12.292,24.396 -13.028,37.641 -1.514,27.241 -3.64,53.84 -6.091,80.853 -1.517,16.709 -4.074,79.394 2.142,95.709 C -14.219,-14.199 -7.235,-5.997 0,0 Z" />
      </g>
      <g
         transform="translate(1690.9304,344.7429)"
         id="g660">
        <path
           inkscape:connector-curvature="0"
           id="path662"
           style="fill:#333333;fill-opacity:1;fill-rule:nonzero;stroke:none"
           d="m 0,0 c 7.726,0.129 15.545,-2.757 20.901,-8.358 1.866,3.516 5.294,6.165 9.166,7.085 2.448,-5.61 4.649,-11.721 5.357,-17.827 0.357,-3.085 0.416,-6.105 -0.968,-8.955 -0.555,-1.142 -4.424,-6.675 -5.615,-3.149 -0.695,2.053 -1.389,4.107 -2.083,6.161 -0.232,-1.854 0.03,-3.804 -0.661,-5.54 -1.537,-3.863 -9.471,-1.34 -12.614,-0.802 -15.717,2.691 -25.847,10.865 -27.852,27.153 C -10.101,-1.467 -5.07,-0.084 0,0" />
      </g>
      <g
         transform="translate(1690.9304,344.7429)"
         id="g664">
        <path
           inkscape:connector-curvature="0"
           id="path666"
           style="fill:none;stroke:#794039;stroke-width:4.76300001;stroke-linecap:round;stroke-linejoin:round;stroke-miterlimit:10;stroke-dasharray:none;stroke-opacity:1"
           d="m 0,0 c 7.726,0.129 15.545,-2.757 20.901,-8.358 1.866,3.516 5.294,6.165 9.166,7.085 2.448,-5.61 4.649,-11.721 5.357,-17.827 0.357,-3.085 0.416,-6.105 -0.968,-8.955 -0.555,-1.142 -4.424,-6.675 -5.615,-3.149 -0.695,2.053 -1.389,4.107 -2.083,6.161 -0.232,-1.854 0.03,-3.804 -0.661,-5.54 -1.537,-3.863 -9.471,-1.34 -12.614,-0.802 -15.717,2.691 -25.847,10.865 -27.852,27.153 C -10.101,-1.467 -5.07,-0.084 0,0 Z" />
      </g>
      <g
         transform="translate(1698.1246,586.5536)"
         id="g668">
        <path
           inkscape:connector-curvature="0"
           id="path670"
           style="fill:#ecc2a1;fill-opacity:1;fill-rule:nonzero;stroke:none"
           d="m 0,0 c 0.607,-2.173 29.567,-38.153 24.339,-75.415 -5.228,-37.262 -132.721,0.831 -126.895,23.036 5.713,21.775 17.795,58.638 24.258,68.155 C -71.835,25.292 -5.12,18.329 0,0" />
      </g>
      <g
         transform="translate(1698.1246,586.5536)"
         id="g672">
        <path
           inkscape:connector-curvature="0"
           id="path674"
           style="fill:none;stroke:#794039;stroke-width:4.76300001;stroke-linecap:round;stroke-linejoin:round;stroke-miterlimit:10;stroke-dasharray:none;stroke-opacity:1"
           d="m 0,0 c 0.607,-2.173 29.567,-38.153 24.339,-75.415 -5.228,-37.262 -132.721,0.831 -126.895,23.036 5.713,21.775 17.795,58.638 24.258,68.155 C -71.835,25.292 -5.12,18.329 0,0 Z" />
      </g>
      <g
         transform="translate(1688.0295,557.1578)"
         id="g676">
        <path
           inkscape:connector-curvature="0"
           id="path678"
           style="fill:#333333;fill-opacity:1;fill-rule:nonzero;stroke:none"
           d="m 0,0 c 0.713,0.571 1.457,1.112 2.237,1.618 5.851,3.799 14.218,5.175 20.079,1.666 8.724,-5.223 11.758,-15.332 12.478,-24.779 0.925,-12.122 1.902,-24.242 3.134,-36.337 2.458,-24.133 5.932,-48.226 12.028,-71.733 0.891,-3.436 1.828,-7.13 0.59,-10.456 -0.993,-2.665 -3.227,-4.64 -5.378,-6.499 -2.905,-2.51 -6.656,-4.859 -8.213,-8.273 -1.875,-4.112 -2.347,-9.783 -3.453,-14.204 -0.446,-1.781 -0.683,-4.105 0.899,-5.036 0.316,-0.186 0.719,-0.336 0.811,-0.691 0.075,-0.287 -0.099,-0.577 -0.282,-0.811 -2.647,-3.38 -3.855,-3.706 -3.454,-8.101 0.101,-1.105 2.107,-8.974 1.254,-9.306 -4.569,-1.779 -8.327,-1.204 -12.976,-1.389 -11.855,-0.472 -23.082,-0.713 -34.787,1.841 1.105,3.865 1.779,7.852 2.007,11.866 -2.66,1.159 -4.994,3.054 -6.676,5.419 2.647,2.647 3.445,6.969 1.917,10.387 -0.884,1.978 -2.049,5.011 0.011,5.681 -2.498,3.742 -5.668,7.034 -9.313,9.672 -0.929,0.672 -1.929,1.347 -2.441,2.373 -0.395,0.792 -0.451,1.703 -0.499,2.587 -1.081,20.034 -1.222,40.119 -0.423,60.166 0.629,15.795 1.912,31.746 6.185,47.028 C -19.871,-21.597 -12.535,-10.39 0,0" />
      </g>
      <g
         transform="translate(1688.0295,557.1578)"
         id="g680">
        <path
           inkscape:connector-curvature="0"
           id="path682"
           style="fill:none;stroke:#794039;stroke-width:4.76300001;stroke-linecap:round;stroke-linejoin:round;stroke-miterlimit:10;stroke-dasharray:none;stroke-opacity:1"
           d="m 0,0 c 0.713,0.571 1.457,1.112 2.237,1.618 5.851,3.799 14.218,5.175 20.079,1.666 8.724,-5.223 11.758,-15.332 12.478,-24.779 0.925,-12.122 1.902,-24.242 3.134,-36.337 2.458,-24.133 5.932,-48.226 12.028,-71.733 0.891,-3.436 1.828,-7.13 0.59,-10.456 -0.993,-2.665 -3.227,-4.64 -5.378,-6.499 -2.905,-2.51 -6.656,-4.859 -8.213,-8.273 -1.875,-4.112 -2.347,-9.783 -3.453,-14.204 -0.446,-1.781 -0.683,-4.105 0.899,-5.036 0.316,-0.186 0.719,-0.336 0.811,-0.691 0.075,-0.287 -0.099,-0.577 -0.282,-0.811 -2.647,-3.38 -3.855,-3.706 -3.454,-8.101 0.101,-1.105 2.107,-8.974 1.254,-9.306 -4.569,-1.779 -8.327,-1.204 -12.976,-1.389 -11.855,-0.472 -23.082,-0.713 -34.787,1.841 1.105,3.865 1.779,7.852 2.007,11.866 -2.66,1.159 -4.994,3.054 -6.676,5.419 2.647,2.647 3.445,6.969 1.917,10.387 -0.884,1.978 -2.049,5.011 0.011,5.681 -2.498,3.742 -5.668,7.034 -9.313,9.672 -0.929,0.672 -1.929,1.347 -2.441,2.373 -0.395,0.792 -0.451,1.703 -0.499,2.587 -1.081,20.034 -1.222,40.119 -0.423,60.166 0.629,15.795 1.912,31.746 6.185,47.028 C -19.871,-21.597 -12.535,-10.39 0,0 Z" />
      </g>
      <g
         transform="translate(1650.0579,699.4142)"
         id="g684">
        <path
           inkscape:connector-curvature="0"
           id="path686"
           style="fill:#4d4d4d;fill-opacity:1;fill-rule:nonzero;stroke:none"
           d="m 0,0 c -7.76,3.582 -16.668,3.735 -24.674,0.743 -9.992,-3.734 -20.033,-6.412 -28.425,-12.754 -13.447,-10.162 -25.014,-25.571 -37.321,-37.519 -5.879,-5.707 -11.814,-11.748 -14.802,-19.377 -2.989,-7.629 -2.292,-17.299 3.796,-22.782 5.388,-4.853 13.67,-5.268 20.527,-2.913 6.858,2.354 12.629,7.033 18.242,11.623 C -52.766,-74.893 34.935,-14.192 0,0" />
      </g>
      <g
         transform="translate(1650.0579,699.4142)"
         id="g688">
        <path
           inkscape:connector-curvature="0"
           id="path690"
           style="fill:none;stroke:#794039;stroke-width:4.76300001;stroke-linecap:round;stroke-linejoin:round;stroke-miterlimit:10;stroke-dasharray:none;stroke-opacity:1"
           d="m 0,0 c -7.76,3.582 -16.668,3.735 -24.674,0.743 -9.992,-3.734 -20.033,-6.412 -28.425,-12.754 -13.447,-10.162 -25.014,-25.571 -37.321,-37.519 -5.879,-5.707 -11.814,-11.748 -14.802,-19.377 -2.989,-7.629 -2.292,-17.299 3.796,-22.782 5.388,-4.853 13.67,-5.268 20.527,-2.913 6.858,2.354 12.629,7.033 18.242,11.623 C -52.766,-74.893 34.935,-14.192 0,0 Z" />
      </g>
      <g
         transform="translate(1627.2596,682.9018)"
         id="g692">
        <path
           inkscape:connector-curvature="0"
           id="path694"
           style="fill:#333333;fill-opacity:1;fill-rule:nonzero;stroke:none"
           d="m 0,0 c -3.257,4.536 -7.083,8.739 -12.354,10.197 -6.256,1.732 -22.41,-4.79 -27.407,-9.417 -5.71,-5.285 -10.264,-12.945 -15.098,-19.056 -0.551,-0.696 -1.115,-1.419 -1.344,-2.276 -0.49,-1.832 0.654,-3.663 1.742,-5.216 7.259,-10.357 13.335,-18.042 24.097,-25.236 2.467,-1.648 5.218,-3.37 8.164,-3.016 6.637,0.797 13.752,11.904 18.705,16.146 4.886,4.185 17.399,10.687 15.721,18.534 -0.333,1.557 -1.233,2.924 -2.115,4.25 -2.595,3.9 -5.19,7.8 -7.785,11.7 C 1.577,-2.264 0.806,-1.122 0,0" />
      </g>
      <g
         transform="translate(1627.2596,682.9018)"
         id="g696">
        <path
           inkscape:connector-curvature="0"
           id="path698"
           style="fill:none;stroke:#794039;stroke-width:4.76300001;stroke-linecap:round;stroke-linejoin:round;stroke-miterlimit:10;stroke-dasharray:none;stroke-opacity:1"
           d="m 0,0 c -3.257,4.536 -7.083,8.739 -12.354,10.197 -6.256,1.732 -22.41,-4.79 -27.407,-9.417 -5.71,-5.285 -10.264,-12.945 -15.098,-19.056 -0.551,-0.696 -1.115,-1.419 -1.344,-2.276 -0.49,-1.832 0.654,-3.663 1.742,-5.216 7.259,-10.357 13.335,-18.042 24.097,-25.236 2.467,-1.648 5.218,-3.37 8.164,-3.016 6.637,0.797 13.752,11.904 18.705,16.146 4.886,4.185 17.399,10.687 15.721,18.534 -0.333,1.557 -1.233,2.924 -2.115,4.25 -2.595,3.9 -5.19,7.8 -7.785,11.7 C 1.577,-2.264 0.806,-1.122 0,0 Z" />
      </g>
      <g
         transform="translate(1685.895,702.1187)"
         id="g700">
        <path
           inkscape:connector-curvature="0"
           id="path702"
           style="fill:#4d4d4d;fill-opacity:1;fill-rule:nonzero;stroke:none"
           d="m 0,0 c 0.75,0.25 1.744,0.48 3.078,0.833 4.459,1.182 10.092,1.15 14.305,-0.98 13.369,-6.758 18.93,-28.016 23.103,-42.197 5.298,-18.007 8.844,-36.591 13.891,-54.683 4.264,-15.285 10.819,-30.03 14.254,-45.951 3.618,-16.769 5.783,-33.875 10.848,-50.309 0.98,-3.181 2.082,-6.466 1.639,-9.765 -0.642,-4.784 -8.514,-12.66 -11.358,-16.723 -2.315,-3.307 -5.747,-6.335 -9.784,-6.29 -4.3,5.617 -4.451,11.072 -6.362,17.369 -2.37,7.807 -6.9,15.143 -9.394,23.039 -4.824,15.278 -7.456,31.139 -9.961,46.929 -3.761,23.702 -10.624,46.489 -19.27,68.47 -6.408,16.293 -14.33,32.336 -16.869,50.143 -0.622,4.361 -1.185,9.102 -0.822,13.524 C -2.297,-1.67 -2.24,-0.746 0,0" />
      </g>
      <g
         transform="translate(1685.895,702.1187)"
         id="g704">
        <path
           inkscape:connector-curvature="0"
           id="path706"
           style="fill:none;stroke:#794039;stroke-width:4.76300001;stroke-linecap:round;stroke-linejoin:round;stroke-miterlimit:10;stroke-dasharray:none;stroke-opacity:1"
           d="m 0,0 c 0.75,0.25 1.744,0.48 3.078,0.833 4.459,1.182 10.092,1.15 14.305,-0.98 13.369,-6.758 18.93,-28.016 23.103,-42.197 5.298,-18.007 8.844,-36.591 13.891,-54.683 4.264,-15.285 10.819,-30.03 14.254,-45.951 3.618,-16.769 5.783,-33.875 10.848,-50.309 0.98,-3.181 2.082,-6.466 1.639,-9.765 -0.642,-4.784 -8.514,-12.66 -11.358,-16.723 -2.315,-3.307 -5.747,-6.335 -9.784,-6.29 -4.3,5.617 -4.451,11.072 -6.362,17.369 -2.37,7.807 -6.9,15.143 -9.394,23.039 -4.824,15.278 -7.456,31.139 -9.961,46.929 -3.761,23.702 -10.624,46.489 -19.27,68.47 -6.408,16.293 -14.33,32.336 -16.869,50.143 -0.622,4.361 -1.185,9.102 -0.822,13.524 C -2.297,-1.67 -2.24,-0.746 0,0 Z" />
      </g>
      <g
         transform="translate(1685.895,702.1187)"
         id="g708">
        <path
           inkscape:connector-curvature="0"
           id="path710"
           style="fill:#333333;fill-opacity:1;fill-rule:nonzero;stroke:none"
           d="m 0,0 c 0.75,0.25 1.744,0.48 3.078,0.833 4.459,1.182 10.092,1.15 14.305,-0.98 13.369,-6.758 18.93,-28.016 23.103,-42.197 1.132,-3.849 1.796,-8.092 3.561,-11.704 0.912,-1.866 3.778,-4.275 3.939,-6.378 0.394,-5.15 -11.981,-8.751 -15.882,-10.739 -3.363,-1.714 -6.887,-3.468 -10.661,-3.471 -5.38,-0.003 -6.91,2.964 -8.135,7.179 -1.496,5.151 -3.619,10.084 -5.638,15.118 -4.177,10.414 -7.96,21.07 -9.55,32.224 -0.622,4.361 -1.185,9.102 -0.822,13.524 C -2.297,-1.67 -2.24,-0.746 0,0" />
      </g>
      <g
         transform="translate(1685.895,702.1187)"
         id="g712">
        <path
           inkscape:connector-curvature="0"
           id="path714"
           style="fill:none;stroke:#794039;stroke-width:4.76300001;stroke-linecap:round;stroke-linejoin:round;stroke-miterlimit:10;stroke-dasharray:none;stroke-opacity:1"
           d="m 0,0 c 0.75,0.25 1.744,0.48 3.078,0.833 4.459,1.182 10.092,1.15 14.305,-0.98 13.369,-6.758 18.93,-28.016 23.103,-42.197 1.132,-3.849 1.796,-8.092 3.561,-11.704 0.912,-1.866 3.778,-4.275 3.939,-6.378 0.394,-5.15 -11.981,-8.751 -15.882,-10.739 -3.363,-1.714 -6.887,-3.468 -10.661,-3.471 -5.38,-0.003 -6.91,2.964 -8.135,7.179 -1.496,5.151 -3.619,10.084 -5.638,15.118 -4.177,10.414 -7.96,21.07 -9.55,32.224 -0.622,4.361 -1.185,9.102 -0.822,13.524 C -2.297,-1.67 -2.24,-0.746 0,0 Z" />
      </g>
      <g
         transform="translate(1753.8853,529.9069)"
         id="g716">
        <path
           inkscape:connector-curvature="0"
           id="path718"
           style="fill:#333333;fill-opacity:1;fill-rule:nonzero;stroke:none"
           d="m 0,0 c 1.076,0.179 2.157,0.184 3.219,-0.105 8.787,-2.386 4.778,-13.189 6.592,-19.234 0.89,-2.967 3.367,-5.161 3.649,-8.348 0.69,-7.822 -7.657,-14.114 -11.69,-19.876 -2.315,-3.308 -5.747,-6.335 -9.784,-6.29 -4.3,5.617 -4.451,11.071 -6.362,17.369 -1.555,5.121 -12.437,21.018 -9.208,25.625 1.124,1.602 3.014,2.451 4.812,3.225 4.679,2.017 9.358,4.034 14.038,6.051 C -3.218,-0.93 -1.614,-0.269 0,0" />
      </g>
      <g
         transform="translate(1753.8853,529.9069)"
         id="g720">
        <path
           inkscape:connector-curvature="0"
           id="path722"
           style="fill:none;stroke:#794039;stroke-width:4.76300001;stroke-linecap:round;stroke-linejoin:round;stroke-miterlimit:10;stroke-dasharray:none;stroke-opacity:1"
           d="m 0,0 c 1.076,0.179 2.157,0.184 3.219,-0.105 8.787,-2.386 4.778,-13.189 6.592,-19.234 0.89,-2.967 3.367,-5.161 3.649,-8.348 0.69,-7.822 -7.657,-14.114 -11.69,-19.876 -2.315,-3.308 -5.747,-6.335 -9.784,-6.29 -4.3,5.617 -4.451,11.071 -6.362,17.369 -1.555,5.121 -12.437,21.018 -9.208,25.625 1.124,1.602 3.014,2.451 4.812,3.225 4.679,2.017 9.358,4.034 14.038,6.051 C -3.218,-0.93 -1.614,-0.269 0,0 Z" />
      </g>
      <g
         transform="translate(1682.8016,708.3777)"
         id="g724">
        <path
           inkscape:connector-curvature="0"
           id="path726"
           style="fill:#4d4d4d;fill-opacity:1;fill-rule:nonzero;stroke:none"
           d="m 0,0 c -3.931,0.733 -7.908,0.874 -11.84,0.072 0.977,2.363 -4.306,24.839 -1.505,25.247 -10.691,-1.81 -21.415,-3.431 -32.164,-4.861 -0.747,-6.785 -0.968,-13.628 -0.66,-20.447 0.065,-1.443 0.142,-2.949 -0.452,-4.265 -1.893,-4.188 -14.854,-5.538 -18.991,-6.887 -4.438,-1.447 -9.65,-2.782 -13.482,-5.578 -9.931,-7.247 11.403,-52.544 15.176,-86.5 14.776,-3.69 29.478,-7.665 44.297,-11.183 9.617,-2.283 36.545,-12.946 43.673,-2.656 1.958,2.827 2.651,6.314 3.299,9.691 2.03,10.574 4.06,21.149 6.09,31.723 2.485,12.943 1.632,22.926 -1.174,35.553 -1.963,8.835 -4.186,24.47 -10.841,31.002 -1.785,1.752 -4.077,2.88 -6.35,3.925 C 10.273,-2.956 5.177,-0.965 0,0" />
      </g>
      <g
         transform="translate(1682.8016,708.3777)"
         id="g728">
        <path
           inkscape:connector-curvature="0"
           id="path730"
           style="fill:none;stroke:#794039;stroke-width:4.76300001;stroke-linecap:round;stroke-linejoin:round;stroke-miterlimit:10;stroke-dasharray:none;stroke-opacity:1"
           d="m 0,0 c -3.931,0.733 -7.908,0.874 -11.84,0.072 0.977,2.363 -4.306,24.839 -1.505,25.247 -10.691,-1.81 -21.415,-3.431 -32.164,-4.861 -0.747,-6.785 -0.968,-13.628 -0.66,-20.447 0.065,-1.443 0.142,-2.949 -0.452,-4.265 -1.893,-4.188 -14.854,-5.538 -18.991,-6.887 -4.438,-1.447 -9.65,-2.782 -13.482,-5.578 -9.931,-7.247 11.403,-52.544 15.176,-86.5 14.776,-3.69 29.478,-7.665 44.297,-11.183 9.617,-2.283 36.545,-12.946 43.673,-2.656 1.958,2.827 2.651,6.314 3.299,9.691 2.03,10.574 4.06,21.149 6.09,31.723 2.485,12.943 1.632,22.926 -1.174,35.553 -1.963,8.835 -4.186,24.47 -10.841,31.002 -1.785,1.752 -4.077,2.88 -6.35,3.925 C 10.273,-2.956 5.177,-0.965 0,0 Z" />
      </g>
      <g
         transform="translate(1740.2556,484.3257)"
         id="g732">
        <path
           inkscape:connector-curvature="0"
           id="path734"
           style="fill:#333333;fill-opacity:1;fill-rule:nonzero;stroke:none"
           d="m 0,0 c -8.169,-4.207 -18.52,-6.219 -27.273,-9.005 -9.446,-3 -20.658,-8.54 -30.701,-7.892 -2.188,27.405 -4.376,54.817 -6.565,82.222 -2.792,-27.431 -7.15,-54.697 -13.042,-81.631 -28.393,12.508 -58.942,19.683 -87.304,32.939 8.597,19.255 16.961,38.611 25.092,58.074 3.049,7.301 6.093,13.961 8.439,20.545 2.044,5.716 3.559,11.376 4.113,17.362 0.534,5.666 0.201,11.622 -1.371,18.187 -5.729,23.94 -10.578,48.094 -14.539,72.387 -5.013,2.685 -10.131,5.15 -15.175,7.766 15.049,3.251 30.097,6.502 45.146,9.76 1.477,0.32 3.037,0.635 4.483,0.182 1.145,-0.358 2.094,-1.17 3,-1.962 9.017,-7.848 23.412,-15.52 29.178,-26.273 5.666,10.772 11.339,21.544 17.004,32.316 0.743,-0.138 1.484,-0.276 2.227,-0.415 17.532,-3.257 34.951,-7.118 52.213,-11.577 -3.842,-5.458 -9.779,-9.407 -16.306,-10.829 0.667,-15.375 0.459,-30.788 -0.635,-46.132 -0.843,-11.936 -5.056,-22.947 -6.723,-34.889 -0.798,-5.697 -1.597,-11.426 -1.584,-17.174 0,-0.798 0.019,-1.591 0.057,-2.389 0.232,-5.239 1.219,-10.357 2.647,-15.388 1.93,-6.855 4.666,-13.546 7.376,-20.142 C -13.112,48.704 -4.805,31.914 2.082,14.464 4.861,7.408 7.508,3.867 0,0" />
      </g>
      <g
         transform="translate(1740.2556,484.3257)"
         id="g736">
        <path
           inkscape:connector-curvature="0"
           id="path738"
           style="fill:none;stroke:#794039;stroke-width:4.76300001;stroke-linecap:round;stroke-linejoin:round;stroke-miterlimit:10;stroke-dasharray:none;stroke-opacity:1"
           d="m 0,0 c -8.169,-4.207 -18.52,-6.219 -27.273,-9.005 -9.446,-3 -20.658,-8.54 -30.701,-7.892 -2.188,27.405 -4.376,54.817 -6.565,82.222 -2.792,-27.431 -7.15,-54.697 -13.042,-81.631 -28.393,12.508 -58.942,19.683 -87.304,32.939 8.597,19.255 16.961,38.611 25.092,58.074 3.049,7.301 6.093,13.961 8.439,20.545 2.044,5.716 3.559,11.376 4.113,17.362 0.534,5.666 0.201,11.622 -1.371,18.187 -5.729,23.94 -10.578,48.094 -14.539,72.387 -5.013,2.685 -10.131,5.15 -15.175,7.766 15.049,3.251 30.097,6.502 45.146,9.76 1.477,0.32 3.037,0.635 4.483,0.182 1.145,-0.358 2.094,-1.17 3,-1.962 9.017,-7.848 23.412,-15.52 29.178,-26.273 5.666,10.772 11.339,21.544 17.004,32.316 0.743,-0.138 1.484,-0.276 2.227,-0.415 17.532,-3.257 34.951,-7.118 52.213,-11.577 -3.842,-5.458 -9.779,-9.407 -16.306,-10.829 0.667,-15.375 0.459,-30.788 -0.635,-46.132 -0.843,-11.936 -5.056,-22.947 -6.723,-34.889 -0.798,-5.697 -1.597,-11.426 -1.584,-17.174 0,-0.798 0.019,-1.591 0.057,-2.389 0.232,-5.239 1.219,-10.357 2.647,-15.388 1.93,-6.855 4.666,-13.546 7.376,-20.142 C -13.112,48.704 -4.805,31.914 2.082,14.464 4.861,7.408 7.508,3.867 0,0 Z" />
      </g>
      <g
         transform="translate(1796.348,825.2131)"
         id="g740">
        <path
           inkscape:connector-curvature="0"
           id="path742"
           style="fill:#ffdbc2;fill-opacity:1;fill-rule:nonzero;stroke:none"
           d="m 0,0 c -3.294,-76.814 -67.153,-111.186 -143.967,-107.893 -76.814,3.294 -137.495,43.008 -134.201,119.822 4.054,94.537 7.883,142.759 145.209,136.87 C 4.367,142.911 4.054,94.538 0,0" />
      </g>
      <g
         transform="translate(1796.348,825.2131)"
         id="g744">
        <path
           inkscape:connector-curvature="0"
           id="path746"
           style="fill:none;stroke:#794039;stroke-width:4.76300001;stroke-linecap:round;stroke-linejoin:round;stroke-miterlimit:10;stroke-dasharray:none;stroke-opacity:1"
           d="m 0,0 c -3.294,-76.814 -67.153,-111.186 -143.967,-107.893 -76.814,3.294 -137.495,43.008 -134.201,119.822 4.054,94.537 7.883,142.759 145.209,136.87 C 4.367,142.911 4.054,94.538 0,0 Z" />
      </g>
      <g
         transform="translate(1607.2052,799.3994)"
         id="g748">
        <path
           inkscape:connector-curvature="0"
           id="path750"
           style="fill:#794039;fill-opacity:1;fill-rule:nonzero;stroke:none"
           d="m 0,0 c -0.398,-9.288 -8.251,-16.495 -17.539,-16.097 -9.289,0.398 -16.496,8.251 -16.097,17.539 0.398,9.289 8.251,16.496 17.539,16.097 C -6.809,17.141 0.398,9.288 0,0" />
      </g>
      <g
         transform="translate(1587.62,767.4518)"
         id="g752">
        <path
           inkscape:connector-curvature="0"
           id="path754"
           style="fill:#faacae;fill-opacity:1;fill-rule:nonzero;stroke:none"
           d="m 0,0 c -0.452,-10.544 -9.366,-18.724 -19.91,-18.272 -10.543,0.452 -18.724,9.366 -18.272,19.909 0.452,10.544 9.366,18.725 19.91,18.273 C -7.729,19.457 0.452,10.544 0,0" />
      </g>
      <g
         transform="translate(1709.0236,795.0332)"
         id="g756">
        <path
           inkscape:connector-curvature="0"
           id="path758"
           style="fill:#794039;fill-opacity:1;fill-rule:nonzero;stroke:none"
           d="m 0,0 c -0.398,-9.288 6.808,-17.141 16.097,-17.539 9.288,-0.399 17.141,6.808 17.539,16.097 C 34.035,7.846 26.828,15.699 17.539,16.097 8.251,16.495 0.398,9.288 0,0" />
      </g>
      <g
         transform="translate(1725.8434,762.4947)"
         id="g760">
        <path
           inkscape:connector-curvature="0"
           id="path762"
           style="fill:#faacae;fill-opacity:1;fill-rule:nonzero;stroke:none"
           d="m 0,0 c -0.429,-10.009 7.337,-18.47 17.345,-18.9 10.009,-0.429 18.471,7.337 18.9,17.346 C 36.674,8.454 28.908,16.916 18.9,17.345 8.891,17.775 0.429,10.009 0,0" />
      </g>
      <g
         transform="translate(1611.0654,824.0707)"
         id="g764">
        <path
           inkscape:connector-curvature="0"
           id="path766"
           style="fill:#794039;fill-opacity:1;fill-rule:nonzero;stroke:none"
           d="M 0,0 C 0,0 -0.173,0.116 -0.497,0.334 -0.8,0.546 -1.244,0.857 -1.809,1.253 -2.345,1.64 -2.996,2.109 -3.743,2.648 -4.48,3.174 -5.257,3.789 -6.129,4.42 c -0.83,0.671 -1.783,1.322 -2.74,2.048 -0.493,0.345 -1.018,0.674 -1.539,1.024 -0.256,0.18 -0.515,0.362 -0.777,0.547 -0.273,0.164 -0.55,0.331 -0.829,0.499 -0.551,0.344 -1.114,0.686 -1.665,1.066 -0.582,0.328 -1.171,0.66 -1.765,0.995 -1.151,0.749 -2.446,1.265 -3.702,1.888 -0.616,0.346 -1.299,0.521 -1.95,0.784 -0.66,0.245 -1.318,0.49 -1.971,0.733 -1.357,0.365 -2.693,0.723 -3.986,1.071 -1.328,0.204 -2.621,0.429 -3.86,0.647 -0.618,0.14 -1.228,0.127 -1.819,0.183 -0.593,0.048 -1.166,0.161 -1.717,0.205 -1.105,0.083 -2.132,0.225 -3.036,0.225 h -2.367 c -1.332,0 -2.093,-0.031 -2.093,-0.031 0,0 0.714,0.206 1.989,0.595 0.643,0.187 1.424,0.399 2.32,0.66 0.897,0.299 1.936,0.447 3.08,0.619 1.143,0.154 2.389,0.438 3.723,0.484 1.333,0.043 2.754,0.099 4.231,0.101 1.463,-0.145 2.999,-0.247 4.55,-0.456 0.766,-0.168 1.539,-0.338 2.313,-0.507 0.771,-0.193 1.578,-0.296 2.327,-0.586 1.503,-0.55 3.074,-0.977 4.48,-1.726 0.713,-0.349 1.431,-0.684 2.109,-1.067 0.663,-0.408 1.299,-0.845 1.927,-1.267 1.271,-0.824 2.312,-1.877 3.339,-2.792 0.932,-1.028 1.862,-1.935 2.535,-2.945 0.722,-0.959 1.266,-1.93 1.7,-2.808 C -0.899,3.722 -0.608,2.907 -0.404,2.227 -0.208,1.541 -0.098,0.984 -0.049,0.595 0.002,0.211 0,0 0,0" />
      </g>
      <g
         transform="translate(1705.2517,820.0665)"
         id="g768">
        <path
           inkscape:connector-curvature="0"
           id="path770"
           style="fill:#794039;fill-opacity:1;fill-rule:nonzero;stroke:none"
           d="m 0,0 c 0,0 0.071,0.899 0.566,2.313 0.492,1.411 1.382,3.364 2.916,5.379 0.75,1.022 1.681,2.029 2.702,3.068 1.033,1.026 2.202,2.037 3.494,2.981 1.307,0.922 2.718,1.805 4.249,2.522 1.512,0.753 3.139,1.329 4.761,1.871 1.653,0.464 3.317,0.868 4.981,1.096 0.415,0.058 0.828,0.116 1.239,0.174 0.413,0.04 0.827,0.057 1.235,0.085 0.816,0.069 1.623,0.083 2.415,0.068 0.791,0.012 1.566,-0.019 2.321,-0.098 0.377,-0.032 0.749,-0.063 1.117,-0.094 0.365,-0.055 0.725,-0.108 1.081,-0.161 1.422,-0.171 2.731,-0.524 3.93,-0.81 1.183,-0.374 2.271,-0.657 3.19,-1.057 0.925,-0.372 1.732,-0.667 2.365,-1.001 1.278,-0.627 1.988,-1 1.988,-1 0,0 -0.794,0.129 -2.185,0.357 -0.681,0.144 -1.538,0.195 -2.488,0.332 -0.95,0.151 -2.046,0.152 -3.205,0.266 -1.175,0.007 -2.432,0.064 -3.753,-0.02 -0.329,-0.014 -0.662,-0.028 -1,-0.042 -0.336,-0.037 -0.675,-0.074 -1.018,-0.111 -0.685,-0.071 -1.381,-0.131 -2.08,-0.265 -0.702,-0.099 -1.409,-0.227 -2.114,-0.405 -0.71,-0.147 -1.416,-0.34 -2.123,-0.543 C 23.166,14.523 21.776,13.978 20.413,13.404 17.691,12.218 15.177,10.663 12.841,9.156 12.269,8.759 11.675,8.411 11.134,8.008 10.566,7.643 10.031,7.253 9.506,6.874 8.447,6.127 7.48,5.363 6.563,4.668 4.736,3.273 3.116,2.114 1.935,1.291 0.756,0.469 0,0 0,0" />
      </g>
      <g
         transform="translate(1651.5365,761.285)"
         id="g772">
        <path
           inkscape:connector-curvature="0"
           id="path774"
           style="fill:none;stroke:#794039;stroke-width:2.83100009;stroke-linecap:round;stroke-linejoin:round;stroke-miterlimit:10;stroke-dasharray:none;stroke-opacity:1"
           d="M 0,0 C 6.527,-1.097 13.271,-0.891 19.719,0.601" />
      </g>
      <g
         transform="translate(1580.3949,626.85)"
         id="g776">
        <path
           inkscape:connector-curvature="0"
           id="path778"
           style="fill:#4d4d4d;fill-opacity:1;fill-rule:nonzero;stroke:#794039;stroke-width:4.76300001;stroke-linecap:round;stroke-linejoin:round;stroke-miterlimit:10;stroke-dasharray:none;stroke-opacity:1"
           d="m 0,0 c 1.481,4.119 1.08,10.109 -1.038,13.859 -1.581,2.799 -4.088,4.935 -6.542,7.011 -9.178,7.758 -18.356,15.517 -27.534,23.276 -2.866,2.423 -5.905,4.932 -9.588,5.651 -4.137,0.809 -8.467,-0.844 -11.712,-3.534 -22.793,-18.888 7.554,-60.094 28.863,-67.772 5.69,-2.05 11.278,-2.236 16.763,0.31" />
      </g>
      <g
         transform="translate(1513.3217,699.7888)"
         id="g780">
        <path
           inkscape:connector-curvature="0"
           id="path782"
           style="fill:#333333;fill-opacity:1;fill-rule:nonzero;stroke:none"
           d="m 0,0 c 3.07,1.353 6.199,2.575 9.374,3.66 1.845,0.63 4.002,1.181 5.639,0.122 0.682,-0.441 1.177,-1.112 1.656,-1.769 2.867,-3.928 5.733,-7.856 8.6,-11.784 0.589,-0.807 1.192,-1.642 1.427,-2.613 0.518,-2.138 -0.946,-4.358 -2.864,-5.435 -1.918,-1.077 -4.189,-1.275 -6.382,-1.449 2.75,0.219 6.873,-9.081 7.597,-11.083 1.724,-4.776 1.803,-8.932 -0.417,-13.562 -2.287,-4.769 -5.918,-8.741 -9.496,-12.636 -1.669,-1.818 -3.696,-3.787 -6.158,-3.619 -1.782,0.122 -3.285,1.362 -5.011,1.823 -2.314,0.617 -4.8,-0.215 -7.153,0.231 -3.368,0.639 -5.674,3.666 -7.646,6.469 -2.97,4.223 -5.941,8.445 -8.911,12.667 -1.861,2.644 -3.74,5.325 -4.877,8.351 -3.579,9.535 2.643,18.395 10.548,23.249 C -9.557,-4.604 -4.851,-2.138 0,0" />
      </g>
      <g
         transform="translate(1513.3217,699.7888)"
         id="g784">
        <path
           inkscape:connector-curvature="0"
           id="path786"
           style="fill:none;stroke:#794039;stroke-width:4.76300001;stroke-linecap:round;stroke-linejoin:round;stroke-miterlimit:10;stroke-dasharray:none;stroke-opacity:1"
           d="m 0,0 c 3.07,1.353 6.199,2.575 9.374,3.66 1.845,0.63 4.002,1.181 5.639,0.122 0.682,-0.441 1.177,-1.112 1.656,-1.769 2.867,-3.928 5.733,-7.856 8.6,-11.784 0.589,-0.807 1.192,-1.642 1.427,-2.613 0.518,-2.138 -0.946,-4.358 -2.864,-5.435 -1.918,-1.077 -4.189,-1.275 -6.382,-1.449 2.75,0.219 6.873,-9.081 7.597,-11.083 1.724,-4.776 1.803,-8.932 -0.417,-13.562 -2.287,-4.769 -5.918,-8.741 -9.496,-12.636 -1.669,-1.818 -3.696,-3.787 -6.158,-3.619 -1.782,0.122 -3.285,1.362 -5.011,1.823 -2.314,0.617 -4.8,-0.215 -7.153,0.231 -3.368,0.639 -5.674,3.666 -7.646,6.469 -2.97,4.223 -5.941,8.445 -8.911,12.667 -1.861,2.644 -3.74,5.325 -4.877,8.351 -3.579,9.535 2.643,18.395 10.548,23.249 C -9.557,-4.604 -4.851,-2.138 0,0 Z" />
      </g>
      <g
         transform="translate(1495.5741,693.3521)"
         id="g788">
        <path
           inkscape:connector-curvature="0"
           id="path790"
           style="fill:#cccccc;fill-opacity:1;fill-rule:nonzero;stroke:none"
           d="m 0,0 -0.166,0.242 c -13.202,19.227 -117.724,175.074 -148.649,264.192 -2.05,5.907 -1.742,12.375 0.855,18.064 l 7.88,17.267 C -116.642,205.673 2.241,30.797 15.721,11.164 l 0.21,-0.306 -15.943,-10.84 7.971,5.42 z" />
      </g>
      <g
         transform="translate(1495.5741,693.3521)"
         id="g792">
        <path
           inkscape:connector-curvature="0"
           id="path794"
           style="fill:none;stroke:#794039;stroke-width:4.53599977;stroke-linecap:round;stroke-linejoin:round;stroke-miterlimit:10;stroke-dasharray:none;stroke-opacity:1"
           d="m 0,0 -0.166,0.242 c -13.202,19.227 -117.724,175.074 -148.649,264.192 -2.05,5.907 -1.742,12.375 0.855,18.064 l 7.88,17.267 C -116.642,205.673 2.241,30.797 15.721,11.164 l 0.21,-0.306 -15.943,-10.84 7.971,5.42 z" />
      </g>
      <g
         transform="translate(1549.589,653.3061)"
         id="g796">
        <path
           inkscape:connector-curvature="0"
           id="path798"
           style="fill:#333333;fill-opacity:1;fill-rule:nonzero;stroke:none"
           d="M 0,0 -20.632,-14.028 -73.877,64.281 -53.244,78.31 Z" />
      </g>
      <g
         transform="translate(1549.589,653.3061)"
         id="g800">
        <path
           inkscape:connector-curvature="0"
           id="path802"
           style="fill:none;stroke:#794039;stroke-width:4.29500008;stroke-linecap:round;stroke-linejoin:round;stroke-miterlimit:10;stroke-dasharray:none;stroke-opacity:1"
           d="M 0,0 -20.632,-14.028 -73.877,64.281 -53.244,78.31 Z" />
      </g>
      <g
         transform="translate(1510.3044,727.9529)"
         id="g804">
        <path
           inkscape:connector-curvature="0"
           id="path806"
           style="fill:#333333;fill-opacity:1;fill-rule:nonzero;stroke:none"
           d="m 0,0 -36.319,-24.694 -6.116,8.996 36.319,24.694 z" />
      </g>
      <g
         transform="translate(1510.3044,727.9529)"
         id="g808">
        <path
           inkscape:connector-curvature="0"
           id="path810"
           style="fill:none;stroke:#794039;stroke-width:4.29500008;stroke-linecap:round;stroke-linejoin:round;stroke-miterlimit:10;stroke-dasharray:none;stroke-opacity:1"
           d="m 0,0 -36.319,-24.694 -6.116,8.996 36.319,24.694 z" />
      </g>
      <g
         transform="translate(1491.174,681.1723)"
         id="g812">
        <path
           inkscape:connector-curvature="0"
           id="path814"
           style="fill:#333333;fill-opacity:1;fill-rule:nonzero;stroke:#794039;stroke-width:4.76300001;stroke-linecap:round;stroke-linejoin:round;stroke-miterlimit:10;stroke-dasharray:none;stroke-opacity:1"
           d="m 0,0 c 7.369,8.686 16.055,16.254 25.669,22.364 1.796,1.141 4.292,2.19 5.87,0.762 2.159,-1.954 -0.253,-5.423 -0.17,-8.334 5.798,-5.576 10.781,-11.999 14.742,-19.001 0.958,-1.693 1.878,-3.5 1.927,-5.445 0.049,-1.945 -0.779,-3.796 -1.67,-5.525 -2.321,-4.502 -5.256,-8.783 -9.23,-11.922 -3.974,-3.14 -9.093,-5.047 -14.12,-4.436" />
      </g>
      <g
         transform="translate(1646.5739,584.3517)"
         id="g816">
        <path
           inkscape:connector-curvature="0"
           id="path818"
           style="fill:#333333;fill-opacity:1;fill-rule:nonzero;stroke:none"
           d="m 0,0 c 1.912,-3.672 2.483,-7.873 3.024,-11.977 2.794,-21.178 5.587,-42.356 8.38,-63.533 -6.743,-0.287 -13.486,-0.574 -20.229,-0.861 -3.139,20.877 -3.699,42.141 -1.665,63.155 0.31,3.204 0.719,6.518 2.396,9.265 C -6.418,-1.203 -3.114,0.817 0,0" />
      </g>
      <g
         transform="translate(1646.5739,584.3517)"
         id="g820">
        <path
           inkscape:connector-curvature="0"
           id="path822"
           style="fill:none;stroke:#794039;stroke-width:4.76300001;stroke-linecap:round;stroke-linejoin:round;stroke-miterlimit:10;stroke-dasharray:none;stroke-opacity:1"
           d="m 0,0 c 1.912,-3.672 2.483,-7.873 3.024,-11.977 2.794,-21.178 5.587,-42.356 8.38,-63.533 -6.743,-0.287 -13.486,-0.574 -20.229,-0.861 -3.139,20.877 -3.699,42.141 -1.665,63.155 0.31,3.204 0.719,6.518 2.396,9.265 C -6.418,-1.203 -3.114,0.817 0,0 Z" />
      </g>
      <g
         transform="translate(1717.248,569.6008)"
         id="g824">
        <path
           inkscape:connector-curvature="0"
           id="path826"
           style="fill:#333333;fill-opacity:1;fill-rule:nonzero;stroke:none"
           d="m 0,0 c -12.374,-4.321 -26.042,-6.519 -40.353,-6.519 -5.608,0 -11.306,0.336 -17.071,1.02 -17.181,2.027 -35.389,7.06 -55.534,15.373 2.225,6.225 3.875,12.388 4.478,18.907 19.653,-8.341 37.094,-13.326 53.302,-15.243 18.975,-2.239 37.011,-0.226 52.233,5.82 0,-0.869 0.021,-1.732 0.062,-2.602 C -2.63,11.052 -1.554,5.478 0,0" />
      </g>
      <g
         transform="translate(1717.248,569.6008)"
         id="g828">
        <path
           inkscape:connector-curvature="0"
           id="path830"
           style="fill:none;stroke:#794039;stroke-width:4.76300001;stroke-linecap:round;stroke-linejoin:round;stroke-miterlimit:10;stroke-dasharray:none;stroke-opacity:1"
           d="m 0,0 c -12.374,-4.321 -26.042,-6.519 -40.353,-6.519 -5.608,0 -11.306,0.336 -17.071,1.02 -17.181,2.027 -35.389,7.06 -55.534,15.373 2.225,6.225 3.875,12.388 4.478,18.907 19.653,-8.341 37.094,-13.326 53.302,-15.243 18.975,-2.239 37.011,-0.226 52.233,5.82 0,-0.869 0.021,-1.732 0.062,-2.602 C -2.63,11.052 -1.554,5.478 0,0 Z" />
      </g>
      <g
         transform="translate(1713.2439,330.8411)"
         id="g832">
        <path
           inkscape:connector-curvature="0"
           id="path834"
           style="fill:none;stroke:#794039;stroke-width:4.76300001;stroke-linecap:round;stroke-linejoin:round;stroke-miterlimit:10;stroke-dasharray:none;stroke-opacity:1"
           d="M 0,0 C 1.3,-1.769 2.257,-3.789 2.802,-5.916" />
      </g>
      <g
         transform="translate(1567.2567,317.6066)"
         id="g836">
        <path
           inkscape:connector-curvature="0"
           id="path838"
           style="fill:none;stroke:#794039;stroke-width:4.76300001;stroke-linecap:round;stroke-linejoin:round;stroke-miterlimit:10;stroke-dasharray:none;stroke-opacity:1"
           d="m 0,0 c -0.116,0.21 -0.345,-0.257 -0.112,-0.315 0.233,-0.059 0.42,0.186 0.538,0.396 1.832,3.266 4.236,6.21 7.07,8.658" />
      </g>
      <g
         transform="translate(1573.5643,381.0277)"
         id="g840">
        <path
           inkscape:connector-curvature="0"
           id="path842"
           style="fill:none;stroke:#794039;stroke-width:4.76300001;stroke-linecap:round;stroke-linejoin:round;stroke-miterlimit:10;stroke-dasharray:none;stroke-opacity:1"
           d="M 0,0 C 10.128,-4.794 21.584,-6.744 32.728,-5.571" />
      </g>
      <g
         transform="translate(1573.7712,401.8877)"
         id="g844">
        <path
           inkscape:connector-curvature="0"
           id="path846"
           style="fill:none;stroke:#794039;stroke-width:4.76300001;stroke-linecap:round;stroke-linejoin:round;stroke-miterlimit:10;stroke-dasharray:none;stroke-opacity:1"
           d="M 0,0 C 11.555,-10.484 27.772,-13.69 43.122,-16.483" />
      </g>
      <g
         transform="translate(1678.434,379.4786)"
         id="g848">
        <path
           inkscape:connector-curvature="0"
           id="path850"
           style="fill:none;stroke:#794039;stroke-width:4.76300001;stroke-linecap:round;stroke-linejoin:round;stroke-miterlimit:10;stroke-dasharray:none;stroke-opacity:1"
           d="m 0,0 c 3.839,-1.832 8.329,-1.486 12.537,-0.863 8.303,1.23 16.468,3.392 24.292,6.431" />
      </g>
      <g
         transform="translate(1678.7329,389.2451)"
         id="g852">
        <path
           inkscape:connector-curvature="0"
           id="path854"
           style="fill:none;stroke:#794039;stroke-width:4.76300001;stroke-linecap:round;stroke-linejoin:round;stroke-miterlimit:10;stroke-dasharray:none;stroke-opacity:1"
           d="M 0,0 C 11.34,-1.441 22.812,0.409 34.093,2.255" />
      </g>
      <g
         transform="translate(1689.3319,372.414)"
         id="g856">
        <path
           inkscape:connector-curvature="0"
           id="path858"
           style="fill:none;stroke:#794039;stroke-width:4.76300001;stroke-linecap:round;stroke-linejoin:round;stroke-miterlimit:10;stroke-dasharray:none;stroke-opacity:1"
           d="M 0,0 C 6.54,-0.823 13.191,-0.76 19.714,0.187" />
      </g>
      <g
         transform="translate(1584.4918,401.9795)"
         id="g860">
        <path
           inkscape:connector-curvature="0"
           id="path862"
           style="fill:none;stroke:#794039;stroke-width:4.76300001;stroke-linecap:round;stroke-linejoin:round;stroke-miterlimit:10;stroke-dasharray:none;stroke-opacity:1"
           d="M 0,0 C 11.2,-2.077 22.713,-2.454 34.024,-1.114" />
      </g>
      <g
         transform="translate(1643.9221,589.6337)"
         id="g864">
        <path
           inkscape:connector-curvature="0"
           id="path866"
           style="fill:#333333;fill-opacity:1;fill-rule:nonzero;stroke:none"
           d="m 0,0 c -3.755,1.133 -7.583,2.023 -11.452,2.663 -4.72,-7.48 -6.88,-16.25 -8.862,-24.87 -3.984,-17.33 -7.537,-34.758 -10.654,-52.264 7.235,-4.664 14.47,-9.328 21.705,-13.992 2.694,28.196 6.85,56.252 12.444,84.019 0.138,0.682 0.275,1.396 0.082,2.064 C 2.873,-1.028 1.347,-0.406 0,0" />
      </g>
      <g
         transform="translate(1643.9221,589.6337)"
         id="g868">
        <path
           inkscape:connector-curvature="0"
           id="path870"
           style="fill:none;stroke:#794039;stroke-width:4.76300001;stroke-linecap:round;stroke-linejoin:round;stroke-miterlimit:10;stroke-dasharray:none;stroke-opacity:1"
           d="m 0,0 c -3.755,1.133 -7.583,2.023 -11.452,2.663 -4.72,-7.48 -6.88,-16.25 -8.862,-24.87 -3.984,-17.33 -7.537,-34.758 -10.654,-52.264 7.235,-4.664 14.47,-9.328 21.705,-13.992 2.694,28.196 6.85,56.252 12.444,84.019 0.138,0.682 0.275,1.396 0.082,2.064 C 2.873,-1.028 1.347,-0.406 0,0 Z" />
      </g>
      <g
         transform="translate(1655.9219,688.1497)"
         id="g872">
        <path
           inkscape:connector-curvature="0"
           id="path874"
           style="fill:none;stroke:#794039;stroke-width:4.76300001;stroke-linecap:round;stroke-linejoin:round;stroke-miterlimit:10;stroke-dasharray:none;stroke-opacity:1"
           d="M 0,0 C 4.737,-5.047 7.801,-11.396 10.792,-17.638 24.026,-45.253 37.34,-73.083 45.021,-102.727" />
      </g>
      <g
         transform="translate(1758.9448,782.7212)"
         id="g876">
        <path
           inkscape:connector-curvature="0"
           id="path878"
           style="fill:#333333;fill-opacity:1;fill-rule:nonzero;stroke:none"
           d="m 0,0 c -1.069,-25.009 -47.956,-35.084 -105.156,-32.631 -57.2,2.453 -103.056,16.507 -101.981,41.517 0.535,12.331 1.17,22.236 8.308,29.392 10.69,10.722 35.957,15.3 97.257,12.671 48.403,-2.075 74.035,-6.703 87.467,-14.268 C 0.849,28.267 0.698,16.212 0,0 m 38.467,88.202 c -1.176,64.564 -20.903,98.239 -134.021,103.088 -122.349,5.251 -138.736,-32.455 -143.717,-107.596 -0.616,-9.2 -1.056,-18.96 -1.496,-29.273 -0.139,-3.201 -0.164,-6.339 -0.076,-9.408 1.874,-70.651 60.665,-107.257 134.278,-110.413 76.814,-3.295 140.674,31.077 143.969,107.891 0.075,1.786 0.151,3.547 0.227,5.302 0.609,14.608 1.062,28.071 0.836,40.409" />
      </g>
      <g
         transform="translate(1758.9448,782.7212)"
         id="g880">
        <path
           inkscape:connector-curvature="0"
           id="path882"
           style="fill:none;stroke:#794039;stroke-width:4.76300001;stroke-linecap:round;stroke-linejoin:round;stroke-miterlimit:10;stroke-dasharray:none;stroke-opacity:1"
           d="m 0,0 c -1.069,-25.009 -47.956,-35.084 -105.156,-32.631 -57.2,2.453 -103.056,16.507 -101.981,41.517 0.535,12.331 1.17,22.236 8.308,29.392 10.69,10.722 35.957,15.3 97.257,12.671 48.403,-2.075 74.035,-6.703 87.467,-14.268 C 0.849,28.267 0.698,16.212 0,0 Z m 38.467,88.202 c -1.176,64.564 -20.903,98.239 -134.021,103.088 -122.349,5.251 -138.736,-32.455 -143.717,-107.596 -0.616,-9.2 -1.056,-18.96 -1.496,-29.273 -0.139,-3.201 -0.164,-6.339 -0.076,-9.408 1.874,-70.651 60.665,-107.257 134.278,-110.413 76.814,-3.295 140.674,31.077 143.969,107.891 0.075,1.786 0.151,3.547 0.227,5.302 0.609,14.608 1.062,28.071 0.836,40.409 z" />
      </g>
      <g
         transform="translate(1685.5422,765.6075)"
         id="g884">
        <path
           inkscape:connector-curvature="0"
           id="path886"
           style="fill:#333333;fill-opacity:1;fill-rule:nonzero;stroke:none"
           d="m 0,0 c 10.31,-6.839 18.621,-16.754 24.621,-27.502 1.945,-3.485 7.092,-11.255 6.571,-15.369 -0.612,-4.822 -9.353,-7.794 -13.124,-9.054 -13.421,-4.486 -27.631,-6.601 -41.777,-6.219 -10.082,0.272 -20.084,1.798 -30.054,3.321 -11.282,1.724 -23.29,3.784 -31.668,11.534 -0.532,0.492 -1.057,1.021 -1.34,1.687 -1.211,2.847 2.74,7.601 4.153,10.004 2.204,3.749 4.774,7.266 7.643,10.534 7.271,8.283 16.287,14.938 25.87,20.31 7.008,3.929 14.51,7.296 22.495,8.192 C -17.279,8.485 -8.172,5.421 0,0" />
      </g>
      <g
         transform="translate(1685.5422,765.6075)"
         id="g888">
        <path
           inkscape:connector-curvature="0"
           id="path890"
           style="fill:none;stroke:#794039;stroke-width:4.76300001;stroke-linecap:round;stroke-linejoin:round;stroke-miterlimit:10;stroke-dasharray:none;stroke-opacity:1"
           d="m 0,0 c 10.31,-6.839 18.621,-16.754 24.621,-27.502 1.945,-3.485 7.092,-11.255 6.571,-15.369 -0.612,-4.822 -9.353,-7.794 -13.124,-9.054 -13.421,-4.486 -27.631,-6.601 -41.777,-6.219 -10.082,0.272 -20.084,1.798 -30.054,3.321 -11.282,1.724 -23.29,3.784 -31.668,11.534 -0.532,0.492 -1.057,1.021 -1.34,1.687 -1.211,2.847 2.74,7.601 4.153,10.004 2.204,3.749 4.774,7.266 7.643,10.534 7.271,8.283 16.287,14.938 25.87,20.31 7.008,3.929 14.51,7.296 22.495,8.192 C -17.279,8.485 -8.172,5.421 0,0 Z" />
      </g>
      <g
         transform="translate(1801.6168,841.8118)"
         id="g892">
        <path
           inkscape:connector-curvature="0"
           id="path894"
           style="fill:#333333;fill-opacity:1;fill-rule:nonzero;stroke:none"
           d="m 0,0 c -18.056,-6.475 -36.635,-8.993 -53.692,-10.461 -2.95,-0.256 -5.855,-0.474 -8.706,-0.679 -26.356,-1.895 -52.813,-2.585 -79.254,-2.079 -34.434,0.659 -68.83,3.353 -102.934,8.062 -4.844,0.672 -9.681,1.382 -14.511,2.131 -8.887,1.38 -18.745,3.038 -28.78,5.662 -0.03,3.173 0.058,6.416 0.265,9.721 0.658,10.651 1.306,20.73 2.125,30.226 10.59,-3.512 22.178,-5.489 32.381,-7.069 62.053,-9.64 125.274,-12.248 187.915,-7.751 19.299,1.386 41.448,3.589 59.974,12.207 2.23,1.037 4.563,1.616 6.88,1.78 C 1.654,28.993 0.919,15.086 0,0" />
      </g>
      <g
         transform="translate(1801.6168,841.8118)"
         id="g896">
        <path
           inkscape:connector-curvature="0"
           id="path898"
           style="fill:none;stroke:#794039;stroke-width:4.76300001;stroke-linecap:round;stroke-linejoin:round;stroke-miterlimit:10;stroke-dasharray:none;stroke-opacity:1"
           d="m 0,0 c -18.056,-6.475 -36.635,-8.993 -53.692,-10.461 -2.95,-0.256 -5.855,-0.474 -8.706,-0.679 -26.356,-1.895 -52.813,-2.585 -79.254,-2.079 -34.434,0.659 -68.83,3.353 -102.934,8.062 -4.844,0.672 -9.681,1.382 -14.511,2.131 -8.887,1.38 -18.745,3.038 -28.78,5.662 -0.03,3.173 0.058,6.416 0.265,9.721 0.658,10.651 1.306,20.73 2.125,30.226 10.59,-3.512 22.178,-5.489 32.381,-7.069 62.053,-9.64 125.274,-12.248 187.915,-7.751 19.299,1.386 41.448,3.589 59.974,12.207 2.23,1.037 4.563,1.616 6.88,1.78 C 1.654,28.993 0.919,15.086 0,0 Z" />
      </g>
    </g>
  </g>
</svg>
