<?xml version="1.0" encoding="UTF-8" standalone="no"?>
<!-- Created with Inkscape (http://www.inkscape.org/) -->

<svg
   xmlns:dc="http://purl.org/dc/elements/1.1/"
   xmlns:cc="http://creativecommons.org/ns#"
   xmlns:rdf="http://www.w3.org/1999/02/22-rdf-syntax-ns#"
   xmlns:svg="http://www.w3.org/2000/svg"
   xmlns="http://www.w3.org/2000/svg"
   xmlns:sodipodi="http://sodipodi.sourceforge.net/DTD/sodipodi-0.dtd"
   xmlns:inkscape="http://www.inkscape.org/namespaces/inkscape"
   width="103.82558mm"
   height="95.898987mm"
   viewBox="0 0 103.82558 95.898988"
   version="1.1"
   id="svg12588"
   inkscape:version="0.92.4 (unknown)"
   sodipodi:docname="ninja-avatar.svg">
  <defs
     id="defs12582" />
  <sodipodi:namedview
     id="base"
     pagecolor="#ffffff"
     bordercolor="#666666"
     borderopacity="1.0"
     inkscape:pageopacity="0.0"
     inkscape:pageshadow="2"
     inkscape:zoom="0.35"
     inkscape:cx="537.68177"
     inkscape:cy="-366.9246"
     inkscape:document-units="mm"
     inkscape:current-layer="layer1"
     showgrid="false"
     inkscape:window-width="1920"
     inkscape:window-height="1016"
     inkscape:window-x="0"
     inkscape:window-y="27"
     inkscape:window-maximized="1" />
  <metadata
     id="metadata12585">
    <rdf:RDF>
      <cc:Work
         rdf:about="">
        <dc:format>image/svg+xml</dc:format>
        <dc:type
           rdf:resource="http://purl.org/dc/dcmitype/StillImage" />
        <dc:title></dc:title>
      </cc:Work>
    </rdf:RDF>
  </metadata>
  <g
     inkscape:label="Layer 1"
     inkscape:groupmode="layer"
     id="layer1"
     transform="translate(344.85687,41.123971)">
    <g
       id="g740"
       transform="matrix(0.35277777,0,0,-0.35277777,-244.31683,12.379942)">
      <path
         d="m 0,0 c -3.294,-76.814 -67.153,-111.186 -143.967,-107.893 -76.814,3.294 -137.495,43.008 -134.201,119.822 4.054,94.537 7.883,142.759 145.209,136.87 C 4.367,142.911 4.054,94.538 0,0"
         style="fill:#ffdbc2;fill-opacity:1;fill-rule:nonzero;stroke:none"
         id="path742"
         inkscape:connector-curvature="0" />
    </g>
    <g
       id="g744"
       transform="matrix(0.35277777,0,0,-0.35277777,-244.31683,12.379942)">
      <path
         d="m 0,0 c -3.294,-76.814 -67.153,-111.186 -143.967,-107.893 -76.814,3.294 -137.495,43.008 -134.201,119.822 4.054,94.537 7.883,142.759 145.209,136.87 C 4.367,142.911 4.054,94.538 0,0 Z"
         style="fill:none;stroke:#794039;stroke-width:4.76300001;stroke-linecap:round;stroke-linejoin:round;stroke-miterlimit:10;stroke-dasharray:none;stroke-opacity:1"
         id="path746"
         inkscape:connector-curvature="0" />
    </g>
    <g
       id="g748"
       transform="matrix(0.35277777,0,0,-0.35277777,-311.0422,21.486441)">
      <path
         d="m 0,0 c -0.398,-9.288 -8.251,-16.495 -17.539,-16.097 -9.289,0.398 -16.496,8.251 -16.097,17.539 0.398,9.289 8.251,16.496 17.539,16.097 C -6.809,17.141 0.398,9.288 0,0"
         style="fill:#794039;fill-opacity:1;fill-rule:nonzero;stroke:none"
         id="path750"
         inkscape:connector-curvature="0" />
    </g>
    <g
       id="g752"
       transform="matrix(0.35277777,0,0,-0.35277777,-317.95143,32.756844)">
      <path
         d="m 0,0 c -0.452,-10.544 -9.366,-18.724 -19.91,-18.272 -10.543,0.452 -18.724,9.366 -18.272,19.909 0.452,10.544 9.366,18.725 19.91,18.273 C -7.729,19.457 0.452,10.544 0,0"
         style="fill:#faacae;fill-opacity:1;fill-rule:nonzero;stroke:none"
         id="path754"
         inkscape:connector-curvature="0" />
    </g>
    <g
       id="g756"
       transform="matrix(0.35277777,0,0,-0.35277777,-275.12294,23.02674)">
      <path
         d="m 0,0 c -0.398,-9.288 6.808,-17.141 16.097,-17.539 9.288,-0.399 17.141,6.808 17.539,16.097 C 34.035,7.846 26.828,15.699 17.539,16.097 8.251,16.495 0.398,9.288 0,0"
         style="fill:#794039;fill-opacity:1;fill-rule:nonzero;stroke:none"
         id="path758"
         inkscape:connector-curvature="0" />
    </g>
    <g
       id="g760"
       transform="matrix(0.35277777,0,0,-0.35277777,-269.18928,34.505599)">
      <path
         d="m 0,0 c -0.429,-10.009 7.337,-18.47 17.345,-18.9 10.009,-0.429 18.471,7.337 18.9,17.346 C 36.674,8.454 28.908,16.916 18.9,17.345 8.891,17.775 0.429,10.009 0,0"
         style="fill:#faacae;fill-opacity:1;fill-rule:nonzero;stroke:none"
         id="path762"
         inkscape:connector-curvature="0" />
    </g>
    <g
       id="g764"
       transform="matrix(0.35277777,0,0,-0.35277777,-309.68041,12.782955)">
      <path
         d="M 0,0 C 0,0 -0.173,0.116 -0.497,0.334 -0.8,0.546 -1.244,0.857 -1.809,1.253 -2.345,1.64 -2.996,2.109 -3.743,2.648 -4.48,3.174 -5.257,3.789 -6.129,4.42 c -0.83,0.671 -1.783,1.322 -2.74,2.048 -0.493,0.345 -1.018,0.674 -1.539,1.024 -0.256,0.18 -0.515,0.362 -0.777,0.547 -0.273,0.164 -0.55,0.331 -0.829,0.499 -0.551,0.344 -1.114,0.686 -1.665,1.066 -0.582,0.328 -1.171,0.66 -1.765,0.995 -1.151,0.749 -2.446,1.265 -3.702,1.888 -0.616,0.346 -1.299,0.521 -1.95,0.784 -0.66,0.245 -1.318,0.49 -1.971,0.733 -1.357,0.365 -2.693,0.723 -3.986,1.071 -1.328,0.204 -2.621,0.429 -3.86,0.647 -0.618,0.14 -1.228,0.127 -1.819,0.183 -0.593,0.048 -1.166,0.161 -1.717,0.205 -1.105,0.083 -2.132,0.225 -3.036,0.225 h -2.367 c -1.332,0 -2.093,-0.031 -2.093,-0.031 0,0 0.714,0.206 1.989,0.595 0.643,0.187 1.424,0.399 2.32,0.66 0.897,0.299 1.936,0.447 3.08,0.619 1.143,0.154 2.389,0.438 3.723,0.484 1.333,0.043 2.754,0.099 4.231,0.101 1.463,-0.145 2.999,-0.247 4.55,-0.456 0.766,-0.168 1.539,-0.338 2.313,-0.507 0.771,-0.193 1.578,-0.296 2.327,-0.586 1.503,-0.55 3.074,-0.977 4.48,-1.726 0.713,-0.349 1.431,-0.684 2.109,-1.067 0.663,-0.408 1.299,-0.845 1.927,-1.267 1.271,-0.824 2.312,-1.877 3.339,-2.792 0.932,-1.028 1.862,-1.935 2.535,-2.945 0.722,-0.959 1.266,-1.93 1.7,-2.808 C -0.899,3.722 -0.608,2.907 -0.404,2.227 -0.208,1.541 -0.098,0.984 -0.049,0.595 0.002,0.211 0,0 0,0"
         style="fill:#794039;fill-opacity:1;fill-rule:nonzero;stroke:none"
         id="path766"
         inkscape:connector-curvature="0" />
    </g>
    <g
       id="g768"
       transform="matrix(0.35277777,0,0,-0.35277777,-276.45358,14.195548)">
      <path
         d="m 0,0 c 0,0 0.071,0.899 0.566,2.313 0.492,1.411 1.382,3.364 2.916,5.379 0.75,1.022 1.681,2.029 2.702,3.068 1.033,1.026 2.202,2.037 3.494,2.981 1.307,0.922 2.718,1.805 4.249,2.522 1.512,0.753 3.139,1.329 4.761,1.871 1.653,0.464 3.317,0.868 4.981,1.096 0.415,0.058 0.828,0.116 1.239,0.174 0.413,0.04 0.827,0.057 1.235,0.085 0.816,0.069 1.623,0.083 2.415,0.068 0.791,0.012 1.566,-0.019 2.321,-0.098 0.377,-0.032 0.749,-0.063 1.117,-0.094 0.365,-0.055 0.725,-0.108 1.081,-0.161 1.422,-0.171 2.731,-0.524 3.93,-0.81 1.183,-0.374 2.271,-0.657 3.19,-1.057 0.925,-0.372 1.732,-0.667 2.365,-1.001 1.278,-0.627 1.988,-1 1.988,-1 0,0 -0.794,0.129 -2.185,0.357 -0.681,0.144 -1.538,0.195 -2.488,0.332 -0.95,0.151 -2.046,0.152 -3.205,0.266 -1.175,0.007 -2.432,0.064 -3.753,-0.02 -0.329,-0.014 -0.662,-0.028 -1,-0.042 -0.336,-0.037 -0.675,-0.074 -1.018,-0.111 -0.685,-0.071 -1.381,-0.131 -2.08,-0.265 -0.702,-0.099 -1.409,-0.227 -2.114,-0.405 -0.71,-0.147 -1.416,-0.34 -2.123,-0.543 C 23.166,14.523 21.776,13.978 20.413,13.404 17.691,12.218 15.177,10.663 12.841,9.156 12.269,8.759 11.675,8.411 11.134,8.008 10.566,7.643 10.031,7.253 9.506,6.874 8.447,6.127 7.48,5.363 6.563,4.668 4.736,3.273 3.116,2.114 1.935,1.291 0.756,0.469 0,0 0,0"
         style="fill:#794039;fill-opacity:1;fill-rule:nonzero;stroke:none"
         id="path770"
         inkscape:connector-curvature="0" />
    </g>
    <g
       id="g772"
       transform="matrix(0.35277777,0,0,-0.35277777,-295.40311,34.932354)">
      <path
         d="M 0,0 C 6.527,-1.097 13.271,-0.891 19.719,0.601"
         style="fill:none;stroke:#794039;stroke-width:2.83100009;stroke-linecap:round;stroke-linejoin:round;stroke-miterlimit:10;stroke-dasharray:none;stroke-opacity:1"
         id="path774"
         inkscape:connector-curvature="0" />
    </g>
    <g
       id="g876"
       transform="matrix(0.35277777,0,0,-0.35277777,-257.51185,27.37014)">
      <path
         d="m 0,0 c -1.069,-25.009 -47.956,-35.084 -105.156,-32.631 -57.2,2.453 -103.056,16.507 -101.981,41.517 0.535,12.331 1.17,22.236 8.308,29.392 10.69,10.722 35.957,15.3 97.257,12.671 48.403,-2.075 74.035,-6.703 87.467,-14.268 C 0.849,28.267 0.698,16.212 0,0 m 38.467,88.202 c -1.176,64.564 -20.903,98.239 -134.021,103.088 -122.349,5.251 -138.736,-32.455 -143.717,-107.596 -0.616,-9.2 -1.056,-18.96 -1.496,-29.273 -0.139,-3.201 -0.164,-6.339 -0.076,-9.408 1.874,-70.651 60.665,-107.257 134.278,-110.413 76.814,-3.295 140.674,31.077 143.969,107.891 0.075,1.786 0.151,3.547 0.227,5.302 0.609,14.608 1.062,28.071 0.836,40.409"
         style="fill:#333333;fill-opacity:1;fill-rule:nonzero;stroke:none"
         id="path878"
         inkscape:connector-curvature="0" />
    </g>
    <g
       id="g880"
       transform="matrix(0.35277777,0,0,-0.35277777,-257.51185,27.37014)">
      <path
         d="m 0,0 c -1.069,-25.009 -47.956,-35.084 -105.156,-32.631 -57.2,2.453 -103.056,16.507 -101.981,41.517 0.535,12.331 1.17,22.236 8.308,29.392 10.69,10.722 35.957,15.3 97.257,12.671 48.403,-2.075 74.035,-6.703 87.467,-14.268 C 0.849,28.267 0.698,16.212 0,0 Z m 38.467,88.202 c -1.176,64.564 -20.903,98.239 -134.021,103.088 -122.349,5.251 -138.736,-32.455 -143.717,-107.596 -0.616,-9.2 -1.056,-18.96 -1.496,-29.273 -0.139,-3.201 -0.164,-6.339 -0.076,-9.408 1.874,-70.651 60.665,-107.257 134.278,-110.413 76.814,-3.295 140.674,31.077 143.969,107.891 0.075,1.786 0.151,3.547 0.227,5.302 0.609,14.608 1.062,28.071 0.836,40.409 z"
         style="fill:none;stroke:#794039;stroke-width:4.76300001;stroke-linecap:round;stroke-linejoin:round;stroke-miterlimit:10;stroke-dasharray:none;stroke-opacity:1"
         id="path882"
         inkscape:connector-curvature="0" />
    </g>
    <g
       id="g884"
       transform="matrix(0.35277777,0,0,-0.35277777,-283.40665,33.407472)">
      <path
         d="m 0,0 c 10.31,-6.839 18.621,-16.754 24.621,-27.502 1.945,-3.485 7.092,-11.255 6.571,-15.369 -0.612,-4.822 -9.353,-7.794 -13.124,-9.054 -13.421,-4.486 -27.631,-6.601 -41.777,-6.219 -10.082,0.272 -20.084,1.798 -30.054,3.321 -11.282,1.724 -23.29,3.784 -31.668,11.534 -0.532,0.492 -1.057,1.021 -1.34,1.687 -1.211,2.847 2.74,7.601 4.153,10.004 2.204,3.749 4.774,7.266 7.643,10.534 7.271,8.283 16.287,14.938 25.87,20.31 7.008,3.929 14.51,7.296 22.495,8.192 C -17.279,8.485 -8.172,5.421 0,0"
         style="fill:#333333;fill-opacity:1;fill-rule:nonzero;stroke:none"
         id="path886"
         inkscape:connector-curvature="0" />
    </g>
    <g
       id="g888"
       transform="matrix(0.35277777,0,0,-0.35277777,-283.40665,33.407472)">
      <path
         d="m 0,0 c 10.31,-6.839 18.621,-16.754 24.621,-27.502 1.945,-3.485 7.092,-11.255 6.571,-15.369 -0.612,-4.822 -9.353,-7.794 -13.124,-9.054 -13.421,-4.486 -27.631,-6.601 -41.777,-6.219 -10.082,0.272 -20.084,1.798 -30.054,3.321 -11.282,1.724 -23.29,3.784 -31.668,11.534 -0.532,0.492 -1.057,1.021 -1.34,1.687 -1.211,2.847 2.74,7.601 4.153,10.004 2.204,3.749 4.774,7.266 7.643,10.534 7.271,8.283 16.287,14.938 25.87,20.31 7.008,3.929 14.51,7.296 22.495,8.192 C -17.279,8.485 -8.172,5.421 0,0 Z"
         style="fill:none;stroke:#794039;stroke-width:4.76300001;stroke-linecap:round;stroke-linejoin:round;stroke-miterlimit:10;stroke-dasharray:none;stroke-opacity:1"
         id="path890"
         inkscape:connector-curvature="0" />
    </g>
    <g
       id="g892"
       transform="matrix(0.35277777,0,0,-0.35277777,-242.45811,6.5242895)">
      <path
         d="m 0,0 c -18.056,-6.475 -36.635,-8.993 -53.692,-10.461 -2.95,-0.256 -5.855,-0.474 -8.706,-0.679 -26.356,-1.895 -52.813,-2.585 -79.254,-2.079 -34.434,0.659 -68.83,3.353 -102.934,8.062 -4.844,0.672 -9.681,1.382 -14.511,2.131 -8.887,1.38 -18.745,3.038 -28.78,5.662 -0.03,3.173 0.058,6.416 0.265,9.721 0.658,10.651 1.306,20.73 2.125,30.226 10.59,-3.512 22.178,-5.489 32.381,-7.069 62.053,-9.64 125.274,-12.248 187.915,-7.751 19.299,1.386 41.448,3.589 59.974,12.207 2.23,1.037 4.563,1.616 6.88,1.78 C 1.654,28.993 0.919,15.086 0,0"
         style="fill:#333333;fill-opacity:1;fill-rule:nonzero;stroke:none"
         id="path894"
         inkscape:connector-curvature="0" />
    </g>
    <g
       id="g896"
       transform="matrix(0.35277777,0,0,-0.35277777,-242.45811,6.5242895)">
      <path
         d="m 0,0 c -18.056,-6.475 -36.635,-8.993 -53.692,-10.461 -2.95,-0.256 -5.855,-0.474 -8.706,-0.679 -26.356,-1.895 -52.813,-2.585 -79.254,-2.079 -34.434,0.659 -68.83,3.353 -102.934,8.062 -4.844,0.672 -9.681,1.382 -14.511,2.131 -8.887,1.38 -18.745,3.038 -28.78,5.662 -0.03,3.173 0.058,6.416 0.265,9.721 0.658,10.651 1.306,20.73 2.125,30.226 10.59,-3.512 22.178,-5.489 32.381,-7.069 62.053,-9.64 125.274,-12.248 187.915,-7.751 19.299,1.386 41.448,3.589 59.974,12.207 2.23,1.037 4.563,1.616 6.88,1.78 C 1.654,28.993 0.919,15.086 0,0 Z"
         style="fill:none;stroke:#794039;stroke-width:4.76300001;stroke-linecap:round;stroke-linejoin:round;stroke-miterlimit:10;stroke-dasharray:none;stroke-opacity:1"
         id="path898"
         inkscape:connector-curvature="0" />
    </g>
  </g>
</svg>
