<?xml version="1.0" encoding="UTF-8" standalone="no"?>
<!-- Created with Inkscape (http://www.inkscape.org/) -->

<svg
   xmlns:dc="http://purl.org/dc/elements/1.1/"
   xmlns:cc="http://creativecommons.org/ns#"
   xmlns:rdf="http://www.w3.org/1999/02/22-rdf-syntax-ns#"
   xmlns:svg="http://www.w3.org/2000/svg"
   xmlns="http://www.w3.org/2000/svg"
   xmlns:sodipodi="http://sodipodi.sourceforge.net/DTD/sodipodi-0.dtd"
   xmlns:inkscape="http://www.inkscape.org/namespaces/inkscape"
   width="124.81599mm"
   height="121.05514mm"
   viewBox="0 0 124.81599 121.05514"
   version="1.1"
   id="svg10350"
   inkscape:version="0.92.4 (unknown)"
   sodipodi:docname="soldier-avatar.svg">
  <defs
     id="defs10344">
    <clipPath
       clipPathUnits="userSpaceOnUse"
       id="clipPath1678">
      <path
         d="m 946.5,893.119 h 280.51 V 710.238 H 946.5 Z"
         id="path1676"
         inkscape:connector-curvature="0" />
    </clipPath>
  </defs>
  <sodipodi:namedview
     id="base"
     pagecolor="#ffffff"
     bordercolor="#666666"
     borderopacity="1.0"
     inkscape:pageopacity="0.0"
     inkscape:pageshadow="2"
     inkscape:zoom="0.24748737"
     inkscape:cx="-170.74222"
     inkscape:cy="-945.91837"
     inkscape:document-units="mm"
     inkscape:current-layer="layer1"
     showgrid="false"
     inkscape:window-width="1920"
     inkscape:window-height="1016"
     inkscape:window-x="0"
     inkscape:window-y="27"
     inkscape:window-maximized="1" />
  <metadata
     id="metadata10347">
    <rdf:RDF>
      <cc:Work
         rdf:about="">
        <dc:format>image/svg+xml</dc:format>
        <dc:type
           rdf:resource="http://purl.org/dc/dcmitype/StillImage" />
        <dc:title></dc:title>
      </cc:Work>
    </rdf:RDF>
  </metadata>
  <g
     inkscape:label="Layer 1"
     inkscape:groupmode="layer"
     id="layer1"
     transform="translate(380.99552,28.112241)">
    <g
       id="g1236"
       transform="matrix(0.35277777,0,0,-0.35277777,-359.70765,70.023521)">
      <path
         d="m 0,0 c -1.444,3.162 -3.21,6.28 -5.882,8.502 -2.673,2.222 -6.416,3.412 -9.712,2.308 6.52,-13.635 11.573,-27.97 15.043,-42.679 3.71,0.025 7.419,0.049 11.128,0.074 -1.712,5.523 -3.424,11.046 -5.136,16.568 C 3.844,-10.075 2.241,-4.906 0,0"
         style="fill:#c69c6d;fill-opacity:1;fill-rule:nonzero;stroke:none"
         id="path1238"
         inkscape:connector-curvature="0" />
    </g>
    <g
       id="g1240"
       transform="matrix(0.35277777,0,0,-0.35277777,-359.70765,70.023521)">
      <path
         d="m 0,0 c -1.444,3.162 -3.21,6.28 -5.882,8.502 -2.673,2.222 -6.416,3.412 -9.712,2.308 6.52,-13.635 11.573,-27.97 15.043,-42.679 3.71,0.025 7.419,0.049 11.128,0.074 -1.712,5.523 -3.424,11.046 -5.136,16.568 C 3.844,-10.075 2.241,-4.906 0,0 Z"
         style="fill:none;stroke:#794039;stroke-width:4.88999987;stroke-linecap:round;stroke-linejoin:round;stroke-miterlimit:10;stroke-dasharray:none;stroke-opacity:1"
         id="path1242"
         inkscape:connector-curvature="0" />
    </g>
    <g
       id="g1244"
       transform="matrix(0.35277777,0,0,-0.35277777,-368.04626,58.463101)">
      <path
         d="m 0,0 c 4.404,-6.015 11.226,-9.759 18.074,-12.706 25.697,-11.059 54.17,-13.386 82.06,-15.574 54.636,-4.285 109.762,-8.56 164.079,-1.277 6.621,0.888 13.721,2.198 18.346,7.017 3.501,3.647 4.998,8.738 6.104,13.67 4.689,20.919 4.455,42.586 4.198,64.023 -0.047,3.887 -0.113,7.876 -1.544,11.491 -2.411,6.087 -8.261,10.083 -14.128,12.987 -9.159,4.535 -19.085,7.326 -29.079,9.457 -12.849,2.74 -25.895,4.428 -38.93,6.064 -18.046,2.266 -36.104,4.439 -54.173,6.52 -13.365,1.539 -26.75,3.029 -40.192,3.568 C 77.536,106.735 39.974,100.82 4.959,87.939 2.236,86.937 -0.596,85.808 -2.456,83.58 -4.471,81.165 -5.002,77.877 -5.401,74.758 -7.53,58.092 -8.018,41.217 -6.853,24.456 -6.258,15.893 -5.071,6.926 0,0"
         style="fill:#1a1a1a;fill-opacity:1;fill-rule:nonzero;stroke:none"
         id="path1246"
         inkscape:connector-curvature="0" />
    </g>
    <g
       id="g1248"
       transform="matrix(0.35277777,0,0,-0.35277777,-368.04626,58.463101)">
      <path
         d="m 0,0 c 4.404,-6.015 11.226,-9.759 18.074,-12.706 25.697,-11.059 54.17,-13.386 82.06,-15.574 54.636,-4.285 109.762,-8.56 164.079,-1.277 6.621,0.888 13.721,2.198 18.346,7.017 3.501,3.647 4.998,8.738 6.104,13.67 4.689,20.919 4.455,42.586 4.198,64.023 -0.047,3.887 -0.113,7.876 -1.544,11.491 -2.411,6.087 -8.261,10.083 -14.128,12.987 -9.159,4.535 -19.085,7.326 -29.079,9.457 -12.849,2.74 -25.895,4.428 -38.93,6.064 -18.046,2.266 -36.104,4.439 -54.173,6.52 -13.365,1.539 -26.75,3.029 -40.192,3.568 C 77.536,106.735 39.974,100.82 4.959,87.939 2.236,86.937 -0.596,85.808 -2.456,83.58 -4.471,81.165 -5.002,77.877 -5.401,74.758 -7.53,58.092 -8.018,41.217 -6.853,24.456 -6.258,15.893 -5.071,6.926 0,0 Z"
         style="fill:none;stroke:#794039;stroke-width:4.88999987;stroke-linecap:round;stroke-linejoin:round;stroke-miterlimit:10;stroke-dasharray:none;stroke-opacity:1"
         id="path1250"
         inkscape:connector-curvature="0" />
    </g>
    <g
       id="g1336"
       transform="matrix(0.35277777,0,0,-0.35277777,-271.78601,41.657474)">
      <path
         d="m 0,0 c -3.147,-73.386 -64.155,-106.224 -137.541,-103.077 -73.385,3.147 -131.358,41.088 -128.211,114.473 3.873,90.318 7.531,136.388 138.728,130.762 C 4.173,136.532 3.873,90.318 0,0"
         style="fill:#fed09e;fill-opacity:1;fill-rule:nonzero;stroke:none"
         id="path1338"
         inkscape:connector-curvature="0" />
    </g>
    <g
       id="g1340"
       transform="matrix(0.35277777,0,0,-0.35277777,-271.78601,41.657474)">
      <path
         d="m 0,0 c -3.147,-73.386 -64.155,-106.224 -137.541,-103.077 -73.385,3.147 -131.358,41.088 -128.211,114.473 3.873,90.318 7.531,136.388 138.728,130.762 C 4.173,136.532 3.873,90.318 0,0 Z"
         style="fill:none;stroke:#794039;stroke-width:4.55000019;stroke-linecap:round;stroke-linejoin:round;stroke-miterlimit:10;stroke-dasharray:none;stroke-opacity:1"
         id="path1342"
         inkscape:connector-curvature="0" />
    </g>
    <g
       id="g1344"
       transform="matrix(0.35277777,0,0,-0.35277777,-335.53316,50.357541)">
      <path
         d="m 0,0 c -0.38,-8.874 -7.883,-15.759 -16.757,-15.379 -8.873,0.381 -15.759,7.883 -15.378,16.757 0.38,8.874 7.883,15.759 16.756,15.379 C -6.505,16.376 0.38,8.874 0,0"
         style="fill:#794039;fill-opacity:1;fill-rule:nonzero;stroke:none"
         id="path1346"
         inkscape:connector-curvature="0" />
    </g>
    <g
       id="g1348"
       transform="matrix(0.35277777,0,0,-0.35277777,-342.13402,61.124911)">
      <path
         d="m 0,0 c -0.432,-10.073 -8.948,-17.889 -19.021,-17.457 -10.073,0.432 -17.889,8.948 -17.457,19.021 0.432,10.073 8.948,17.889 19.021,17.457 C -7.384,18.589 0.432,10.073 0,0"
         style="fill:#faacae;fill-opacity:1;fill-rule:nonzero;stroke:none"
         id="path1350"
         inkscape:connector-curvature="0" />
    </g>
    <g
       id="g1352"
       transform="matrix(0.35277777,0,0,-0.35277777,-301.21716,51.829111)">
      <path
         d="m 0,0 c -0.38,-8.874 6.505,-16.376 15.379,-16.757 8.873,-0.38 16.376,6.505 16.756,15.379 C 32.516,7.496 25.63,14.998 16.757,15.379 7.883,15.759 0.381,8.874 0,0"
         style="fill:#794039;fill-opacity:1;fill-rule:nonzero;stroke:none"
         id="path1354"
         inkscape:connector-curvature="0" />
    </g>
    <g
       id="g1356"
       transform="matrix(0.35277777,0,0,-0.35277777,-295.54831,62.795641)">
      <path
         d="m 0,0 c -0.41,-9.562 7.009,-17.646 16.571,-18.056 9.562,-0.41 17.646,7.009 18.056,16.571 0.41,9.562 -7.009,17.646 -16.571,18.056 C 8.494,16.981 0.41,9.562 0,0"
         style="fill:#faacae;fill-opacity:1;fill-rule:nonzero;stroke:none"
         id="path1358"
         inkscape:connector-curvature="0" />
    </g>
    <g
       id="g1360"
       transform="matrix(0.35277777,0,0,-0.35277777,-334.23216,42.042567)">
      <path
         d="m 0,0 c 0,0 -0.165,0.111 -0.475,0.319 -0.289,0.203 -0.713,0.5 -1.253,0.878 -0.512,0.369 -1.134,0.818 -1.847,1.332 -0.706,0.503 -1.447,1.091 -2.28,1.694 -0.793,0.641 -1.704,1.263 -2.618,1.956 -0.471,0.33 -0.972,0.644 -1.471,0.978 -0.244,0.173 -0.492,0.347 -0.741,0.523 -0.262,0.157 -0.526,0.316 -0.793,0.477 -0.526,0.329 -1.064,0.656 -1.591,1.018 -0.556,0.314 -1.118,0.631 -1.685,0.951 -1.1,0.715 -2.337,1.209 -3.538,1.804 -1.211,0.569 -2.502,0.956 -3.745,1.449 -1.297,0.348 -2.573,0.691 -3.808,1.023 -1.269,0.195 -2.505,0.41 -3.688,0.618 -0.591,0.134 -1.174,0.121 -1.738,0.176 -0.567,0.045 -1.114,0.085 -1.64,0.127 -1.056,0.079 -2.037,0.147 -2.901,0.147 h -2.261 c -1.273,0 -2,0.039 -2,0.039 0,0 0.682,0.231 1.901,0.601 0.614,0.18 1.36,0.399 2.216,0.649 0.857,0.285 1.85,0.435 2.942,0.599 1.092,0.147 2.283,0.422 3.557,0.467 1.274,0.041 2.632,0.097 4.043,0.098 1.397,-0.138 2.864,-0.234 4.347,-0.434 0.732,-0.161 1.469,-0.322 2.21,-0.484 0.736,-0.185 1.507,-0.283 2.222,-0.559 1.436,-0.526 2.937,-0.934 4.28,-1.649 0.682,-0.334 1.367,-0.653 2.015,-1.019 0.634,-0.391 1.241,-0.808 1.841,-1.211 C -7.284,11.779 -6.29,10.774 -5.309,9.9 -4.418,8.918 -3.53,8.051 -2.887,7.086 -2.197,6.17 -1.677,5.243 -1.263,4.404 -0.859,3.556 -0.581,2.778 -0.386,2.127 -0.199,1.473 -0.094,0.941 -0.047,0.569 0.002,0.202 0,0 0,0"
         style="fill:#794039;fill-opacity:1;fill-rule:nonzero;stroke:none"
         id="path1362"
         inkscape:connector-curvature="0" />
    </g>
    <g
       id="g1364"
       transform="matrix(0.35277777,0,0,-0.35277777,-302.27631,41.491104)">
      <path
         d="m 0,0 c 0,0 0.028,0.2 0.133,0.555 0.102,0.361 0.287,0.871 0.571,1.489 0.291,0.614 0.683,1.341 1.212,2.117 0.536,0.767 1.19,1.605 2.011,2.406 0.782,0.856 1.791,1.579 2.821,2.414 1.101,0.716 2.236,1.559 3.557,2.153 0.654,0.308 1.317,0.628 2.003,0.918 0.696,0.264 1.422,0.476 2.146,0.703 1.435,0.503 2.982,0.678 4.48,0.981 0.749,0.165 1.526,0.145 2.282,0.216 0.756,0.048 1.51,0.096 2.257,0.143 1.496,-0.027 2.961,-0.154 4.363,-0.229 1.395,-0.215 2.728,-0.476 3.982,-0.71 1.252,-0.236 2.388,-0.688 3.445,-0.999 1.054,-0.328 2.013,-0.626 2.817,-1.038 0.808,-0.377 1.513,-0.705 2.093,-0.976 1.148,-0.551 1.787,-0.881 1.787,-0.881 0,0 -0.72,0.098 -1.982,0.268 -0.619,0.095 -1.372,0.211 -2.235,0.343 -0.847,0.178 -1.834,0.209 -2.89,0.291 -0.526,0.038 -1.074,0.078 -1.641,0.119 -0.566,0.032 -1.14,0.133 -1.744,0.09 C 30.266,10.347 29.012,10.321 27.729,10.32 26.458,10.179 25.144,10.034 23.81,9.886 22.506,9.587 21.172,9.4 19.888,9.021 18.611,8.615 17.314,8.314 16.118,7.774 15.509,7.544 14.905,7.315 14.308,7.09 13.733,6.811 13.151,6.569 12.581,6.324 12.293,6.206 12.008,6.089 11.726,5.973 11.452,5.836 11.181,5.702 10.913,5.568 10.37,5.313 9.827,5.079 9.311,4.824 8.303,4.277 7.309,3.8 6.428,3.287 5.513,2.817 4.69,2.349 3.917,1.959 3.134,1.558 2.452,1.209 1.889,0.921 1.299,0.629 0.834,0.4 0.518,0.244 0.18,0.085 0,0 0,0"
         style="fill:#794039;fill-opacity:1;fill-rule:nonzero;stroke:none"
         id="path1366"
         inkscape:connector-curvature="0" />
    </g>
    <g
       id="g1368"
       transform="matrix(0.35277777,0,0,-0.35277777,-320.59211,63.203341)">
      <path
         d="M 0,0 C 6.236,-1.048 12.679,-0.851 18.839,0.574"
         style="fill:none;stroke:#794039;stroke-width:2.70499992;stroke-linecap:round;stroke-linejoin:round;stroke-miterlimit:10;stroke-dasharray:none;stroke-opacity:1"
         id="path1370"
         inkscape:connector-curvature="0" />
    </g>
    <g
       id="g1520"
       transform="matrix(0.35277777,0,0,-0.35277777,-282.80777,90.988891)">
      <path
         d="m 0,0 c -0.54,0.19 -1.107,0.4 -1.472,0.841 -0.531,0.644 -0.475,1.573 -0.381,2.402 2.511,22.047 13.226,43.064 29.592,58.048 3.235,0.613 6.769,-0.886 8.577,-3.638 C 22.63,39.716 10.294,19.417 8.773,-3.094 5.849,-2.063 2.924,-1.031 0,0"
         style="fill:#c69c6d;fill-opacity:1;fill-rule:nonzero;stroke:none"
         id="path1522"
         inkscape:connector-curvature="0" />
    </g>
    <g
       id="g1524"
       transform="matrix(0.35277777,0,0,-0.35277777,-282.80777,90.988891)">
      <path
         d="m 0,0 c -0.54,0.19 -1.107,0.4 -1.472,0.841 -0.531,0.644 -0.475,1.573 -0.381,2.402 2.511,22.047 13.226,43.064 29.592,58.048 3.235,0.613 6.769,-0.886 8.577,-3.638 C 22.63,39.716 10.294,19.417 8.773,-3.094 5.849,-2.063 2.924,-1.031 0,0 Z"
         style="fill:none;stroke:#794039;stroke-width:4.88999987;stroke-linecap:round;stroke-linejoin:round;stroke-miterlimit:10;stroke-dasharray:none;stroke-opacity:1"
         id="path1526"
         inkscape:connector-curvature="0" />
    </g>
    <g
       id="g1632"
       transform="matrix(0.35277777,0,0,-0.35277777,-277.62046,28.697442)">
      <path
         d="m 0,0 c 0,-23.226 -18.829,-42.055 -42.055,-42.055 -23.226,0 -42.054,18.829 -42.054,42.055 0,23.226 18.828,42.055 42.054,42.055 C -18.829,42.055 0,23.226 0,0"
         style="fill:#1a1a1a;fill-opacity:1;fill-rule:nonzero;stroke:none"
         id="path1634"
         inkscape:connector-curvature="0" />
    </g>
    <g
       id="g1636"
       transform="matrix(0.35277777,0,0,-0.35277777,-277.62046,28.697442)">
      <path
         d="m 0,0 c 0,-23.226 -18.829,-42.055 -42.055,-42.055 -23.226,0 -42.054,18.829 -42.054,42.055 0,23.226 18.828,42.055 42.054,42.055 C -18.829,42.055 0,23.226 0,0 Z"
         style="fill:none;stroke:#794039;stroke-width:4.88999987;stroke-linecap:round;stroke-linejoin:round;stroke-miterlimit:10;stroke-dasharray:none;stroke-opacity:1"
         id="path1638"
         inkscape:connector-curvature="0" />
    </g>
    <g
       id="g1656"
       transform="matrix(0.35277777,0,0,-0.35277777,-263.00421,37.064908)">
      <path
         d="m 0,0 c -39.346,6.269 -88.819,10.69 -150.969,13.351 -68.644,2.946 -122.063,2.43 -163.692,-1.363 0.734,15.814 1.608,31.078 3.17,45.535 1.927,17.813 4.892,34.408 9.93,49.301 16.396,48.494 54.749,78.977 150.592,74.866 C -55.643,177.606 -18.951,144.138 -5.884,94.823 -1.853,79.599 -0.073,62.858 0.483,45.012 0.933,30.661 0.596,15.582 0,0"
         style="fill:#1a1a1a;fill-opacity:1;fill-rule:nonzero;stroke:none"
         id="path1658"
         inkscape:connector-curvature="0" />
    </g>
    <g
       id="g1660"
       transform="matrix(0.35277777,0,0,-0.35277777,-263.00421,37.064908)">
      <path
         d="m 0,0 c -39.346,6.269 -88.819,10.69 -150.969,13.351 -68.644,2.946 -122.063,2.43 -163.692,-1.363 0.734,15.814 1.608,31.078 3.17,45.535 1.927,17.813 4.892,34.408 9.93,49.301 16.396,48.494 54.749,78.977 150.592,74.866 C -55.643,177.606 -18.951,144.138 -5.884,94.823 -1.853,79.599 -0.073,62.858 0.483,45.012 0.933,30.661 0.596,15.582 0,0 Z"
         style="fill:none;stroke:#794039;stroke-width:5.38700008;stroke-linecap:round;stroke-linejoin:round;stroke-miterlimit:10;stroke-dasharray:none;stroke-opacity:1"
         id="path1662"
         inkscape:connector-curvature="0" />
    </g>
    <g
       id="g1664"
       transform="matrix(0.35277777,0,0,-0.35277777,-268.12125,39.184326)">
      <path
         d="m 0,0 c -35.71,5.689 -80.613,9.703 -137.02,12.118 -62.301,2.673 -110.784,2.205 -148.567,-1.238 0.666,14.353 1.459,28.207 2.877,41.328 1.749,16.167 4.44,31.229 9.012,44.746 14.881,44.013 49.691,71.679 136.678,67.949 C -50.502,161.196 -17.2,130.82 -5.341,86.062 -1.682,72.244 -0.066,57.05 0.439,40.853 0.847,27.828 0.541,14.142 0,0"
         style="fill:#1a1a1a;fill-opacity:1;fill-rule:nonzero;stroke:none"
         id="path1666"
         inkscape:connector-curvature="0" />
    </g>
    <g
       id="g1668"
       transform="matrix(0.35277777,0,0,-0.35277777,-268.12125,39.184326)">
      <path
         d="m 0,0 c -35.71,5.689 -80.613,9.703 -137.02,12.118 -62.301,2.673 -110.784,2.205 -148.567,-1.238 0.666,14.353 1.459,28.207 2.877,41.328 1.749,16.167 4.44,31.229 9.012,44.746 14.881,44.013 49.691,71.679 136.678,67.949 C -50.502,161.196 -17.2,130.82 -5.341,86.062 -1.682,72.244 -0.066,57.05 0.439,40.853 0.847,27.828 0.541,14.142 0,0 Z"
         style="fill:none;stroke:#794039;stroke-width:4.88999987;stroke-linecap:round;stroke-linejoin:round;stroke-miterlimit:10;stroke-dasharray:none;stroke-opacity:1"
         id="path1670"
         inkscape:connector-curvature="0" />
    </g>
    <g
       id="g1672"
       transform="matrix(0.35277777,0,0,-0.35277777,-701.54324,334.82529)">
      <g
         id="g1674" />
      <g
         id="g1690">
        <g
           clip-path="url(#clipPath1678)"
           id="g1688"
           style="opacity:0.22000098">
          <g
             transform="translate(1224.4487,870.1744)"
             id="g1682">
            <path
               d="m 0,0 c -34.707,-2.367 -78.043,-1.778 -132.231,1.946 -59.849,4.106 -106.178,10.197 -141.986,18.438 -4.65,-102.21 -1.554,-168.018 128.51,-176.942 C -16.301,-165.444 -5.324,-101.136 0,0"
               style="fill:#ffffff;fill-opacity:1;fill-rule:nonzero;stroke:none"
               id="path1680"
               inkscape:connector-curvature="0" />
          </g>
          <g
             transform="translate(1224.4487,870.1744)"
             id="g1686">
            <path
               d="m 0,0 c -34.707,-2.367 -78.043,-1.778 -132.231,1.946 -59.849,4.106 -106.178,10.197 -141.986,18.438 -4.65,-102.21 -1.554,-168.018 128.51,-176.942 C -16.301,-165.444 -5.324,-101.136 0,0 Z"
               style="fill:none;stroke:#794039;stroke-width:5.12200022;stroke-linecap:round;stroke-linejoin:round;stroke-miterlimit:10;stroke-dasharray:none;stroke-opacity:1"
               id="path1684"
               inkscape:connector-curvature="0" />
          </g>
        </g>
      </g>
    </g>
    <g
       id="g1692"
       transform="matrix(0.35277777,0,0,-0.35277777,-267.9093,24.890935)">
      <path
         d="m 0,0 c -0.078,-7.251 -0.306,-14.749 -0.601,-22.493 -35.71,5.689 -80.613,9.702 -137.02,12.117 -62.301,2.674 -110.784,2.205 -148.567,-1.237 0.366,7.828 0.769,15.404 1.285,22.715 37.85,3.209 86.008,3.575 147.366,0.944 C -81.099,9.63 -36.005,5.635 0,0"
         style="fill:#1a1a1a;fill-opacity:1;fill-rule:nonzero;stroke:none"
         id="path1694"
         inkscape:connector-curvature="0" />
    </g>
    <g
       id="g1696"
       transform="matrix(0.35277777,0,0,-0.35277777,-267.9093,24.890935)">
      <path
         d="m 0,0 c -0.078,-7.251 -0.306,-14.749 -0.601,-22.493 -35.71,5.689 -80.613,9.702 -137.02,12.117 -62.301,2.674 -110.784,2.205 -148.567,-1.237 0.366,7.828 0.769,15.404 1.285,22.715 37.85,3.209 86.008,3.575 147.366,0.944 C -81.099,9.63 -36.005,5.635 0,0 Z"
         style="fill:none;stroke:#794039;stroke-width:4.88999987;stroke-linecap:round;stroke-linejoin:round;stroke-miterlimit:10;stroke-dasharray:none;stroke-opacity:1"
         id="path1698"
         inkscape:connector-curvature="0" />
    </g>
    <g
       id="g1700"
       transform="matrix(0.35277777,0,0,-0.35277777,-267.96652,24.772225)">
      <path
         d="m 0,0 c -40.054,3.238 -83.941,5.876 -132.022,7.936 -55.734,2.391 -105.923,3.521 -151.126,3.419 1.748,16.167 4.44,31.228 9.011,44.746 42.962,-0.09 90.244,-1.238 142.284,-3.473 45.647,-1.952 87.569,-4.421 126.074,-7.419 C -2.121,31.391 -0.505,16.197 0,0"
         style="fill:#c69c6d;fill-opacity:1;fill-rule:nonzero;stroke:none"
         id="path1702"
         inkscape:connector-curvature="0" />
    </g>
    <g
       id="g1704"
       transform="matrix(0.35277777,0,0,-0.35277777,-267.96652,24.772225)">
      <path
         d="m 0,0 c -40.054,3.238 -83.941,5.876 -132.022,7.936 -55.734,2.391 -105.923,3.521 -151.126,3.419 1.748,16.167 4.44,31.228 9.011,44.746 42.962,-0.09 90.244,-1.238 142.284,-3.473 45.647,-1.952 87.569,-4.421 126.074,-7.419 C -2.121,31.391 -0.505,16.197 0,0 Z"
         style="fill:none;stroke:#794039;stroke-width:4.88999987;stroke-linecap:round;stroke-linejoin:round;stroke-miterlimit:10;stroke-dasharray:none;stroke-opacity:1"
         id="path1706"
         inkscape:connector-curvature="0" />
    </g>
    <g
       id="g1708"
       transform="matrix(0.35277777,0,0,-0.35277777,-329.97025,12.801734)">
      <path
         d="m 0,0 c 0,-23.226 -18.829,-42.055 -42.055,-42.055 -23.226,0 -42.054,18.829 -42.054,42.055 0,23.226 18.828,42.055 42.054,42.055 C -18.829,42.055 0,23.226 0,0"
         style="fill:#1a1a1a;fill-opacity:1;fill-rule:nonzero;stroke:none"
         id="path1710"
         inkscape:connector-curvature="0" />
    </g>
    <g
       id="g1712"
       transform="matrix(0.35277777,0,0,-0.35277777,-329.97025,12.801734)">
      <path
         d="m 0,0 c 0,-23.226 -18.829,-42.055 -42.055,-42.055 -23.226,0 -42.054,18.829 -42.054,42.055 0,23.226 18.828,42.055 42.054,42.055 C -18.829,42.055 0,23.226 0,0 Z"
         style="fill:none;stroke:#794039;stroke-width:4.88999987;stroke-linecap:round;stroke-linejoin:round;stroke-miterlimit:10;stroke-dasharray:none;stroke-opacity:1"
         id="path1714"
         inkscape:connector-curvature="0" />
    </g>
    <g
       id="g1716"
       transform="matrix(0.35277777,0,0,-0.35277777,-334.42103,12.801734)">
      <path
         d="m 0,0 c 0,-16.258 -13.18,-29.438 -29.438,-29.438 -16.259,0 -29.439,13.18 -29.439,29.438 0,16.258 13.18,29.438 29.439,29.438 C -13.18,29.438 0,16.258 0,0"
         style="fill:#808080;fill-opacity:1;fill-rule:nonzero;stroke:none"
         id="path1718"
         inkscape:connector-curvature="0" />
    </g>
    <g
       id="g1720"
       transform="matrix(0.35277777,0,0,-0.35277777,-334.42103,12.801734)">
      <path
         d="m 0,0 c 0,-16.258 -13.18,-29.438 -29.438,-29.438 -16.259,0 -29.439,13.18 -29.439,29.438 0,16.258 13.18,29.438 29.439,29.438 C -13.18,29.438 0,16.258 0,0 Z"
         style="fill:none;stroke:#794039;stroke-width:4.88999987;stroke-linecap:round;stroke-linejoin:round;stroke-miterlimit:10;stroke-dasharray:none;stroke-opacity:1"
         id="path1722"
         inkscape:connector-curvature="0" />
    </g>
    <g
       id="g1724"
       transform="matrix(0.35277777,0,0,-0.35277777,-280.16378,12.801734)">
      <path
         d="m 0,0 c 0,-23.226 -18.829,-42.055 -42.055,-42.055 -23.226,0 -42.054,18.829 -42.054,42.055 0,23.226 18.828,42.055 42.054,42.055 C -18.829,42.055 0,23.226 0,0"
         style="fill:#1a1a1a;fill-opacity:1;fill-rule:nonzero;stroke:none"
         id="path1726"
         inkscape:connector-curvature="0" />
    </g>
    <g
       id="g1728"
       transform="matrix(0.35277777,0,0,-0.35277777,-280.16378,12.801734)">
      <path
         d="m 0,0 c 0,-23.226 -18.829,-42.055 -42.055,-42.055 -23.226,0 -42.054,18.829 -42.054,42.055 0,23.226 18.828,42.055 42.054,42.055 C -18.829,42.055 0,23.226 0,0 Z"
         style="fill:none;stroke:#794039;stroke-width:4.88999987;stroke-linecap:round;stroke-linejoin:round;stroke-miterlimit:10;stroke-dasharray:none;stroke-opacity:1"
         id="path1730"
         inkscape:connector-curvature="0" />
    </g>
    <g
       id="g1732"
       transform="matrix(0.35277777,0,0,-0.35277777,-284.61456,12.801734)">
      <path
         d="m 0,0 c 0,-16.258 -13.18,-29.438 -29.438,-29.438 -16.259,0 -29.439,13.18 -29.439,29.438 0,16.258 13.18,29.438 29.439,29.438 C -13.18,29.438 0,16.258 0,0"
         style="fill:#808080;fill-opacity:1;fill-rule:nonzero;stroke:none"
         id="path1734"
         inkscape:connector-curvature="0" />
    </g>
    <g
       id="g1736"
       transform="matrix(0.35277777,0,0,-0.35277777,-284.61456,12.801734)">
      <path
         d="m 0,0 c 0,-16.258 -13.18,-29.438 -29.438,-29.438 -16.259,0 -29.439,13.18 -29.439,29.438 0,16.258 13.18,29.438 29.439,29.438 C -13.18,29.438 0,16.258 0,0 Z"
         style="fill:none;stroke:#794039;stroke-width:4.88999987;stroke-linecap:round;stroke-linejoin:round;stroke-miterlimit:10;stroke-dasharray:none;stroke-opacity:1"
         id="path1738"
         inkscape:connector-curvature="0" />
    </g>
    <g
       id="g1740"
       transform="matrix(0.35277777,0,0,-0.35277777,-366.44743,53.143421)">
      <path
         d="m 0,0 c 3.799,-19.591 11.386,-37.08 21.144,-54.658 -9.679,2.63 -19.359,5.26 -29.038,7.889 -1.045,0.284 -2.119,0.582 -2.981,1.237 -1.367,1.039 -1.965,2.778 -2.486,4.414 -6.087,19.128 -11.086,38.582 -17.38,57.536 -3.331,10.032 -5.803,20.349 -7.38,30.802 -0.566,3.751 -1.015,7.594 -0.296,11.318 0.535,2.771 1.699,5.377 2.902,7.929 5.529,11.73 11.764,23.131 17.835,34.609 0.646,1.222 1.311,2.468 2.327,3.405 3.881,3.575 11.053,1.259 14.643,5.127 C -4.567,105.452 -3.977,87.725 -4.573,82.015 -5.64,71.804 -6.311,61.551 -6.585,51.287 -7.074,32.991 -3.447,17.777 0,0"
         style="fill:#1a1a1a;fill-opacity:1;fill-rule:nonzero;stroke:none"
         id="path1742"
         inkscape:connector-curvature="0" />
    </g>
    <g
       id="g1744"
       transform="matrix(0.35277777,0,0,-0.35277777,-366.44743,53.143421)">
      <path
         d="m 0,0 c 3.799,-19.591 11.386,-37.08 21.144,-54.658 -9.679,2.63 -19.359,5.26 -29.038,7.889 -1.045,0.284 -2.119,0.582 -2.981,1.237 -1.367,1.039 -1.965,2.778 -2.486,4.414 -6.087,19.128 -11.086,38.582 -17.38,57.536 -3.331,10.032 -5.803,20.349 -7.38,30.802 -0.566,3.751 -1.015,7.594 -0.296,11.318 0.535,2.771 1.699,5.377 2.902,7.929 5.529,11.73 11.764,23.131 17.835,34.609 0.646,1.222 1.311,2.468 2.327,3.405 3.881,3.575 11.053,1.259 14.643,5.127 C -4.567,105.452 -3.977,87.725 -4.573,82.015 -5.64,71.804 -6.311,61.551 -6.585,51.287 -7.074,32.991 -3.447,17.777 0,0 Z"
         style="fill:none;stroke:#794039;stroke-width:4.88999987;stroke-linecap:round;stroke-linejoin:round;stroke-miterlimit:10;stroke-dasharray:none;stroke-opacity:1"
         id="path1746"
         inkscape:connector-curvature="0" />
    </g>
    <g
       id="g1748"
       transform="matrix(0.35277777,0,0,-0.35277777,-270.72761,55.898691)">
      <path
         d="m 0,0 c -3.799,-19.591 -11.386,-37.08 -21.144,-54.658 9.679,2.63 19.359,5.26 29.038,7.889 1.045,0.284 2.119,0.582 2.981,1.237 1.367,1.039 1.965,2.778 2.486,4.414 6.087,19.128 11.086,38.582 17.38,57.536 3.331,10.032 5.803,20.349 7.38,30.802 0.566,3.751 1.015,7.594 0.296,11.318 -0.535,2.771 -1.699,5.377 -2.902,7.929 -5.529,11.73 -11.765,23.131 -17.835,34.609 -0.646,1.222 -1.311,2.468 -2.327,3.405 C 11.472,108.056 4.3,105.74 0.71,109.608 4.567,105.452 3.977,87.725 4.573,82.015 5.64,71.804 6.311,61.551 6.585,51.287 7.074,32.991 3.447,17.777 0,0"
         style="fill:#1a1a1a;fill-opacity:1;fill-rule:nonzero;stroke:none"
         id="path1750"
         inkscape:connector-curvature="0" />
    </g>
    <g
       id="g1752"
       transform="matrix(0.35277777,0,0,-0.35277777,-270.72761,55.898691)">
      <path
         d="m 0,0 c -3.799,-19.591 -11.386,-37.08 -21.144,-54.658 9.679,2.63 19.359,5.26 29.038,7.889 1.045,0.284 2.119,0.582 2.981,1.237 1.367,1.039 1.965,2.778 2.486,4.414 6.087,19.128 11.086,38.582 17.38,57.536 3.331,10.032 5.803,20.349 7.38,30.802 0.566,3.751 1.015,7.594 0.296,11.318 -0.535,2.771 -1.699,5.377 -2.902,7.929 -5.529,11.73 -11.765,23.131 -17.835,34.609 -0.646,1.222 -1.311,2.468 -2.327,3.405 C 11.472,108.056 4.3,105.74 0.71,109.608 4.567,105.452 3.977,87.725 4.573,82.015 5.64,71.804 6.311,61.551 6.585,51.287 7.074,32.991 3.447,17.777 0,0 Z"
         style="fill:none;stroke:#794039;stroke-width:4.88999987;stroke-linecap:round;stroke-linejoin:round;stroke-miterlimit:10;stroke-dasharray:none;stroke-opacity:1"
         id="path1754"
         inkscape:connector-curvature="0" />
    </g>
    <g
       id="g1756"
       transform="matrix(0.35277777,0,0,-0.35277777,-313.4522,72.505881)">
      <path
         d="m 0,0 c 23.146,0.461 46.281,1.429 69.385,2.905 6.066,0.387 12.16,0.814 18.087,2.162 20.014,4.554 37.093,20.283 43.276,39.855"
         style="fill:none;stroke:#794039;stroke-width:4.88999987;stroke-linecap:round;stroke-linejoin:round;stroke-miterlimit:10;stroke-dasharray:none;stroke-opacity:1"
         id="path1758"
         inkscape:connector-curvature="0" />
    </g>
    <g
       id="g1760"
       transform="matrix(0.35277777,0,0,-0.35277777,-314.71039,76.172511)">
      <path
         d="m 0,0 h -16.822 c -5.972,0 -10.814,4.842 -10.814,10.814 0,5.972 4.842,10.814 10.814,10.814 H 0 c 5.972,0 10.814,-4.842 10.814,-10.814 C 10.814,4.842 5.972,0 0,0"
         style="fill:#1a1a1a;fill-opacity:1;fill-rule:nonzero;stroke:none"
         id="path1762"
         inkscape:connector-curvature="0" />
    </g>
    <g
       id="g1764"
       transform="matrix(0.35277777,0,0,-0.35277777,-314.71039,76.172511)">
      <path
         d="m 0,0 h -16.822 c -5.972,0 -10.814,4.842 -10.814,10.814 0,5.972 4.842,10.814 10.814,10.814 H 0 c 5.972,0 10.814,-4.842 10.814,-10.814 C 10.814,4.842 5.972,0 0,0 Z"
         style="fill:none;stroke:#794039;stroke-width:4.88999987;stroke-linecap:round;stroke-linejoin:round;stroke-miterlimit:10;stroke-dasharray:none;stroke-opacity:1"
         id="path1766"
         inkscape:connector-curvature="0" />
    </g>
    <g
       id="g1792"
       transform="matrix(0.35277777,0,0,-0.35277777,-363.18664,79.406041)">
      <path
         d="m 0,0 h -0.001 l -29.787,46.498 v 0.001 z"
         style="fill:#bfbfbf;fill-opacity:1;fill-rule:nonzero;stroke:none"
         id="path1794"
         inkscape:connector-curvature="0" />
    </g>
    <g
       id="g1856"
       transform="matrix(0.35277777,0,0,-0.35277777,-368.6512,48.131581)">
      <path
         d="m 0,0 0.001,-0.001 -5.42,-3.472 z"
         style="fill:#0e171a;fill-opacity:1;fill-rule:nonzero;stroke:none"
         id="path1858"
         inkscape:connector-curvature="0" />
    </g>
  </g>
</svg>
