<?xml version="1.0" encoding="utf-8"?>
<!-- Generator: Adobe Illustrator 16.0.0, SVG Export Plug-In . SVG Version: 6.00 Build 0)  -->
<!DOCTYPE svg PUBLIC "-//W3C//DTD SVG 1.1//EN" "http://www.w3.org/Graphics/SVG/1.1/DTD/svg11.dtd">
<svg version="1.1" id="Layer_1" xmlns="http://www.w3.org/2000/svg" xmlns:xlink="http://www.w3.org/1999/xlink" x="0px" y="0px"
	 width="314px" height="196px" viewBox="0 -55 314 196" enable-background="new 0 -55 314 196" xml:space="preserve">
<g>
	<path fill="#4D4D4F" d="M16,5.2h9v7.3h0.2c2.3-5,8.3-8.5,15.6-8.5C50,4,58,9.5,58,22.1v30.5h-9v-28c0-8.9-5.101-12.2-10.8-12.2
		c-7.5,0-13.2,4.8-13.2,15.8V52.6h-9V5.2z"/>
	<path fill="#4D4D4F" d="M71.9,32.2c0,8.3,7.7,13.8,16,13.8c5.5,0,9.5-2.8,13-7.1l6.801,5.2c-5,6.5-11.9,9.7-21,9.7
		c-15,0-24.4-10.8-24.4-24.9C62.3,14.7,72.6,4,86.8,4c16.7,0,23.1,12.8,23.1,25v3.2H71.9z M100.3,25c-0.2-7.9-4.6-13.8-13.7-13.8
		c-8.899,0-14.7,7.5-14.7,13.8H100.3z"/>
	<path fill="#4D4D4F" d="M127.1,27.3L110.3,5.2h11.6L133.4,22L144.7,5.2H155.6l-16.2,22.1l19.2,25.3H147L133,32.7L119,52.6H107.9
		L127.1,27.3z"/>
	<path fill="#4D4D4F" d="M161,5.2h8.399v7.4h0.2c0.9-2.8,6.7-8.6,15.2-8.6c7,0,11.8,3,14.8,8.8C202.8,7,209,4,214.7,4
		c14.6,0,18,10.4,18,21v27.6h-9V26.2c0-7.2-1.5-13.8-10.2-13.8S201.4,18.3,201.4,26.7V52.6h-9V27.8c0-9-1.3-15.4-10-15.4
		c-6.5,0-12.3,4.9-12.3,15.6v24.6h-9V5.2H161z"/>
	<circle fill="#0088CE" cx="264.2" cy="28.4" r="5.8"/>
	<g>
		<path fill="#4D4D4F" d="M264,12.4c8.1,0,14.8,5.8,16.3,13.5H277l7.7,7.6l7.699-7.6H288.5C287,13.6,276.5,4,263.8,4
			c-10.3,0-19.2,6.3-22.9,15.2l7.801,3C251.3,16.5,257.2,12.4,264,12.4z"/>
		<path fill="#4D4D4F" d="M264,45.5c-8,0-14.601-5.6-16.2-13.1h3.5l-7.7-7.6l-7.7,7.6h3.5C241.1,44.5,251.5,53.8,264,53.8
			c10.3,0,19.1-6.2,22.899-15.2l-7.8-3C276.5,41.4,270.7,45.5,264,45.5z"/>
	</g>
	<g>
		<g>
			<g>
				<g>
					<path fill="#4D4D4F" d="M304.199,10c0,3.1-2.6,5.8-5.8,5.8c-3.199,0-5.8-2.6-5.8-5.8s2.5-5.8,5.8-5.8
						C301.699,4.1,304.199,6.8,304.199,10z M303.1,10c0-2.6-2-4.7-4.6-4.7c-2.7,0-4.7,2.2-4.7,4.7c0,2.6,2,4.7,4.7,4.7
						C301,14.7,303.1,12.6,303.1,10z M299.3,10.7L301,13h-1.2l-1.5-2.3h-0.9V13h-1V6.9h2.2c1.4,0,2.1,0.8,2.1,2
						C300.699,9.8,300.199,10.4,299.3,10.7z M297.4,9.9h1c0.9,0,1.3-0.5,1.3-1c0-0.6-0.399-1-1.2-1h-1.1V9.9L297.4,9.9z"/>
				</g>
			</g>
		</g>
	</g>
	<g>
		<path fill="#4D4D4F" d="M40.5,70.3h-5.7V69h12.8v1.3H42v10.5h-1.4V70.3H40.5z"/>
		<path fill="#4D4D4F" d="M49.2,69h1.3v4.5c0.899-0.8,2.1-1.5,3.6-1.5c1.101,0,3.5,0.2,3.5,3.1V80.7h-1.3v-5.3
			c0-2-1.4-2.301-2.3-2.301c-1.4,0-2.601,0.9-3.4,1.7v5.9h-1.3V69H49.2z"/>
		<path fill="#4D4D4F" d="M68.3,79c-0.9,0.9-1.7,2-4.6,2C60.9,81,58.9,79.1,58.9,76.5c0-2.7,2-4.4,4.601-4.4c2.7,0,5.1,1.4,5,4.801
			h-8.3c0.1,1.6,1.399,3.1,3.6,3.1s2.9-1,3.4-1.6L68.3,79z M67.2,75.7c-0.301-1.4-1.5-2.5-3.5-2.5c-1.9,0-3,1-3.4,2.5H67.2z"/>
		<path fill="#FF8300" d="M74.7,69h2.5l4.399,9.4l4.5-9.4h2.5l-5.8,11.8h-2.4L74.7,69z"/>
		<path fill="#FF8300" d="M87.2,76.4C87.2,74.1,88.6,71.8,92.1,71.8S97,74.1,97,76.4c0,3.5-2.5,4.6-4.9,4.6
			C89.7,81,87.2,79.9,87.2,76.4z M94.9,76.4c0-2-1.3-2.9-2.8-2.9s-2.8,0.8-2.8,2.9c0,1.8,1,3,2.8,3S94.9,78.2,94.9,76.4z"/>
		<path fill="#FF8300" d="M97.9,72.1h2V73.2c0.601-0.601,1.5-1.4,3.301-1.4c1.8,0,3.399,0.8,3.399,3.4v5.6h-2V76
			c0-1.7-0.5-2.4-1.899-2.4c-1.601,0-2.2,0.7-2.7,1.301v6h-2V72.1H97.9z"/>
		<path fill="#FF8300" d="M117,79.4c0,0.6,0,1.199,0.2,1.399H115.1c-0.1-0.3-0.1-0.6-0.1-0.899c-0.8,0.5-2.101,1.199-3.8,1.199
			c-1.101,0-3.4-0.5-3.4-2.6c0-2.9,4.4-3.3,7.2-3.5v-0.4c0-0.699-0.601-1.1-2.2-1.1c-1.8,0-2.2,0.7-2.3,1.1H108.4
			c0.5-2.399,2.801-2.8,4.4-2.8c4.2,0,4.3,2,4.3,3.2v4.4H117z M115,76.4c-1.2,0-2.2,0.199-3.101,0.399c-1.199,0.3-1.8,0.7-1.8,1.5
			c0,0.7,0.5,1.2,1.5,1.2c1.5,0,2.7-0.7,3.5-1.1v-2H115z"/>
		<path fill="#FF8300" d="M128.5,73.5c-0.2,0-0.5-0.2-0.7-0.1c-0.2,0-0.5,0.1-0.6,0.199c0.1,0.2,0.399,0.7,0.399,1.4
			c0,2.4-2.1,3.2-4.399,3.2c-0.801,0-1.4-0.101-1.801-0.3c-0.199,0.1-0.5,0.399-0.5,0.699c0,0.301,0.2,0.5,1.9,0.5h2.7
			c2,0.101,3.1,0.601,3.1,2c0,2.101-3,2.7-5.6,2.7c-2.4,0-4.5-0.5-4.5-1.899c0-1,0.899-1.2,1.7-1.301l0,0
			c-0.7-0.1-1.301-0.5-1.301-1.3c0-0.899,0.801-1.5,1.5-1.6l0,0c-1-0.5-1.399-1.4-1.399-2.5c0-2.601,2.3-3.2,4.5-3.2
			c1.5,0,2.399,0.4,3,0.8c0.3-0.3,1-0.899,1.8-0.899h0.3v1.6H128.5z M121.7,80.9c-0.5,0-1.101,0.1-1.101,0.6c0,0.7,0.9,0.8,2.5,0.8
			c1.601,0,3.3-0.2,3.3-0.899c0-0.601-0.399-0.601-2.6-0.601h-2.1V80.9z M125.6,75c0-1.3-1.3-1.7-2.399-1.7
			c-1.101,0-2.301,0.4-2.301,1.7c0,1.4,1.2,1.7,2.301,1.7C124.2,76.7,125.6,76.3,125.6,75z"/>
		<path fill="#FF8300" d="M138.9,78.2c-0.1,0.7-1.3,2.899-4.5,2.899c-3.1,0-5-1.899-5-4.699c0-2.5,1.601-4.601,4.801-4.601
			c3.3,0,4.8,2.101,4.8,5.2H131.4c0.101,0.5,0.4,2.4,2.9,2.5c1.3,0,2.1-0.6,2.4-1.3H138.9z M136.9,75.4c-0.3-1.5-1.3-2-2.699-2
			c-1.101,0-2.301,0.399-2.7,2H136.9z"/>
		<path fill="#FF8300" d="M141.5,70.4c1.3,0,2.399,1.1,2.399,2.399s-1.1,2.4-2.399,2.4s-2.4-1.101-2.4-2.4S140.2,70.4,141.5,70.4z
			 M141.5,74.8c1.1,0,2-0.899,2-2c0-1.1-0.9-2-2-2c-1.101,0-2,0.9-2,2C139.5,74,140.4,74.8,141.5,74.8z M141.5,73H141v1.3h-0.4V71.4
			h1.101c0.6,0,0.899,0.3,0.899,0.8s-0.3,0.7-0.7,0.8l0.9,1.3h-0.5L141.5,73z M140.9,72.6h0.601c0.399,0,0.7,0,0.7-0.5
			c0-0.399-0.301-0.399-0.7-0.399H140.9V72.6z"/>
		<path fill="#4D4D4F" d="M154.2,69h1.699l6,11.7h-1.6l-1.5-3.101h-7.6l-1.5,3.101H148.1L154.2,69z M158.2,76.5l-3.2-6.3l-3.2,6.3
			H158.2z"/>
		<path fill="#4D4D4F" d="M163.8,69h6.9c2.399,0,4.5,0.7,4.5,3.4c0,2.699-2.2,3.399-4.5,3.399h-5.5v5h-1.4V69z M165.2,74.5h5.1
			c2.4,0,3.6-0.5,3.6-2.1c0-1.601-1.199-2.101-3.6-2.101h-5.1V74.5z"/>
		<path fill="#4D4D4F" d="M177.2,69h1.399v11.7H177.2V69z"/>
		<path fill="#4D4D4F" d="M187.6,69h6.9c2.399,0,4.5,0.7,4.5,3.4c0,2.699-2.2,3.399-4.5,3.399H189v5h-1.4V69z M189,74.5h5.1
			c2.4,0,3.601-0.5,3.601-2.1c0-1.601-1.2-2.101-3.601-2.101H189V74.5z"/>
		<path fill="#4D4D4F" d="M200.6,69h1.3v11.7h-1.3V69z"/>
		<path fill="#4D4D4F" d="M212.6,79.5c0,0.5,0.101,0.9,0.101,1.3H211.4c-0.1-0.3-0.199-0.7-0.199-1c-1.2,0.8-2.601,1.3-4.2,1.3
			c-1.4,0-3.4-0.399-3.4-2.6c0-2.9,4.4-3,7.7-3.4v-0.3c0-1.1-1.4-1.6-2.7-1.6c-2.2,0-3,0.899-3.5,1.399l-1-0.699
			c0.5-0.601,1.4-1.801,4.3-1.801c1.9,0,4.101,0.601,4.101,2.7v4.7H212.6z M211.3,76.1c-3.8,0.4-6.4,0.7-6.4,2.4
			c0,1.3,1.5,1.5,2.101,1.5c1.8,0,3.5-0.9,4.3-1.3V76.1L211.3,76.1z"/>
		<path fill="#4D4D4F" d="M220.5,73.4h-3.4v5.1c0,0.9,0.4,1.4,1.7,1.4c0.6,0,1.1-0.101,1.9-0.301V80.7c-0.9,0.1-1.601,0.2-2.101,0.2
			c-2.8,0-2.8-1.7-2.8-2.4v-5.2H214v-1.1h1.8v-2.8h1.3v2.8h3.4V73.4L220.5,73.4z"/>
		<path fill="#4D4D4F" d="M223.9,73.6h-2.1v-1.1h2.1v-0.6c0-1.4,0.4-3.101,3-3.101c1.301,0,1.9,0.101,2.2,0.2v1.2
			c-0.6-0.101-1.1-0.3-1.8-0.3c-1.8,0-2.1,0.899-2.1,2.1v0.5h3.5v1.1h-3.5v7.2H223.9V73.6L223.9,73.6z"/>
		<path fill="#4D4D4F" d="M229.3,76.4c0-2.4,1.9-4.301,4.9-4.301S239.1,74,239.1,76.4c0,3-2,4.6-4.899,4.6
			C231.3,81,229.3,79.4,229.3,76.4z M237.7,76.6c0-1.5-1-3.399-3.601-3.399c-2.6,0-3.6,1.8-3.6,3.399c0,2,1.399,3.4,3.6,3.4
			S237.7,78.6,237.7,76.6z"/>
		<path fill="#4D4D4F" d="M240.8,72.3h1.3v1.8c0.8-0.899,1.8-2,3.5-2c0.3,0,0.5,0,0.8,0.101v1.3c-0.199,0-0.5-0.1-1.1-0.1
			c-1.9,0-3.2,2.1-3.2,2.399V80.9h-1.3V72.3z"/>
		<path fill="#4D4D4F" d="M247.9,72.3h1.301v1.2c1-0.8,2-1.4,3.399-1.4c1.8,0,2.3,0.9,2.7,1.5c1.3-1.1,2.2-1.5,3.4-1.5
			c0.8,0,3.1,0.2,3.1,2.601v6.1h-1.3v-5.6c0-0.5,0-2-1.9-2c-1.5,0-2.6,1-3.1,1.5v6.1h-1.3v-5.6c0-0.5,0-2-1.801-2
			c-1.5,0-2.6,1-3.1,1.5v6.1H248v-8.5H247.9z"/>
	</g>
</g>
</svg>
