<?xml version="1.0" ?><svg viewBox="0 0 64 64" xmlns="http://www.w3.org/2000/svg"><g id="flat"><rect height="58" rx="16" ry="16" style="fill:#49d3ff" width="36" x="14" y="3"/><path d="M34,61H30A16,16,0,0,1,14,45V28H50V45A16,16,0,0,1,34,61Z" style="fill:#00bfff"/><path d="M18,39v4A14,14,0,0,0,32,57h0A14,14,0,0,0,46,43V39Z" style="fill:#ffc14c"/><path d="M46,28H18V21A14,14,0,0,1,32,7h0A14,14,0,0,1,46,21Z" style="fill:#065a7e"/><path d="M37,28H27V26.422a24.778,24.778,0,0,1,3.119-12.036L32,11l1.881,3.386A24.778,24.778,0,0,1,37,26.422Z" style="fill:#ff86b1"/><path d="M33.881,14.386,32,11l-1.881,3.386a24.779,24.779,0,0,0-2.6,7.028,7.183,7.183,0,0,0,8.96,0A24.748,24.748,0,0,0,33.881,14.386Z" style="fill:#ff4d8c"/><path d="M46.52,34h-10V32.422a24.788,24.788,0,0,1,3.118-12.036L41.52,17,43.4,20.386A24.789,24.789,0,0,1,46.52,32.422Z" style="fill:#ff86b1"/><path d="M43.4,20.386,41.52,17l-1.882,3.386a24.779,24.779,0,0,0-2.6,7.028,7.185,7.185,0,0,0,8.961,0A24.779,24.779,0,0,0,43.4,20.386Z" style="fill:#ff4d8c"/><path d="M27.52,34h-10V32.422a24.788,24.788,0,0,1,3.118-12.036L22.52,17,24.4,20.386A24.789,24.789,0,0,1,27.52,32.422Z" style="fill:#ff86b1"/><path d="M24.4,20.386,22.52,17l-1.882,3.386a24.779,24.779,0,0,0-2.6,7.028,7.185,7.185,0,0,0,8.961,0A24.779,24.779,0,0,0,24.4,20.386Z" style="fill:#ff4d8c"/><path d="M48,39H12.5A5.5,5.5,0,0,1,7,33.5H7A5.5,5.5,0,0,1,12.5,28H48Z" style="fill:#a7efff"/><path d="M31.485,53h0a5.906,5.906,0,0,1-.613-.031,5.67,5.67,0,0,1-4.26-8.224L28.485,41,29,39h5l.485,2,1.872,3.745A5.669,5.669,0,0,1,32.1,52.969,5.906,5.906,0,0,1,31.485,53Z" style="fill:#00a3da"/><circle cx="31.485" cy="47" r="2" style="fill:#ffc14c"/><path d="M32,20a.99.99,0,0,1-1-1,.99.99,0,0,1,1.38-.92,1.169,1.169,0,0,1,.33.21A1.05,1.05,0,0,1,33,19a1,1,0,0,1-.08.38,1.169,1.169,0,0,1-.21.33A.994.994,0,0,1,32,20Z" style="fill:#a7efff"/><path d="M41.52,25.02a.978.978,0,0,1-.38-.081,1,1,0,0,1-.33-.219.966.966,0,0,1-.21-.321.834.834,0,0,1-.08-.379,1,1,0,0,1,.08-.38.911.911,0,0,1,.21-.33.986.986,0,0,1,.91-.27,1.062,1.062,0,0,1,.179.05.881.881,0,0,1,.17.1.6.6,0,0,1,.16.121.911.911,0,0,1,.21.33.93.93,0,0,1,0,.759.966.966,0,0,1-.21.321A1,1,0,0,1,41.52,25.02Z" style="fill:#a7efff"/><path d="M22.52,25a.994.994,0,0,1-.71-.29,1.147,1.147,0,0,1-.21-.33.838.838,0,0,1-.08-.38,1,1,0,0,1,.08-.38,1.015,1.015,0,0,1,.21-.33,1.046,1.046,0,0,1,1.419,0,1.015,1.015,0,0,1,.21.33.932.932,0,0,1,0,.76,1.147,1.147,0,0,1-.21.33,1.418,1.418,0,0,1-.33.22A1,1,0,0,1,22.52,25Z" style="fill:#a7efff"/><path d="M19,36H5a1,1,0,0,1,0-2H19a1,1,0,0,1,0,2Z" style="fill:#49d3ff"/><path d="M23,36a1,1,0,0,1-.38-.08,1.155,1.155,0,0,1-.33-.21,1.523,1.523,0,0,1-.221-.33A1,1,0,0,1,22,35a1.045,1.045,0,0,1,.29-.71,1.032,1.032,0,0,1,.33-.21,1,1,0,0,1,1.09.21A1.05,1.05,0,0,1,24,35a1,1,0,0,1-.08.38.9.9,0,0,1-.54.54A1,1,0,0,1,23,36Z" style="fill:#49d3ff"/><path d="M43,36H27a1,1,0,0,1,0-2H43a1,1,0,0,1,0,2Z" style="fill:#49d3ff"/><path d="M10,25a1,1,0,0,1-1-1V20a1,1,0,0,1,2,0v4A1,1,0,0,1,10,25Z" style="fill:#a7efff"/><path d="M10,17a.99.99,0,0,1-1-1,1,1,0,1,1,2,0,.99.99,0,0,1-1,1Z" style="fill:#a7efff"/><path d="M54,43a1,1,0,0,1-1-1V32a1,1,0,0,1,2,0V42A1,1,0,0,1,54,43Z" style="fill:#a7efff"/><path d="M54,29a1,1,0,0,1-.38-.08,1.155,1.155,0,0,1-.33-.21A.99.99,0,0,1,53,28a.838.838,0,0,1,.08-.38,1.032,1.032,0,0,1,.21-.33.955.955,0,0,1,.16-.12.556.556,0,0,1,.17-.09.6.6,0,0,1,.19-.06.925.925,0,0,1,.57.06,1.043,1.043,0,0,1,.33.21,1.155,1.155,0,0,1,.21.33.99.99,0,0,1-.21,1.09,1.169,1.169,0,0,1-.33.21A1,1,0,0,1,54,29Z" style="fill:#a7efff"/><path d="M10,48a1,1,0,0,1-1-1V43a1,1,0,0,1,2,0v4A1,1,0,0,1,10,48Z" style="fill:#a7efff"/><path d="M47.5,28H50a0,0,0,0,1,0,0V39a0,0,0,0,1,0,0H47.5A5.5,5.5,0,0,1,42,33.5v0A5.5,5.5,0,0,1,47.5,28Z" style="fill:#00a3da"/></g></svg>