<?xml version="1.0" ?><svg id="Layer_1" style="enable-background:new 0 0 1200 1200;" version="1.1" viewBox="0 0 1200 1200" xml:space="preserve" xmlns="http://www.w3.org/2000/svg" xmlns:xlink="http://www.w3.org/1999/xlink"><g><path d="M967.543,957.002v-2.552c0-1.985-0.536-3.691-2.486-4.064l-231.459-47.943l-499.611,76.149   c-1.628,0.247-1.415,1.647-1.415,3.294v4.301c0,1.281-0.464,2.448,0.69,3.003l198.65,95.81l533.601-123.967   C967.389,960.598,967.543,958.927,967.543,957.002z" style="fill:#F5D300;"/><path d="M965.382,950.131l-230.813-56.915c-0.087-0.021-0.178-0.025-0.267-0.01l-501.299,85.471   c-0.629,0.107-0.749,0.959-0.174,1.236l198.678,95.727c0.135,0.065,0.287,0.082,0.433,0.048l533.445-123.75   C966.341,951.715,966.34,950.351,965.382,950.131z" style="fill:#FFEA68;"/><polygon points="960.407,348.763 960.407,339.503 724.672,339.442 246.843,316.5 246.843,325.76    436.729,251.431  " style="fill:#F5D300;"/><polygon points="955.376,339.503 724.816,382.268 239.436,316.5 430.806,239.043  " style="fill:#F5D300;"/><path d="M405.25,261.581L239.436,325.76v651.736l180.206,82.906c7.243,3.332,15.377,4.207,23.163,2.492   l512.57-112.923V348.763l-497.625-92.087C440.134,253.416,421.958,255.114,405.25,261.581z" style="fill:#643C20;"/><path d="M955.529,255.823v83.607l-500.925-95.16c-7.871-1.512-15.896-1.852-23.798-1.019l0,0l-20.588,4.784   c-0.175,0.055-0.349,0.11-0.524,0.165l-170.258,68.296v-92.279c0-6.604,3.623-12.676,9.434-15.812l153.446-82.815   c18.304-9.877,39.694-12.501,59.849-7.346l482.531,123.621C951.071,243.498,955.529,249.242,955.529,255.823z" style="fill:#F2E3CE;"/><g><path d="M731.835,426.457C619.239,413.444,516.45,520.058,516.45,666.208    c0,146.17,102.788,248.215,215.385,230.198c99.449-15.913,171.948-122.112,171.948-238.804    C903.784,540.926,831.284,437.95,731.835,426.457z M707.66,865.967c-7.363-8.827-15.045-18.041-24.199-20.437    c-3.318-0.877-6.878-0.941-10.608-0.473c-7.18,0.901-14.953,3.764-22.635,6.595c-12.203,4.476-24.997,9.181-31.898,4.28    c-7.086-5.036-8.559-20.223-10.002-34.924c-1.378-14.065-2.792-28.643-9.24-38.177c-6.392-9.456-18.353-14.583-30.071-19.613    c-12.604-5.393-25.825-11.065-28.819-21.018c-2.807-9.384,4.222-23.425,10.97-36.921c6.648-13.301,13.475-26.943,13.475-40.142    c0-13.18-6.827-26.518-13.475-39.524c-6.748-13.196-13.778-26.945-10.97-36.434c2.995-10.086,16.215-16.346,28.819-22.299    c11.719-5.551,23.679-11.209,30.071-20.949c6.448-9.82,7.862-24.461,9.24-38.606c1.443-14.746,2.916-29.998,10.002-35.349    c6.9-5.208,19.695-1.09,31.898,2.862c11.664,3.776,23.561,7.607,33.243,4.644c9.154-2.803,16.836-12.358,24.199-21.513    c7.948-9.87,16.085-19.978,24.175-19.102c8.014,0.868,15.924,12.509,23.508,23.667c6.904,10.169,13.987,20.603,22.268,24.682    c8.578,4.24,18.859,2.385,28.697,0.611c10.046-1.81,20.291-3.636,25.704,1.955c5.478,5.662,6.607,19.197,7.697,32.246    c1.05,12.481,2.137,25.362,6.984,34.357c4.768,8.807,13.502,14.309,21.848,19.562c8.789,5.537,17.767,11.197,19.769,19.536    c1.867,7.802-2.826,18.936-7.391,29.765c-4.556,10.812-9.296,22.048-9.296,33.066c0,11.035,4.74,22.06,9.296,32.67    c4.565,10.627,9.257,21.536,7.391,29.437c-2.002,8.429-10.98,14.487-19.769,20.399c-8.346,5.641-17.081,11.531-21.848,20.55    c-4.847,9.21-5.934,22.14-6.984,34.651c-1.09,13.114-2.219,26.699-7.697,32.605c-5.413,5.832-15.658,4.444-25.704,3.098    c-9.838-1.337-20.133-2.734-28.697,1.886c-8.281,4.447-15.364,15.196-22.268,25.672c-7.584,11.479-15.495,23.488-23.508,24.712    C723.745,885.231,715.608,875.484,707.66,865.967z" style="fill:#EAD6BE;"/><g><path d="M864.212,658.482c0-7.111,3.724-15.93,7.312-24.404c4.897-11.55,9.913-23.426,7.223-34.575     c-2.806-11.664-12.4-17.657-21.794-23.526c-6.565-4.105-13.418-8.385-16.442-13.949c-3.092-5.705-3.934-15.727-4.755-25.42     c-1.159-13.802-2.365-28.1-10.061-35.982c-7.69-7.862-18.628-5.855-29.349-3.882c-7.734,1.432-15.807,2.919-21.289,0.249     c-5.177-2.524-10.657-10.542-15.975-18.363c-7.953-11.641-16.234-23.791-27.246-24.887c-11.156-1.111-19.752,9.621-28.146,20.104     c-5.725,7.161-11.675,14.595-17.383,16.39c-6.138,1.922-15.311-1.003-24.262-3.87c-12.721-4.055-26.067-8.304-35.694-0.945     c-9.817,7.533-11.374,23.579-12.875,39.12c-1.051,10.943-2.147,22.282-6.205,28.501c-3.988,6.115-13.134,10.485-22.07,14.755     c-13.073,6.239-26.78,12.781-30.875,26.702c-3.942,13.411,3.399,27.823,10.436,41.644c5.106,10.021,10.367,20.343,10.367,28.762     c0,8.435-5.261,18.992-10.367,29.24c-7.038,14.134-14.378,28.855-10.436,42.091c4.096,13.756,17.803,19.689,30.875,25.347     c8.936,3.873,18.082,7.836,22.07,13.774c4.059,6.039,5.155,17.33,6.205,28.226c1.501,15.474,3.058,31.452,12.875,38.531     c9.612,6.95,22.972,2.106,35.694-2.531c8.951-3.248,18.123-6.581,24.262-4.932c5.708,1.541,11.658,8.711,17.383,15.601     c8.393,10.11,16.99,20.475,28.146,18.869c11.011-1.586,19.292-14.12,27.246-26.114c5.318-8.043,10.798-16.304,15.975-19.058     c5.482-2.914,13.555-1.786,21.289-0.713c10.721,1.511,21.66,3.033,29.349-5.186c7.696-8.209,8.902-22.56,10.061-36.414     c0.821-9.729,1.663-19.789,4.755-25.632c3.024-5.699,9.878-10.283,16.442-14.68c9.395-6.286,18.988-12.706,21.794-24.509     c2.69-11.269-2.325-22.908-7.223-34.24C867.936,674.261,864.212,665.608,864.212,658.482z M871.631,714.135     c-1.808,7.522-9.908,12.893-17.828,18.128c-7.512,4.989-15.364,10.193-19.646,18.201c-4.35,8.173-5.325,19.679-6.268,30.812     c-0.977,11.667-1.99,23.752-6.901,28.953c-4.849,5.133-14.016,3.791-22.992,2.49c-8.778-1.289-17.952-2.633-25.574,1.376     c-7.361,3.854-13.651,13.299-19.776,22.495c-6.722,10.066-13.725,20.587-20.812,21.563c-7.146,0.983-14.327-7.732-21.333-16.232     c-6.483-7.876-13.241-16.088-21.284-18.301c-2.912-0.809-6.037-0.905-9.308-0.533c-6.293,0.715-13.098,3.147-19.817,5.549     c-10.658,3.793-21.814,7.774-27.823,3.394c-6.164-4.497-7.445-17.826-8.699-30.726c-1.198-12.34-2.427-25.128-8.027-33.529     c-5.547-8.325-15.913-12.89-26.053-17.361c-10.888-4.786-22.289-9.81-24.869-18.511c-2.417-8.199,3.637-20.424,9.455-32.185     c5.737-11.602,11.633-23.512,11.633-35.047c0-11.518-5.897-23.166-11.633-34.513c-5.818-11.503-11.873-23.476-9.455-31.765     c2.58-8.815,13.981-14.346,24.869-19.616c10.14-4.921,20.506-9.947,26.053-18.518c5.6-8.65,6.829-21.492,8.027-33.902     c1.254-12.94,2.535-26.325,8.699-31.096c6.009-4.648,17.165-1.179,27.823,2.157c10.204,3.192,20.629,6.435,29.125,3.721     c8.043-2.57,14.8-11.083,21.284-19.247c7.006-8.812,14.186-17.845,21.333-17.18c7.087,0.66,14.09,10.855,20.812,20.637     c6.125,8.924,12.415,18.089,19.776,21.616c7.634,3.671,16.796,1.918,25.574,0.239c8.977-1.715,18.144-3.449,22.992,1.469     c4.911,4.983,5.923,17.023,6.901,28.632c0.942,11.105,1.917,22.568,6.268,30.548c4.282,7.817,12.134,12.672,19.646,17.313     c7.92,4.897,16.02,9.908,17.828,17.35c1.686,6.964-2.551,16.925-6.671,26.609c-4.108,9.662-8.381,19.696-8.381,29.529     c0,9.848,4.272,19.692,8.381,29.171C869.08,697.323,873.317,707.082,871.631,714.135z" style="fill:#441505;"/><path d="M864.961,687.822c4.119,9.5,8.357,19.26,6.671,26.312c-1.808,7.522-9.908,12.893-17.828,18.128     c-7.512,4.989-15.364,10.193-19.646,18.201c-4.35,8.173-5.325,19.679-6.268,30.812c-0.977,11.667-1.99,23.752-6.901,28.953     c-4.849,5.133-14.016,3.791-22.992,2.49c-8.778-1.289-17.952-2.633-25.574,1.376c-7.361,3.854-13.651,13.299-19.776,22.495     c-6.722,10.066-13.725,20.587-20.812,21.563c-7.146,0.983-14.327-7.732-21.333-16.232c-6.483-7.876-13.241-16.088-21.284-18.301     c-2.912-0.809-6.037-0.905-9.308-0.533c-6.293,0.715-13.098,3.147-19.817,5.549c-10.658,3.793-21.814,7.774-27.823,3.394     c-6.164-4.497-7.445-17.826-8.699-30.726c-1.198-12.34-2.427-25.128-8.027-33.529c-5.547-8.325-15.913-12.89-26.053-17.361     c-10.888-4.786-22.289-9.81-24.869-18.511c-2.417-8.199,3.637-20.424,9.455-32.185c5.737-11.602,11.633-23.512,11.633-35.047     c0-11.518-5.897-23.166-11.633-34.513c-5.818-11.503-11.873-23.476-9.455-31.765c2.58-8.815,13.981-14.346,24.869-19.616     c10.14-4.921,20.506-9.947,26.053-18.518c5.6-8.65,6.829-21.492,8.027-33.902c1.254-12.94,2.535-26.325,8.699-31.096     c6.009-4.648,17.165-1.179,27.823,2.157c10.204,3.192,20.629,6.435,29.125,3.721c8.043-2.57,14.8-11.083,21.284-19.247     c7.006-8.812,14.186-17.845,21.333-17.18c7.087,0.66,14.09,10.855,20.812,20.637c6.125,8.924,12.415,18.089,19.776,21.616     c7.634,3.671,16.796,1.918,25.574,0.239c8.977-1.715,18.144-3.449,22.992,1.469c4.911,4.983,5.923,17.023,6.901,28.632     c0.942,11.105,1.917,22.568,6.268,30.548c4.282,7.817,12.134,12.672,19.646,17.313c7.92,4.897,16.02,9.908,17.828,17.35     c1.686,6.964-2.551,16.925-6.671,26.609c-4.108,9.662-8.381,19.696-8.381,29.529C856.58,668.499,860.852,678.343,864.961,687.822     z" style="fill:#EAD6BE;"/></g><g><g><g><path d="M726.719,621.682c-1.075,40.387-25.758,68.84-55.801,62.166       c-30.849-6.854-53.973-47.572-50.987-89.44c2.885-40.459,29.143-65.393,58.068-57.098       C706.212,545.401,727.759,582.593,726.719,621.682z" style="fill:#441505;"/></g></g><g><g><path d="M677.999,537.31c0,0-0.262,0.458-0.755,1.319c-0.486,0.859-1.091,2.203-1.863,3.866       c-0.733,1.706-1.498,3.842-2.288,6.298c-0.732,2.506-1.41,5.383-1.926,8.575c-0.201,1.628-0.527,3.259-0.544,5.071       c-0.083,1.784-0.319,3.56-0.21,5.5c0.001,1.905,0.015,3.854,0.303,5.902c0.198,2.028,0.342,4.08,0.804,6.212       c0.357,2.117,0.686,4.26,1.324,6.448c0.574,2.184,1.025,4.389,1.848,6.609c1.332,4.461,3.239,8.925,5.078,13.41l2.984,7.538       c1.001,2.305,1.692,5.349,2.511,7.963c0.898,2.729,1.307,5.362,1.794,7.982c0.566,2.613,0.828,5.215,0.994,7.767       c0.271,2.557,0.32,5.056,0.189,7.474c0.005,2.44-0.279,4.763-0.582,7.009c-0.5,4.529-1.657,8.581-2.955,12.126       c-1.25,3.596-2.866,6.598-4.411,9.123c-1.545,2.544-3.175,4.508-4.547,6.061c-2.809,3.089-4.83,4.287-4.83,4.287       s0.28-0.539,0.805-1.546c0.518-1.004,1.161-2.556,1.976-4.47c0.77-1.953,1.575-4.368,2.397-7.128       c0.754-2.795,1.457-5.969,1.981-9.456c0.2-1.768,0.53-3.539,0.541-5.482c0.089-1.907,0.316-3.814,0.199-5.867       c-0.008-2.017-0.03-4.073-0.332-6.218c-0.21-2.122-0.351-4.261-0.831-6.47c-0.37-2.191-0.698-4.403-1.353-6.651       c-0.587-2.233-1.047-4.53-1.844-6.667c-0.808-2.24-1.232-4.205-2.302-6.701l-2.83-6.974l-3.053-7.766       c-1.086-2.552-1.62-5.263-2.433-7.851c-0.849-2.588-1.241-5.228-1.711-7.805c-0.551-2.57-0.78-5.112-0.921-7.594       c-0.252-2.482-0.264-4.891-0.11-7.207c0.02-2.334,0.325-4.535,0.647-6.654c0.537-4.253,1.722-7.987,3.017-11.218       c2.562-6.465,6.041-10.742,8.689-13.311C676.103,538.238,677.999,537.31,677.999,537.31z" style="fill:#EBD8CC;"/></g></g></g><g><g><g><path d="M802.565,736.114c-25.617,31.242-62.563,38.58-82.2,14.884       c-20.164-24.332-13.459-70.676,14.575-101.915c27.091-30.189,63.122-33.781,80.883-9.491       C833.146,663.285,827.358,705.877,802.565,736.114z" style="fill:#441505;"/></g></g><g><g><path d="M815.823,639.593c0,0-0.489,0.201-1.405,0.579c-0.911,0.381-2.213,1.071-3.843,1.911       c-1.625,0.898-3.54,2.116-5.67,3.571c-2.115,1.531-4.415,3.387-6.78,5.592c-1.157,1.163-2.415,2.251-3.539,3.672       c-1.16,1.358-2.436,2.617-3.539,4.215c-1.168,1.505-2.351,3.053-3.38,4.848c-1.088,1.723-2.232,3.432-3.174,5.4       c-1.016,1.891-2.07,3.785-2.909,5.905c-0.885,2.077-1.882,4.095-2.593,6.354c-1.683,4.341-2.915,9.036-4.213,13.706       l-2.266,7.784c-0.623,2.435-1.944,5.263-2.899,7.83c-0.964,2.706-2.256,5.037-3.478,7.405       c-1.156,2.411-2.544,4.628-3.978,6.745c-1.354,2.186-2.848,4.19-4.434,6.019c-1.493,1.93-3.141,3.591-4.758,5.179       c-3.173,3.271-6.571,5.762-9.77,7.766c-3.193,2.074-6.31,3.454-9.079,4.501c-2.78,1.062-5.272,1.614-7.309,2       c-4.113,0.718-6.444,0.424-6.444,0.424s0.552-0.254,1.585-0.728c1.025-0.476,2.484-1.307,4.302-2.319       c1.806-1.07,3.923-2.485,6.264-4.16c2.31-1.745,4.812-3.821,7.364-6.255c1.242-1.273,2.589-2.47,3.789-3.998       c1.24-1.452,2.589-2.819,3.756-4.512c1.231-1.598,2.474-3.236,3.551-5.115c1.135-1.805,2.335-3.581,3.311-5.621       c1.052-1.958,2.149-3.906,3.01-6.083c0.906-2.123,1.951-4.221,2.631-6.397c0.736-2.265,1.605-4.076,2.291-6.705l2.041-7.244       l2.351-8.007c0.707-2.682,1.949-5.151,2.893-7.694c0.916-2.565,2.226-4.891,3.435-7.214c1.141-2.367,2.519-4.516,3.93-6.564       c1.323-2.115,2.791-4.026,4.333-5.76c1.447-1.831,3.038-3.383,4.592-4.859c3.032-3.03,6.259-5.253,9.262-7.011       c5.988-3.536,11.359-4.78,15.026-5.186C813.756,639.163,815.823,639.593,815.823,639.593z" style="fill:#EBD8CC;"/></g></g></g></g><polygon points="301.168,291.514 239.436,316.5 239.436,977.496 301.168,1005.896  " style="opacity:0.05;"/><polygon points="271.845,303.382 239.436,316.5 239.436,977.496 271.845,992.406  " style="opacity:0.05;"/><path d="M239.436,224.463V316.5l32.408-13.117l29.324-11.869V180.179l-52.081,28.108   C243.142,211.496,239.436,217.707,239.436,224.463z" style="opacity:0.03;"/><path d="M407.013,123.626l-46.424,25.799v118.038l34.721-13.409l10.643-4.501   c16.204-6.853,34.077-8.744,51.356-5.435l84.615,16.205V138.677l-84.738-21.561C440.243,112.805,422.294,115.134,407.013,123.626z" style="opacity:0.03;"/><path d="M239.436,223.111V316.5l32.409-13.118l-0.001-106.48l-23.85,12.212   C242.741,211.804,239.436,217.209,239.436,223.111z" style="opacity:0.03;"/><path d="M455.151,243.814c-15.084-2.87-30.67-1.457-44.992,4.078h0l-49.571,19.571l0.768,766.124   l69.449,31.951v-0.014l111.118-24.477V260.323L455.151,243.814z" style="opacity:0.06;"/><path d="M869.104,222.499v746.476l86.272-19.004l0.15-693.003c0.002-7.254-4.913-13.587-11.94-15.388   L869.104,222.499z" style="opacity:0.05;"/><path d="M405.315,124.713l-10.006,5.417v919.065l23.397,10.763   c7.85,3.611,16.665,4.559,25.104,2.701l42.553-9.374V124.443l-22.05-6.249C444.55,112.593,423.38,114.932,405.315,124.713z" style="opacity:0.06;fill:#FFFFFF;"/><path d="M915.403,234.36v724.416l39.973-8.805l0.15-693.825c0.002-6.771-4.585-12.682-11.144-14.362   L915.403,234.36z" style="opacity:0.05;"/><path d="M405.141,124.666l-9.832,5.464l-1.3,124.427l16.309-6.876c13.347-5.627,28.082-7.099,42.278-4.221   l33.768,6.844v-125.86l-27.093-6.846C440.986,112.976,421.627,115.504,405.141,124.666z" style="opacity:0.03;"/></g></svg>