<?xml version="1.0" ?><svg data-name="006" height="128" id="_006" viewBox="0 0 128 128" width="128" xmlns="http://www.w3.org/2000/svg" xmlns:xlink="http://www.w3.org/1999/xlink"><defs><clipPath id="clip-path"><circle cx="64.014" cy="68" r="56" style="fill:#97c1ff"/></clipPath><clipPath id="clip-path-2"><path d="M120.144,67.856a56.144,56.144,0,0,1-112.288,0C7.856,4,10,0,64,0,121.33333,0,120.144,9,120.144,67.856Z" style="fill:none"/></clipPath></defs><title/><g style="opacity:0.30000000000000004"><circle cx="64.014" cy="68" r="56" style="fill:#97c1ff"/><g style="clip-path:url(#clip-path)"><rect height="21" style="fill:#f2eed5" width="6" x="84.00008" y="54.00382"/><path d="M90,76.00391H84a.99942.99942,0,0,1-1-1v-21a.99942.99942,0,0,1,1-1h6a.99942.99942,0,0,1,1,1v21A.99942.99942,0,0,1,90,76.00391Zm-5-2h4v-19H85Z" style="fill:#6d6daa"/><rect height="6" style="fill:#fffad1" width="50" x="74.0005" y="75.00573"/><path d="M124.001,82.00586h-50a.99942.99942,0,0,1-1-1v-6a.99942.99942,0,0,1,1-1h50a.99942.99942,0,0,1,1,1v6A.99942.99942,0,0,1,124.001,82.00586Zm-49-2h48v-4h-48Z" style="fill:#6d6daa"/><rect height="21" style="fill:#e0f3ff" width="6" x="102.0005" y="54.00573"/><path d="M108.001,76.00586h-6a.99942.99942,0,0,1-1-1v-21a.99942.99942,0,0,1,1-1h6a.99942.99942,0,0,1,1,1v21A.99942.99942,0,0,1,108.001,76.00586Zm-5-2h4v-19h-4Z" style="fill:#6d6daa"/><rect height="21" style="fill:#ff968c" width="6" x="108.0005" y="54.00573"/><path d="M114.001,76.00586h-6a.99942.99942,0,0,1-1-1v-21a.99942.99942,0,0,1,1-1h6a.99942.99942,0,0,1,1,1v21A.99942.99942,0,0,1,114.001,76.00586Zm-5-2h4v-19h-4Z" style="fill:#6d6daa"/><rect height="21" style="fill:#e0f3ff" width="6" x="95.99948" y="54.00382"/><path d="M101.999,76.00391h-6a.99942.99942,0,0,1-1-1v-21a.99942.99942,0,0,1,1-1h6a.99942.99942,0,0,1,1,1v21A.99942.99942,0,0,1,101.999,76.00391Zm-5-2h4v-19h-4Z" style="fill:#6d6daa"/><rect height="21" style="fill:#ff968c" width="6" x="90.00008" y="54.00382"/><path d="M96,76.00391H90a.99942.99942,0,0,1-1-1v-21a.99942.99942,0,0,1,1-1h6a.99942.99942,0,0,1,1,1v21A.99942.99942,0,0,1,96,76.00391Zm-5-2h4v-19H91Z" style="fill:#6d6daa"/><rect height="21" style="fill:#fff2cc" width="6" x="114.0005" y="54.00573"/><path d="M120.001,76.00586h-6a.99942.99942,0,0,1-1-1v-21a.99942.99942,0,0,1,1-1h6a.99942.99942,0,0,1,1,1v21A.99942.99942,0,0,1,120.001,76.00586Zm-5-2h4v-19h-4Z" style="fill:#6d6daa"/><rect height="21" style="fill:#f2eed5" width="6" x="7.00008" y="54.00574"/><path d="M13,76.00586H7a.99942.99942,0,0,1-1-1v-21a.99942.99942,0,0,1,1-1h6a.99942.99942,0,0,1,1,1v21A.99942.99942,0,0,1,13,76.00586Zm-5-2h4v-19H8Z" style="fill:#6d6daa"/><rect height="6" style="fill:#fffad1" width="48" x="3.0005" y="75.00764"/><path d="M51.001,82.00781h-48a.99942.99942,0,0,1-1-1v-6a.99942.99942,0,0,1,1-1h48a.99942.99942,0,0,1,1,1v6A.99942.99942,0,0,1,51.001,82.00781Zm-47-2h46v-4h-46Z" style="fill:#6d6daa"/><rect height="6" style="fill:#fffad1" width="50" x="74.0005" y="106"/><path d="M124.001,113h-50a.99942.99942,0,0,1-1-1v-6a.99942.99942,0,0,1,1-1h50a.99942.99942,0,0,1,1,1v6A.99942.99942,0,0,1,124.001,113Zm-49-2h48v-4h-48Z" style="fill:#6d6daa"/><rect height="6" style="fill:#fffad1" width="50" x="3.0005" y="106.00191"/><path d="M53.001,113.002h-50a.99942.99942,0,0,1-1-1v-6a.99942.99942,0,0,1,1-1h50a.99942.99942,0,0,1,1,1v6A.99942.99942,0,0,1,53.001,113.002Zm-49-2h48v-4h-48Z" style="fill:#6d6daa"/><rect height="21" style="fill:#e0f3ff" width="6" x="25.0005" y="54.00764"/><path d="M31.001,76.00781h-6a.99942.99942,0,0,1-1-1v-21a.99942.99942,0,0,1,1-1h6a.99942.99942,0,0,1,1,1v21A.99942.99942,0,0,1,31.001,76.00781Zm-5-2h4v-19h-4Z" style="fill:#6d6daa"/><rect height="21" style="fill:#ff968c" width="6" x="31.0005" y="54.00764"/><path d="M37.001,76.00781h-6a.99942.99942,0,0,1-1-1v-21a.99942.99942,0,0,1,1-1h6a.99942.99942,0,0,1,1,1v21A.99942.99942,0,0,1,37.001,76.00781Zm-5-2h4v-19h-4Z" style="fill:#6d6daa"/><rect height="21" style="fill:#e0f3ff" width="6" x="13.0005" y="54.00574"/><path d="M19.001,76.00586h-6a.99942.99942,0,0,1-1-1v-21a.99942.99942,0,0,1,1-1h6a.99942.99942,0,0,1,1,1v21A.99942.99942,0,0,1,19.001,76.00586Zm-5-2h4v-19h-4Z" style="fill:#6d6daa"/><rect height="21" style="fill:#fff2cc" width="6" x="37.0005" y="54.00764"/><path d="M43.001,76.00781h-6a.99942.99942,0,0,1-1-1v-21a.99942.99942,0,0,1,1-1h6a.99942.99942,0,0,1,1,1v21A.99942.99942,0,0,1,43.001,76.00781Zm-5-2h4v-19h-4Z" style="fill:#6d6daa"/><rect height="21" style="fill:#f2eed5" width="6" x="87" y="23"/><path d="M93,45H87a.99942.99942,0,0,1-1-1V23a.99942.99942,0,0,1,1-1h6a.99942.99942,0,0,1,1,1V44A.99942.99942,0,0,1,93,45Zm-5-2h4V24H88Z" style="fill:#6d6daa"/><rect height="21" style="fill:#e0f3ff" width="6" x="98.9994" y="23"/><path d="M104.999,45h-6a.99942.99942,0,0,1-1-1V23a.99942.99942,0,0,1,1-1h6a.99942.99942,0,0,1,1,1V44A.99942.99942,0,0,1,104.999,45Zm-5-2h4V24h-4Z" style="fill:#6d6daa"/><rect height="21" style="fill:#e0f3ff" width="6" x="73" y="23"/><path d="M79,45H73a.99942.99942,0,0,1-1-1V23a.99942.99942,0,0,1,1-1h6a.99942.99942,0,0,1,1,1V44A.99942.99942,0,0,1,79,45Zm-5-2h4V24H74Z" style="fill:#6d6daa"/><rect height="21" style="fill:#ff968c" width="6" x="93" y="23"/><path d="M99,45H93a.99942.99942,0,0,1-1-1V23a.99942.99942,0,0,1,1-1h6a.99942.99942,0,0,1,1,1V44A.99942.99942,0,0,1,99,45Zm-5-2h4V24H94Z" style="fill:#6d6daa"/><rect height="21" style="fill:#ff968c" width="6" x="61" y="23"/><path d="M67,45H61a.99942.99942,0,0,1-1-1V23a.99942.99942,0,0,1,1-1h6a.99942.99942,0,0,1,1,1V44A.99942.99942,0,0,1,67,45Zm-5-2h4V24H62Z" style="fill:#6d6daa"/><rect height="21" style="fill:#ff968c" width="6" x="67" y="23"/><path d="M73,45H67a.99942.99942,0,0,1-1-1V23a.99942.99942,0,0,1,1-1h6a.99942.99942,0,0,1,1,1V44A.99942.99942,0,0,1,73,45Zm-5-2h4V24H68Z" style="fill:#6d6daa"/><rect height="21" style="fill:#f2eed5" transform="translate(98 67.00383) rotate(180)" width="6" x="46" y="23.00191"/><path d="M52,45.002H46a.99942.99942,0,0,1-1-1v-21a.99942.99942,0,0,1,1-1h6a.99942.99942,0,0,1,1,1v21A.99942.99942,0,0,1,52,45.002Zm-5-2h4v-19H47Z" style="fill:#6d6daa"/><rect height="6" style="fill:#fffad1" width="120.9995" x="3.0005" y="44.00382"/><path d="M124,51.00391H3.001a.99942.99942,0,0,1-1-1v-6a.99942.99942,0,0,1,1-1H124a.99942.99942,0,0,1,1,1v6A.99942.99942,0,0,1,124,51.00391Zm-119.999-2H123v-4H4.001Z" style="fill:#6d6daa"/><rect height="21" style="fill:#e0f3ff" transform="translate(85.99917 67.00383) rotate(180)" width="6" x="39.99959" y="23.00191"/><path d="M46,45.002H40a.99942.99942,0,0,1-1-1v-21a.99942.99942,0,0,1,1-1h6a.99942.99942,0,0,1,1,1v21A.99942.99942,0,0,1,46,45.002Zm-5-2h4v-19H41Z" style="fill:#6d6daa"/><rect height="21" style="fill:#f2eed5" transform="translate(76.00099 191.00764) rotate(180)" width="6" x="35.0005" y="85.00382"/><path d="M41.001,107.00391h-6a.99942.99942,0,0,1-1-1v-21a.99942.99942,0,0,1,1-1h6a.99942.99942,0,0,1,1,1v21A.99942.99942,0,0,1,41.001,107.00391Zm-5-2h4v-19h-4Z" style="fill:#6d6daa"/><rect height="21" style="fill:#e0f3ff" transform="translate(40.00017 191.01146) rotate(180)" width="6" x="17.00008" y="85.00573"/><path d="M23,107.00586H17a.99942.99942,0,0,1-1-1v-21a.99942.99942,0,0,1,1-1h6a.99942.99942,0,0,1,1,1v21A.99942.99942,0,0,1,23,107.00586Zm-5-2h4v-19H18Z" style="fill:#6d6daa"/><rect height="21" style="fill:#ff968c" transform="translate(20 191.01146) rotate(180)" width="6" x="7" y="85.00573"/><path d="M13,107.00586H7a.99942.99942,0,0,1-1-1v-21a.99942.99942,0,0,1,1-1h6a.99942.99942,0,0,1,1,1v21A.99942.99942,0,0,1,13,107.00586Zm-5-2h4v-19H8Z" style="fill:#6d6daa"/><rect height="21" style="fill:#e0f3ff" transform="translate(52.00219 191.00764) rotate(180)" width="6" x="23.0011" y="85.00382"/><path d="M29.001,107.00391h-6a.99942.99942,0,0,1-1-1v-21a.99942.99942,0,0,1,1-1h6a.99942.99942,0,0,1,1,1v21A.99942.99942,0,0,1,29.001,107.00391Zm-5-2h4v-19h-4Z" style="fill:#6d6daa"/><rect height="21" style="fill:#ff968c" transform="translate(64.00099 191.00764) rotate(180)" width="6" x="29.0005" y="85.00382"/><path d="M35.001,107.00391h-6a.99942.99942,0,0,1-1-1v-21a.99942.99942,0,0,1,1-1h6a.99942.99942,0,0,1,1,1v21A.99942.99942,0,0,1,35.001,107.00391Zm-5-2h4v-19h-4Z" style="fill:#6d6daa"/><rect height="21" style="fill:#f2eed5" transform="translate(238.01784 191.01147) rotate(180)" width="6" x="116.00892" y="85.00574"/><path d="M122.00879,107.00586h-6a.99942.99942,0,0,1-1-1v-21a.99942.99942,0,0,1,1-1h6a.99942.99942,0,0,1,1,1v21A.99942.99942,0,0,1,122.00879,107.00586Zm-5-2h4v-19h-4Z" style="fill:#6d6daa"/><rect height="21" style="fill:#e0f3ff" transform="translate(214.00099 191.01529) rotate(180)" width="6" x="104.0005" y="85.00764"/><path d="M110.001,107.00781h-6a.99942.99942,0,0,1-1-1v-21a.99942.99942,0,0,1,1-1h6a.99942.99942,0,0,1,1,1v21A.99942.99942,0,0,1,110.001,107.00781Zm-5-2h4v-19h-4Z" style="fill:#6d6daa"/><rect height="21" style="fill:#ff968c" transform="translate(202.00099 191.01529) rotate(180)" width="6" x="98.0005" y="85.00764"/><path d="M104.001,107.00781h-6a.99942.99942,0,0,1-1-1v-21a.99942.99942,0,0,1,1-1h6a.99942.99942,0,0,1,1,1v21A.99942.99942,0,0,1,104.001,107.00781Zm-5-2h4v-19h-4Z" style="fill:#6d6daa"/><rect height="21" style="fill:#e0f3ff" transform="translate(226.00182 191.01147) rotate(180)" width="6" x="110.00091" y="85.00574"/><path d="M116.001,107.00586h-6a.99942.99942,0,0,1-1-1v-21a.99942.99942,0,0,1,1-1h6a.99942.99942,0,0,1,1,1v21A.99942.99942,0,0,1,116.001,107.00586Zm-5-2h4v-19h-4Z" style="fill:#6d6daa"/><rect height="21" style="fill:#fff2cc" transform="translate(190.00099 191.01529) rotate(180)" width="6" x="92.0005" y="85.00764"/><path d="M98.001,107.00781h-6a.99942.99942,0,0,1-1-1v-21a.99942.99942,0,0,1,1-1h6a.99942.99942,0,0,1,1,1v21A.99942.99942,0,0,1,98.001,107.00781Zm-5-2h4v-19h-4Z" style="fill:#6d6daa"/><g style="opacity:0.5"><path d="M99,27.999H93a1,1,0,0,1,0-2h6a1,1,0,0,1,0,2Z" style="fill:#6d6daa"/><path d="M99,40.999H93a1,1,0,0,1,0-2h6a1,1,0,0,1,0,2Z" style="fill:#6d6daa"/></g><g style="opacity:0.5"><path d="M105,27.999H99a1,1,0,0,1,0-2h6a1,1,0,0,1,0,2Z" style="fill:#6d6daa"/><path d="M105,40.999H99a1,1,0,0,1,0-2h6a1,1,0,0,1,0,2Z" style="fill:#6d6daa"/><path d="M105,27.999H99a1,1,0,0,1,0-2h6a1,1,0,0,1,0,2Z" style="fill:#231f20"/><path d="M105,40.999H99a1,1,0,0,1,0-2h6a1,1,0,0,1,0,2Z" style="fill:#231f20"/></g><g style="opacity:0.5"><path d="M93,27.999H87a1,1,0,0,1,0-2h6a1,1,0,0,1,0,2Z" style="fill:#6d6daa"/><path d="M93,40.999H87a1,1,0,0,1,0-2h6a1,1,0,0,1,0,2Z" style="fill:#6d6daa"/><path d="M93,27.999H87a1,1,0,0,1,0-2h6a1,1,0,0,1,0,2Z" style="fill:#231f20"/><path d="M93,40.999H87a1,1,0,0,1,0-2h6a1,1,0,0,1,0,2Z" style="fill:#231f20"/></g><g style="opacity:0.5"><path d="M73,27.999H67a1,1,0,0,1,0-2h6a1,1,0,0,1,0,2Z" style="fill:#6d6daa"/><path d="M73,40.999H67a1,1,0,0,1,0-2h6a1,1,0,0,1,0,2Z" style="fill:#6d6daa"/></g><g style="opacity:0.5"><path d="M79,27.999H73a1,1,0,0,1,0-2h6a1,1,0,0,1,0,2Z" style="fill:#6d6daa"/><path d="M79,40.999H73a1,1,0,0,1,0-2h6a1,1,0,0,1,0,2Z" style="fill:#6d6daa"/><path d="M79,27.999H73a1,1,0,0,1,0-2h6a1,1,0,0,1,0,2Z" style="fill:#231f20"/><path d="M79,40.999H73a1,1,0,0,1,0-2h6a1,1,0,0,1,0,2Z" style="fill:#231f20"/></g><g style="opacity:0.5"><path d="M67,27.999H61a1,1,0,0,1,0-2h6a1,1,0,0,1,0,2Z" style="fill:#6d6daa"/><path d="M67,40.999H61a1,1,0,0,1,0-2h6a1,1,0,0,1,0,2Z" style="fill:#6d6daa"/><path d="M67,27.999H61a1,1,0,0,1,0-2h6a1,1,0,0,1,0,2Z" style="fill:#231f20"/><path d="M67,40.999H61a1,1,0,0,1,0-2h6a1,1,0,0,1,0,2Z" style="fill:#231f20"/></g><g style="opacity:0.5"><path d="M46,27.999H40a1,1,0,0,1,0-2h6a1,1,0,0,1,0,2Z" style="fill:#6d6daa"/><path d="M46,40.999H40a1,1,0,0,1,0-2h6a1,1,0,0,1,0,2Z" style="fill:#6d6daa"/></g><g style="opacity:0.5"><path d="M52,27.999H46a1,1,0,0,1,0-2h6a1,1,0,0,1,0,2Z" style="fill:#6d6daa"/><path d="M52,40.999H46a1,1,0,0,1,0-2h6a1,1,0,0,1,0,2Z" style="fill:#6d6daa"/><path d="M52,27.999H46a1,1,0,0,1,0-2h6a1,1,0,0,1,0,2Z" style="fill:#231f20"/><path d="M52,40.999H46a1,1,0,0,1,0-2h6a1,1,0,0,1,0,2Z" style="fill:#231f20"/></g><g style="opacity:0.5"><path d="M19,58.999H13a1,1,0,0,1,0-2h6a1,1,0,0,1,0,2Z" style="fill:#6d6daa"/><path d="M19,71.999H13a1,1,0,0,1,0-2h6a1,1,0,0,1,0,2Z" style="fill:#6d6daa"/></g><g style="opacity:0.5"><path d="M13,58.999H7a1,1,0,0,1,0-2h6a1,1,0,0,1,0,2Z" style="fill:#6d6daa"/><path d="M13,71.999H7a1,1,0,0,1,0-2h6a1,1,0,0,1,0,2Z" style="fill:#6d6daa"/><path d="M13,58.999H7a1,1,0,0,1,0-2h6a1,1,0,0,1,0,2Z" style="fill:#231f20"/><path d="M13,71.999H7a1,1,0,0,1,0-2h6a1,1,0,0,1,0,2Z" style="fill:#231f20"/></g><g style="opacity:0.5"><path d="M37,58.999H31a1,1,0,0,1,0-2h6a1,1,0,0,1,0,2Z" style="fill:#6d6daa"/><path d="M37,71.999H31a1,1,0,0,1,0-2h6a1,1,0,0,1,0,2Z" style="fill:#6d6daa"/></g><g style="opacity:0.5"><path d="M43,58.999H37a1,1,0,0,1,0-2h6a1,1,0,0,1,0,2Z" style="fill:#6d6daa"/><path d="M43,71.999H37a1,1,0,0,1,0-2h6a1,1,0,0,1,0,2Z" style="fill:#6d6daa"/><path d="M43,58.999H37a1,1,0,0,1,0-2h6a1,1,0,0,1,0,2Z" style="fill:#231f20"/><path d="M43,71.999H37a1,1,0,0,1,0-2h6a1,1,0,0,1,0,2Z" style="fill:#231f20"/></g><g style="opacity:0.5"><path d="M31,58.999H25a1,1,0,0,1,0-2h6a1,1,0,0,1,0,2Z" style="fill:#6d6daa"/><path d="M31,71.999H25a1,1,0,0,1,0-2h6a1,1,0,0,1,0,2Z" style="fill:#6d6daa"/><path d="M31,58.999H25a1,1,0,0,1,0-2h6a1,1,0,0,1,0,2Z" style="fill:#231f20"/><path d="M31,71.999H25a1,1,0,0,1,0-2h6a1,1,0,0,1,0,2Z" style="fill:#231f20"/></g><g style="opacity:0.5"><path d="M96,58.999H90a1,1,0,0,1,0-2h6a1,1,0,0,1,0,2Z" style="fill:#6d6daa"/><path d="M96,71.999H90a1,1,0,0,1,0-2h6a1,1,0,0,1,0,2Z" style="fill:#6d6daa"/></g><g style="opacity:0.5"><path d="M102,58.999H96a1,1,0,0,1,0-2h6a1,1,0,0,1,0,2Z" style="fill:#6d6daa"/><path d="M102,71.999H96a1,1,0,0,1,0-2h6a1,1,0,0,1,0,2Z" style="fill:#6d6daa"/><path d="M102,58.999H96a1,1,0,0,1,0-2h6a1,1,0,0,1,0,2Z" style="fill:#231f20"/><path d="M102,71.999H96a1,1,0,0,1,0-2h6a1,1,0,0,1,0,2Z" style="fill:#231f20"/></g><g style="opacity:0.5"><path d="M90,58.999H84a1,1,0,0,1,0-2h6a1,1,0,0,1,0,2Z" style="fill:#6d6daa"/><path d="M90,71.999H84a1,1,0,0,1,0-2h6a1,1,0,0,1,0,2Z" style="fill:#6d6daa"/><path d="M90,58.999H84a1,1,0,0,1,0-2h6a1,1,0,0,1,0,2Z" style="fill:#231f20"/><path d="M90,71.999H84a1,1,0,0,1,0-2h6a1,1,0,0,1,0,2Z" style="fill:#231f20"/></g><g style="opacity:0.5"><path d="M114,58.999h-6a1,1,0,0,1,0-2h6a1,1,0,0,1,0,2Z" style="fill:#6d6daa"/><path d="M114,71.999h-6a1,1,0,0,1,0-2h6a1,1,0,0,1,0,2Z" style="fill:#6d6daa"/></g><g style="opacity:0.5"><path d="M120,58.999h-6a1,1,0,0,1,0-2h6a1,1,0,0,1,0,2Z" style="fill:#6d6daa"/><path d="M120,71.999h-6a1,1,0,0,1,0-2h6a1,1,0,0,1,0,2Z" style="fill:#6d6daa"/><path d="M120,58.999h-6a1,1,0,0,1,0-2h6a1,1,0,0,1,0,2Z" style="fill:#231f20"/><path d="M120,71.999h-6a1,1,0,0,1,0-2h6a1,1,0,0,1,0,2Z" style="fill:#231f20"/></g><g style="opacity:0.5"><path d="M108,58.999h-6a1,1,0,0,1,0-2h6a1,1,0,0,1,0,2Z" style="fill:#6d6daa"/><path d="M108,71.999h-6a1,1,0,0,1,0-2h6a1,1,0,0,1,0,2Z" style="fill:#6d6daa"/><path d="M108,58.999h-6a1,1,0,0,1,0-2h6a1,1,0,0,1,0,2Z" style="fill:#231f20"/><path d="M108,71.999h-6a1,1,0,0,1,0-2h6a1,1,0,0,1,0,2Z" style="fill:#231f20"/></g><g style="opacity:0.5"><path d="M116,89.999h-6a1,1,0,0,1,0-2h6a1,1,0,0,1,0,2Z" style="fill:#6d6daa"/><path d="M116,102.999h-6a1,1,0,0,1,0-2h6a1,1,0,0,1,0,2Z" style="fill:#6d6daa"/></g><g style="opacity:0.5"><path d="M122,89.999h-6a1,1,0,0,1,0-2h6a1,1,0,0,1,0,2Z" style="fill:#6d6daa"/><path d="M122,102.999h-6a1,1,0,0,1,0-2h6a1,1,0,0,1,0,2Z" style="fill:#6d6daa"/><path d="M122,89.999h-6a1,1,0,0,1,0-2h6a1,1,0,0,1,0,2Z" style="fill:#231f20"/><path d="M122,102.999h-6a1,1,0,0,1,0-2h6a1,1,0,0,1,0,2Z" style="fill:#231f20"/></g><g style="opacity:0.5"><path d="M110,89.999h-6a1,1,0,0,1,0-2h6a1,1,0,0,1,0,2Z" style="fill:#6d6daa"/><path d="M110,102.999h-6a1,1,0,0,1,0-2h6a1,1,0,0,1,0,2Z" style="fill:#6d6daa"/><path d="M110,89.999h-6a1,1,0,0,1,0-2h6a1,1,0,0,1,0,2Z" style="fill:#231f20"/><path d="M110,102.999h-6a1,1,0,0,1,0-2h6a1,1,0,0,1,0,2Z" style="fill:#231f20"/></g><g style="opacity:0.5"><path d="M98,89.999H92a1,1,0,0,1,0-2h6a1,1,0,0,1,0,2Z" style="fill:#6d6daa"/><path d="M98,102.999H92a1,1,0,0,1,0-2h6a1,1,0,0,1,0,2Z" style="fill:#6d6daa"/></g><g style="opacity:0.5"><path d="M104,89.999H98a1,1,0,0,1,0-2h6a1,1,0,0,1,0,2Z" style="fill:#6d6daa"/><path d="M104,102.999H98a1,1,0,0,1,0-2h6a1,1,0,0,1,0,2Z" style="fill:#6d6daa"/><path d="M104,89.999H98a1,1,0,0,1,0-2h6a1,1,0,0,1,0,2Z" style="fill:#231f20"/><path d="M104,102.999H98a1,1,0,0,1,0-2h6a1,1,0,0,1,0,2Z" style="fill:#231f20"/></g><g style="opacity:0.5"><path d="M35,89.999H29a1,1,0,0,1,0-2h6a1,1,0,0,1,0,2Z" style="fill:#6d6daa"/><path d="M35,102.999H29a1,1,0,0,1,0-2h6a1,1,0,0,1,0,2Z" style="fill:#6d6daa"/></g><g style="opacity:0.5"><path d="M41,89.999H35a1,1,0,0,1,0-2h6a1,1,0,0,1,0,2Z" style="fill:#6d6daa"/><path d="M41,102.999H35a1,1,0,0,1,0-2h6a1,1,0,0,1,0,2Z" style="fill:#6d6daa"/><path d="M41,89.999H35a1,1,0,0,1,0-2h6a1,1,0,0,1,0,2Z" style="fill:#231f20"/><path d="M41,102.999H35a1,1,0,0,1,0-2h6a1,1,0,0,1,0,2Z" style="fill:#231f20"/></g><g style="opacity:0.5"><path d="M29,89.999H23a1,1,0,0,1,0-2h6a1,1,0,0,1,0,2Z" style="fill:#6d6daa"/><path d="M29,102.999H23a1,1,0,0,1,0-2h6a1,1,0,0,1,0,2Z" style="fill:#6d6daa"/><path d="M29,89.999H23a1,1,0,0,1,0-2h6a1,1,0,0,1,0,2Z" style="fill:#231f20"/><path d="M29,102.999H23a1,1,0,0,1,0-2h6a1,1,0,0,1,0,2Z" style="fill:#231f20"/></g><g style="opacity:0.5"><path d="M23,89.999H17a1,1,0,0,1,0-2h6a1,1,0,0,1,0,2Z" style="fill:#6d6daa"/><path d="M23,102.999H17a1,1,0,0,1,0-2h6a1,1,0,0,1,0,2Z" style="fill:#6d6daa"/><path d="M23,89.999H17a1,1,0,0,1,0-2h6a1,1,0,0,1,0,2Z" style="fill:#231f20"/><path d="M23,102.999H17a1,1,0,0,1,0-2h6a1,1,0,0,1,0,2Z" style="fill:#231f20"/></g><g style="opacity:0.5"><path d="M13,89.999H7a1,1,0,0,1,0-2h6a1,1,0,0,1,0,2Z" style="fill:#6d6daa"/><path d="M13,102.999H7a1,1,0,0,1,0-2h6a1,1,0,0,1,0,2Z" style="fill:#6d6daa"/><path d="M13,89.999H7a1,1,0,0,1,0-2h6a1,1,0,0,1,0,2Z" style="fill:#231f20"/><path d="M13,102.999H7a1,1,0,0,1,0-2h6a1,1,0,0,1,0,2Z" style="fill:#231f20"/></g></g></g><g style="clip-path:url(#clip-path-2)"><path d="M88.28906,84.29968S81.94355,81.68956,81.5,81.49994a6.405,6.405,0,0,1-2.98-8.187H49.44189c1.67944,3.79013-1.11377,7.3902-2.92847,8.21988-.92549.42314-6.52087,2.8674-6.52087,2.8674A27.65362,27.65362,0,0,0,23,109.91608v15.08386h82V109.696A27.6535,27.6535,0,0,0,88.28906,84.29968Z" style="fill:#f9e2dc"/><path d="M78.52,73.313H49.44189a5.74565,5.74565,0,0,1,.02357,4.903l1.80588,1.80588a13.58407,13.58407,0,0,0,9.60526,3.97865h6.2468a13.58407,13.58407,0,0,0,9.60526-3.97865l1.82358-1.82358A5.70746,5.70746,0,0,1,78.52,73.313Z" style="fill:#cc7e54;opacity:0.30000000000000004"/><path d="M89,125a.99942.99942,0,0,1-1-1V106.5a1,1,0,0,1,2,0V124A.99942.99942,0,0,1,89,125Z" style="fill:#6d6daa"/><path d="M39,125a.99942.99942,0,0,1-1-1V106.5a1,1,0,0,1,2,0V124A.99942.99942,0,0,1,39,125Z" style="fill:#6d6daa"/><path d="M47,114a.99042.99042,0,0,1-1-1,.8316.8316,0,0,1,.08008-.37988,1.02891,1.02891,0,0,1,.21-.33008,1.04669,1.04669,0,0,1,1.41992,0,1.02891,1.02891,0,0,1,.21.33008A.99013.99013,0,0,1,47,114Z" style="fill:#6d6daa"/><path d="M81,114a.99953.99953,0,0,1-.37988-.08008,1.02891,1.02891,0,0,1-.33008-.21A.98946.98946,0,0,1,80,113a.99953.99953,0,0,1,.08008-.37988,1.02891,1.02891,0,0,1,.21-.33008A1,1,0,0,1,82,113a.99042.99042,0,0,1-1,1Z" style="fill:#6d6daa"/><path d="M105,125a.99942.99942,0,0,1-1-1V109.69629A26.63184,26.63184,0,0,0,87.89355,85.21777l-6.80371-3.02637a7.29945,7.29945,0,0,1-3.48633-9.2793.9997.9997,0,0,1,1.832.80078A5.26941,5.26941,0,0,0,81.92773,80.375l6.76758,3.01074A28.62544,28.62544,0,0,1,106,109.69629V124A.99942.99942,0,0,1,105,125Z" style="fill:#6d6daa"/><path d="M23,125a.99942.99942,0,0,1-1-1V109.916A28.5823,28.5823,0,0,1,39.60645,83.47754c.03027-.0127,4.4375-1.93555,6.39648-2.83594,1.63281-.75,3.93848-3.78613,2.52734-6.91895a1.00009,1.00009,0,1,1,1.82422-.82031c1.97363,4.38184-1.19043,8.48828-3.5166,9.55664-1.97656.9082-6.40137,2.83887-6.44629,2.8584A26.59292,26.59292,0,0,0,24,109.916V124A.99942.99942,0,0,1,23,125Z" style="fill:#6d6daa"/><path d="M88.04531,84.29913s-7.28729-2.9644-7.03911-2.79976c-2.30667,5-10.7062,7.5-16.9562,9.27505-6.22185-1.767-15.60544-4.29146-17.27169-9.2099l-6.78574,2.83516A27.65346,27.65346,0,0,0,23,109.91551V125h81.7562V109.69547A27.6536,27.6536,0,0,0,88.04531,84.29913Z" style="fill:#eff7ff"/><path d="M82.45,86.49937C98,90,104.95,103.65284,104.95,114.69547v-5.00053A27.6536,27.6536,0,0,0,88.23911,84.29859S80.95182,81.33419,81.2,81.49883Z" style="fill:#fff"/><path d="M46.57831,81.564l-6.78574,2.83516A27.47158,27.47158,0,0,0,23,109.915v5.00057C23,103.99887,31.55,89.5,45.3,87Z" style="fill:#fff"/><path d="M89,125a.99942.99942,0,0,1-1-1V106.499a1,1,0,0,1,2,0V124A.99942.99942,0,0,1,89,125Z" style="fill:#6d6daa"/><path d="M39,125a.99942.99942,0,0,1-1-1V106.499a1,1,0,0,1,2,0V124A.99942.99942,0,0,1,39,125Z" style="fill:#6d6daa"/><path d="M105,125a.99942.99942,0,0,1-1-1V109.69531A26.63184,26.63184,0,0,0,87.89355,85.2168L80.8457,82.17969a.99955.99955,0,0,1,.791-1.83594l7.04785,3.03711A28.62777,28.62777,0,0,1,106,109.69531V124A.99942.99942,0,0,1,105,125Z" style="fill:#6d6daa"/><path d="M23,125a.99942.99942,0,0,1-1-1V109.915A28.5823,28.5823,0,0,1,39.60645,83.47656l6.75879-2.82422a1.00023,1.00023,0,0,1,.77148,1.8457l-6.75879,2.82422A26.58743,26.58743,0,0,0,24,109.915V124A.99942.99942,0,0,1,23,125Z" style="fill:#6d6daa"/><polygon points="57 92.868 61.452 101 66.645 101 71 92.786 68.241 88 59.856 88 57 92.868" style="fill:#97c1ff"/><polygon points="62 91 66 91 70.172 94.349 71 92.786 68.241 88 59.856 88 57 92.867 57.85 94.419 62 91" style="fill:#fff;opacity:0.30000000000000004"/><polygon points="61.452 101 57.558 125 70.54 125 66.645 101 61.452 101" style="fill:#97c1ff"/><path d="M70.53906,125a1.00033,1.00033,0,0,1-.98535-.833L65.80078,102H62.29688l-3.75293,22.167a1.00036,1.00036,0,0,1-1.97266-.334l3.89453-23a1.00007,1.00007,0,0,1,.98633-.833h5.19336a1.00007,1.00007,0,0,1,.98633.833l3.89453,23a1.00073,1.00073,0,0,1-.81934,1.15332A1.0921,1.0921,0,0,1,70.53906,125Z" style="fill:#6d6daa"/><path d="M66.64551,102H61.45215a.99923.99923,0,0,1-.877-.51953L56.123,93.34766a1.00048,1.00048,0,0,1,.01465-.98633l2.85645-4.86719A.999.999,0,0,1,59.85645,87h8.38477a.99872.99872,0,0,1,.86621.501l2.75879,4.78613a1.00007,1.00007,0,0,1,.01758.96777l-4.35449,8.21387A1.00055,1.00055,0,0,1,66.64551,102Zm-4.60059-2h3.999l3.81348-7.19336L67.66309,89H60.42871l-2.2793,3.88477Z" style="fill:#6d6daa"/><path d="M52.07725,93.43938,40.75,84l5.20833-8.20833,15,12.5-2.67449,4.15418A4.17059,4.17059,0,0,1,52.07725,93.43938Z" style="fill:#eff7ff"/><polygon points="45.958 80.792 58.904 91.579 60.958 88.292 45.958 75.792 40.75 84 42.805 85.712 45.958 80.792" style="fill:#fff"/><path d="M54.74707,95.40625A5.17106,5.17106,0,0,1,51.4375,94.208h-.001L40.10938,84.76855a1.00188,1.00188,0,0,1-.2041-1.30469l5.208-8.208a1.00558,1.00558,0,0,1,.69043-.45215,1.01592,1.01592,0,0,1,.79492.21973l15,12.5a1,1,0,0,1,.2002,1.30957L59.125,92.9873a5.17674,5.17674,0,0,1-4.37793,2.41895ZM52.7168,92.6709a3.17188,3.17188,0,0,0,4.71973-.75488l2.20215-3.42187L46.19238,77.28906l-4.127,6.50488,10.65234,8.877Z" style="fill:#6d6daa"/><path d="M75.88108,93.43938,87.20833,84,82,75.79167l-15,12.5,2.67449,4.15418A4.17059,4.17059,0,0,0,75.88108,93.43938Z" style="fill:#eff7ff"/><polygon points="82 80.792 69.055 91.579 67 88.292 82 75.792 87.208 84 85.154 85.712 82 80.792" style="fill:#fff"/><path d="M73.21094,95.40625a5.17487,5.17487,0,0,1-4.38379-2.42969l-2.668-4.14355a1.00019,1.00019,0,0,1,.2002-1.30957l15-12.5a1.01968,1.01968,0,0,1,.79492-.21973,1.00558,1.00558,0,0,1,.69043.45215l5.208,8.208a1.00188,1.00188,0,0,1-.2041,1.30469L76.52148,94.208h-.001A5.17106,5.17106,0,0,1,73.21094,95.40625Zm2.66992-1.9668h0Zm-7.56152-4.94531,2.19629,3.41113a3.17086,3.17086,0,0,0,4.72559.76563l10.65137-8.877-4.127-6.50488Z" style="fill:#6d6daa"/><path d="M88.04531,84.29913S81.75182,81.33473,82,81.49937c-2.30667,5-11.7,40.22558-17.95,42.00063C57.82815,121.733,47,89,46,81.56452l-6.00743,2.83516A27.65346,27.65346,0,0,0,23,109.91551V125h81.7562V109.69547A27.6536,27.6536,0,0,0,88.04531,84.29913Z" style="fill:#939fc6"/><path d="M82.45,86.49937c13.75,3.7495,22.5,17.15347,22.5,28.19611v-5.00053A27.6536,27.6536,0,0,0,88.23911,84.29859S80.95182,81.33419,81.2,81.49883Z" style="fill:#fff;opacity:0.30000000000000004"/><path d="M46.57831,81.564l-6.78574,2.83516A27.47158,27.47158,0,0,0,23,109.915v5.00057c0-10.91667,8.55-25.91667,22.3-28.41667Z" style="fill:#fff;opacity:0.30000000000000004"/><path d="M89,125a.99942.99942,0,0,1-1-1V108.499a1,1,0,0,1,2,0V124A.99942.99942,0,0,1,89,125Z" style="fill:#6d6daa"/><path d="M39,125a.99942.99942,0,0,1-1-1V108.499a1,1,0,0,1,2,0V124A.99942.99942,0,0,1,39,125Z" style="fill:#6d6daa"/><path d="M105,125a.99942.99942,0,0,1-1-1V109.69531A26.63184,26.63184,0,0,0,87.89355,85.2168,1.00014,1.00014,0,0,1,87.791,85.166L82.502,82.12891a1,1,0,0,1,.99609-1.73437l5.24023,3.00879A28.63055,28.63055,0,0,1,106,109.69531V124A.99942.99942,0,0,1,105,125Z" style="fill:#6d6daa"/><path d="M23,125a.99942.99942,0,0,1-1-1V109.915A28.58144,28.58144,0,0,1,39.55176,83.5l4.957-2.7959a1,1,0,0,1,.98242,1.74219L40.4834,85.27051a1.05432,1.05432,0,0,1-.10547.05176A26.58743,26.58743,0,0,0,24,109.915V124A.99942.99942,0,0,1,23,125Z" style="fill:#6d6daa"/><path d="M35.43333,96C33.02708,89.72917,33.375,85.71875,33.375,85.71875A55.75387,55.75387,0,0,1,45.625,75.6C47.15625,92.44375,53.28125,105.625,64,124,51.66667,117.16667,40.26591,108.594,35.43333,96Z" style="fill:#939fc6"/><path d="M42.81895,82.017C45.075,96.75,51.2,109.25,57.45,119.3A51.68615,51.68615,0,0,0,64,124C53.28125,105.625,47.15625,92.44375,45.625,75.6a55.75387,55.75387,0,0,0-12.25,10.11875l.54167,4.19792C35.75,87.25,41.192,83.16543,42.81895,82.017Z" style="fill:#fff;opacity:0.30000000000000004"/><path d="M64,125a1.00016,1.00016,0,0,1-.48437-.125c-9.85352-5.46-23.582-14.35547-29.01562-28.5166h0c-2.46094-6.41211-2.13672-10.55273-2.12109-10.72559a.99644.99644,0,0,1,.24219-.57031,56.25938,56.25938,0,0,1,12.46-10.30176.99983.99983,0,0,1,1.54.748c1.5127,16.64453,7.5791,29.70605,18.24316,47.9873A1.00043,1.00043,0,0,1,64,125ZM34.36035,86.1123a26.55969,26.55969,0,0,0,2.00684,9.5293h0c4.6416,12.09766,15.76758,20.26758,24.917,25.6582C51.957,104.99219,46.47461,92.59375,44.79492,77.34375A52.168,52.168,0,0,0,34.36035,86.1123Z" style="fill:#6d6daa"/><path d="M92.56667,96C94.97292,89.72917,94.625,85.71875,94.625,85.71875A55.75387,55.75387,0,0,0,82.375,75.6C80.84375,92.44375,74.71875,105.625,64,124,76.33333,117.16667,87.73409,108.594,92.56667,96Z" style="fill:#939fc6"/><path d="M85.18105,82.017C82.925,96.75,76.8,109.25,70.55,119.3A51.68615,51.68615,0,0,1,64,124c10.71875-18.375,16.84375-31.55625,18.375-48.4a55.75387,55.75387,0,0,1,12.25,10.11875l-.54167,4.19792C92.25,87.25,86.808,83.16543,85.18105,82.017Z" style="fill:#fff;opacity:0.30000000000000004"/><path d="M64,125a1.00043,1.00043,0,0,1-.86426-1.50391c10.66406-18.28125,16.73047-31.34277,18.24316-47.9873a.99983.99983,0,0,1,1.54-.748,56.25938,56.25938,0,0,1,12.46,10.30176.99644.99644,0,0,1,.24219.57031c.01563.17285.33984,4.31348-2.12109,10.72559C88.06641,110.51953,74.33789,119.415,64.48438,124.875A1.00016,1.00016,0,0,1,64,125ZM83.20508,77.34375c-1.67969,15.25-7.16211,27.64844-16.48926,43.95605,9.14941-5.39062,20.27539-13.56055,24.917-25.6582h0a26.55879,26.55879,0,0,0,2.00684-9.5293A52.168,52.168,0,0,0,83.20508,77.34375Z" style="fill:#6d6daa"/><path d="M67.12341,78.99983H60.87665a13.58389,13.58389,0,0,1-9.60525-3.97861l-8.29273-8.29271A13.58389,13.58389,0,0,1,39,57.12325l0-24.5299c0-24.79138,50-24.79138,50,0V57.12323a13.58389,13.58389,0,0,1-3.97864,9.60527l-8.29273,8.29271A13.58389,13.58389,0,0,1,67.12341,78.99983Z" style="fill:#f9e2dc"/><path d="M76.72865,70.02235a13.584,13.584,0,0,1-9.60526,3.97858H60.8766a13.584,13.584,0,0,1-9.60526-3.97858l-8.29269-8.29269A13.58425,13.58425,0,0,1,39,52.12432v4.99954a13.58394,13.58394,0,0,0,3.97865,9.60526l8.29269,8.29269a13.58407,13.58407,0,0,0,9.60526,3.97865h6.2468a13.58407,13.58407,0,0,0,9.60526-3.97865l8.29269-8.29269A13.58394,13.58394,0,0,0,89,57.12386V52.12432a13.58425,13.58425,0,0,1-3.97865,9.60533Z" style="fill:#cc7e54;opacity:0.30000000000000004"/><path d="M67.123,80H60.877a14.49118,14.49118,0,0,1-10.3125-4.27148l-8.293-8.293A14.49118,14.49118,0,0,1,38,57.123V32.59375c0-6.0957,2.85645-11.207,8.26074-14.7793C50.957,14.71,57.25684,13,64,13s13.043,1.71,17.73926,4.81445C87.14355,21.38672,90,26.498,90,32.59375V57.123a14.48615,14.48615,0,0,1-4.27148,10.3125l-8.293,8.293A14.48615,14.48615,0,0,1,67.123,80ZM64,15c-11.55957,0-24,5.50586-24,17.59375V57.123a12.50484,12.50484,0,0,0,3.68555,8.89844l8.293,8.293A12.50484,12.50484,0,0,0,60.877,78H67.123a12.675,12.675,0,0,0,8.89844-3.68555l8.293-8.293A12.50149,12.50149,0,0,0,88,57.123V32.59375a15.35357,15.35357,0,0,0-7.36426-13.11133C76.26367,16.5918,70.35547,15,64,15Z" style="fill:#6d6daa"/><path d="M39,53V44c0-3-2.225-3.95833-3.6-3-2.19013,1.52645.6,8,.6,8C34.375,50.04163,36.21114,53.73544,39,53Z" style="fill:#f9e2dc"/><path d="M38.25586,54.09961A3.97459,3.97459,0,0,1,34.707,51.65039a2.93673,2.93673,0,0,1,.11719-2.88281c-.77539-1.98047-2.39258-6.918.00488-8.58789a3.00579,3.00579,0,0,1,3.126-.18359A4.26557,4.26557,0,0,1,40,44v9a.999.999,0,0,1-.74512.9668A3.92471,3.92471,0,0,1,38.25586,54.09961ZM39,53h0ZM36.53418,41.64355a.98132.98132,0,0,0-.5625.17676c-.89355.623-.21777,4.0752.94727,6.78418A1.00241,1.00241,0,0,1,36.54,49.8418c-.22754.14551-.17285.61523-.002,1.00391A2.12123,2.12123,0,0,0,38,52.07129V44a2.4136,2.4136,0,0,0-.96973-2.23145A1.07077,1.07077,0,0,0,36.53418,41.64355Z" style="fill:#6d6daa"/><path d="M36.001,50a1,1,0,0,1-.54395-1.83984l.375-.24219A1.00008,1.00008,0,1,1,36.918,49.59766l-.375.24219A.99746.99746,0,0,1,36.001,50Z" style="fill:#6d6daa"/><path d="M89,53V44c0-3,2.225-3.95833,3.6-3,2.19013,1.52645-.6,8-.6,8C93.625,50.04163,91.78886,53.73544,89,53Z" style="fill:#f9e2dc"/><path d="M89.74414,54.09961a3.88164,3.88164,0,0,1-.999-.13281A.999.999,0,0,1,88,53V44a4.26557,4.26557,0,0,1,2.04492-4.00391,3.00592,3.00592,0,0,1,3.126.18359c2.39746,1.66992.78027,6.60742.00488,8.58789a2.93673,2.93673,0,0,1,.11719,2.88281A3.97459,3.97459,0,0,1,89.74414,54.09961Zm1.72168-12.45605a1.07077,1.07077,0,0,0-.49609.125A2.4136,2.4136,0,0,0,90,44v8.07129a2.119,2.119,0,0,0,1.46191-1.22559c.1709-.38867.22559-.8584-.002-1.00391a1.00241,1.00241,0,0,1-.37891-1.2373c1.165-2.709,1.84082-6.16113.94727-6.78418A.98132.98132,0,0,0,91.46582,41.64355Z" style="fill:#6d6daa"/><path d="M91.999,50a.99746.99746,0,0,1-.542-.16016l-.375-.24219A1.00008,1.00008,0,0,1,92.168,47.918l.375.24219A1,1,0,0,1,91.999,50Z" style="fill:#6d6daa"/><path d="M81.999,42a.99942.99942,0,0,1-.55371-.168c-1.66992-1.1123-4.07129-.71484-6.61426-.29A25.35009,25.35009,0,0,1,70.75,42a1,1,0,0,1,0-2,23.57081,23.57081,0,0,0,3.752-.43066c2.81543-.46875,5.72266-.9541,8.05273.59863A1,1,0,0,1,81.999,42Z" style="fill:#6d6daa"/><path d="M57,42.5a.99676.99676,0,0,1-.707-.293c-1.48535-1.48535-7.89941-2.16113-10.0957-1.0625a1.00012,1.00012,0,0,1-.89453-1.78906C48.08008,37.9668,55.46,38.54688,57.707,40.793A1,1,0,0,1,57,42.5Z" style="fill:#6d6daa"/><circle cx="51.5" cy="46.99997" r="1.5" style="fill:#6d6daa"/><path d="M51.5,49.5A2.5,2.5,0,1,1,54,47,2.50232,2.50232,0,0,1,51.5,49.5Zm0-3a.5.5,0,1,0,.5.5A.501.501,0,0,0,51.5,46.5Z" style="fill:#6d6daa"/><path d="M56,46H47a1,1,0,0,1,0-2h9a1,1,0,0,1,0,2Z" style="fill:#6d6daa"/><path d="M63.98633,58.75684a5.36158,5.36158,0,0,1-2.56934-.92578A1,1,0,0,1,62.52637,56.167h0a3.60424,3.60424,0,0,0,1.46.58984,3.60424,3.60424,0,0,0,1.46-.58984,1,1,0,0,1,1.10938,1.66406A5.36158,5.36158,0,0,1,63.98633,58.75684Z" style="fill:#6d6daa"/><path d="M63.8623,66.99316c-2.666,0-5.28027-.4209-6.44531-1.25781a1,1,0,1,1,1.166-1.625c1.57422,1.13184,8.585,1.28809,10.91895-.05469A1,1,0,0,1,70.498,65.79C69.09961,66.59375,66.45605,66.99316,63.8623,66.99316Z" style="fill:#6d6daa"/><path d="M67,74a.99747.99747,0,0,1-.69043-.27637c-.82031-.7832-3.79883-.7832-4.61914,0a1.00017,1.00017,0,1,1-1.38086-1.44727c1.58594-1.51367,5.79492-1.51367,7.38086,0A1,1,0,0,1,67,74Z" style="fill:#6d6daa"/><circle cx="76.63981" cy="46.99997" r="1.5" style="fill:#6d6daa"/><path d="M76.63965,49.5a2.5,2.5,0,1,1,2.5-2.5A2.50232,2.50232,0,0,1,76.63965,49.5Zm0-3a.5.5,0,1,0,.5.5A.501.501,0,0,0,76.63965,46.5Z" style="fill:#6d6daa"/><path d="M81,46H72a1,1,0,0,1,0-2h9a1,1,0,0,1,0,2Z" style="fill:#6d6daa"/><path d="M89,31.32659c0,2-12.5001,5-25,5-12.5001,0-25-3-25-5V18.24326c0-8.00391,50-8.00391,50,0Z" style="fill:#939fc6"/><path d="M88.25816,16.50105c-5.989-6.0014-42.30766-6.0014-48.29662,0,0,.9993,12.07415,2.7422,24.14831,2.7422S88.25816,17.50035,88.25816,16.50105Z" style="fill:#fff;opacity:0.4"/><g style="opacity:0.2"><path d="M89,18.24324c0-2.907-10.17386-4.54742-16.96672-5.30841,2.27849,1.01434,6.46992,4.64176,6.38979,5.80843V35.32659c1.92308,0,10.57692-2.67207,10.57692-4Z" style="fill:#1c418a"/></g><g style="opacity:0.4"><path d="M58.23077,36.32659v-17c.08013-1.16667,1.88305-5.73179,3.00915-6.72208-5.91489.44275-14.46748,3.72208-14.54761,5.63873V34.32659C46.69231,35.97753,56.30769,36.32659,58.23077,36.32659Z" style="fill:#fff"/></g><path d="M63.88184,37.332c-10.35937,0-22.30664-1.59082-25.125-4.37891A2.27009,2.27009,0,0,1,38,31.32617v-13.083c0-6.665,21.6582-7.00293,26-7.00293s26,.33789,26,7.00293v13.083c0,4.32617-16.86133,5.91016-25.02734,6C64.6123,37.33008,64.24707,37.332,63.88184,37.332ZM64,13.24023c-14.82422,0-24,2.59668-24,5.00293v13.083c.36133,1.4541,10.35156,4.167,24.95117,4C77.18945,35.19141,87.32813,32.79395,88,31.291V18.24316c0-.97949-1.84473-2.41895-7.02148-3.52441A85.71726,85.71726,0,0,0,64,13.24023Z" style="fill:#6d6daa"/><path d="M64.26628,5C60,5,19,12.82083,19,14.05327,39,16.14286,59.46743,23,63.73372,23S90,16.14286,109,13.94673C109,12.71429,68.53257,5,64.26628,5Z" style="fill:#939fc6"/><path d="M64.26628,5C60,5,19,12.82083,19,14.05327c12.99316,1.35752,26.18361,4.72721,35.00095,6.92168C53,17,66,7.57143,79.00033,7.26944,71.8204,5.96624,65.77618,5,64.26628,5Z" style="fill:#fff;opacity:0.2"/><path d="M63.7334,24c-1.73242,0-5.45605-.92871-11.09375-2.334C43.626,19.41895,31.28027,16.3418,18.89648,15.04785A.99943.99943,0,0,1,18,14.05371c0-.98535,0-1.69824,21.8418-5.9707C50.21484,6.05371,61.93555,4,64.2666,4s13.918,2.02734,24.1582,4.0293C110,12.248,110,12.96094,110,13.94629a.99944.99944,0,0,1-.88477.99316c-11.4043,1.31836-23.88379,4.32227-32.99609,6.51563C69.97949,22.93262,65.54395,24,63.7334,24ZM23.5918,13.60352A281.90783,281.90783,0,0,1,53.124,19.72559C58.2207,20.99609,62.24707,22,63.7334,22c1.57324,0,6.13867-1.09863,11.918-2.48926,8.01758-1.93066,18.62793-4.48437,28.877-5.98437C94.44141,11.06348,68.00391,6,64.2666,6,60.499,6,33.8584,11.10254,23.5918,13.60352ZM108.334,14.64746h0Z" style="fill:#6d6daa"/><path d="M24,40a1.00049,1.00049,0,0,1-.707-1.707C24.417,37.167,26,35.08984,26,34a1,1,0,0,1,2,0c0,2.34668-2.95605,5.37012-3.293,5.707A.99676.99676,0,0,1,24,40Z" style="fill:#6d6daa"/><path d="M30,40a.99676.99676,0,0,1-.707-.293C28.95605,39.37012,26,36.34668,26,34a1,1,0,0,1,2,0c0,1.08984,1.583,3.167,2.707,4.293A1.00049,1.00049,0,0,1,30,40Z" style="fill:#6d6daa"/><path d="M27,42a.99942.99942,0,0,1-1-1V35a1,1,0,0,1,2,0v6A.99942.99942,0,0,1,27,42Z" style="fill:#6d6daa"/><path d="M27,32a.99942.99942,0,0,1-1-1v-.5a1,1,0,0,1,2,0V31A.99942.99942,0,0,1,27,32Z" style="fill:#6d6daa"/><path d="M27,28.07129a.99942.99942,0,0,1-1-1v-.85742a1,1,0,0,1,2,0v.85742A.99942.99942,0,0,1,27,28.07129Zm0-4.28613a.99942.99942,0,0,1-1-1v-.85645a1,1,0,0,1,2,0v.85645A.99942.99942,0,0,1,27,23.78516Z" style="fill:#6d6daa"/><path d="M27,19.5a.99942.99942,0,0,1-1-1V18a1,1,0,0,1,2,0v.5A.99942.99942,0,0,1,27,19.5Z" style="fill:#6d6daa"/></g></svg>