<?xml version="1.0" encoding="UTF-8" standalone="no"?>
<!-- Created with Inkscape (http://www.inkscape.org/) -->

<svg
   xmlns:dc="http://purl.org/dc/elements/1.1/"
   xmlns:cc="http://creativecommons.org/ns#"
   xmlns:rdf="http://www.w3.org/1999/02/22-rdf-syntax-ns#"
   xmlns:svg="http://www.w3.org/2000/svg"
   xmlns="http://www.w3.org/2000/svg"
   xmlns:sodipodi="http://sodipodi.sourceforge.net/DTD/sodipodi-0.dtd"
   xmlns:inkscape="http://www.inkscape.org/namespaces/inkscape"
   version="1.1"
   id="svg2"
   xml:space="preserve"
   width="2133.3333"
   height="2133.3333"
   viewBox="0 0 2133.3333 2133.3333"
   sodipodi:docname="bard-bg.svg"
   inkscape:version="0.92.4 (unknown)"><metadata
     id="metadata8"><rdf:RDF><cc:Work
         rdf:about=""><dc:format>image/svg+xml</dc:format><dc:type
           rdf:resource="http://purl.org/dc/dcmitype/StillImage" /><dc:title></dc:title></cc:Work></rdf:RDF></metadata><defs
     id="defs6"><clipPath
       clipPathUnits="userSpaceOnUse"
       id="clipPath20"><path
         d="M 0,1600 H 1600 V 0 H 0 Z"
         id="path18"
         inkscape:connector-curvature="0" /></clipPath></defs><sodipodi:namedview
     pagecolor="#ffffff"
     bordercolor="#666666"
     borderopacity="1"
     objecttolerance="10"
     gridtolerance="10"
     guidetolerance="10"
     inkscape:pageopacity="0"
     inkscape:pageshadow="2"
     inkscape:window-width="1920"
     inkscape:window-height="1016"
     id="namedview4"
     showgrid="false"
     inkscape:zoom="0.44250002"
     inkscape:cx="1037.8325"
     inkscape:cy="1299.6716"
     inkscape:window-x="0"
     inkscape:window-y="27"
     inkscape:window-maximized="1"
     inkscape:current-layer="g10" /><g
     id="g10"
     inkscape:groupmode="layer"
     inkscape:label="4 war CHARACTERS"
     transform="matrix(1.3333333,0,0,-1.3333333,0,2133.3333)"><path
       d="M 0,259 H 1600 V 1600 H 0 Z"
       style="fill:#ccebf8;fill-opacity:1;fill-rule:nonzero;stroke:none"
       id="path12"
       inkscape:connector-curvature="0" /><path
       d="M -34,259 H 1626 V 1619 H -34 Z"
       style="fill:none;stroke:#794039;stroke-width:7;stroke-linecap:round;stroke-linejoin:round;stroke-miterlimit:10;stroke-dasharray:none;stroke-opacity:1"
       id="path22"
       inkscape:connector-curvature="0" /><g
       id="g24"
       transform="translate(329.5728,1357.5121)"><path
         d="m 0,0 c 0.305,1.677 0.488,3.397 0.488,5.162 0,15.87 -12.866,28.736 -28.736,28.736 -4.21,0 -8.197,-0.926 -11.799,-2.553 -4.368,21.016 -22.984,36.81 -45.296,36.81 -21.436,0 -39.416,-14.599 -44.671,-34.382 -6.156,4.073 -13.526,6.457 -21.46,6.457 -21.188,0 -38.389,-16.921 -38.915,-37.982 -11.103,-5.079 -18.882,-16.279 -18.882,-29.232 0,-17.68 14.466,-32.146 32.146,-32.146 H -17.37 c 17.68,0 32.145,14.466 32.145,32.146 C 14.775,-15.696 8.865,-5.739 0,0"
         style="fill:#ffffff;fill-opacity:1;fill-rule:nonzero;stroke:none"
         id="path26"
         inkscape:connector-curvature="0" /></g><g
       id="g28"
       transform="translate(329.5728,1357.5121)"><path
         d="m 0,0 c 0.305,1.677 0.488,3.397 0.488,5.162 0,15.87 -12.866,28.736 -28.736,28.736 -4.21,0 -8.197,-0.926 -11.799,-2.553 -4.368,21.016 -22.984,36.81 -45.296,36.81 -21.436,0 -39.416,-14.599 -44.671,-34.382 -6.156,4.073 -13.526,6.457 -21.46,6.457 -21.188,0 -38.389,-16.921 -38.915,-37.982 -11.103,-5.079 -18.882,-16.279 -18.882,-29.232 0,-17.68 14.466,-32.146 32.146,-32.146 H -17.37 c 17.68,0 32.145,14.466 32.145,32.146 C 14.775,-15.696 8.865,-5.739 0,0 Z"
         style="fill:none;stroke:#794039;stroke-width:6;stroke-linecap:butt;stroke-linejoin:miter;stroke-miterlimit:10;stroke-dasharray:none;stroke-opacity:1"
         id="path30"
         inkscape:connector-curvature="0" /></g><g
       id="g32"
       transform="translate(1697.7096,1006.477)"><path
         d="m 0,0 c 0.305,1.677 0.488,3.397 0.488,5.162 0,15.871 -12.866,28.736 -28.736,28.736 -4.21,0 -8.197,-0.927 -11.799,-2.553 -4.368,21.016 -22.984,36.81 -45.296,36.81 -21.436,0 -39.416,-14.599 -44.671,-34.382 -6.156,4.073 -13.526,6.457 -21.46,6.457 -21.188,0 -38.389,-16.921 -38.915,-37.982 -11.103,-5.079 -18.882,-16.279 -18.882,-29.232 0,-17.68 14.466,-32.146 32.146,-32.146 H -17.37 c 17.68,0 32.146,14.466 32.146,32.146 C 14.776,-15.696 8.865,-5.739 0,0"
         style="fill:#ffffff;fill-opacity:1;fill-rule:nonzero;stroke:none"
         id="path34"
         inkscape:connector-curvature="0" /></g><g
       id="g36"
       transform="translate(1697.7096,1006.477)"><path
         d="m 0,0 c 0.305,1.677 0.488,3.397 0.488,5.162 0,15.871 -12.866,28.736 -28.736,28.736 -4.21,0 -8.197,-0.927 -11.799,-2.553 -4.368,21.016 -22.984,36.81 -45.296,36.81 -21.436,0 -39.416,-14.599 -44.671,-34.382 -6.156,4.073 -13.526,6.457 -21.46,6.457 -21.188,0 -38.389,-16.921 -38.915,-37.982 -11.103,-5.079 -18.882,-16.279 -18.882,-29.232 0,-17.68 14.466,-32.146 32.146,-32.146 H -17.37 c 17.68,0 32.146,14.466 32.146,32.146 C 14.776,-15.696 8.865,-5.739 0,0 Z"
         style="fill:none;stroke:#794039;stroke-width:6;stroke-linecap:butt;stroke-linejoin:miter;stroke-miterlimit:10;stroke-dasharray:none;stroke-opacity:1"
         id="path38"
         inkscape:connector-curvature="0" /></g><g
       id="g40"
       transform="translate(1043.6442,1030.4794)"><path
         d="m 0,0 c 0.305,1.677 0.488,3.397 0.488,5.162 0,15.871 -12.866,28.736 -28.736,28.736 -4.21,0 -8.197,-0.926 -11.799,-2.553 -4.368,21.016 -22.984,36.81 -45.296,36.81 -21.436,0 -39.416,-14.599 -44.671,-34.382 -6.156,4.073 -13.526,6.457 -21.46,6.457 -21.188,0 -38.389,-16.921 -38.915,-37.982 -11.103,-5.079 -18.882,-16.279 -18.882,-29.232 0,-17.68 14.466,-32.146 32.146,-32.146 H -17.37 c 17.68,0 32.146,14.466 32.146,32.146 C 14.776,-15.696 8.865,-5.739 0,0"
         style="fill:#ffffff;fill-opacity:1;fill-rule:nonzero;stroke:none"
         id="path42"
         inkscape:connector-curvature="0" /></g><g
       id="g44"
       transform="translate(1043.6442,1030.4794)"><path
         d="m 0,0 c 0.305,1.677 0.488,3.397 0.488,5.162 0,15.871 -12.866,28.736 -28.736,28.736 -4.21,0 -8.197,-0.926 -11.799,-2.553 -4.368,21.016 -22.984,36.81 -45.296,36.81 -21.436,0 -39.416,-14.599 -44.671,-34.382 -6.156,4.073 -13.526,6.457 -21.46,6.457 -21.188,0 -38.389,-16.921 -38.915,-37.982 -11.103,-5.079 -18.882,-16.279 -18.882,-29.232 0,-17.68 14.466,-32.146 32.146,-32.146 H -17.37 c 17.68,0 32.146,14.466 32.146,32.146 C 14.776,-15.696 8.865,-5.739 0,0 Z"
         style="fill:none;stroke:#794039;stroke-width:6;stroke-linecap:butt;stroke-linejoin:miter;stroke-miterlimit:10;stroke-dasharray:none;stroke-opacity:1"
         id="path46"
         inkscape:connector-curvature="0" /></g><g
       id="g48"
       transform="translate(86.5485,571.4335)"><path
         d="m 0,0 c 0.305,1.677 0.488,3.397 0.488,5.162 0,15.871 -12.866,28.736 -28.736,28.736 -4.21,0 -8.197,-0.926 -11.799,-2.553 -4.368,21.016 -22.984,36.81 -45.296,36.81 -21.436,0 -39.416,-14.599 -44.671,-34.382 -6.156,4.073 -13.526,6.457 -21.46,6.457 -21.188,0 -38.389,-16.921 -38.915,-37.982 -11.103,-5.079 -18.882,-16.279 -18.882,-29.232 0,-17.68 14.466,-32.146 32.146,-32.146 H -17.37 c 17.68,0 32.145,14.466 32.145,32.146 C 14.775,-15.696 8.865,-5.739 0,0"
         style="fill:#ffffff;fill-opacity:1;fill-rule:nonzero;stroke:none"
         id="path50"
         inkscape:connector-curvature="0" /></g><g
       id="g52"
       transform="translate(86.5485,571.4335)"><path
         d="m 0,0 c 0.305,1.677 0.488,3.397 0.488,5.162 0,15.871 -12.866,28.736 -28.736,28.736 -4.21,0 -8.197,-0.926 -11.799,-2.553 -4.368,21.016 -22.984,36.81 -45.296,36.81 -21.436,0 -39.416,-14.599 -44.671,-34.382 -6.156,4.073 -13.526,6.457 -21.46,6.457 -21.188,0 -38.389,-16.921 -38.915,-37.982 -11.103,-5.079 -18.882,-16.279 -18.882,-29.232 0,-17.68 14.466,-32.146 32.146,-32.146 H -17.37 c 17.68,0 32.145,14.466 32.145,32.146 C 14.775,-15.696 8.865,-5.739 0,0 Z"
         style="fill:none;stroke:#794039;stroke-width:6;stroke-linecap:butt;stroke-linejoin:miter;stroke-miterlimit:10;stroke-dasharray:none;stroke-opacity:1"
         id="path54"
         inkscape:connector-curvature="0" /></g><g
       id="g56"
       transform="translate(1117.4554,1591.5355)"><path
         d="m 0,0 c 0.305,1.677 0.488,3.397 0.488,5.162 0,15.87 -12.866,28.736 -28.736,28.736 -4.21,0 -8.197,-0.927 -11.799,-2.553 -4.368,21.016 -22.984,36.81 -45.296,36.81 -21.436,0 -39.416,-14.599 -44.671,-34.382 -6.156,4.072 -13.526,6.457 -21.46,6.457 -21.188,0 -38.389,-16.922 -38.915,-37.982 -11.103,-5.079 -18.882,-16.279 -18.882,-29.232 0,-17.68 14.466,-32.146 32.146,-32.146 H -17.37 c 17.68,0 32.146,14.466 32.146,32.146 C 14.776,-15.696 8.865,-5.739 0,0"
         style="fill:#ffffff;fill-opacity:1;fill-rule:nonzero;stroke:none"
         id="path58"
         inkscape:connector-curvature="0" /></g><g
       id="g60"
       transform="translate(1117.4554,1591.5355)"><path
         d="m 0,0 c 0.305,1.677 0.488,3.397 0.488,5.162 0,15.87 -12.866,28.736 -28.736,28.736 -4.21,0 -8.197,-0.927 -11.799,-2.553 -4.368,21.016 -22.984,36.81 -45.296,36.81 -21.436,0 -39.416,-14.599 -44.671,-34.382 -6.156,4.072 -13.526,6.457 -21.46,6.457 -21.188,0 -38.389,-16.922 -38.915,-37.982 -11.103,-5.079 -18.882,-16.279 -18.882,-29.232 0,-17.68 14.466,-32.146 32.146,-32.146 H -17.37 c 17.68,0 32.146,14.466 32.146,32.146 C 14.776,-15.696 8.865,-5.739 0,0 Z"
         style="fill:none;stroke:#794039;stroke-width:6;stroke-linecap:butt;stroke-linejoin:miter;stroke-miterlimit:10;stroke-dasharray:none;stroke-opacity:1"
         id="path62"
         inkscape:connector-curvature="0" /></g><g
       id="g64"
       transform="translate(627.1302,697.1143)"><path
         d="m 0,0 h -7.193 c -1.183,17.244 -15.833,30.884 -33.779,30.884 -4.048,0 -7.912,-0.73 -11.511,-2.001 0.031,0.668 0.103,1.325 0.103,2.001 0,24.195 -20.071,43.809 -44.83,43.809 -6.65,0 -12.94,-1.453 -18.616,-3.992 -11.049,10.495 -26.105,16.983 -42.731,16.983 -24.736,0 -45.998,-14.337 -55.703,-34.946 -1.854,0.217 -3.73,0.361 -5.643,0.361 -26.063,0 -47.19,-20.647 -47.19,-46.115 0,-2.775 0.294,-5.478 0.775,-8.117 -11.323,-3.356 -19.651,-13.865 -19.651,-26.239 0,-15.054 12.317,-27.371 27.371,-27.371 H 0 c 15.054,0 27.371,12.317 27.371,27.371 C 27.371,-12.318 15.054,0 0,0"
         style="fill:#ffffff;fill-opacity:1;fill-rule:nonzero;stroke:none"
         id="path66"
         inkscape:connector-curvature="0" /></g><g
       id="g68"
       transform="translate(627.1302,697.1143)"><path
         d="m 0,0 h -7.193 c -1.183,17.244 -15.833,30.884 -33.779,30.884 -4.048,0 -7.912,-0.73 -11.511,-2.001 0.031,0.668 0.103,1.325 0.103,2.001 0,24.195 -20.071,43.809 -44.83,43.809 -6.65,0 -12.94,-1.453 -18.616,-3.992 -11.049,10.495 -26.105,16.983 -42.731,16.983 -24.736,0 -45.998,-14.337 -55.703,-34.946 -1.854,0.217 -3.73,0.361 -5.643,0.361 -26.063,0 -47.19,-20.647 -47.19,-46.115 0,-2.775 0.294,-5.478 0.775,-8.117 -11.323,-3.356 -19.651,-13.865 -19.651,-26.239 0,-15.054 12.317,-27.371 27.371,-27.371 H 0 c 15.054,0 27.371,12.317 27.371,27.371 C 27.371,-12.318 15.054,0 0,0 Z"
         style="fill:none;stroke:#794039;stroke-width:6;stroke-linecap:butt;stroke-linejoin:miter;stroke-miterlimit:10;stroke-dasharray:none;stroke-opacity:1"
         id="path70"
         inkscape:connector-curvature="0" /></g><path
       d="M -34,259 H 1626 V -37 H -34 Z"
       style="fill:#89c49f;fill-opacity:1;fill-rule:nonzero;stroke:#794039;stroke-width:7;stroke-linecap:round;stroke-linejoin:round;stroke-miterlimit:10;stroke-dasharray:none;stroke-opacity:1"
       id="path72"
       inkscape:connector-curvature="0" /><g
       id="g74"
       transform="translate(827.6,334.1877)"><path
         d="m 0,0 c 0,0 -17.121,4.602 -24.363,28.625 -7.24,24.025 -8.386,84.029 0,108.055 8.386,24.026 27.731,42.427 39.314,26.071 C 26.533,146.391 33.545,71.051 25.558,38.85 17.571,6.643 5.99,1.531 0,0"
         style="fill:#4b823d;fill-opacity:1;fill-rule:nonzero;stroke:none"
         id="path76"
         inkscape:connector-curvature="0" /></g><g
       id="g78"
       transform="translate(827.6,334.1877)"><path
         d="m 0,0 c 0,0 -17.121,4.602 -24.363,28.625 -7.24,24.025 -8.386,84.029 0,108.055 8.386,24.026 27.731,42.427 39.314,26.071 C 26.533,146.391 33.545,71.051 25.558,38.85 17.571,6.643 5.99,1.531 0,0 Z"
         style="fill:none;stroke:#794039;stroke-width:6;stroke-linecap:butt;stroke-linejoin:miter;stroke-miterlimit:10;stroke-dasharray:none;stroke-opacity:1"
         id="path80"
         inkscape:connector-curvature="0" /></g><g
       id="g82"
       transform="translate(819.9174,262.8937)"><path
         d="m 0,0 c 0,0 2.188,87.638 1.56,90.581 -0.623,2.949 -8.428,16.411 -8.428,16.411 0,0 9.993,-12.202 10.928,-7.155 0.938,5.049 2.811,43.335 2.811,43.335 0,0 0.624,-38.706 3.121,-38.286 2.499,0.421 12.802,15.568 12.802,15.568 0,0 -11.866,-20.197 -11.866,-27.768 C 10.928,85.114 11.868,0 11.868,0 Z"
         style="fill:#695020;fill-opacity:1;fill-rule:nonzero;stroke:none"
         id="path84"
         inkscape:connector-curvature="0" /></g><g
       id="g86"
       transform="translate(819.9174,262.8937)"><path
         d="m 0,0 c 0,0 2.188,87.638 1.56,90.581 -0.623,2.949 -8.428,16.411 -8.428,16.411 0,0 9.993,-12.202 10.928,-7.155 0.938,5.049 2.811,43.335 2.811,43.335 0,0 0.624,-38.706 3.121,-38.286 2.499,0.421 12.802,15.568 12.802,15.568 0,0 -11.866,-20.197 -11.866,-27.768 C 10.928,85.114 11.868,0 11.868,0 Z"
         style="fill:none;stroke:#794039;stroke-width:6;stroke-linecap:butt;stroke-linejoin:miter;stroke-miterlimit:10;stroke-dasharray:none;stroke-opacity:1"
         id="path88"
         inkscape:connector-curvature="0" /></g><g
       id="g90"
       transform="translate(401.5591,322.5241)"><path
         d="m 0,0 c 0,0 -11.247,-8.078 -18.717,2.793 0,0 -12.452,-3.106 -15.256,8.385 0,0 -14.945,1.241 -14.322,12.735 0,0 -18.055,8.695 -6.224,25.158 0,0 -11.52,10.25 1.554,21.741 0,0 -9.961,14.907 7.473,19.256 0,0 1.558,17.707 18.991,13.668 0,0 4.669,14.909 21.481,9.318 0,0 15.102,11.204 23.661,-3.728 0,0 16.502,2.175 19.613,-11.492 0,0 15.878,-2.175 14.321,-18.015 0,0 12.19,-11.181 4.404,-24.535 0,0 7.763,-22.242 -9.075,-24.226 0,0 0.538,-9.85 -9.427,-14.199 0,0 -1.782,-11.892 -12.364,-10.026 0,0 -8.096,-9.01 -14.01,-4.04 z"
         style="fill:#b4cb34;fill-opacity:1;fill-rule:nonzero;stroke:none"
         id="path92"
         inkscape:connector-curvature="0" /></g><g
       id="g94"
       transform="translate(401.5591,322.5241)"><path
         d="m 0,0 c 0,0 -11.247,-8.078 -18.717,2.793 0,0 -12.452,-3.106 -15.256,8.385 0,0 -14.945,1.241 -14.322,12.735 0,0 -18.055,8.695 -6.224,25.158 0,0 -11.52,10.25 1.554,21.741 0,0 -9.961,14.907 7.473,19.256 0,0 1.558,17.707 18.991,13.668 0,0 4.669,14.909 21.481,9.318 0,0 15.102,11.204 23.661,-3.728 0,0 16.502,2.175 19.613,-11.492 0,0 15.878,-2.175 14.321,-18.015 0,0 12.19,-11.181 4.404,-24.535 0,0 7.763,-22.242 -9.075,-24.226 0,0 0.538,-9.85 -9.427,-14.199 0,0 -1.782,-11.892 -12.364,-10.026 0,0 -8.096,-9.01 -14.01,-4.04 z"
         style="fill:none;stroke:#794039;stroke-width:6;stroke-linecap:butt;stroke-linejoin:miter;stroke-miterlimit:10;stroke-dasharray:none;stroke-opacity:1"
         id="path96"
         inkscape:connector-curvature="0" /></g><g
       id="g98"
       transform="translate(382.8423,351.1765)"><path
         d="m 0,0 c 0,0 17.432,-1.806 18.678,-10.833 1.246,-9.026 -1.868,-81.839 -1.868,-81.839 h 18.68 c 0,0 -8.097,81.841 -5.293,87.773 2.8,5.931 11.83,9.284 11.83,9.284 0,0 -10.276,0.257 -13.697,-2.838 C 24.906,-1.549 20.545,-2.321 15.875,-1.549 11.207,-0.774 6.537,0.515 0,0"
         style="fill:#695020;fill-opacity:1;fill-rule:nonzero;stroke:none"
         id="path100"
         inkscape:connector-curvature="0" /></g><g
       id="g102"
       transform="translate(382.8423,351.1765)"><path
         d="m 0,0 c 0,0 17.432,-1.806 18.678,-10.833 1.246,-9.026 -1.868,-81.839 -1.868,-81.839 h 18.68 c 0,0 -8.097,81.841 -5.293,87.773 2.8,5.931 11.83,9.284 11.83,9.284 0,0 -10.276,0.257 -13.697,-2.838 C 24.906,-1.549 20.545,-2.321 15.875,-1.549 11.207,-0.774 6.537,0.515 0,0 Z"
         style="fill:none;stroke:#794039;stroke-width:6;stroke-linecap:butt;stroke-linejoin:miter;stroke-miterlimit:10;stroke-dasharray:none;stroke-opacity:1"
         id="path104"
         inkscape:connector-curvature="0" /></g><g
       id="g106"
       transform="translate(1295.7563,322.5241)"><path
         d="m 0,0 c 0,0 -11.247,-8.078 -18.717,2.793 0,0 -12.452,-3.106 -15.256,8.385 0,0 -14.944,1.241 -14.322,12.735 0,0 -18.055,8.695 -6.224,25.158 0,0 -11.52,10.25 1.554,21.741 0,0 -9.961,14.907 7.473,19.256 0,0 1.558,17.707 18.991,13.668 0,0 4.668,14.909 21.481,9.318 0,0 15.103,11.204 23.661,-3.728 0,0 16.503,2.175 19.613,-11.492 0,0 15.878,-2.175 14.321,-18.015 0,0 12.19,-11.181 4.404,-24.535 0,0 7.763,-22.242 -9.075,-24.226 0,0 0.538,-9.85 -9.427,-14.199 0,0 -1.782,-11.892 -12.364,-10.026 0,0 -8.096,-9.01 -14.01,-4.04 z"
         style="fill:#b4cb34;fill-opacity:1;fill-rule:nonzero;stroke:none"
         id="path108"
         inkscape:connector-curvature="0" /></g><g
       id="g110"
       transform="translate(1295.7563,322.5241)"><path
         d="m 0,0 c 0,0 -11.247,-8.078 -18.717,2.793 0,0 -12.452,-3.106 -15.256,8.385 0,0 -14.944,1.241 -14.322,12.735 0,0 -18.055,8.695 -6.224,25.158 0,0 -11.52,10.25 1.554,21.741 0,0 -9.961,14.907 7.473,19.256 0,0 1.558,17.707 18.991,13.668 0,0 4.668,14.909 21.481,9.318 0,0 15.103,11.204 23.661,-3.728 0,0 16.503,2.175 19.613,-11.492 0,0 15.878,-2.175 14.321,-18.015 0,0 12.19,-11.181 4.404,-24.535 0,0 7.763,-22.242 -9.075,-24.226 0,0 0.538,-9.85 -9.427,-14.199 0,0 -1.782,-11.892 -12.364,-10.026 0,0 -8.096,-9.01 -14.01,-4.04 z"
         style="fill:none;stroke:#794039;stroke-width:6;stroke-linecap:butt;stroke-linejoin:miter;stroke-miterlimit:10;stroke-dasharray:none;stroke-opacity:1"
         id="path112"
         inkscape:connector-curvature="0" /></g><g
       id="g114"
       transform="translate(1277.0396,351.1765)"><path
         d="m 0,0 c 0,0 17.432,-1.806 18.678,-10.833 1.246,-9.026 -1.867,-81.839 -1.867,-81.839 H 35.49 c 0,0 -8.096,81.841 -5.293,87.773 2.8,5.931 11.83,9.284 11.83,9.284 0,0 -10.276,0.257 -13.697,-2.838 C 24.906,-1.549 20.545,-2.321 15.875,-1.549 11.207,-0.774 6.537,0.515 0,0"
         style="fill:#695020;fill-opacity:1;fill-rule:nonzero;stroke:none"
         id="path116"
         inkscape:connector-curvature="0" /></g><g
       id="g118"
       transform="translate(1277.0396,351.1765)"><path
         d="m 0,0 c 0,0 17.432,-1.806 18.678,-10.833 1.246,-9.026 -1.867,-81.839 -1.867,-81.839 H 35.49 c 0,0 -8.096,81.841 -5.293,87.773 2.8,5.931 11.83,9.284 11.83,9.284 0,0 -10.276,0.257 -13.697,-2.838 C 24.906,-1.549 20.545,-2.321 15.875,-1.549 11.207,-0.774 6.537,0.515 0,0 Z"
         style="fill:none;stroke:#794039;stroke-width:6;stroke-linecap:butt;stroke-linejoin:miter;stroke-miterlimit:10;stroke-dasharray:none;stroke-opacity:1"
         id="path120"
         inkscape:connector-curvature="0" /></g><g
       id="g122"
       transform="translate(82.4475,396.9298)"><path
         d="m 0,0 c -4.866,17.326 -20.939,25.396 -35.53,25.448 -5.866,15.07 -25.337,23.266 -41.128,17.205 -18.315,-7.03 -23.28,-27.482 -18.625,-41.862 0.001,-0.003 0.002,-0.006 0.004,-0.01 -5.496,-2.413 -10.39,-6.644 -14.01,-12.953 -8.24,-14.36 2.387,-33.51 18.363,-37.031 14.595,-3.219 26.577,6.478 31.11,17.437 6.67,-7.314 16.169,-12.103 28.263,-12.466 C -9.801,-44.889 5.815,-20.704 0,0"
         style="fill:#88c881;fill-opacity:1;fill-rule:nonzero;stroke:none"
         id="path124"
         inkscape:connector-curvature="0" /></g><g
       id="g126"
       transform="translate(82.4475,396.9298)"><path
         d="m 0,0 c -4.866,17.326 -20.939,25.396 -35.53,25.448 -5.866,15.07 -25.337,23.266 -41.128,17.205 -18.315,-7.03 -23.28,-27.482 -18.625,-41.862 0.001,-0.003 0.002,-0.006 0.004,-0.01 -5.496,-2.413 -10.39,-6.644 -14.01,-12.953 -8.24,-14.36 2.387,-33.51 18.363,-37.031 14.595,-3.219 26.577,6.478 31.11,17.437 6.67,-7.314 16.169,-12.103 28.263,-12.466 C -9.801,-44.889 5.815,-20.704 0,0 Z"
         style="fill:none;stroke:#794039;stroke-width:6;stroke-linecap:butt;stroke-linejoin:miter;stroke-miterlimit:10;stroke-dasharray:none;stroke-opacity:1"
         id="path128"
         inkscape:connector-curvature="0" /></g><g
       id="g130"
       transform="translate(17.5539,260.8937)"><path
         d="m 0,0 c 0,0 2.633,92.292 1.88,95.474 -0.752,3.185 -10.15,17.734 -10.15,17.734 0,0 12.031,-13.185 13.158,-7.73 1.127,5.455 3.383,46.833 3.383,46.833 0,0 0.752,-41.832 3.761,-41.378 3.006,0.457 15.414,16.825 15.414,16.825 0,0 -14.289,-21.827 -14.289,-30.01 C 13.157,89.565 14.289,0 14.289,0 Z"
         style="fill:#695020;fill-opacity:1;fill-rule:nonzero;stroke:none"
         id="path132"
         inkscape:connector-curvature="0" /></g><g
       id="g134"
       transform="translate(17.5539,260.8937)"><path
         d="m 0,0 c 0,0 2.633,92.292 1.88,95.474 -0.752,3.185 -10.15,17.734 -10.15,17.734 0,0 12.031,-13.185 13.158,-7.73 1.127,5.455 3.383,46.833 3.383,46.833 0,0 0.752,-41.832 3.761,-41.378 3.006,0.457 15.414,16.825 15.414,16.825 0,0 -14.289,-21.827 -14.289,-30.01 C 13.157,89.565 14.289,0 14.289,0 Z"
         style="fill:none;stroke:#794039;stroke-width:6;stroke-linecap:butt;stroke-linejoin:miter;stroke-miterlimit:10;stroke-dasharray:none;stroke-opacity:1"
         id="path136"
         inkscape:connector-curvature="0" /></g><g
       id="g138"
       transform="translate(1513.2587,396.9298)"><path
         d="m 0,0 c -4.866,17.326 -20.939,25.396 -35.53,25.448 -5.866,15.07 -25.337,23.266 -41.128,17.205 -18.315,-7.03 -23.28,-27.482 -18.625,-41.862 0.001,-0.003 0.002,-0.006 0.004,-0.01 -5.496,-2.413 -10.39,-6.644 -14.01,-12.953 -8.24,-14.36 2.387,-33.51 18.363,-37.031 14.595,-3.219 26.577,6.478 31.11,17.437 6.67,-7.314 16.169,-12.103 28.263,-12.466 C -9.801,-44.889 5.815,-20.704 0,0"
         style="fill:#88c881;fill-opacity:1;fill-rule:nonzero;stroke:none"
         id="path140"
         inkscape:connector-curvature="0" /></g><g
       id="g142"
       transform="translate(1513.2587,396.9298)"><path
         d="m 0,0 c -4.866,17.326 -20.939,25.396 -35.53,25.448 -5.866,15.07 -25.337,23.266 -41.128,17.205 -18.315,-7.03 -23.28,-27.482 -18.625,-41.862 0.001,-0.003 0.002,-0.006 0.004,-0.01 -5.496,-2.413 -10.39,-6.644 -14.01,-12.953 -8.24,-14.36 2.387,-33.51 18.363,-37.031 14.595,-3.219 26.577,6.478 31.11,17.437 6.67,-7.314 16.169,-12.103 28.263,-12.466 C -9.801,-44.889 5.815,-20.704 0,0 Z"
         style="fill:none;stroke:#794039;stroke-width:6;stroke-linecap:butt;stroke-linejoin:miter;stroke-miterlimit:10;stroke-dasharray:none;stroke-opacity:1"
         id="path144"
         inkscape:connector-curvature="0" /></g><g
       id="g146"
       transform="translate(1448.3651,260.8937)"><path
         d="m 0,0 c 0,0 2.633,92.292 1.88,95.474 -0.752,3.185 -10.151,17.734 -10.151,17.734 0,0 12.032,-13.185 13.159,-7.73 1.127,5.455 3.383,46.833 3.383,46.833 0,0 0.751,-41.832 3.761,-41.378 3.006,0.457 15.414,16.825 15.414,16.825 0,0 -14.289,-21.827 -14.289,-30.01 C 13.157,89.565 14.289,0 14.289,0 Z"
         style="fill:#695020;fill-opacity:1;fill-rule:nonzero;stroke:none"
         id="path148"
         inkscape:connector-curvature="0" /></g><g
       id="g150"
       transform="translate(1448.3651,260.8937)"><path
         d="m 0,0 c 0,0 2.633,92.292 1.88,95.474 -0.752,3.185 -10.151,17.734 -10.151,17.734 0,0 12.032,-13.185 13.159,-7.73 1.127,5.455 3.383,46.833 3.383,46.833 0,0 0.751,-41.832 3.761,-41.378 3.006,0.457 15.414,16.825 15.414,16.825 0,0 -14.289,-21.827 -14.289,-30.01 C 13.157,89.565 14.289,0 14.289,0 Z"
         style="fill:none;stroke:#794039;stroke-width:6;stroke-linecap:butt;stroke-linejoin:miter;stroke-miterlimit:10;stroke-dasharray:none;stroke-opacity:1"
         id="path152"
         inkscape:connector-curvature="0" /></g><g
       id="g154"
       transform="translate(133.6684,258.7131)"><path
         d="m 0,0 c 0,0 -21.04,8.859 -5.163,21.511 0,0 -18.738,16.028 -5.983,26.352 12.754,10.325 26.06,-6.85 26.06,-6.85 0,0 -11.513,16.102 4.484,19.469 16.347,3.442 13.584,-16.601 13.584,-16.601 0,0 2.473,22.732 20.362,12.905 16.243,-8.923 10.325,-22.943 -1.434,-24.951 0,0 17.208,5.449 20.076,-5.162 2.868,-10.612 -13.193,-13.767 -13.193,-13.767 0,0 18.642,4.015 21.51,-4.589 C 83.171,-0.287 60.983,0 60.983,0 Z"
         style="fill:#94c85b;fill-opacity:1;fill-rule:nonzero;stroke:none"
         id="path156"
         inkscape:connector-curvature="0" /></g><g
       id="g158"
       transform="translate(133.6684,258.7131)"><path
         d="m 0,0 c 0,0 -21.04,8.859 -5.163,21.511 0,0 -18.738,16.028 -5.983,26.352 12.754,10.325 26.06,-6.85 26.06,-6.85 0,0 -11.513,16.102 4.484,19.469 16.347,3.442 13.584,-16.601 13.584,-16.601 0,0 2.473,22.732 20.362,12.905 16.243,-8.923 10.325,-22.943 -1.434,-24.951 0,0 17.208,5.449 20.076,-5.162 2.868,-10.612 -13.193,-13.767 -13.193,-13.767 0,0 18.642,4.015 21.51,-4.589 C 83.171,-0.287 60.983,0 60.983,0 Z"
         style="fill:none;stroke:#794039;stroke-width:6;stroke-linecap:round;stroke-linejoin:round;stroke-miterlimit:10;stroke-dasharray:none;stroke-opacity:1"
         id="path160"
         inkscape:connector-curvature="0" /></g><g
       id="g162"
       transform="translate(781.7332,258.7131)"><path
         d="m 0,0 c 0,0 -21.04,8.859 -5.163,21.511 0,0 -18.738,16.028 -5.983,26.352 12.754,10.325 26.06,-6.85 26.06,-6.85 0,0 -11.513,16.102 4.484,19.469 16.347,3.442 13.584,-16.601 13.584,-16.601 0,0 2.473,22.732 20.362,12.905 16.243,-8.923 10.325,-22.943 -1.434,-24.951 0,0 17.208,5.449 20.076,-5.162 2.868,-10.612 -13.193,-13.767 -13.193,-13.767 0,0 18.642,4.015 21.51,-4.589 C 83.171,-0.287 60.983,0 60.983,0 Z"
         style="fill:#94c85b;fill-opacity:1;fill-rule:nonzero;stroke:none"
         id="path164"
         inkscape:connector-curvature="0" /></g><g
       id="g166"
       transform="translate(781.7332,258.7131)"><path
         d="m 0,0 c 0,0 -21.04,8.859 -5.163,21.511 0,0 -18.738,16.028 -5.983,26.352 12.754,10.325 26.06,-6.85 26.06,-6.85 0,0 -11.513,16.102 4.484,19.469 16.347,3.442 13.584,-16.601 13.584,-16.601 0,0 2.473,22.732 20.362,12.905 16.243,-8.923 10.325,-22.943 -1.434,-24.951 0,0 17.208,5.449 20.076,-5.162 2.868,-10.612 -13.193,-13.767 -13.193,-13.767 0,0 18.642,4.015 21.51,-4.589 C 83.171,-0.287 60.983,0 60.983,0 Z"
         style="fill:none;stroke:#794039;stroke-width:6;stroke-linecap:round;stroke-linejoin:round;stroke-miterlimit:10;stroke-dasharray:none;stroke-opacity:1"
         id="path168"
         inkscape:connector-curvature="0" /></g><g
       id="g170"
       transform="translate(1399.795,258.7131)"><path
         d="m 0,0 c 0,0 -21.041,8.859 -5.163,21.511 0,0 -18.738,16.028 -5.983,26.352 12.754,10.325 26.06,-6.85 26.06,-6.85 0,0 -11.513,16.102 4.484,19.469 16.347,3.442 13.584,-16.601 13.584,-16.601 0,0 2.473,22.732 20.362,12.905 16.243,-8.923 10.325,-22.943 -1.434,-24.951 0,0 17.208,5.449 20.076,-5.162 2.868,-10.612 -13.193,-13.767 -13.193,-13.767 0,0 18.642,4.015 21.51,-4.589 C 83.171,-0.287 60.983,0 60.983,0 Z"
         style="fill:#94c85b;fill-opacity:1;fill-rule:nonzero;stroke:none"
         id="path172"
         inkscape:connector-curvature="0" /></g><g
       id="g174"
       transform="translate(1399.795,258.7131)"><path
         d="m 0,0 c 0,0 -21.041,8.859 -5.163,21.511 0,0 -18.738,16.028 -5.983,26.352 12.754,10.325 26.06,-6.85 26.06,-6.85 0,0 -11.513,16.102 4.484,19.469 16.347,3.442 13.584,-16.601 13.584,-16.601 0,0 2.473,22.732 20.362,12.905 16.243,-8.923 10.325,-22.943 -1.434,-24.951 0,0 17.208,5.449 20.076,-5.162 2.868,-10.612 -13.193,-13.767 -13.193,-13.767 0,0 18.642,4.015 21.51,-4.589 C 83.171,-0.287 60.983,0 60.983,0 Z"
         style="fill:none;stroke:#794039;stroke-width:6;stroke-linecap:round;stroke-linejoin:round;stroke-miterlimit:10;stroke-dasharray:none;stroke-opacity:1"
         id="path176"
         inkscape:connector-curvature="0" /></g><g
       id="g178"
       transform="translate(302.3023,255.9342)"><path
         d="M 0,0 C 0,0 -12.504,12.504 -6.008,27.769 0.487,43.034 19.974,40.6 19.974,40.6 c 0,0 -5.683,17.244 15.915,24.293 21.599,7.047 33.291,-15.688 33.291,-15.688 0,0 1.136,11.366 11.042,10.555 9.906,-0.812 6.171,-14.616 2.111,-17.537 0,0 11.206,10.392 18.187,1.461 6.984,-8.932 -10.555,-10.561 -10.555,-10.561 0,0 15.59,2.498 20.624,-6.786 5.035,-9.286 -3.573,-13.833 -3.573,-13.833 0,0 11.53,4.547 14.616,-1.461 C 124.718,5.035 105.88,0.812 105.88,0.812 Z"
         style="fill:#88c881;fill-opacity:1;fill-rule:nonzero;stroke:none"
         id="path180"
         inkscape:connector-curvature="0" /></g><g
       id="g182"
       transform="translate(302.3023,255.9342)"><path
         d="M 0,0 C 0,0 -12.504,12.504 -6.008,27.769 0.487,43.034 19.974,40.6 19.974,40.6 c 0,0 -5.683,17.244 15.915,24.293 21.599,7.047 33.291,-15.688 33.291,-15.688 0,0 1.136,11.366 11.042,10.555 9.906,-0.812 6.171,-14.616 2.111,-17.537 0,0 11.206,10.392 18.187,1.461 6.984,-8.932 -10.555,-10.561 -10.555,-10.561 0,0 15.59,2.498 20.624,-6.786 5.035,-9.286 -3.573,-13.833 -3.573,-13.833 0,0 11.53,4.547 14.616,-1.461 C 124.718,5.035 105.88,0.812 105.88,0.812 Z"
         style="fill:none;stroke:#794039;stroke-width:6;stroke-linecap:round;stroke-linejoin:round;stroke-miterlimit:10;stroke-dasharray:none;stroke-opacity:1"
         id="path184"
         inkscape:connector-curvature="0" /></g><g
       id="g186"
       transform="translate(1184.3905,255.9342)"><path
         d="M 0,0 C 0,0 -12.504,12.504 -6.008,27.769 0.487,43.034 19.974,40.6 19.974,40.6 c 0,0 -5.683,17.244 15.915,24.293 21.599,7.047 33.291,-15.688 33.291,-15.688 0,0 1.136,11.366 11.042,10.555 9.906,-0.812 6.171,-14.616 2.111,-17.537 0,0 11.206,10.392 18.187,1.461 6.984,-8.932 -10.555,-10.561 -10.555,-10.561 0,0 15.59,2.498 20.624,-6.786 5.036,-9.286 -3.573,-13.833 -3.573,-13.833 0,0 11.53,4.547 14.616,-1.461 C 124.718,5.035 105.88,0.812 105.88,0.812 Z"
         style="fill:#88c881;fill-opacity:1;fill-rule:nonzero;stroke:none"
         id="path188"
         inkscape:connector-curvature="0" /></g><g
       id="g190"
       transform="translate(1184.3905,255.9342)"><path
         d="M 0,0 C 0,0 -12.504,12.504 -6.008,27.769 0.487,43.034 19.974,40.6 19.974,40.6 c 0,0 -5.683,17.244 15.915,24.293 21.599,7.047 33.291,-15.688 33.291,-15.688 0,0 1.136,11.366 11.042,10.555 9.906,-0.812 6.171,-14.616 2.111,-17.537 0,0 11.206,10.392 18.187,1.461 6.984,-8.932 -10.555,-10.561 -10.555,-10.561 0,0 15.59,2.498 20.624,-6.786 5.036,-9.286 -3.573,-13.833 -3.573,-13.833 0,0 11.53,4.547 14.616,-1.461 C 124.718,5.035 105.88,0.812 105.88,0.812 Z"
         style="fill:none;stroke:#794039;stroke-width:6;stroke-linecap:round;stroke-linejoin:round;stroke-miterlimit:10;stroke-dasharray:none;stroke-opacity:1"
         id="path192"
         inkscape:connector-curvature="0" /></g><g
       id="g194"
       transform="translate(-35.0697,259.1101)"><path
         d="m 0,0 c 0,0 0.896,44.923 -8.545,56.467 0,0 9.413,-7.234 11.78,-25.222 0,0 -3.55,20.448 9.704,32.473 0,0 -12.071,-17.088 -1.656,-40.993 0,0 -3.787,13.255 1.656,21.065 0,0 -2.366,-15.148 3.787,-20.592 0,0 3.761,20.958 -1.081,29.653 0,0 6.762,-9.298 6.762,-26.103 0,0 -0.473,12.353 4.024,14.579 0,0 -3.788,-4.875 0,-16.235 0,0 -0.611,22.722 9.517,24.379 0,0 -9.281,-10.888 -3.364,-24.379 0,0 9.095,23.552 3.364,38.048 0,0 8.708,-13.433 5.867,-34.498 0,0 2.604,19.881 8.995,26.036 0,0 -6.391,-15.856 -3.788,-25.799 0,0 11.125,20.118 6.865,33.136 0,0 7.624,-24.379 0.971,-41.184 0,0 9.443,13.018 5.892,25.089 0,0 4.674,-10.178 0.798,-23.669 0,0 2.519,11.547 6.54,10.651 0,0 -5.346,-5.68 0.995,-11.125 0,0 5.494,13.255 0,22.249 0,0 8.946,-8.284 5.159,-21.065 0,0 7.786,18.329 0.934,30.467 0,0 7.823,-10.585 4.273,-28.336 0,0 4.024,19.611 10.177,23.179 0,0 -7.337,-11.109 -3.077,-21.523 0,0 3.551,1.924 3.077,8.891 0,0 3.521,-6.524 1.169,-14.098 0,0 6.892,13.491 2.862,21.775 0,0 6.147,-11.361 3.07,-20.118 0,0 7.574,21.563 -2.13,35.515 0,0 11.361,-15.16 7.811,-34.095 0,0 1.183,15.193 5.443,16.709 0,0 -3.55,-14.105 0,-17.656 0,0 8.948,16.096 4.971,31.953 0,0 4.982,-11.124 1.425,-30.059 0,0 0.849,15.384 8.706,17.515 0,0 -8.475,-8.048 -2.557,-18.698 0,0 12.295,17.302 2.597,34.331 0,0 10.894,-15.633 5.213,-35.752 0,0 11.362,15.385 6.865,25.562 0,0 5.639,-11.361 1.991,-24.615 0,0 2.506,12.308 6.766,15.148 0,0 -4.024,-8.994 2.604,-16.568 0,0 3.438,4.734 1.482,11.361 0,0 5.381,-5.917 2.541,-13.254 0,0 6.517,21.065 -5.499,35.739 0,0 14.257,-11.36 9.523,-34.319 0,0 3.077,21.065 14.438,14.675 0,0 -10.888,3.313 -8.047,-15.385 0,0 6.437,3.811 3.998,9.94 0,0 6.651,-2.366 2.983,-9.468 0,0 9.587,15.072 -1.301,28.72 0,0 10.651,-8.127 6.391,-26.352 0,0 3.313,14.674 9.23,16.094 0,0 -4.497,-3.787 -3.076,-13.254 0,0 8.757,8.285 4.26,20.119 0,0 5.882,-7.811 1.284,-23.433 0,0 4.399,17.516 12.681,16.096 0,0 -9.639,-7.908 -10.307,-39.767 z"
         style="fill:#6ba543;fill-opacity:1;fill-rule:nonzero;stroke:none"
         id="path196"
         inkscape:connector-curvature="0" /></g><g
       id="g198"
       transform="translate(-35.0697,259.1101)"><path
         d="m 0,0 c 0,0 0.896,44.923 -8.545,56.467 0,0 9.413,-7.234 11.78,-25.222 0,0 -3.55,20.448 9.704,32.473 0,0 -12.071,-17.088 -1.656,-40.993 0,0 -3.787,13.255 1.656,21.065 0,0 -2.366,-15.148 3.787,-20.592 0,0 3.761,20.958 -1.081,29.653 0,0 6.762,-9.298 6.762,-26.103 0,0 -0.473,12.353 4.024,14.579 0,0 -3.788,-4.875 0,-16.235 0,0 -0.611,22.722 9.517,24.379 0,0 -9.281,-10.888 -3.364,-24.379 0,0 9.095,23.552 3.364,38.048 0,0 8.708,-13.433 5.867,-34.498 0,0 2.604,19.881 8.995,26.036 0,0 -6.391,-15.856 -3.788,-25.799 0,0 11.125,20.118 6.865,33.136 0,0 7.624,-24.379 0.971,-41.184 0,0 9.443,13.018 5.892,25.089 0,0 4.674,-10.178 0.798,-23.669 0,0 2.519,11.547 6.54,10.651 0,0 -5.346,-5.68 0.995,-11.125 0,0 5.494,13.255 0,22.249 0,0 8.946,-8.284 5.159,-21.065 0,0 7.786,18.329 0.934,30.467 0,0 7.823,-10.585 4.273,-28.336 0,0 4.024,19.611 10.177,23.179 0,0 -7.337,-11.109 -3.077,-21.523 0,0 3.551,1.924 3.077,8.891 0,0 3.521,-6.524 1.169,-14.098 0,0 6.892,13.491 2.862,21.775 0,0 6.147,-11.361 3.07,-20.118 0,0 7.574,21.563 -2.13,35.515 0,0 11.361,-15.16 7.811,-34.095 0,0 1.183,15.193 5.443,16.709 0,0 -3.55,-14.105 0,-17.656 0,0 8.948,16.096 4.971,31.953 0,0 4.982,-11.124 1.425,-30.059 0,0 0.849,15.384 8.706,17.515 0,0 -8.475,-8.048 -2.557,-18.698 0,0 12.295,17.302 2.597,34.331 0,0 10.894,-15.633 5.213,-35.752 0,0 11.362,15.385 6.865,25.562 0,0 5.639,-11.361 1.991,-24.615 0,0 2.506,12.308 6.766,15.148 0,0 -4.024,-8.994 2.604,-16.568 0,0 3.438,4.734 1.482,11.361 0,0 5.381,-5.917 2.541,-13.254 0,0 6.517,21.065 -5.499,35.739 0,0 14.257,-11.36 9.523,-34.319 0,0 3.077,21.065 14.438,14.675 0,0 -10.888,3.313 -8.047,-15.385 0,0 6.437,3.811 3.998,9.94 0,0 6.651,-2.366 2.983,-9.468 0,0 9.587,15.072 -1.301,28.72 0,0 10.651,-8.127 6.391,-26.352 0,0 3.313,14.674 9.23,16.094 0,0 -4.497,-3.787 -3.076,-13.254 0,0 8.757,8.285 4.26,20.119 0,0 5.882,-7.811 1.284,-23.433 0,0 4.399,17.516 12.681,16.096 0,0 -9.639,-7.908 -10.307,-39.767 z"
         style="fill:none;stroke:#794039;stroke-width:6;stroke-linecap:round;stroke-linejoin:round;stroke-miterlimit:10;stroke-dasharray:none;stroke-opacity:1"
         id="path200"
         inkscape:connector-curvature="0" /></g><g
       id="g202"
       transform="translate(579.1288,259.1101)"><path
         d="m 0,0 c 0,0 0.896,44.923 -8.545,56.467 0,0 9.413,-7.234 11.78,-25.222 0,0 -3.55,20.448 9.704,32.473 0,0 -12.071,-17.088 -1.656,-40.993 0,0 -3.787,13.255 1.656,21.065 0,0 -2.366,-15.148 3.788,-20.592 0,0 3.76,20.958 -1.081,29.653 0,0 6.761,-9.298 6.761,-26.103 0,0 -0.473,12.353 4.024,14.579 0,0 -3.788,-4.875 0,-16.235 0,0 -0.611,22.722 9.517,24.379 0,0 -9.281,-10.888 -3.363,-24.379 0,0 9.094,23.552 3.363,38.048 0,0 8.708,-13.433 5.867,-34.498 0,0 2.604,19.881 8.995,26.036 0,0 -6.391,-15.856 -3.788,-25.799 0,0 11.125,20.118 6.865,33.136 0,0 7.624,-24.379 0.971,-41.184 0,0 9.443,13.018 5.892,25.089 0,0 4.674,-10.178 0.798,-23.669 0,0 2.519,11.547 6.54,10.651 0,0 -5.346,-5.68 0.995,-11.125 0,0 5.494,13.255 0,22.249 0,0 8.946,-8.284 5.159,-21.065 0,0 7.786,18.329 0.934,30.467 0,0 7.823,-10.585 4.273,-28.336 0,0 4.024,19.611 10.177,23.179 0,0 -7.337,-11.109 -3.077,-21.523 0,0 3.551,1.924 3.077,8.891 0,0 3.521,-6.524 1.169,-14.098 0,0 6.893,13.491 2.862,21.775 0,0 6.147,-11.361 3.07,-20.118 0,0 7.574,21.563 -2.13,35.515 0,0 11.361,-15.16 7.811,-34.095 0,0 1.183,15.193 5.444,16.709 0,0 -3.551,-14.105 0,-17.656 0,0 8.947,16.096 4.97,31.953 0,0 4.982,-11.124 1.425,-30.059 0,0 0.849,15.384 8.706,17.515 0,0 -8.474,-8.048 -2.557,-18.698 0,0 12.295,17.302 2.597,34.331 0,0 10.894,-15.633 5.213,-35.752 0,0 11.362,15.385 6.865,25.562 0,0 5.639,-11.361 1.991,-24.615 0,0 2.506,12.308 6.766,15.148 0,0 -4.024,-8.994 2.604,-16.568 0,0 3.438,4.734 1.482,11.361 0,0 5.381,-5.917 2.542,-13.254 0,0 6.516,21.065 -5.5,35.739 0,0 14.257,-11.36 9.523,-34.319 0,0 3.077,21.065 14.438,14.675 0,0 -10.888,3.313 -8.047,-15.385 0,0 6.437,3.811 3.998,9.94 0,0 6.652,-2.366 2.983,-9.468 0,0 9.587,15.072 -1.301,28.72 0,0 10.651,-8.127 6.391,-26.352 0,0 3.313,14.674 9.23,16.094 0,0 -4.497,-3.787 -3.076,-13.254 0,0 8.757,8.285 4.26,20.119 0,0 5.882,-7.811 1.284,-23.433 0,0 4.399,17.516 12.681,16.096 0,0 -9.639,-7.908 -10.307,-39.767 z"
         style="fill:#6ba543;fill-opacity:1;fill-rule:nonzero;stroke:none"
         id="path204"
         inkscape:connector-curvature="0" /></g><g
       id="g206"
       transform="translate(579.1288,259.1101)"><path
         d="m 0,0 c 0,0 0.896,44.923 -8.545,56.467 0,0 9.413,-7.234 11.78,-25.222 0,0 -3.55,20.448 9.704,32.473 0,0 -12.071,-17.088 -1.656,-40.993 0,0 -3.787,13.255 1.656,21.065 0,0 -2.366,-15.148 3.788,-20.592 0,0 3.76,20.958 -1.081,29.653 0,0 6.761,-9.298 6.761,-26.103 0,0 -0.473,12.353 4.024,14.579 0,0 -3.788,-4.875 0,-16.235 0,0 -0.611,22.722 9.517,24.379 0,0 -9.281,-10.888 -3.363,-24.379 0,0 9.094,23.552 3.363,38.048 0,0 8.708,-13.433 5.867,-34.498 0,0 2.604,19.881 8.995,26.036 0,0 -6.391,-15.856 -3.788,-25.799 0,0 11.125,20.118 6.865,33.136 0,0 7.624,-24.379 0.971,-41.184 0,0 9.443,13.018 5.892,25.089 0,0 4.674,-10.178 0.798,-23.669 0,0 2.519,11.547 6.54,10.651 0,0 -5.346,-5.68 0.995,-11.125 0,0 5.494,13.255 0,22.249 0,0 8.946,-8.284 5.159,-21.065 0,0 7.786,18.329 0.934,30.467 0,0 7.823,-10.585 4.273,-28.336 0,0 4.024,19.611 10.177,23.179 0,0 -7.337,-11.109 -3.077,-21.523 0,0 3.551,1.924 3.077,8.891 0,0 3.521,-6.524 1.169,-14.098 0,0 6.893,13.491 2.862,21.775 0,0 6.147,-11.361 3.07,-20.118 0,0 7.574,21.563 -2.13,35.515 0,0 11.361,-15.16 7.811,-34.095 0,0 1.183,15.193 5.444,16.709 0,0 -3.551,-14.105 0,-17.656 0,0 8.947,16.096 4.97,31.953 0,0 4.982,-11.124 1.425,-30.059 0,0 0.849,15.384 8.706,17.515 0,0 -8.474,-8.048 -2.557,-18.698 0,0 12.295,17.302 2.597,34.331 0,0 10.894,-15.633 5.213,-35.752 0,0 11.362,15.385 6.865,25.562 0,0 5.639,-11.361 1.991,-24.615 0,0 2.506,12.308 6.766,15.148 0,0 -4.024,-8.994 2.604,-16.568 0,0 3.438,4.734 1.482,11.361 0,0 5.381,-5.917 2.542,-13.254 0,0 6.516,21.065 -5.5,35.739 0,0 14.257,-11.36 9.523,-34.319 0,0 3.077,21.065 14.438,14.675 0,0 -10.888,3.313 -8.047,-15.385 0,0 6.437,3.811 3.998,9.94 0,0 6.652,-2.366 2.983,-9.468 0,0 9.587,15.072 -1.301,28.72 0,0 10.651,-8.127 6.391,-26.352 0,0 3.313,14.674 9.23,16.094 0,0 -4.497,-3.787 -3.076,-13.254 0,0 8.757,8.285 4.26,20.119 0,0 5.882,-7.811 1.284,-23.433 0,0 4.399,17.516 12.681,16.096 0,0 -9.639,-7.908 -10.307,-39.767 z"
         style="fill:none;stroke:#794039;stroke-width:6;stroke-linecap:round;stroke-linejoin:round;stroke-miterlimit:10;stroke-dasharray:none;stroke-opacity:1"
         id="path208"
         inkscape:connector-curvature="0" /></g><g
       id="g210"
       transform="translate(1451.7104,259.1101)"><path
         d="m 0,0 c 0,0 0.896,44.923 -8.545,56.467 0,0 9.413,-7.234 11.78,-25.222 0,0 -3.55,20.448 9.704,32.473 0,0 -12.071,-17.088 -1.656,-40.993 0,0 -3.787,13.255 1.656,21.065 0,0 -2.366,-15.148 3.787,-20.592 0,0 3.761,20.958 -1.08,29.653 0,0 6.761,-9.298 6.761,-26.103 0,0 -0.473,12.353 4.024,14.579 0,0 -3.788,-4.875 0,-16.235 0,0 -0.611,22.722 9.517,24.379 0,0 -9.281,-10.888 -3.364,-24.379 0,0 9.095,23.552 3.364,38.048 0,0 8.708,-13.433 5.867,-34.498 0,0 2.604,19.881 8.995,26.036 0,0 -6.391,-15.856 -3.788,-25.799 0,0 11.125,20.118 6.865,33.136 0,0 7.624,-24.379 0.971,-41.184 0,0 9.443,13.018 5.892,25.089 0,0 4.674,-10.178 0.798,-23.669 0,0 2.519,11.547 6.54,10.651 0,0 -5.346,-5.68 0.995,-11.125 0,0 5.494,13.255 0,22.249 0,0 8.946,-8.284 5.159,-21.065 0,0 7.786,18.329 0.934,30.467 0,0 7.823,-10.585 4.273,-28.336 0,0 4.024,19.611 10.177,23.179 0,0 -7.337,-11.109 -3.077,-21.523 0,0 3.55,1.924 3.077,8.891 0,0 3.521,-6.524 1.169,-14.098 0,0 6.893,13.491 2.862,21.775 0,0 6.147,-11.361 3.07,-20.118 0,0 7.574,21.563 -2.13,35.515 0,0 11.361,-15.16 7.811,-34.095 0,0 1.183,15.193 5.443,16.709 0,0 -3.55,-14.105 0,-17.656 0,0 8.948,16.096 4.971,31.953 0,0 4.982,-11.124 1.425,-30.059 0,0 0.849,15.384 8.706,17.515 0,0 -8.475,-8.048 -2.557,-18.698 0,0 12.295,17.302 2.597,34.331 0,0 10.894,-15.633 5.213,-35.752 0,0 11.362,15.385 6.865,25.562 0,0 5.639,-11.361 1.991,-24.615 0,0 2.506,12.308 6.766,15.148 0,0 -4.024,-8.994 2.604,-16.568 0,0 3.438,4.734 1.482,11.361 0,0 5.381,-5.917 2.541,-13.254 0,0 6.517,21.065 -5.499,35.739 0,0 14.257,-11.36 9.523,-34.319 0,0 3.077,21.065 14.438,14.675 0,0 -10.888,3.313 -8.047,-15.385 0,0 6.437,3.811 3.998,9.94 0,0 6.651,-2.366 2.983,-9.468 0,0 9.587,15.072 -1.301,28.72 0,0 10.651,-8.127 6.391,-26.352 0,0 3.313,14.674 9.23,16.094 0,0 -4.497,-3.787 -3.076,-13.254 0,0 8.757,8.285 4.26,20.119 0,0 5.882,-7.811 1.284,-23.433 0,0 4.399,17.516 12.681,16.096 0,0 -9.639,-7.908 -10.307,-39.767 z"
         style="fill:#6ba543;fill-opacity:1;fill-rule:nonzero;stroke:none"
         id="path212"
         inkscape:connector-curvature="0" /></g><g
       id="g214"
       transform="translate(1451.7104,259.1101)"><path
         d="m 0,0 c 0,0 0.896,44.923 -8.545,56.467 0,0 9.413,-7.234 11.78,-25.222 0,0 -3.55,20.448 9.704,32.473 0,0 -12.071,-17.088 -1.656,-40.993 0,0 -3.787,13.255 1.656,21.065 0,0 -2.366,-15.148 3.787,-20.592 0,0 3.761,20.958 -1.08,29.653 0,0 6.761,-9.298 6.761,-26.103 0,0 -0.473,12.353 4.024,14.579 0,0 -3.788,-4.875 0,-16.235 0,0 -0.611,22.722 9.517,24.379 0,0 -9.281,-10.888 -3.364,-24.379 0,0 9.095,23.552 3.364,38.048 0,0 8.708,-13.433 5.867,-34.498 0,0 2.604,19.881 8.995,26.036 0,0 -6.391,-15.856 -3.788,-25.799 0,0 11.125,20.118 6.865,33.136 0,0 7.624,-24.379 0.971,-41.184 0,0 9.443,13.018 5.892,25.089 0,0 4.674,-10.178 0.798,-23.669 0,0 2.519,11.547 6.54,10.651 0,0 -5.346,-5.68 0.995,-11.125 0,0 5.494,13.255 0,22.249 0,0 8.946,-8.284 5.159,-21.065 0,0 7.786,18.329 0.934,30.467 0,0 7.823,-10.585 4.273,-28.336 0,0 4.024,19.611 10.177,23.179 0,0 -7.337,-11.109 -3.077,-21.523 0,0 3.55,1.924 3.077,8.891 0,0 3.521,-6.524 1.169,-14.098 0,0 6.893,13.491 2.862,21.775 0,0 6.147,-11.361 3.07,-20.118 0,0 7.574,21.563 -2.13,35.515 0,0 11.361,-15.16 7.811,-34.095 0,0 1.183,15.193 5.443,16.709 0,0 -3.55,-14.105 0,-17.656 0,0 8.948,16.096 4.971,31.953 0,0 4.982,-11.124 1.425,-30.059 0,0 0.849,15.384 8.706,17.515 0,0 -8.475,-8.048 -2.557,-18.698 0,0 12.295,17.302 2.597,34.331 0,0 10.894,-15.633 5.213,-35.752 0,0 11.362,15.385 6.865,25.562 0,0 5.639,-11.361 1.991,-24.615 0,0 2.506,12.308 6.766,15.148 0,0 -4.024,-8.994 2.604,-16.568 0,0 3.438,4.734 1.482,11.361 0,0 5.381,-5.917 2.541,-13.254 0,0 6.517,21.065 -5.499,35.739 0,0 14.257,-11.36 9.523,-34.319 0,0 3.077,21.065 14.438,14.675 0,0 -10.888,3.313 -8.047,-15.385 0,0 6.437,3.811 3.998,9.94 0,0 6.651,-2.366 2.983,-9.468 0,0 9.587,15.072 -1.301,28.72 0,0 10.651,-8.127 6.391,-26.352 0,0 3.313,14.674 9.23,16.094 0,0 -4.497,-3.787 -3.076,-13.254 0,0 8.757,8.285 4.26,20.119 0,0 5.882,-7.811 1.284,-23.433 0,0 4.399,17.516 12.681,16.096 0,0 -9.639,-7.908 -10.307,-39.767 z"
         style="fill:none;stroke:#794039;stroke-width:6;stroke-linecap:round;stroke-linejoin:round;stroke-miterlimit:10;stroke-dasharray:none;stroke-opacity:1"
         id="path216"
         inkscape:connector-curvature="0" /></g><g
       id="g218"
       transform="translate(193.04,259.1101)"><path
         d="m 0,0 c 0,0 -10.888,27.459 0,46.395 0,0 -2.367,-17.516 4.26,-20.829 0,0 3.787,23.668 -2.366,34.556 0,0 9.941,-14.675 9.941,-26.035 0,0 0.946,15.621 6.153,19.408 0,0 -4.734,-27.456 2.841,-31.717 0,0 4.733,7.101 3.313,17.99 0,0 6.628,-10.415 3.787,-18.462 0,0 10.415,20.354 2.367,38.816 0,0 10.837,-16.568 3.052,-35.976 0,0 9.256,8.52 7.836,25.088 0,0 7.574,-17.988 3.314,-26.508 0,0 3.787,8.047 3.313,25.562 -0.473,17.515 4.734,26.983 11.835,28.403 0,0 -9.941,-15.149 -4.261,-26.983 5.68,-11.834 4.261,-27.93 4.261,-27.93 0,0 8.994,16.096 3.313,29.824 0,0 8.047,-19.409 5.208,-26.983 0,0 1.653,26.035 11.714,34.083 0,0 -10.061,-25.089 0,-34.556 0,0 6.747,6.627 5.8,19.881 0,0 5.207,-17.988 2.84,-28.876 0,0 3.314,34.083 26.983,29.35 0,0 -25.563,-4.741 -18.461,-44.501 z"
         style="fill:#588e3f;fill-opacity:1;fill-rule:nonzero;stroke:none"
         id="path220"
         inkscape:connector-curvature="0" /></g><g
       id="g222"
       transform="translate(193.04,259.1101)"><path
         d="m 0,0 c 0,0 -10.888,27.459 0,46.395 0,0 -2.367,-17.516 4.26,-20.829 0,0 3.787,23.668 -2.366,34.556 0,0 9.941,-14.675 9.941,-26.035 0,0 0.946,15.621 6.153,19.408 0,0 -4.734,-27.456 2.841,-31.717 0,0 4.733,7.101 3.313,17.99 0,0 6.628,-10.415 3.787,-18.462 0,0 10.415,20.354 2.367,38.816 0,0 10.837,-16.568 3.052,-35.976 0,0 9.256,8.52 7.836,25.088 0,0 7.574,-17.988 3.314,-26.508 0,0 3.787,8.047 3.313,25.562 -0.473,17.515 4.734,26.983 11.835,28.403 0,0 -9.941,-15.149 -4.261,-26.983 5.68,-11.834 4.261,-27.93 4.261,-27.93 0,0 8.994,16.096 3.313,29.824 0,0 8.047,-19.409 5.208,-26.983 0,0 1.653,26.035 11.714,34.083 0,0 -10.061,-25.089 0,-34.556 0,0 6.747,6.627 5.8,19.881 0,0 5.207,-17.988 2.84,-28.876 0,0 3.314,34.083 26.983,29.35 0,0 -25.563,-4.741 -18.461,-44.501 z"
         style="fill:none;stroke:#794039;stroke-width:6;stroke-linecap:round;stroke-linejoin:round;stroke-miterlimit:10;stroke-dasharray:none;stroke-opacity:1"
         id="path224"
         inkscape:connector-curvature="0" /></g><g
       id="g226"
       transform="translate(1564.1107,259.1101)"><path
         d="m 0,0 c 0,0 -10.888,27.459 0,46.395 0,0 -2.367,-17.516 4.26,-20.829 0,0 3.787,23.668 -2.366,34.556 0,0 9.94,-14.675 9.94,-26.035 0,0 0.947,15.621 6.154,19.408 0,0 -4.734,-27.456 2.841,-31.717 0,0 4.733,7.101 3.313,17.99 0,0 6.628,-10.415 3.787,-18.462 0,0 10.415,20.354 2.367,38.816 0,0 10.837,-16.568 3.052,-35.976 0,0 9.256,8.52 7.836,25.088 0,0 7.574,-17.988 3.314,-26.508 0,0 3.787,8.047 3.313,25.562 -0.473,17.515 4.734,26.983 11.835,28.403 0,0 -9.941,-15.149 -4.261,-26.983 5.681,-11.834 4.261,-27.93 4.261,-27.93 0,0 8.994,16.096 3.313,29.824 0,0 8.047,-19.409 5.208,-26.983 0,0 1.653,26.035 11.714,34.083 0,0 -10.061,-25.089 0,-34.556 0,0 6.747,6.627 5.8,19.881 0,0 5.207,-17.988 2.84,-28.876 0,0 3.314,34.083 26.983,29.35 0,0 -25.562,-4.741 -18.462,-44.501 z"
         style="fill:#588e3f;fill-opacity:1;fill-rule:nonzero;stroke:none"
         id="path228"
         inkscape:connector-curvature="0" /></g><g
       id="g230"
       transform="translate(1564.1107,259.1101)"><path
         d="m 0,0 c 0,0 -10.888,27.459 0,46.395 0,0 -2.367,-17.516 4.26,-20.829 0,0 3.787,23.668 -2.366,34.556 0,0 9.94,-14.675 9.94,-26.035 0,0 0.947,15.621 6.154,19.408 0,0 -4.734,-27.456 2.841,-31.717 0,0 4.733,7.101 3.313,17.99 0,0 6.628,-10.415 3.787,-18.462 0,0 10.415,20.354 2.367,38.816 0,0 10.837,-16.568 3.052,-35.976 0,0 9.256,8.52 7.836,25.088 0,0 7.574,-17.988 3.314,-26.508 0,0 3.787,8.047 3.313,25.562 -0.473,17.515 4.734,26.983 11.835,28.403 0,0 -9.941,-15.149 -4.261,-26.983 5.681,-11.834 4.261,-27.93 4.261,-27.93 0,0 8.994,16.096 3.313,29.824 0,0 8.047,-19.409 5.208,-26.983 0,0 1.653,26.035 11.714,34.083 0,0 -10.061,-25.089 0,-34.556 0,0 6.747,6.627 5.8,19.881 0,0 5.207,-17.988 2.84,-28.876 0,0 3.314,34.083 26.983,29.35 0,0 -25.562,-4.741 -18.462,-44.501 z"
         style="fill:none;stroke:#794039;stroke-width:6;stroke-linecap:round;stroke-linejoin:round;stroke-miterlimit:10;stroke-dasharray:none;stroke-opacity:1"
         id="path232"
         inkscape:connector-curvature="0" /></g><g
       id="g234"
       transform="translate(1263.6815,259.1101)"><path
         d="m 0,0 c 0,0 -10.888,27.459 0,46.395 0,0 -2.367,-17.516 4.26,-20.829 0,0 3.787,23.668 -2.366,34.556 0,0 9.94,-14.675 9.94,-26.035 0,0 0.947,15.621 6.154,19.408 0,0 -4.734,-27.456 2.841,-31.717 0,0 4.733,7.101 3.313,17.99 0,0 6.628,-10.415 3.787,-18.462 0,0 10.415,20.354 2.367,38.816 0,0 10.837,-16.568 3.052,-35.976 0,0 9.256,8.52 7.836,25.088 0,0 7.574,-17.988 3.314,-26.508 0,0 3.787,8.047 3.313,25.562 -0.473,17.515 4.734,26.983 11.835,28.403 0,0 -9.941,-15.149 -4.261,-26.983 5.681,-11.834 4.261,-27.93 4.261,-27.93 0,0 8.994,16.096 3.313,29.824 0,0 8.047,-19.409 5.208,-26.983 0,0 1.653,26.035 11.714,34.083 0,0 -10.061,-25.089 0,-34.556 0,0 6.747,6.627 5.8,19.881 0,0 5.207,-17.988 2.84,-28.876 0,0 3.314,34.083 26.983,29.35 0,0 -25.562,-4.741 -18.462,-44.501 z"
         style="fill:#588e3f;fill-opacity:1;fill-rule:nonzero;stroke:none"
         id="path236"
         inkscape:connector-curvature="0" /></g><g
       id="g238"
       transform="translate(1263.6815,259.1101)"><path
         d="m 0,0 c 0,0 -10.888,27.459 0,46.395 0,0 -2.367,-17.516 4.26,-20.829 0,0 3.787,23.668 -2.366,34.556 0,0 9.94,-14.675 9.94,-26.035 0,0 0.947,15.621 6.154,19.408 0,0 -4.734,-27.456 2.841,-31.717 0,0 4.733,7.101 3.313,17.99 0,0 6.628,-10.415 3.787,-18.462 0,0 10.415,20.354 2.367,38.816 0,0 10.837,-16.568 3.052,-35.976 0,0 9.256,8.52 7.836,25.088 0,0 7.574,-17.988 3.314,-26.508 0,0 3.787,8.047 3.313,25.562 -0.473,17.515 4.734,26.983 11.835,28.403 0,0 -9.941,-15.149 -4.261,-26.983 5.681,-11.834 4.261,-27.93 4.261,-27.93 0,0 8.994,16.096 3.313,29.824 0,0 8.047,-19.409 5.208,-26.983 0,0 1.653,26.035 11.714,34.083 0,0 -10.061,-25.089 0,-34.556 0,0 6.747,6.627 5.8,19.881 0,0 5.207,-17.988 2.84,-28.876 0,0 3.314,34.083 26.983,29.35 0,0 -25.562,-4.741 -18.462,-44.501 z"
         style="fill:none;stroke:#794039;stroke-width:6;stroke-linecap:round;stroke-linejoin:round;stroke-miterlimit:10;stroke-dasharray:none;stroke-opacity:1"
         id="path240"
         inkscape:connector-curvature="0" /></g><g
       id="g242"
       transform="translate(1091.5969,259.1101)"><path
         d="m 0,0 c 0,0 9.987,42.608 -4.687,60.596 0,0 19.408,-19.408 16.568,-41.184 0,0 8.615,18.462 0.283,35.029 0,0 11.551,-17.041 7.764,-34.083 0,0 0.473,34.083 8.994,40.238 0,0 -9.467,-21.302 0,-40.238 0,0 7.574,8.521 7.1,24.617 0,0 8.522,-13.255 4.261,-25.09 0,0 8.521,16.568 4.734,31.717 0,0 5.68,-15.622 3.313,-32.19 0,0 7.781,27.456 0.577,52.071 0,0 15.991,-24.615 6.997,-52.071 0,0 11.835,18.552 8.994,44.306 0,0 7.101,-27.265 2.368,-42.412 0,0 7.574,30.296 28.402,26.509 0,0 -21.302,-7.101 -16.569,-25.563 0,0 8.995,21.771 21.303,13.489 0,0 -14.201,-4.495 -10.887,-16.802 0,0 30.295,9.467 17.514,34.083 0,0 13.865,-13.728 3.146,-32.19 0,0 11.529,20.825 25.257,17.513 0,0 -20.829,-8.999 -15.622,-38.345 z"
         style="fill:#88c881;fill-opacity:1;fill-rule:nonzero;stroke:none"
         id="path244"
         inkscape:connector-curvature="0" /></g><g
       id="g246"
       transform="translate(1091.5969,259.1101)"><path
         d="m 0,0 c 0,0 9.987,42.608 -4.687,60.596 0,0 19.408,-19.408 16.568,-41.184 0,0 8.615,18.462 0.283,35.029 0,0 11.551,-17.041 7.764,-34.083 0,0 0.473,34.083 8.994,40.238 0,0 -9.467,-21.302 0,-40.238 0,0 7.574,8.521 7.1,24.617 0,0 8.522,-13.255 4.261,-25.09 0,0 8.521,16.568 4.734,31.717 0,0 5.68,-15.622 3.313,-32.19 0,0 7.781,27.456 0.577,52.071 0,0 15.991,-24.615 6.997,-52.071 0,0 11.835,18.552 8.994,44.306 0,0 7.101,-27.265 2.368,-42.412 0,0 7.574,30.296 28.402,26.509 0,0 -21.302,-7.101 -16.569,-25.563 0,0 8.995,21.771 21.303,13.489 0,0 -14.201,-4.495 -10.887,-16.802 0,0 30.295,9.467 17.514,34.083 0,0 13.865,-13.728 3.146,-32.19 0,0 11.529,20.825 25.257,17.513 0,0 -20.829,-8.999 -15.622,-38.345 z"
         style="fill:none;stroke:#794039;stroke-width:6;stroke-linecap:round;stroke-linejoin:round;stroke-miterlimit:10;stroke-dasharray:none;stroke-opacity:1"
         id="path248"
         inkscape:connector-curvature="0" /></g><g
       id="g250"
       transform="translate(500.5767,259.1101)"><path
         d="m 0,0 c 0,0 9.469,62.805 -8.204,82.371 0,0 18.934,-13.255 18.934,-58.699 0,0 3.788,31.56 -3.787,61.224 0,0 14.518,-20.198 11.362,-63.748 0,0 1.262,56.173 7.574,70.059 0,0 -5.681,-57.436 3.155,-73.847 0,0 5.049,36.609 3.787,59.331 0,0 10.731,-32.189 4.418,-58.068 0,0 14.077,39.763 1.99,72.584 0,0 19.327,-32.82 14.034,-74.477 0,0 9.855,67.535 27.527,69.428 0,0 -15.147,-17.673 -9.467,-68.166 0,0 12.96,24.539 9.467,45.726 0,0 5.613,-16.062 0.598,-48.251 0,0 16.444,62.419 42.953,48.251 0,0 -26.509,6.022 -30.928,-63.718 z"
         style="fill:#94c85b;fill-opacity:1;fill-rule:nonzero;stroke:none"
         id="path252"
         inkscape:connector-curvature="0" /></g><g
       id="g254"
       transform="translate(500.5767,259.1101)"><path
         d="m 0,0 c 0,0 9.469,62.805 -8.204,82.371 0,0 18.934,-13.255 18.934,-58.699 0,0 3.788,31.56 -3.787,61.224 0,0 14.518,-20.198 11.362,-63.748 0,0 1.262,56.173 7.574,70.059 0,0 -5.681,-57.436 3.155,-73.847 0,0 5.049,36.609 3.787,59.331 0,0 10.731,-32.189 4.418,-58.068 0,0 14.077,39.763 1.99,72.584 0,0 19.327,-32.82 14.034,-74.477 0,0 9.855,67.535 27.527,69.428 0,0 -15.147,-17.673 -9.467,-68.166 0,0 12.96,24.539 9.467,45.726 0,0 5.613,-16.062 0.598,-48.251 0,0 16.444,62.419 42.953,48.251 0,0 -26.509,6.022 -30.928,-63.718 z"
         style="fill:none;stroke:#794039;stroke-width:6;stroke-linecap:round;stroke-linejoin:round;stroke-miterlimit:10;stroke-dasharray:none;stroke-opacity:1"
         id="path256"
         inkscape:connector-curvature="0" /></g><g
       id="g258"
       transform="translate(-33.0041,259.1101)"><path
         d="m 0,0 c 0,0 9.469,62.805 -8.204,82.371 0,0 18.934,-13.255 18.934,-58.699 0,0 3.787,31.56 -3.787,61.224 0,0 14.518,-20.198 11.362,-63.748 0,0 1.262,56.173 7.574,70.059 0,0 -5.681,-57.436 3.155,-73.847 0,0 5.049,36.609 3.787,59.331 0,0 10.731,-32.189 4.418,-58.068 0,0 14.077,39.763 1.989,72.584 0,0 19.328,-32.82 14.035,-74.477 0,0 9.855,67.535 27.527,69.428 0,0 -15.148,-17.673 -9.467,-68.166 0,0 12.96,24.539 9.467,45.726 0,0 5.613,-16.062 0.598,-48.251 0,0 16.444,62.419 42.953,48.251 0,0 -26.509,6.022 -30.928,-63.718 z"
         style="fill:#94c85b;fill-opacity:1;fill-rule:nonzero;stroke:none"
         id="path260"
         inkscape:connector-curvature="0" /></g><g
       id="g262"
       transform="translate(-33.0041,259.1101)"><path
         d="m 0,0 c 0,0 9.469,62.805 -8.204,82.371 0,0 18.934,-13.255 18.934,-58.699 0,0 3.787,31.56 -3.787,61.224 0,0 14.518,-20.198 11.362,-63.748 0,0 1.262,56.173 7.574,70.059 0,0 -5.681,-57.436 3.155,-73.847 0,0 5.049,36.609 3.787,59.331 0,0 10.731,-32.189 4.418,-58.068 0,0 14.077,39.763 1.989,72.584 0,0 19.328,-32.82 14.035,-74.477 0,0 9.855,67.535 27.527,69.428 0,0 -15.148,-17.673 -9.467,-68.166 0,0 12.96,24.539 9.467,45.726 0,0 5.613,-16.062 0.598,-48.251 0,0 16.444,62.419 42.953,48.251 0,0 -26.509,6.022 -30.928,-63.718 z"
         style="fill:none;stroke:#794039;stroke-width:6;stroke-linecap:round;stroke-linejoin:round;stroke-miterlimit:10;stroke-dasharray:none;stroke-opacity:1"
         id="path264"
         inkscape:connector-curvature="0" /></g><g
       id="g266"
       transform="translate(906.5621,259.1101)"><path
         d="m 0,0 c 0,0 9.469,62.805 -8.204,82.371 0,0 18.934,-13.255 18.934,-58.699 0,0 3.787,31.56 -3.787,61.224 0,0 14.518,-20.198 11.362,-63.748 0,0 1.262,56.173 7.574,70.059 0,0 -5.681,-57.436 3.155,-73.847 0,0 5.049,36.609 3.787,59.331 0,0 10.731,-32.189 4.418,-58.068 0,0 14.077,39.763 1.989,72.584 0,0 19.328,-32.82 14.035,-74.477 0,0 9.855,67.535 27.527,69.428 0,0 -15.148,-17.673 -9.467,-68.166 0,0 12.96,24.539 9.467,45.726 0,0 5.613,-16.062 0.598,-48.251 0,0 16.444,62.419 42.953,48.251 0,0 -26.509,6.022 -30.928,-63.718 z"
         style="fill:#94c85b;fill-opacity:1;fill-rule:nonzero;stroke:none"
         id="path268"
         inkscape:connector-curvature="0" /></g><g
       id="g270"
       transform="translate(906.5621,259.1101)"><path
         d="m 0,0 c 0,0 9.469,62.805 -8.204,82.371 0,0 18.934,-13.255 18.934,-58.699 0,0 3.787,31.56 -3.787,61.224 0,0 14.518,-20.198 11.362,-63.748 0,0 1.262,56.173 7.574,70.059 0,0 -5.681,-57.436 3.155,-73.847 0,0 5.049,36.609 3.787,59.331 0,0 10.731,-32.189 4.418,-58.068 0,0 14.077,39.763 1.989,72.584 0,0 19.328,-32.82 14.035,-74.477 0,0 9.855,67.535 27.527,69.428 0,0 -15.148,-17.673 -9.467,-68.166 0,0 12.96,24.539 9.467,45.726 0,0 5.613,-16.062 0.598,-48.251 0,0 16.444,62.419 42.953,48.251 0,0 -26.509,6.022 -30.928,-63.718 z"
         style="fill:none;stroke:#794039;stroke-width:6;stroke-linecap:round;stroke-linejoin:round;stroke-miterlimit:10;stroke-dasharray:none;stroke-opacity:1"
         id="path272"
         inkscape:connector-curvature="0" /></g></g></svg>