<?xml version="1.0" encoding="UTF-8" standalone="no"?>
<!-- Created with Inkscape (http://www.inkscape.org/) -->

<svg
   xmlns:dc="http://purl.org/dc/elements/1.1/"
   xmlns:cc="http://creativecommons.org/ns#"
   xmlns:rdf="http://www.w3.org/1999/02/22-rdf-syntax-ns#"
   xmlns:svg="http://www.w3.org/2000/svg"
   xmlns="http://www.w3.org/2000/svg"
   xmlns:sodipodi="http://sodipodi.sourceforge.net/DTD/sodipodi-0.dtd"
   xmlns:inkscape="http://www.inkscape.org/namespaces/inkscape"
   version="1.1"
   id="svg2"
   xml:space="preserve"
   width="2133.3333"
   height="2133.3333"
   viewBox="0 0 2133.3333 2133.3333"
   sodipodi:docname="ninja-bg.svg"
   inkscape:version="0.92.4 (unknown)"><metadata
     id="metadata8"><rdf:RDF><cc:Work
         rdf:about=""><dc:format>image/svg+xml</dc:format><dc:type
           rdf:resource="http://purl.org/dc/dcmitype/StillImage" /><dc:title></dc:title></cc:Work></rdf:RDF></metadata><defs
     id="defs6"><clipPath
       clipPathUnits="userSpaceOnUse"
       id="clipPath20"><path
         d="M 0,1600 H 1600 V 0 H 0 Z"
         id="path18"
         inkscape:connector-curvature="0" /></clipPath><clipPath
       clipPathUnits="userSpaceOnUse"
       id="clipPath102"><path
         d="M 1141.34,382.942 H 1330.6 V 218.122 H 1141.34 Z"
         id="path100"
         inkscape:connector-curvature="0" /></clipPath><clipPath
       clipPathUnits="userSpaceOnUse"
       id="clipPath122"><path
         d="m 1322.86,451.392 h 251.3 V 233.127 h -251.3 z"
         id="path120"
         inkscape:connector-curvature="0" /></clipPath><clipPath
       clipPathUnits="userSpaceOnUse"
       id="clipPath244"><path
         d="m 904.685,325.678 h 28.702 v -14.437 h -28.702 z"
         id="path242"
         inkscape:connector-curvature="0" /></clipPath><clipPath
       clipPathUnits="userSpaceOnUse"
       id="clipPath296"><path
         d="m 770.768,325.678 h 28.723 v -14.437 h -28.723 z"
         id="path294"
         inkscape:connector-curvature="0" /></clipPath><clipPath
       clipPathUnits="userSpaceOnUse"
       id="clipPath326"><path
         d="m 776.231,410.159 h 16.955 v -18.331 h -16.955 z"
         id="path324"
         inkscape:connector-curvature="0" /></clipPath><clipPath
       clipPathUnits="userSpaceOnUse"
       id="clipPath346"><path
         d="m 910.971,410.159 h 16.953 v -18.333 h -16.953 z"
         id="path344"
         inkscape:connector-curvature="0" /></clipPath><clipPath
       clipPathUnits="userSpaceOnUse"
       id="clipPath374"><path
         d="M 755.328,434.664 H 948.829 V 402.39 H 755.328 Z"
         id="path372"
         inkscape:connector-curvature="0" /></clipPath><clipPath
       clipPathUnits="userSpaceOnUse"
       id="clipPath418"><path
         d="M 725.328,477.067 H 978.114 V 442.348 H 725.328 Z"
         id="path416"
         inkscape:connector-curvature="0" /></clipPath><clipPath
       clipPathUnits="userSpaceOnUse"
       id="clipPath438"><path
         d="M 728.282,460.611 H 977.047 V 426.832 H 728.282 Z"
         id="path436"
         inkscape:connector-curvature="0" /></clipPath><clipPath
       clipPathUnits="userSpaceOnUse"
       id="clipPath466"><path
         d="m 778.139,358.742 h 13.139 V 348.05 h -13.139 z"
         id="path464"
         inkscape:connector-curvature="0" /></clipPath><clipPath
       clipPathUnits="userSpaceOnUse"
       id="clipPath486"><path
         d="m 912.877,358.742 h 13.141 V 348.05 h -13.141 z"
         id="path484"
         inkscape:connector-curvature="0" /></clipPath><clipPath
       clipPathUnits="userSpaceOnUse"
       id="clipPath676"><path
         d="M 293.967,606.182 H 425.431 V 530.328 H 293.967 Z"
         id="path674"
         inkscape:connector-curvature="0" /></clipPath><clipPath
       clipPathUnits="userSpaceOnUse"
       id="clipPath704"><path
         d="M 270.06,484.098 H 449.318 V 443.339 H 270.06 Z"
         id="path702"
         inkscape:connector-curvature="0" /></clipPath><clipPath
       clipPathUnits="userSpaceOnUse"
       id="clipPath732"><path
         d="M 243.77,369.736 H 475.609 V 324.989 H 243.77 Z"
         id="path730"
         inkscape:connector-curvature="0" /></clipPath></defs><sodipodi:namedview
     pagecolor="#ffffff"
     bordercolor="#666666"
     borderopacity="1"
     objecttolerance="10"
     gridtolerance="10"
     guidetolerance="10"
     inkscape:pageopacity="0"
     inkscape:pageshadow="2"
     inkscape:window-width="1920"
     inkscape:window-height="1016"
     id="namedview4"
     showgrid="false"
     inkscape:zoom="0.44250002"
     inkscape:cx="1273.8656"
     inkscape:cy="846.8093"
     inkscape:window-x="0"
     inkscape:window-y="27"
     inkscape:window-maximized="1"
     inkscape:current-layer="g10" /><g
     id="g10"
     inkscape:groupmode="layer"
     inkscape:label="4 war CHARACTERS"
     transform="matrix(1.3333333,0,0,-1.3333333,0,2133.3333)"><path
       d="M 0,259 H 1600 V 1600 H 0 Z"
       style="fill:#d9f0fa;fill-opacity:1;fill-rule:nonzero;stroke:none"
       id="path12"
       inkscape:connector-curvature="0" /><path
       d="M -34,259 H 1626 V 1619 H -34 Z"
       style="fill:none;stroke:#794039;stroke-width:7;stroke-linecap:round;stroke-linejoin:round;stroke-miterlimit:10;stroke-dasharray:none;stroke-opacity:1"
       id="path22"
       inkscape:connector-curvature="0" /><g
       id="g24"
       transform="translate(637.2653,732.1886)"><path
         d="m 0,0 c 0.305,1.677 0.488,3.397 0.488,5.162 0,15.871 -12.866,28.736 -28.736,28.736 -4.21,0 -8.197,-0.926 -11.799,-2.553 -4.368,21.016 -22.984,36.81 -45.296,36.81 -21.436,0 -39.416,-14.599 -44.671,-34.382 -6.156,4.073 -13.526,6.457 -21.46,6.457 -21.188,0 -38.389,-16.921 -38.915,-37.982 -11.103,-5.079 -18.882,-16.279 -18.882,-29.232 0,-17.68 14.466,-32.146 32.146,-32.146 H -17.37 c 17.68,0 32.145,14.466 32.145,32.146 C 14.775,-15.696 8.865,-5.739 0,0"
         style="fill:#ffffff;fill-opacity:1;fill-rule:nonzero;stroke:none"
         id="path26"
         inkscape:connector-curvature="0" /></g><g
       id="g28"
       transform="translate(637.2653,732.1886)"><path
         d="m 0,0 c 0.305,1.677 0.488,3.397 0.488,5.162 0,15.871 -12.866,28.736 -28.736,28.736 -4.21,0 -8.197,-0.926 -11.799,-2.553 -4.368,21.016 -22.984,36.81 -45.296,36.81 -21.436,0 -39.416,-14.599 -44.671,-34.382 -6.156,4.073 -13.526,6.457 -21.46,6.457 -21.188,0 -38.389,-16.921 -38.915,-37.982 -11.103,-5.079 -18.882,-16.279 -18.882,-29.232 0,-17.68 14.466,-32.146 32.146,-32.146 H -17.37 c 17.68,0 32.145,14.466 32.145,32.146 C 14.775,-15.696 8.865,-5.739 0,0 Z"
         style="fill:none;stroke:#794039;stroke-width:6;stroke-linecap:butt;stroke-linejoin:miter;stroke-miterlimit:10;stroke-dasharray:none;stroke-opacity:1"
         id="path30"
         inkscape:connector-curvature="0" /></g><g
       id="g32"
       transform="translate(1231.8523,1480.1926)"><path
         d="m 0,0 h -7.193 c -1.183,17.244 -15.833,30.884 -33.779,30.884 -4.048,0 -7.912,-0.73 -11.511,-2.001 0.031,0.668 0.103,1.325 0.103,2.001 0,24.195 -20.071,43.809 -44.83,43.809 -6.65,0 -12.94,-1.453 -18.616,-3.992 -11.049,10.495 -26.105,16.983 -42.731,16.983 -24.736,0 -45.998,-14.337 -55.703,-34.946 -1.854,0.217 -3.73,0.361 -5.643,0.361 -26.063,0 -47.19,-20.647 -47.19,-46.115 0,-2.775 0.294,-5.478 0.775,-8.118 -11.323,-3.355 -19.651,-13.864 -19.651,-26.238 0,-15.054 12.317,-27.371 27.371,-27.371 H 0 c 15.054,0 27.371,12.317 27.371,27.371 C 27.371,-12.318 15.054,0 0,0"
         style="fill:#ffffff;fill-opacity:1;fill-rule:nonzero;stroke:none"
         id="path34"
         inkscape:connector-curvature="0" /></g><g
       id="g36"
       transform="translate(1231.8523,1480.1926)"><path
         d="m 0,0 h -7.193 c -1.183,17.244 -15.833,30.884 -33.779,30.884 -4.048,0 -7.912,-0.73 -11.511,-2.001 0.031,0.668 0.103,1.325 0.103,2.001 0,24.195 -20.071,43.809 -44.83,43.809 -6.65,0 -12.94,-1.453 -18.616,-3.992 -11.049,10.495 -26.105,16.983 -42.731,16.983 -24.736,0 -45.998,-14.337 -55.703,-34.946 -1.854,0.217 -3.73,0.361 -5.643,0.361 -26.063,0 -47.19,-20.647 -47.19,-46.115 0,-2.775 0.294,-5.478 0.775,-8.118 -11.323,-3.355 -19.651,-13.864 -19.651,-26.238 0,-15.054 12.317,-27.371 27.371,-27.371 H 0 c 15.054,0 27.371,12.317 27.371,27.371 C 27.371,-12.318 15.054,0 0,0 Z"
         style="fill:none;stroke:#794039;stroke-width:6;stroke-linecap:butt;stroke-linejoin:miter;stroke-miterlimit:10;stroke-dasharray:none;stroke-opacity:1"
         id="path38"
         inkscape:connector-curvature="0" /></g><g
       id="g40"
       transform="translate(97.7388,1192.1638)"><path
         d="m 0,0 h -7.193 c -1.183,17.244 -15.833,30.884 -33.779,30.884 -4.048,0 -7.912,-0.73 -11.511,-2.001 0.031,0.668 0.103,1.325 0.103,2.001 0,24.195 -20.071,43.809 -44.83,43.809 -6.65,0 -12.94,-1.453 -18.616,-3.992 -11.049,10.495 -26.105,16.983 -42.731,16.983 -24.736,0 -45.998,-14.337 -55.703,-34.946 -1.854,0.217 -3.73,0.361 -5.643,0.361 -26.063,0 -47.19,-20.647 -47.19,-46.115 0,-2.775 0.294,-5.478 0.775,-8.118 -11.323,-3.355 -19.651,-13.864 -19.651,-26.238 0,-15.054 12.317,-27.371 27.371,-27.371 H 0 c 15.054,0 27.371,12.317 27.371,27.371 C 27.371,-12.318 15.054,0 0,0"
         style="fill:#ffffff;fill-opacity:1;fill-rule:nonzero;stroke:none"
         id="path42"
         inkscape:connector-curvature="0" /></g><g
       id="g44"
       transform="translate(97.7388,1192.1638)"><path
         d="m 0,0 h -7.193 c -1.183,17.244 -15.833,30.884 -33.779,30.884 -4.048,0 -7.912,-0.73 -11.511,-2.001 0.031,0.668 0.103,1.325 0.103,2.001 0,24.195 -20.071,43.809 -44.83,43.809 -6.65,0 -12.94,-1.453 -18.616,-3.992 -11.049,10.495 -26.105,16.983 -42.731,16.983 -24.736,0 -45.998,-14.337 -55.703,-34.946 -1.854,0.217 -3.73,0.361 -5.643,0.361 -26.063,0 -47.19,-20.647 -47.19,-46.115 0,-2.775 0.294,-5.478 0.775,-8.118 -11.323,-3.355 -19.651,-13.864 -19.651,-26.238 0,-15.054 12.317,-27.371 27.371,-27.371 H 0 c 15.054,0 27.371,12.317 27.371,27.371 C 27.371,-12.318 15.054,0 0,0 Z"
         style="fill:none;stroke:#794039;stroke-width:6;stroke-linecap:butt;stroke-linejoin:miter;stroke-miterlimit:10;stroke-dasharray:none;stroke-opacity:1"
         id="path46"
         inkscape:connector-curvature="0" /></g><g
       id="g48"
       transform="translate(1759.9052,1117.1564)"><path
         d="m 0,0 h -7.193 c -1.183,17.244 -15.833,30.884 -33.779,30.884 -4.048,0 -7.912,-0.73 -11.511,-2.001 0.031,0.668 0.103,1.325 0.103,2.001 0,24.195 -20.071,43.809 -44.83,43.809 -6.65,0 -12.94,-1.453 -18.616,-3.992 -11.049,10.495 -26.105,16.983 -42.731,16.983 -24.736,0 -45.998,-14.337 -55.703,-34.946 -1.854,0.217 -3.73,0.36 -5.643,0.36 -26.063,0 -47.19,-20.646 -47.19,-46.114 0,-2.775 0.294,-5.478 0.775,-8.118 -11.323,-3.355 -19.651,-13.864 -19.651,-26.238 0,-15.054 12.317,-27.371 27.371,-27.371 H 0 c 15.054,0 27.371,12.317 27.371,27.371 C 27.371,-12.318 15.054,0 0,0"
         style="fill:#ffffff;fill-opacity:1;fill-rule:nonzero;stroke:none"
         id="path50"
         inkscape:connector-curvature="0" /></g><g
       id="g52"
       transform="translate(1759.9052,1117.1564)"><path
         d="m 0,0 h -7.193 c -1.183,17.244 -15.833,30.884 -33.779,30.884 -4.048,0 -7.912,-0.73 -11.511,-2.001 0.031,0.668 0.103,1.325 0.103,2.001 0,24.195 -20.071,43.809 -44.83,43.809 -6.65,0 -12.94,-1.453 -18.616,-3.992 -11.049,10.495 -26.105,16.983 -42.731,16.983 -24.736,0 -45.998,-14.337 -55.703,-34.946 -1.854,0.217 -3.73,0.36 -5.643,0.36 -26.063,0 -47.19,-20.646 -47.19,-46.114 0,-2.775 0.294,-5.478 0.775,-8.118 -11.323,-3.355 -19.651,-13.864 -19.651,-26.238 0,-15.054 12.317,-27.371 27.371,-27.371 H 0 c 15.054,0 27.371,12.317 27.371,27.371 C 27.371,-12.318 15.054,0 0,0 Z"
         style="fill:none;stroke:#794039;stroke-width:6;stroke-linecap:butt;stroke-linejoin:miter;stroke-miterlimit:10;stroke-dasharray:none;stroke-opacity:1"
         id="path54"
         inkscape:connector-curvature="0" /></g><g
       id="g56"
       transform="translate(1494.1412,409.6864)"><path
         d="m 0,0 c 0,-43.042 -34.89,-77.934 -77.934,-77.934 -43.04,0 -77.93,34.892 -77.93,77.934 0,43.042 34.89,77.932 77.93,77.932 C -34.89,77.932 0,43.042 0,0"
         style="fill:#ff1043;fill-opacity:1;fill-rule:nonzero;stroke:none"
         id="path58"
         inkscape:connector-curvature="0" /></g><g
       id="g60"
       transform="translate(1494.1412,409.6864)"><path
         d="m 0,0 c 0,-43.042 -34.89,-77.934 -77.934,-77.934 -43.04,0 -77.93,34.892 -77.93,77.934 0,43.042 34.89,77.932 77.93,77.932 C -34.89,77.932 0,43.042 0,0 Z"
         style="fill:none;stroke:#794039;stroke-width:6;stroke-linecap:butt;stroke-linejoin:miter;stroke-miterlimit:10;stroke-dasharray:none;stroke-opacity:1"
         id="path62"
         inkscape:connector-curvature="0" /></g><g
       id="g64"
       transform="translate(1547.5667,434.974)"><path
         d="m 0,0 h -12.785 c -1.257,3.311 -5.892,5.771 -11.436,5.771 -3.287,0 -6.254,-0.864 -8.391,-2.259 -1.952,5.154 -9.168,8.984 -17.793,8.984 -0.72,0 -1.427,-0.034 -2.13,-0.085 -4.01,5.982 -13.267,10.172 -24.054,10.172 -13.736,0 -24.977,-6.793 -26.074,-15.431 -3.201,1.755 -7.351,2.823 -11.894,2.823 -7.131,0 -13.296,-2.622 -16.327,-6.441 -2.694,1.398 -6.119,2.237 -9.857,2.237 -6.268,0 -11.663,-2.362 -14.183,-5.771 h -11.344 c -3.961,0 -7.201,-3.241 -7.201,-7.202 0,-3.959 3.24,-7.2 7.201,-7.2 H 0 c 3.961,0 7.202,3.241 7.202,7.2 C 7.202,-3.241 3.961,0 0,0"
         style="fill:#ffcdd2;fill-opacity:1;fill-rule:nonzero;stroke:none"
         id="path66"
         inkscape:connector-curvature="0" /></g><g
       id="g68"
       transform="translate(1547.5667,434.974)"><path
         d="m 0,0 h -12.785 c -1.257,3.311 -5.892,5.771 -11.436,5.771 -3.287,0 -6.254,-0.864 -8.391,-2.259 -1.952,5.154 -9.168,8.984 -17.793,8.984 -0.72,0 -1.427,-0.034 -2.13,-0.085 -4.01,5.982 -13.267,10.172 -24.054,10.172 -13.736,0 -24.977,-6.793 -26.074,-15.431 -3.201,1.755 -7.351,2.823 -11.894,2.823 -7.131,0 -13.296,-2.622 -16.327,-6.441 -2.694,1.398 -6.119,2.237 -9.857,2.237 -6.268,0 -11.663,-2.362 -14.183,-5.771 h -11.344 c -3.961,0 -7.201,-3.241 -7.201,-7.202 0,-3.959 3.24,-7.2 7.201,-7.2 H 0 c 3.961,0 7.202,3.241 7.202,7.2 C 7.202,-3.241 3.961,0 0,0 Z"
         style="fill:none;stroke:#794039;stroke-width:6;stroke-linecap:butt;stroke-linejoin:miter;stroke-miterlimit:10;stroke-dasharray:none;stroke-opacity:1"
         id="path70"
         inkscape:connector-curvature="0" /></g><g
       id="g72"
       transform="translate(1579.6887,389.9303)"><path
         d="m 0,0 h -0.809 c -1.725,2.35 -5.974,4.014 -10.954,4.014 -2.151,0 -4.163,-0.315 -5.899,-0.857 -0.078,5.41 -8.245,9.781 -18.322,9.781 -5.995,0 -11.301,-1.555 -14.645,-3.949 -3.301,2.598 -8.848,4.306 -15.138,4.306 -9.902,0 -17.949,-4.228 -18.297,-9.508 -2.694,1.17 -6.119,1.873 -9.849,1.873 -6.858,0 -12.672,-2.366 -14.815,-5.66 h -5.13 c -2.711,0 -4.929,-2.713 -4.929,-6.032 0,-3.319 2.218,-6.032 4.929,-6.032 H 0 c 2.712,0 4.93,2.713 4.93,6.032 C 4.93,-2.713 2.712,0 0,0"
         style="fill:#ffcdd2;fill-opacity:1;fill-rule:nonzero;stroke:none"
         id="path74"
         inkscape:connector-curvature="0" /></g><g
       id="g76"
       transform="translate(1579.6887,389.9303)"><path
         d="m 0,0 h -0.809 c -1.725,2.35 -5.974,4.014 -10.954,4.014 -2.151,0 -4.163,-0.315 -5.899,-0.857 -0.078,5.41 -8.245,9.781 -18.322,9.781 -5.995,0 -11.301,-1.555 -14.645,-3.949 -3.301,2.598 -8.848,4.306 -15.138,4.306 -9.902,0 -17.949,-4.228 -18.297,-9.508 -2.694,1.17 -6.119,1.873 -9.849,1.873 -6.858,0 -12.672,-2.366 -14.815,-5.66 h -5.13 c -2.711,0 -4.929,-2.713 -4.929,-6.032 0,-3.319 2.218,-6.032 4.929,-6.032 H 0 c 2.712,0 4.93,2.713 4.93,6.032 C 4.93,-2.713 2.712,0 0,0 Z"
         style="fill:none;stroke:#794039;stroke-width:6;stroke-linecap:butt;stroke-linejoin:miter;stroke-miterlimit:10;stroke-dasharray:none;stroke-opacity:1"
         id="path78"
         inkscape:connector-curvature="0" /></g><g
       id="g80"
       transform="translate(1509.968,298.0544)"><path
         d="m 0,0 -25.527,-33.385 -64.216,-1.61 -92.887,-2.318 -2.556,0.806 -129.02,40.433 13.746,37.313 8.287,10.998 84.991,111.74 8.838,-28.475 14.73,11.782 1.118,1.295 51.903,-68.064 20.622,9.819 39.274,-45.168 16.047,7.949 39.885,-36.424 z"
         style="fill:#9ee7f2;fill-opacity:1;fill-rule:nonzero;stroke:none"
         id="path82"
         inkscape:connector-curvature="0" /></g><g
       id="g84"
       transform="translate(1509.968,298.0544)"><path
         d="m 0,0 -25.527,-33.385 -64.216,-1.61 -92.887,-2.318 -2.556,0.806 -129.02,40.433 13.746,37.313 8.287,10.998 84.991,111.74 8.838,-28.475 14.73,11.782 1.118,1.295 51.903,-68.064 20.622,9.819 39.274,-45.168 16.047,7.949 39.885,-36.424 z"
         style="fill:none;stroke:#794039;stroke-width:6;stroke-linecap:butt;stroke-linejoin:miter;stroke-miterlimit:10;stroke-dasharray:none;stroke-opacity:1"
         id="path86"
         inkscape:connector-curvature="0" /></g><g
       id="g88"
       transform="translate(1566.9321,258.7697)"><path
         d="m 0,0 h -60.883 l -12.21,-22.173 -66.575,16.146 -0.76,0.146 -24.548,-26.505 -44.644,1.911 -33.819,-6.767 -0.088,-0.059 -49.472,18.528 -60.501,-4.777 -21.415,18.918 -45.347,4.632 68.721,100.171 2.4,-8.659 7.43,-26.711 58.924,53.043 5.878,-80.513 37.3,45.171 28.498,-46.167 21.591,31.421 0.029,-0.028 29.431,-27.473 14.716,18.667 55.001,-29.462 18.606,26.507 4.945,10.824 z"
         style="fill:#375a64;fill-opacity:1;fill-rule:nonzero;stroke:none"
         id="path90"
         inkscape:connector-curvature="0" /></g><g
       id="g92"
       transform="translate(1566.9321,258.7697)"><path
         d="m 0,0 h -60.883 l -12.21,-22.173 -66.575,16.146 -0.76,0.146 -24.548,-26.505 -44.644,1.911 -33.819,-6.767 -0.088,-0.059 -49.472,18.528 -60.501,-4.777 -21.415,18.918 -45.347,4.632 68.721,100.171 2.4,-8.659 7.43,-26.711 58.924,53.043 5.878,-80.513 37.3,45.171 28.498,-46.167 21.591,31.421 0.029,-0.028 29.431,-27.473 14.716,18.667 55.001,-29.462 18.606,26.507 4.945,10.824 z"
         style="fill:none;stroke:#794039;stroke-width:6;stroke-linecap:butt;stroke-linejoin:miter;stroke-miterlimit:10;stroke-dasharray:none;stroke-opacity:1"
         id="path94"
         inkscape:connector-curvature="0" /></g><g
       id="g96"><g
         id="g98" /><g
         id="g114"><g
           clip-path="url(#clipPath102)"
           id="g112"><g
             transform="translate(1327.3232,341.2721)"
             id="g106"><path
               d="m 0,0 -2.545,-79.723 -1.285,-40.021 -0.088,-0.059 -49.472,18.528 -60.501,-4.778 -21.415,18.919 -45.347,4.632 68.721,100.171 2.4,-8.659 7.43,-26.711 58.924,53.042 5.877,-80.513 z"
               style="fill:#ccd8dc;fill-opacity:1;fill-rule:nonzero;stroke:none"
               id="path104"
               inkscape:connector-curvature="0" /></g><g
             transform="translate(1327.3232,341.2721)"
             id="g110"><path
               d="m 0,0 -2.545,-79.723 -1.285,-40.021 -0.088,-0.059 -49.472,18.528 -60.501,-4.778 -21.415,18.919 -45.347,4.632 68.721,100.171 2.4,-8.659 7.43,-26.711 58.924,53.042 5.877,-80.513 z"
               style="fill:none;stroke:#794039;stroke-width:6;stroke-linecap:butt;stroke-linejoin:miter;stroke-miterlimit:10;stroke-dasharray:none;stroke-opacity:1"
               id="path108"
               inkscape:connector-curvature="0" /></g></g></g></g><g
       id="g116"><g
         id="g118" /><g
         id="g134"><g
           clip-path="url(#clipPath122)"
           id="g132"><g
             transform="translate(1566.9178,258.777)"
             id="g126"><path
               d="m 0,0 h -60.875 l -12.203,-22.193 -66.566,16.164 c -2.3,3.36 -4.674,6.815 -7.049,10.311 -20.387,29.829 -42.184,62.526 -42.791,63.451 l -0.021,0.02 -51.058,118.808 1.117,1.296 51.903,-68.065 20.622,9.819 39.274,-45.167 16.047,7.948 39.885,-36.424 4.948,10.801 z"
               style="fill:#abbec6;fill-opacity:1;fill-rule:nonzero;stroke:none"
               id="path124"
               inkscape:connector-curvature="0" /></g><g
             transform="translate(1566.9178,258.777)"
             id="g130"><path
               d="m 0,0 h -60.875 l -12.203,-22.193 -66.566,16.164 c -2.3,3.36 -4.674,6.815 -7.049,10.311 -20.387,29.829 -42.184,62.526 -42.791,63.451 l -0.021,0.02 -51.058,118.808 1.117,1.296 51.903,-68.065 20.622,9.819 39.274,-45.167 16.047,7.948 39.885,-36.424 4.948,10.801 z"
               style="fill:none;stroke:#794039;stroke-width:6;stroke-linecap:butt;stroke-linejoin:miter;stroke-miterlimit:10;stroke-dasharray:none;stroke-opacity:1"
               id="path128"
               inkscape:connector-curvature="0" /></g></g></g></g><path
       d="M -34,259 H 1626 V -37 H -34 Z"
       style="fill:#c7b299;fill-opacity:1;fill-rule:nonzero;stroke:#794039;stroke-width:7;stroke-linecap:round;stroke-linejoin:round;stroke-miterlimit:10;stroke-dasharray:none;stroke-opacity:1"
       id="path136"
       inkscape:connector-curvature="0" /><g
       id="g138"
       transform="translate(706.2496,334.1877)"><path
         d="m 0,0 c 0,0 -17.121,4.602 -24.363,28.625 -7.24,24.025 -8.386,84.029 0,108.055 8.386,24.026 27.731,42.427 39.314,26.071 C 26.533,146.391 33.545,71.051 25.558,38.85 17.571,6.643 5.99,1.531 0,0"
         style="fill:#4b823d;fill-opacity:1;fill-rule:nonzero;stroke:none"
         id="path140"
         inkscape:connector-curvature="0" /></g><g
       id="g142"
       transform="translate(706.2496,334.1877)"><path
         d="m 0,0 c 0,0 -17.121,4.602 -24.363,28.625 -7.24,24.025 -8.386,84.029 0,108.055 8.386,24.026 27.731,42.427 39.314,26.071 C 26.533,146.391 33.545,71.051 25.558,38.85 17.571,6.643 5.99,1.531 0,0 Z"
         style="fill:none;stroke:#794039;stroke-width:6;stroke-linecap:butt;stroke-linejoin:miter;stroke-miterlimit:10;stroke-dasharray:none;stroke-opacity:1"
         id="path144"
         inkscape:connector-curvature="0" /></g><g
       id="g146"
       transform="translate(698.567,262.8937)"><path
         d="m 0,0 c 0,0 2.188,87.638 1.56,90.581 -0.623,2.949 -8.428,16.411 -8.428,16.411 0,0 9.993,-12.202 10.928,-7.155 0.938,5.049 2.811,43.335 2.811,43.335 0,0 0.624,-38.706 3.121,-38.286 2.499,0.421 12.802,15.568 12.802,15.568 0,0 -11.866,-20.197 -11.866,-27.768 C 10.928,85.114 11.868,0 11.868,0 Z"
         style="fill:#695020;fill-opacity:1;fill-rule:nonzero;stroke:none"
         id="path148"
         inkscape:connector-curvature="0" /></g><g
       id="g150"
       transform="translate(698.567,262.8937)"><path
         d="m 0,0 c 0,0 2.188,87.638 1.56,90.581 -0.623,2.949 -8.428,16.411 -8.428,16.411 0,0 9.993,-12.202 10.928,-7.155 0.938,5.049 2.811,43.335 2.811,43.335 0,0 0.624,-38.706 3.121,-38.286 2.499,0.421 12.802,15.568 12.802,15.568 0,0 -11.866,-20.197 -11.866,-27.768 C 10.928,85.114 11.868,0 11.868,0 Z"
         style="fill:none;stroke:#794039;stroke-width:6;stroke-linecap:butt;stroke-linejoin:miter;stroke-miterlimit:10;stroke-dasharray:none;stroke-opacity:1"
         id="path152"
         inkscape:connector-curvature="0" /></g><g
       id="g154"
       transform="translate(65.5056,322.5241)"><path
         d="m 0,0 c 0,0 -11.247,-8.078 -18.717,2.793 0,0 -12.452,-3.106 -15.256,8.385 0,0 -14.944,1.241 -14.322,12.735 0,0 -18.055,8.695 -6.224,25.158 0,0 -11.52,10.25 1.554,21.741 0,0 -9.961,14.907 7.473,19.256 0,0 1.558,17.707 18.991,13.668 0,0 4.669,14.909 21.481,9.318 0,0 15.103,11.204 23.661,-3.728 0,0 16.503,2.175 19.613,-11.492 0,0 15.878,-2.175 14.321,-18.015 0,0 12.19,-11.181 4.405,-24.535 0,0 7.762,-22.242 -9.076,-24.226 0,0 0.538,-9.85 -9.427,-14.199 0,0 -1.782,-11.892 -12.364,-10.026 0,0 -8.096,-9.01 -14.01,-4.04 z"
         style="fill:#b4cb34;fill-opacity:1;fill-rule:nonzero;stroke:none"
         id="path156"
         inkscape:connector-curvature="0" /></g><g
       id="g158"
       transform="translate(65.5056,322.5241)"><path
         d="m 0,0 c 0,0 -11.247,-8.078 -18.717,2.793 0,0 -12.452,-3.106 -15.256,8.385 0,0 -14.944,1.241 -14.322,12.735 0,0 -18.055,8.695 -6.224,25.158 0,0 -11.52,10.25 1.554,21.741 0,0 -9.961,14.907 7.473,19.256 0,0 1.558,17.707 18.991,13.668 0,0 4.669,14.909 21.481,9.318 0,0 15.103,11.204 23.661,-3.728 0,0 16.503,2.175 19.613,-11.492 0,0 15.878,-2.175 14.321,-18.015 0,0 12.19,-11.181 4.405,-24.535 0,0 7.762,-22.242 -9.076,-24.226 0,0 0.538,-9.85 -9.427,-14.199 0,0 -1.782,-11.892 -12.364,-10.026 0,0 -8.096,-9.01 -14.01,-4.04 z"
         style="fill:none;stroke:#794039;stroke-width:6;stroke-linecap:butt;stroke-linejoin:miter;stroke-miterlimit:10;stroke-dasharray:none;stroke-opacity:1"
         id="path160"
         inkscape:connector-curvature="0" /></g><g
       id="g162"
       transform="translate(46.7888,351.1765)"><path
         d="m 0,0 c 0,0 17.432,-1.806 18.678,-10.833 1.246,-9.026 -1.867,-81.839 -1.867,-81.839 H 35.49 c 0,0 -8.096,81.841 -5.293,87.773 2.8,5.931 11.83,9.284 11.83,9.284 0,0 -10.276,0.257 -13.697,-2.838 C 24.906,-1.549 20.545,-2.321 15.876,-1.549 11.207,-0.774 6.537,0.515 0,0"
         style="fill:#695020;fill-opacity:1;fill-rule:nonzero;stroke:none"
         id="path164"
         inkscape:connector-curvature="0" /></g><g
       id="g166"
       transform="translate(46.7888,351.1765)"><path
         d="m 0,0 c 0,0 17.432,-1.806 18.678,-10.833 1.246,-9.026 -1.867,-81.839 -1.867,-81.839 H 35.49 c 0,0 -8.096,81.841 -5.293,87.773 2.8,5.931 11.83,9.284 11.83,9.284 0,0 -10.276,0.257 -13.697,-2.838 C 24.906,-1.549 20.545,-2.321 15.876,-1.549 11.207,-0.774 6.537,0.515 0,0 Z"
         style="fill:none;stroke:#794039;stroke-width:6;stroke-linecap:butt;stroke-linejoin:miter;stroke-miterlimit:10;stroke-dasharray:none;stroke-opacity:1"
         id="path168"
         inkscape:connector-curvature="0" /></g><g
       id="g170"
       transform="translate(608.2038,322.5241)"><path
         d="m 0,0 c 0,0 -11.247,-8.078 -18.717,2.793 0,0 -12.452,-3.106 -15.256,8.385 0,0 -14.944,1.241 -14.322,12.735 0,0 -18.055,8.695 -6.224,25.158 0,0 -11.52,10.25 1.554,21.741 0,0 -9.961,14.907 7.473,19.256 0,0 1.558,17.707 18.991,13.668 0,0 4.668,14.909 21.481,9.318 0,0 15.103,11.204 23.661,-3.728 0,0 16.502,2.175 19.613,-11.492 0,0 15.878,-2.175 14.321,-18.015 0,0 12.19,-11.181 4.404,-24.535 0,0 7.763,-22.242 -9.075,-24.226 0,0 0.538,-9.85 -9.427,-14.199 0,0 -1.782,-11.892 -12.364,-10.026 0,0 -8.096,-9.01 -14.01,-4.04 z"
         style="fill:#b4cb34;fill-opacity:1;fill-rule:nonzero;stroke:none"
         id="path172"
         inkscape:connector-curvature="0" /></g><g
       id="g174"
       transform="translate(608.2038,322.5241)"><path
         d="m 0,0 c 0,0 -11.247,-8.078 -18.717,2.793 0,0 -12.452,-3.106 -15.256,8.385 0,0 -14.944,1.241 -14.322,12.735 0,0 -18.055,8.695 -6.224,25.158 0,0 -11.52,10.25 1.554,21.741 0,0 -9.961,14.907 7.473,19.256 0,0 1.558,17.707 18.991,13.668 0,0 4.668,14.909 21.481,9.318 0,0 15.103,11.204 23.661,-3.728 0,0 16.502,2.175 19.613,-11.492 0,0 15.878,-2.175 14.321,-18.015 0,0 12.19,-11.181 4.404,-24.535 0,0 7.763,-22.242 -9.075,-24.226 0,0 0.538,-9.85 -9.427,-14.199 0,0 -1.782,-11.892 -12.364,-10.026 0,0 -8.096,-9.01 -14.01,-4.04 z"
         style="fill:none;stroke:#794039;stroke-width:6;stroke-linecap:butt;stroke-linejoin:miter;stroke-miterlimit:10;stroke-dasharray:none;stroke-opacity:1"
         id="path176"
         inkscape:connector-curvature="0" /></g><g
       id="g178"
       transform="translate(589.487,351.1765)"><path
         d="m 0,0 c 0,0 17.432,-1.806 18.678,-10.833 1.246,-9.026 -1.868,-81.839 -1.868,-81.839 h 18.68 c 0,0 -8.097,81.841 -5.293,87.773 2.8,5.931 11.83,9.284 11.83,9.284 0,0 -10.275,0.257 -13.697,-2.838 C 24.906,-1.549 20.545,-2.321 15.875,-1.549 11.207,-0.774 6.537,0.515 0,0"
         style="fill:#695020;fill-opacity:1;fill-rule:nonzero;stroke:none"
         id="path180"
         inkscape:connector-curvature="0" /></g><g
       id="g182"
       transform="translate(589.487,351.1765)"><path
         d="m 0,0 c 0,0 17.432,-1.806 18.678,-10.833 1.246,-9.026 -1.868,-81.839 -1.868,-81.839 h 18.68 c 0,0 -8.097,81.841 -5.293,87.773 2.8,5.931 11.83,9.284 11.83,9.284 0,0 -10.275,0.257 -13.697,-2.838 C 24.906,-1.549 20.545,-2.321 15.875,-1.549 11.207,-0.774 6.537,0.515 0,0 Z"
         style="fill:none;stroke:#794039;stroke-width:6;stroke-linecap:butt;stroke-linejoin:miter;stroke-miterlimit:10;stroke-dasharray:none;stroke-opacity:1"
         id="path184"
         inkscape:connector-curvature="0" /></g><g
       id="g186"
       transform="translate(475.1054,258.7131)"><path
         d="m 0,0 c 0,0 -21.04,8.859 -5.163,21.511 0,0 -18.738,16.028 -5.983,26.352 12.754,10.325 26.06,-6.85 26.06,-6.85 0,0 -11.513,16.102 4.484,19.469 16.347,3.442 13.584,-16.601 13.584,-16.601 0,0 2.473,22.732 20.362,12.905 16.243,-8.923 10.325,-22.943 -1.434,-24.951 0,0 17.208,5.449 20.076,-5.162 2.868,-10.612 -13.193,-13.767 -13.193,-13.767 0,0 18.642,4.015 21.51,-4.589 C 83.171,-0.287 60.983,0 60.983,0 Z"
         style="fill:#94c85b;fill-opacity:1;fill-rule:nonzero;stroke:none"
         id="path188"
         inkscape:connector-curvature="0" /></g><g
       id="g190"
       transform="translate(475.1054,258.7131)"><path
         d="m 0,0 c 0,0 -21.04,8.859 -5.163,21.511 0,0 -18.738,16.028 -5.983,26.352 12.754,10.325 26.06,-6.85 26.06,-6.85 0,0 -11.513,16.102 4.484,19.469 16.347,3.442 13.584,-16.601 13.584,-16.601 0,0 2.473,22.732 20.362,12.905 16.243,-8.923 10.325,-22.943 -1.434,-24.951 0,0 17.208,5.449 20.076,-5.162 2.868,-10.612 -13.193,-13.767 -13.193,-13.767 0,0 18.642,4.015 21.51,-4.589 C 83.171,-0.287 60.983,0 60.983,0 Z"
         style="fill:none;stroke:#794039;stroke-width:6;stroke-linecap:round;stroke-linejoin:round;stroke-miterlimit:10;stroke-dasharray:none;stroke-opacity:1"
         id="path192"
         inkscape:connector-curvature="0" /></g><g
       id="g194"
       transform="translate(1486.0823,255.9342)"><path
         d="M 0,0 C 0,0 -12.504,12.504 -6.008,27.769 0.487,43.034 19.974,40.6 19.974,40.6 c 0,0 -5.683,17.244 15.915,24.293 21.599,7.047 33.291,-15.688 33.291,-15.688 0,0 1.136,11.366 11.042,10.555 9.906,-0.812 6.171,-14.616 2.111,-17.537 0,0 11.206,10.392 18.187,1.461 6.984,-8.932 -10.555,-10.561 -10.555,-10.561 0,0 15.59,2.498 20.624,-6.786 5.036,-9.286 -3.573,-13.833 -3.573,-13.833 0,0 11.53,4.547 14.616,-1.461 C 124.718,5.035 105.88,0.812 105.88,0.812 Z"
         style="fill:#88c881;fill-opacity:1;fill-rule:nonzero;stroke:none"
         id="path196"
         inkscape:connector-curvature="0" /></g><g
       id="g198"
       transform="translate(1486.0823,255.9342)"><path
         d="M 0,0 C 0,0 -12.504,12.504 -6.008,27.769 0.487,43.034 19.974,40.6 19.974,40.6 c 0,0 -5.683,17.244 15.915,24.293 21.599,7.047 33.291,-15.688 33.291,-15.688 0,0 1.136,11.366 11.042,10.555 9.906,-0.812 6.171,-14.616 2.111,-17.537 0,0 11.206,10.392 18.187,1.461 6.984,-8.932 -10.555,-10.561 -10.555,-10.561 0,0 15.59,2.498 20.624,-6.786 5.036,-9.286 -3.573,-13.833 -3.573,-13.833 0,0 11.53,4.547 14.616,-1.461 C 124.718,5.035 105.88,0.812 105.88,0.812 Z"
         style="fill:none;stroke:#794039;stroke-width:6;stroke-linecap:round;stroke-linejoin:round;stroke-miterlimit:10;stroke-dasharray:none;stroke-opacity:1"
         id="path200"
         inkscape:connector-curvature="0" /></g><g
       id="g202"
       transform="translate(901.0237,255.9342)"><path
         d="M 0,0 C 0,0 -12.504,12.504 -6.008,27.769 0.487,43.034 19.974,40.6 19.974,40.6 c 0,0 -5.683,17.244 15.915,24.293 21.599,7.047 33.291,-15.688 33.291,-15.688 0,0 1.136,11.366 11.042,10.555 9.906,-0.812 6.171,-14.616 2.111,-17.537 0,0 11.206,10.392 18.187,1.461 6.984,-8.932 -10.555,-10.561 -10.555,-10.561 0,0 15.59,2.498 20.624,-6.786 5.036,-9.286 -3.573,-13.833 -3.573,-13.833 0,0 11.53,4.547 14.616,-1.461 C 124.718,5.035 105.88,0.812 105.88,0.812 Z"
         style="fill:#88c881;fill-opacity:1;fill-rule:nonzero;stroke:none"
         id="path204"
         inkscape:connector-curvature="0" /></g><g
       id="g206"
       transform="translate(901.0237,255.9342)"><path
         d="M 0,0 C 0,0 -12.504,12.504 -6.008,27.769 0.487,43.034 19.974,40.6 19.974,40.6 c 0,0 -5.683,17.244 15.915,24.293 21.599,7.047 33.291,-15.688 33.291,-15.688 0,0 1.136,11.366 11.042,10.555 9.906,-0.812 6.171,-14.616 2.111,-17.537 0,0 11.206,10.392 18.187,1.461 6.984,-8.932 -10.555,-10.561 -10.555,-10.561 0,0 15.59,2.498 20.624,-6.786 5.036,-9.286 -3.573,-13.833 -3.573,-13.833 0,0 11.53,4.547 14.616,-1.461 C 124.718,5.035 105.88,0.812 105.88,0.812 Z"
         style="fill:none;stroke:#794039;stroke-width:6;stroke-linecap:round;stroke-linejoin:round;stroke-miterlimit:10;stroke-dasharray:none;stroke-opacity:1"
         id="path208"
         inkscape:connector-curvature="0" /></g><path
       d="m 923.018,405.038 h -7.141 V 255.956 h 7.141 z"
       style="fill:#f2003c;fill-opacity:1;fill-rule:nonzero;stroke:#794039;stroke-width:6;stroke-linecap:butt;stroke-linejoin:miter;stroke-miterlimit:10;stroke-dasharray:none;stroke-opacity:1"
       id="path210"
       inkscape:connector-curvature="0" /><path
       d="m 924.924,389.002 h -10.953 v 18.157 h 10.953 z"
       style="fill:#ff003e;fill-opacity:1;fill-rule:nonzero;stroke:#794039;stroke-width:6;stroke-linecap:butt;stroke-linejoin:miter;stroke-miterlimit:10;stroke-dasharray:none;stroke-opacity:1"
       id="path212"
       inkscape:connector-curvature="0" /><g
       id="g214"
       transform="translate(914.308,394.6719)"><path
         d="m 0,0 -18.883,-29.433 h 6.357 L 5.143,-3.954 Z"
         style="fill:#ff003e;fill-opacity:1;fill-rule:nonzero;stroke:none"
         id="path216"
         inkscape:connector-curvature="0" /></g><g
       id="g218"
       transform="translate(914.308,394.6719)"><path
         d="m 0,0 -18.883,-29.433 h 6.357 L 5.143,-3.954 Z"
         style="fill:none;stroke:#794039;stroke-width:6;stroke-linecap:butt;stroke-linejoin:miter;stroke-miterlimit:10;stroke-dasharray:none;stroke-opacity:1"
         id="path220"
         inkscape:connector-curvature="0" /></g><g
       id="g222"
       transform="translate(924.5906,394.6719)"><path
         d="m 0,0 17.183,-24.283 -5.722,-2.671 -16.6,23 z"
         style="fill:#ff003e;fill-opacity:1;fill-rule:nonzero;stroke:none"
         id="path224"
         inkscape:connector-curvature="0" /></g><g
       id="g226"
       transform="translate(924.5906,394.6719)"><path
         d="m 0,0 17.183,-24.283 -5.722,-2.671 -16.6,23 z"
         style="fill:none;stroke:#794039;stroke-width:6;stroke-linecap:butt;stroke-linejoin:miter;stroke-miterlimit:10;stroke-dasharray:none;stroke-opacity:1"
         id="path228"
         inkscape:connector-curvature="0" /></g><g
       id="g230"
       transform="translate(908.8561,255.9565)"><path
         d="M 0,0 H 21.531 V 66.721 H -1.143 l 0.139,-8.436 z"
         style="fill:#ff1043;fill-opacity:1;fill-rule:nonzero;stroke:none"
         id="path232"
         inkscape:connector-curvature="0" /></g><g
       id="g234"
       transform="translate(908.8561,255.9565)"><path
         d="M 0,0 H 21.531 V 66.721 H -1.143 l 0.139,-8.436 z"
         style="fill:none;stroke:#794039;stroke-width:6;stroke-linecap:butt;stroke-linejoin:miter;stroke-miterlimit:10;stroke-dasharray:none;stroke-opacity:1"
         id="path236"
         inkscape:connector-curvature="0" /></g><g
       id="g238"><g
         id="g240" /><g
         id="g250"><g
           clip-path="url(#clipPath244)"
           id="g248"><path
             d="m 930.387,314.241 h -22.702 v 8.437 h 22.702 z"
             style="fill:#e0e0e0;fill-opacity:1;fill-rule:nonzero;stroke:#794039;stroke-width:6;stroke-linecap:butt;stroke-linejoin:miter;stroke-miterlimit:10;stroke-dasharray:none;stroke-opacity:1"
             id="path246"
             inkscape:connector-curvature="0" /></g></g></g><path
       d="m 931.895,317.295 h -25.346 v 8.431 h 25.346 z"
       style="fill:#ff003e;fill-opacity:1;fill-rule:nonzero;stroke:#794039;stroke-width:6;stroke-linecap:butt;stroke-linejoin:miter;stroke-miterlimit:10;stroke-dasharray:none;stroke-opacity:1"
       id="path252"
       inkscape:connector-curvature="0" /><g
       id="g254"
       transform="translate(899.2125,324.4545)"><path
         d="M 0,0 20.239,11.005 40.474,0 Z"
         style="fill:#00ac5c;fill-opacity:1;fill-rule:nonzero;stroke:none"
         id="path256"
         inkscape:connector-curvature="0" /></g><g
       id="g258"
       transform="translate(899.2125,324.4545)"><path
         d="M 0,0 20.239,11.005 40.474,0 Z"
         style="fill:none;stroke:#794039;stroke-width:6;stroke-linecap:butt;stroke-linejoin:miter;stroke-miterlimit:10;stroke-dasharray:none;stroke-opacity:1"
         id="path260"
         inkscape:connector-curvature="0" /></g><path
       d="m 788.278,405.038 h -7.139 V 255.956 h 7.139 z"
       style="fill:#f2003c;fill-opacity:1;fill-rule:nonzero;stroke:#794039;stroke-width:6;stroke-linecap:butt;stroke-linejoin:miter;stroke-miterlimit:10;stroke-dasharray:none;stroke-opacity:1"
       id="path262"
       inkscape:connector-curvature="0" /><path
       d="m 790.186,389.002 h -10.955 v 18.157 h 10.955 z"
       style="fill:#ff003e;fill-opacity:1;fill-rule:nonzero;stroke:#794039;stroke-width:6;stroke-linecap:butt;stroke-linejoin:miter;stroke-miterlimit:10;stroke-dasharray:none;stroke-opacity:1"
       id="path264"
       inkscape:connector-curvature="0" /><g
       id="g266"
       transform="translate(789.847,394.6719)"><path
         d="M 0,0 18.883,-29.433 H 12.528 L -5.14,-3.954 Z"
         style="fill:#ff003e;fill-opacity:1;fill-rule:nonzero;stroke:none"
         id="path268"
         inkscape:connector-curvature="0" /></g><g
       id="g270"
       transform="translate(789.847,394.6719)"><path
         d="M 0,0 18.883,-29.433 H 12.528 L -5.14,-3.954 Z"
         style="fill:none;stroke:#794039;stroke-width:6;stroke-linecap:butt;stroke-linejoin:miter;stroke-miterlimit:10;stroke-dasharray:none;stroke-opacity:1"
         id="path272"
         inkscape:connector-curvature="0" /></g><g
       id="g274"
       transform="translate(779.5662,394.6719)"><path
         d="m 0,0 -17.181,-24.283 5.722,-2.671 16.6,23 z"
         style="fill:#ff003e;fill-opacity:1;fill-rule:nonzero;stroke:none"
         id="path276"
         inkscape:connector-curvature="0" /></g><g
       id="g278"
       transform="translate(779.5662,394.6719)"><path
         d="m 0,0 -17.181,-24.283 5.722,-2.671 16.6,23 z"
         style="fill:none;stroke:#794039;stroke-width:6;stroke-linecap:butt;stroke-linejoin:miter;stroke-miterlimit:10;stroke-dasharray:none;stroke-opacity:1"
         id="path280"
         inkscape:connector-curvature="0" /></g><g
       id="g282"
       transform="translate(795.3007,255.9565)"><path
         d="m 0,0 1.004,58.285 0.137,8.436 0.03,1.77 H -21.533 V 0 Z"
         style="fill:#ff1043;fill-opacity:1;fill-rule:nonzero;stroke:none"
         id="path284"
         inkscape:connector-curvature="0" /></g><g
       id="g286"
       transform="translate(795.3007,255.9565)"><path
         d="m 0,0 1.004,58.285 0.137,8.436 0.03,1.77 H -21.533 V 0 Z"
         style="fill:none;stroke:#794039;stroke-width:6;stroke-linecap:butt;stroke-linejoin:miter;stroke-miterlimit:10;stroke-dasharray:none;stroke-opacity:1"
         id="path288"
         inkscape:connector-curvature="0" /></g><g
       id="g290"><g
         id="g292" /><g
         id="g308"><g
           clip-path="url(#clipPath296)"
           id="g306"><g
             transform="translate(796.4415,322.6779)"
             id="g300"><path
               d="M 0,0 -0.137,-8.437 H -22.674 V 0 Z"
               style="fill:#e0e0e0;fill-opacity:1;fill-rule:nonzero;stroke:none"
               id="path298"
               inkscape:connector-curvature="0" /></g><g
             transform="translate(796.4415,322.6779)"
             id="g304"><path
               d="M 0,0 -0.137,-8.437 H -22.674 V 0 Z"
               style="fill:none;stroke:#794039;stroke-width:6;stroke-linecap:butt;stroke-linejoin:miter;stroke-miterlimit:10;stroke-dasharray:none;stroke-opacity:1"
               id="path302"
               inkscape:connector-curvature="0" /></g></g></g></g><path
       d="m 772.261,317.295 h 25.513 v 8.431 h -25.513 z"
       style="fill:#ff003e;fill-opacity:1;fill-rule:nonzero;stroke:#794039;stroke-width:6;stroke-linecap:butt;stroke-linejoin:miter;stroke-miterlimit:10;stroke-dasharray:none;stroke-opacity:1"
       id="path310"
       inkscape:connector-curvature="0" /><g
       id="g312"
       transform="translate(804.9424,324.4545)"><path
         d="M 0,0 -20.235,11.005 -40.472,0 Z"
         style="fill:#00ac5c;fill-opacity:1;fill-rule:nonzero;stroke:none"
         id="path314"
         inkscape:connector-curvature="0" /></g><g
       id="g316"
       transform="translate(804.9424,324.4545)"><path
         d="M 0,0 -20.235,11.005 -40.472,0 Z"
         style="fill:none;stroke:#794039;stroke-width:6;stroke-linecap:butt;stroke-linejoin:miter;stroke-miterlimit:10;stroke-dasharray:none;stroke-opacity:1"
         id="path318"
         inkscape:connector-curvature="0" /></g><g
       id="g320"><g
         id="g322" /><g
         id="g338"><g
           clip-path="url(#clipPath326)"
           id="g336"><g
             transform="translate(779.2307,407.1589)"
             id="g330"><path
               d="m 0,0 h 10.955 v -11.534 c -0.64,0.153 -1.281,0.305 -1.908,0.458 C 6.683,-10.497 4.302,-9.887 1.908,-9.23 1.267,-9.078 0.64,-8.895 0,-8.712 Z"
               style="fill:#e0e0e0;fill-opacity:1;fill-rule:nonzero;stroke:none"
               id="path328"
               inkscape:connector-curvature="0" /></g><g
             transform="translate(779.2307,407.1589)"
             id="g334"><path
               d="m 0,0 h 10.955 v -11.534 c -0.64,0.153 -1.281,0.305 -1.908,0.458 C 6.683,-10.497 4.302,-9.887 1.908,-9.23 1.267,-9.078 0.64,-8.895 0,-8.712 Z"
               style="fill:none;stroke:#794039;stroke-width:6;stroke-linecap:butt;stroke-linejoin:miter;stroke-miterlimit:10;stroke-dasharray:none;stroke-opacity:1"
               id="path332"
               inkscape:connector-curvature="0" /></g></g></g></g><g
       id="g340"><g
         id="g342" /><g
         id="g358"><g
           clip-path="url(#clipPath346)"
           id="g356"><g
             transform="translate(924.9243,407.1589)"
             id="g350"><path
               d="m 0,0 v -8.712 c -0.639,-0.183 -1.267,-0.366 -1.906,-0.518 -2.396,-0.657 -4.777,-1.267 -7.141,-1.846 -0.625,-0.153 -1.268,-0.305 -1.906,-0.458 V 0 Z"
               style="fill:#e0e0e0;fill-opacity:1;fill-rule:nonzero;stroke:none"
               id="path348"
               inkscape:connector-curvature="0" /></g><g
             transform="translate(924.9243,407.1589)"
             id="g354"><path
               d="m 0,0 v -8.712 c -0.639,-0.183 -1.267,-0.366 -1.906,-0.518 -2.396,-0.657 -4.777,-1.267 -7.141,-1.846 -0.625,-0.153 -1.268,-0.305 -1.906,-0.458 V 0 Z"
               style="fill:none;stroke:#794039;stroke-width:6;stroke-linecap:butt;stroke-linejoin:miter;stroke-miterlimit:10;stroke-dasharray:none;stroke-opacity:1"
               id="path352"
               inkscape:connector-curvature="0" /></g></g></g></g><g
       id="g360"
       transform="translate(945.28,430.1679)"><path
         d="m 0,0 c -0.504,-4.288 -0.98,-8.423 -1.452,-12.389 -0.379,-3.22 -0.745,-6.332 -1.114,-9.353 -32.587,-10.833 -62.37,-15.823 -90.627,-15.823 -28.274,0 -58.057,4.99 -90.646,15.823 -0.351,3.021 -0.717,6.133 -1.098,9.353 -0.474,3.966 -0.963,8.101 -1.466,12.389 33.598,-12.313 64.205,-17.974 93.21,-17.974 28.988,0 59.595,5.661 93.193,17.974"
         style="fill:#ff003e;fill-opacity:1;fill-rule:nonzero;stroke:none"
         id="path362"
         inkscape:connector-curvature="0" /></g><g
       id="g364"
       transform="translate(945.28,430.1679)"><path
         d="m 0,0 c -0.504,-4.288 -0.98,-8.423 -1.452,-12.389 -0.379,-3.22 -0.745,-6.332 -1.114,-9.353 -32.587,-10.833 -62.37,-15.823 -90.627,-15.823 -28.274,0 -58.057,4.99 -90.646,15.823 -0.351,3.021 -0.717,6.133 -1.098,9.353 -0.474,3.966 -0.963,8.101 -1.466,12.389 33.598,-12.313 64.205,-17.974 93.21,-17.974 28.988,0 59.595,5.661 93.193,17.974 z"
         style="fill:none;stroke:#794039;stroke-width:6;stroke-linecap:butt;stroke-linejoin:miter;stroke-miterlimit:10;stroke-dasharray:none;stroke-opacity:1"
         id="path366"
         inkscape:connector-curvature="0" /></g><g
       id="g368"><g
         id="g370" /><g
         id="g386"><g
           clip-path="url(#clipPath374)"
           id="g384"><g
             transform="translate(945.28,430.1679)"
             id="g378"><path
               d="m 0,0 c -0.504,-4.288 -0.98,-8.423 -1.452,-12.389 -30.024,-8.27 -60.875,-12.389 -91.741,-12.389 -30.867,0 -61.718,4.119 -91.744,12.389 -0.474,3.966 -0.963,8.101 -1.466,12.389 33.598,-12.313 64.205,-17.974 93.21,-17.974 28.988,0 59.595,5.661 93.193,17.974"
               style="fill:#e0e0e0;fill-opacity:1;fill-rule:nonzero;stroke:none"
               id="path376"
               inkscape:connector-curvature="0" /></g><g
             transform="translate(945.28,430.1679)"
             id="g382"><path
               d="m 0,0 c -0.504,-4.288 -0.98,-8.423 -1.452,-12.389 -30.024,-8.27 -60.875,-12.389 -91.741,-12.389 -30.867,0 -61.718,4.119 -91.744,12.389 -0.474,3.966 -0.963,8.101 -1.466,12.389 33.598,-12.313 64.205,-17.974 93.21,-17.974 28.988,0 59.595,5.661 93.193,17.974 z"
               style="fill:none;stroke:#794039;stroke-width:6;stroke-linecap:butt;stroke-linejoin:miter;stroke-miterlimit:10;stroke-dasharray:none;stroke-opacity:1"
               id="path380"
               inkscape:connector-curvature="0" /></g></g></g></g><g
       id="g388"
       transform="translate(969.2882,431.174)"><path
         d="m 0,0 c -37.886,-13.64 -77.54,-20.445 -117.208,-20.445 -39.672,0 -79.326,6.805 -117.21,20.445 0.581,1.602 1.159,3.219 1.739,4.822 1.832,5.081 3.647,10.146 5.477,15.227 35.551,-12.801 72.764,-19.193 109.994,-19.193 37.226,0 74.441,6.392 109.989,19.193 C -5.388,14.968 -3.571,9.903 -1.739,4.822 -1.161,3.219 -0.582,1.602 0,0"
         style="fill:#ffa800;fill-opacity:1;fill-rule:nonzero;stroke:none"
         id="path390"
         inkscape:connector-curvature="0" /></g><g
       id="g392"
       transform="translate(969.2882,431.174)"><path
         d="m 0,0 c -37.886,-13.64 -77.54,-20.445 -117.208,-20.445 -39.672,0 -79.326,6.805 -117.21,20.445 0.581,1.602 1.159,3.219 1.739,4.822 1.832,5.081 3.647,10.146 5.477,15.227 35.551,-12.801 72.764,-19.193 109.994,-19.193 37.226,0 74.441,6.392 109.989,19.193 C -5.388,14.968 -3.571,9.903 -1.739,4.822 -1.161,3.219 -0.582,1.602 0,0 Z"
         style="fill:none;stroke:#794039;stroke-width:6;stroke-linecap:butt;stroke-linejoin:miter;stroke-miterlimit:10;stroke-dasharray:none;stroke-opacity:1"
         id="path394"
         inkscape:connector-curvature="0" /></g><g
       id="g396"
       transform="translate(967.5491,435.996)"><path
         d="m 0,0 c -37.35,-13.229 -76.412,-19.836 -115.469,-19.836 -39.061,0 -78.12,6.607 -115.471,19.836 1.832,5.081 3.647,10.146 5.477,15.227 35.551,-12.801 72.765,-19.193 109.994,-19.193 37.226,0 74.442,6.392 109.989,19.193 C -3.649,10.146 -1.831,5.081 0,0"
         style="fill:#ff1043;fill-opacity:1;fill-rule:nonzero;stroke:none"
         id="path398"
         inkscape:connector-curvature="0" /></g><g
       id="g400"
       transform="translate(967.5491,435.996)"><path
         d="m 0,0 c -37.35,-13.229 -76.412,-19.836 -115.469,-19.836 -39.061,0 -78.12,6.607 -115.471,19.836 1.832,5.081 3.647,10.146 5.477,15.227 35.551,-12.801 72.765,-19.193 109.994,-19.193 37.226,0 74.442,6.392 109.989,19.193 C -3.649,10.146 -1.831,5.081 0,0 Z"
         style="fill:none;stroke:#794039;stroke-width:6;stroke-linecap:butt;stroke-linejoin:miter;stroke-miterlimit:10;stroke-dasharray:none;stroke-opacity:1"
         id="path402"
         inkscape:connector-curvature="0" /></g><g
       id="g404"
       transform="translate(975.0312,472.5991)"><path
         d="m 0,0 c 0,0 -0.06,-3.143 -0.596,-7.339 -0.366,-2.823 -0.916,-6.119 -1.828,-9.262 -0.476,-1.662 -1.04,-3.295 -1.725,-4.775 -42.068,-15.151 -74.747,-21.391 -118.795,-21.391 -44.066,0 -76.747,6.24 -118.812,21.391 -0.32,1.281 -0.671,2.853 -1.022,4.562 -0.611,2.945 -1.252,6.301 -1.8,9.231 -0.763,4.241 -1.328,7.583 -1.328,7.583 0,0 62.555,-21.376 122.962,-21.467 C -53.156,-18.812 0,0 0,0"
         style="fill:#00a65a;fill-opacity:1;fill-rule:nonzero;stroke:none"
         id="path406"
         inkscape:connector-curvature="0" /></g><g
       id="g408"
       transform="translate(975.0312,472.5991)"><path
         d="m 0,0 c 0,0 -0.06,-3.143 -0.596,-7.339 -0.366,-2.823 -0.916,-6.119 -1.828,-9.262 -0.476,-1.662 -1.04,-3.295 -1.725,-4.775 -42.068,-15.151 -74.747,-21.391 -118.795,-21.391 -44.066,0 -76.747,6.24 -118.812,21.391 -0.32,1.281 -0.671,2.853 -1.022,4.562 -0.611,2.945 -1.252,6.301 -1.8,9.231 -0.763,4.241 -1.328,7.583 -1.328,7.583 0,0 62.555,-21.376 122.962,-21.467 C -53.156,-18.812 0,0 0,0 Z"
         style="fill:none;stroke:#794039;stroke-width:6;stroke-linecap:butt;stroke-linejoin:miter;stroke-miterlimit:10;stroke-dasharray:none;stroke-opacity:1"
         id="path410"
         inkscape:connector-curvature="0" /></g><g
       id="g412"><g
         id="g414" /><g
         id="g430"><g
           clip-path="url(#clipPath418)"
           id="g428"><g
             transform="translate(975.0312,472.5991)"
             id="g422"><path
               d="m 0,0 c 0,0 -0.06,-3.143 -0.596,-7.339 -42.781,-14.084 -76.898,-19.912 -122.348,-19.912 -45.21,0 -79.203,5.768 -121.634,19.668 -0.763,4.241 -1.328,7.583 -1.328,7.583 0,0 62.555,-21.376 122.962,-21.467 C -53.156,-18.812 0,0 0,0"
               style="fill:#bcbec0;fill-opacity:1;fill-rule:nonzero;stroke:none"
               id="path420"
               inkscape:connector-curvature="0" /></g><g
             transform="translate(975.0312,472.5991)"
             id="g426"><path
               d="m 0,0 c 0,0 -0.06,-3.143 -0.596,-7.339 -42.781,-14.084 -76.898,-19.912 -122.348,-19.912 -45.21,0 -79.203,5.768 -121.634,19.668 -0.763,4.241 -1.328,7.583 -1.328,7.583 0,0 62.555,-21.376 122.962,-21.467 C -53.156,-18.812 0,0 0,0 Z"
               style="fill:none;stroke:#794039;stroke-width:6;stroke-linecap:butt;stroke-linejoin:miter;stroke-miterlimit:10;stroke-dasharray:none;stroke-opacity:1"
               id="path424"
               inkscape:connector-curvature="0" /></g></g></g></g><g
       id="g432"><g
         id="g434" /><g
         id="g450"><g
           clip-path="url(#clipPath438)"
           id="g448"><g
             transform="translate(972.6069,455.9985)"
             id="g442"><path
               d="m 0,0 c -0.476,-1.663 -1.04,-3.295 -1.725,-4.776 -42.068,-15.15 -74.747,-21.39 -118.795,-21.39 -44.065,0 -76.746,6.24 -118.812,21.39 -0.32,1.282 -0.671,2.854 -1.022,4.563 13.351,-4.258 67.408,-20.37 119.834,-20.446 C -59.459,-18.34 -11.124,-3.647 0,0"
               style="fill:#e0e0e0;fill-opacity:1;fill-rule:nonzero;stroke:none"
               id="path440"
               inkscape:connector-curvature="0" /></g><g
             transform="translate(972.6069,455.9985)"
             id="g446"><path
               d="m 0,0 c -0.476,-1.663 -1.04,-3.295 -1.725,-4.776 -42.068,-15.15 -74.747,-21.39 -118.795,-21.39 -44.065,0 -76.746,6.24 -118.812,21.39 -0.32,1.282 -0.671,2.854 -1.022,4.563 13.351,-4.258 67.408,-20.37 119.834,-20.446 C -59.459,-18.34 -11.124,-3.647 0,0 Z"
               style="fill:none;stroke:#794039;stroke-width:6;stroke-linecap:butt;stroke-linejoin:miter;stroke-miterlimit:10;stroke-dasharray:none;stroke-opacity:1"
               id="path444"
               inkscape:connector-curvature="0" /></g></g></g></g><g
       id="g452"
       transform="translate(951.6263,358.3193)"><path
         d="m 0,0 c -66.171,-7.292 -132.925,-7.292 -199.096,0 0.123,1.084 0.243,2.167 0.366,3.251 0.381,3.493 0.779,6.973 1.16,10.451 65.149,-7.187 130.895,-7.187 196.058,0 C -1.129,10.224 -0.749,6.744 -0.351,3.251 -0.245,2.167 -0.121,1.084 0,0"
         style="fill:#ff1043;fill-opacity:1;fill-rule:nonzero;stroke:none"
         id="path454"
         inkscape:connector-curvature="0" /></g><g
       id="g456"
       transform="translate(951.6263,358.3193)"><path
         d="m 0,0 c -66.171,-7.292 -132.925,-7.292 -199.096,0 0.123,1.084 0.243,2.167 0.366,3.251 0.381,3.493 0.779,6.973 1.16,10.451 65.149,-7.187 130.895,-7.187 196.058,0 C -1.129,10.224 -0.749,6.744 -0.351,3.251 -0.245,2.167 -0.121,1.084 0,0 Z"
         style="fill:none;stroke:#794039;stroke-width:6;stroke-linecap:butt;stroke-linejoin:miter;stroke-miterlimit:10;stroke-dasharray:none;stroke-opacity:1"
         id="path458"
         inkscape:connector-curvature="0" /></g><g
       id="g460"><g
         id="g462" /><g
         id="g478"><g
           clip-path="url(#clipPath466)"
           id="g476"><g
             transform="translate(788.2779,355.1001)"
             id="g470"><path
               d="m 0,0 v -3.83 c -2.38,0.169 -4.759,0.351 -7.139,0.55 V 0.443 C -4.759,0.291 -2.38,0.138 0,0"
               style="fill:#e0e0e0;fill-opacity:1;fill-rule:nonzero;stroke:none"
               id="path468"
               inkscape:connector-curvature="0" /></g><g
             transform="translate(788.2779,355.1001)"
             id="g474"><path
               d="m 0,0 v -3.83 c -2.38,0.169 -4.759,0.351 -7.139,0.55 V 0.443 C -4.759,0.291 -2.38,0.138 0,0 Z"
               style="fill:none;stroke:#794039;stroke-width:6;stroke-linecap:butt;stroke-linejoin:miter;stroke-miterlimit:10;stroke-dasharray:none;stroke-opacity:1"
               id="path472"
               inkscape:connector-curvature="0" /></g></g></g></g><g
       id="g480"><g
         id="g482" /><g
         id="g498"><g
           clip-path="url(#clipPath486)"
           id="g496"><g
             transform="translate(923.0182,355.5435)"
             id="g490"><path
               d="m 0,0 v -3.723 c -2.382,-0.199 -4.76,-0.382 -7.141,-0.551 v 3.831 C -4.76,-0.305 -2.382,-0.153 0,0"
               style="fill:#e0e0e0;fill-opacity:1;fill-rule:nonzero;stroke:none"
               id="path488"
               inkscape:connector-curvature="0" /></g><g
             transform="translate(923.0182,355.5435)"
             id="g494"><path
               d="m 0,0 v -3.723 c -2.382,-0.199 -4.76,-0.382 -7.141,-0.551 v 3.831 C -4.76,-0.305 -2.382,-0.153 0,0 Z"
               style="fill:none;stroke:#794039;stroke-width:6;stroke-linecap:butt;stroke-linejoin:miter;stroke-miterlimit:10;stroke-dasharray:none;stroke-opacity:1"
               id="path492"
               inkscape:connector-curvature="0" /></g></g></g></g><g
       id="g500"
       transform="translate(951.6263,358.3193)"><path
         d="m 0,0 c -66.171,-7.292 -132.925,-7.292 -199.096,0 0.123,1.084 0.243,2.167 0.366,3.251 65.974,-6.043 132.42,-6.043 198.379,0 C -0.245,2.167 -0.121,1.084 0,0"
         style="fill:#ff003e;fill-opacity:1;fill-rule:nonzero;stroke:none"
         id="path502"
         inkscape:connector-curvature="0" /></g><g
       id="g504"
       transform="translate(951.6263,358.3193)"><path
         d="m 0,0 c -66.171,-7.292 -132.925,-7.292 -199.096,0 0.123,1.084 0.243,2.167 0.366,3.251 65.974,-6.043 132.42,-6.043 198.379,0 C -0.245,2.167 -0.121,1.084 0,0 Z"
         style="fill:none;stroke:#794039;stroke-width:6;stroke-linecap:butt;stroke-linejoin:miter;stroke-miterlimit:10;stroke-dasharray:none;stroke-opacity:1"
         id="path506"
         inkscape:connector-curvature="0" /></g><g
       id="g508"
       transform="translate(886.9814,402.1595)"><path
         d="m 0,0 h -69.804 c -1.264,0 -2.29,1.024 -2.29,2.288 0,1.265 1.026,2.289 2.29,2.289 H 0 C 1.263,4.577 2.289,3.553 2.289,2.288 2.289,1.024 1.263,0 0,0"
         style="fill:#ffa800;fill-opacity:1;fill-rule:nonzero;stroke:none"
         id="path510"
         inkscape:connector-curvature="0" /></g><g
       id="g512"
       transform="translate(886.9814,402.1595)"><path
         d="m 0,0 h -69.804 c -1.264,0 -2.29,1.024 -2.29,2.288 0,1.265 1.026,2.289 2.29,2.289 H 0 C 1.263,4.577 2.289,3.553 2.289,2.288 2.289,1.024 1.263,0 0,0 Z"
         style="fill:none;stroke:#794039;stroke-width:6;stroke-linecap:butt;stroke-linejoin:miter;stroke-miterlimit:10;stroke-dasharray:none;stroke-opacity:1"
         id="path514"
         inkscape:connector-curvature="0" /></g><g
       id="g516"
       transform="translate(886.9814,380.0718)"><path
         d="m 0,0 h -69.804 c -1.264,0 -2.29,1.024 -2.29,2.289 0,1.264 1.026,2.288 2.29,2.288 H 0 C 1.263,4.577 2.289,3.553 2.289,2.289 2.289,1.024 1.263,0 0,0"
         style="fill:#ffa800;fill-opacity:1;fill-rule:nonzero;stroke:none"
         id="path518"
         inkscape:connector-curvature="0" /></g><g
       id="g520"
       transform="translate(886.9814,380.0718)"><path
         d="m 0,0 h -69.804 c -1.264,0 -2.29,1.024 -2.29,2.289 0,1.264 1.026,2.288 2.29,2.288 H 0 C 1.263,4.577 2.289,3.553 2.289,2.289 2.289,1.024 1.263,0 0,0 Z"
         style="fill:none;stroke:#794039;stroke-width:6;stroke-linecap:butt;stroke-linejoin:miter;stroke-miterlimit:10;stroke-dasharray:none;stroke-opacity:1"
         id="path522"
         inkscape:connector-curvature="0" /></g><path
       d="m 880.561,378.468 h -56.963 v 28.269 h 56.963 z"
       style="fill:#805160;fill-opacity:1;fill-rule:nonzero;stroke:#794039;stroke-width:6;stroke-linecap:butt;stroke-linejoin:miter;stroke-miterlimit:10;stroke-dasharray:none;stroke-opacity:1"
       id="path524"
       inkscape:connector-curvature="0" /><g
       id="g526"
       transform="translate(832.4948,402.969)"><path
         d="M 0,0 V -19.227 L 38.805,0 Z"
         style="fill:#ffa800;fill-opacity:1;fill-rule:nonzero;stroke:none"
         id="path528"
         inkscape:connector-curvature="0" /></g><g
       id="g530"
       transform="translate(832.4948,402.969)"><path
         d="M 0,0 V -19.227 L 38.805,0 Z"
         style="fill:none;stroke:#794039;stroke-width:6;stroke-linecap:butt;stroke-linejoin:miter;stroke-miterlimit:10;stroke-dasharray:none;stroke-opacity:1"
         id="path532"
         inkscape:connector-curvature="0" /></g><g
       id="g534"
       transform="translate(832.4948,383.7417)"><path
         d="m 0,0 v -0.213 h 39.171 v 19.44 h -0.366 z"
         style="fill:#ffd669;fill-opacity:1;fill-rule:nonzero;stroke:none"
         id="path536"
         inkscape:connector-curvature="0" /></g><g
       id="g538"
       transform="translate(832.4948,383.7417)"><path
         d="m 0,0 v -0.213 h 39.171 v 19.44 h -0.366 z"
         style="fill:none;stroke:#794039;stroke-width:6;stroke-linecap:butt;stroke-linejoin:miter;stroke-miterlimit:10;stroke-dasharray:none;stroke-opacity:1"
         id="path540"
         inkscape:connector-curvature="0" /></g><path
       d="m 222.776,469.826 h 3.789 v 32.267 h -3.789 z"
       style="fill:#ffa800;fill-opacity:1;fill-rule:nonzero;stroke:#794039;stroke-width:6;stroke-linecap:butt;stroke-linejoin:miter;stroke-miterlimit:10;stroke-dasharray:none;stroke-opacity:1"
       id="path542"
       inkscape:connector-curvature="0" /><path
       d="m 269.775,536.356 h 3.787 v 32.267 h -3.787 z"
       style="fill:#ffa800;fill-opacity:1;fill-rule:nonzero;stroke:#794039;stroke-width:6;stroke-linecap:butt;stroke-linejoin:miter;stroke-miterlimit:10;stroke-dasharray:none;stroke-opacity:1"
       id="path544"
       inkscape:connector-curvature="0" /><path
       d="m 444.425,534.352 h 3.787 v 32.267 h -3.787 z"
       style="fill:#ffa800;fill-opacity:1;fill-rule:nonzero;stroke:#794039;stroke-width:6;stroke-linecap:butt;stroke-linejoin:miter;stroke-miterlimit:10;stroke-dasharray:none;stroke-opacity:1"
       id="path546"
       inkscape:connector-curvature="0" /><path
       d="m 492.817,469.826 h 3.787 v 32.267 h -3.787 z"
       style="fill:#ffa800;fill-opacity:1;fill-rule:nonzero;stroke:#794039;stroke-width:6;stroke-linecap:butt;stroke-linejoin:miter;stroke-miterlimit:10;stroke-dasharray:none;stroke-opacity:1"
       id="path548"
       inkscape:connector-curvature="0" /><path
       d="m 540.214,367.127 h 3.787 v 32.267 h -3.787 z"
       style="fill:#ffa800;fill-opacity:1;fill-rule:nonzero;stroke:#794039;stroke-width:6;stroke-linecap:butt;stroke-linejoin:miter;stroke-miterlimit:10;stroke-dasharray:none;stroke-opacity:1"
       id="path550"
       inkscape:connector-curvature="0" /><path
       d="m 540.214,367.127 h 3.787 v 32.267 h -3.787 z"
       style="fill:#ffa800;fill-opacity:1;fill-rule:nonzero;stroke:#794039;stroke-width:6;stroke-linecap:butt;stroke-linejoin:miter;stroke-miterlimit:10;stroke-dasharray:none;stroke-opacity:1"
       id="path552"
       inkscape:connector-curvature="0" /><path
       d="m 175.379,367.544 h 3.789 v 32.267 h -3.789 z"
       style="fill:#ffa800;fill-opacity:1;fill-rule:nonzero;stroke:#794039;stroke-width:6;stroke-linecap:butt;stroke-linejoin:miter;stroke-miterlimit:10;stroke-dasharray:none;stroke-opacity:1"
       id="path554"
       inkscape:connector-curvature="0" /><path
       d="m 246.77,268.734 h 225.839 v 28.973 H 246.77 Z"
       style="fill:#ff1043;fill-opacity:1;fill-rule:nonzero;stroke:#794039;stroke-width:6;stroke-linecap:butt;stroke-linejoin:miter;stroke-miterlimit:10;stroke-dasharray:none;stroke-opacity:1"
       id="path556"
       inkscape:connector-curvature="0" /><g
       id="g558"
       transform="translate(472.6088,366.7057)"><path
         d="M 0,0 C 0,0 -63.944,-0.681 -112.918,-0.502 -161.875,-0.681 -225.839,0 -225.839,0 V -68.998 H 0 Z"
         style="fill:#ffa800;fill-opacity:1;fill-rule:nonzero;stroke:none"
         id="path560"
         inkscape:connector-curvature="0" /></g><g
       id="g562"
       transform="translate(472.6088,366.7057)"><path
         d="M 0,0 C 0,0 -63.944,-0.681 -112.918,-0.502 -161.875,-0.681 -225.839,0 -225.839,0 V -68.998 H 0 Z"
         style="fill:none;stroke:#794039;stroke-width:6;stroke-linecap:butt;stroke-linejoin:miter;stroke-miterlimit:10;stroke-dasharray:none;stroke-opacity:1"
         id="path564"
         inkscape:connector-curvature="0" /></g><g
       id="g566"
       transform="translate(422.4313,555.4926)"><path
         d="m 0,0 v -43.606 l -44.226,-18.515 -18.517,4.168 -18.515,-4.168 -44.206,18.515 V 0 l 3.507,-0.101 59.214,-1.602 59.217,1.602 z"
         style="fill:#ffa800;fill-opacity:1;fill-rule:nonzero;stroke:none"
         id="path568"
         inkscape:connector-curvature="0" /></g><g
       id="g570"
       transform="translate(422.4313,555.4926)"><path
         d="m 0,0 v -43.606 l -44.226,-18.515 -18.517,4.168 -18.515,-4.168 -44.206,18.515 V 0 l 3.507,-0.101 59.214,-1.602 59.217,1.602 z"
         style="fill:none;stroke:#794039;stroke-width:6;stroke-linecap:butt;stroke-linejoin:miter;stroke-miterlimit:10;stroke-dasharray:none;stroke-opacity:1"
         id="path572"
         inkscape:connector-curvature="0" /></g><g
       id="g574"
       transform="translate(446.3185,480.9271)"><path
         d="m 0,0 v -64.546 l -4.188,-16.132 -82.442,-9.097 -82.44,9.097 -4.188,16.132 V 0 l 86.628,-4.809 z"
         style="fill:#ffa800;fill-opacity:1;fill-rule:nonzero;stroke:none"
         id="path576"
         inkscape:connector-curvature="0" /></g><g
       id="g578"
       transform="translate(446.3185,480.9271)"><path
         d="m 0,0 v -64.546 l -4.188,-16.132 -82.442,-9.097 -82.44,9.097 -4.188,16.132 V 0 l 86.628,-4.809 z"
         style="fill:none;stroke:#794039;stroke-width:6;stroke-linecap:butt;stroke-linejoin:miter;stroke-miterlimit:10;stroke-dasharray:none;stroke-opacity:1"
         id="path580"
         inkscape:connector-curvature="0" /></g><g
       id="g582"
       transform="translate(262.8327,552.4901)"><path
         d="m 0,0 h 17.474 c 0.734,-4.405 1.295,-9.639 1.319,-15.534 0.026,-6.231 -0.554,-11.74 -1.319,-16.329 H 0 c -0.64,4.527 -1.102,9.747 -1.122,15.532 C -1.143,-10.217 -0.669,-4.725 0,0"
         style="fill:#ff1043;fill-opacity:1;fill-rule:nonzero;stroke:none"
         id="path584"
         inkscape:connector-curvature="0" /></g><g
       id="g586"
       transform="translate(262.8327,552.4901)"><path
         d="m 0,0 h 17.474 c 0.734,-4.405 1.295,-9.639 1.319,-15.534 0.026,-6.231 -0.554,-11.74 -1.319,-16.329 H 0 c -0.64,4.527 -1.102,9.747 -1.122,15.532 C -1.143,-10.217 -0.669,-4.725 0,0 Z"
         style="fill:none;stroke:#794039;stroke-width:6;stroke-linecap:butt;stroke-linejoin:miter;stroke-miterlimit:10;stroke-dasharray:none;stroke-opacity:1"
         id="path588"
         inkscape:connector-curvature="0" /></g><g
       id="g590"
       transform="translate(215.8336,475.216)"><path
         d="m 0,0 h 17.474 c 0.734,-4.405 1.295,-9.638 1.32,-15.534 0.027,-6.231 -0.554,-11.741 -1.32,-16.329 H 0 c -0.641,4.527 -1.1,9.745 -1.12,15.532 C -1.141,-10.217 -0.667,-4.726 0,0"
         style="fill:#ff1043;fill-opacity:1;fill-rule:nonzero;stroke:none"
         id="path592"
         inkscape:connector-curvature="0" /></g><g
       id="g594"
       transform="translate(215.8336,475.216)"><path
         d="m 0,0 h 17.474 c 0.734,-4.405 1.295,-9.638 1.32,-15.534 0.027,-6.231 -0.554,-11.741 -1.32,-16.329 H 0 c -0.641,4.527 -1.1,9.745 -1.12,15.532 C -1.141,-10.217 -0.667,-4.726 0,0 Z"
         style="fill:none;stroke:#794039;stroke-width:6;stroke-linecap:butt;stroke-linejoin:miter;stroke-miterlimit:10;stroke-dasharray:none;stroke-opacity:1"
         id="path596"
         inkscape:connector-curvature="0" /></g><g
       id="g598"
       transform="translate(168.4369,372.5305)"><path
         d="m 0,0 h 17.474 c 0.736,-4.403 1.295,-9.639 1.32,-15.532 0.025,-6.233 -0.554,-11.741 -1.32,-16.331 H 0 c -0.641,4.527 -1.101,9.747 -1.12,15.534 C -1.141,-10.215 -0.667,-4.724 0,0"
         style="fill:#ff1043;fill-opacity:1;fill-rule:nonzero;stroke:none"
         id="path600"
         inkscape:connector-curvature="0" /></g><g
       id="g602"
       transform="translate(168.4369,372.5305)"><path
         d="m 0,0 h 17.474 c 0.736,-4.403 1.295,-9.639 1.32,-15.532 0.025,-6.233 -0.554,-11.741 -1.32,-16.331 H 0 c -0.641,4.527 -1.101,9.747 -1.12,15.534 C -1.141,-10.215 -0.667,-4.724 0,0 Z"
         style="fill:none;stroke:#794039;stroke-width:6;stroke-linecap:butt;stroke-linejoin:miter;stroke-miterlimit:10;stroke-dasharray:none;stroke-opacity:1"
         id="path604"
         inkscape:connector-curvature="0" /></g><g
       id="g606"
       transform="translate(307.8124,431.2286)"><path
         d="m 0,0 v 17.8 c 0,5.443 -4.859,9.857 -10.852,9.857 -5.993,0 -10.852,-4.414 -10.852,-9.857 V 0 Z"
         style="fill:#1b1b1b;fill-opacity:1;fill-rule:nonzero;stroke:none"
         id="path608"
         inkscape:connector-curvature="0" /></g><g
       id="g610"
       transform="translate(307.8124,431.2286)"><path
         d="m 0,0 v 17.8 c 0,5.443 -4.859,9.857 -10.852,9.857 -5.993,0 -10.852,-4.414 -10.852,-9.857 V 0 Z"
         style="fill:none;stroke:#794039;stroke-width:6;stroke-linecap:butt;stroke-linejoin:miter;stroke-miterlimit:10;stroke-dasharray:none;stroke-opacity:1"
         id="path612"
         inkscape:connector-curvature="0" /></g><g
       id="g614"
       transform="translate(339.2406,431.2286)"><path
         d="m 0,0 v 17.8 c 0,5.443 -4.859,9.857 -10.852,9.857 -5.995,0 -10.853,-4.414 -10.853,-9.857 V 0 Z"
         style="fill:#1b1b1b;fill-opacity:1;fill-rule:nonzero;stroke:none"
         id="path616"
         inkscape:connector-curvature="0" /></g><g
       id="g618"
       transform="translate(339.2406,431.2286)"><path
         d="m 0,0 v 17.8 c 0,5.443 -4.859,9.857 -10.852,9.857 -5.995,0 -10.853,-4.414 -10.853,-9.857 V 0 Z"
         style="fill:none;stroke:#794039;stroke-width:6;stroke-linecap:butt;stroke-linejoin:miter;stroke-miterlimit:10;stroke-dasharray:none;stroke-opacity:1"
         id="path620"
         inkscape:connector-curvature="0" /></g><g
       id="g622"
       transform="translate(339.2406,314.1323)"><path
         d="m 0,0 v 17.799 c 0,5.444 -4.859,9.856 -10.852,9.856 -5.995,0 -10.853,-4.412 -10.853,-9.856 V 0 Z"
         style="fill:#1b1b1b;fill-opacity:1;fill-rule:nonzero;stroke:none"
         id="path624"
         inkscape:connector-curvature="0" /></g><g
       id="g626"
       transform="translate(339.2406,314.1323)"><path
         d="m 0,0 v 17.799 c 0,5.444 -4.859,9.856 -10.852,9.856 -5.995,0 -10.853,-4.412 -10.853,-9.856 V 0 Z"
         style="fill:none;stroke:#794039;stroke-width:6;stroke-linecap:butt;stroke-linejoin:miter;stroke-miterlimit:10;stroke-dasharray:none;stroke-opacity:1"
         id="path628"
         inkscape:connector-curvature="0" /></g><g
       id="g630"
       transform="translate(307.14,314.1323)"><path
         d="m 0,0 v 17.799 c 0,5.444 -4.859,9.856 -10.852,9.856 -5.994,0 -10.853,-4.412 -10.853,-9.856 V 0 Z"
         style="fill:#1b1b1b;fill-opacity:1;fill-rule:nonzero;stroke:none"
         id="path632"
         inkscape:connector-curvature="0" /></g><g
       id="g634"
       transform="translate(307.14,314.1323)"><path
         d="m 0,0 v 17.799 c 0,5.444 -4.859,9.856 -10.852,9.856 -5.994,0 -10.853,-4.412 -10.853,-9.856 V 0 Z"
         style="fill:none;stroke:#794039;stroke-width:6;stroke-linecap:butt;stroke-linejoin:miter;stroke-miterlimit:10;stroke-dasharray:none;stroke-opacity:1"
         id="path636"
         inkscape:connector-curvature="0" /></g><g
       id="g638"
       transform="translate(275.0409,314.1323)"><path
         d="m 0,0 v 17.799 c 0,5.444 -4.859,9.856 -10.852,9.856 -5.995,0 -10.854,-4.412 -10.854,-9.856 V 0 Z"
         style="fill:#1b1b1b;fill-opacity:1;fill-rule:nonzero;stroke:none"
         id="path640"
         inkscape:connector-curvature="0" /></g><g
       id="g642"
       transform="translate(275.0409,314.1323)"><path
         d="m 0,0 v 17.799 c 0,5.444 -4.859,9.856 -10.852,9.856 -5.995,0 -10.854,-4.412 -10.854,-9.856 V 0 Z"
         style="fill:none;stroke:#794039;stroke-width:6;stroke-linecap:butt;stroke-linejoin:miter;stroke-miterlimit:10;stroke-dasharray:none;stroke-opacity:1"
         id="path644"
         inkscape:connector-curvature="0" /></g><g
       id="g646"
       transform="translate(339.2406,514.87)"><path
         d="m 0,0 v 17.8 c 0,5.443 -4.859,9.857 -10.852,9.857 -5.995,0 -10.853,-4.414 -10.853,-9.857 V 0 Z"
         style="fill:#1b1b1b;fill-opacity:1;fill-rule:nonzero;stroke:none"
         id="path648"
         inkscape:connector-curvature="0" /></g><g
       id="g650"
       transform="translate(339.2406,514.87)"><path
         d="m 0,0 v 17.8 c 0,5.443 -4.859,9.857 -10.852,9.857 -5.995,0 -10.853,-4.414 -10.853,-9.857 V 0 Z"
         style="fill:none;stroke:#794039;stroke-width:6;stroke-linecap:butt;stroke-linejoin:miter;stroke-miterlimit:10;stroke-dasharray:none;stroke-opacity:1"
         id="path652"
         inkscape:connector-curvature="0" /></g><g
       id="g654"
       transform="translate(367.265,621.6215)"><path
         d="m 0,0 c 0,-3.528 -2.086,-6.554 -5.071,-7.956 -0.78,-0.36 -1.623,-0.602 -2.505,-0.722 -4.267,0.582 -7.575,4.229 -7.575,8.678 0,4.428 3.308,8.075 7.575,8.655 0.882,-0.119 1.725,-0.38 2.505,-0.74 C -2.086,6.531 0,3.505 0,0"
         style="fill:#ff1043;fill-opacity:1;fill-rule:nonzero;stroke:none"
         id="path656"
         inkscape:connector-curvature="0" /></g><g
       id="g658"
       transform="translate(367.265,621.6215)"><path
         d="m 0,0 c 0,-3.528 -2.086,-6.554 -5.071,-7.956 -0.78,-0.36 -1.623,-0.602 -2.505,-0.722 -4.267,0.582 -7.575,4.229 -7.575,8.678 0,4.428 3.308,8.075 7.575,8.655 0.882,-0.119 1.725,-0.38 2.505,-0.74 C -2.086,6.531 0,3.505 0,0 Z"
         style="fill:none;stroke:#794039;stroke-width:6;stroke-linecap:butt;stroke-linejoin:miter;stroke-miterlimit:10;stroke-dasharray:none;stroke-opacity:1"
         id="path660"
         inkscape:connector-curvature="0" /></g><g
       id="g662"
       transform="translate(367.265,621.6215)"><path
         d="m 0,0 c 0,-3.528 -2.086,-6.554 -5.071,-7.956 -3.006,1.402 -5.07,4.428 -5.07,7.956 0,3.505 2.064,6.531 5.07,7.915 C -2.086,6.531 0,3.505 0,0"
         style="fill:#ff3a54;fill-opacity:1;fill-rule:nonzero;stroke:none"
         id="path664"
         inkscape:connector-curvature="0" /></g><g
       id="g666"
       transform="translate(367.265,621.6215)"><path
         d="m 0,0 c 0,-3.528 -2.086,-6.554 -5.071,-7.956 -3.006,1.402 -5.07,4.428 -5.07,7.956 0,3.505 2.064,6.531 5.07,7.915 C -2.086,6.531 0,3.505 0,0 Z"
         style="fill:none;stroke:#794039;stroke-width:6;stroke-linecap:butt;stroke-linejoin:miter;stroke-miterlimit:10;stroke-dasharray:none;stroke-opacity:1"
         id="path668"
         inkscape:connector-curvature="0" /></g><g
       id="g670"><g
         id="g672" /><g
         id="g688"><g
           clip-path="url(#clipPath676)"
           id="g686"><g
             transform="translate(422.4313,554.7101)"
             id="g680"><path
               d="m 0,0 v -14.448 c -13.346,-3.487 -33.185,-6.332 -62.743,-6.934 -29.536,0.602 -49.375,3.447 -62.721,6.934 V 0.02 c 1.182,0.181 2.366,0.4 3.507,0.661 32.042,7.055 53.445,36.552 59.214,45.33 C -56.971,37.233 -35.569,7.736 -3.526,0.681 -2.364,0.42 -1.202,0.201 0,0"
               style="fill:#d0d3d4;fill-opacity:1;fill-rule:nonzero;stroke:none"
               id="path678"
               inkscape:connector-curvature="0" /></g><g
             transform="translate(422.4313,554.7101)"
             id="g684"><path
               d="m 0,0 v -14.448 c -13.346,-3.487 -33.185,-6.332 -62.743,-6.934 -29.536,0.602 -49.375,3.447 -62.721,6.934 V 0.02 c 1.182,0.181 2.366,0.4 3.507,0.661 32.042,7.055 53.445,36.552 59.214,45.33 C -56.971,37.233 -35.569,7.736 -3.526,0.681 -2.364,0.42 -1.202,0.201 0,0 Z"
               style="fill:none;stroke:#794039;stroke-width:6;stroke-linecap:butt;stroke-linejoin:miter;stroke-miterlimit:10;stroke-dasharray:none;stroke-opacity:1"
               id="path682"
               inkscape:connector-curvature="0" /></g></g></g></g><g
       id="g690"
       transform="translate(449.6034,569.0779)"><path
         d="M 0,0 C 0,0 -0.059,-0.319 -0.3,-0.861 -2.064,-4.829 -13.986,-21.181 -89.915,-22.723 -176.382,-20.961 -179.828,0 -179.828,0 c 48.875,-12.625 82.46,33.306 89.913,44.668 C -82.459,33.306 -48.875,-12.625 0,0"
         style="fill:#ff1043;fill-opacity:1;fill-rule:nonzero;stroke:none"
         id="path692"
         inkscape:connector-curvature="0" /></g><g
       id="g694"
       transform="translate(449.6034,569.0779)"><path
         d="M 0,0 C 0,0 -0.059,-0.319 -0.3,-0.861 -2.064,-4.829 -13.986,-21.181 -89.915,-22.723 -176.382,-20.961 -179.828,0 -179.828,0 c 48.875,-12.625 82.46,33.306 89.913,44.668 C -82.459,33.306 -48.875,-12.625 0,0 Z"
         style="fill:none;stroke:#794039;stroke-width:6;stroke-linecap:butt;stroke-linejoin:miter;stroke-miterlimit:10;stroke-dasharray:none;stroke-opacity:1"
         id="path696"
         inkscape:connector-curvature="0" /></g><g
       id="g698"><g
         id="g700" /><g
         id="g716"><g
           clip-path="url(#clipPath704)"
           id="g714"><g
             transform="translate(446.3185,480.9271)"
             id="g708"><path
               d="m 0,0 v -23.486 c -33.765,-8.938 -71.68,-10.741 -86.63,-11.101 -14.948,0.36 -52.861,2.163 -86.628,11.101 V 0 l 86.628,-4.809 z"
               style="fill:#d0d3d4;fill-opacity:1;fill-rule:nonzero;stroke:none"
               id="path706"
               inkscape:connector-curvature="0" /></g><g
             transform="translate(446.3185,480.9271)"
             id="g712"><path
               d="m 0,0 v -23.486 c -33.765,-8.938 -71.68,-10.741 -86.63,-11.101 -14.948,0.36 -52.861,2.163 -86.628,11.101 V 0 l 86.628,-4.809 z"
               style="fill:none;stroke:#794039;stroke-width:6;stroke-linecap:butt;stroke-linejoin:miter;stroke-miterlimit:10;stroke-dasharray:none;stroke-opacity:1"
               id="path710"
               inkscape:connector-curvature="0" /></g></g></g></g><g
       id="g718"
       transform="translate(501.4852,506.1154)"><path
         d="m 0,0 c -0.24,-0.341 -0.481,-0.66 -0.721,-0.981 -26.552,-35.509 -116.026,-40.158 -141.075,-40.76 -25.269,0.602 -116.165,5.331 -141.795,41.741 0,0 0.019,0 0.039,-0.02 27.094,-5.972 69.596,1.223 80.518,5.791 l 43.343,-0.3 c 5.331,-0.06 11.282,-0.079 17.895,-0.041 6.614,-0.038 12.564,-0.019 17.895,0.041 l 43.344,0.3 C -69.615,1.203 -27.092,-5.992 0,0"
         style="fill:#ff1043;fill-opacity:1;fill-rule:nonzero;stroke:none"
         id="path720"
         inkscape:connector-curvature="0" /></g><g
       id="g722"
       transform="translate(501.4852,506.1154)"><path
         d="m 0,0 c -0.24,-0.341 -0.481,-0.66 -0.721,-0.981 -26.552,-35.509 -116.026,-40.158 -141.075,-40.76 -25.269,0.602 -116.165,5.331 -141.795,41.741 0,0 0.019,0 0.039,-0.02 27.094,-5.972 69.596,1.223 80.518,5.791 l 43.343,-0.3 c 5.331,-0.06 11.282,-0.079 17.895,-0.041 6.614,-0.038 12.564,-0.019 17.895,0.041 l 43.344,0.3 C -69.615,1.203 -27.092,-5.992 0,0 Z"
         style="fill:none;stroke:#794039;stroke-width:6;stroke-linecap:butt;stroke-linejoin:miter;stroke-miterlimit:10;stroke-dasharray:none;stroke-opacity:1"
         id="path724"
         inkscape:connector-curvature="0" /></g><g
       id="g726"><g
         id="g728" /><g
         id="g744"><g
           clip-path="url(#clipPath732)"
           id="g742"><g
             transform="translate(472.6088,366.7039)"
             id="g736"><path
               d="m 0,0 v -26.911 c -43.986,-10.622 -92.359,-11.823 -112.92,-11.804 -20.56,-0.019 -68.933,1.182 -112.919,11.804 V 0 c 0,0 63.965,-0.68 112.919,-0.5 C -63.944,-0.68 0,0 0,0"
               style="fill:#d0d3d4;fill-opacity:1;fill-rule:nonzero;stroke:none"
               id="path734"
               inkscape:connector-curvature="0" /></g><g
             transform="translate(472.6088,366.7039)"
             id="g740"><path
               d="m 0,0 v -26.911 c -43.986,-10.622 -92.359,-11.823 -112.92,-11.804 -20.56,-0.019 -68.933,1.182 -112.919,11.804 V 0 c 0,0 63.965,-0.68 112.919,-0.5 C -63.944,-0.68 0,0 0,0 Z"
               style="fill:none;stroke:#794039;stroke-width:6;stroke-linecap:butt;stroke-linejoin:miter;stroke-miterlimit:10;stroke-dasharray:none;stroke-opacity:1"
               id="path738"
               inkscape:connector-curvature="0" /></g></g></g></g><g
       id="g746"
       transform="translate(549.6786,404.5388)"><path
         d="m 0,0 c -35.128,-49.878 -154.34,-53.544 -189.99,-53.504 -35.629,-0.04 -154.86,3.626 -189.988,53.504 15.049,-1.604 25.889,-5.972 64.925,0 18.718,3.988 29.318,6.492 38.195,11.782 l 86.868,-1.382 86.889,1.382 C -94.222,6.492 -83.641,3.988 -64.926,0 -25.889,-5.972 -15.049,-1.604 0,0"
         style="fill:#ff1043;fill-opacity:1;fill-rule:nonzero;stroke:none"
         id="path748"
         inkscape:connector-curvature="0" /></g><g
       id="g750"
       transform="translate(549.6786,404.5388)"><path
         d="m 0,0 c -35.128,-49.878 -154.34,-53.544 -189.99,-53.504 -35.629,-0.04 -154.86,3.626 -189.988,53.504 15.049,-1.604 25.889,-5.972 64.925,0 18.718,3.988 29.318,6.492 38.195,11.782 l 86.868,-1.382 86.889,1.382 C -94.222,6.492 -83.641,3.988 -64.926,0 -25.889,-5.972 -15.049,-1.604 0,0 Z"
         style="fill:none;stroke:#794039;stroke-width:6;stroke-linecap:butt;stroke-linejoin:miter;stroke-miterlimit:10;stroke-dasharray:none;stroke-opacity:1"
         id="path752"
         inkscape:connector-curvature="0" /></g><g
       id="g754"
       transform="translate(359.6905,671.9163)"><path
         d="M 0,0 C -3.223,-10.879 -9.432,-35.877 0,-40.16 9.434,-35.877 3.225,-10.879 0,0"
         style="fill:#ff1043;fill-opacity:1;fill-rule:nonzero;stroke:none"
         id="path756"
         inkscape:connector-curvature="0" /></g><g
       id="g758"
       transform="translate(359.6905,671.9163)"><path
         d="M 0,0 C -3.223,-10.879 -9.432,-35.877 0,-40.16 9.434,-35.877 3.225,-10.879 0,0 Z"
         style="fill:none;stroke:#794039;stroke-width:6;stroke-linecap:butt;stroke-linejoin:miter;stroke-miterlimit:10;stroke-dasharray:none;stroke-opacity:1"
         id="path760"
         inkscape:connector-curvature="0" /></g><g
       id="g762"
       transform="translate(356.8028,656.0186)"><path
         d="M 0,0 C -2.007,-8.563 2.206,-14 6.286,-20.757 10.409,-12.341 5.596,6.758 2.888,15.898 1.895,12.549 0.621,7.858 -0.394,2.848 0.052,2.018 0.245,1.045 0,0"
         style="fill:#ff3a54;fill-opacity:1;fill-rule:nonzero;stroke:none"
         id="path764"
         inkscape:connector-curvature="0" /></g><g
       id="g766"
       transform="translate(356.8028,656.0186)"><path
         d="M 0,0 C -2.007,-8.563 2.206,-14 6.286,-20.757 10.409,-12.341 5.596,6.758 2.888,15.898 1.895,12.549 0.621,7.858 -0.394,2.848 0.052,2.018 0.245,1.045 0,0 Z"
         style="fill:none;stroke:#794039;stroke-width:6;stroke-linecap:butt;stroke-linejoin:miter;stroke-miterlimit:10;stroke-dasharray:none;stroke-opacity:1"
         id="path768"
         inkscape:connector-curvature="0" /></g><g
       id="g770"
       transform="translate(456.5498,552.4901)"><path
         d="m 0,0 h -17.474 c -0.734,-4.405 -1.295,-9.639 -1.32,-15.534 -0.025,-6.231 0.554,-11.74 1.32,-16.329 H 0 c 0.641,4.527 1.1,9.747 1.12,15.532 C 1.143,-10.217 0.669,-4.725 0,0"
         style="fill:#ff1043;fill-opacity:1;fill-rule:nonzero;stroke:none"
         id="path772"
         inkscape:connector-curvature="0" /></g><g
       id="g774"
       transform="translate(456.5498,552.4901)"><path
         d="m 0,0 h -17.474 c -0.734,-4.405 -1.295,-9.639 -1.32,-15.534 -0.025,-6.231 0.554,-11.74 1.32,-16.329 H 0 c 0.641,4.527 1.1,9.747 1.12,15.532 C 1.143,-10.217 0.669,-4.725 0,0 Z"
         style="fill:none;stroke:#794039;stroke-width:6;stroke-linecap:butt;stroke-linejoin:miter;stroke-miterlimit:10;stroke-dasharray:none;stroke-opacity:1"
         id="path776"
         inkscape:connector-curvature="0" /></g><g
       id="g778"
       transform="translate(503.5471,475.216)"><path
         d="m 0,0 h -17.472 c -0.736,-4.405 -1.297,-9.638 -1.322,-15.534 -0.025,-6.231 0.556,-11.741 1.322,-16.329 H 0 c 0.641,4.527 1.101,9.745 1.122,15.532 C 1.143,-10.217 0.669,-4.726 0,0"
         style="fill:#ff1043;fill-opacity:1;fill-rule:nonzero;stroke:none"
         id="path780"
         inkscape:connector-curvature="0" /></g><g
       id="g782"
       transform="translate(503.5471,475.216)"><path
         d="m 0,0 h -17.472 c -0.736,-4.405 -1.297,-9.638 -1.322,-15.534 -0.025,-6.231 0.556,-11.741 1.322,-16.329 H 0 c 0.641,4.527 1.101,9.745 1.122,15.532 C 1.143,-10.217 0.669,-4.726 0,0 Z"
         style="fill:none;stroke:#794039;stroke-width:6;stroke-linecap:butt;stroke-linejoin:miter;stroke-miterlimit:10;stroke-dasharray:none;stroke-opacity:1"
         id="path784"
         inkscape:connector-curvature="0" /></g><g
       id="g786"
       transform="translate(550.9442,372.5305)"><path
         d="m 0,0 h -17.472 c -0.736,-4.403 -1.297,-9.639 -1.32,-15.532 -0.027,-6.233 0.553,-11.741 1.32,-16.331 H 0 c 0.64,4.527 1.102,9.747 1.122,15.534 C 1.143,-10.215 0.669,-4.724 0,0"
         style="fill:#ff1043;fill-opacity:1;fill-rule:nonzero;stroke:none"
         id="path788"
         inkscape:connector-curvature="0" /></g><g
       id="g790"
       transform="translate(550.9442,372.5305)"><path
         d="m 0,0 h -17.472 c -0.736,-4.403 -1.297,-9.639 -1.32,-15.532 -0.027,-6.233 0.553,-11.741 1.32,-16.331 H 0 c 0.64,4.527 1.102,9.747 1.122,15.534 C 1.143,-10.215 0.669,-4.724 0,0 Z"
         style="fill:none;stroke:#794039;stroke-width:6;stroke-linecap:butt;stroke-linejoin:miter;stroke-miterlimit:10;stroke-dasharray:none;stroke-opacity:1"
         id="path792"
         inkscape:connector-curvature="0" /></g><g
       id="g794"
       transform="translate(411.5701,431.2286)"><path
         d="m 0,0 v 17.8 c 0,5.443 4.857,9.857 10.852,9.857 5.994,0 10.853,-4.414 10.853,-9.857 V 0 Z"
         style="fill:#1b1b1b;fill-opacity:1;fill-rule:nonzero;stroke:none"
         id="path796"
         inkscape:connector-curvature="0" /></g><g
       id="g798"
       transform="translate(411.5701,431.2286)"><path
         d="m 0,0 v 17.8 c 0,5.443 4.857,9.857 10.852,9.857 5.994,0 10.853,-4.414 10.853,-9.857 V 0 Z"
         style="fill:none;stroke:#794039;stroke-width:6;stroke-linecap:butt;stroke-linejoin:miter;stroke-miterlimit:10;stroke-dasharray:none;stroke-opacity:1"
         id="path800"
         inkscape:connector-curvature="0" /></g><g
       id="g802"
       transform="translate(380.1419,431.2286)"><path
         d="m 0,0 v 17.8 c 0,5.443 4.859,9.857 10.852,9.857 5.994,0 10.853,-4.414 10.853,-9.857 V 0 Z"
         style="fill:#1b1b1b;fill-opacity:1;fill-rule:nonzero;stroke:none"
         id="path804"
         inkscape:connector-curvature="0" /></g><g
       id="g806"
       transform="translate(380.1419,431.2286)"><path
         d="m 0,0 v 17.8 c 0,5.443 4.859,9.857 10.852,9.857 5.994,0 10.853,-4.414 10.853,-9.857 V 0 Z"
         style="fill:none;stroke:#794039;stroke-width:6;stroke-linecap:butt;stroke-linejoin:miter;stroke-miterlimit:10;stroke-dasharray:none;stroke-opacity:1"
         id="path808"
         inkscape:connector-curvature="0" /></g><g
       id="g810"
       transform="translate(359.6905,341.7518)"><path
         d="M 0,0 C -5.621,-0.373 -10.055,-4.621 -10.055,-9.821 V -27.62 H 0 10.057 V -9.821 C 10.057,-4.621 5.621,-0.373 0,0"
         style="fill:#1b1b1b;fill-opacity:1;fill-rule:nonzero;stroke:none"
         id="path812"
         inkscape:connector-curvature="0" /></g><g
       id="g814"
       transform="translate(359.6905,341.7518)"><path
         d="M 0,0 C -5.621,-0.373 -10.055,-4.621 -10.055,-9.821 V -27.62 H 0 10.057 V -9.821 C 10.057,-4.621 5.621,-0.373 0,0 Z"
         style="fill:none;stroke:#794039;stroke-width:6;stroke-linecap:butt;stroke-linejoin:miter;stroke-miterlimit:10;stroke-dasharray:none;stroke-opacity:1"
         id="path816"
         inkscape:connector-curvature="0" /></g><g
       id="g818"
       transform="translate(380.1419,314.1323)"><path
         d="m 0,0 v 17.799 c 0,5.444 4.859,9.856 10.852,9.856 5.994,0 10.853,-4.412 10.853,-9.856 V 0 Z"
         style="fill:#1b1b1b;fill-opacity:1;fill-rule:nonzero;stroke:none"
         id="path820"
         inkscape:connector-curvature="0" /></g><g
       id="g822"
       transform="translate(380.1419,314.1323)"><path
         d="m 0,0 v 17.799 c 0,5.444 4.859,9.856 10.852,9.856 5.994,0 10.853,-4.412 10.853,-9.856 V 0 Z"
         style="fill:none;stroke:#794039;stroke-width:6;stroke-linecap:butt;stroke-linejoin:miter;stroke-miterlimit:10;stroke-dasharray:none;stroke-opacity:1"
         id="path824"
         inkscape:connector-curvature="0" /></g><g
       id="g826"
       transform="translate(412.2411,314.1323)"><path
         d="m 0,0 v 17.799 c 0,5.444 4.859,9.856 10.852,9.856 5.995,0 10.854,-4.412 10.854,-9.856 V 0 Z"
         style="fill:#1b1b1b;fill-opacity:1;fill-rule:nonzero;stroke:none"
         id="path828"
         inkscape:connector-curvature="0" /></g><g
       id="g830"
       transform="translate(412.2411,314.1323)"><path
         d="m 0,0 v 17.799 c 0,5.444 4.859,9.856 10.852,9.856 5.995,0 10.854,-4.412 10.854,-9.856 V 0 Z"
         style="fill:none;stroke:#794039;stroke-width:6;stroke-linecap:butt;stroke-linejoin:miter;stroke-miterlimit:10;stroke-dasharray:none;stroke-opacity:1"
         id="path832"
         inkscape:connector-curvature="0" /></g><g
       id="g834"
       transform="translate(444.3416,314.1323)"><path
         d="m 0,0 v 17.799 c 0,5.444 4.859,9.856 10.852,9.856 5.994,0 10.853,-4.412 10.853,-9.856 V 0 Z"
         style="fill:#1b1b1b;fill-opacity:1;fill-rule:nonzero;stroke:none"
         id="path836"
         inkscape:connector-curvature="0" /></g><g
       id="g838"
       transform="translate(444.3416,314.1323)"><path
         d="m 0,0 v 17.799 c 0,5.444 4.859,9.856 10.852,9.856 5.994,0 10.853,-4.412 10.853,-9.856 V 0 Z"
         style="fill:none;stroke:#794039;stroke-width:6;stroke-linecap:butt;stroke-linejoin:miter;stroke-miterlimit:10;stroke-dasharray:none;stroke-opacity:1"
         id="path840"
         inkscape:connector-curvature="0" /></g><g
       id="g842"
       transform="translate(380.1419,514.87)"><path
         d="m 0,0 v 17.8 c 0,5.443 4.859,9.857 10.852,9.857 5.994,0 10.853,-4.414 10.853,-9.857 V 0 Z"
         style="fill:#1b1b1b;fill-opacity:1;fill-rule:nonzero;stroke:none"
         id="path844"
         inkscape:connector-curvature="0" /></g><g
       id="g846"
       transform="translate(380.1419,514.87)"><path
         d="m 0,0 v 17.8 c 0,5.443 4.859,9.857 10.852,9.857 5.994,0 10.853,-4.414 10.853,-9.857 V 0 Z"
         style="fill:none;stroke:#794039;stroke-width:6;stroke-linecap:butt;stroke-linejoin:miter;stroke-miterlimit:10;stroke-dasharray:none;stroke-opacity:1"
         id="path848"
         inkscape:connector-curvature="0" /></g><g
       id="g850"
       transform="translate(359.6905,541.8647)"><path
         d="M 0,0 C -5.621,-0.371 -10.055,-4.621 -10.055,-9.821 V -27.62 H 0 10.057 V -9.821 C 10.057,-4.621 5.621,-0.371 0,0"
         style="fill:#1b1b1b;fill-opacity:1;fill-rule:nonzero;stroke:none"
         id="path852"
         inkscape:connector-curvature="0" /></g><g
       id="g854"
       transform="translate(359.6905,541.8647)"><path
         d="M 0,0 C -5.621,-0.371 -10.055,-4.621 -10.055,-9.821 V -27.62 H 0 10.057 V -9.821 C 10.057,-4.621 5.621,-0.371 0,0 Z"
         style="fill:none;stroke:#794039;stroke-width:6;stroke-linecap:butt;stroke-linejoin:miter;stroke-miterlimit:10;stroke-dasharray:none;stroke-opacity:1"
         id="path856"
         inkscape:connector-curvature="0" /></g><g
       id="g858"
       transform="translate(359.6905,458.8499)"><path
         d="m 0,0 c -5.621,-0.373 -10.055,-4.621 -10.055,-9.821 v -17.8 H 0 10.057 v 17.8 C 10.057,-4.621 5.621,-0.373 0,0"
         style="fill:#1b1b1b;fill-opacity:1;fill-rule:nonzero;stroke:none"
         id="path860"
         inkscape:connector-curvature="0" /></g><g
       id="g862"
       transform="translate(359.6905,458.8499)"><path
         d="m 0,0 c -5.621,-0.373 -10.055,-4.621 -10.055,-9.821 v -17.8 H 0 10.057 v 17.8 C 10.057,-4.621 5.621,-0.373 0,0 Z"
         style="fill:none;stroke:#794039;stroke-width:6;stroke-linecap:butt;stroke-linejoin:miter;stroke-miterlimit:10;stroke-dasharray:none;stroke-opacity:1"
         id="path864"
         inkscape:connector-curvature="0" /></g><g
       id="g866"
       transform="translate(362.1609,277.6106)"><path
         d="m 0,0 h -118.403 c -10.525,0 -19.058,-8.533 -19.058,-19.058 H 0 137.459 C 137.459,-8.533 128.926,0 118.402,0 Z"
         style="fill:#00af5c;fill-opacity:1;fill-rule:nonzero;stroke:none"
         id="path868"
         inkscape:connector-curvature="0" /></g><g
       id="g870"
       transform="translate(362.1609,277.6106)"><path
         d="m 0,0 h -118.403 c -10.525,0 -19.058,-8.533 -19.058,-19.058 H 0 137.459 C 137.459,-8.533 128.926,0 118.402,0 Z"
         style="fill:none;stroke:#794039;stroke-width:6;stroke-linecap:butt;stroke-linejoin:miter;stroke-miterlimit:10;stroke-dasharray:none;stroke-opacity:1"
         id="path872"
         inkscape:connector-curvature="0" /></g><g
       id="g874"
       transform="translate(549.6786,404.5388)"><path
         d="m 0,0 c -35.128,-49.878 -154.34,-53.544 -189.99,-53.504 -35.629,-0.04 -154.86,3.626 -189.988,53.504 0,0 172.596,-90.236 379.978,0"
         style="fill:#ff3a54;fill-opacity:1;fill-rule:nonzero;stroke:none"
         id="path876"
         inkscape:connector-curvature="0" /></g><g
       id="g878"
       transform="translate(549.6786,404.5388)"><path
         d="m 0,0 c -35.128,-49.878 -154.34,-53.544 -189.99,-53.504 -35.629,-0.04 -154.86,3.626 -189.988,53.504 0,0 172.596,-90.236 379.978,0 z"
         style="fill:none;stroke:#794039;stroke-width:6;stroke-linecap:butt;stroke-linejoin:miter;stroke-miterlimit:10;stroke-dasharray:none;stroke-opacity:1"
         id="path880"
         inkscape:connector-curvature="0" /></g><g
       id="g882"
       transform="translate(500.7644,505.1341)"><path
         d="m 0,0 c -26.553,-35.508 -116.026,-40.158 -141.076,-40.76 -25.268,0.602 -116.164,5.332 -141.794,41.741 0,0 0.019,0 0.039,-0.019 C -280.265,-0.561 -156.805,-73.102 0,0"
         style="fill:#ff3a54;fill-opacity:1;fill-rule:nonzero;stroke:none"
         id="path884"
         inkscape:connector-curvature="0" /></g><g
       id="g886"
       transform="translate(500.7644,505.1341)"><path
         d="m 0,0 c -26.553,-35.508 -116.026,-40.158 -141.076,-40.76 -25.268,0.602 -116.164,5.332 -141.794,41.741 0,0 0.019,0 0.039,-0.019 C -280.265,-0.561 -156.805,-73.102 0,0 Z"
         style="fill:none;stroke:#794039;stroke-width:6;stroke-linecap:butt;stroke-linejoin:miter;stroke-miterlimit:10;stroke-dasharray:none;stroke-opacity:1"
         id="path888"
         inkscape:connector-curvature="0" /></g><g
       id="g890"
       transform="translate(449.3036,568.2172)"><path
         d="m 0,0 c -1.764,-3.968 -13.686,-20.32 -89.615,-21.862 -86.467,1.762 -89.913,22.723 -89.913,22.723 0,0 78.172,-32.704 179.528,-0.861"
         style="fill:#ff3a54;fill-opacity:1;fill-rule:nonzero;stroke:none"
         id="path892"
         inkscape:connector-curvature="0" /></g><g
       id="g894"
       transform="translate(449.3036,568.2172)"><path
         d="m 0,0 c -1.764,-3.968 -13.686,-20.32 -89.615,-21.862 -86.467,1.762 -89.913,22.723 -89.913,22.723 0,0 78.172,-32.704 179.528,-0.861 z"
         style="fill:none;stroke:#794039;stroke-width:6;stroke-linecap:butt;stroke-linejoin:miter;stroke-miterlimit:10;stroke-dasharray:none;stroke-opacity:1"
         id="path896"
         inkscape:connector-curvature="0" /></g><g
       id="g898"
       transform="translate(143.0442,255.7112)"><path
         d="m 0,0 c 0,0 -13.664,3.726 -8.281,16.563 5.383,12.836 16.976,4.14 16.976,4.14 0,0 -11.593,9.524 -2.484,17.806 9.109,8.281 11.595,-9.939 11.595,-9.939 0,0 -4.555,21.946 15.32,25.673 19.875,3.727 25.672,-24.844 25.672,-24.844 0,0 2.07,21.532 11.181,22.36 9.109,0.828 0,-19.461 0,-19.461 0,0 11.133,17.39 27.512,4.968 C 113.87,24.844 93.994,0 93.994,0 Z"
         style="fill:#4b823d;fill-opacity:1;fill-rule:nonzero;stroke:none"
         id="path900"
         inkscape:connector-curvature="0" /></g><g
       id="g902"
       transform="translate(143.0442,255.7112)"><path
         d="m 0,0 c 0,0 -13.664,3.726 -8.281,16.563 5.383,12.836 16.976,4.14 16.976,4.14 0,0 -11.593,9.524 -2.484,17.806 9.109,8.281 11.595,-9.939 11.595,-9.939 0,0 -4.555,21.946 15.32,25.673 19.875,3.727 25.672,-24.844 25.672,-24.844 0,0 2.07,21.532 11.181,22.36 9.109,0.828 0,-19.461 0,-19.461 0,0 11.133,17.39 27.512,4.968 C 113.87,24.844 93.994,0 93.994,0 Z"
         style="fill:none;stroke:#794039;stroke-width:6;stroke-linecap:round;stroke-linejoin:round;stroke-miterlimit:10;stroke-dasharray:none;stroke-opacity:1"
         id="path904"
         inkscape:connector-curvature="0" /></g><g
       id="g906"
       transform="translate(1118.1417,255.7112)"><path
         d="m 0,0 c 0,0 -13.664,3.726 -8.281,16.563 5.383,12.836 16.976,4.14 16.976,4.14 0,0 -11.593,9.524 -2.484,17.806 9.109,8.281 11.595,-9.939 11.595,-9.939 0,0 -4.555,21.946 15.32,25.673 19.875,3.727 25.672,-24.844 25.672,-24.844 0,0 2.07,21.532 11.181,22.36 9.109,0.828 0,-19.461 0,-19.461 0,0 11.133,17.39 27.512,4.968 C 113.87,24.844 93.994,0 93.994,0 Z"
         style="fill:#4b823d;fill-opacity:1;fill-rule:nonzero;stroke:none"
         id="path908"
         inkscape:connector-curvature="0" /></g><g
       id="g910"
       transform="translate(1118.1417,255.7112)"><path
         d="m 0,0 c 0,0 -13.664,3.726 -8.281,16.563 5.383,12.836 16.976,4.14 16.976,4.14 0,0 -11.593,9.524 -2.484,17.806 9.109,8.281 11.595,-9.939 11.595,-9.939 0,0 -4.555,21.946 15.32,25.673 19.875,3.727 25.672,-24.844 25.672,-24.844 0,0 2.07,21.532 11.181,22.36 9.109,0.828 0,-19.461 0,-19.461 0,0 11.133,17.39 27.512,4.968 C 113.87,24.844 93.994,0 93.994,0 Z"
         style="fill:none;stroke:#794039;stroke-width:6;stroke-linecap:round;stroke-linejoin:round;stroke-miterlimit:10;stroke-dasharray:none;stroke-opacity:1"
         id="path912"
         inkscape:connector-curvature="0" /></g><g
       id="g1214"
       transform="translate(1.2017,567.1721)"><path
         d="m 0,0 c 0.305,1.677 0.488,3.397 0.488,5.162 0,15.871 -12.866,28.736 -28.736,28.736 -4.21,0 -8.197,-0.926 -11.799,-2.553 -4.368,21.016 -22.984,36.81 -45.296,36.81 -21.436,0 -39.416,-14.599 -44.671,-34.382 -6.156,4.073 -13.526,6.457 -21.46,6.457 -21.188,0 -38.389,-16.921 -38.915,-37.982 -11.103,-5.079 -18.882,-16.279 -18.882,-29.231 0,-17.681 14.466,-32.147 32.146,-32.147 H -17.37 c 17.68,0 32.145,14.466 32.145,32.147 C 14.775,-15.696 8.865,-5.739 0,0"
         style="fill:#ffffff;fill-opacity:1;fill-rule:nonzero;stroke:none"
         id="path1216"
         inkscape:connector-curvature="0" /></g><g
       id="g1218"
       transform="translate(1.2017,567.1721)"><path
         d="m 0,0 c 0.305,1.677 0.488,3.397 0.488,5.162 0,15.871 -12.866,28.736 -28.736,28.736 -4.21,0 -8.197,-0.926 -11.799,-2.553 -4.368,21.016 -22.984,36.81 -45.296,36.81 -21.436,0 -39.416,-14.599 -44.671,-34.382 -6.156,4.073 -13.526,6.457 -21.46,6.457 -21.188,0 -38.389,-16.921 -38.915,-37.982 -11.103,-5.079 -18.882,-16.279 -18.882,-29.231 0,-17.681 14.466,-32.147 32.146,-32.147 H -17.37 c 17.68,0 32.145,14.466 32.145,32.147 C 14.775,-15.696 8.865,-5.739 0,0 Z"
         style="fill:none;stroke:#794039;stroke-width:6;stroke-linecap:butt;stroke-linejoin:miter;stroke-miterlimit:10;stroke-dasharray:none;stroke-opacity:1"
         id="path1220"
         inkscape:connector-curvature="0" /></g></g></svg>