<?xml version="1.0" encoding="UTF-8" standalone="no"?>
<!-- Generator: Adobe Illustrator 18.0.0, SVG Export Plug-In . SVG Version: 6.00 Build 0)  -->

<svg
   xmlns:dc="http://purl.org/dc/elements/1.1/"
   xmlns:cc="http://creativecommons.org/ns#"
   xmlns:rdf="http://www.w3.org/1999/02/22-rdf-syntax-ns#"
   xmlns:svg="http://www.w3.org/2000/svg"
   xmlns="http://www.w3.org/2000/svg"
   xmlns:sodipodi="http://sodipodi.sourceforge.net/DTD/sodipodi-0.dtd"
   xmlns:inkscape="http://www.inkscape.org/namespaces/inkscape"
   version="1.1"
   id="Capa_1"
   x="0px"
   y="0px"
   viewBox="0 0 852.10986 1298.0692"
   enable-background="new 0 0 1600 1600"
   xml:space="preserve"
   sodipodi:docname="soldier-saber.svg"
   width="852.10986"
   height="1298.0692"
   inkscape:version="0.92.4 (unknown)"><metadata
   id="metadata209"><rdf:RDF><cc:Work
       rdf:about=""><dc:format>image/svg+xml</dc:format><dc:type
         rdf:resource="http://purl.org/dc/dcmitype/StillImage" /><dc:title></dc:title></cc:Work></rdf:RDF></metadata><defs
   id="defs207" /><sodipodi:namedview
   pagecolor="#ffffff"
   bordercolor="#666666"
   borderopacity="1"
   objecttolerance="10"
   gridtolerance="10"
   guidetolerance="10"
   inkscape:pageopacity="0"
   inkscape:pageshadow="2"
   inkscape:window-width="1920"
   inkscape:window-height="1016"
   id="namedview205"
   showgrid="false"
   inkscape:zoom="0.1475"
   inkscape:cx="503.58372"
   inkscape:cy="663.71804"
   inkscape:window-x="0"
   inkscape:window-y="27"
   inkscape:window-maximized="1"
   inkscape:current-layer="Capa_1" />
<g
   id="g202"
   transform="translate(-309.9756,-165.64881)">
	
		<path
   stroke-miterlimit="10"
   d="m 634,691.4 c -2.6,-5.7 -5.8,-11.3 -10.6,-15.3 -4.8,-4 -11.5,-6.1 -17.5,-4.2 11.7,24.5 20.8,50.3 27.1,76.8 6.7,0 13.3,-0.1 20,-0.1 -3.1,-9.9 -6.2,-19.9 -9.2,-29.8 -2.9,-9.3 -5.8,-18.6 -9.8,-27.4 z"
   id="path2"
   inkscape:connector-curvature="0"
   style="fill:#c69c6d;stroke:#794039;stroke-width:8.79740047;stroke-linecap:round;stroke-linejoin:round;stroke-miterlimit:10" />
	
		<path
   stroke-miterlimit="10"
   d="m 591.4,632.4 c 7.9,10.8 20.2,17.6 32.5,22.9 46.2,19.9 97.5,24.1 147.6,28 98.3,7.7 197.5,15.4 295.2,2.3 11.9,-1.6 24.7,-4 33,-12.6 6.3,-6.6 9,-15.7 11,-24.6 8.4,-37.6 8,-76.6 7.6,-115.2 -0.1,-7 -0.2,-14.2 -2.8,-20.7 -4.3,-11 -14.9,-18.1 -25.4,-23.4 -16.5,-8.2 -34.3,-13.2 -52.3,-17 -23.1,-4.9 -46.6,-8 -70,-10.9 -32.5,-4.1 -65,-8 -97.5,-11.7 -24,-2.8 -48.1,-5.4 -72.3,-6.4 -67.1,-2.7 -134.7,8 -197.7,31.1 -4.9,1.8 -10,3.8 -13.3,7.8 -3.6,4.3 -4.6,10.3 -5.3,15.9 -3.8,30 -4.7,60.3 -2.6,90.5 1.1,15.5 3.2,31.6 12.3,44 z"
   id="path4"
   inkscape:connector-curvature="0"
   style="fill:#1a1a1a;stroke:#794039;stroke-width:8.79740047;stroke-linecap:round;stroke-linejoin:round;stroke-miterlimit:10" />
	
		<path
   stroke-miterlimit="10"
   d="m 803.2,992.8 c -8.8,-1.7 -19,2.9 -26,9.1 -13.9,12.2 -22.2,29.1 -30.1,45.6 -7.6,15.8 -12.2,-7.9 -13.3,9.6 -1.2,18 -12.8,77.6 -15.5,95.5 -5.3,35 -10.7,70.1 -16.7,105 -4.6,26.8 -8.9,53.7 -14.4,80.4 -2.7,13.3 -5.8,26.6 -9.3,39.8 -2.7,9.9 -8.1,18.9 -12.6,28.1 -4,8.4 -9.7,15.9 0.9,21.9 9.5,5.4 20.9,7.5 31.8,7.1 9.5,-0.4 24.5,-2.8 31.7,-9 21.1,-18 29.4,-42.8 35,-67.6 11.4,-50.9 23.8,-100.4 36.8,-150.7 8.1,-31.1 32.8,-148.4 27.1,-180.7 -1.6,-9.4 -6.2,-15.3 -11.6,-23.2 -1.9,-2.8 -3.8,-5.6 -6.5,-7.6 -2.3,-1.8 -4.8,-2.9 -7.3,-3.3 z"
   id="path6"
   inkscape:connector-curvature="0"
   style="fill:#fed09e;stroke:#794039;stroke-width:8.18690014;stroke-linecap:round;stroke-linejoin:round;stroke-miterlimit:10" />
	
		<path
   stroke-miterlimit="10"
   d="m 973.9,1073.2 c 0.7,11.9 1.4,23.7 2,35.6 0.3,5.4 0.8,11.4 4.2,15.3 3.4,3.9 10.7,3.4 11.8,-1.9 3.9,-3.5 5.8,-4.3 7.8,-9.1"
   id="path8"
   inkscape:connector-curvature="0"
   style="fill:#333333;stroke:#794039;stroke-width:8.18690014;stroke-linecap:round;stroke-linejoin:round;stroke-miterlimit:10" />
	
		<path
   stroke-miterlimit="10"
   d="m 896.2,1007.5 c 1.2,-1 2.5,-1.9 3.8,-2.8 10.1,-6.5 24.4,-8.9 34.5,-2.9 12,7.2 19.8,22.4 19.6,35.4 -0.8,48.9 -4.1,164.2 -4.1,230.9 0,24.5 -0.3,49 0.6,73.5 0.4,12.2 1.2,24.5 2.4,36.6 0.9,9.2 4.7,17.9 7.4,26.7 2.5,8 6.6,15.4 -4.5,19.4 -10,3.6 -21.3,4 -31.6,2.2 -9,-1.5 -23,-5.6 -28.9,-12.1 -17.3,-18.7 -21.1,-41.9 -22.4,-64.7 -2.6,-46.8 -6.3,-92.5 -10.5,-139 -2.6,-28.7 -7,-136.5 3.7,-164.5 5.5,-14.3 17.5,-28.4 30,-38.7 z"
   id="path10"
   inkscape:connector-curvature="0"
   style="fill:#fed09e;stroke:#794039;stroke-width:8.18690014;stroke-linecap:round;stroke-linejoin:round;stroke-miterlimit:10" />
	
		<path
   stroke-miterlimit="10"
   d="m 913.5,957 c 1,3.7 50.8,65.6 41.8,129.6 -9,64 -228.1,-1.4 -218.1,-39.6 9.8,-37.4 30.6,-100.8 41.7,-117.2 11.1,-16.3 125.8,-4.3 134.6,27.2 z"
   id="path12"
   inkscape:connector-curvature="0"
   style="fill:#fed09e;stroke:#794039;stroke-width:8.18690014;stroke-linecap:round;stroke-linejoin:round;stroke-miterlimit:10" />
	
		<path
   stroke-miterlimit="10"
   d="m 830.9,763 c -13.3,-6.2 -28.7,-6.4 -42.4,-1.3 -17.2,6.4 -34.4,11 -48.9,21.9 -23.1,17.5 -43,44 -64.2,64.5 -10.1,9.8 -20.3,20.2 -25.4,33.3 -5.1,13.1 -3.9,29.7 6.5,39.2 9.3,8.3 23.5,9.1 35.3,5 11.8,-4 21.7,-12.1 31.4,-20 C 740.2,891.7 891,787.4 830.9,763 Z"
   id="path14"
   inkscape:connector-curvature="0"
   style="fill:#3c4834;stroke:#794039;stroke-width:8.18690014;stroke-linecap:round;stroke-linejoin:round;stroke-miterlimit:10" />
	
		<path
   stroke-miterlimit="10"
   d="m 892.5,758.3 c 1.3,-0.4 3,-0.8 5.3,-1.4 7.7,-2 17.3,-2 24.6,1.7 23,11.6 32.5,48.2 39.7,72.5 9.1,31 15.2,62.9 23.9,94 7.3,26.3 18.6,51.6 24.5,79 6.2,28.8 9.9,58.2 18.6,86.5 1.7,5.5 3.6,11.1 2.8,16.8 -1.1,8.2 -14.6,21.8 -19.5,28.7 -4,5.7 -9.9,10.9 -16.8,10.8 -7.4,-9.7 -7.7,-19 -10.9,-29.9 -4.1,-13.4 -11.9,-26 -16.1,-39.6 -8.3,-26.3 -12.8,-53.5 -17.1,-80.7 C 945,956 933.2,916.8 918.4,879 c -11,-28 -24.6,-55.6 -29,-86.2 -1.1,-7.5 -2,-15.6 -1.4,-23.2 0.6,-8.4 0.7,-10 4.5,-11.3 z"
   id="path16"
   inkscape:connector-curvature="0"
   style="fill:#fed09e;stroke:#794039;stroke-width:8.18690014;stroke-linecap:round;stroke-linejoin:round;stroke-miterlimit:10" />
	
		<path
   stroke-miterlimit="10"
   d="m 894.7,754 c 1.3,-0.4 3,-0.8 5.3,-1.4 25,-6.6 32.1,16.1 54.3,18.6 -0.7,8.9 -1.5,17.8 -2.2,26.7 1.3,-3.5 6.3,-4.5 9.4,-2.5 3.1,2 4.5,6 4.6,9.7 0.1,3.7 -1,7.4 -1.6,11 -2.9,16.5 8.5,39.8 15.8,54.3 4.1,8.1 7.6,13.3 9.6,21.9 2,8.3 1.6,15.4 6.2,23.1 1.8,3.1 4.1,6.4 3.4,9.9 -1.1,4.9 -7.1,6.6 -12.1,7.3 -10.8,1.5 -21.5,3.1 -32.3,4.6 -5,0.7 -10.9,1 -13.9,-3 -1.1,-1.5 -1.6,-3.3 -2.1,-5 -5.5,-18.2 -11.5,-36.6 -18.5,-54.4 -11,-28 -24.6,-55.6 -29,-86.2 -1.1,-7.5 -2,-15.6 -1.4,-23.2 0.5,-8.5 0.6,-10.1 4.5,-11.4 z"
   id="path18"
   inkscape:connector-curvature="0"
   style="fill:#3c4834;stroke:#794039;stroke-width:8.18690014;stroke-linecap:round;stroke-linejoin:round;stroke-miterlimit:10" />
	
		<path
   stroke-miterlimit="10"
   d="m 1009.7,953.9 c 0.6,1.7 1.3,3.4 1.1,5.2 -0.5,5.2 -7,6.9 -12.1,7.6 -21,2.6 -41.8,7.5 -61.7,14.6 -0.5,-9.1 -1,-18.2 -1.4,-27.3 -0.1,-1.6 -0.1,-3.5 1,-4.7 0.7,-0.8 1.8,-1.1 2.8,-1.5 22.1,-7.1 44.2,-14.2 66.2,-21.3 -0.5,9.3 0.9,18.7 4.1,27.4 z"
   id="path20"
   inkscape:connector-curvature="0"
   style="fill:#5d6d52;stroke:#794039;stroke-width:8.18690014;stroke-linecap:round;stroke-linejoin:round;stroke-miterlimit:10" />
	
		<path
   stroke-miterlimit="10"
   d="m 1009.4,1054.3 c 1.8,-0.3 3.7,-0.3 5.5,0.2 15.1,4.1 8.2,22.7 11.3,33.1 1.5,5.1 5.8,8.9 6.3,14.4 1.2,13.4 -13.2,24.3 -20.1,34.2 -4,5.7 -9.9,10.9 -16.8,10.8 -7.4,-9.7 -7.7,-19 -10.9,-29.9 -2.7,-8.8 -21.4,-36.1 -15.8,-44 1.9,-2.8 5.2,-4.2 8.3,-5.5 8,-3.5 16.1,-6.9 24.1,-10.4 2.5,-1.3 5.3,-2.4 8.1,-2.9 z"
   id="path22"
   inkscape:connector-curvature="0"
   style="fill:#333333;stroke:#794039;stroke-width:8.18690014;stroke-linecap:round;stroke-linejoin:round;stroke-miterlimit:10" />
	
		<path
   stroke-miterlimit="10"
   d="m 887.2,747.6 c -6.8,-1.3 -13.6,-1.5 -20.4,-0.1 1.7,-4.1 -7.4,-42.7 -2.6,-43.4 -18.4,3.1 -36.8,5.9 -55.3,8.4 -1.3,11.7 -1.7,23.4 -1.1,35.1 0.1,2.5 0.2,5.1 -0.8,7.3 -3.3,7.2 -25.5,9.5 -32.6,11.8 -7.6,2.5 -16.6,4.8 -23.2,9.6 -17.1,12.5 19.6,90.3 26.1,148.7 25.4,6.3 50.7,13.2 76.1,19.2 16.5,3.9 62.8,22.3 75.1,4.6 3.4,-4.9 4.6,-10.9 5.7,-16.7 3.5,-18.2 7,-36.4 10.5,-54.5 4.3,-22.2 2.8,-39.4 -2,-61.1 -3.4,-15.2 -7.2,-42.1 -18.6,-53.3 -3.1,-3 -7,-5 -10.9,-6.7 -8.4,-3.9 -17.1,-7.3 -26,-8.9 z"
   id="path24"
   inkscape:connector-curvature="0"
   style="fill:#fed09e;stroke:#794039;stroke-width:8.18690014;stroke-linecap:round;stroke-linejoin:round;stroke-miterlimit:10" />
	
		<path
   stroke-miterlimit="10"
   d="m 887,748.6 c -5,-1 -10.2,-1.7 -16.3,-1.6 -2,11.3 -10.2,21.4 -20.9,25.6 -10.7,4.2 -23.6,2.4 -32.7,-4.6 -5.6,-4.3 -11.1,-10.8 -18.1,-9.7 -7.2,1.1 -17.3,6.1 -24.5,8.5 -7.6,2.5 -16.6,4.8 -23.2,9.6 -17.1,12.5 19.6,90.3 26.1,148.7 25.4,6.3 50.7,13.2 76.1,19.2 16.5,3.9 62.8,22.3 75.1,4.6 3.4,-4.9 4.6,-10.9 5.7,-16.7 3.5,-18.2 7,-36.4 10.5,-54.5 4.3,-22.2 2.8,-39.4 -2,-61.1 -3.4,-15.2 -7.2,-42.1 -18.6,-53.3 -3.1,-3 -7,-5 -10.9,-6.7 -10,-3.2 -17.8,-6.2 -26.3,-8 z"
   id="path26"
   inkscape:connector-curvature="0"
   style="fill:#5d6d52;stroke:#794039;stroke-width:8.18690014;stroke-linecap:round;stroke-linejoin:round;stroke-miterlimit:10" />
	
		<path
   stroke-miterlimit="10"
   d="m 1082.4,546.7 c -5.7,132 -115.4,191.1 -247.5,185.5 -132.1,-5.6 -236.3,-73.9 -230.7,-206 7,-162.5 13.5,-245.4 249.6,-235.3 236.1,10.1 235.5,93.3 228.6,255.8 z"
   id="path28"
   inkscape:connector-curvature="0"
   style="fill:#fed09e;stroke:#794039;stroke-width:8.18690014;stroke-linecap:round;stroke-linejoin:round;stroke-miterlimit:10" />
	<g
   id="g48">
		<circle
   cx="728.29999"
   cy="589.90002"
   r="28.9"
   id="circle30"
   style="fill:#794039" />
		<circle
   cx="690.79999"
   cy="644.59998"
   r="32.799999"
   id="circle32"
   style="fill:#faacae" />
		<circle
   cx="961.20001"
   cy="599.90002"
   r="28.9"
   id="circle34"
   style="fill:#794039" />
		<circle
   cx="992.29999"
   cy="655.90002"
   r="31.200001"
   id="circle36"
   style="fill:#faacae" />
		<g
   id="g40">
			<path
   d="m 763.9,548.7 c 0,0 -1.2,-0.8 -3.1,-2.2 -1.9,-1.3 -4.5,-3.2 -7.4,-5.5 -1.5,-1.1 -3,-2.3 -4.7,-3.5 -0.9,-0.6 -1.7,-1.2 -2.6,-1.8 -0.4,-0.3 -0.9,-0.6 -1.4,-0.9 -0.5,-0.3 -0.9,-0.6 -1.4,-0.9 -0.9,-0.6 -1.9,-1.2 -2.9,-1.8 -0.5,-0.3 -1,-0.6 -1.5,-0.9 -0.5,-0.3 -1,-0.6 -1.5,-0.9 -1,-0.5 -2,-1.2 -3.1,-1.7 -1.1,-0.6 -2.1,-1.1 -3.3,-1.5 -1.1,-0.5 -2.2,-0.9 -3.3,-1.4 -1.1,-0.4 -2.3,-0.8 -3.4,-1.2 -1.2,-0.3 -2.3,-0.7 -3.4,-1 -1.2,-0.3 -2.3,-0.6 -3.4,-0.8 -1.1,-0.2 -2.3,-0.4 -3.4,-0.6 -1.1,-0.2 -2.2,-0.3 -3.3,-0.5 -1.1,-0.2 -2.1,-0.2 -3.1,-0.3 -1,-0.1 -2,-0.2 -3,-0.3 -1.9,-0.1 -3.7,-0.2 -5.2,-0.2 -1.6,0 -2.9,-0.1 -4.1,0 -2.3,0 -3.6,0 -3.6,0 0,0 1.2,-0.4 3.4,-1.2 1.1,-0.4 2.4,-0.7 4,-1.1 1.6,-0.4 3.3,-0.8 5.3,-1.1 1,-0.2 2,-0.3 3.1,-0.5 1.1,-0.1 2.2,-0.3 3.3,-0.3 1.1,-0.1 2.3,-0.2 3.5,-0.2 1.2,0 2.5,0 3.7,0 1.3,0.1 2.6,0.2 3.9,0.3 1.3,0.2 2.6,0.3 4,0.5 1.3,0.3 2.7,0.5 4,0.8 1.3,0.3 2.7,0.6 4,1.1 1.3,0.4 2.6,0.8 3.9,1.4 1.3,0.5 2.6,1 3.8,1.6 2.5,1.2 4.8,2.5 6.9,4 2.1,1.5 4,3.2 5.7,4.8 1.7,1.7 3.2,3.4 4.4,5 1.2,1.7 2.2,3.3 2.9,4.8 0.7,1.5 1.2,2.9 1.6,4.1 0.3,1.2 0.5,2.1 0.6,2.8 0.1,0.7 0.1,1.1 0.1,1.1 z"
   id="path38"
   inkscape:connector-curvature="0"
   style="fill:#794039" />
		</g>
		<g
   id="g44">
			<path
   d="m 926.9,545.9 c 0,0 0.1,-0.4 0.2,-1 0.2,-0.6 0.5,-1.6 1,-2.7 0.5,-1.1 1.2,-2.4 2.2,-3.8 0.9,-1.4 2.2,-2.9 3.6,-4.3 1.4,-1.5 3.2,-2.9 5.1,-4.3 1.9,-1.4 4,-2.8 6.4,-3.9 2.3,-1.2 4.8,-2.2 7.5,-2.9 1.3,-0.4 2.6,-0.7 4,-1 1.3,-0.3 2.7,-0.5 4.1,-0.7 1.4,-0.2 2.7,-0.3 4.1,-0.4 1.4,-0.1 2.7,-0.1 4.1,-0.2 1.3,0 2.7,0 4,0.1 1.3,0.1 2.6,0.2 3.9,0.3 1.3,0.2 2.5,0.3 3.7,0.5 1.2,0.2 2.4,0.5 3.5,0.7 1.1,0.2 2.2,0.5 3.2,0.8 1,0.3 2,0.6 3,0.9 1.9,0.6 3.6,1.2 5.1,1.9 1.5,0.6 2.8,1.2 3.8,1.7 2,1 3.2,1.7 3.2,1.7 0,0 -1.3,-0.2 -3.5,-0.6 -1.1,-0.2 -2.5,-0.4 -4,-0.6 -1.5,-0.2 -3.3,-0.4 -5.2,-0.6 -0.9,-0.1 -1.9,-0.1 -3,-0.2 -1,0 -2.1,-0.2 -3.1,-0.1 -1.1,0 -2.2,0 -3.3,0 -1.1,0.1 -2.3,0.1 -3.4,0.1 -1.2,0.1 -2.3,0.2 -3.5,0.3 -1.2,0.2 -2.4,0.3 -3.5,0.5 -1.2,0.2 -2.4,0.4 -3.6,0.7 -1.2,0.3 -2.4,0.5 -3.5,0.9 -1.2,0.3 -2.3,0.6 -3.4,1 -1.1,0.3 -2.2,0.8 -3.3,1.2 -0.6,0.2 -1.1,0.4 -1.6,0.6 -0.5,0.2 -1.1,0.4 -1.6,0.6 -1,0.5 -2.1,0.9 -3.1,1.3 -0.5,0.2 -1,0.4 -1.5,0.7 -0.5,0.2 -1,0.5 -1.5,0.7 -1,0.4 -1.9,0.9 -2.9,1.4 -1.9,0.9 -3.6,1.9 -5.2,2.7 -3.2,1.8 -6.1,3.2 -8.2,4.3 -2.5,1.1 -3.8,1.7 -3.8,1.7 z"
   id="path42"
   inkscape:connector-curvature="0"
   style="fill:#794039" />
		</g>
		
			<path
   stroke-miterlimit="10"
   d="m 833.4,656.6 c 11.2,1.9 22.8,1.5 33.9,-1"
   id="path46"
   inkscape:connector-curvature="0"
   style="fill:none;stroke:#794039;stroke-width:4.86709976;stroke-linecap:round;stroke-linejoin:round;stroke-miterlimit:10" />
	</g>
	
		<path
   stroke-miterlimit="10"
   d="m 711.2,887.7 c 2.5,-7.1 1.9,-17.4 -1.8,-23.8 -2.7,-4.8 -7,-8.5 -11.2,-12.1 -15.8,-13.3 -31.6,-26.7 -47.3,-40 -4.9,-4.2 -10.2,-8.5 -16.5,-9.7 -7.1,-1.4 -14.6,1.5 -20.1,6.1 -39.2,32.5 13,103.3 49.6,116.5 9.8,3.5 19.4,3.8 28.8,-0.5"
   id="path50"
   inkscape:connector-curvature="0"
   style="fill:#fed09e;stroke:#794039;stroke-width:8.18690014;stroke-linecap:round;stroke-linejoin:round;stroke-miterlimit:10" />
	
		<path
   stroke-miterlimit="10"
   d="m 648.9,920.6 c -3,1.9 -5.9,3.6 -8.8,5 8.6,1.9 13.7,11 21.9,14.1 7.3,2.7 15.5,0.1 22.3,-3.7 21.7,-12.4 32.8,-35.6 28.7,-60.8 -2.9,-17.6 -13,-28.2 -20.9,-43 -1.7,1.4 -12.4,6.4 -13.7,2 8,25.9 13.3,48.7 -8.6,69.8 -5.9,5.6 -13.4,11.7 -20.9,16.6 z"
   id="path52"
   inkscape:connector-curvature="0"
   style="fill:#5d6d52;stroke:#794039;stroke-width:8.18690014;stroke-linecap:round;stroke-linejoin:round;stroke-miterlimit:10" />
	
		<path
   stroke-miterlimit="10"
   d="m 595.9,762.3 c 5.3,-2.3 10.7,-4.4 16.1,-6.3 3.2,-1.1 6.9,-2 9.7,-0.2 1.2,0.8 2,1.9 2.8,3 4.9,6.8 9.9,13.5 14.8,20.3 1,1.4 2,2.8 2.5,4.5 0.9,3.7 -1.6,7.5 -4.9,9.3 -3.3,1.9 -7.2,2.2 -11,2.5 4.7,-0.4 11.8,15.6 13.1,19.1 3,8.2 3.1,15.4 -0.7,23.3 -3.9,8.2 -10.2,15 -16.3,21.7 -2.9,3.1 -6.4,6.5 -10.6,6.2 -3.1,-0.2 -5.6,-2.3 -8.6,-3.1 -4,-1.1 -8.3,0.4 -12.3,-0.4 -5.8,-1.1 -9.8,-6.3 -13.1,-11.1 -5.1,-7.3 -10.2,-14.5 -15.3,-21.8 -3.2,-4.5 -6.4,-9.2 -8.4,-14.4 -6.2,-16.4 4.5,-31.6 18.1,-40 7.6,-4.7 15.7,-8.9 24.1,-12.6 z"
   id="path54"
   inkscape:connector-curvature="0"
   style="fill:#333333;stroke:#794039;stroke-width:8.18690014;stroke-linecap:round;stroke-linejoin:round;stroke-miterlimit:10" />
	
		<path
   stroke-miterlimit="10"
   d="m 952.9,1094.4 c 1.2,-2.4 2,-4.9 2.4,-7.8 0.5,-3.3 -2.5,-49.5 -1.4,-49.8 -67.1,18.7 -137.7,-4.3 -206,-17.9 -1.7,-0.3 -3.5,-0.6 -5,0.1 -1.7,0.9 -2.5,2.9 -3,4.7 -10.7,33.4 -18.3,67.4 -28.2,101 -4.2,14.5 -8.5,29.1 -15.7,42.4 -5.8,10.7 -13.5,20.6 -16.9,32.4 -3.4,11.7 -0.9,26.5 9.8,32.5 2.7,1.5 5.9,2.6 7.2,5.4 0.7,1.6 0.5,3.5 0.4,5.3 -1.2,11.4 -2.4,22.7 -3.5,34.1 0,5.8 74,14.5 82.7,18.9 1.1,-10.1 4.1,-19.9 8.9,-28.8 11.4,0.4 22.8,-3.5 31.7,-10.6 1.3,-1 2.6,-2.2 3.5,-3.6 1.3,-2 1.8,-4.5 2.2,-6.9 2.5,-16.3 -3.7,-29 -4.6,-44.4 -1,-17.8 8.2,-38.6 11.5,-56 1.1,-5.9 2.2,-11.9 5.5,-16.9 3.3,-5 9.4,-8.7 15.2,-7.2 2.7,0.7 1.3,52.7 1.3,58.1 0,20.8 -2.2,33.7 -10.3,52.9 -4.3,10.3 -5.3,24.3 3.9,30.5 5.6,3.8 13.4,3.4 18.7,7.6 7.1,5.7 6.4,16.5 5.6,25.6 -0.3,3.1 -0.4,6.3 1.1,9 2.7,4.8 9.4,5.5 14.9,5.3 21.5,-0.4 43,-3.2 63.9,-8.3 2.2,-0.5 4.5,-1.2 5.8,-2.9 3.4,-4.4 -2,-10.3 -2,-15.9 0,-8.3 10.6,-11.3 16.9,-16.7 15.1,-13 6.2,-32.1 -2.9,-44.3 -13.6,-18.1 -15.3,-37.7 -14.8,-60 0.3,-11 0.3,-22.1 0.5,-33.2 0.1,-8.3 -3.1,-27.1 0.7,-34.6 z"
   id="path56"
   inkscape:connector-curvature="0"
   style="fill:#5d6d52;stroke:#794039;stroke-width:8.18690014;stroke-linecap:round;stroke-linejoin:round;stroke-miterlimit:10" />
	
		<path
   stroke-miterlimit="10"
   d="m 946.5,1172.8 c 5.9,4.3 10.6,10 13.7,16.7 29.2,-15.3 16.9,-37.1 12.3,-64.9 -1.2,-7.5 -4.7,-33.5 -12.4,-37.1 -6.8,-3.1 -30.5,6.7 -37.4,9.1 5.6,20.6 -0.5,42.6 2,63.8 0.2,1.3 0.4,2.8 1.4,3.7 1,0.9 2.4,1.1 3.7,1.3 6.1,1.3 11.8,3.8 16.7,7.4 z"
   id="path58"
   inkscape:connector-curvature="0"
   style="fill:#5d6d52;stroke:#794039;stroke-width:8.18690014;stroke-linecap:round;stroke-linejoin:round;stroke-miterlimit:10" />
	
		<path
   stroke-miterlimit="10"
   d="m 715.8,1051.6 c -16.7,9.6 -25.2,28.6 -32.6,46.4 -6.9,16.6 -13.8,33.1 -20.7,49.7 11.5,12.5 25.5,22.7 40.9,29.9 14,-6.3 28.9,-10.5 44.2,-12.3 2.4,-37.9 6.9,-75.6 13.6,-113 -13.5,-8.3 -31.6,-8.7 -45.4,-0.7 z"
   id="path60"
   inkscape:connector-curvature="0"
   style="fill:#5d6d52;stroke:#794039;stroke-width:8.18690014;stroke-linecap:round;stroke-linejoin:round;stroke-miterlimit:10" />
	
		<path
   stroke-miterlimit="10"
   d="m 884,748.1 c -2.9,16.4 -9.1,32.1 -18.2,46 -3.3,5 -13.4,26.1 -18.1,25.7 -15.8,-1.5 -48.3,-88.7 -54.1,-87.2 -7.2,1.9 -14.3,3.7 -21.5,5.6 -1.3,0.3 -2.7,0.7 -3.4,1.8 -1.2,1.8 0,4.2 1.2,6 2.2,3.3 4.5,6.4 6.1,9.9 -11.2,12.4 -27.6,13.9 -42,21.1 6.2,-3.1 19.4,55.4 19.7,59.6 1.8,24.9 -2.2,50 -7.2,74.3 -2,9.6 -4.1,19.2 -3.7,28.9 0.4,12.1 4.8,24.2 12.8,33.3 -4.7,1 -9.4,1.9 -14.1,2.9 2.5,-0.5 -10.7,37.3 -14.1,41.7 -10.6,13.4 -18.7,28.1 -28.2,42.5 43,31.3 95.3,49.6 148.4,52.1 3,0.1 6.4,0.1 8.7,-1.8 2.2,-1.8 2.9,-4.8 3.5,-7.6 3.9,-18.3 7.9,-36.6 11.8,-54.9 2.6,20.4 5.2,40.8 7.8,61.2 34.2,-1.3 68.2,-5.4 101.8,-12.1 -8.6,-32.3 -13.5,-68.5 -15.8,-101.9 -0.4,-6.4 -0.7,-12.9 -3.4,-18.7 -2.7,-5.8 -8.7,-10.6 -15,-9.7 5.4,-3.7 11.2,-8.2 12,-14.7 0.4,-3.2 -0.6,-6.4 -1.5,-9.5 -12.1,-41.7 -5.8,-84.3 -15.1,-126.1 -3,-13.4 -4.9,-27.3 -10.3,-40 -1.6,-3.8 -20,-28.1 -24.3,-23.3 5.4,-5.9 9.9,-12.5 13.5,-19.7 -12,3 -24.1,5.3 -36.3,6.8 -0.1,2.6 -0.5,5.2 -1,7.8 z"
   id="path62"
   inkscape:connector-curvature="0"
   style="fill:#3c4834;stroke:#794039;stroke-width:8.18690014;stroke-linecap:round;stroke-linejoin:round;stroke-miterlimit:10" />
	
		<path
   stroke-miterlimit="10"
   d="m 750.8,970.9 c 25.4,12.2 52.3,21.2 80,26.6 29,5.7 60.2,7.2 86.9,-5.3 12,-5.6 22.5,-13.8 33,-21.9"
   id="path64"
   inkscape:connector-curvature="0"
   style="fill:none;stroke:#794039;stroke-width:14.05220032;stroke-linecap:round;stroke-linejoin:round;stroke-miterlimit:10" />
	
		<path
   stroke-miterlimit="10"
   d="m 666.7,1151.6 c 12.4,-2 36.7,-16.9 47.6,-14 2.3,0.6 4.3,1.8 6.3,3.1 8.2,5.3 15.8,11.5 22.8,18.3"
   id="path66"
   inkscape:connector-curvature="0"
   style="fill:none;stroke:#794039;stroke-width:8.18690014;stroke-linecap:round;stroke-linejoin:round;stroke-miterlimit:10" />
	
		<path
   stroke-miterlimit="10"
   d="m 714.5,1135.3 c 5.7,-16.9 11.7,-33.8 18,-50.5"
   id="path68"
   inkscape:connector-curvature="0"
   style="fill:none;stroke:#794039;stroke-width:8.18690014;stroke-linecap:round;stroke-linejoin:round;stroke-miterlimit:10" />
	
		<path
   stroke-miterlimit="10"
   d="m 698.9,1064.9 c -4.2,6.3 -8.5,12.6 -12.7,18.9 -0.6,0.8 -1.1,1.7 -1.2,2.7 -0.1,1.2 0.7,2.3 1.3,3.3 3.5,5 7,10.1 10.4,15.1 8.4,-9.5 20.6,-15.7 33.3,-16.8"
   id="path70"
   inkscape:connector-curvature="0"
   style="fill:none;stroke:#794039;stroke-width:8.18690014;stroke-linecap:round;stroke-linejoin:round;stroke-miterlimit:10" />
	
		<path
   stroke-miterlimit="10"
   d="m 956.6,1107.5 c 1.3,15.9 1.6,32 1.1,48 -12.5,0.3 -24.9,4.5 -35,12"
   id="path72"
   inkscape:connector-curvature="0"
   style="fill:none;stroke:#794039;stroke-width:8.18690014;stroke-linecap:round;stroke-linejoin:round;stroke-miterlimit:10" />
	
		<path
   stroke-miterlimit="10"
   d="m 962.5,1157.3 c 6.3,4.7 11.3,11.3 14.1,18.6"
   id="path74"
   inkscape:connector-curvature="0"
   style="fill:none;stroke:#794039;stroke-width:8.18690014;stroke-linecap:round;stroke-linejoin:round;stroke-miterlimit:10" />
	
		<path
   stroke-miterlimit="10"
   d="m 730.9,959.1 c 2.1,0.3 4,1.3 5.9,2.2 4.3,2.2 8.9,4.9 10.3,9.6 1.3,4.2 -0.6,8.7 -2.5,12.6 -8.1,17.3 -16.2,34.6 -24.3,52 -9.3,0.4 -18.6,-2.2 -26.4,-7.2 -0.9,-0.6 -1.9,-1.4 -1.9,-2.4 0,-0.7 0.4,-1.3 0.8,-1.9 11.6,-16.7 13.5,-38.5 24.3,-55.7 3.2,-5 8,-9.9 13.8,-9.2 z"
   id="path76"
   inkscape:connector-curvature="0"
   style="fill:#3c4834;stroke:#794039;stroke-width:8.18690014;stroke-linecap:round;stroke-linejoin:round;stroke-miterlimit:10" />
	
		<path
   stroke-miterlimit="10"
   d="m 760.8,869 c -2.6,-9.2 -3.4,-18.9 -2.3,-28.4 23.1,-2.3 46.1,-4.6 69.2,-6.9 -0.1,10.6 1.9,21.2 5.9,31 -23.8,4.9 -48.4,6.4 -72.8,4.3 z"
   id="path78"
   inkscape:connector-curvature="0"
   style="fill:#3c4834;stroke:#794039;stroke-width:8.18690014;stroke-linecap:round;stroke-linejoin:round;stroke-miterlimit:10" />
	
		<path
   stroke-miterlimit="10"
   d="m 823.5,868.4 c 0.9,14.5 0,29.1 -2.7,43.4 -20.9,5.8 -42.6,8.7 -64.4,8.7 3.3,-14.6 4.6,-29.6 3.9,-44.5 0.4,0 0.9,0 1.3,0"
   id="path80"
   inkscape:connector-curvature="0"
   style="fill:none;stroke:#794039;stroke-width:8.18690014;stroke-linecap:round;stroke-linejoin:round;stroke-miterlimit:10" />
	
		<path
   stroke-miterlimit="10"
   d="m 887.1,826.9 c 0.3,11.2 -1.4,22.5 -4.9,33.1 21.2,-2.4 42.6,-2.6 63.8,-0.4 -2.2,-9.2 -3,-18.7 -2.3,-28.1 -18.5,5.2 -37.9,-8.5 -56.6,-4.6 z"
   id="path82"
   inkscape:connector-curvature="0"
   style="fill:none;stroke:#794039;stroke-width:8.18690014;stroke-linecap:round;stroke-linejoin:round;stroke-miterlimit:10" />
	
		<path
   stroke-miterlimit="10"
   d="m 896,859.5 c -1.7,15.6 -3.5,31.2 -5.2,46.8 18.9,0.3 37.9,-0.2 56.8,-1.7"
   id="path84"
   inkscape:connector-curvature="0"
   style="fill:none;stroke:#794039;stroke-width:8.18690014;stroke-linecap:round;stroke-linejoin:round;stroke-miterlimit:10" />
	
		<path
   stroke-miterlimit="10"
   d="m 845.9,816.3 c 16,57.5 22.5,117.7 19.2,177.3"
   id="path86"
   inkscape:connector-curvature="0"
   style="fill:none;stroke:#794039;stroke-width:8.18690014;stroke-linecap:round;stroke-linejoin:round;stroke-miterlimit:10" />
	
		<path
   stroke-miterlimit="10"
   d="m 866.7,1007.5 c 2.9,11.6 3.5,23.7 1.7,35.5"
   id="path88"
   inkscape:connector-curvature="0"
   style="fill:none;stroke:#794039;stroke-width:8.18690014;stroke-linecap:round;stroke-linejoin:round;stroke-miterlimit:10" />
	
		<path
   stroke-miterlimit="10"
   d="m 722.8,803.7 c -0.3,-1.4 2.1,-0.9 3,0.2 8.4,10.8 15.5,22.7 21,35.2"
   id="path90"
   inkscape:connector-curvature="0"
   style="fill:none;stroke:#794039;stroke-width:8.18690014;stroke-linecap:round;stroke-linejoin:round;stroke-miterlimit:10" />
	
		<path
   stroke-miterlimit="10"
   d="m 952.9,803.9 c -1.3,5.4 -1.8,10.9 -1.5,16.4"
   id="path92"
   inkscape:connector-curvature="0"
   style="fill:none;stroke:#794039;stroke-width:8.18690014;stroke-linecap:round;stroke-linejoin:round;stroke-miterlimit:10" />
	
		<path
   stroke-miterlimit="10"
   d="m 688.9,1232.6 c 10.2,5.3 20.4,10.5 30.7,15.7 14.3,7.2 28.8,14.5 44.1,19.4 -6.6,4.2 -15.4,4.6 -22.3,0.9"
   id="path94"
   inkscape:connector-curvature="0"
   style="fill:none;stroke:#794039;stroke-width:8.18690014;stroke-linecap:round;stroke-linejoin:round;stroke-miterlimit:10" />
	
		<path
   stroke-miterlimit="10"
   d="m 740.5,1243.2 c 17.5,9.7 38.4,13 58.1,9.3"
   id="path96"
   inkscape:connector-curvature="0"
   style="fill:none;stroke:#794039;stroke-width:8.18690014;stroke-linecap:round;stroke-linejoin:round;stroke-miterlimit:10" />
	
		<path
   stroke-miterlimit="10"
   d="m 707.2,1263 c 0.5,-0.3 -0.6,-0.8 -0.7,-0.2 -0.1,0.6 0.5,0.9 1,1.2 6.6,2.9 13.7,4.6 20.9,4.9"
   id="path98"
   inkscape:connector-curvature="0"
   style="fill:none;stroke:#794039;stroke-width:8.18690014;stroke-linecap:round;stroke-linejoin:round;stroke-miterlimit:10" />
	
		<path
   stroke-miterlimit="10"
   d="m 861.1,1272.9 c 25.1,3.1 50.4,4.4 75.7,3.9 -3,4.7 -7.5,8.5 -12.8,10.4"
   id="path100"
   inkscape:connector-curvature="0"
   style="fill:none;stroke:#794039;stroke-width:8.18690014;stroke-linecap:round;stroke-linejoin:round;stroke-miterlimit:10" />
	
		<path
   stroke-miterlimit="10"
   d="m 903.5,1267.5 c 4.2,4.3 11.2,3.6 17.2,2.6 9.4,-1.7 18.7,-3.3 28.1,-5"
   id="path102"
   inkscape:connector-curvature="0"
   style="fill:none;stroke:#794039;stroke-width:8.18690014;stroke-linecap:round;stroke-linejoin:round;stroke-miterlimit:10" />
	
		<path
   stroke-miterlimit="10"
   d="m 875.4,1294.3 c 10,1.9 20.4,1.7 30.2,-0.6"
   id="path104"
   inkscape:connector-curvature="0"
   style="fill:none;stroke:#794039;stroke-width:8.18690014;stroke-linecap:round;stroke-linejoin:round;stroke-miterlimit:10" />
	
		<path
   stroke-miterlimit="10"
   d="m 1026.2,798.3 c -1,-0.3 -2,-0.7 -2.6,-1.5 -1,-1.2 -0.9,-2.8 -0.7,-4.3 4.5,-39.7 23.8,-77.5 53.2,-104.4 5.8,-1.1 12.2,1.6 15.4,6.5 -24.6,32.3 -46.8,68.8 -49.6,109.3 -5.2,-1.9 -10.5,-3.7 -15.7,-5.6 z"
   id="path106"
   inkscape:connector-curvature="0"
   style="fill:#c69c6d;stroke:#794039;stroke-width:8.79740047;stroke-linecap:round;stroke-linejoin:round;stroke-miterlimit:10" />
	<g
   id="g126">
		
			<path
   stroke-miterlimit="10"
   d="m 673.6,1445.2 c 10.8,3.3 22.4,4.5 33.7,3.8 13.4,-0.8 19.8,-11.2 31.5,-15.7 -0.8,2.5 -1.6,5 -2.5,7.5 3.6,-1.3 7.1,-2.6 10.7,-3.9 0.4,-4.2 3.2,-7.9 4.1,-12.3 1.2,-6.1 2,-12.5 2.5,-18.6 0.5,-6.8 1.1,-13.5 1.6,-20.3 -11.8,16.2 -30,27.5 -49.8,30.9 -6.5,1.1 -13.1,1.4 -19.7,1.4 -6.8,0 -22.7,-4 -28.2,0.4 -3,2.4 -5,17.2 -2.6,18.6 6,3.5 12.2,6.2 18.7,8.2 z"
   id="path108"
   inkscape:connector-curvature="0"
   style="fill:#323436;stroke:#794039;stroke-width:8.18690014;stroke-linecap:round;stroke-linejoin:round;stroke-miterlimit:10" />
		
			<path
   stroke-miterlimit="10"
   d="m 732.1,1265.4 c -1.2,-0.3 -2.4,-0.5 -3.7,-0.5 -6.9,-0.4 -13.7,2 -20.2,4.4 -3.9,1.4 -8.3,3.3 -9.8,7.2 -1.3,3.3 0,6.9 0.2,10.4 0.2,3.5 -1.6,7.8 -5.1,7.8 -1,0 -2.2,-0.4 -3,0.2 -0.8,0.5 -0.9,1.6 -0.9,2.6 -0.4,9.8 1.1,20.8 -1.1,30.4 -1.6,7.4 -5.5,14.7 -8.1,22 -6.7,19 -14.6,37.5 -23.7,55.5 -1.8,3.6 -3.8,7.6 -3.2,11.6 0.9,6.4 7.5,10.3 13.6,12.5 17.6,6.2 46.8,9.7 62.4,-3.5 21.1,-18 29.4,-42.8 35,-67.6 0,-16.3 8.7,-34.3 11.6,-50.3 0.3,-1.4 0.5,-2.9 -0.2,-4.2 -0.7,-1.1 -2,-1.7 -3.2,-2.2 -8.6,-3.5 -17.3,-6.5 -26.2,-9.2 -2.2,-5.1 -0.3,-11.2 -2,-16.5 -1.5,-5.6 -6.7,-9.2 -12.4,-10.6 z"
   id="path110"
   inkscape:connector-curvature="0"
   style="fill:#58595b;stroke:#794039;stroke-width:8.18690014;stroke-linecap:round;stroke-linejoin:round;stroke-miterlimit:10" />
		
			<path
   stroke-miterlimit="10"
   d="m 703.2,1302.7 c 11,-2.2 22.5,-1.4 33.1,2.3"
   id="path112"
   inkscape:connector-curvature="0"
   style="fill:none;stroke:#794039;stroke-width:8.18690014;stroke-linecap:round;stroke-linejoin:round;stroke-miterlimit:10" />
		
			<path
   stroke-miterlimit="10"
   d="m 701,1319.3 c 9.4,-0.8 18.9,-0.3 28.1,1.6"
   id="path114"
   inkscape:connector-curvature="0"
   style="fill:none;stroke:#794039;stroke-width:8.18690014;stroke-linecap:round;stroke-linejoin:round;stroke-miterlimit:10" />
		
			<path
   stroke-miterlimit="10"
   d="m 697.4,1337.7 c 5.2,-0.5 10.3,-0.9 15.5,-1.4 3.8,-0.3 7.8,-0.7 11.3,0.8"
   id="path116"
   inkscape:connector-curvature="0"
   style="fill:none;stroke:#794039;stroke-width:8.18690014;stroke-linecap:round;stroke-linejoin:round;stroke-miterlimit:10" />
		
			<path
   stroke-miterlimit="10"
   d="m 690.1,1357 c 7.8,-0.7 15.7,0.2 23.1,2.6"
   id="path118"
   inkscape:connector-curvature="0"
   style="fill:none;stroke:#794039;stroke-width:8.18690014;stroke-linecap:round;stroke-linejoin:round;stroke-miterlimit:10" />
		
			<path
   stroke-miterlimit="10"
   d="m 682.2,1375 c 8,-0.6 16,0.1 23.8,2"
   id="path120"
   inkscape:connector-curvature="0"
   style="fill:none;stroke:#794039;stroke-width:8.18690014;stroke-linecap:round;stroke-linejoin:round;stroke-miterlimit:10" />
		
			<path
   stroke-miterlimit="10"
   d="m 676.5,1393.1 c 5.8,-0.8 11.8,-0.1 17.3,2"
   id="path122"
   inkscape:connector-curvature="0"
   style="fill:none;stroke:#794039;stroke-width:8.18690014;stroke-linecap:round;stroke-linejoin:round;stroke-miterlimit:10" />
		
			<path
   stroke-miterlimit="10"
   d="m 707.2,1427.8 c 1.5,-11.9 8.4,-22.6 17.4,-30.5 9,-7.9 20,-13.1 31.3,-17"
   id="path124"
   inkscape:connector-curvature="0"
   style="fill:none;stroke:#794039;stroke-width:8.18690014;stroke-linecap:round;stroke-linejoin:round;stroke-miterlimit:10" />
	</g>
	<g
   id="g146">
		
			<path
   stroke-miterlimit="10"
   d="m 952.2,1458.4 c -11.2,1.9 -22.8,1.5 -33.9,-0.6 -13.2,-2.6 -18.2,-13.7 -29.2,-19.7 0.5,2.6 1,5.1 1.5,7.7 -3.4,-1.8 -6.7,-3.5 -10.1,-5.3 0.1,-4.2 -2.2,-8.3 -2.5,-12.8 -0.4,-6.2 -0.4,-12.6 -0.1,-18.8 0.3,-6.8 0.7,-13.5 1,-20.3 9.6,17.6 26.3,31.2 45.4,37 6.3,1.9 12.8,3.1 19.4,3.9 6.7,0.9 23.1,-1 27.9,4.1 2.6,2.8 2.7,17.7 0.2,18.8 -6.5,3 -13,4.9 -19.6,6 z"
   id="path128"
   inkscape:connector-curvature="0"
   style="fill:#323436;stroke:#794039;stroke-width:8.18690014;stroke-linecap:round;stroke-linejoin:round;stroke-miterlimit:10" />
		
			<path
   stroke-miterlimit="10"
   d="m 917.3,1272.6 c 1.2,-0.1 2.5,-0.1 3.7,-0.1 6.9,0.5 13.3,3.8 19.5,7 3.7,1.9 7.8,4.3 8.8,8.4 0.8,3.4 -0.9,6.9 -1.5,10.3 -0.6,3.4 0.6,8 4.1,8.4 1,0.1 2.2,-0.1 2.9,0.6 0.7,0.6 0.7,1.7 0.6,2.7 -0.9,9.7 -3.7,20.5 -2.9,30.2 0.7,7.5 3.6,15.3 5.2,22.8 4.2,19.7 9.7,39.1 16.3,58.1 1.3,3.9 2.8,8 1.7,11.9 -1.7,6.3 -8.8,9.2 -15.1,10.6 -18.2,3.9 -47.7,3.6 -61.5,-11.6 -18.7,-20.5 -23.6,-46.2 -26,-71.5 2.1,-16.1 -4.2,-35.1 -5.1,-51.4 -0.1,-1.4 -0.1,-3 0.8,-4.1 0.8,-1 2.2,-1.4 3.4,-1.8 9,-2.3 18,-4.2 27.1,-5.8 2.8,-4.8 1.7,-11 4.1,-16.1 2.5,-5.1 8.1,-8 13.9,-8.6 z"
   id="path130"
   inkscape:connector-curvature="0"
   style="fill:#58595b;stroke:#794039;stroke-width:8.18690014;stroke-linecap:round;stroke-linejoin:round;stroke-miterlimit:10" />
		
			<path
   stroke-miterlimit="10"
   d="m 941.1,1313.3 c -10.6,-3.6 -22.1,-4.3 -33.1,-2"
   id="path132"
   inkscape:connector-curvature="0"
   style="fill:none;stroke:#794039;stroke-width:8.18690014;stroke-linecap:round;stroke-linejoin:round;stroke-miterlimit:10" />
		
			<path
   stroke-miterlimit="10"
   d="m 941.2,1330 c -9.2,-2 -18.7,-2.8 -28,-2.1"
   id="path134"
   inkscape:connector-curvature="0"
   style="fill:none;stroke:#794039;stroke-width:8.18690014;stroke-linecap:round;stroke-linejoin:round;stroke-miterlimit:10" />
		
			<path
   stroke-miterlimit="10"
   d="m 942.4,1348.7 c -5.1,-1.1 -10.1,-2.3 -15.2,-3.4 -3.7,-0.8 -7.6,-1.7 -11.3,-0.7"
   id="path136"
   inkscape:connector-curvature="0"
   style="fill:none;stroke:#794039;stroke-width:8.18690014;stroke-linecap:round;stroke-linejoin:round;stroke-miterlimit:10" />
		
			<path
   stroke-miterlimit="10"
   d="m 947.1,1368.8 c -7.6,-1.7 -15.6,-1.8 -23.3,-0.4"
   id="path138"
   inkscape:connector-curvature="0"
   style="fill:none;stroke:#794039;stroke-width:8.18690014;stroke-linecap:round;stroke-linejoin:round;stroke-miterlimit:10" />
		
			<path
   stroke-miterlimit="10"
   d="m 952.6,1387.7 c -7.8,-1.6 -15.9,-2 -23.9,-1.1"
   id="path140"
   inkscape:connector-curvature="0"
   style="fill:none;stroke:#794039;stroke-width:8.18690014;stroke-linecap:round;stroke-linejoin:round;stroke-miterlimit:10" />
		
			<path
   stroke-miterlimit="10"
   d="m 956,1406.4 c -5.7,-1.6 -11.7,-1.6 -17.4,-0.2"
   id="path142"
   inkscape:connector-curvature="0"
   style="fill:none;stroke:#794039;stroke-width:8.18690014;stroke-linecap:round;stroke-linejoin:round;stroke-miterlimit:10" />
		
			<path
   stroke-miterlimit="10"
   d="m 921.1,1436.8 c 0,-12 -5.4,-23.5 -13.3,-32.4 -7.9,-9 -18.2,-15.5 -28.9,-20.9"
   id="path144"
   inkscape:connector-curvature="0"
   style="fill:none;stroke:#794039;stroke-width:8.18690014;stroke-linecap:round;stroke-linejoin:round;stroke-miterlimit:10" />
	</g>
	
		<path
   stroke-miterlimit="10"
   d="m 802.1,737.5 c -2.5,-1.7 -5.8,-1.4 -8.9,-1.1 -9.1,1.1 -18.1,2.1 -27.2,3.2 8.9,27.8 23,54.6 24.8,83.8 14.4,-7.4 28.8,-14.9 43.3,-22.3 -8.4,-20.2 -17.9,-39.9 -28.4,-59 -1,-1.7 -2,-3.5 -3.6,-4.6 z"
   id="path148"
   inkscape:connector-curvature="0"
   style="fill:#3c4834;stroke:#794039;stroke-width:8.18690014;stroke-linecap:round;stroke-linejoin:round;stroke-miterlimit:10" />
	
		<path
   stroke-miterlimit="10"
   d="m 891.9,827.2 c 1,-0.8 1.6,-2.1 2.1,-3.3 12.3,-28.9 20.9,-59.4 25.6,-90.5 -11.5,1.9 -22.9,3.8 -34.4,5.7 -3.9,25.3 -13.8,49.6 -28.7,70.3 9.2,3.9 17.9,9.1 25.7,15.3 2.9,2.3 6.9,4.7 9.7,2.5 z"
   id="path150"
   inkscape:connector-curvature="0"
   style="fill:#3c4834;stroke:#794039;stroke-width:8.18690014;stroke-linecap:round;stroke-linejoin:round;stroke-miterlimit:10" />
	
		<circle
   stroke-miterlimit="10"
   cx="976.90002"
   cy="480.60001"
   r="75.699997"
   id="circle152"
   style="fill:#1a1a1a;stroke:#794039;stroke-width:8.79740047;stroke-linecap:round;stroke-linejoin:round;stroke-miterlimit:10" />
	
		<path
   stroke-miterlimit="10"
   d="m 933.5,828 c -0.5,-0.5 -1.3,-0.5 -1.9,-0.5 -7,0.2 -14.1,0.3 -21.1,0.5 -0.4,4.3 -0.8,8.6 -1.2,12.8 8.3,1.7 16.7,2.8 25.2,3.5 0.7,-5 0.6,-10.1 -0.4,-15 -0.1,-0.4 -0.3,-0.9 -0.6,-1.3 z"
   id="path154"
   inkscape:connector-curvature="0"
   style="fill:#fbb03b;stroke:#794039;stroke-width:8.18690014;stroke-linecap:round;stroke-linejoin:round;stroke-miterlimit:10" />
	
		<path
   stroke-miterlimit="10"
   d="m 884.7,797 c -0.1,1.1 -0.6,2.1 -1.5,2.7"
   id="path156"
   inkscape:connector-curvature="0"
   style="fill:none;stroke:#ffffff;stroke-width:8.18690014;stroke-linecap:round;stroke-linejoin:round;stroke-miterlimit:10" />
	
		<path
   stroke-miterlimit="10"
   d="m 806.9,790.4 c -0.1,-0.1 -0.2,-0.3 -0.4,-0.4 0.4,1.1 0.8,2.2 1.2,3.4 0.3,0.8 0.7,1.7 1.6,1.8"
   id="path158"
   inkscape:connector-curvature="0"
   style="fill:none;stroke:#ffffff;stroke-width:8.18690014;stroke-linecap:round;stroke-linejoin:round;stroke-miterlimit:10" />
	
		<path
   stroke-miterlimit="10"
   d="M 1127.2,523.3 C 1056.4,512 967.4,504.1 855.6,499.3 732,494 635.9,494.9 561,501.7 c 1.3,-28.5 2.9,-55.9 5.7,-81.9 3.5,-32 8.8,-61.9 17.9,-88.7 29.5,-87.3 98.5,-142.1 270.9,-134.7 171.5,7.3 237.5,67.6 261,156.3 7.3,27.4 10.5,57.5 11.5,89.6 0.8,25.8 0.2,53 -0.8,81 z"
   id="path160"
   inkscape:connector-curvature="0"
   style="fill:#1a1a1a;stroke:#794039;stroke-width:9.69299984;stroke-linecap:round;stroke-linejoin:round;stroke-miterlimit:10" />
	
		<path
   stroke-miterlimit="10"
   d="m 1101.1,534.1 c -64.3,-10.2 -145,-17.5 -246.5,-21.8 -112.1,-4.8 -199.3,-4 -267.3,2.2 1.2,-25.8 2.6,-50.8 5.2,-74.4 3.1,-29.1 8,-56.2 16.2,-80.5 26.8,-79.2 89.4,-129 245.9,-122.3 155.7,6.7 215.6,61.3 236.9,141.9 6.6,24.9 9.5,52.2 10.4,81.3 0.7,23.6 0.1,48.2 -0.8,73.6 z"
   id="path162"
   inkscape:connector-curvature="0"
   style="fill:#1a1a1a;stroke:#794039;stroke-width:8.79740047;stroke-linecap:round;stroke-linejoin:round;stroke-miterlimit:10" />
	
		<path
   stroke-miterlimit="10"
   d="m 1093.6,476.3 c -62.4,4.3 -140.4,3.2 -237.9,-3.5 -107.7,-7.4 -191,-18.3 -255.5,-33.2 -8.4,183.9 -2.8,302.3 231.2,318.4 232.9,16 252.6,-99.7 262.2,-281.7 z"
   id="path164"
   inkscape:connector-curvature="0"
   style="opacity:0.22000002;fill:#ffffff;stroke:#794039;stroke-width:9.21570015;stroke-linecap:round;stroke-linejoin:round;stroke-miterlimit:10" />
	
		<path
   stroke-miterlimit="10"
   d="m 1102.1,461.2 c -0.1,13 -0.6,26.5 -1.1,40.5 -64.3,-10.2 -145,-17.5 -246.5,-21.8 -112.1,-4.8 -199.3,-4 -267.3,2.2 0.7,-14.1 1.4,-27.7 2.3,-40.9 68.1,-5.8 154.7,-6.4 265.1,-1.7 101.6,4.4 182.8,11.6 247.5,21.7 z"
   id="path166"
   inkscape:connector-curvature="0"
   style="fill:#1a1a1a;stroke:#794039;stroke-width:8.79740047;stroke-linecap:round;stroke-linejoin:round;stroke-miterlimit:10" />
	
		<path
   stroke-miterlimit="10"
   d="M 1101.8,460.6 C 1029.7,454.8 950.8,450 864.3,446.3 764,442 673.7,440 592.4,440.2 c 3.1,-29.1 8,-56.2 16.2,-80.5 77.3,0.2 162.4,2.2 256,6.2 82.1,3.5 157.6,8 226.8,13.3 6.6,24.9 9.5,52.3 10.4,81.4 z"
   id="path168"
   inkscape:connector-curvature="0"
   style="fill:#c69c6d;stroke:#794039;stroke-width:8.79740047;stroke-linecap:round;stroke-linejoin:round;stroke-miterlimit:10" />
	
		<circle
   stroke-miterlimit="10"
   cx="710"
   cy="399.60001"
   r="75.699997"
   id="circle170"
   style="fill:#1a1a1a;stroke:#794039;stroke-width:8.79740047;stroke-linecap:round;stroke-linejoin:round;stroke-miterlimit:10" />
	
		<circle
   stroke-miterlimit="10"
   cx="710"
   cy="399.60001"
   r="53"
   id="circle172"
   style="fill:#808080;stroke:#794039;stroke-width:8.79740047;stroke-linecap:round;stroke-linejoin:round;stroke-miterlimit:10" />
	
		<circle
   stroke-miterlimit="10"
   cx="964"
   cy="399.60001"
   r="75.699997"
   id="circle174"
   style="fill:#1a1a1a;stroke:#794039;stroke-width:8.79740047;stroke-linecap:round;stroke-linejoin:round;stroke-miterlimit:10" />
	
		<circle
   stroke-miterlimit="10"
   cx="964"
   cy="399.60001"
   r="53"
   id="circle176"
   style="fill:#808080;stroke:#794039;stroke-width:8.79740047;stroke-linecap:round;stroke-linejoin:round;stroke-miterlimit:10" />
	
		<path
   stroke-miterlimit="10"
   d="m 599.6,605.3 c 6.8,35.2 20.5,66.7 38,98.3 -17.4,-4.7 -34.8,-9.5 -52.2,-14.2 -1.9,-0.5 -3.8,-1 -5.4,-2.2 -2.5,-1.9 -3.5,-5 -4.5,-7.9 -11,-34.4 -19.9,-69.4 -31.3,-103.5 -6,-18 -10.4,-36.6 -13.3,-55.4 -1,-6.7 -1.8,-13.7 -0.5,-20.4 1,-5 3.1,-9.7 5.2,-14.3 9.9,-21.1 21.2,-41.6 32.1,-62.3 1.2,-2.2 2.4,-4.4 4.2,-6.1 7,-6.4 19.9,-2.3 26.3,-9.2 -6.9,7.5 -5.9,39.4 -7,49.6 -1.9,18.4 -3.1,36.8 -3.6,55.3 -0.8,33 5.8,60.3 12,92.3 z"
   id="path178"
   inkscape:connector-curvature="0"
   style="fill:#1a1a1a;stroke:#794039;stroke-width:8.79740047;stroke-linecap:round;stroke-linejoin:round;stroke-miterlimit:10" />
	
		<path
   stroke-miterlimit="10"
   d="m 1087.8,619.4 c -6.8,35.2 -20.5,66.7 -38,98.3 17.4,-4.7 34.8,-9.5 52.2,-14.2 1.9,-0.5 3.8,-1 5.4,-2.2 2.5,-1.9 3.5,-5 4.5,-7.9 11,-34.4 19.9,-69.4 31.3,-103.5 6,-18 10.4,-36.6 13.3,-55.4 1,-6.7 1.8,-13.7 0.5,-20.4 -1,-5 -3.1,-9.7 -5.2,-14.3 -9.9,-21.1 -21.2,-41.6 -32.1,-62.3 -1.2,-2.2 -2.4,-4.4 -4.2,-6.1 -7,-6.4 -19.9,-2.3 -26.3,-9.2 6.9,7.5 5.9,39.4 7,49.6 1.9,18.4 3.1,36.8 3.6,55.3 0.7,32.9 -5.8,60.3 -12,92.3 z"
   id="path180"
   inkscape:connector-curvature="0"
   style="fill:#1a1a1a;stroke:#794039;stroke-width:8.79740047;stroke-linecap:round;stroke-linejoin:round;stroke-miterlimit:10" />
	
		<path
   stroke-miterlimit="10"
   d="m 869.9,704.1 c 41.6,-0.8 83.3,-2.6 124.8,-5.2 10.9,-0.7 21.9,-1.5 32.5,-3.9 36,-8.2 66.7,-36.5 77.9,-71.7"
   id="path182"
   inkscape:connector-curvature="0"
   style="fill:none;stroke:#794039;stroke-width:8.79740047;stroke-linecap:round;stroke-linejoin:round;stroke-miterlimit:10" />
	
		<path
   stroke-miterlimit="10"
   d="m 863.4,722.8 h -30.3 c -10.7,0 -19.5,-8.7 -19.5,-19.5 v 0 c 0,-10.7 8.7,-19.5 19.5,-19.5 h 30.3 c 10.7,0 19.5,8.7 19.5,19.5 v 0 c 0,10.8 -8.7,19.5 -19.5,19.5 z"
   id="path184"
   inkscape:connector-curvature="0"
   style="fill:#1a1a1a;stroke:#794039;stroke-width:8.79740047;stroke-linecap:round;stroke-linejoin:round;stroke-miterlimit:10" />
	<g
   id="g198">
		
			<rect
   x="624.90002"
   y="842.40002"
   transform="matrix(0.9162,-0.4007,0.4007,0.9162,-302.4249,330.3027)"
   stroke-miterlimit="10"
   width="27.200001"
   height="91.5"
   id="rect186"
   style="fill:#b3b3b3;stroke:#794039;stroke-width:9.21570015;stroke-linecap:round;stroke-linejoin:round;stroke-miterlimit:10" />
		
			<rect
   x="581"
   y="714.5"
   transform="matrix(0.9162,-0.4007,0.4007,0.9162,-272.705,309.1535)"
   stroke-miterlimit="10"
   width="43.5"
   height="184.10001"
   id="rect188"
   style="fill:#e6e6e6;stroke:#794039;stroke-width:9.21570015;stroke-linecap:round;stroke-linejoin:round;stroke-miterlimit:10" />
		
			<rect
   x="432.70001"
   y="152"
   transform="matrix(0.9162,-0.4007,0.4007,0.9162,-141.2378,215.599)"
   stroke-miterlimit="10"
   width="24.200001"
   height="587"
   id="rect190"
   style="fill:#bdffff;stroke:#1fabff;stroke-width:12.26599979;stroke-linecap:round;stroke-linejoin:round;stroke-miterlimit:10" />
		
			<rect
   x="541"
   y="706.79999"
   transform="matrix(0.9162,-0.4007,0.4007,0.9162,-241.5229,286.9638)"
   stroke-miterlimit="10"
   width="48.599998"
   height="28.299999"
   id="rect192"
   style="fill:#999999;stroke:#794039;stroke-width:9.21570015;stroke-linecap:round;stroke-linejoin:round;stroke-miterlimit:10" />
		
			<rect
   x="540"
   y="721.09998"
   transform="matrix(0.9162,-0.4007,0.4007,0.9162,-246.7256,290.6662)"
   stroke-miterlimit="10"
   width="63.099998"
   height="28.299999"
   id="rect194"
   style="fill:#cccccc;stroke:#794039;stroke-width:9.21570015;stroke-linecap:round;stroke-linejoin:round;stroke-miterlimit:10" />
		
			<rect
   x="605.70001"
   y="871.20001"
   transform="matrix(0.9162,-0.4007,0.4007,0.9162,-301.4048,329.5768)"
   stroke-miterlimit="10"
   width="63.099998"
   height="28.299999"
   id="rect196"
   style="fill:#cccccc;stroke:#794039;stroke-width:9.21570015;stroke-linecap:round;stroke-linejoin:round;stroke-miterlimit:10" />
	</g>
	
		<path
   stroke-miterlimit="10"
   d="m 556,813 c -2.4,-5.8 -1.3,-12.5 1.6,-18.1 2.9,-5.6 7.4,-10 12,-14.3 9.7,-9.2 21,-17.6 32.3,-24.8 3.1,-2 7.4,-3.8 10.1,-1.3 3.7,3.4 -0.4,9.3 -0.3,14.3 10,9.6 18.5,20.6 25.3,32.7 10.9,19.3 -15.2,44.5 -30.3,53.9 -5.3,3.3 -11.5,6 -17.6,4.5"
   id="path200"
   inkscape:connector-curvature="0"
   style="fill:#333333;stroke:#794039;stroke-width:8.18690014;stroke-linecap:round;stroke-linejoin:round;stroke-miterlimit:10" />
</g>
</svg>