<?xml version="1.0" encoding="UTF-8" standalone="no"?>
<!-- Created with Inkscape (http://www.inkscape.org/) -->

<svg
   xmlns:dc="http://purl.org/dc/elements/1.1/"
   xmlns:cc="http://creativecommons.org/ns#"
   xmlns:rdf="http://www.w3.org/1999/02/22-rdf-syntax-ns#"
   xmlns:svg="http://www.w3.org/2000/svg"
   xmlns="http://www.w3.org/2000/svg"
   xmlns:sodipodi="http://sodipodi.sourceforge.net/DTD/sodipodi-0.dtd"
   xmlns:inkscape="http://www.inkscape.org/namespaces/inkscape"
   version="1.1"
   id="svg2"
   xml:space="preserve"
   width="2133.3333"
   height="2133.3333"
   viewBox="0 0 2133.3333 2133.3333"
   sodipodi:docname="warrior-bg.svg"
   inkscape:version="0.92.4 (unknown)"><metadata
     id="metadata8"><rdf:RDF><cc:Work
         rdf:about=""><dc:format>image/svg+xml</dc:format><dc:type
           rdf:resource="http://purl.org/dc/dcmitype/StillImage" /></cc:Work></rdf:RDF></metadata><defs
     id="defs6"><clipPath
       clipPathUnits="userSpaceOnUse"
       id="clipPath20"><path
         d="M 0,1600 H 1600 V 0 H 0 Z"
         id="path18"
         inkscape:connector-curvature="0" /></clipPath></defs><sodipodi:namedview
     pagecolor="#ffffff"
     bordercolor="#666666"
     borderopacity="1"
     objecttolerance="10"
     gridtolerance="10"
     guidetolerance="10"
     inkscape:pageopacity="0"
     inkscape:pageshadow="2"
     inkscape:window-width="1920"
     inkscape:window-height="1016"
     id="namedview4"
     showgrid="false"
     inkscape:zoom="0.22125001"
     inkscape:cx="1415.8966"
     inkscape:cy="797.4236"
     inkscape:window-x="0"
     inkscape:window-y="27"
     inkscape:window-maximized="1"
     inkscape:current-layer="g10" /><g
     id="g10"
     inkscape:groupmode="layer"
     inkscape:label="4 war CHARACTERS"
     transform="matrix(1.3333333,0,0,-1.3333333,0,2133.3333)"><path
       d="M -1.0517579e-5,259.00002 H 1600 V 1600 H -1.0517579e-5 Z"
       style="fill:#e8ebe3;fill-opacity:1;fill-rule:nonzero;stroke:none"
       id="path12"
       inkscape:connector-curvature="0" /><path
       d="M -34,259 H 1626 V 1619 H -34 Z"
       style="fill:none;stroke:#794039;stroke-width:7;stroke-linecap:round;stroke-linejoin:round;stroke-miterlimit:10;stroke-dasharray:none;stroke-opacity:1"
       id="path22"
       inkscape:connector-curvature="0" /><g
       id="g24"
       transform="translate(1471.1813,1572.2726)"><path
         d="m 0,0 c 0.305,1.677 0.488,3.397 0.488,5.162 0,15.871 -12.866,28.736 -28.736,28.736 -4.21,0 -8.197,-0.926 -11.799,-2.553 -4.368,21.016 -22.984,36.81 -45.296,36.81 -21.436,0 -39.416,-14.599 -44.671,-34.382 -6.156,4.073 -13.526,6.457 -21.46,6.457 -21.188,0 -38.389,-16.921 -38.915,-37.982 -11.103,-5.079 -18.882,-16.279 -18.882,-29.232 0,-17.68 14.466,-32.146 32.146,-32.146 H -17.37 c 17.68,0 32.146,14.466 32.146,32.146 C 14.776,-15.696 8.865,-5.739 0,0"
         style="fill:#ffffff;fill-opacity:1;fill-rule:nonzero;stroke:none"
         id="path26"
         inkscape:connector-curvature="0" /></g><g
       id="g28"
       transform="translate(1471.1813,1572.2726)"><path
         d="m 0,0 c 0.305,1.677 0.488,3.397 0.488,5.162 0,15.871 -12.866,28.736 -28.736,28.736 -4.21,0 -8.197,-0.926 -11.799,-2.553 -4.368,21.016 -22.984,36.81 -45.296,36.81 -21.436,0 -39.416,-14.599 -44.671,-34.382 -6.156,4.073 -13.526,6.457 -21.46,6.457 -21.188,0 -38.389,-16.921 -38.915,-37.982 -11.103,-5.079 -18.882,-16.279 -18.882,-29.232 0,-17.68 14.466,-32.146 32.146,-32.146 H -17.37 c 17.68,0 32.146,14.466 32.146,32.146 C 14.776,-15.696 8.865,-5.739 0,0 Z"
         style="fill:none;stroke:#794039;stroke-width:6;stroke-linecap:butt;stroke-linejoin:miter;stroke-miterlimit:10;stroke-dasharray:none;stroke-opacity:1"
         id="path30"
         inkscape:connector-curvature="0" /></g><g
       id="g32"
       transform="translate(871.5533,1434.0482)"><path
         d="m 0,0 c 0.305,1.677 0.488,3.397 0.488,5.162 0,15.871 -12.866,28.736 -28.736,28.736 -4.21,0 -8.197,-0.926 -11.799,-2.553 -4.368,21.016 -22.984,36.81 -45.296,36.81 -21.436,0 -39.416,-14.599 -44.671,-34.382 -6.156,4.073 -13.526,6.457 -21.46,6.457 -21.188,0 -38.389,-16.921 -38.915,-37.982 -11.103,-5.079 -18.882,-16.279 -18.882,-29.232 0,-17.68 14.466,-32.146 32.146,-32.146 H -17.37 c 17.68,0 32.145,14.466 32.145,32.146 C 14.775,-15.696 8.865,-5.739 0,0"
         style="fill:#ffffff;fill-opacity:1;fill-rule:nonzero;stroke:none"
         id="path34"
         inkscape:connector-curvature="0" /></g><g
       id="g36"
       transform="translate(871.5533,1434.0482)"><path
         d="m 0,0 c 0.305,1.677 0.488,3.397 0.488,5.162 0,15.871 -12.866,28.736 -28.736,28.736 -4.21,0 -8.197,-0.926 -11.799,-2.553 -4.368,21.016 -22.984,36.81 -45.296,36.81 -21.436,0 -39.416,-14.599 -44.671,-34.382 -6.156,4.073 -13.526,6.457 -21.46,6.457 -21.188,0 -38.389,-16.921 -38.915,-37.982 -11.103,-5.079 -18.882,-16.279 -18.882,-29.232 0,-17.68 14.466,-32.146 32.146,-32.146 H -17.37 c 17.68,0 32.145,14.466 32.145,32.146 C 14.775,-15.696 8.865,-5.739 0,0 Z"
         style="fill:none;stroke:#794039;stroke-width:6;stroke-linecap:butt;stroke-linejoin:miter;stroke-miterlimit:10;stroke-dasharray:none;stroke-opacity:1"
         id="path38"
         inkscape:connector-curvature="0" /></g><g
       id="g40"
       transform="translate(640.0982,828.1982)"><path
         d="m 0,0 c 0.305,1.677 0.488,3.397 0.488,5.162 0,15.871 -12.866,28.736 -28.736,28.736 -4.21,0 -8.197,-0.926 -11.799,-2.553 -4.368,21.016 -22.984,36.81 -45.296,36.81 -21.436,0 -39.416,-14.599 -44.671,-34.382 -6.156,4.073 -13.526,6.457 -21.46,6.457 -21.188,0 -38.389,-16.921 -38.915,-37.982 -11.103,-5.079 -18.882,-16.279 -18.882,-29.232 0,-17.68 14.466,-32.146 32.146,-32.146 H -17.37 c 17.68,0 32.145,14.466 32.145,32.146 C 14.775,-15.696 8.865,-5.739 0,0"
         style="fill:#ffffff;fill-opacity:1;fill-rule:nonzero;stroke:none"
         id="path42"
         inkscape:connector-curvature="0" /></g><g
       id="g44"
       transform="translate(640.0982,828.1982)"><path
         d="m 0,0 c 0.305,1.677 0.488,3.397 0.488,5.162 0,15.871 -12.866,28.736 -28.736,28.736 -4.21,0 -8.197,-0.926 -11.799,-2.553 -4.368,21.016 -22.984,36.81 -45.296,36.81 -21.436,0 -39.416,-14.599 -44.671,-34.382 -6.156,4.073 -13.526,6.457 -21.46,6.457 -21.188,0 -38.389,-16.921 -38.915,-37.982 -11.103,-5.079 -18.882,-16.279 -18.882,-29.232 0,-17.68 14.466,-32.146 32.146,-32.146 H -17.37 c 17.68,0 32.145,14.466 32.145,32.146 C 14.775,-15.696 8.865,-5.739 0,0 Z"
         style="fill:none;stroke:#794039;stroke-width:6;stroke-linecap:butt;stroke-linejoin:miter;stroke-miterlimit:10;stroke-dasharray:none;stroke-opacity:1"
         id="path46"
         inkscape:connector-curvature="0" /></g><g
       id="g48"
       transform="translate(190.5807,1273.172)"><path
         d="m 0,0 h -7.193 c -1.183,17.244 -15.833,30.884 -33.779,30.884 -4.048,0 -7.912,-0.73 -11.511,-2.001 0.031,0.668 0.103,1.325 0.103,2.001 0,24.195 -20.071,43.809 -44.83,43.809 -6.65,0 -12.94,-1.453 -18.616,-3.992 -11.049,10.495 -26.105,16.983 -42.731,16.983 -24.736,0 -45.998,-14.337 -55.703,-34.946 -1.854,0.217 -3.73,0.36 -5.643,0.36 -26.063,0 -47.19,-20.646 -47.19,-46.114 0,-2.775 0.294,-5.478 0.775,-8.118 -11.323,-3.355 -19.651,-13.864 -19.651,-26.238 0,-15.054 12.317,-27.371 27.371,-27.371 H 0 c 15.054,0 27.371,12.317 27.371,27.371 C 27.371,-12.318 15.054,0 0,0"
         style="fill:#ffffff;fill-opacity:1;fill-rule:nonzero;stroke:none"
         id="path50"
         inkscape:connector-curvature="0" /></g><g
       id="g52"
       transform="translate(190.5807,1273.172)"><path
         d="m 0,0 h -7.193 c -1.183,17.244 -15.833,30.884 -33.779,30.884 -4.048,0 -7.912,-0.73 -11.511,-2.001 0.031,0.668 0.103,1.325 0.103,2.001 0,24.195 -20.071,43.809 -44.83,43.809 -6.65,0 -12.94,-1.453 -18.616,-3.992 -11.049,10.495 -26.105,16.983 -42.731,16.983 -24.736,0 -45.998,-14.337 -55.703,-34.946 -1.854,0.217 -3.73,0.36 -5.643,0.36 -26.063,0 -47.19,-20.646 -47.19,-46.114 0,-2.775 0.294,-5.478 0.775,-8.118 -11.323,-3.355 -19.651,-13.864 -19.651,-26.238 0,-15.054 12.317,-27.371 27.371,-27.371 H 0 c 15.054,0 27.371,12.317 27.371,27.371 C 27.371,-12.318 15.054,0 0,0 Z"
         style="fill:none;stroke:#794039;stroke-width:6;stroke-linecap:butt;stroke-linejoin:miter;stroke-miterlimit:10;stroke-dasharray:none;stroke-opacity:1"
         id="path54"
         inkscape:connector-curvature="0" /></g><g
       id="g56"
       transform="translate(1771.7389,1192.1638)"><path
         d="m 0,0 h -7.193 c -1.183,17.244 -15.833,30.884 -33.779,30.884 -4.048,0 -7.912,-0.73 -11.511,-2.001 0.031,0.668 0.103,1.325 0.103,2.001 0,24.195 -20.071,43.809 -44.83,43.809 -6.65,0 -12.94,-1.453 -18.616,-3.992 -11.049,10.495 -26.105,16.983 -42.731,16.983 -24.736,0 -45.998,-14.337 -55.703,-34.946 -1.854,0.217 -3.73,0.361 -5.643,0.361 -26.063,0 -47.19,-20.647 -47.19,-46.115 0,-2.775 0.294,-5.478 0.775,-8.118 -11.323,-3.355 -19.651,-13.864 -19.651,-26.238 0,-15.054 12.317,-27.371 27.371,-27.371 H 0 c 15.054,0 27.371,12.317 27.371,27.371 C 27.371,-12.318 15.054,0 0,0"
         style="fill:#ffffff;fill-opacity:1;fill-rule:nonzero;stroke:none"
         id="path58"
         inkscape:connector-curvature="0" /></g><g
       id="g60"
       transform="translate(1771.7389,1192.1638)"><path
         d="m 0,0 h -7.193 c -1.183,17.244 -15.833,30.884 -33.779,30.884 -4.048,0 -7.912,-0.73 -11.511,-2.001 0.031,0.668 0.103,1.325 0.103,2.001 0,24.195 -20.071,43.809 -44.83,43.809 -6.65,0 -12.94,-1.453 -18.616,-3.992 -11.049,10.495 -26.105,16.983 -42.731,16.983 -24.736,0 -45.998,-14.337 -55.703,-34.946 -1.854,0.217 -3.73,0.361 -5.643,0.361 -26.063,0 -47.19,-20.647 -47.19,-46.115 0,-2.775 0.294,-5.478 0.775,-8.118 -11.323,-3.355 -19.651,-13.864 -19.651,-26.238 0,-15.054 12.317,-27.371 27.371,-27.371 H 0 c 15.054,0 27.371,12.317 27.371,27.371 C 27.371,-12.318 15.054,0 0,0 Z"
         style="fill:none;stroke:#794039;stroke-width:6;stroke-linecap:butt;stroke-linejoin:miter;stroke-miterlimit:10;stroke-dasharray:none;stroke-opacity:1"
         id="path62"
         inkscape:connector-curvature="0" /></g><path
       d="M -34,259 H 1626 V -37 H -34 Z"
       style="fill:#cccccc;fill-opacity:1;fill-rule:nonzero;stroke:#794039;stroke-width:7;stroke-linecap:round;stroke-linejoin:round;stroke-miterlimit:10;stroke-dasharray:none;stroke-opacity:1"
       id="path64"
       inkscape:connector-curvature="0" /><g
       id="g66"
       transform="translate(1451.8735,262.4395)"><path
         d="m 0,0 c -0.75,-0.038 -1.503,-0.058 -2.253,-0.099 -1.559,-0.074 -3.142,-0.151 -4.724,-0.23 -1.183,-0.048 -2.369,-0.114 -3.574,-0.162 -2.214,-0.1 -4.427,-0.2 -6.664,-0.299 -2.308,-0.078 -4.62,-0.176 -6.952,-0.269 -3.514,-0.145 -7.071,-0.267 -10.649,-0.411 -2.529,-0.07 -5.059,-0.164 -7.609,-0.255 -4.504,-0.137 -9.044,-0.273 -13.627,-0.392 -3.021,-0.096 -6.062,-0.175 -9.106,-0.231 l -0.001,-0.022 c -5.431,-0.113 -10.925,-0.241 -16.451,-0.357 -3.892,-0.052 -7.82,-0.129 -11.747,-0.18 -6.242,-0.091 -12.52,-0.165 -18.876,-0.214 -4.05,-0.052 -8.136,-0.081 -12.265,-0.113 -7.104,-0.03 -14.287,-0.039 -21.533,-0.025 -4.283,-0.006 -8.609,0.011 -12.95,0.028 -8.01,0.031 -16.102,0.106 -24.269,0.202 -4.404,0.037 -8.801,0.095 -13.244,0.173 -7.75,0.103 -15.583,0.252 -23.435,0.419 -4.086,0.09 -8.168,0.197 -12.269,0.305 -2.012,0.032 -4.027,0.085 -6.038,0.138 -5.464,0.143 -10.887,0.308 -16.31,0.469 -3.927,0.125 -7.835,0.246 -11.717,0.388 -6.211,0.203 -12.386,0.423 -18.536,0.664 -3.546,0.133 -7.081,0.266 -10.611,0.421 -5.279,0.214 -10.542,0.456 -15.789,0.691 -3.426,0.169 -6.841,0.321 -10.232,0.485 -4.277,0.214 -8.515,0.444 -12.732,0.653 -2.287,0.117 -4.573,0.257 -6.864,0.378 -3.564,0.191 -7.133,0.383 -10.681,0.597 -1.436,0.077 -2.891,0.177 -4.336,0.255 -2.326,0.136 -4.628,0.276 -6.934,0.416 -1.34,0.097 -2.661,0.171 -3.982,0.264 -0.966,0.043 -1.931,0.108 -2.876,0.172 -0.455,0.034 -0.925,0.064 -1.38,0.098 -0.907,24.066 2.817,46.313 3.588,68.675 0.454,12.877 1.684,25.713 2.831,38.574 41.067,0.418 84.543,0.081 129.514,-1.104 84.617,-2.229 163.798,-7.157 231.541,-13.914 0.521,-2.066 0.77,-4.483 0.776,-7.266 C -2.92,61.507 -1.055,34.095 0.018,6.693 0.107,4.674 0.07,2.645 0,0"
         style="fill:#674c2f;fill-opacity:1;fill-rule:nonzero;stroke:none"
         id="path68"
         inkscape:connector-curvature="0" /></g><g
       id="g70"
       transform="translate(1451.8735,262.4395)"><path
         d="m 0,0 c -0.75,-0.038 -1.503,-0.058 -2.253,-0.099 -1.559,-0.074 -3.142,-0.151 -4.724,-0.23 -1.183,-0.048 -2.369,-0.114 -3.574,-0.162 -2.214,-0.1 -4.427,-0.2 -6.664,-0.299 -2.308,-0.078 -4.62,-0.176 -6.952,-0.269 -3.514,-0.145 -7.071,-0.267 -10.649,-0.411 -2.529,-0.07 -5.059,-0.164 -7.609,-0.255 -4.504,-0.137 -9.044,-0.273 -13.627,-0.392 -3.021,-0.096 -6.062,-0.175 -9.106,-0.231 l -0.001,-0.022 c -5.431,-0.113 -10.925,-0.241 -16.451,-0.357 -3.892,-0.052 -7.82,-0.129 -11.747,-0.18 -6.242,-0.091 -12.52,-0.165 -18.876,-0.214 -4.05,-0.052 -8.136,-0.081 -12.265,-0.113 -7.104,-0.03 -14.287,-0.039 -21.533,-0.025 -4.283,-0.006 -8.609,0.011 -12.95,0.028 -8.01,0.031 -16.102,0.106 -24.269,0.202 -4.404,0.037 -8.801,0.095 -13.244,0.173 -7.75,0.103 -15.583,0.252 -23.435,0.419 -4.086,0.09 -8.168,0.197 -12.269,0.305 -2.012,0.032 -4.027,0.085 -6.038,0.138 -5.464,0.143 -10.887,0.308 -16.31,0.469 -3.927,0.125 -7.835,0.246 -11.717,0.388 -6.211,0.203 -12.386,0.423 -18.536,0.664 -3.546,0.133 -7.081,0.266 -10.611,0.421 -5.279,0.214 -10.542,0.456 -15.789,0.691 -3.426,0.169 -6.841,0.321 -10.232,0.485 -4.277,0.214 -8.515,0.444 -12.732,0.653 -2.287,0.117 -4.573,0.257 -6.864,0.378 -3.564,0.191 -7.133,0.383 -10.681,0.597 -1.436,0.077 -2.891,0.177 -4.336,0.255 -2.326,0.136 -4.628,0.276 -6.934,0.416 -1.34,0.097 -2.661,0.171 -3.982,0.264 -0.966,0.043 -1.931,0.108 -2.876,0.172 -0.455,0.034 -0.925,0.064 -1.38,0.098 -0.907,24.066 2.817,46.313 3.588,68.675 0.454,12.877 1.684,25.713 2.831,38.574 41.067,0.418 84.543,0.081 129.514,-1.104 84.617,-2.229 163.798,-7.157 231.541,-13.914 0.521,-2.066 0.77,-4.483 0.776,-7.266 C -2.92,61.507 -1.055,34.095 0.018,6.693 0.107,4.674 0.07,2.645 0,0 Z"
         style="fill:none;stroke:#794039;stroke-width:6;stroke-linecap:round;stroke-linejoin:round;stroke-miterlimit:10;stroke-dasharray:none;stroke-opacity:1"
         id="path72"
         inkscape:connector-curvature="0" /></g><g
       id="g74"
       transform="translate(1451.8735,262.4395)"><path
         d="M 0,0 C -0.75,-0.038 -1.503,-0.058 -2.253,-0.099 -4.729,7.723 -4.209,14.678 -5.371,21.557 -9.999,15.205 -5.814,7.734 -6.977,-0.329 c -1.183,-0.048 -2.369,-0.114 -3.574,-0.162 -0.811,8.946 0.178,17.287 -4.072,24.566 -3.534,-5.262 -3.414,-5.243 -3.01,-20.746 0.024,-1.189 0.34,-2.715 0.418,-4.119 -2.308,-0.078 -4.62,-0.176 -6.952,-0.269 0.075,1.341 0.39,2.793 0.38,3.918 -0.104,5.825 -0.524,11.541 -1.955,17.204 -0.679,2.663 -1.642,5.212 -4.586,5.034 -2.924,-0.157 -3.964,-2.937 -4.072,-5.515 -0.26,-6.865 -0.262,-13.736 -0.404,-20.62 l -0.012,-0.432 c -2.529,-0.07 -5.059,-0.164 -7.609,-0.255 -0.013,0.101 -0.035,0.177 -0.032,0.278 -0.359,5.774 -0.702,11.546 -0.803,17.33 -0.096,4.644 -0.834,9.559 -6.287,9.486 -5.074,-0.088 -6.696,-4.802 -6.739,-9.455 -0.048,-5.429 0.145,-10.861 0.256,-16.292 0.009,-0.591 0.009,-1.187 -0.022,-1.739 -3.021,-0.096 -6.062,-0.175 -9.106,-0.231 -0.062,0.649 -0.06,1.342 -0.08,2.072 -0.081,6.123 0.874,12.298 -0.924,18.341 -1.266,4.257 -2.22,8.648 -8.235,8.016 -5.443,-0.568 -7.384,-4.621 -7.755,-8.953 -0.459,-5.358 0.206,-10.821 0.579,-16.223 0.083,-1.324 0.126,-2.569 -0.037,-3.632 -3.892,-0.052 -7.82,-0.129 -11.747,-0.18 -0.214,0.911 -0.265,1.998 -0.15,3.318 0.395,5.399 0.46,10.865 0.155,16.279 -0.332,5.615 -2.987,9.634 -9.212,10.036 -6.621,0.448 -9.13,-4.123 -9.704,-9.359 -0.606,-5.709 0.032,-11.57 0.292,-17.339 0.068,-1.206 0.004,-2.268 -0.257,-3.149 -4.05,-0.052 -8.136,-0.081 -12.265,-0.113 -0.217,0.636 -0.375,1.413 -0.389,2.38 -0.144,5.788 -0.88,11.572 -0.783,17.349 0.126,7.182 -3.261,11.239 -10.172,11.046 -6.994,-0.21 -9.955,-4.769 -9.587,-11.73 0.222,-4.326 -0.031,-8.683 -0.126,-13.023 -0.041,-2.187 0.257,-4.406 -0.476,-6.047 -4.283,-0.006 -8.609,0.011 -12.95,0.028 -1.063,1.449 -1.384,3.567 -1.229,6.427 0.261,4.67 -0.383,9.406 -0.219,14.096 0.232,7.474 -4.295,10.81 -10.632,10.92 -6.45,0.112 -10.719,-3.86 -11.153,-10.72 -0.306,-4.687 -0.327,-9.405 -0.217,-14.109 0.07,-2.586 0.126,-4.838 -0.819,-6.412 -4.404,0.037 -8.801,0.095 -13.244,0.173 -1.143,1.549 -1.322,3.804 -1.084,6.799 0.38,4.667 -0.066,9.397 0.157,14.108 0.284,6.25 -2.989,9.531 -8.691,10.397 -6.074,0.905 -10.873,-1.55 -12.122,-7.775 -1.065,-5.245 -0.795,-10.755 -1.158,-16.138 -0.164,-2.442 0.38,-5.103 -0.537,-6.972 -4.086,0.09 -8.168,0.197 -12.269,0.305 -0.855,1.974 -0.271,4.766 -0.262,7.368 0.02,4.342 0.408,8.713 0.011,13.026 -0.556,5.995 -3.468,10.198 -10.148,10.471 -6.921,0.302 -9.575,-3.715 -10.053,-9.996 -0.42,-5.399 -1.315,-10.803 -1.338,-16.208 -0.024,-1.642 -0.158,-2.997 -0.558,-4.054 -3.927,0.125 -7.835,0.246 -11.717,0.388 -0.32,1.23 -0.22,2.769 -0.014,4.598 0.71,6.041 1.916,12.13 0.105,18.277 -1.27,4.278 -3.27,7.015 -8.125,7.101 -4.712,0.085 -7.143,-2.26 -8.775,-6.458 -2.457,-6.351 -0.989,-12.885 -1.455,-19.307 -0.093,-1.261 -0.085,-2.484 -0.272,-3.547 -3.546,0.133 -7.081,0.266 -10.611,0.421 -0.111,0.868 -0.105,1.856 -0.057,2.923 0.202,5.422 0.167,10.871 0.231,16.297 0.063,5.228 -1.318,9.826 -7.546,9.515 -5.689,-0.284 -7.618,-4.497 -7.679,-9.808 -0.048,-5.426 -0.207,-10.867 -0.469,-16.29 -0.042,-0.708 -0.115,-1.36 -0.269,-1.946 -3.426,0.169 -6.841,0.321 -10.232,0.485 -0.045,0.574 -0.069,1.167 -0.052,1.781 0.131,6.509 0.366,13.016 0.395,19.511 0.025,3.058 -1.008,5.945 -4.426,6.45 -4.289,0.647 -5.788,-2.986 -6.298,-5.973 -1.165,-6.756 -1.501,-13.659 -2.294,-20.464 -0.03,-0.221 -0.051,-0.437 -0.057,-0.652 -2.287,0.117 -4.573,0.257 -6.864,0.378 -0.008,0.298 0,0.593 0.007,0.888 0.043,6.138 0.047,12.298 0.209,18.45 0.101,3.056 -0.237,6.797 -3.246,7.15 -3.835,0.459 -5.162,-3.434 -5.328,-6.726 -0.329,-6.486 -0.283,-13.019 -2.323,-19.165 -1.436,0.077 -2.891,0.177 -4.336,0.255 0.092,7.97 0.19,16.198 0.309,26.597 -8.341,-8.623 -6.23,-17.66 -7.243,-26.181 -1.34,0.097 -2.661,0.171 -3.982,0.264 -0.591,2.994 0.573,5.987 1.124,8.833 0.888,4.556 1.855,9.071 0.219,14.326 -5.724,-6.719 -2.598,-14.698 -4.219,-22.987 -0.455,0.034 -0.925,0.064 -1.38,0.098 -0.907,24.066 2.817,46.313 3.588,68.675 0.454,12.877 1.684,25.713 2.831,38.574 0.477,5.495 0.943,10.985 1.321,16.482 1.205,17.321 2.296,34.645 2.93,51.975 0.43,11.811 8.96,15.576 17.749,18.956 14.417,5.541 29.664,8.16 44.823,10.308 42.974,6.055 86.236,6.747 129.578,5.865 7.421,-0.156 11.825,-2.306 14.271,-9.771 2.929,-8.825 7.525,-17.098 10.725,-25.848 3.723,-10.102 8.526,-18.794 19.875,-21.878 8.41,-2.274 8.284,-10.069 10.01,-16.43 5.17,-18.788 5.044,-19.064 24.247,-21.486 23.823,-2.992 47.579,-6.243 71.097,-11.341 8.24,-1.798 12.749,-5.116 14.429,-11.85 0.521,-2.066 0.77,-4.483 0.776,-7.266 C -2.92,61.507 -1.055,34.095 0.018,6.693 0.107,4.674 0.07,2.645 0,0"
         style="fill:#c7b299;fill-opacity:1;fill-rule:nonzero;stroke:none"
         id="path76"
         inkscape:connector-curvature="0" /></g><g
       id="g78"
       transform="translate(1451.8735,262.4395)"><path
         d="M 0,0 C -0.75,-0.038 -1.503,-0.058 -2.253,-0.099 -4.729,7.723 -4.209,14.678 -5.371,21.557 -9.999,15.205 -5.814,7.734 -6.977,-0.329 c -1.183,-0.048 -2.369,-0.114 -3.574,-0.162 -0.811,8.946 0.178,17.287 -4.072,24.566 -3.534,-5.262 -3.414,-5.243 -3.01,-20.746 0.024,-1.189 0.34,-2.715 0.418,-4.119 -2.308,-0.078 -4.62,-0.176 -6.952,-0.269 0.075,1.341 0.39,2.793 0.38,3.918 -0.104,5.825 -0.524,11.541 -1.955,17.204 -0.679,2.663 -1.642,5.212 -4.586,5.034 -2.924,-0.157 -3.964,-2.937 -4.072,-5.515 -0.26,-6.865 -0.262,-13.736 -0.404,-20.62 l -0.012,-0.432 c -2.529,-0.07 -5.059,-0.164 -7.609,-0.255 -0.013,0.101 -0.035,0.177 -0.032,0.278 -0.359,5.774 -0.702,11.546 -0.803,17.33 -0.096,4.644 -0.834,9.559 -6.287,9.486 -5.074,-0.088 -6.696,-4.802 -6.739,-9.455 -0.048,-5.429 0.145,-10.861 0.256,-16.292 0.009,-0.591 0.009,-1.187 -0.022,-1.739 -3.021,-0.096 -6.062,-0.175 -9.106,-0.231 -0.062,0.649 -0.06,1.342 -0.08,2.072 -0.081,6.123 0.874,12.298 -0.924,18.341 -1.266,4.257 -2.22,8.648 -8.235,8.016 -5.443,-0.568 -7.384,-4.621 -7.755,-8.953 -0.459,-5.358 0.206,-10.821 0.579,-16.223 0.083,-1.324 0.126,-2.569 -0.037,-3.632 -3.892,-0.052 -7.82,-0.129 -11.747,-0.18 -0.214,0.911 -0.265,1.998 -0.15,3.318 0.395,5.399 0.46,10.865 0.155,16.279 -0.332,5.615 -2.987,9.634 -9.212,10.036 -6.621,0.448 -9.13,-4.123 -9.704,-9.359 -0.606,-5.709 0.032,-11.57 0.292,-17.339 0.068,-1.206 0.004,-2.268 -0.257,-3.149 -4.05,-0.052 -8.136,-0.081 -12.265,-0.113 -0.217,0.636 -0.375,1.413 -0.389,2.38 -0.144,5.788 -0.88,11.572 -0.783,17.349 0.126,7.182 -3.261,11.239 -10.172,11.046 -6.994,-0.21 -9.955,-4.769 -9.587,-11.73 0.222,-4.326 -0.031,-8.683 -0.126,-13.023 -0.041,-2.187 0.257,-4.406 -0.476,-6.047 -4.283,-0.006 -8.609,0.011 -12.95,0.028 -1.063,1.449 -1.384,3.567 -1.229,6.427 0.261,4.67 -0.383,9.406 -0.219,14.096 0.232,7.474 -4.295,10.81 -10.632,10.92 -6.45,0.112 -10.719,-3.86 -11.153,-10.72 -0.306,-4.687 -0.327,-9.405 -0.217,-14.109 0.07,-2.586 0.126,-4.838 -0.819,-6.412 -4.404,0.037 -8.801,0.095 -13.244,0.173 -1.143,1.549 -1.322,3.804 -1.084,6.799 0.38,4.667 -0.066,9.397 0.157,14.108 0.284,6.25 -2.989,9.531 -8.691,10.397 -6.074,0.905 -10.873,-1.55 -12.122,-7.775 -1.065,-5.245 -0.795,-10.755 -1.158,-16.138 -0.164,-2.442 0.38,-5.103 -0.537,-6.972 -4.086,0.09 -8.168,0.197 -12.269,0.305 -0.855,1.974 -0.271,4.766 -0.262,7.368 0.02,4.342 0.408,8.713 0.011,13.026 -0.556,5.995 -3.468,10.198 -10.148,10.471 -6.921,0.302 -9.575,-3.715 -10.053,-9.996 -0.42,-5.399 -1.315,-10.803 -1.338,-16.208 -0.024,-1.642 -0.158,-2.997 -0.558,-4.054 -3.927,0.125 -7.835,0.246 -11.717,0.388 -0.32,1.23 -0.22,2.769 -0.014,4.598 0.71,6.041 1.916,12.13 0.105,18.277 -1.27,4.278 -3.27,7.015 -8.125,7.101 -4.712,0.085 -7.143,-2.26 -8.775,-6.458 -2.457,-6.351 -0.989,-12.885 -1.455,-19.307 -0.093,-1.261 -0.085,-2.484 -0.272,-3.547 -3.546,0.133 -7.081,0.266 -10.611,0.421 -0.111,0.868 -0.105,1.856 -0.057,2.923 0.202,5.422 0.167,10.871 0.231,16.297 0.063,5.228 -1.318,9.826 -7.546,9.515 -5.689,-0.284 -7.618,-4.497 -7.679,-9.808 -0.048,-5.426 -0.207,-10.867 -0.469,-16.29 -0.042,-0.708 -0.115,-1.36 -0.269,-1.946 -3.426,0.169 -6.841,0.321 -10.232,0.485 -0.045,0.574 -0.069,1.167 -0.052,1.781 0.131,6.509 0.366,13.016 0.395,19.511 0.025,3.058 -1.008,5.945 -4.426,6.45 -4.289,0.647 -5.788,-2.986 -6.298,-5.973 -1.165,-6.756 -1.501,-13.659 -2.294,-20.464 -0.03,-0.221 -0.051,-0.437 -0.057,-0.652 -2.287,0.117 -4.573,0.257 -6.864,0.378 -0.008,0.298 0,0.593 0.007,0.888 0.043,6.138 0.047,12.298 0.209,18.45 0.101,3.056 -0.237,6.797 -3.246,7.15 -3.835,0.459 -5.162,-3.434 -5.328,-6.726 -0.329,-6.486 -0.283,-13.019 -2.323,-19.165 -1.436,0.077 -2.891,0.177 -4.336,0.255 0.092,7.97 0.19,16.198 0.309,26.597 -8.341,-8.623 -6.23,-17.66 -7.243,-26.181 -1.34,0.097 -2.661,0.171 -3.982,0.264 -0.591,2.994 0.573,5.987 1.124,8.833 0.888,4.556 1.855,9.071 0.219,14.326 -5.724,-6.719 -2.598,-14.698 -4.219,-22.987 -0.455,0.034 -0.925,0.064 -1.38,0.098 -0.907,24.066 2.817,46.313 3.588,68.675 0.454,12.877 1.684,25.713 2.831,38.574 0.477,5.495 0.943,10.985 1.321,16.482 1.205,17.321 2.296,34.645 2.93,51.975 0.43,11.811 8.96,15.576 17.749,18.956 14.417,5.541 29.664,8.16 44.823,10.308 42.974,6.055 86.236,6.747 129.578,5.865 7.421,-0.156 11.825,-2.306 14.271,-9.771 2.929,-8.825 7.525,-17.098 10.725,-25.848 3.723,-10.102 8.526,-18.794 19.875,-21.878 8.41,-2.274 8.284,-10.069 10.01,-16.43 5.17,-18.788 5.044,-19.064 24.247,-21.486 23.823,-2.992 47.579,-6.243 71.097,-11.341 8.24,-1.798 12.749,-5.116 14.429,-11.85 0.521,-2.066 0.77,-4.483 0.776,-7.266 C -2.92,61.507 -1.055,34.095 0.018,6.693 0.107,4.674 0.07,2.645 0,0 Z"
         style="fill:none;stroke:#794039;stroke-width:6;stroke-linecap:round;stroke-linejoin:round;stroke-miterlimit:10;stroke-dasharray:none;stroke-opacity:1"
         id="path80"
         inkscape:connector-curvature="0" /></g><g
       id="g82"
       transform="translate(1291.9249,331.6703)"><path
         d="m 0,0 c 0.031,2.523 -0.101,5.056 0.12,7.56 0.673,7.67 -3.922,12.046 -10.395,12.357 -6.715,0.328 -11.123,-4.293 -11.316,-11.631 -0.137,-5.039 0.122,-10.109 -0.276,-15.125 -0.423,-5.359 2.027,-6.513 6.925,-6.766 C -0.165,-14.369 -0.178,-14.585 0,0"
         style="fill:#674c2f;fill-opacity:1;fill-rule:nonzero;stroke:none"
         id="path84"
         inkscape:connector-curvature="0" /></g><g
       id="g86"
       transform="translate(1291.9249,331.6703)"><path
         d="m 0,0 c 0.031,2.523 -0.101,5.056 0.12,7.56 0.673,7.67 -3.922,12.046 -10.395,12.357 -6.715,0.328 -11.123,-4.293 -11.316,-11.631 -0.137,-5.039 0.122,-10.109 -0.276,-15.125 -0.423,-5.359 2.027,-6.513 6.925,-6.766 C -0.165,-14.369 -0.178,-14.585 0,0 Z"
         style="fill:none;stroke:#794039;stroke-width:6;stroke-linecap:round;stroke-linejoin:round;stroke-miterlimit:10;stroke-dasharray:none;stroke-opacity:1"
         id="path88"
         inkscape:connector-curvature="0" /></g><g
       id="g90"
       transform="translate(1255.6503,332.1087)"><path
         d="M 0,0 C 0.12,14.46 -3.017,20.663 -10.413,19.949 -21.677,18.855 -20.495,9.618 -21.222,1.849 -21.293,1.13 -21.272,0.402 -21.299,-0.32 -21.836,-14.071 -21.833,-13.511 -8.087,-13.736 4.918,-13.946 -2.278,-4.189 0,0"
         style="fill:#674c2f;fill-opacity:1;fill-rule:nonzero;stroke:none"
         id="path92"
         inkscape:connector-curvature="0" /></g><g
       id="g94"
       transform="translate(1255.6503,332.1087)"><path
         d="M 0,0 C 0.12,14.46 -3.017,20.663 -10.413,19.949 -21.677,18.855 -20.495,9.618 -21.222,1.849 -21.293,1.13 -21.272,0.402 -21.299,-0.32 -21.836,-14.071 -21.833,-13.511 -8.087,-13.736 4.918,-13.946 -2.278,-4.189 0,0 Z"
         style="fill:none;stroke:#794039;stroke-width:6;stroke-linecap:round;stroke-linejoin:round;stroke-miterlimit:10;stroke-dasharray:none;stroke-opacity:1"
         id="path96"
         inkscape:connector-curvature="0" /></g><g
       id="g98"
       transform="translate(1292.6519,391.2962)"><path
         d="m 0,0 c 0.005,0.362 0.015,0.724 0.012,1.081 -0.04,6.715 1.541,14.268 -7.443,16.873 -4.726,1.375 -9.605,1.282 -12.112,-3.921 -3.906,-8.122 -2.33,-16.735 -1.381,-25.215 0.041,-0.403 1.086,-0.743 1.713,-1.025 C -8.686,-16.924 -0.144,-11.491 0,0"
         style="fill:#674c2f;fill-opacity:1;fill-rule:nonzero;stroke:none"
         id="path100"
         inkscape:connector-curvature="0" /></g><g
       id="g102"
       transform="translate(1292.6519,391.2962)"><path
         d="m 0,0 c 0.005,0.362 0.015,0.724 0.012,1.081 -0.04,6.715 1.541,14.268 -7.443,16.873 -4.726,1.375 -9.605,1.282 -12.112,-3.921 -3.906,-8.122 -2.33,-16.735 -1.381,-25.215 0.041,-0.403 1.086,-0.743 1.713,-1.025 C -8.686,-16.924 -0.144,-11.491 0,0 Z"
         style="fill:none;stroke:#794039;stroke-width:6;stroke-linecap:round;stroke-linejoin:round;stroke-miterlimit:10;stroke-dasharray:none;stroke-opacity:1"
         id="path104"
         inkscape:connector-curvature="0" /></g><g
       id="g106"
       transform="translate(1222.8964,391.5945)"><path
         d="m 0,0 c -0.459,4.253 0.692,8.234 -1.348,12.008 -2.693,4.974 -6.219,8.002 -12.161,5.637 -5.521,-2.198 -10.433,-18.859 -7.673,-27.475 2.574,-8.033 9.172,-3.023 13.83,-3.224 C 3.494,-13.525 -2.344,-4.298 0,0"
         style="fill:#674c2f;fill-opacity:1;fill-rule:nonzero;stroke:none"
         id="path108"
         inkscape:connector-curvature="0" /></g><g
       id="g110"
       transform="translate(1222.8964,391.5945)"><path
         d="m 0,0 c -0.459,4.253 0.692,8.234 -1.348,12.008 -2.693,4.974 -6.219,8.002 -12.161,5.637 -5.521,-2.198 -10.433,-18.859 -7.673,-27.475 2.574,-8.033 9.172,-3.023 13.83,-3.224 C 3.494,-13.525 -2.344,-4.298 0,0 Z"
         style="fill:none;stroke:#794039;stroke-width:6;stroke-linecap:round;stroke-linejoin:round;stroke-miterlimit:10;stroke-dasharray:none;stroke-opacity:1"
         id="path112"
         inkscape:connector-curvature="0" /></g><g
       id="g114"
       transform="translate(1326.5646,329.3275)"><path
         d="m 0,0 c 0.05,4.147 0.544,7.117 0.027,9.902 -1.082,5.858 -2.861,11.081 -10.689,10.97 -8.228,-0.119 -9.142,-5.65 -9.518,-11.652 -0.255,-3.941 0.476,-7.96 0.126,-11.887 -0.616,-6.859 1.895,-8.698 8.958,-9.481 C 0.913,-13.474 0.999,-7.043 0,0"
         style="fill:#674c2f;fill-opacity:1;fill-rule:nonzero;stroke:none"
         id="path116"
         inkscape:connector-curvature="0" /></g><g
       id="g118"
       transform="translate(1326.5646,329.3275)"><path
         d="m 0,0 c 0.05,4.147 0.544,7.117 0.027,9.902 -1.082,5.858 -2.861,11.081 -10.689,10.97 -8.228,-0.119 -9.142,-5.65 -9.518,-11.652 -0.255,-3.941 0.476,-7.96 0.126,-11.887 -0.616,-6.859 1.895,-8.698 8.958,-9.481 C 0.913,-13.474 0.999,-7.043 0,0 Z"
         style="fill:none;stroke:#794039;stroke-width:6;stroke-linecap:round;stroke-linejoin:round;stroke-miterlimit:10;stroke-dasharray:none;stroke-opacity:1"
         id="path120"
         inkscape:connector-curvature="0" /></g><g
       id="g122"
       transform="translate(1220.2471,332.0886)"><path
         d="m 0,0 c 0.041,3.357 -0.004,5.874 0.114,8.382 0.3,6.297 -2.162,10.409 -8.858,10.859 -7.395,0.5 -10.211,-3.972 -10.653,-10.539 -0.237,-3.573 0.304,-7.242 -0.26,-10.748 -1.415,-8.753 1.604,-11.295 10.74,-11.607 C 4.576,-14.12 -1.633,-4.701 0,0"
         style="fill:#674c2f;fill-opacity:1;fill-rule:nonzero;stroke:none"
         id="path124"
         inkscape:connector-curvature="0" /></g><g
       id="g126"
       transform="translate(1220.2471,332.0886)"><path
         d="m 0,0 c 0.041,3.357 -0.004,5.874 0.114,8.382 0.3,6.297 -2.162,10.409 -8.858,10.859 -7.395,0.5 -10.211,-3.972 -10.653,-10.539 -0.237,-3.573 0.304,-7.242 -0.26,-10.748 -1.415,-8.753 1.604,-11.295 10.74,-11.607 C 4.576,-14.12 -1.633,-4.701 0,0 Z"
         style="fill:none;stroke:#794039;stroke-width:6;stroke-linecap:round;stroke-linejoin:round;stroke-miterlimit:10;stroke-dasharray:none;stroke-opacity:1"
         id="path128"
         inkscape:connector-curvature="0" /></g><g
       id="g130"
       transform="translate(1236.191,391.8525)"><path
         d="m 0,0 c 2.147,-3.004 -3.558,-9.314 2.636,-12.27 9.993,-4.762 17.842,0.505 17.972,11.464 0.043,3.604 0.501,7.316 -0.191,10.789 -1.106,5.555 -5.116,9.274 -10.701,8.738 C 4.568,18.221 0.341,15.076 0.12,8.917 0.025,6.39 0.046,3.861 0,0"
         style="fill:#674c2f;fill-opacity:1;fill-rule:nonzero;stroke:none"
         id="path132"
         inkscape:connector-curvature="0" /></g><g
       id="g134"
       transform="translate(1236.191,391.8525)"><path
         d="m 0,0 c 2.147,-3.004 -3.558,-9.314 2.636,-12.27 9.993,-4.762 17.842,0.505 17.972,11.464 0.043,3.604 0.501,7.316 -0.191,10.789 -1.106,5.555 -5.116,9.274 -10.701,8.738 C 4.568,18.221 0.341,15.076 0.12,8.917 0.025,6.39 0.046,3.861 0,0 Z"
         style="fill:none;stroke:#794039;stroke-width:6;stroke-linecap:round;stroke-linejoin:round;stroke-miterlimit:10;stroke-dasharray:none;stroke-opacity:1"
         id="path136"
         inkscape:connector-curvature="0" /></g><g
       id="g138"
       transform="translate(1325.2277,390.4617)"><path
         d="m 0,0 c 0.029,2.149 -0.077,4.304 0.102,6.439 0.574,6.738 -1.878,11.264 -9.067,11.77 -7.506,0.528 -9.79,-4.649 -10.404,-10.801 -0.425,-4.262 0.051,-8.603 -0.287,-12.875 -0.386,-4.866 1.26,-6.754 6.414,-7.371 C 0.383,-14.469 0.351,-14.785 0,0"
         style="fill:#674c2f;fill-opacity:1;fill-rule:nonzero;stroke:none"
         id="path140"
         inkscape:connector-curvature="0" /></g><g
       id="g142"
       transform="translate(1325.2277,390.4617)"><path
         d="m 0,0 c 0.029,2.149 -0.077,4.304 0.102,6.439 0.574,6.738 -1.878,11.264 -9.067,11.77 -7.506,0.528 -9.79,-4.649 -10.404,-10.801 -0.425,-4.262 0.051,-8.603 -0.287,-12.875 -0.386,-4.866 1.26,-6.754 6.414,-7.371 C 0.383,-14.469 0.351,-14.785 0,0 Z"
         style="fill:none;stroke:#794039;stroke-width:6;stroke-linecap:round;stroke-linejoin:round;stroke-miterlimit:10;stroke-dasharray:none;stroke-opacity:1"
         id="path144"
         inkscape:connector-curvature="0" /></g><g
       id="g146"
       transform="translate(1339.4645,331.2916)"><path
         d="m 0,0 c 3.013,-4.127 -5.731,-13.323 7.317,-14.451 14.274,-1.238 9.816,8.213 10.24,14.985 0.471,7.495 1.426,17.283 -8.893,17.335 C -2.301,17.924 0.582,7.637 0,0"
         style="fill:#674c2f;fill-opacity:1;fill-rule:nonzero;stroke:none"
         id="path148"
         inkscape:connector-curvature="0" /></g><g
       id="g150"
       transform="translate(1339.4645,331.2916)"><path
         d="m 0,0 c 3.013,-4.127 -5.731,-13.323 7.317,-14.451 14.274,-1.238 9.816,8.213 10.24,14.985 0.471,7.495 1.426,17.283 -8.893,17.335 C -2.301,17.924 0.582,7.637 0,0 Z"
         style="fill:none;stroke:#794039;stroke-width:6;stroke-linecap:round;stroke-linejoin:round;stroke-miterlimit:10;stroke-dasharray:none;stroke-opacity:1"
         id="path152"
         inkscape:connector-curvature="0" /></g><g
       id="g154"
       transform="translate(1187.6637,332.1823)"><path
         d="m 0,0 c 0.041,3.37 -0.106,5.904 0.138,8.396 0.583,5.901 -1.881,10.573 -7.629,10.743 -5.447,0.161 -8.79,-4.455 -9.585,-9.848 -0.57,-3.878 0.198,-7.955 -0.423,-11.817 -1.396,-8.63 2.127,-10.868 10.463,-10.689 C 5.487,-12.951 -2.74,-3.555 0,0"
         style="fill:#674c2f;fill-opacity:1;fill-rule:nonzero;stroke:none"
         id="path156"
         inkscape:connector-curvature="0" /></g><g
       id="g158"
       transform="translate(1187.6637,332.1823)"><path
         d="m 0,0 c 0.041,3.37 -0.106,5.904 0.138,8.396 0.583,5.901 -1.881,10.573 -7.629,10.743 -5.447,0.161 -8.79,-4.455 -9.585,-9.848 -0.57,-3.878 0.198,-7.955 -0.423,-11.817 -1.396,-8.63 2.127,-10.868 10.463,-10.689 C 5.487,-12.951 -2.74,-3.555 0,0 Z"
         style="fill:none;stroke:#794039;stroke-width:6;stroke-linecap:round;stroke-linejoin:round;stroke-miterlimit:10;stroke-dasharray:none;stroke-opacity:1"
         id="path160"
         inkscape:connector-curvature="0" /></g><g
       id="g162"
       transform="translate(1173.2697,391.7056)"><path
         d="m 0,0 c -0.028,0.001 -0.059,0.001 -0.083,0.002 -0.024,-1.8 0.13,-3.622 -0.099,-5.393 -0.771,-5.968 0.331,-9.238 7.785,-8.745 6.207,0.411 10.551,0.657 9.714,8.561 -0.488,4.624 0.334,9.383 -0.095,14.017 -0.449,4.77 -3.309,7.926 -8.414,7.989 C 3.695,16.493 0.942,13.346 0.18,8.628 -0.275,5.815 0.036,2.881 0,0"
         style="fill:#674c2f;fill-opacity:1;fill-rule:nonzero;stroke:none"
         id="path164"
         inkscape:connector-curvature="0" /></g><g
       id="g166"
       transform="translate(1173.2697,391.7056)"><path
         d="m 0,0 c -0.028,0.001 -0.059,0.001 -0.083,0.002 -0.024,-1.8 0.13,-3.622 -0.099,-5.393 -0.771,-5.968 0.331,-9.238 7.785,-8.745 6.207,0.411 10.551,0.657 9.714,8.561 -0.488,4.624 0.334,9.383 -0.095,14.017 -0.449,4.77 -3.309,7.926 -8.414,7.989 C 3.695,16.493 0.942,13.346 0.18,8.628 -0.275,5.815 0.036,2.881 0,0 Z"
         style="fill:none;stroke:#794039;stroke-width:6;stroke-linecap:round;stroke-linejoin:round;stroke-miterlimit:10;stroke-dasharray:none;stroke-opacity:1"
         id="path168"
         inkscape:connector-curvature="0" /></g><g
       id="g170"
       transform="translate(1385.2714,325.4415)"><path
         d="m 0,0 c -0.085,5.652 -0.191,10.623 -1.739,15.501 -1.182,3.715 -2.673,6.518 -7.245,6.365 -4.504,-0.147 -6.177,-3.347 -7.32,-6.736 -1.647,-4.885 0.386,-9.984 -0.079,-14.879 -0.866,-9.085 5.232,-9.679 11.344,-9.87 C 3.531,-9.885 -1.726,-2.791 0,0"
         style="fill:#674c2f;fill-opacity:1;fill-rule:nonzero;stroke:none"
         id="path172"
         inkscape:connector-curvature="0" /></g><g
       id="g174"
       transform="translate(1385.2714,325.4415)"><path
         d="m 0,0 c -0.085,5.652 -0.191,10.623 -1.739,15.501 -1.182,3.715 -2.673,6.518 -7.245,6.365 -4.504,-0.147 -6.177,-3.347 -7.32,-6.736 -1.647,-4.885 0.386,-9.984 -0.079,-14.879 -0.866,-9.085 5.232,-9.679 11.344,-9.87 C 3.531,-9.885 -1.726,-2.791 0,0 Z"
         style="fill:none;stroke:#794039;stroke-width:6;stroke-linecap:round;stroke-linejoin:round;stroke-miterlimit:10;stroke-dasharray:none;stroke-opacity:1"
         id="path176"
         inkscape:connector-curvature="0" /></g><g
       id="g178"
       transform="translate(1144.234,333.2255)"><path
         d="m 0,0 c -0.219,-16.569 0.401,-17.411 10.588,-14.365 8.677,2.592 3.856,9.692 4.354,14.586 C 15.571,6.493 17.797,16.24 7.787,16.159 -1.731,16.083 0.376,6.585 0,0"
         style="fill:#674c2f;fill-opacity:1;fill-rule:nonzero;stroke:none"
         id="path180"
         inkscape:connector-curvature="0" /></g><g
       id="g182"
       transform="translate(1144.234,333.2255)"><path
         d="m 0,0 c -0.219,-16.569 0.401,-17.411 10.588,-14.365 8.677,2.592 3.856,9.692 4.354,14.586 C 15.571,6.493 17.797,16.24 7.787,16.159 -1.731,16.083 0.376,6.585 0,0 Z"
         style="fill:none;stroke:#794039;stroke-width:6;stroke-linecap:round;stroke-linejoin:round;stroke-miterlimit:10;stroke-dasharray:none;stroke-opacity:1"
         id="path184"
         inkscape:connector-curvature="0" /></g><g
       id="g186"
       transform="translate(1147.0125,389.2117)"><path
         d="m 0,0 c 1.009,-5.313 -4.798,-14.451 8.079,-13.356 8.942,0.763 6.295,7.522 6.656,12.067 0.541,6.677 3.679,16.911 -6.12,17.751 C -1.592,17.337 0.592,7.005 0,0"
         style="fill:#674c2f;fill-opacity:1;fill-rule:nonzero;stroke:none"
         id="path188"
         inkscape:connector-curvature="0" /></g><g
       id="g190"
       transform="translate(1147.0125,389.2117)"><path
         d="m 0,0 c 1.009,-5.313 -4.798,-14.451 8.079,-13.356 8.942,0.763 6.295,7.522 6.656,12.067 0.541,6.677 3.679,16.911 -6.12,17.751 C -1.592,17.337 0.592,7.005 0,0 Z"
         style="fill:none;stroke:#794039;stroke-width:6;stroke-linecap:round;stroke-linejoin:round;stroke-miterlimit:10;stroke-dasharray:none;stroke-opacity:1"
         id="path192"
         inkscape:connector-curvature="0" /></g><g
       id="g194"
       transform="translate(1407.257,328.5074)"><path
         d="m 0,0 c -0.246,3.154 -0.211,7.499 -1.028,11.679 -0.555,2.833 -2.495,5.418 -5.967,5.244 -3.221,-0.161 -5.67,-2.295 -5.852,-5.309 -0.432,-7.196 -0.349,-14.434 -0.198,-21.648 0.048,-2.402 1.881,-3.616 4.307,-4.042 C 4.173,-16.34 -1.296,-6.616 0,0"
         style="fill:#674c2f;fill-opacity:1;fill-rule:nonzero;stroke:none"
         id="path196"
         inkscape:connector-curvature="0" /></g><g
       id="g198"
       transform="translate(1407.257,328.5074)"><path
         d="m 0,0 c -0.246,3.154 -0.211,7.499 -1.028,11.679 -0.555,2.833 -2.495,5.418 -5.967,5.244 -3.221,-0.161 -5.67,-2.295 -5.852,-5.309 -0.432,-7.196 -0.349,-14.434 -0.198,-21.648 0.048,-2.402 1.881,-3.616 4.307,-4.042 C 4.173,-16.34 -1.296,-6.616 0,0 Z"
         style="fill:none;stroke:#794039;stroke-width:6;stroke-linecap:round;stroke-linejoin:round;stroke-miterlimit:10;stroke-dasharray:none;stroke-opacity:1"
         id="path200"
         inkscape:connector-curvature="0" /></g><g
       id="g202"
       transform="translate(1122.4508,331.9807)"><path
         d="m 0,0 c -0.039,-3.152 0.069,-5.667 -0.131,-8.152 -0.289,-3.58 -0.055,-6.131 4.739,-6.271 4.584,-0.135 6.615,1.313 6.464,5.96 -0.075,2.12 0.489,4.254 0.644,6.389 C 12.192,4.56 15.759,14.677 6.644,15.347 -2.877,16.048 1.352,5.283 0,0"
         style="fill:#674c2f;fill-opacity:1;fill-rule:nonzero;stroke:none"
         id="path204"
         inkscape:connector-curvature="0" /></g><g
       id="g206"
       transform="translate(1122.4508,331.9807)"><path
         d="m 0,0 c -0.039,-3.152 0.069,-5.667 -0.131,-8.152 -0.289,-3.58 -0.055,-6.131 4.739,-6.271 4.584,-0.135 6.615,1.313 6.464,5.96 -0.075,2.12 0.489,4.254 0.644,6.389 C 12.192,4.56 15.759,14.677 6.644,15.347 -2.877,16.048 1.352,5.283 0,0 Z"
         style="fill:none;stroke:#794039;stroke-width:6;stroke-linecap:round;stroke-linejoin:round;stroke-miterlimit:10;stroke-dasharray:none;stroke-opacity:1"
         id="path208"
         inkscape:connector-curvature="0" /></g><g
       id="g210"
       transform="translate(1125.3004,387.0559)"><path
         d="m 0,0 c -0.031,-2.527 0.084,-5.067 -0.129,-7.583 -0.288,-3.438 0.493,-5.503 4.565,-5.406 3.425,0.077 6.588,-0.151 6.949,4.534 0.193,2.511 1.039,4.976 1.152,7.485 C 12.85,5.628 15.666,15.815 7.281,16.367 -1.005,16.912 0.36,6.619 0,0"
         style="fill:#674c2f;fill-opacity:1;fill-rule:nonzero;stroke:none"
         id="path212"
         inkscape:connector-curvature="0" /></g><g
       id="g214"
       transform="translate(1125.3004,387.0559)"><path
         d="m 0,0 c -0.031,-2.527 0.084,-5.067 -0.129,-7.583 -0.288,-3.438 0.493,-5.503 4.565,-5.406 3.425,0.077 6.588,-0.151 6.949,4.534 0.193,2.511 1.039,4.976 1.152,7.485 C 12.85,5.628 15.666,15.815 7.281,16.367 -1.005,16.912 0.36,6.619 0,0 Z"
         style="fill:none;stroke:#794039;stroke-width:6;stroke-linecap:round;stroke-linejoin:round;stroke-miterlimit:10;stroke-dasharray:none;stroke-opacity:1"
         id="path216"
         inkscape:connector-curvature="0" /></g><g
       id="g218"
       transform="translate(1425.2258,320.9204)"><path
         d="m 0,0 c -0.252,4.583 -0.358,11.077 -1.092,17.504 -0.271,2.325 -1.91,5.237 -4.637,5.212 -2.912,-0.031 -3.65,-2.755 -3.662,-5.478 C -9.423,10.747 -9.384,4.251 -9.662,-2.233 -9.838,-6.351 -7.633,-6.855 -4.305,-6.881 -0.669,-6.915 1.249,-5.809 0,0"
         style="fill:#674c2f;fill-opacity:1;fill-rule:nonzero;stroke:none"
         id="path220"
         inkscape:connector-curvature="0" /></g><g
       id="g222"
       transform="translate(1425.2258,320.9204)"><path
         d="m 0,0 c -0.252,4.583 -0.358,11.077 -1.092,17.504 -0.271,2.325 -1.91,5.237 -4.637,5.212 -2.912,-0.031 -3.65,-2.755 -3.662,-5.478 C -9.423,10.747 -9.384,4.251 -9.662,-2.233 -9.838,-6.351 -7.633,-6.855 -4.305,-6.881 -0.669,-6.915 1.249,-5.809 0,0 Z"
         style="fill:none;stroke:#794039;stroke-width:6;stroke-linecap:round;stroke-linejoin:round;stroke-miterlimit:10;stroke-dasharray:none;stroke-opacity:1"
         id="path224"
         inkscape:connector-curvature="0" /></g><g
       id="g226"
       transform="translate(1113.8884,330.283)"><path
         d="M 0,0 C 0.021,6.372 3.982,15.055 -3.651,16.027 -8.302,16.623 -9.376,7.144 -8.601,1.51 -7.963,-3.154 -12.433,-11.164 -5.592,-11.944 4.465,-13.083 -2.573,-3.383 0,0"
         style="fill:#674c2f;fill-opacity:1;fill-rule:nonzero;stroke:none"
         id="path228"
         inkscape:connector-curvature="0" /></g><g
       id="g230"
       transform="translate(1113.8884,330.283)"><path
         d="M 0,0 C 0.021,6.372 3.982,15.055 -3.651,16.027 -8.302,16.623 -9.376,7.144 -8.601,1.51 -7.963,-3.154 -12.433,-11.164 -5.592,-11.944 4.465,-13.083 -2.573,-3.383 0,0 Z"
         style="fill:none;stroke:#794039;stroke-width:6;stroke-linecap:round;stroke-linejoin:round;stroke-miterlimit:10;stroke-dasharray:none;stroke-opacity:1"
         id="path232"
         inkscape:connector-curvature="0" /></g><g
       id="g234"
       transform="translate(1107.9335,384.8612)"><path
         d="m 0,0 c -0.028,-2.426 -0.277,-3.907 -0.013,-5.287 0.519,-2.713 -2.018,-6.848 3.454,-7.398 5.833,-0.582 5.067,3.45 5.2,6.98 0.071,1.795 0.36,3.58 0.379,5.374 C 9.082,5.016 13.11,14.147 6.626,14.504 -0.614,14.901 0.461,5.178 0,0"
         style="fill:#674c2f;fill-opacity:1;fill-rule:nonzero;stroke:none"
         id="path236"
         inkscape:connector-curvature="0" /></g><g
       id="g238"
       transform="translate(1107.9335,384.8612)"><path
         d="m 0,0 c -0.028,-2.426 -0.277,-3.907 -0.013,-5.287 0.519,-2.713 -2.018,-6.848 3.454,-7.398 5.833,-0.582 5.067,3.45 5.2,6.98 0.071,1.795 0.36,3.58 0.379,5.374 C 9.082,5.016 13.11,14.147 6.626,14.504 -0.614,14.901 0.461,5.178 0,0 Z"
         style="fill:none;stroke:#794039;stroke-width:6;stroke-linecap:round;stroke-linejoin:round;stroke-miterlimit:10;stroke-dasharray:none;stroke-opacity:1"
         id="path240"
         inkscape:connector-curvature="0" /></g><g
       id="g242"
       transform="translate(1430.7013,327.8461)"><path
         d="m 0,0 c 0.234,-3.594 0.279,-7.588 0.814,-11.513 0.355,-2.608 1.66,-4.964 4.996,-4.337 3.273,0.615 2.083,3.101 1.894,5.123 C 7.379,-7.131 7.197,-3.511 6.689,0.057 6.041,4.625 9.275,12.501 3.199,12.693 -1.623,12.845 1.127,4.746 0,0"
         style="fill:#674c2f;fill-opacity:1;fill-rule:nonzero;stroke:none"
         id="path244"
         inkscape:connector-curvature="0" /></g><g
       id="g246"
       transform="translate(1430.7013,327.8461)"><path
         d="m 0,0 c 0.234,-3.594 0.279,-7.588 0.814,-11.513 0.355,-2.608 1.66,-4.964 4.996,-4.337 3.273,0.615 2.083,3.101 1.894,5.123 C 7.379,-7.131 7.197,-3.511 6.689,0.057 6.041,4.625 9.275,12.501 3.199,12.693 -1.623,12.845 1.127,4.746 0,0 Z"
         style="fill:none;stroke:#794039;stroke-width:6;stroke-linecap:round;stroke-linejoin:round;stroke-miterlimit:10;stroke-dasharray:none;stroke-opacity:1"
         id="path248"
         inkscape:connector-curvature="0" /></g><g
       id="g250"
       transform="translate(1095.3572,344.045)"><path
         d="m 0,0 c -1.125,-7.666 -2.349,-15.322 -3.32,-23.01 -0.25,-1.97 -0.574,-4.495 2.555,-4.956 1.524,-0.23 3.551,0.198 3.442,1.595 C 1.94,-17.499 8.052,-8.345 0,0"
         style="fill:#674c2f;fill-opacity:1;fill-rule:nonzero;stroke:none"
         id="path252"
         inkscape:connector-curvature="0" /></g><g
       id="g254"
       transform="translate(1095.3572,344.045)"><path
         d="m 0,0 c -1.125,-7.666 -2.349,-15.322 -3.32,-23.01 -0.25,-1.97 -0.574,-4.495 2.555,-4.956 1.524,-0.23 3.551,0.198 3.442,1.595 C 1.94,-17.499 8.052,-8.345 0,0 Z"
         style="fill:none;stroke:#794039;stroke-width:6;stroke-linecap:round;stroke-linejoin:round;stroke-miterlimit:10;stroke-dasharray:none;stroke-opacity:1"
         id="path256"
         inkscape:connector-curvature="0" /></g><g
       id="g258"
       transform="translate(1101.3281,399.2639)"><path
         d="m 0,0 c -6.409,-9.434 -3.379,-18.337 -4.61,-26.579 -0.097,-0.641 0.917,-1.869 1.655,-2.122 1.7,-0.583 2.514,0.663 2.972,2.129 C 2.569,-18.413 3.739,-10.263 0,0"
         style="fill:#674c2f;fill-opacity:1;fill-rule:nonzero;stroke:none"
         id="path260"
         inkscape:connector-curvature="0" /></g><g
       id="g262"
       transform="translate(1101.3281,399.2639)"><path
         d="m 0,0 c -6.409,-9.434 -3.379,-18.337 -4.61,-26.579 -0.097,-0.641 0.917,-1.869 1.655,-2.122 1.7,-0.583 2.514,0.663 2.972,2.129 C 2.569,-18.413 3.739,-10.263 0,0 Z"
         style="fill:none;stroke:#794039;stroke-width:6;stroke-linecap:round;stroke-linejoin:round;stroke-miterlimit:10;stroke-dasharray:none;stroke-opacity:1"
         id="path264"
         inkscape:connector-curvature="0" /></g><g
       id="g266"
       transform="translate(1443.6299,337.0692)"><path
         d="M 0,0 C -2.48,-8.112 -2.494,-16.162 2.153,-26.389 1.896,-15.875 3.91,-7.848 0,0"
         style="fill:#674c2f;fill-opacity:1;fill-rule:nonzero;stroke:none"
         id="path268"
         inkscape:connector-curvature="0" /></g><g
       id="g270"
       transform="translate(1443.6299,337.0692)"><path
         d="M 0,0 C -2.48,-8.112 -2.494,-16.162 2.153,-26.389 1.896,-15.875 3.91,-7.848 0,0 Z"
         style="fill:none;stroke:#794039;stroke-width:6;stroke-linecap:round;stroke-linejoin:round;stroke-miterlimit:10;stroke-dasharray:none;stroke-opacity:1"
         id="path272"
         inkscape:connector-curvature="0" /></g><g
       id="g274"
       transform="translate(451.9315,286.4602)"><path
         d="m 0,0 -395.341,1.762 0.699,156.997 L 0.7,156.997 Z"
         style="fill:#666666;fill-opacity:1;fill-rule:nonzero;stroke:none"
         id="path276"
         inkscape:connector-curvature="0" /></g><g
       id="g278"
       transform="translate(451.9315,286.4602)"><path
         d="m 0,0 -395.341,1.762 0.699,156.997 L 0.7,156.997 Z"
         style="fill:none;stroke:#794039;stroke-width:6;stroke-linecap:round;stroke-linejoin:round;stroke-miterlimit:10;stroke-dasharray:none;stroke-opacity:1"
         id="path280"
         inkscape:connector-curvature="0" /></g><g
       id="g282"
       transform="translate(474.1276,255.6192)"><path
         d="m 0,0 -440.272,1.962 0.087,19.736 440.273,-1.962 z"
         style="fill:#c4c4c4;fill-opacity:1;fill-rule:nonzero;stroke:none"
         id="path284"
         inkscape:connector-curvature="0" /></g><g
       id="g286"
       transform="translate(474.1276,255.6192)"><path
         d="m 0,0 -440.272,1.962 0.087,19.736 440.273,-1.962 z"
         style="fill:none;stroke:#794039;stroke-width:6;stroke-linecap:round;stroke-linejoin:round;stroke-miterlimit:10;stroke-dasharray:none;stroke-opacity:1"
         id="path288"
         inkscape:connector-curvature="0" /></g><g
       id="g290"
       transform="translate(465.1334,281.4702)"><path
         d="M 0,0 -422.054,1.881 -422.01,11.75 0.044,9.869 Z"
         style="fill:#ffffff;fill-opacity:1;fill-rule:nonzero;stroke:none"
         id="path292"
         inkscape:connector-curvature="0" /></g><g
       id="g294"
       transform="translate(465.1334,281.4702)"><path
         d="M 0,0 -422.054,1.881 -422.01,11.75 0.044,9.869 Z"
         style="fill:none;stroke:#794039;stroke-width:6;stroke-linecap:round;stroke-linejoin:round;stroke-miterlimit:10;stroke-dasharray:none;stroke-opacity:1"
         id="path296"
         inkscape:connector-curvature="0" /></g><g
       id="g298"
       transform="translate(465.7602,422.154)"><path
         d="m 0,0 -422.054,1.881 0.044,9.865 L 0.044,9.865 Z"
         style="fill:#c4c4c4;fill-opacity:1;fill-rule:nonzero;stroke:none"
         id="path300"
         inkscape:connector-curvature="0" /></g><g
       id="g302"
       transform="translate(465.7602,422.154)"><path
         d="m 0,0 -422.054,1.881 0.044,9.865 L 0.044,9.865 Z"
         style="fill:none;stroke:#794039;stroke-width:6;stroke-linecap:round;stroke-linejoin:round;stroke-miterlimit:10;stroke-dasharray:none;stroke-opacity:1"
         id="path304"
         inkscape:connector-curvature="0" /></g><g
       id="g306"
       transform="translate(465.8549,443.3988)"><path
         d="m 0,0 -422.054,1.881 211.324,65.59 z"
         style="fill:#ffffff;fill-opacity:1;fill-rule:nonzero;stroke:none"
         id="path308"
         inkscape:connector-curvature="0" /></g><g
       id="g310"
       transform="translate(465.8549,443.3988)"><path
         d="m 0,0 -422.054,1.881 211.324,65.59 z"
         style="fill:none;stroke:#794039;stroke-width:6;stroke-linecap:round;stroke-linejoin:round;stroke-miterlimit:10;stroke-dasharray:none;stroke-opacity:1"
         id="path312"
         inkscape:connector-curvature="0" /></g><g
       id="g314"
       transform="translate(419.7386,450.8789)"><path
         d="m 0,0 -329.759,1.47 165.112,51.247 z"
         style="fill:#9e9e9e;fill-opacity:1;fill-rule:nonzero;stroke:none"
         id="path316"
         inkscape:connector-curvature="0" /></g><g
       id="g318"
       transform="translate(419.7386,450.8789)"><path
         d="m 0,0 -329.759,1.47 165.112,51.247 z"
         style="fill:none;stroke:#794039;stroke-width:6;stroke-linecap:round;stroke-linejoin:round;stroke-miterlimit:10;stroke-dasharray:none;stroke-opacity:1"
         id="path320"
         inkscape:connector-curvature="0" /></g><g
       id="g322"
       transform="translate(43.6905,420.483)"><path
         d="m 0,0 -0.049,-11.034 5.176,-0.023 -0.015,-3.429 27.326,-0.122 0.015,3.429 5.177,-0.023 0.049,11.034 z m 31.959,-122.096 -27.326,0.122 2.871,103.223 22.504,-0.101 z"
         style="fill:#ffffff;fill-opacity:1;fill-rule:nonzero;stroke:none"
         id="path324"
         inkscape:connector-curvature="0" /></g><g
       id="g326"
       transform="translate(43.6905,420.483)"><path
         d="m 0,0 -0.049,-11.034 5.176,-0.023 -0.015,-3.429 27.326,-0.122 0.015,3.429 5.177,-0.023 0.049,11.034 z m 31.959,-122.096 -27.326,0.122 2.871,103.223 22.504,-0.101 z"
         style="fill:none;stroke:#794039;stroke-width:6;stroke-linecap:round;stroke-linejoin:round;stroke-miterlimit:10;stroke-dasharray:none;stroke-opacity:1"
         id="path328"
         inkscape:connector-curvature="0" /></g><g
       id="g330"
       transform="translate(98.6024,420.2383)"><path
         d="m 0,0 -0.049,-11.034 5.176,-0.023 -0.015,-3.429 27.326,-0.122 0.015,3.429 5.175,-0.023 0.049,11.034 z m 31.959,-122.096 -27.326,0.122 2.869,103.222 22.504,-0.1 z"
         style="fill:#ffffff;fill-opacity:1;fill-rule:nonzero;stroke:none"
         id="path332"
         inkscape:connector-curvature="0" /></g><g
       id="g334"
       transform="translate(98.6024,420.2383)"><path
         d="m 0,0 -0.049,-11.034 5.176,-0.023 -0.015,-3.429 27.326,-0.122 0.015,3.429 5.175,-0.023 0.049,11.034 z m 31.959,-122.096 -27.326,0.122 2.869,103.222 22.504,-0.1 z"
         style="fill:none;stroke:#794039;stroke-width:6;stroke-linecap:round;stroke-linejoin:round;stroke-miterlimit:10;stroke-dasharray:none;stroke-opacity:1"
         id="path336"
         inkscape:connector-curvature="0" /></g><g
       id="g338"
       transform="translate(153.5121,419.9937)"><path
         d="m 0,0 -0.049,-11.034 5.177,-0.023 -0.016,-3.429 27.328,-0.122 0.015,3.429 5.175,-0.023 0.049,11.034 z m 31.961,-122.096 -27.328,0.122 2.869,103.222 22.506,-0.1 z"
         style="fill:#ffffff;fill-opacity:1;fill-rule:nonzero;stroke:none"
         id="path340"
         inkscape:connector-curvature="0" /></g><g
       id="g342"
       transform="translate(153.5121,419.9937)"><path
         d="m 0,0 -0.049,-11.034 5.177,-0.023 -0.016,-3.429 27.328,-0.122 0.015,3.429 5.175,-0.023 0.049,11.034 z m 31.961,-122.096 -27.328,0.122 2.869,103.222 22.506,-0.1 z"
         style="fill:none;stroke:#794039;stroke-width:6;stroke-linecap:round;stroke-linejoin:round;stroke-miterlimit:10;stroke-dasharray:none;stroke-opacity:1"
         id="path344"
         inkscape:connector-curvature="0" /></g><g
       id="g346"
       transform="translate(208.422,419.7489)"><path
         d="m 0,0 -0.049,-11.034 5.176,-0.023 -0.015,-3.429 27.328,-0.122 0.015,3.429 5.175,-0.023 0.049,11.034 z m 31.961,-122.095 -27.328,0.121 2.869,103.223 22.506,-0.101 z"
         style="fill:#ffffff;fill-opacity:1;fill-rule:nonzero;stroke:none"
         id="path348"
         inkscape:connector-curvature="0" /></g><g
       id="g350"
       transform="translate(208.422,419.7489)"><path
         d="m 0,0 -0.049,-11.034 5.176,-0.023 -0.015,-3.429 27.328,-0.122 0.015,3.429 5.175,-0.023 0.049,11.034 z m 31.961,-122.095 -27.328,0.121 2.869,103.223 22.506,-0.101 z"
         style="fill:none;stroke:#794039;stroke-width:6;stroke-linecap:round;stroke-linejoin:round;stroke-miterlimit:10;stroke-dasharray:none;stroke-opacity:1"
         id="path352"
         inkscape:connector-curvature="0" /></g><g
       id="g354"
       transform="translate(263.3319,419.5043)"><path
         d="m 0,0 -0.049,-11.034 5.174,-0.023 -0.015,-3.429 27.33,-0.122 0.015,3.429 5.175,-0.023 0.049,11.034 z m 31.961,-122.096 -27.33,0.122 2.873,103.222 22.506,-0.1 z"
         style="fill:#ffffff;fill-opacity:1;fill-rule:nonzero;stroke:none"
         id="path356"
         inkscape:connector-curvature="0" /></g><g
       id="g358"
       transform="translate(263.3319,419.5043)"><path
         d="m 0,0 -0.049,-11.034 5.174,-0.023 -0.015,-3.429 27.33,-0.122 0.015,3.429 5.175,-0.023 0.049,11.034 z m 31.961,-122.096 -27.33,0.122 2.873,103.222 22.506,-0.1 z"
         style="fill:none;stroke:#794039;stroke-width:6;stroke-linecap:round;stroke-linejoin:round;stroke-miterlimit:10;stroke-dasharray:none;stroke-opacity:1"
         id="path360"
         inkscape:connector-curvature="0" /></g><g
       id="g362"
       transform="translate(318.2438,419.2596)"><path
         d="m 0,0 -0.049,-11.034 5.176,-0.023 -0.015,-3.429 27.324,-0.122 0.015,3.429 5.177,-0.023 0.049,11.034 z m 31.957,-122.096 -27.324,0.122 2.871,103.222 22.504,-0.1 z"
         style="fill:#ffffff;fill-opacity:1;fill-rule:nonzero;stroke:none"
         id="path364"
         inkscape:connector-curvature="0" /></g><g
       id="g366"
       transform="translate(318.2438,419.2596)"><path
         d="m 0,0 -0.049,-11.034 5.176,-0.023 -0.015,-3.429 27.324,-0.122 0.015,3.429 5.177,-0.023 0.049,11.034 z m 31.957,-122.096 -27.324,0.122 2.871,103.222 22.504,-0.1 z"
         style="fill:none;stroke:#794039;stroke-width:6;stroke-linecap:round;stroke-linejoin:round;stroke-miterlimit:10;stroke-dasharray:none;stroke-opacity:1"
         id="path368"
         inkscape:connector-curvature="0" /></g><g
       id="g370"
       transform="translate(373.1558,419.0147)"><path
         d="m 0,0 -0.049,-11.034 5.176,-0.023 -0.015,-3.429 27.326,-0.122 0.015,3.429 5.172,-0.023 0.05,11.034 z m 31.959,-122.095 -27.326,0.121 2.869,103.223 22.504,-0.101 z"
         style="fill:#ffffff;fill-opacity:1;fill-rule:nonzero;stroke:none"
         id="path372"
         inkscape:connector-curvature="0" /></g><g
       id="g374"
       transform="translate(373.1558,419.0147)"><path
         d="m 0,0 -0.049,-11.034 5.176,-0.023 -0.015,-3.429 27.326,-0.122 0.015,3.429 5.172,-0.023 0.05,11.034 z m 31.959,-122.095 -27.326,0.121 2.869,103.223 22.504,-0.101 z"
         style="fill:none;stroke:#794039;stroke-width:6;stroke-linecap:round;stroke-linejoin:round;stroke-miterlimit:10;stroke-dasharray:none;stroke-opacity:1"
         id="path376"
         inkscape:connector-curvature="0" /></g><g
       id="g378"
       transform="translate(428.0657,418.7702)"><path
         d="m 0,0 -0.049,-11.034 5.176,-0.023 -0.015,-3.429 27.328,-0.122 0.015,3.429 5.174,-0.023 0.05,11.034 z m 31.961,-122.096 -27.328,0.122 2.869,103.222 22.504,-0.1 z"
         style="fill:#ffffff;fill-opacity:1;fill-rule:nonzero;stroke:none"
         id="path380"
         inkscape:connector-curvature="0" /></g><g
       id="g382"
       transform="translate(428.0657,418.7702)"><path
         d="m 0,0 -0.049,-11.034 5.176,-0.023 -0.015,-3.429 27.328,-0.122 0.015,3.429 5.174,-0.023 0.05,11.034 z m 31.961,-122.096 -27.328,0.122 2.869,103.222 22.504,-0.1 z"
         style="fill:none;stroke:#794039;stroke-width:6;stroke-linecap:round;stroke-linejoin:round;stroke-miterlimit:10;stroke-dasharray:none;stroke-opacity:1"
         id="path384"
         inkscape:connector-curvature="0" /></g><g
       id="g386"
       transform="translate(732.0255,439.4905)"><path
         d="M 0,0 V -0.018 L -5.306,1.525 V 1.543 Z"
         style="fill:#674c2f;fill-opacity:1;fill-rule:nonzero;stroke:none"
         id="path388"
         inkscape:connector-curvature="0" /></g><g
       id="g390"
       transform="translate(732.0255,439.4905)"><path
         d="M 0,0 V -0.018 L -5.306,1.525 V 1.543 Z"
         style="fill:none;stroke:#794039;stroke-width:6;stroke-linecap:round;stroke-linejoin:round;stroke-miterlimit:10;stroke-dasharray:none;stroke-opacity:1"
         id="path392"
         inkscape:connector-curvature="0" /></g><g
       id="g394"
       transform="translate(716.8998,497.693)"><path
         d="M 0,0 -16.235,-53.689 8.297,-61.473 25.114,-8.701 Z"
         style="fill:#674c2f;fill-opacity:1;fill-rule:nonzero;stroke:none"
         id="path396"
         inkscape:connector-curvature="0" /></g><g
       id="g398"
       transform="translate(716.8998,497.693)"><path
         d="M 0,0 -16.235,-53.689 8.297,-61.473 25.114,-8.701 Z"
         style="fill:none;stroke:#794039;stroke-width:6;stroke-linecap:round;stroke-linejoin:round;stroke-miterlimit:10;stroke-dasharray:none;stroke-opacity:1"
         id="path400"
         inkscape:connector-curvature="0" /></g><g
       id="g402"
       transform="translate(725.1988,441.4695)"><path
         d="m 0,0 -19.016,5.55 10.549,36.145 c 1.443,4.974 6.653,7.829 11.626,6.368 l 1.006,-0.276 c 4.974,-1.461 7.827,-6.672 6.368,-11.642 z m 72.406,165.007 3.747,12.844 -32.769,9.562 14.919,50.468 10.835,-3.163 2.605,8.959 -23.514,6.857 -76.732,22.387 -2.61,-8.96 10.835,-3.162 -14.896,-50.466 -32.44,9.464 -3.732,-12.844 15.527,-4.525 -14.185,-48.633 -15.531,4.545 -3.747,-12.844 15.523,-4.523 -14.166,-48.637 -15.547,4.547 -3.736,-12.846 41.651,-12.149 -26.124,7.606 -14.185,-48.612 -15.527,4.524 -3.756,-12.824 15.547,-4.545 -14.182,-48.612 -15.531,4.522 -3.751,-12.822 15.527,-4.545 -14.19,-48.614 -15.527,4.523 -3.755,-12.841 15.55,-4.527 -22.842,-78.264 122.278,-0.048 13.262,45.438 15.523,-4.529 3.751,12.847 -15.527,4.522 14.17,48.613 15.547,-4.523 3.732,12.844 -15.527,4.526 14.189,48.612 15.527,-4.523 3.756,12.844 -15.551,4.523 -5.306,1.543 v 0.018 l 5.306,-1.543 14.185,48.597 15.531,-4.527 3.752,12.842 -15.527,4.527 14.19,48.633 15.527,-4.545 3.731,12.844 -15.527,4.525 14.19,48.635 z"
         style="fill:#ceb292;fill-opacity:1;fill-rule:nonzero;stroke:none"
         id="path404"
         inkscape:connector-curvature="0" /></g><g
       id="g406"
       transform="translate(725.1988,441.4695)"><path
         d="m 0,0 -19.016,5.55 10.549,36.145 c 1.443,4.974 6.653,7.829 11.626,6.368 l 1.006,-0.276 c 4.974,-1.461 7.827,-6.672 6.368,-11.642 z m 72.406,165.007 3.747,12.844 -32.769,9.562 14.919,50.468 10.835,-3.163 2.605,8.959 -23.514,6.857 -76.732,22.387 -2.61,-8.96 10.835,-3.162 -14.896,-50.466 -32.44,9.464 -3.732,-12.844 15.527,-4.525 -14.185,-48.633 -15.531,4.545 -3.747,-12.844 15.523,-4.523 -14.166,-48.637 -15.547,4.547 -3.736,-12.846 41.651,-12.149 -26.124,7.606 -14.185,-48.612 -15.527,4.524 -3.756,-12.824 15.547,-4.545 -14.182,-48.612 -15.531,4.522 -3.751,-12.822 15.527,-4.545 -14.19,-48.614 -15.527,4.523 -3.755,-12.841 15.55,-4.527 -22.842,-78.264 122.278,-0.048 13.262,45.438 15.523,-4.529 3.751,12.847 -15.527,4.522 14.17,48.613 15.547,-4.523 3.732,12.844 -15.527,4.526 14.189,48.612 15.527,-4.523 3.756,12.844 -15.551,4.523 -5.306,1.543 v 0.018 l 5.306,-1.543 14.185,48.597 15.531,-4.527 3.752,12.842 -15.527,4.527 14.19,48.633 15.527,-4.545 3.731,12.844 -15.527,4.525 14.19,48.635 z"
         style="fill:none;stroke:#794039;stroke-width:6;stroke-linecap:round;stroke-linejoin:round;stroke-miterlimit:10;stroke-dasharray:none;stroke-opacity:1"
         id="path408"
         inkscape:connector-curvature="0" /></g><g
       id="g410"
       transform="translate(760.0329,659.4301)"><path
         d="m 0,0 2.847,9.746 c 0.552,1.857 2.489,2.922 4.362,2.386 1.853,-0.553 2.922,-2.484 2.386,-4.361 L 6.748,-1.955 C 6.216,-3.828 4.259,-4.897 2.386,-4.341 0.533,-3.81 -0.535,-1.853 0,0"
         style="fill:#674c2f;fill-opacity:1;fill-rule:nonzero;stroke:none"
         id="path412"
         inkscape:connector-curvature="0" /></g><g
       id="g414"
       transform="translate(760.0329,659.4301)"><path
         d="m 0,0 2.847,9.746 c 0.552,1.857 2.489,2.922 4.362,2.386 1.853,-0.553 2.922,-2.484 2.386,-4.361 L 6.748,-1.955 C 6.216,-3.828 4.259,-4.897 2.386,-4.341 0.533,-3.81 -0.535,-1.853 0,0 Z"
         style="fill:none;stroke:#794039;stroke-width:6;stroke-linecap:round;stroke-linejoin:round;stroke-miterlimit:10;stroke-dasharray:none;stroke-opacity:1"
         id="path416"
         inkscape:connector-curvature="0" /></g><g
       id="g418"
       transform="translate(730.5214,673.61)"><path
         d="m 0,0 c 1.281,4.398 5.9,6.942 10.323,5.657 4.396,-1.304 6.94,-5.919 5.659,-10.323 l -3.362,-11.479 -15.959,4.663 z"
         style="fill:#674c2f;fill-opacity:1;fill-rule:nonzero;stroke:none"
         id="path420"
         inkscape:connector-curvature="0" /></g><g
       id="g422"
       transform="translate(730.5214,673.61)"><path
         d="m 0,0 c 1.281,4.398 5.9,6.942 10.323,5.657 4.396,-1.304 6.94,-5.919 5.659,-10.323 l -3.362,-11.479 -15.959,4.663 z"
         style="fill:none;stroke:#794039;stroke-width:6;stroke-linecap:round;stroke-linejoin:round;stroke-miterlimit:10;stroke-dasharray:none;stroke-opacity:1"
         id="path424"
         inkscape:connector-curvature="0" /></g><g
       id="g426"
       transform="translate(707.2542,674.8412)"><path
         d="m 0,0 2.828,9.726 c 0.555,1.875 2.508,2.941 4.361,2.386 1.857,-0.531 2.942,-2.486 2.39,-4.341 L 6.732,-1.975 C 6.201,-3.83 4.244,-4.895 2.387,-4.359 0.518,-3.808 -0.551,-1.875 0,0"
         style="fill:#674c2f;fill-opacity:1;fill-rule:nonzero;stroke:none"
         id="path428"
         inkscape:connector-curvature="0" /></g><g
       id="g430"
       transform="translate(707.2542,674.8412)"><path
         d="m 0,0 2.828,9.726 c 0.555,1.875 2.508,2.941 4.361,2.386 1.857,-0.531 2.942,-2.486 2.39,-4.341 L 6.732,-1.975 C 6.201,-3.83 4.244,-4.895 2.387,-4.359 0.518,-3.808 -0.551,-1.875 0,0 Z"
         style="fill:none;stroke:#794039;stroke-width:6;stroke-linecap:round;stroke-linejoin:round;stroke-miterlimit:10;stroke-dasharray:none;stroke-opacity:1"
         id="path432"
         inkscape:connector-curvature="0" /></g><g
       id="g434"
       transform="translate(688.6923,585.5048)"><path
         d="m 0,0 10.553,36.143 c 1.463,4.974 6.653,7.831 11.622,6.368 l 1.006,-0.296 c 4.978,-1.441 7.831,-6.65 6.392,-11.622 L 19.02,-5.554 Z"
         style="fill:#674c2f;fill-opacity:1;fill-rule:nonzero;stroke:none"
         id="path436"
         inkscape:connector-curvature="0" /></g><g
       id="g438"
       transform="translate(688.6923,585.5048)"><path
         d="m 0,0 10.553,36.143 c 1.463,4.974 6.653,7.831 11.622,6.368 l 1.006,-0.296 c 4.978,-1.441 7.831,-6.65 6.392,-11.622 L 19.02,-5.554 Z"
         style="fill:none;stroke:#794039;stroke-width:6;stroke-linecap:round;stroke-linejoin:round;stroke-miterlimit:10;stroke-dasharray:none;stroke-opacity:1"
         id="path440"
         inkscape:connector-curvature="0" /></g><g
       id="g442"
       transform="translate(700.3239,554.6387)"><path
         d="m 0,0 -10.533,-36.143 -19.02,5.552 L -19,5.552 c 1.44,4.972 6.653,7.811 11.622,6.368 l 1.01,-0.296 C -1.394,10.183 1.459,4.972 0,0"
         style="fill:#674c2f;fill-opacity:1;fill-rule:nonzero;stroke:none"
         id="path444"
         inkscape:connector-curvature="0" /></g><g
       id="g446"
       transform="translate(700.3239,554.6387)"><path
         d="m 0,0 -10.533,-36.143 -19.02,5.552 L -19,5.552 c 1.44,4.972 6.653,7.811 11.622,6.368 l 1.01,-0.296 C -1.394,10.183 1.459,4.972 0,0 Z"
         style="fill:none;stroke:#794039;stroke-width:6;stroke-linecap:round;stroke-linejoin:round;stroke-miterlimit:10;stroke-dasharray:none;stroke-opacity:1"
         id="path448"
         inkscape:connector-curvature="0" /></g><g
       id="g450"
       transform="translate(725.9196,613.863)"><path
         d="m 0,0 c 1.44,4.974 6.653,7.831 11.623,6.37 l 1.009,-0.28 c 4.97,-1.459 7.827,-6.67 6.388,-11.642 l -10.553,-36.145 -19.016,5.552 z"
         style="fill:#674c2f;fill-opacity:1;fill-rule:nonzero;stroke:none"
         id="path452"
         inkscape:connector-curvature="0" /></g><g
       id="g454"
       transform="translate(725.9196,613.863)"><path
         d="m 0,0 c 1.44,4.974 6.653,7.831 11.623,6.37 l 1.009,-0.28 c 4.97,-1.459 7.827,-6.67 6.388,-11.642 l -10.553,-36.145 -19.016,5.552 z"
         style="fill:none;stroke:#794039;stroke-width:6;stroke-linecap:round;stroke-linejoin:round;stroke-miterlimit:10;stroke-dasharray:none;stroke-opacity:1"
         id="path456"
         inkscape:connector-curvature="0" /></g><g
       id="g458"
       transform="translate(672.5749,629.4326)"><path
         d="m 0,0 c 1.459,4.974 6.668,7.811 11.642,6.368 l 1.006,-0.294 c 4.97,-1.443 7.827,-6.654 6.368,-11.626 l -10.549,-36.143 -19,5.53 z"
         style="fill:#674c2f;fill-opacity:1;fill-rule:nonzero;stroke:none"
         id="path460"
         inkscape:connector-curvature="0" /></g><g
       id="g462"
       transform="translate(672.5749,629.4326)"><path
         d="m 0,0 c 1.459,4.974 6.668,7.811 11.642,6.368 l 1.006,-0.294 c 4.97,-1.443 7.827,-6.654 6.368,-11.626 l -10.549,-36.143 -19,5.53 z"
         style="fill:none;stroke:#794039;stroke-width:6;stroke-linecap:round;stroke-linejoin:round;stroke-miterlimit:10;stroke-dasharray:none;stroke-opacity:1"
         id="path464"
         inkscape:connector-curvature="0" /></g><g
       id="g466"
       transform="translate(644.0967,531.811)"><path
         d="m 0,0 10.553,36.145 c 1.444,4.973 6.652,7.829 11.622,6.389 l 1.006,-0.295 c 4.978,-1.463 7.835,-6.657 6.396,-11.626 L 19.02,-5.532 Z"
         style="fill:#674c2f;fill-opacity:1;fill-rule:nonzero;stroke:none"
         id="path468"
         inkscape:connector-curvature="0" /></g><g
       id="g470"
       transform="translate(644.0967,531.811)"><path
         d="m 0,0 10.553,36.145 c 1.444,4.973 6.652,7.829 11.622,6.389 l 1.006,-0.295 c 4.978,-1.463 7.835,-6.657 6.396,-11.626 L 19.02,-5.532 Z"
         style="fill:none;stroke:#794039;stroke-width:6;stroke-linecap:round;stroke-linejoin:round;stroke-miterlimit:10;stroke-dasharray:none;stroke-opacity:1"
         id="path472"
         inkscape:connector-curvature="0" /></g><g
       id="g474"
       transform="translate(663.3868,498.7338)"><path
         d="m 0,0 c 1.459,4.97 6.649,7.809 11.622,6.37 l 1.026,-0.296 c 4.974,-1.445 7.812,-6.656 6.368,-11.628 l -10.549,-36.143 -19,5.533 z"
         style="fill:#674c2f;fill-opacity:1;fill-rule:nonzero;stroke:none"
         id="path476"
         inkscape:connector-curvature="0" /></g><g
       id="g478"
       transform="translate(663.3868,498.7338)"><path
         d="m 0,0 c 1.459,4.97 6.649,7.809 11.622,6.37 l 1.026,-0.296 c 4.974,-1.445 7.812,-6.656 6.368,-11.628 l -10.549,-36.143 -19,5.533 z"
         style="fill:none;stroke:#794039;stroke-width:6;stroke-linecap:round;stroke-linejoin:round;stroke-miterlimit:10;stroke-dasharray:none;stroke-opacity:1"
         id="path480"
         inkscape:connector-curvature="0" /></g><g
       id="g482"
       transform="translate(672.1359,429.4922)"><path
         d="M 0,0 C 1.447,4.97 6.653,7.809 11.627,6.37 L 12.632,6.074 C 17.606,4.629 20.463,-0.582 19,-5.554 l -10.533,-36.143 -19.016,5.552 z"
         style="fill:#674c2f;fill-opacity:1;fill-rule:nonzero;stroke:none"
         id="path484"
         inkscape:connector-curvature="0" /></g><g
       id="g486"
       transform="translate(672.1359,429.4922)"><path
         d="M 0,0 C 1.447,4.97 6.653,7.809 11.627,6.37 L 12.632,6.074 C 17.606,4.629 20.463,-0.582 19,-5.554 l -10.533,-36.143 -19.016,5.552 z"
         style="fill:none;stroke:#794039;stroke-width:6;stroke-linecap:round;stroke-linejoin:round;stroke-miterlimit:10;stroke-dasharray:none;stroke-opacity:1"
         id="path488"
         inkscape:connector-curvature="0" /></g><g
       id="g490"
       transform="translate(653.9323,395.5782)"><path
         d="m 0,0 -19.02,5.536 10.553,36.143 c 1.44,4.972 6.649,7.833 11.623,6.388 l 1.005,-0.296 c 4.974,-1.461 7.832,-6.65 6.392,-11.622 z"
         style="fill:#674c2f;fill-opacity:1;fill-rule:nonzero;stroke:none"
         id="path492"
         inkscape:connector-curvature="0" /></g><g
       id="g494"
       transform="translate(653.9323,395.5782)"><path
         d="m 0,0 -19.02,5.536 10.553,36.143 c 1.44,4.972 6.649,7.833 11.623,6.388 l 1.005,-0.296 c 4.974,-1.461 7.832,-6.65 6.392,-11.622 z"
         style="fill:none;stroke:#794039;stroke-width:6;stroke-linecap:round;stroke-linejoin:round;stroke-miterlimit:10;stroke-dasharray:none;stroke-opacity:1"
         id="path496"
         inkscape:connector-curvature="0" /></g><g
       id="g498"
       transform="translate(636.7283,506.499)"><path
         d="m 0,0 c 1.443,4.972 6.653,7.831 11.622,6.388 l 1.01,-0.296 C 17.606,4.631 20.463,-0.559 19,-5.532 l -10.533,-36.165 -19.02,5.554 z"
         style="fill:#674c2f;fill-opacity:1;fill-rule:nonzero;stroke:none"
         id="path500"
         inkscape:connector-curvature="0" /></g><g
       id="g502"
       transform="translate(636.7283,506.499)"><path
         d="m 0,0 c 1.443,4.972 6.653,7.831 11.622,6.388 l 1.01,-0.296 C 17.606,4.631 20.463,-0.559 19,-5.532 l -10.533,-36.165 -19.02,5.554 z"
         style="fill:none;stroke:#794039;stroke-width:6;stroke-linecap:round;stroke-linejoin:round;stroke-miterlimit:10;stroke-dasharray:none;stroke-opacity:1"
         id="path504"
         inkscape:connector-curvature="0" /></g><g
       id="g506"
       transform="translate(618.7911,445.0401)"><path
         d="m 0,0 c 1.463,4.972 6.653,7.833 11.622,6.39 l 1.026,-0.298 c 4.974,-1.461 7.811,-6.672 6.368,-11.644 l -10.549,-36.143 -19.02,5.552 z"
         style="fill:#674c2f;fill-opacity:1;fill-rule:nonzero;stroke:none"
         id="path508"
         inkscape:connector-curvature="0" /></g><g
       id="g510"
       transform="translate(618.7911,445.0401)"><path
         d="m 0,0 c 1.463,4.972 6.653,7.833 11.622,6.39 l 1.026,-0.298 c 4.974,-1.461 7.811,-6.672 6.368,-11.644 l -10.549,-36.143 -19.02,5.552 z"
         style="fill:none;stroke:#794039;stroke-width:6;stroke-linecap:round;stroke-linejoin:round;stroke-miterlimit:10;stroke-dasharray:none;stroke-opacity:1"
         id="path512"
         inkscape:connector-curvature="0" /></g><g
       id="g514"
       transform="translate(590.3171,347.4385)"><path
         d="m 0,0 10.553,36.145 c 1.439,4.975 6.648,7.831 11.622,6.369 l 1.006,-0.273 c 4.974,-1.464 7.831,-6.675 6.368,-11.645 L 19.02,-5.552 Z"
         style="fill:#674c2f;fill-opacity:1;fill-rule:nonzero;stroke:none"
         id="path516"
         inkscape:connector-curvature="0" /></g><g
       id="g518"
       transform="translate(590.3171,347.4385)"><path
         d="m 0,0 10.553,36.145 c 1.439,4.975 6.648,7.831 11.622,6.369 l 1.006,-0.273 c 4.974,-1.464 7.831,-6.675 6.368,-11.645 L 19.02,-5.552 Z"
         style="fill:none;stroke:#794039;stroke-width:6;stroke-linecap:round;stroke-linejoin:round;stroke-miterlimit:10;stroke-dasharray:none;stroke-opacity:1"
         id="path520"
         inkscape:connector-curvature="0" /></g><g
       id="g522"
       transform="translate(616.9954,339.6555)"><path
         d="m 0,0 10.529,36.143 c 1.463,4.972 6.669,7.833 11.646,6.387 l 1.006,-0.295 c 4.97,-1.461 7.827,-6.651 6.364,-11.623 L 18.996,-5.552 Z"
         style="fill:#674c2f;fill-opacity:1;fill-rule:nonzero;stroke:none"
         id="path524"
         inkscape:connector-curvature="0" /></g><g
       id="g526"
       transform="translate(616.9954,339.6555)"><path
         d="m 0,0 10.529,36.143 c 1.463,4.972 6.669,7.833 11.646,6.387 l 1.006,-0.295 c 4.97,-1.461 7.827,-6.651 6.364,-11.623 L 18.996,-5.552 Z"
         style="fill:none;stroke:#794039;stroke-width:6;stroke-linecap:round;stroke-linejoin:round;stroke-miterlimit:10;stroke-dasharray:none;stroke-opacity:1"
         id="path528"
         inkscape:connector-curvature="0" /></g><g
       id="g530"
       transform="translate(643.646,331.8708)"><path
         d="m 0,0 10.553,36.162 c 1.459,4.972 6.649,7.816 11.622,6.37 l 1.006,-0.295 c 4.974,-1.446 7.831,-6.651 6.392,-11.626 L 19.02,-5.534 Z"
         style="fill:#674c2f;fill-opacity:1;fill-rule:nonzero;stroke:none"
         id="path532"
         inkscape:connector-curvature="0" /></g><g
       id="g534"
       transform="translate(643.646,331.8708)"><path
         d="m 0,0 10.553,36.162 c 1.459,4.972 6.649,7.816 11.622,6.37 l 1.006,-0.295 c 4.974,-1.446 7.831,-6.651 6.392,-11.626 L 19.02,-5.534 Z"
         style="fill:none;stroke:#794039;stroke-width:6;stroke-linecap:round;stroke-linejoin:round;stroke-miterlimit:10;stroke-dasharray:none;stroke-opacity:1"
         id="path536"
         inkscape:connector-curvature="0" /></g><g
       id="g538"
       transform="translate(699.8931,354.6965)"><path
         d="m 0,0 -10.553,-36.143 -19.016,5.552 10.545,36.145 c 1.444,4.97 6.653,7.831 11.623,6.37 l 1.013,-0.298 C -1.418,10.183 1.439,4.972 0,0"
         style="fill:#674c2f;fill-opacity:1;fill-rule:nonzero;stroke:none"
         id="path540"
         inkscape:connector-curvature="0" /></g><g
       id="g542"
       transform="translate(699.8931,354.6965)"><path
         d="m 0,0 -10.553,-36.143 -19.016,5.552 10.545,36.145 c 1.444,4.97 6.653,7.831 11.623,6.37 l 1.013,-0.298 C -1.418,10.183 1.439,4.972 0,0 Z"
         style="fill:none;stroke:#794039;stroke-width:6;stroke-linecap:round;stroke-linejoin:round;stroke-miterlimit:10;stroke-dasharray:none;stroke-opacity:1"
         id="path544"
         inkscape:connector-curvature="0" /></g><g
       id="g546"
       transform="translate(710.4169,428.0772)"><path
         d="m 0,0 1.026,-0.299 c 4.97,-1.44 7.811,-6.651 6.371,-11.623 l -10.552,-36.145 -19,5.555 10.533,36.142 C -10.163,-1.398 -4.974,1.459 0,0"
         style="fill:#674c2f;fill-opacity:1;fill-rule:nonzero;stroke:none"
         id="path548"
         inkscape:connector-curvature="0" /></g><g
       id="g550"
       transform="translate(710.4169,428.0772)"><path
         d="m 0,0 1.026,-0.299 c 4.97,-1.44 7.811,-6.651 6.371,-11.623 l -10.552,-36.145 -19,5.555 10.533,36.142 C -10.163,-1.398 -4.974,1.459 0,0 Z"
         style="fill:none;stroke:#794039;stroke-width:6;stroke-linecap:round;stroke-linejoin:round;stroke-miterlimit:10;stroke-dasharray:none;stroke-opacity:1"
         id="path552"
         inkscape:connector-curvature="0" /></g><g
       id="g554"
       transform="translate(709.0771,485.397)"><path
         d="m 0,0 -10.553,-36.143 -19.02,5.552 10.553,36.143 c 1.44,4.972 6.653,7.831 11.623,6.368 l 1.005,-0.296 C -1.414,10.183 1.443,4.972 0,0"
         style="fill:#674c2f;fill-opacity:1;fill-rule:nonzero;stroke:none"
         id="path556"
         inkscape:connector-curvature="0" /></g><g
       id="g558"
       transform="translate(709.0771,485.397)"><path
         d="m 0,0 -10.553,-36.143 -19.02,5.552 10.553,36.143 c 1.44,4.972 6.653,7.831 11.623,6.368 l 1.005,-0.296 C -1.414,10.183 1.443,4.972 0,0 Z"
         style="fill:none;stroke:#794039;stroke-width:6;stroke-linecap:round;stroke-linejoin:round;stroke-miterlimit:10;stroke-dasharray:none;stroke-opacity:1"
         id="path560"
         inkscape:connector-curvature="0" /></g><g
       id="g562"
       transform="translate(716.4455,510.7094)"><path
         d="m 0,0 -18.996,5.554 10.529,36.143 c 1.463,4.973 6.672,7.829 11.646,6.367 l 1.006,-0.295 c 4.97,-1.442 7.827,-6.651 6.364,-11.622 z"
         style="fill:#674c2f;fill-opacity:1;fill-rule:nonzero;stroke:none"
         id="path564"
         inkscape:connector-curvature="0" /></g><g
       id="g566"
       transform="translate(716.4455,510.7094)"><path
         d="m 0,0 -18.996,5.554 10.529,36.143 c 1.463,4.973 6.672,7.829 11.646,6.367 l 1.006,-0.295 c 4.97,-1.442 7.827,-6.651 6.364,-11.622 z"
         style="fill:none;stroke:#794039;stroke-width:6;stroke-linecap:round;stroke-linejoin:round;stroke-miterlimit:10;stroke-dasharray:none;stroke-opacity:1"
         id="path568"
         inkscape:connector-curvature="0" /></g><g
       id="g570"
       transform="translate(753.6729,539.0692)"><path
         d="m 0,0 -10.553,-36.145 -19.02,5.552 10.553,36.145 c 1.44,4.972 6.653,7.831 11.623,6.39 l 1.005,-0.3 C -1.414,10.181 1.44,4.972 0,0"
         style="fill:#674c2f;fill-opacity:1;fill-rule:nonzero;stroke:none"
         id="path572"
         inkscape:connector-curvature="0" /></g><g
       id="g574"
       transform="translate(753.6729,539.0692)"><path
         d="m 0,0 -10.553,-36.145 -19.02,5.552 10.553,36.145 c 1.44,4.972 6.653,7.831 11.623,6.39 l 1.005,-0.3 C -1.414,10.181 1.44,4.972 0,0 Z"
         style="fill:none;stroke:#794039;stroke-width:6;stroke-linecap:round;stroke-linejoin:round;stroke-miterlimit:10;stroke-dasharray:none;stroke-opacity:1"
         id="path576"
         inkscape:connector-curvature="0" /></g><g
       id="g578"
       transform="translate(771.5901,600.5458)"><path
         d="m 0,0 -10.529,-36.164 -19.016,5.554 10.549,36.142 c 1.444,4.972 6.653,7.834 11.626,6.388 l 1.006,-0.295 C -1.394,10.163 1.463,4.974 0,0"
         style="fill:#674c2f;fill-opacity:1;fill-rule:nonzero;stroke:none"
         id="path580"
         inkscape:connector-curvature="0" /></g><g
       id="g582"
       transform="translate(771.5901,600.5458)"><path
         d="m 0,0 -10.529,-36.164 -19.016,5.554 10.549,36.142 c 1.444,4.972 6.653,7.834 11.626,6.388 l 1.006,-0.295 C -1.394,10.163 1.463,4.974 0,0 Z"
         style="fill:none;stroke:#794039;stroke-width:6;stroke-linecap:round;stroke-linejoin:round;stroke-miterlimit:10;stroke-dasharray:none;stroke-opacity:1"
         id="path584"
         inkscape:connector-curvature="0" /></g><g
       id="g586"
       transform="translate(511.0627,334.1877)"><path
         d="m 0,0 c 0,0 -17.121,4.602 -24.363,28.625 -7.24,24.025 -8.385,84.029 0,108.055 8.386,24.026 27.731,42.427 39.314,26.071 C 26.533,146.391 33.545,71.051 25.558,38.85 17.571,6.643 5.99,1.531 0,0"
         style="fill:#4b823d;fill-opacity:1;fill-rule:nonzero;stroke:none"
         id="path588"
         inkscape:connector-curvature="0" /></g><g
       id="g590"
       transform="translate(511.0627,334.1877)"><path
         d="m 0,0 c 0,0 -17.121,4.602 -24.363,28.625 -7.24,24.025 -8.385,84.029 0,108.055 8.386,24.026 27.731,42.427 39.314,26.071 C 26.533,146.391 33.545,71.051 25.558,38.85 17.571,6.643 5.99,1.531 0,0 Z"
         style="fill:none;stroke:#794039;stroke-width:6;stroke-linecap:butt;stroke-linejoin:miter;stroke-miterlimit:10;stroke-dasharray:none;stroke-opacity:1"
         id="path592"
         inkscape:connector-curvature="0" /></g><g
       id="g594"
       transform="translate(503.3801,262.8937)"><path
         d="m 0,0 c 0,0 2.188,87.638 1.56,90.581 -0.623,2.949 -8.428,16.411 -8.428,16.411 0,0 9.992,-12.202 10.928,-7.155 0.939,5.049 2.811,43.335 2.811,43.335 0,0 0.624,-38.706 3.121,-38.286 2.499,0.421 12.802,15.568 12.802,15.568 0,0 -11.866,-20.197 -11.866,-27.768 C 10.928,85.114 11.868,0 11.868,0 Z"
         style="fill:#695020;fill-opacity:1;fill-rule:nonzero;stroke:none"
         id="path596"
         inkscape:connector-curvature="0" /></g><g
       id="g598"
       transform="translate(503.3801,262.8937)"><path
         d="m 0,0 c 0,0 2.188,87.638 1.56,90.581 -0.623,2.949 -8.428,16.411 -8.428,16.411 0,0 9.992,-12.202 10.928,-7.155 0.939,5.049 2.811,43.335 2.811,43.335 0,0 0.624,-38.706 3.121,-38.286 2.499,0.421 12.802,15.568 12.802,15.568 0,0 -11.866,-20.197 -11.866,-27.768 C 10.928,85.114 11.868,0 11.868,0 Z"
         style="fill:none;stroke:#794039;stroke-width:6;stroke-linecap:butt;stroke-linejoin:miter;stroke-miterlimit:10;stroke-dasharray:none;stroke-opacity:1"
         id="path600"
         inkscape:connector-curvature="0" /></g><g
       id="g602"
       transform="translate(1594.5056,322.5241)"><path
         d="m 0,0 c 0,0 -11.247,-8.078 -18.717,2.793 0,0 -12.452,-3.106 -15.256,8.385 0,0 -14.944,1.241 -14.322,12.735 0,0 -18.055,8.695 -6.224,25.158 0,0 -11.52,10.25 1.554,21.741 0,0 -9.961,14.907 7.473,19.256 0,0 1.558,17.707 18.991,13.668 0,0 4.668,14.909 21.481,9.318 0,0 15.103,11.204 23.661,-3.728 0,0 16.503,2.175 19.613,-11.492 0,0 15.878,-2.175 14.321,-18.015 0,0 12.19,-11.181 4.404,-24.535 0,0 7.763,-22.242 -9.075,-24.226 0,0 0.538,-9.85 -9.427,-14.199 0,0 -1.782,-11.892 -12.364,-10.026 0,0 -8.096,-9.01 -14.01,-4.04 z"
         style="fill:#b4cb34;fill-opacity:1;fill-rule:nonzero;stroke:none"
         id="path604"
         inkscape:connector-curvature="0" /></g><g
       id="g606"
       transform="translate(1594.5056,322.5241)"><path
         d="m 0,0 c 0,0 -11.247,-8.078 -18.717,2.793 0,0 -12.452,-3.106 -15.256,8.385 0,0 -14.944,1.241 -14.322,12.735 0,0 -18.055,8.695 -6.224,25.158 0,0 -11.52,10.25 1.554,21.741 0,0 -9.961,14.907 7.473,19.256 0,0 1.558,17.707 18.991,13.668 0,0 4.668,14.909 21.481,9.318 0,0 15.103,11.204 23.661,-3.728 0,0 16.503,2.175 19.613,-11.492 0,0 15.878,-2.175 14.321,-18.015 0,0 12.19,-11.181 4.404,-24.535 0,0 7.763,-22.242 -9.075,-24.226 0,0 0.538,-9.85 -9.427,-14.199 0,0 -1.782,-11.892 -12.364,-10.026 0,0 -8.096,-9.01 -14.01,-4.04 z"
         style="fill:none;stroke:#794039;stroke-width:6;stroke-linecap:butt;stroke-linejoin:miter;stroke-miterlimit:10;stroke-dasharray:none;stroke-opacity:1"
         id="path608"
         inkscape:connector-curvature="0" /></g><g
       id="g610"
       transform="translate(1575.7888,351.1765)"><path
         d="m 0,0 c 0,0 17.432,-1.806 18.678,-10.833 1.246,-9.026 -1.867,-81.839 -1.867,-81.839 H 35.49 c 0,0 -8.096,81.841 -5.293,87.773 2.8,5.931 11.83,9.284 11.83,9.284 0,0 -10.276,0.257 -13.697,-2.838 C 24.906,-1.549 20.545,-2.321 15.875,-1.549 11.207,-0.774 6.537,0.515 0,0"
         style="fill:#695020;fill-opacity:1;fill-rule:nonzero;stroke:none"
         id="path612"
         inkscape:connector-curvature="0" /></g><g
       id="g614"
       transform="translate(1575.7888,351.1765)"><path
         d="m 0,0 c 0,0 17.432,-1.806 18.678,-10.833 1.246,-9.026 -1.867,-81.839 -1.867,-81.839 H 35.49 c 0,0 -8.096,81.841 -5.293,87.773 2.8,5.931 11.83,9.284 11.83,9.284 0,0 -10.276,0.257 -13.697,-2.838 C 24.906,-1.549 20.545,-2.321 15.875,-1.549 11.207,-0.774 6.537,0.515 0,0 Z"
         style="fill:none;stroke:#794039;stroke-width:6;stroke-linecap:butt;stroke-linejoin:miter;stroke-miterlimit:10;stroke-dasharray:none;stroke-opacity:1"
         id="path616"
         inkscape:connector-curvature="0" /></g><g
       id="g618"
       transform="translate(1467.9912,344.6397)"><path
         d="m 0,0 c 0,0 -36.978,12.456 -45.632,39.184 -8.653,26.723 0.577,64.729 34.612,77.794 34.037,13.065 77.307,-9.501 79.612,-46.32 C 70.899,33.837 47.751,8.924 17.502,0 Z"
         style="fill:#94c85b;fill-opacity:1;fill-rule:nonzero;stroke:none"
         id="path620"
         inkscape:connector-curvature="0" /></g><g
       id="g622"
       transform="translate(1467.9912,344.6397)"><path
         d="m 0,0 c 0,0 -36.978,12.456 -45.632,39.184 -8.653,26.723 0.577,64.729 34.612,77.794 34.037,13.065 77.307,-9.501 79.612,-46.32 C 70.899,33.837 47.751,8.924 17.502,0 Z"
         style="fill:none;stroke:#794039;stroke-width:6;stroke-linecap:butt;stroke-linejoin:miter;stroke-miterlimit:10;stroke-dasharray:none;stroke-opacity:1"
         id="path624"
         inkscape:connector-curvature="0" /></g><g
       id="g626"
       transform="translate(1470.9688,260.0674)"><path
         d="m 0,0 c 0,0 2.633,92.292 1.879,95.474 -0.752,3.185 -10.15,17.734 -10.15,17.734 0,0 12.031,-13.185 13.158,-7.73 1.128,5.455 3.384,46.833 3.384,46.833 0,0 0.751,-41.832 3.76,-41.378 3.006,0.457 15.414,16.825 15.414,16.825 0,0 -14.288,-21.827 -14.288,-30.01 C 13.157,89.565 14.288,0 14.288,0 Z"
         style="fill:#695020;fill-opacity:1;fill-rule:nonzero;stroke:none"
         id="path628"
         inkscape:connector-curvature="0" /></g><g
       id="g630"
       transform="translate(1470.9688,260.0674)"><path
         d="m 0,0 c 0,0 2.633,92.292 1.879,95.474 -0.752,3.185 -10.15,17.734 -10.15,17.734 0,0 12.031,-13.185 13.158,-7.73 1.128,5.455 3.384,46.833 3.384,46.833 0,0 0.751,-41.832 3.76,-41.378 3.006,0.457 15.414,16.825 15.414,16.825 0,0 -14.288,-21.827 -14.288,-30.01 C 13.157,89.565 14.288,0 14.288,0 Z"
         style="fill:none;stroke:#794039;stroke-width:6;stroke-linecap:butt;stroke-linejoin:miter;stroke-miterlimit:10;stroke-dasharray:none;stroke-opacity:1"
         id="path632"
         inkscape:connector-curvature="0" /></g><g
       id="g634"
       transform="translate(69.6697,396.9298)"><path
         d="m 0,0 c -4.866,17.326 -20.939,25.396 -35.53,25.448 -5.866,15.07 -25.337,23.266 -41.128,17.205 -18.315,-7.03 -23.28,-27.482 -18.625,-41.862 0.001,-0.003 0.002,-0.006 0.004,-0.01 -5.496,-2.413 -10.39,-6.644 -14.01,-12.953 -8.24,-14.36 2.387,-33.51 18.363,-37.031 14.595,-3.219 26.577,6.478 31.11,17.437 6.67,-7.314 16.169,-12.103 28.263,-12.466 C -9.801,-44.889 5.815,-20.704 0,0"
         style="fill:#88c881;fill-opacity:1;fill-rule:nonzero;stroke:none"
         id="path636"
         inkscape:connector-curvature="0" /></g><g
       id="g638"
       transform="translate(69.6697,396.9298)"><path
         d="m 0,0 c -4.866,17.326 -20.939,25.396 -35.53,25.448 -5.866,15.07 -25.337,23.266 -41.128,17.205 -18.315,-7.03 -23.28,-27.482 -18.625,-41.862 0.001,-0.003 0.002,-0.006 0.004,-0.01 -5.496,-2.413 -10.39,-6.644 -14.01,-12.953 -8.24,-14.36 2.387,-33.51 18.363,-37.031 14.595,-3.219 26.577,6.478 31.11,17.437 6.67,-7.314 16.169,-12.103 28.263,-12.466 C -9.801,-44.889 5.815,-20.704 0,0 Z"
         style="fill:none;stroke:#794039;stroke-width:6;stroke-linecap:butt;stroke-linejoin:miter;stroke-miterlimit:10;stroke-dasharray:none;stroke-opacity:1"
         id="path640"
         inkscape:connector-curvature="0" /></g><g
       id="g642"
       transform="translate(4.7761,260.8937)"><path
         d="m 0,0 c 0,0 2.633,92.292 1.88,95.474 -0.752,3.185 -10.151,17.734 -10.151,17.734 0,0 12.032,-13.185 13.159,-7.73 1.127,5.455 3.383,46.833 3.383,46.833 0,0 0.752,-41.832 3.761,-41.378 3.006,0.457 15.414,16.825 15.414,16.825 0,0 -14.289,-21.827 -14.289,-30.01 C 13.157,89.565 14.289,0 14.289,0 Z"
         style="fill:#695020;fill-opacity:1;fill-rule:nonzero;stroke:none"
         id="path644"
         inkscape:connector-curvature="0" /></g><g
       id="g646"
       transform="translate(4.7761,260.8937)"><path
         d="m 0,0 c 0,0 2.633,92.292 1.88,95.474 -0.752,3.185 -10.151,17.734 -10.151,17.734 0,0 12.032,-13.185 13.159,-7.73 1.127,5.455 3.383,46.833 3.383,46.833 0,0 0.752,-41.832 3.761,-41.378 3.006,0.457 15.414,16.825 15.414,16.825 0,0 -14.289,-21.827 -14.289,-30.01 C 13.157,89.565 14.289,0 14.289,0 Z"
         style="fill:none;stroke:#794039;stroke-width:6;stroke-linecap:butt;stroke-linejoin:miter;stroke-miterlimit:10;stroke-dasharray:none;stroke-opacity:1"
         id="path648"
         inkscape:connector-curvature="0" /></g><g
       id="g650"
       transform="translate(1418.4539,258.7131)"><path
         d="m 0,0 c 0,0 -21.041,8.859 -5.163,21.511 0,0 -18.738,16.028 -5.983,26.352 12.754,10.325 26.06,-6.85 26.06,-6.85 0,0 -11.513,16.102 4.484,19.469 16.347,3.442 13.584,-16.601 13.584,-16.601 0,0 2.473,22.732 20.362,12.905 16.243,-8.923 10.325,-22.943 -1.434,-24.951 0,0 17.208,5.449 20.076,-5.162 2.868,-10.612 -13.193,-13.767 -13.193,-13.767 0,0 18.642,4.015 21.51,-4.589 C 83.171,-0.287 60.983,0 60.983,0 Z"
         style="fill:#94c85b;fill-opacity:1;fill-rule:nonzero;stroke:none"
         id="path652"
         inkscape:connector-curvature="0" /></g><g
       id="g654"
       transform="translate(1418.4539,258.7131)"><path
         d="m 0,0 c 0,0 -21.041,8.859 -5.163,21.511 0,0 -18.738,16.028 -5.983,26.352 12.754,10.325 26.06,-6.85 26.06,-6.85 0,0 -11.513,16.102 4.484,19.469 16.347,3.442 13.584,-16.601 13.584,-16.601 0,0 2.473,22.732 20.362,12.905 16.243,-8.923 10.325,-22.943 -1.434,-24.951 0,0 17.208,5.449 20.076,-5.162 2.868,-10.612 -13.193,-13.767 -13.193,-13.767 0,0 18.642,4.015 21.51,-4.589 C 83.171,-0.287 60.983,0 60.983,0 Z"
         style="fill:none;stroke:#794039;stroke-width:6;stroke-linecap:round;stroke-linejoin:round;stroke-miterlimit:10;stroke-dasharray:none;stroke-opacity:1"
         id="path656"
         inkscape:connector-curvature="0" /></g><g
       id="g658"
       transform="translate(27.7691,255.9342)"><path
         d="M 0,0 C 0,0 -12.504,12.504 -6.008,27.769 0.487,43.034 19.974,40.6 19.974,40.6 c 0,0 -5.683,17.244 15.915,24.293 21.599,7.047 33.291,-15.688 33.291,-15.688 0,0 1.136,11.366 11.042,10.555 9.906,-0.812 6.171,-14.616 2.111,-17.537 0,0 11.206,10.392 18.187,1.461 6.984,-8.932 -10.555,-10.561 -10.555,-10.561 0,0 15.59,2.498 20.624,-6.786 5.035,-9.286 -3.573,-13.833 -3.573,-13.833 0,0 11.53,4.547 14.616,-1.461 C 124.718,5.035 105.88,0.812 105.88,0.812 Z"
         style="fill:#88c881;fill-opacity:1;fill-rule:nonzero;stroke:none"
         id="path660"
         inkscape:connector-curvature="0" /></g><g
       id="g662"
       transform="translate(27.7691,255.9342)"><path
         d="M 0,0 C 0,0 -12.504,12.504 -6.008,27.769 0.487,43.034 19.974,40.6 19.974,40.6 c 0,0 -5.683,17.244 15.915,24.293 21.599,7.047 33.291,-15.688 33.291,-15.688 0,0 1.136,11.366 11.042,10.555 9.906,-0.812 6.171,-14.616 2.111,-17.537 0,0 11.206,10.392 18.187,1.461 6.984,-8.932 -10.555,-10.561 -10.555,-10.561 0,0 15.59,2.498 20.624,-6.786 5.035,-9.286 -3.573,-13.833 -3.573,-13.833 0,0 11.53,4.547 14.616,-1.461 C 124.718,5.035 105.88,0.812 105.88,0.812 Z"
         style="fill:none;stroke:#794039;stroke-width:6;stroke-linecap:round;stroke-linejoin:round;stroke-miterlimit:10;stroke-dasharray:none;stroke-opacity:1"
         id="path664"
         inkscape:connector-curvature="0" /></g><g
       id="g666"
       transform="translate(960.9314,260.7121)"><path
         d="m 0,0 c 0,0 -13.664,3.727 -8.281,16.564 5.383,12.835 16.976,4.139 16.976,4.139 0,0 -11.593,9.524 -2.484,17.806 9.109,8.281 11.595,-9.939 11.595,-9.939 0,0 -4.555,21.946 15.32,25.673 19.875,3.727 25.672,-24.844 25.672,-24.844 0,0 2.07,21.532 11.181,22.36 9.109,0.828 0,-19.461 0,-19.461 0,0 11.133,17.391 27.512,4.968 C 113.87,24.844 93.994,0 93.994,0 Z"
         style="fill:#4b823d;fill-opacity:1;fill-rule:nonzero;stroke:none"
         id="path668"
         inkscape:connector-curvature="0" /></g><g
       id="g670"
       transform="translate(960.9314,260.7121)"><path
         d="m 0,0 c 0,0 -13.664,3.727 -8.281,16.564 5.383,12.835 16.976,4.139 16.976,4.139 0,0 -11.593,9.524 -2.484,17.806 9.109,8.281 11.595,-9.939 11.595,-9.939 0,0 -4.555,21.946 15.32,25.673 19.875,3.727 25.672,-24.844 25.672,-24.844 0,0 2.07,21.532 11.181,22.36 9.109,0.828 0,-19.461 0,-19.461 0,0 11.133,17.391 27.512,4.968 C 113.87,24.844 93.994,0 93.994,0 Z"
         style="fill:none;stroke:#794039;stroke-width:6;stroke-linecap:round;stroke-linejoin:round;stroke-miterlimit:10;stroke-dasharray:none;stroke-opacity:1"
         id="path672"
         inkscape:connector-curvature="0" /></g><g
       id="g674"
       transform="translate(688.9314,264.7121)"><path
         d="m 0,0 c 0,0 -13.664,3.727 -8.281,16.564 5.383,12.835 16.976,4.139 16.976,4.139 0,0 -11.593,9.524 -2.484,17.806 9.109,8.281 11.595,-9.939 11.595,-9.939 0,0 -4.555,21.946 15.32,25.673 19.875,3.727 25.672,-24.844 25.672,-24.844 0,0 2.07,21.532 11.181,22.36 9.109,0.828 0,-19.461 0,-19.461 0,0 11.133,17.391 27.512,4.968 C 113.87,24.844 93.994,0 93.994,0 Z"
         style="fill:#4b823d;fill-opacity:1;fill-rule:nonzero;stroke:none"
         id="path676"
         inkscape:connector-curvature="0" /></g><g
       id="g678"
       transform="translate(688.9314,264.7121)"><path
         d="m 0,0 c 0,0 -13.664,3.727 -8.281,16.564 5.383,12.835 16.976,4.139 16.976,4.139 0,0 -11.593,9.524 -2.484,17.806 9.109,8.281 11.595,-9.939 11.595,-9.939 0,0 -4.555,21.946 15.32,25.673 19.875,3.727 25.672,-24.844 25.672,-24.844 0,0 2.07,21.532 11.181,22.36 9.109,0.828 0,-19.461 0,-19.461 0,0 11.133,17.391 27.512,4.968 C 113.87,24.844 93.994,0 93.994,0 Z"
         style="fill:none;stroke:#794039;stroke-width:6;stroke-linecap:round;stroke-linejoin:round;stroke-miterlimit:10;stroke-dasharray:none;stroke-opacity:1"
         id="path680"
         inkscape:connector-curvature="0" /></g><g
       id="g1262"
       transform="translate(1675.2018,567.1721)"><path
         d="m 0,0 c 0.305,1.677 0.488,3.397 0.488,5.162 0,15.871 -12.866,28.736 -28.737,28.736 -4.209,0 -8.196,-0.926 -11.798,-2.553 -4.368,21.016 -22.984,36.81 -45.296,36.81 -21.436,0 -39.416,-14.599 -44.671,-34.382 -6.156,4.073 -13.526,6.457 -21.46,6.457 -21.188,0 -38.389,-16.921 -38.915,-37.982 -11.103,-5.079 -18.882,-16.279 -18.882,-29.231 0,-17.681 14.466,-32.147 32.146,-32.147 H -17.37 c 17.68,0 32.145,14.466 32.145,32.147 C 14.775,-15.696 8.865,-5.739 0,0"
         style="fill:#ffffff;fill-opacity:1;fill-rule:nonzero;stroke:none"
         id="path1264"
         inkscape:connector-curvature="0" /></g><g
       id="g1266"
       transform="translate(1675.2018,567.1721)"><path
         d="m 0,0 c 0.305,1.677 0.488,3.397 0.488,5.162 0,15.871 -12.866,28.736 -28.737,28.736 -4.209,0 -8.196,-0.926 -11.798,-2.553 -4.368,21.016 -22.984,36.81 -45.296,36.81 -21.436,0 -39.416,-14.599 -44.671,-34.382 -6.156,4.073 -13.526,6.457 -21.46,6.457 -21.188,0 -38.389,-16.921 -38.915,-37.982 -11.103,-5.079 -18.882,-16.279 -18.882,-29.231 0,-17.681 14.466,-32.147 32.146,-32.147 H -17.37 c 17.68,0 32.145,14.466 32.145,32.147 C 14.775,-15.696 8.865,-5.739 0,0 Z"
         style="fill:none;stroke:#794039;stroke-width:6;stroke-linecap:butt;stroke-linejoin:miter;stroke-miterlimit:10;stroke-dasharray:none;stroke-opacity:1"
         id="path1268"
         inkscape:connector-curvature="0" /></g><g
       id="g1270"
       transform="translate(49.5269,699.1457)"><path
         d="m 0,0 c 0.305,1.677 0.488,3.397 0.488,5.162 0,15.871 -12.866,28.736 -28.736,28.736 -4.21,0 -8.197,-0.927 -11.799,-2.553 -4.368,21.016 -22.984,36.81 -45.296,36.81 -21.436,0 -39.416,-14.599 -44.671,-34.382 -6.156,4.073 -13.526,6.457 -21.46,6.457 -21.188,0 -38.389,-16.921 -38.915,-37.982 -11.103,-5.079 -18.882,-16.279 -18.882,-29.232 0,-17.68 14.466,-32.146 32.146,-32.146 H -17.37 c 17.68,0 32.145,14.466 32.145,32.146 C 14.775,-15.696 8.865,-5.739 0,0"
         style="fill:#ffffff;fill-opacity:1;fill-rule:nonzero;stroke:none"
         id="path1272"
         inkscape:connector-curvature="0" /></g><g
       id="g1274"
       transform="translate(49.5269,699.1457)"><path
         d="m 0,0 c 0.305,1.677 0.488,3.397 0.488,5.162 0,15.871 -12.866,28.736 -28.736,28.736 -4.21,0 -8.197,-0.927 -11.799,-2.553 -4.368,21.016 -22.984,36.81 -45.296,36.81 -21.436,0 -39.416,-14.599 -44.671,-34.382 -6.156,4.073 -13.526,6.457 -21.46,6.457 -21.188,0 -38.389,-16.921 -38.915,-37.982 -11.103,-5.079 -18.882,-16.279 -18.882,-29.232 0,-17.68 14.466,-32.146 32.146,-32.146 H -17.37 c 17.68,0 32.145,14.466 32.145,32.146 C 14.775,-15.696 8.865,-5.739 0,0 Z"
         style="fill:none;stroke:#794039;stroke-width:6;stroke-linecap:butt;stroke-linejoin:miter;stroke-miterlimit:10;stroke-dasharray:none;stroke-opacity:1"
         id="path1276"
         inkscape:connector-curvature="0" /></g></g></svg>