<?xml version="1.0" encoding="UTF-8" standalone="no"?>
<!-- Created with Inkscape (http://www.inkscape.org/) -->

<svg
   xmlns:dc="http://purl.org/dc/elements/1.1/"
   xmlns:cc="http://creativecommons.org/ns#"
   xmlns:rdf="http://www.w3.org/1999/02/22-rdf-syntax-ns#"
   xmlns:svg="http://www.w3.org/2000/svg"
   xmlns="http://www.w3.org/2000/svg"
   xmlns:sodipodi="http://sodipodi.sourceforge.net/DTD/sodipodi-0.dtd"
   xmlns:inkscape="http://www.inkscape.org/namespaces/inkscape"
   width="175.39816mm"
   height="255.16328mm"
   viewBox="0 0 175.39816 255.16328"
   version="1.1"
   id="svg7832"
   inkscape:version="0.92.4 (unknown)"
   sodipodi:docname="warrior.svg">
  <defs
     id="defs7826" />
  <sodipodi:namedview
     id="base"
     pagecolor="#ffffff"
     bordercolor="#666666"
     borderopacity="1.0"
     inkscape:pageopacity="0.0"
     inkscape:pageshadow="2"
     inkscape:zoom="0.35"
     inkscape:cx="-214.25319"
     inkscape:cy="459.34118"
     inkscape:document-units="mm"
     inkscape:current-layer="layer1"
     showgrid="false"
     inkscape:window-width="1920"
     inkscape:window-height="1016"
     inkscape:window-x="0"
     inkscape:window-y="27"
     inkscape:window-maximized="1" />
  <metadata
     id="metadata7829">
    <rdf:RDF>
      <cc:Work
         rdf:about="">
        <dc:format>image/svg+xml</dc:format>
        <dc:type
           rdf:resource="http://purl.org/dc/dcmitype/StillImage" />
        <dc:title></dc:title>
      </cc:Work>
    </rdf:RDF>
  </metadata>
  <g
     inkscape:label="Layer 1"
     inkscape:groupmode="layer"
     id="layer1"
     transform="translate(-8.3068696,-15.204073)">
    <g
       transform="matrix(0.35277777,0,0,-0.35277777,-50.279555,383.95368)"
       id="g6232">
      <g
         transform="translate(359.2536,616.8696)"
         id="g20">
        <path
           inkscape:connector-curvature="0"
           id="path22"
           style="fill:#cf363d;fill-opacity:1;fill-rule:nonzero;stroke:none"
           d="m 0,0 c -16.483,-23.518 -31.531,-47.953 -42.672,-75.072 -7.801,-18.989 -13.694,-39.955 -8.831,-59.9 4.645,10.415 18.693,13.357 29.624,10.11 10.932,-3.247 19.905,-10.889 29.667,-16.783 12.373,-7.469 26.606,-12.277 41.057,-12.083 18.861,0.253 37.399,8.887 56.027,5.927 12.179,-1.935 22.983,-8.639 34.414,-13.265 20.51,-8.3 43.293,-9.896 65.273,-7.361 21.98,2.536 43.308,9.052 64.134,16.525 -0.653,14.329 -3.741,28.422 -6.819,42.432 0,16.018 -6.286,31.278 -9.48,46.688 -3.588,17.315 -7.823,34.496 -12.58,51.535 -9.622,34.469 -21.4,68.337 -35.252,101.335 -0.793,1.889 -1.686,3.89 -3.413,4.992 -1.609,1.027 -3.632,1.074 -5.54,1.088 -10.268,0.078 -18.512,2.13 -28.174,-1.232 -11.301,-3.933 -22.701,-5.703 -34.641,-3.927 -17.412,2.635 -34.933,12.076 -51.71,6.72 C 70.737,94.426 62.879,85.968 56.631,77.083 38.227,50.914 18.235,26.017 0,0" />
      </g>
      <g
         transform="translate(359.2536,616.8696)"
         id="g24">
        <path
           inkscape:connector-curvature="0"
           id="path26"
           style="fill:none;stroke:#794039;stroke-width:4.76300001;stroke-linecap:round;stroke-linejoin:round;stroke-miterlimit:10;stroke-dasharray:none;stroke-opacity:1"
           d="m 0,0 c -16.483,-23.518 -31.531,-47.953 -42.672,-75.072 -7.801,-18.989 -13.694,-39.955 -8.831,-59.9 4.645,10.415 18.693,13.357 29.624,10.11 10.932,-3.247 19.905,-10.889 29.667,-16.783 12.373,-7.469 26.606,-12.277 41.057,-12.083 18.861,0.253 37.399,8.887 56.027,5.927 12.179,-1.935 22.983,-8.639 34.414,-13.265 20.51,-8.3 43.293,-9.896 65.273,-7.361 21.98,2.536 43.308,9.052 64.134,16.525 -0.653,14.329 -3.741,28.422 -6.819,42.432 0,16.018 -6.286,31.278 -9.48,46.688 -3.588,17.315 -7.823,34.496 -12.58,51.535 -9.622,34.469 -21.4,68.337 -35.252,101.335 -0.793,1.889 -1.686,3.89 -3.413,4.992 -1.609,1.027 -3.632,1.074 -5.54,1.088 -10.268,0.078 -18.512,2.13 -28.174,-1.232 -11.301,-3.933 -22.701,-5.703 -34.641,-3.927 -17.412,2.635 -34.933,12.076 -51.71,6.72 C 70.737,94.426 62.879,85.968 56.631,77.083 38.227,50.914 18.235,26.017 0,0 Z" />
      </g>
      <g
         transform="translate(479.8201,583.3766)"
         id="g28">
        <path
           inkscape:connector-curvature="0"
           id="path30"
           style="fill:#ffdbc2;fill-opacity:1;fill-rule:nonzero;stroke:none"
           d="m 0,0 c -5.098,0.974 -11.068,-1.709 -15.145,-5.275 -8.095,-7.08 -12.9,-16.924 -17.505,-26.502 -4.416,-9.184 -7.071,4.572 -7.75,-5.594 -0.699,-10.455 -7.457,-45.168 -9.04,-55.547 -3.108,-20.377 -6.241,-40.755 -9.722,-61.072 -2.675,-15.611 -5.189,-31.255 -8.389,-46.77 -1.6,-7.757 -3.365,-15.482 -5.414,-23.135 -1.548,-5.78 -4.727,-11.001 -7.304,-16.374 -2.337,-4.869 -5.617,-9.252 0.517,-12.759 5.512,-3.151 12.173,-4.369 18.488,-4.13 5.518,0.209 14.225,1.626 18.457,5.216 12.298,10.448 17.108,24.909 20.345,39.308 6.66,29.615 13.822,58.435 21.394,87.663 4.683,18.078 19.062,86.363 15.792,105.151 -0.948,5.444 -3.623,8.915 -6.771,13.525 -1.094,1.602 -2.215,3.232 -3.768,4.43 C 2.911,-0.884 1.493,-0.285 0,0" />
      </g>
      <g
         transform="translate(479.8201,583.3766)"
         id="g32">
        <path
           inkscape:connector-curvature="0"
           id="path34"
           style="fill:none;stroke:#794039;stroke-width:4.76300001;stroke-linecap:round;stroke-linejoin:round;stroke-miterlimit:10;stroke-dasharray:none;stroke-opacity:1"
           d="m 0,0 c -5.098,0.974 -11.068,-1.709 -15.145,-5.275 -8.095,-7.08 -12.9,-16.924 -17.505,-26.502 -4.416,-9.184 -7.071,4.572 -7.75,-5.594 -0.699,-10.455 -7.457,-45.168 -9.04,-55.547 -3.108,-20.377 -6.241,-40.755 -9.722,-61.072 -2.675,-15.611 -5.189,-31.255 -8.389,-46.77 -1.6,-7.757 -3.365,-15.482 -5.414,-23.135 -1.548,-5.78 -4.727,-11.001 -7.304,-16.374 -2.337,-4.869 -5.617,-9.252 0.517,-12.759 5.512,-3.151 12.173,-4.369 18.488,-4.13 5.518,0.209 14.225,1.626 18.457,5.216 12.298,10.448 17.108,24.909 20.345,39.308 6.66,29.615 13.822,58.435 21.394,87.663 4.683,18.078 19.062,86.363 15.792,105.151 -0.948,5.444 -3.623,8.915 -6.771,13.525 -1.094,1.602 -2.215,3.232 -3.768,4.43 C 2.911,-0.884 1.493,-0.285 0,0 Z" />
      </g>
      <g
         transform="translate(483.062,475.7144)"
         id="g36">
        <path
           inkscape:connector-curvature="0"
           id="path38"
           style="fill:#cf363d;fill-opacity:1;fill-rule:nonzero;stroke:none"
           d="m 0,0 c -8.341,-4.781 -18.407,-6.474 -27.853,-4.686 -9.447,1.789 -18.197,7.045 -24.213,14.545 -1.198,-9.11 -4.063,-17.62 -5.496,-26.682 -1.557,-9.844 -3.159,-19.682 -4.842,-29.505 -2.675,-15.611 -5.189,-31.255 -8.389,-46.77 -1.6,-7.757 -3.365,-15.482 -5.414,-23.135 -1.548,-5.779 -4.726,-11.001 -7.304,-16.374 -2.336,-4.869 -5.617,-9.252 0.517,-12.759 5.513,-3.151 12.173,-4.369 18.488,-4.13 5.518,0.21 14.225,1.626 18.457,5.217 12.298,10.447 17.108,24.908 20.346,39.307 6.659,29.615 13.821,58.436 21.393,87.663 0.749,2.894 1.114,5.964 1.887,8.812 C -2.117,-7.368 -0.493,-0.283 0,0" />
      </g>
      <g
         transform="translate(483.062,475.7144)"
         id="g40">
        <path
           inkscape:connector-curvature="0"
           id="path42"
           style="fill:none;stroke:#794039;stroke-width:4.76300001;stroke-linecap:round;stroke-linejoin:round;stroke-miterlimit:10;stroke-dasharray:none;stroke-opacity:1"
           d="m 0,0 c -8.341,-4.781 -18.407,-6.474 -27.853,-4.686 -9.447,1.789 -18.197,7.045 -24.213,14.545 -1.198,-9.11 -4.063,-17.62 -5.496,-26.682 -1.557,-9.844 -3.159,-19.682 -4.842,-29.505 -2.675,-15.611 -5.189,-31.255 -8.389,-46.77 -1.6,-7.757 -3.365,-15.482 -5.414,-23.135 -1.548,-5.779 -4.726,-11.001 -7.304,-16.374 -2.336,-4.869 -5.617,-9.252 0.517,-12.759 5.513,-3.151 12.173,-4.369 18.488,-4.13 5.518,0.21 14.225,1.626 18.457,5.217 12.298,10.447 17.108,24.908 20.346,39.307 6.659,29.615 13.821,58.436 21.393,87.663 0.749,2.894 1.114,5.964 1.887,8.812 C -2.117,-7.368 -0.493,-0.283 0,0 Z" />
      </g>
      <g
         transform="translate(533.9261,574.7959)"
         id="g44">
        <path
           inkscape:connector-curvature="0"
           id="path46"
           style="fill:#ffdbc2;fill-opacity:1;fill-rule:nonzero;stroke:none"
           d="m 0,0 c 0.713,0.571 1.457,1.112 2.237,1.618 5.851,3.799 14.218,5.175 20.079,1.666 6.961,-4.168 11.528,-13.015 11.407,-20.59 -0.453,-28.428 -2.409,-95.549 -2.414,-134.318 -0.002,-14.252 -0.162,-28.512 0.354,-42.746 0.258,-7.117 0.68,-14.226 1.386,-21.308 0.533,-5.348 2.719,-10.41 4.305,-15.528 1.438,-4.639 3.86,-8.968 -2.589,-11.3 -5.796,-2.096 -12.374,-2.322 -18.38,-1.294 -5.25,0.899 -13.354,3.284 -16.816,7.029 -10.061,10.893 -12.291,24.396 -13.028,37.641 -1.514,27.241 -3.64,53.839 -6.091,80.853 -1.517,16.709 -4.074,79.394 2.142,95.709 C -14.219,-14.199 -7.235,-5.998 0,0" />
      </g>
      <g
         transform="translate(533.9261,574.7959)"
         id="g48">
        <path
           inkscape:connector-curvature="0"
           id="path50"
           style="fill:none;stroke:#794039;stroke-width:5.04899979;stroke-linecap:round;stroke-linejoin:round;stroke-miterlimit:10;stroke-dasharray:none;stroke-opacity:1"
           d="m 0,0 c 0.713,0.571 1.457,1.112 2.237,1.618 5.851,3.799 14.218,5.175 20.079,1.666 6.961,-4.168 11.528,-13.015 11.407,-20.59 -0.453,-28.428 -2.409,-95.549 -2.414,-134.318 -0.002,-14.252 -0.162,-28.512 0.354,-42.746 0.258,-7.117 0.68,-14.226 1.386,-21.308 0.533,-5.348 2.719,-10.41 4.305,-15.528 1.438,-4.639 3.86,-8.968 -2.589,-11.3 -5.796,-2.096 -12.374,-2.322 -18.38,-1.294 -5.25,0.899 -13.354,3.284 -16.816,7.029 -10.061,10.893 -12.291,24.396 -13.028,37.641 -1.514,27.241 -3.64,53.839 -6.091,80.853 -1.517,16.709 -4.074,79.394 2.142,95.709 C -14.219,-14.199 -7.235,-5.998 0,0 Z" />
      </g>
      <g
         transform="translate(565.2352,423.1721)"
         id="g52">
        <path
           inkscape:connector-curvature="0"
           id="path54"
           style="fill:#cf363d;fill-opacity:1;fill-rule:nonzero;stroke:none"
           d="m 0,0 c -0.002,-14.252 -0.162,-28.512 0.354,-42.747 0.258,-7.116 0.68,-14.225 1.386,-21.307 0.533,-5.349 2.719,-10.41 4.305,-15.529 1.438,-4.639 3.859,-8.967 -2.59,-11.299 -5.795,-2.096 -12.373,-2.322 -18.379,-1.294 -5.25,0.899 -13.354,3.284 -16.816,7.029 -10.061,10.893 -12.292,24.396 -13.028,37.641 -1.514,27.24 -3.64,53.838 -6.091,80.85 -0.653,7.199 -1.458,14.44 -0.858,21.669 4.335,-7.854 12.373,-13.555 21.218,-15.05 2.742,-0.463 5.532,-0.542 8.312,-0.619 11.628,-0.325 17.37,1.517 22.165,12.473 C -0.726,50.208 0.432,43.777 0.454,41.593 0.502,36.514 0.282,31.418 0.212,26.339 0.092,17.56 0.001,8.78 0,0" />
      </g>
      <g
         transform="translate(565.2352,423.1721)"
         id="g56">
        <path
           inkscape:connector-curvature="0"
           id="path58"
           style="fill:none;stroke:#794039;stroke-width:4.76300001;stroke-linecap:round;stroke-linejoin:round;stroke-miterlimit:10;stroke-dasharray:none;stroke-opacity:1"
           d="m 0,0 c -0.002,-14.252 -0.162,-28.512 0.354,-42.747 0.258,-7.116 0.68,-14.225 1.386,-21.307 0.533,-5.349 2.719,-10.41 4.305,-15.529 1.438,-4.639 3.859,-8.967 -2.59,-11.299 -5.795,-2.096 -12.373,-2.322 -18.379,-1.294 -5.25,0.899 -13.354,3.284 -16.816,7.029 -10.061,10.893 -12.292,24.396 -13.028,37.641 -1.514,27.24 -3.64,53.838 -6.091,80.85 -0.653,7.199 -1.458,14.44 -0.858,21.669 4.335,-7.854 12.373,-13.555 21.218,-15.05 2.742,-0.463 5.532,-0.542 8.312,-0.619 11.628,-0.325 17.37,1.517 22.165,12.473 C -0.726,50.208 0.432,43.777 0.454,41.593 0.502,36.514 0.282,31.418 0.212,26.339 0.092,17.56 0.001,8.78 0,0 Z" />
      </g>
      <g
         transform="translate(564.7622,605.8188)"
         id="g60">
        <path
           inkscape:connector-curvature="0"
           id="path62"
           style="fill:#ffdbc2;fill-opacity:1;fill-rule:nonzero;stroke:none"
           d="m 0,0 c 0.607,-2.173 8.826,-39.781 3.598,-77.042 -5.228,-37.262 -124.636,0.191 -126.895,23.036 -2.259,22.845 17.795,58.638 24.258,68.154 C -92.576,23.665 -5.12,18.329 0,0" />
      </g>
      <g
         transform="translate(564.7622,605.8188)"
         id="g64">
        <path
           inkscape:connector-curvature="0"
           id="path66"
           style="fill:none;stroke:#794039;stroke-width:4.76300001;stroke-linecap:round;stroke-linejoin:round;stroke-miterlimit:10;stroke-dasharray:none;stroke-opacity:1"
           d="m 0,0 c 0.607,-2.173 8.826,-39.781 3.598,-77.042 -5.228,-37.262 -124.636,0.191 -126.895,23.036 -2.259,22.845 17.795,58.638 24.258,68.154 C -92.576,23.665 -5.12,18.329 0,0 Z" />
      </g>
      <g
         transform="translate(563.8358,605.3625)"
         id="g68">
        <path
           inkscape:connector-curvature="0"
           id="path70"
           style="fill:#c69c6d;fill-opacity:1;fill-rule:nonzero;stroke:none"
           d="m 0,0 c 2.105,-4.196 2.869,-9.634 2.169,-16.891 -1.717,-17.796 5.492,-41.161 11.02,-58.14 1.324,-4.067 15.151,-34.523 9.732,-36.261 -11.621,-3.726 -23.242,-7.453 -34.862,-11.179 3.115,1.357 5.555,4.177 6.452,7.454 -11.536,-2.237 -23.071,-4.474 -34.606,-6.711 2.508,0.028 4.983,-1.379 6.241,-3.549 -19.315,-0.262 -38.634,-0.224 -57.948,0.114 2.825,1.293 5.466,2.987 7.819,5.016 -13.071,2.287 -25.941,5.72 -38.414,10.246 1.12,-1.778 2.24,-3.556 3.361,-5.333 -15.702,7.575 -28.05,17.181 -40.737,28.931 10.057,17.04 21.699,33.144 34.725,48.039 1.699,1.942 3.432,3.879 4.758,6.092 1.471,2.454 2.404,5.186 3.327,7.894 4.908,14.405 10.256,26.249 18.852,38.884 0.875,1.287 2.464,1.707 3.809,2.283 8.782,3.756 21.236,2.545 30.483,2.204 13.294,-0.491 26.737,-1.937 39.689,-5.046 C -12.124,11.166 -3.835,7.645 0,0" />
      </g>
      <g
         transform="translate(563.8358,605.3625)"
         id="g72">
        <path
           inkscape:connector-curvature="0"
           id="path74"
           style="fill:none;stroke:#794039;stroke-width:4.76300001;stroke-linecap:round;stroke-linejoin:round;stroke-miterlimit:10;stroke-dasharray:none;stroke-opacity:1"
           d="m 0,0 c 2.105,-4.196 2.869,-9.634 2.169,-16.891 -1.717,-17.796 5.492,-41.161 11.02,-58.14 1.324,-4.067 15.151,-34.523 9.732,-36.261 -11.621,-3.726 -23.242,-7.453 -34.862,-11.179 3.115,1.357 5.555,4.177 6.452,7.454 -11.536,-2.237 -23.071,-4.474 -34.606,-6.711 2.508,0.028 4.983,-1.379 6.241,-3.549 -19.315,-0.262 -38.634,-0.224 -57.948,0.114 2.825,1.293 5.466,2.987 7.819,5.016 -13.071,2.287 -25.941,5.72 -38.414,10.246 1.12,-1.778 2.24,-3.556 3.361,-5.333 -15.702,7.575 -28.05,17.181 -40.737,28.931 10.057,17.04 21.699,33.144 34.725,48.039 1.699,1.942 3.432,3.879 4.758,6.092 1.471,2.454 2.404,5.186 3.327,7.894 4.908,14.405 10.256,26.249 18.852,38.884 0.875,1.287 2.464,1.707 3.809,2.283 8.782,3.756 21.236,2.545 30.483,2.204 13.294,-0.491 26.737,-1.937 39.689,-5.046 C -12.124,11.166 -3.835,7.645 0,0 Z" />
      </g>
      <g
         transform="translate(525.4932,596.0082)"
         id="g76">
        <path
           inkscape:connector-curvature="0"
           id="path78"
           style="fill:#ffdb9a;fill-opacity:1;fill-rule:nonzero;stroke:none"
           d="m 0,0 c -25.601,-2.609 -51.562,2.654 -77.113,-0.402 -0.567,-0.068 -1.157,-0.148 -1.633,-0.463 -0.678,-0.447 -0.987,-1.268 -1.261,-2.033 -2.381,-6.665 -5.129,-13.198 -8.227,-19.562 10.847,-9.181 24.151,-14.829 38.008,-17.988 29.584,-6.742 64.84,-7.002 92.65,5.031 -3.11,9.791 -8.085,26.401 -11.196,36.192 C 30.864,1.923 30.401,3.189 29.32,3.72 28.554,4.096 27.651,4.007 26.804,3.902 17.842,2.794 8.983,0.916 0,0" />
      </g>
      <g
         transform="translate(525.4932,596.0082)"
         id="g80">
        <path
           inkscape:connector-curvature="0"
           id="path82"
           style="fill:none;stroke:#794039;stroke-width:3.773;stroke-linecap:round;stroke-linejoin:round;stroke-miterlimit:10;stroke-dasharray:none;stroke-opacity:1"
           d="m 0,0 c -25.601,-2.609 -51.562,2.654 -77.113,-0.402 -0.567,-0.068 -1.157,-0.148 -1.633,-0.463 -0.678,-0.447 -0.987,-1.268 -1.261,-2.033 -2.381,-6.665 -5.129,-13.198 -8.227,-19.562 10.847,-9.181 24.151,-14.829 38.008,-17.988 29.584,-6.742 64.84,-7.002 92.65,5.031 -3.11,9.791 -8.085,26.401 -11.196,36.192 C 30.864,1.923 30.401,3.189 29.32,3.72 28.554,4.096 27.651,4.007 26.804,3.902 17.842,2.794 8.983,0.916 0,0 Z" />
      </g>
      <g
         transform="translate(495.9544,717.0524)"
         id="g84">
        <path
           inkscape:connector-curvature="0"
           id="path86"
           style="fill:#ffdbc2;fill-opacity:1;fill-rule:nonzero;stroke:none"
           d="m 0,0 c -7.76,3.582 -16.668,3.735 -24.674,0.743 -9.992,-3.734 -20.033,-6.412 -28.425,-12.754 -13.447,-10.162 -25.014,-25.571 -37.321,-37.519 -5.879,-5.707 -11.814,-11.748 -14.802,-19.377 -2.989,-7.629 -2.292,-17.299 3.796,-22.782 5.388,-4.853 13.67,-5.268 20.527,-2.913 6.858,2.354 12.629,7.033 18.242,11.623 C -52.766,-74.893 34.935,-14.192 0,0" />
      </g>
      <g
         transform="translate(495.9544,717.0524)"
         id="g88">
        <path
           inkscape:connector-curvature="0"
           id="path90"
           style="fill:none;stroke:#794039;stroke-width:4.76300001;stroke-linecap:round;stroke-linejoin:round;stroke-miterlimit:10;stroke-dasharray:none;stroke-opacity:1"
           d="m 0,0 c -7.76,3.582 -16.668,3.735 -24.674,0.743 -9.992,-3.734 -20.033,-6.412 -28.425,-12.754 -13.447,-10.162 -25.014,-25.571 -37.321,-37.519 -5.879,-5.707 -11.814,-11.748 -14.802,-19.377 -2.989,-7.629 -2.292,-17.299 3.796,-22.782 5.388,-4.853 13.67,-5.268 20.527,-2.913 6.858,2.354 12.629,7.033 18.242,11.623 C -52.766,-74.893 34.935,-14.192 0,0 Z" />
      </g>
      <g
         transform="translate(471.1484,699.3069)"
         id="g92">
        <path
           inkscape:connector-curvature="0"
           id="path94"
           style="fill:#e6e6e6;fill-opacity:1;fill-rule:nonzero;stroke:none"
           d="m 0,0 c -1.381,1.94 -3.012,3.669 -4.979,5.071 -17.652,12.59 -34.137,-9.028 -44.714,-20.177 10.081,-12.094 19.581,-24.672 28.458,-37.675 14.151,8.45 33.129,19.899 27.555,38.374 C 4.808,-9.395 2.992,-4.203 0,0" />
      </g>
      <g
         transform="translate(471.1484,699.3069)"
         id="g96">
        <path
           inkscape:connector-curvature="0"
           id="path98"
           style="fill:none;stroke:#794039;stroke-width:4.76300001;stroke-linecap:round;stroke-linejoin:round;stroke-miterlimit:10;stroke-dasharray:none;stroke-opacity:1"
           d="m 0,0 c -1.381,1.94 -3.012,3.669 -4.979,5.071 -17.652,12.59 -34.137,-9.028 -44.714,-20.177 10.081,-12.094 19.581,-24.672 28.458,-37.675 14.151,8.45 33.129,19.899 27.555,38.374 C 4.808,-9.395 2.992,-4.203 0,0 Z" />
      </g>
      <g
         transform="translate(531.7916,719.7567)"
         id="g100">
        <path
           inkscape:connector-curvature="0"
           id="path102"
           style="fill:#ffdbc2;fill-opacity:1;fill-rule:nonzero;stroke:none"
           d="m 0,0 c 0.75,0.25 1.744,0.48 3.078,0.833 4.459,1.182 10.092,1.15 14.305,-0.98 13.369,-6.758 18.93,-28.016 23.103,-42.197 5.298,-18.007 8.844,-36.591 13.891,-54.683 4.264,-15.285 10.819,-30.03 14.254,-45.951 3.618,-16.769 5.783,-33.875 10.848,-50.309 0.98,-3.181 2.082,-6.466 1.639,-9.765 -0.642,-4.784 -8.514,-12.66 -11.358,-16.723 -2.315,-3.307 -5.747,-6.335 -9.784,-6.29 -4.3,5.617 -4.451,11.072 -6.362,17.369 -2.37,7.807 -6.9,15.143 -9.393,23.039 -4.825,15.278 -7.457,31.139 -9.962,46.929 -3.761,23.702 -10.624,46.489 -19.27,68.47 -6.408,16.293 -14.33,32.336 -16.869,50.143 -0.622,4.361 -1.185,9.102 -0.822,13.524 C -2.297,-1.67 -2.24,-0.746 0,0" />
      </g>
      <g
         transform="translate(531.7916,719.7567)"
         id="g104">
        <path
           inkscape:connector-curvature="0"
           id="path106"
           style="fill:none;stroke:#794039;stroke-width:4.76300001;stroke-linecap:round;stroke-linejoin:round;stroke-miterlimit:10;stroke-dasharray:none;stroke-opacity:1"
           d="m 0,0 c 0.75,0.25 1.744,0.48 3.078,0.833 4.459,1.182 10.092,1.15 14.305,-0.98 13.369,-6.758 18.93,-28.016 23.103,-42.197 5.298,-18.007 8.844,-36.591 13.891,-54.683 4.264,-15.285 10.819,-30.03 14.254,-45.951 3.618,-16.769 5.783,-33.875 10.848,-50.309 0.98,-3.181 2.082,-6.466 1.639,-9.765 -0.642,-4.784 -8.514,-12.66 -11.358,-16.723 -2.315,-3.307 -5.747,-6.335 -9.784,-6.29 -4.3,5.617 -4.451,11.072 -6.362,17.369 -2.37,7.807 -6.9,15.143 -9.393,23.039 -4.825,15.278 -7.457,31.139 -9.962,46.929 -3.761,23.702 -10.624,46.489 -19.27,68.47 -6.408,16.293 -14.33,32.336 -16.869,50.143 -0.622,4.361 -1.185,9.102 -0.822,13.524 C -2.297,-1.67 -2.24,-0.746 0,0 Z" />
      </g>
      <g
         transform="translate(596.4689,616.5763)"
         id="g108">
        <path
           inkscape:connector-curvature="0"
           id="path110"
           style="fill:#e6e6e6;fill-opacity:1;fill-rule:nonzero;stroke:none"
           d="m 0,0 c 2.174,-14.811 1.588,-30.77 4.935,-45.163 3.477,-14.951 5.329,-30.221 9.866,-44.943 0.981,-3.181 2.083,-6.466 1.64,-9.766 -0.643,-4.784 -8.514,-12.659 -11.358,-16.722 -2.315,-3.308 -5.747,-6.335 -9.784,-6.291 -4.3,5.618 -4.451,11.072 -6.362,17.369 -2.37,7.807 -6.9,15.144 -9.394,23.04 -2.837,8.987 -4.255,18.208 -6.627,27.285 -2.104,8.047 -5.812,14.895 -6.606,23.574 C -20.813,-23.041 -9.376,-12.308 0,0" />
      </g>
      <g
         transform="translate(596.4689,616.5763)"
         id="g112">
        <path
           inkscape:connector-curvature="0"
           id="path114"
           style="fill:none;stroke:#794039;stroke-width:4.76300001;stroke-linecap:round;stroke-linejoin:round;stroke-miterlimit:10;stroke-dasharray:none;stroke-opacity:1"
           d="m 0,0 c 2.174,-14.811 1.588,-30.77 4.935,-45.163 3.477,-14.951 5.329,-30.221 9.866,-44.943 0.981,-3.181 2.083,-6.466 1.64,-9.766 -0.643,-4.784 -8.514,-12.659 -11.358,-16.722 -2.315,-3.308 -5.747,-6.335 -9.784,-6.291 -4.3,5.618 -4.451,11.072 -6.362,17.369 -2.37,7.807 -6.9,15.144 -9.394,23.04 -2.837,8.987 -4.255,18.208 -6.627,27.285 -2.104,8.047 -5.812,14.895 -6.606,23.574 C -20.813,-23.041 -9.376,-12.308 0,0 Z" />
      </g>
      <g
         transform="translate(531.7916,719.7567)"
         id="g116">
        <path
           inkscape:connector-curvature="0"
           id="path118"
           style="fill:#e6e6e6;fill-opacity:1;fill-rule:nonzero;stroke:none"
           d="m 0,0 c 0.75,0.25 1.744,0.48 3.078,0.833 4.459,1.182 10.092,1.15 14.305,-0.98 7.829,-3.958 14.911,-14.879 19.412,-22.213 1.44,-2.345 13.939,-28.809 12.434,-29.434 -11.583,-4.809 -23.167,-9.618 -34.75,-14.427 -0.598,-0.248 -1.355,-0.474 -1.837,-0.04 -0.24,0.217 -0.339,0.546 -0.426,0.858 -4.304,15.299 -11.821,29.331 -14.096,45.288 -0.622,4.361 -1.185,9.102 -0.822,13.524 C -2.297,-1.67 -2.24,-0.746 0,0" />
      </g>
      <g
         transform="translate(531.7916,719.7567)"
         id="g120">
        <path
           inkscape:connector-curvature="0"
           id="path122"
           style="fill:none;stroke:#794039;stroke-width:4.76300001;stroke-linecap:round;stroke-linejoin:round;stroke-miterlimit:10;stroke-dasharray:none;stroke-opacity:1"
           d="m 0,0 c 0.75,0.25 1.744,0.48 3.078,0.833 4.459,1.182 10.092,1.15 14.305,-0.98 7.829,-3.958 14.911,-14.879 19.412,-22.213 1.44,-2.345 13.939,-28.809 12.434,-29.434 -11.583,-4.809 -23.167,-9.618 -34.75,-14.427 -0.598,-0.248 -1.355,-0.474 -1.837,-0.04 -0.24,0.217 -0.339,0.546 -0.426,0.858 -4.304,15.299 -11.821,29.331 -14.096,45.288 -0.622,4.361 -1.185,9.102 -0.822,13.524 C -2.297,-1.67 -2.24,-0.746 0,0 Z" />
      </g>
      <g
         transform="translate(590.8495,585.931)"
         id="g124">
        <path
           inkscape:connector-curvature="0"
           id="path126"
           style="fill:#603813;fill-opacity:1;fill-rule:nonzero;stroke:none"
           d="m 0,0 12.769,5.635 c 4.154,-5.681 4.444,-13.217 4.574,-20.253 0.18,-9.742 0.36,-19.483 0.54,-29.225 0.084,-4.519 -0.451,-9.512 0.86,-13.882 0.89,-2.967 3.368,-5.161 3.649,-8.348 0.69,-7.822 -7.657,-14.114 -11.69,-19.876 -2.315,-3.308 -5.747,-6.335 -9.784,-6.291 -4.3,5.618 -4.451,11.072 -6.362,17.369 -2.37,7.808 -6.9,15.144 -9.393,23.04 -3.755,11.891 -9.565,25.752 -10.689,38.122 -0.068,0.747 -0.103,1.558 0.311,2.184 0.362,0.545 0.993,0.836 1.592,1.1 C -15.749,-6.95 -7.874,-3.475 0,0" />
      </g>
      <g
         transform="translate(590.8495,585.931)"
         id="g128">
        <path
           inkscape:connector-curvature="0"
           id="path130"
           style="fill:none;stroke:#794039;stroke-width:4.76300001;stroke-linecap:round;stroke-linejoin:round;stroke-miterlimit:10;stroke-dasharray:none;stroke-opacity:1"
           d="m 0,0 12.769,5.635 c 4.154,-5.681 4.444,-13.217 4.574,-20.253 0.18,-9.742 0.36,-19.483 0.54,-29.225 0.084,-4.519 -0.451,-9.512 0.86,-13.882 0.89,-2.967 3.368,-5.161 3.649,-8.348 0.69,-7.822 -7.657,-14.114 -11.69,-19.876 -2.315,-3.308 -5.747,-6.335 -9.784,-6.291 -4.3,5.618 -4.451,11.072 -6.362,17.369 -2.37,7.808 -6.9,15.144 -9.393,23.04 -3.755,11.891 -9.565,25.752 -10.689,38.122 -0.068,0.747 -0.103,1.558 0.311,2.184 0.362,0.545 0.993,0.836 1.592,1.1 C -15.749,-6.95 -7.874,-3.475 0,0 Z" />
      </g>
      <g
         transform="translate(528.6982,726.0158)"
         id="g132">
        <path
           inkscape:connector-curvature="0"
           id="path134"
           style="fill:#ffdbc2;fill-opacity:1;fill-rule:nonzero;stroke:none"
           d="m 0,0 c -3.931,0.733 -7.908,0.874 -11.84,0.072 0.977,2.363 -4.306,24.839 -1.505,25.248 -10.691,-1.811 -21.415,-3.432 -32.164,-4.862 -0.747,-6.785 -0.968,-13.628 -0.66,-20.447 0.065,-1.442 0.142,-2.949 -0.452,-4.265 -1.893,-4.188 -14.854,-5.538 -18.99,-6.887 -4.439,-1.447 -9.651,-2.782 -13.483,-5.578 -9.931,-7.247 11.403,-52.544 15.176,-86.5 14.776,-3.69 29.478,-7.665 44.297,-11.183 9.617,-2.283 36.545,-12.946 43.673,-2.656 1.958,2.827 2.651,6.314 3.299,9.691 2.03,10.574 4.06,21.149 6.09,31.723 2.485,12.943 1.632,22.926 -1.174,35.553 -1.963,8.835 -4.186,24.47 -10.841,31.002 -1.785,1.752 -4.077,2.88 -6.35,3.925 C 10.273,-2.956 5.177,-0.965 0,0" />
      </g>
      <g
         transform="translate(528.6982,726.0158)"
         id="g136">
        <path
           inkscape:connector-curvature="0"
           id="path138"
           style="fill:none;stroke:#794039;stroke-width:4.76300001;stroke-linecap:round;stroke-linejoin:round;stroke-miterlimit:10;stroke-dasharray:none;stroke-opacity:1"
           d="m 0,0 c -3.931,0.733 -7.908,0.874 -11.84,0.072 0.977,2.363 -4.306,24.839 -1.505,25.248 -10.691,-1.811 -21.415,-3.432 -32.164,-4.862 -0.747,-6.785 -0.968,-13.628 -0.66,-20.447 0.065,-1.442 0.142,-2.949 -0.452,-4.265 -1.893,-4.188 -14.854,-5.538 -18.99,-6.887 -4.439,-1.447 -9.651,-2.782 -13.483,-5.578 -9.931,-7.247 11.403,-52.544 15.176,-86.5 14.776,-3.69 29.478,-7.665 44.297,-11.183 9.617,-2.283 36.545,-12.946 43.673,-2.656 1.958,2.827 2.651,6.314 3.299,9.691 2.03,10.574 4.06,21.149 6.09,31.723 2.485,12.943 1.632,22.926 -1.174,35.553 -1.963,8.835 -4.186,24.47 -10.841,31.002 -1.785,1.752 -4.077,2.88 -6.35,3.925 C 10.273,-2.956 5.177,-0.965 0,0 Z" />
      </g>
      <g
         transform="translate(577.8275,582.5285)"
         id="g140">
        <path
           inkscape:connector-curvature="0"
           id="path142"
           style="fill:#e6e6e6;fill-opacity:1;fill-rule:nonzero;stroke:none"
           d="m 0,0 c -0.255,-0.549 -0.575,-1.127 -0.965,-1.74 -5.115,-8.037 -18.802,-17.073 -27.951,-19.361 -9.401,-3.37 -18.683,-5.043 -26.374,2 -7.98,7.314 -14.929,21.438 -12.137,32.405 -1.672,-6.452 -3.37,-12.992 -6.628,-18.809 -3.251,-5.823 -8.282,-10.942 -14.671,-12.866 -9.294,-2.799 -19.186,1.609 -27.33,6.885 -10.141,6.571 -24.87,16.981 -30.242,28.218 4.258,4.674 7.873,9.932 10.712,15.581 3.53,7.024 3.601,17.411 4.725,25.09 1.466,10.016 2.652,20.084 3.009,30.207 0.252,7.106 -0.076,13.379 -1.711,20.089 -1.291,5.294 -3.389,11.689 -0.516,16.93 0.466,0.849 1.076,1.572 1.855,2.138 6.666,4.867 16.319,5.829 24.173,7.754 0.132,0.031 0.264,0.063 0.396,0.094 1.126,-2.717 2.585,-5.32 4.314,-7.728 3.239,-4.509 7.446,-8.326 12.269,-10.861 3.094,-1.635 6.446,-2.735 9.961,-3.157 11.904,-1.421 24.852,6.578 26.965,18.382 0.711,3.987 0.245,8.124 1.038,12.093 0.006,0.044 0.012,0.094 0.025,0.138 0.006,0.038 0.019,0.082 0.025,0.126 4.83,-2.05 10.112,-3.038 15.004,-5.283 2.271,-1.05 4.566,-2.176 6.352,-3.924 2.163,-2.119 3.855,-5.207 5.234,-8.714 4.265,-10.913 6.813,-23.723 7.523,-35.345 0.905,-14.831 1.81,-29.662 2.716,-44.492 0.673,-11.033 -0.908,-23.371 6.302,-32.429 C -1.877,8.333 2.727,5.862 0,0" />
      </g>
      <g
         transform="translate(577.8275,582.5285)"
         id="g144">
        <path
           inkscape:connector-curvature="0"
           id="path146"
           style="fill:none;stroke:#794039;stroke-width:4.76300001;stroke-linecap:round;stroke-linejoin:round;stroke-miterlimit:10;stroke-dasharray:none;stroke-opacity:1"
           d="m 0,0 c -0.255,-0.549 -0.575,-1.127 -0.965,-1.74 -5.115,-8.037 -18.802,-17.073 -27.951,-19.361 -9.401,-3.37 -18.683,-5.043 -26.374,2 -7.98,7.314 -14.929,21.438 -12.137,32.405 -1.672,-6.452 -3.37,-12.992 -6.628,-18.809 -3.251,-5.823 -8.282,-10.942 -14.671,-12.866 -9.294,-2.799 -19.186,1.609 -27.33,6.885 -10.141,6.571 -24.87,16.981 -30.242,28.218 4.258,4.674 7.873,9.932 10.712,15.581 3.53,7.024 3.601,17.411 4.725,25.09 1.466,10.016 2.652,20.084 3.009,30.207 0.252,7.106 -0.076,13.379 -1.711,20.089 -1.291,5.294 -3.389,11.689 -0.516,16.93 0.466,0.849 1.076,1.572 1.855,2.138 6.666,4.867 16.319,5.829 24.173,7.754 0.132,0.031 0.264,0.063 0.396,0.094 1.126,-2.717 2.585,-5.32 4.314,-7.728 3.239,-4.509 7.446,-8.326 12.269,-10.861 3.094,-1.635 6.446,-2.735 9.961,-3.157 11.904,-1.421 24.852,6.578 26.965,18.382 0.711,3.987 0.245,8.124 1.038,12.093 0.006,0.044 0.012,0.094 0.025,0.138 0.006,0.038 0.019,0.082 0.025,0.126 4.83,-2.05 10.112,-3.038 15.004,-5.283 2.271,-1.05 4.566,-2.176 6.352,-3.924 2.163,-2.119 3.855,-5.207 5.234,-8.714 4.265,-10.913 6.813,-23.723 7.523,-35.345 0.905,-14.831 1.81,-29.662 2.716,-44.492 0.673,-11.033 -0.908,-23.371 6.302,-32.429 C -1.877,8.333 2.727,5.862 0,0 Z" />
      </g>
      <g
         transform="translate(555.3572,708.2202)"
         id="g148">
        <path
           inkscape:connector-curvature="0"
           id="path150"
           style="fill:#ffdb9a;fill-opacity:1;fill-rule:nonzero;stroke:none"
           d="m 0,0 c -0.082,-0.566 -0.176,-1.138 -0.277,-1.71 -4.037,-22.601 -26.405,-39.706 -50.452,-39.706 -1.975,0 -3.962,0.119 -5.949,0.352 -21.425,2.553 -41.246,18.18 -50.931,40.001 0.466,0.849 1.076,1.572 1.855,2.138 6.666,4.868 16.319,5.83 24.173,7.754 1.327,-2.723 2.912,-5.289 4.711,-7.634 3.458,-4.54 7.684,-8.276 12.268,-10.86 3.585,-2.032 7.389,-3.358 11.213,-3.811 11.476,-1.371 23.99,6.722 25.757,16.652 0.353,1.968 0.441,4.389 0.529,6.961 0.082,2.327 0.169,4.848 0.465,7.515 0.006,0.044 0.013,0.094 0.025,0.138 0.006,0.038 0.019,0.082 0.025,0.126 4.83,-2.05 10.112,-3.037 15.005,-5.282 2.27,-1.051 4.565,-2.176 6.351,-3.924 C -3.069,6.59 -1.377,3.503 0,0" />
      </g>
      <g
         transform="translate(555.3572,708.2202)"
         id="g152">
        <path
           inkscape:connector-curvature="0"
           id="path154"
           style="fill:none;stroke:#794039;stroke-width:3.773;stroke-linecap:round;stroke-linejoin:round;stroke-miterlimit:10;stroke-dasharray:none;stroke-opacity:1"
           d="m 0,0 c -0.082,-0.566 -0.176,-1.138 -0.277,-1.71 -4.037,-22.601 -26.405,-39.706 -50.452,-39.706 -1.975,0 -3.962,0.119 -5.949,0.352 -21.425,2.553 -41.246,18.18 -50.931,40.001 0.466,0.849 1.076,1.572 1.855,2.138 6.666,4.868 16.319,5.83 24.173,7.754 1.327,-2.723 2.912,-5.289 4.711,-7.634 3.458,-4.54 7.684,-8.276 12.268,-10.86 3.585,-2.032 7.389,-3.358 11.213,-3.811 11.476,-1.371 23.99,6.722 25.757,16.652 0.353,1.968 0.441,4.389 0.529,6.961 0.082,2.327 0.169,4.848 0.465,7.515 0.006,0.044 0.013,0.094 0.025,0.138 0.006,0.038 0.019,0.082 0.025,0.126 4.83,-2.05 10.112,-3.037 15.005,-5.282 2.27,-1.051 4.565,-2.176 6.351,-3.924 C -3.069,6.59 -1.377,3.503 0,0 Z" />
      </g>
      <g
         transform="translate(529.553,715.3688)"
         id="g156">
        <path
           inkscape:connector-curvature="0"
           id="path158"
           style="fill:#e6e6e6;fill-opacity:1;fill-rule:nonzero;stroke:none"
           d="m 0,0 c 2.072,-6.009 4.763,-12.689 10.745,-15.073 2.395,-0.955 5.041,-1.076 7.628,-1.173 6.443,-0.241 13.275,-0.318 18.871,2.869 6.194,3.528 9.795,10.481 16.053,13.897 C 46.886,7.169 38.136,11.598 28.881,12.879 19.627,14.16 9.928,12.285 1.82,7.646 1.174,7.276 0.525,6.879 0.053,6.309 -1.366,4.595 -0.717,2.081 0,0" />
      </g>
      <g
         transform="translate(529.553,715.3688)"
         id="g160">
        <path
           inkscape:connector-curvature="0"
           id="path162"
           style="fill:none;stroke:#794039;stroke-width:4.80900002;stroke-linecap:round;stroke-linejoin:round;stroke-miterlimit:10;stroke-dasharray:none;stroke-opacity:1"
           d="m 0,0 c 2.072,-6.009 4.763,-12.689 10.745,-15.073 2.395,-0.955 5.041,-1.076 7.628,-1.173 6.443,-0.241 13.275,-0.318 18.871,2.869 6.194,3.528 9.795,10.481 16.053,13.897 C 46.886,7.169 38.136,11.598 28.881,12.879 19.627,14.16 9.928,12.285 1.82,7.646 1.174,7.276 0.525,6.879 0.053,6.309 -1.366,4.595 -0.717,2.081 0,0 Z" />
      </g>
      <g
         transform="translate(642.2446,842.8513)"
         id="g164">
        <path
           inkscape:connector-curvature="0"
           id="path166"
           style="fill:#ffdbc2;fill-opacity:1;fill-rule:nonzero;stroke:none"
           d="m 0,0 c -3.294,-76.814 -67.153,-111.187 -143.967,-107.893 -76.814,3.294 -137.495,43.008 -134.201,119.822 4.054,94.537 7.883,142.759 145.209,136.87 C 4.367,142.911 4.054,94.538 0,0" />
      </g>
      <g
         transform="translate(642.2446,842.8513)"
         id="g168">
        <path
           inkscape:connector-curvature="0"
           id="path170"
           style="fill:none;stroke:#794039;stroke-width:4.76300001;stroke-linecap:round;stroke-linejoin:round;stroke-miterlimit:10;stroke-dasharray:none;stroke-opacity:1"
           d="m 0,0 c -3.294,-76.814 -67.153,-111.187 -143.967,-107.893 -76.814,3.294 -137.495,43.008 -134.201,119.822 4.054,94.537 7.883,142.759 145.209,136.87 C 4.367,142.911 4.054,94.538 0,0 Z" />
      </g>
      <g
         transform="translate(545.82,824.1298)"
         id="g172">
        <path
           inkscape:connector-curvature="0"
           id="path174"
           style="fill:#794039;fill-opacity:1;fill-rule:nonzero;stroke:none"
           d="M 0,0 C 1.468,2.322 3.076,4.555 4.812,6.684 5.196,7.155 5.697,7.668 6.3,7.59 6.791,7.527 7.152,7.085 7.629,6.951 c 1.42,-0.401 2.218,1.952 3.686,2.106 0.728,0.076 1.376,-0.419 2.068,-0.655 1.196,-0.406 2.502,-0.026 3.704,0.362 9.737,3.141 19.304,6.812 28.644,10.992 0.473,0.211 0.985,0.429 1.493,0.327 0.548,-0.111 0.951,-0.567 1.31,-0.996 1.473,-1.755 2.945,-3.511 4.417,-5.267 1.767,1.406 3.87,2.385 6.082,2.833 -2.883,3.084 -5.135,6.756 -6.578,10.724 -0.722,1.988 -1.597,4.387 -3.67,4.807 -0.921,0.187 -1.865,-0.093 -2.763,-0.37 -9.6,-2.96 -19.199,-5.92 -28.798,-8.88 C 12.76,21.557 8.21,20.167 3.539,20.2 1.911,20.211 0.065,20.32 -1.099,19.181 -2.292,18.014 -2.188,16.098 -1.989,14.441 -1.409,9.616 -0.746,4.802 0,0" />
      </g>
      <g
         transform="translate(468.919,818.9358)"
         id="g176">
        <path
           inkscape:connector-curvature="0"
           id="path178"
           style="fill:#794039;fill-opacity:1;fill-rule:nonzero;stroke:none"
           d="m 0,0 c -0.992,2.562 -2.138,5.063 -3.43,7.488 -0.286,0.536 -0.679,1.136 -1.285,1.176 -0.494,0.033 -0.934,-0.331 -1.427,-0.371 -1.472,-0.118 -1.8,2.344 -3.211,2.779 -0.699,0.215 -1.43,-0.146 -2.155,-0.243 -1.252,-0.168 -2.459,0.457 -3.564,1.07 -8.948,4.963 -17.625,10.413 -25.981,16.318 -0.423,0.299 -0.883,0.612 -1.402,0.609 -0.56,-0.003 -1.042,-0.371 -1.478,-0.723 -1.784,-1.438 -3.567,-2.876 -5.351,-4.315 -1.462,1.72 -3.336,3.088 -5.42,3.955 3.424,2.469 6.343,5.637 8.525,9.251 1.093,1.811 2.415,3.996 4.53,4.008 0.94,0.005 1.812,-0.452 2.64,-0.897 l 26.54,-14.276 C -8.356,23.616 -4.16,21.374 0.429,20.503 2.029,20.199 3.861,19.949 4.784,18.607 5.729,17.232 5.256,15.372 4.741,13.784 3.24,9.163 1.659,4.567 0,0" />
      </g>
      <g
         transform="translate(453.1018,817.0375)"
         id="g180">
        <path
           inkscape:connector-curvature="0"
           id="path182"
           style="fill:#794039;fill-opacity:1;fill-rule:nonzero;stroke:none"
           d="m 0,0 c -0.398,-9.288 -8.251,-16.495 -17.539,-16.097 -9.289,0.398 -16.496,8.251 -16.097,17.539 0.398,9.289 8.251,16.496 17.539,16.097 C -6.809,17.141 0.398,9.288 0,0" />
      </g>
      <g
         transform="translate(433.5165,785.0899)"
         id="g184">
        <path
           inkscape:connector-curvature="0"
           id="path186"
           style="fill:#faacae;fill-opacity:1;fill-rule:nonzero;stroke:none"
           d="m 0,0 c -0.452,-10.544 -9.366,-18.724 -19.91,-18.272 -10.543,0.452 -18.724,9.366 -18.272,19.909 0.452,10.544 9.366,18.725 19.91,18.273 C -7.729,19.457 0.452,10.544 0,0" />
      </g>
      <g
         transform="translate(554.9201,812.6713)"
         id="g188">
        <path
           inkscape:connector-curvature="0"
           id="path190"
           style="fill:#794039;fill-opacity:1;fill-rule:nonzero;stroke:none"
           d="m 0,0 c -0.398,-9.288 6.809,-17.141 16.097,-17.539 9.288,-0.399 17.141,6.808 17.539,16.097 C 34.035,7.846 26.828,15.699 17.539,16.097 8.251,16.495 0.398,9.288 0,0" />
      </g>
      <g
         transform="translate(571.74,780.1328)"
         id="g192">
        <path
           inkscape:connector-curvature="0"
           id="path194"
           style="fill:#faacae;fill-opacity:1;fill-rule:nonzero;stroke:none"
           d="m 0,0 c -0.429,-10.009 7.337,-18.47 17.345,-18.9 10.009,-0.429 18.471,7.337 18.9,17.346 C 36.674,8.454 28.908,16.916 18.9,17.345 8.891,17.775 0.429,10.009 0,0" />
      </g>
      <g
         transform="translate(456.9619,841.7087)"
         id="g196">
        <path
           inkscape:connector-curvature="0"
           id="path198"
           style="fill:#794039;fill-opacity:1;fill-rule:nonzero;stroke:none"
           d="M 0,0 C 0,0 -0.173,0.116 -0.497,0.334 -0.8,0.546 -1.244,0.857 -1.809,1.253 -2.345,1.64 -2.996,2.109 -3.742,2.648 -4.48,3.174 -5.257,3.789 -6.129,4.421 c -0.83,0.67 -1.783,1.321 -2.739,2.047 -0.494,0.345 -1.018,0.674 -1.54,1.024 -0.256,0.18 -0.515,0.362 -0.777,0.547 -0.273,0.164 -0.55,0.331 -0.829,0.499 -0.551,0.344 -1.114,0.686 -1.665,1.066 -0.582,0.328 -1.171,0.66 -1.765,0.995 -1.151,0.749 -2.446,1.265 -3.702,1.888 -0.616,0.346 -1.299,0.521 -1.95,0.784 -0.66,0.245 -1.318,0.49 -1.971,0.733 -1.357,0.365 -2.693,0.723 -3.986,1.071 -1.328,0.204 -2.621,0.429 -3.86,0.647 -0.618,0.14 -1.228,0.127 -1.818,0.184 -0.594,0.047 -1.167,0.341 -1.718,0.385 -1.105,0.083 -2.132,0.406 -3.036,0.406 h -2.367 c -1.332,0 -2.093,-0.212 -2.093,-0.212 0,0 0.714,0.116 1.989,0.504 0.643,0.188 1.425,0.354 2.32,0.616 0.897,0.298 1.937,0.424 3.08,0.596 1.143,0.154 2.389,0.426 3.723,0.472 1.333,0.043 2.754,0.094 4.231,0.095 1.463,-0.145 2.999,-0.249 4.55,-0.458 0.767,-0.168 1.539,-0.339 2.314,-0.509 0.77,-0.193 1.577,-0.296 2.326,-0.586 1.503,-0.551 3.075,-0.978 4.48,-1.726 0.713,-0.349 1.431,-0.684 2.109,-1.067 0.663,-0.409 1.299,-0.846 1.927,-1.268 1.272,-0.824 2.312,-1.876 3.339,-2.792 0.932,-1.028 1.862,-1.935 2.535,-2.945 0.722,-0.959 1.267,-1.93 1.7,-2.808 C -0.899,3.722 -0.608,2.907 -0.404,2.227 -0.208,1.541 -0.098,0.984 -0.049,0.595 0.002,0.211 0,0 0,0" />
      </g>
      <g
         transform="translate(551.7773,843.345)"
         id="g200">
        <path
           inkscape:connector-curvature="0"
           id="path202"
           style="fill:#794039;fill-opacity:1;fill-rule:nonzero;stroke:none"
           d="M 0,0 C 0,0 0.03,0.209 0.139,0.581 0.247,0.958 0.44,1.492 0.737,2.14 1.042,2.782 1.452,3.543 2.005,4.356 2.567,5.158 3.251,6.035 4.111,6.874 4.929,7.77 5.985,8.526 7.063,9.401 c 1.153,0.749 2.341,1.631 3.723,2.254 0.685,0.321 1.38,0.657 2.097,0.96 0.729,0.276 1.488,0.498 2.246,0.735 1.503,0.527 3.121,0.711 4.69,1.028 0.784,0.172 1.597,0.152 2.388,0.226 0.792,0.05 1.581,0.1 2.363,0.15 1.565,-0.028 3.099,-0.162 4.567,-0.24 1.459,-0.225 2.855,-0.498 4.167,-0.743 1.311,-0.248 2.5,-0.721 3.606,-1.046 1.104,-0.344 2.108,-0.655 2.949,-1.087 0.846,-0.394 1.583,-0.738 2.19,-1.021 1.202,-0.577 1.872,-0.922 1.872,-0.922 0,0 -0.755,0.102 -2.075,0.281 -0.648,0.099 -1.436,0.22 -2.339,0.359 -0.887,0.185 -1.92,0.218 -3.025,0.304 -0.551,0.04 -1.125,0.081 -1.719,0.124 -0.592,0.034 -1.193,0.139 -1.825,0.094 C 31.681,10.83 30.368,10.803 29.025,10.802 27.694,10.655 26.319,10.503 24.922,10.348 24.24,10.207 23.553,10.065 22.863,9.922 22.18,9.76 21.479,9.692 20.817,9.443 19.48,9.017 18.123,8.703 16.871,8.137 16.234,7.896 15.601,7.657 14.976,7.421 14.375,7.129 13.765,6.876 13.169,6.619 12.868,6.496 12.569,6.373 12.273,6.251 11.987,6.109 11.703,5.968 11.423,5.829 10.854,5.562 10.286,5.316 9.746,5.05 8.691,4.477 7.65,3.978 6.728,3.441 5.77,2.949 4.91,2.459 4.101,2.05 3.281,1.631 2.566,1.265 1.978,0.964 1.359,0.659 0.873,0.419 0.542,0.255 0.188,0.089 0,0 0,0" />
      </g>
      <g
         transform="translate(497.433,778.923)"
         id="g204">
        <path
           inkscape:connector-curvature="0"
           id="path206"
           style="fill:none;stroke:#794039;stroke-width:2.83100009;stroke-linecap:round;stroke-linejoin:round;stroke-miterlimit:10;stroke-dasharray:none;stroke-opacity:1"
           d="m 0,0 c 5.157,-0.867 10.456,-0.925 15.631,-0.167 4.223,0.618 8.002,1.343 9.901,5.819" />
      </g>
      <g
         transform="translate(426.2914,644.488)"
         id="g208">
        <path
           inkscape:connector-curvature="0"
           id="path210"
           style="fill:#ffdbc2;fill-opacity:1;fill-rule:nonzero;stroke:#794039;stroke-width:4.76300001;stroke-linecap:round;stroke-linejoin:round;stroke-miterlimit:10;stroke-dasharray:none;stroke-opacity:1"
           d="m 0,0 c 1.481,4.119 1.08,10.109 -1.038,13.859 -1.581,2.799 -4.088,4.935 -6.542,7.011 -9.178,7.759 -18.356,15.517 -27.534,23.276 -2.866,2.423 -5.905,4.932 -9.588,5.651 -4.137,0.809 -8.466,-0.844 -11.712,-3.534 -22.793,-18.888 7.554,-60.094 28.863,-67.772 5.69,-2.05 11.278,-2.236 16.763,0.31" />
      </g>
      <g
         transform="translate(391.1773,688.6343)"
         id="g212">
        <path
           inkscape:connector-curvature="0"
           id="path214"
           style="fill:#e6e6e6;fill-opacity:1;fill-rule:nonzero;stroke:none"
           d="M 0,0 C -2.866,2.423 -5.905,4.931 -9.588,5.651 -13.724,6.459 -18.054,4.806 -21.3,2.117 -48.657,-20.555 -5.631,-59.142 9.892,-74.097 c 2.684,4.199 6.553,7.486 9.738,11.32 7.71,9.28 12.079,23.489 8.986,35.441 -1.548,5.986 -6.987,9.051 -11.494,12.862 C 11.414,-9.65 5.707,-4.825 0,0" />
      </g>
      <g
         transform="translate(391.1773,688.6343)"
         id="g216">
        <path
           inkscape:connector-curvature="0"
           id="path218"
           style="fill:none;stroke:#794039;stroke-width:4.76300001;stroke-linecap:round;stroke-linejoin:round;stroke-miterlimit:10;stroke-dasharray:none;stroke-opacity:1"
           d="M 0,0 C -2.866,2.423 -5.905,4.931 -9.588,5.651 -13.724,6.459 -18.054,4.806 -21.3,2.117 -48.657,-20.555 -5.631,-59.142 9.892,-74.097 c 2.684,4.199 6.553,7.486 9.738,11.32 7.71,9.28 12.079,23.489 8.986,35.441 -1.548,5.986 -6.987,9.051 -11.494,12.862 C 11.414,-9.65 5.707,-4.825 0,0 Z" />
      </g>
      <g
         transform="translate(381.5893,694.2853)"
         id="g220">
        <path
           inkscape:connector-curvature="0"
           id="path222"
           style="fill:#603813;fill-opacity:1;fill-rule:nonzero;stroke:none"
           d="m 0,0 c -4.136,0.808 -8.466,-0.844 -11.711,-3.533 -16.017,-13.273 -3.12,-37.959 -1.021,-54.655 1.074,-0.847 2.15,-1.696 3.302,-2.434 9.971,-6.387 24.192,-2.795 32.077,6.04 7.885,8.835 10.211,21.534 8.969,33.311 -0.115,1.097 -0.279,2.243 -0.931,3.133 -0.557,0.76 -1.406,1.242 -2.228,1.702 -5.252,2.935 -10.834,5.592 -15.902,8.82 C 8.509,-5.039 4.921,-0.962 0,0" />
      </g>
      <g
         transform="translate(381.5893,694.2853)"
         id="g224">
        <path
           inkscape:connector-curvature="0"
           id="path226"
           style="fill:none;stroke:#794039;stroke-width:4.76300001;stroke-linecap:round;stroke-linejoin:round;stroke-miterlimit:10;stroke-dasharray:none;stroke-opacity:1"
           d="m 0,0 c -4.136,0.808 -8.466,-0.844 -11.711,-3.533 -16.017,-13.273 -3.12,-37.959 -1.021,-54.655 1.074,-0.847 2.15,-1.696 3.302,-2.434 9.971,-6.387 24.192,-2.795 32.077,6.04 7.885,8.835 10.211,21.534 8.969,33.311 -0.115,1.097 -0.279,2.243 -0.931,3.133 -0.557,0.76 -1.406,1.242 -2.228,1.702 -5.252,2.935 -10.834,5.592 -15.902,8.82 C 8.509,-5.039 4.921,-0.962 0,0 Z" />
      </g>
      <g
         transform="translate(359.2183,717.4269)"
         id="g228">
        <path
           inkscape:connector-curvature="0"
           id="path230"
           style="fill:#603813;fill-opacity:1;fill-rule:nonzero;stroke:none"
           d="m 0,0 c 3.07,1.353 6.199,2.575 9.374,3.66 1.845,0.63 4.002,1.181 5.639,0.122 0.682,-0.441 1.177,-1.112 1.656,-1.769 2.867,-3.928 5.733,-7.856 8.6,-11.784 0.589,-0.807 1.192,-1.642 1.427,-2.613 0.518,-2.138 -0.946,-4.358 -2.864,-5.435 -1.918,-1.077 -4.189,-1.275 -6.382,-1.449 2.75,0.219 6.873,-9.081 7.597,-11.083 1.724,-4.776 1.803,-8.932 -0.418,-13.562 -2.286,-4.769 -5.917,-8.741 -9.495,-12.636 -1.669,-1.818 -3.696,-3.787 -6.159,-3.619 -1.781,0.122 -3.284,1.362 -5.01,1.823 -2.314,0.617 -4.8,-0.215 -7.154,0.231 -3.367,0.639 -5.673,3.666 -7.645,6.469 -2.971,4.223 -5.941,8.445 -8.912,12.667 -1.86,2.644 -3.739,5.325 -4.876,8.351 -3.579,9.535 2.643,18.395 10.548,23.249 C -9.557,-4.604 -4.851,-2.138 0,0" />
      </g>
      <g
         transform="translate(359.2183,717.4269)"
         id="g232">
        <path
           inkscape:connector-curvature="0"
           id="path234"
           style="fill:none;stroke:#794039;stroke-width:4.76300001;stroke-linecap:round;stroke-linejoin:round;stroke-miterlimit:10;stroke-dasharray:none;stroke-opacity:1"
           d="m 0,0 c 3.07,1.353 6.199,2.575 9.374,3.66 1.845,0.63 4.002,1.181 5.639,0.122 0.682,-0.441 1.177,-1.112 1.656,-1.769 2.867,-3.928 5.733,-7.856 8.6,-11.784 0.589,-0.807 1.192,-1.642 1.427,-2.613 0.518,-2.138 -0.946,-4.358 -2.864,-5.435 -1.918,-1.077 -4.189,-1.275 -6.382,-1.449 2.75,0.219 6.873,-9.081 7.597,-11.083 1.724,-4.776 1.803,-8.932 -0.418,-13.562 -2.286,-4.769 -5.917,-8.741 -9.495,-12.636 -1.669,-1.818 -3.696,-3.787 -6.159,-3.619 -1.781,0.122 -3.284,1.362 -5.01,1.823 -2.314,0.617 -4.8,-0.215 -7.154,0.231 -3.367,0.639 -5.673,3.666 -7.645,6.469 -2.971,4.223 -5.941,8.445 -8.912,12.667 -1.86,2.644 -3.739,5.325 -4.876,8.351 -3.579,9.535 2.643,18.395 10.548,23.249 C -9.557,-4.604 -4.851,-2.138 0,0 Z" />
      </g>
      <g
         transform="translate(575.9814,537.2209)"
         id="g236">
        <path
           inkscape:connector-curvature="0"
           id="path238"
           style="fill:#603813;fill-opacity:1;fill-rule:nonzero;stroke:#794039;stroke-width:4.76300001;stroke-linecap:round;stroke-linejoin:round;stroke-miterlimit:10;stroke-dasharray:none;stroke-opacity:1"
           d="m 0,0 c 0.393,-6.907 0.787,-13.814 1.18,-20.721 0.18,-3.161 0.47,-6.615 2.442,-8.875 1.972,-2.261 6.207,-1.963 6.846,1.122 2.255,2.03 3.396,2.495 4.52,5.312" />
      </g>
      <g
         transform="translate(393.9823,666.4386)"
         id="g240">
        <path
           inkscape:connector-curvature="0"
           id="path242"
           style="fill:#8c6239;fill-opacity:1;fill-rule:nonzero;stroke:none"
           d="m 0,0 -14.12,-9.771 -40.531,58.573 14.12,9.771 z" />
      </g>
      <g
         transform="translate(393.9823,666.4386)"
         id="g244">
        <path
           inkscape:connector-curvature="0"
           id="path246"
           style="fill:none;stroke:#794039;stroke-width:4.30800009;stroke-linecap:round;stroke-linejoin:round;stroke-miterlimit:10;stroke-dasharray:none;stroke-opacity:1"
           d="m 0,0 -14.12,-9.771 -40.531,58.573 14.12,9.771 z" />
      </g>
      <g
         transform="translate(358.3402,726.8478)"
         id="g248">
        <path
           inkscape:connector-curvature="0"
           id="path250"
           style="fill:#cccccc;fill-opacity:1;fill-rule:nonzero;stroke:none"
           d="m 0,0 -22.45,-15.535 -164.362,238.377 -3.075,23.58 22.554,-12.303 z" />
      </g>
      <g
         transform="translate(358.3402,726.8478)"
         id="g252">
        <path
           inkscape:connector-curvature="0"
           id="path254"
           style="fill:none;stroke:#794039;stroke-width:4.76300001;stroke-linecap:round;stroke-linejoin:round;stroke-miterlimit:10;stroke-dasharray:none;stroke-opacity:1"
           d="m 0,0 -22.45,-15.535 -164.362,238.377 -3.075,23.58 22.554,-12.303 z" />
      </g>
      <g
         transform="translate(399.8144,665.8339)"
         id="g256">
        <path
           inkscape:connector-curvature="0"
           id="path258"
           style="fill:#8c6239;fill-opacity:1;fill-rule:nonzero;stroke:none"
           d="m 0,0 c 4.197,-6.065 2.682,-14.385 -3.383,-18.582 -6.065,-4.197 -14.385,-2.682 -18.582,3.383 -4.197,6.066 -2.682,14.385 3.383,18.582 C -12.517,7.58 -4.197,6.065 0,0" />
      </g>
      <g
         transform="translate(399.8144,665.8339)"
         id="g260">
        <path
           inkscape:connector-curvature="0"
           id="path262"
           style="fill:none;stroke:#794039;stroke-width:4.76300001;stroke-linecap:round;stroke-linejoin:round;stroke-miterlimit:10;stroke-dasharray:none;stroke-opacity:1"
           d="m 0,0 c 4.197,-6.065 2.682,-14.385 -3.383,-18.582 -6.065,-4.197 -14.385,-2.682 -18.582,3.383 -4.197,6.066 -2.682,14.385 3.383,18.582 C -12.517,7.58 -4.197,6.065 0,0 Z" />
      </g>
      <g
         transform="translate(361.2906,731.5659)"
         id="g264">
        <path
           inkscape:connector-curvature="0"
           id="path266"
           style="fill:#cccccc;fill-opacity:1;fill-rule:nonzero;stroke:none"
           d="m 0,0 c 6.083,-8.791 -6.79,-4.699 -15.166,-10.495 -8.376,-5.796 -9.084,-19.285 -15.167,-10.494 -5.725,8.274 -3.704,19.865 4.672,25.661 C -17.285,10.468 -5.725,8.274 0,0" />
      </g>
      <g
         transform="translate(361.2906,731.5659)"
         id="g268">
        <path
           inkscape:connector-curvature="0"
           id="path270"
           style="fill:none;stroke:#794039;stroke-width:5.03100014;stroke-linecap:round;stroke-linejoin:round;stroke-miterlimit:10;stroke-dasharray:none;stroke-opacity:1"
           d="m 0,0 c 6.083,-8.791 -6.79,-4.699 -15.166,-10.495 -8.376,-5.796 -9.084,-19.285 -15.167,-10.494 -5.725,8.274 -3.704,19.865 4.672,25.661 C -17.285,10.468 -5.725,8.274 0,0 Z" />
      </g>
      <g
         transform="translate(377.9664,750.9654)"
         id="g272">
        <path
           inkscape:connector-curvature="0"
           id="path274"
           style="fill:#cccccc;fill-opacity:1;fill-rule:nonzero;stroke:none"
           d="M 0,0 C 2.604,1.104 5.208,2.207 7.812,3.311 6.721,2.848 3.381,-4.335 2.133,-5.758 c -2.29,-2.611 -4.216,-5.495 -6.652,-7.975 -6.432,-6.542 -13.727,-12.423 -21.098,-17.864 -1.088,-0.802 -2.228,-1.615 -3.553,-1.883 -1.325,-0.269 -2.89,0.16 -3.54,1.345 -0.343,0.624 6.623,6.849 7.404,7.981 2.605,3.778 2.997,8.737 5.678,12.542 3.21,4.557 8.612,6.943 13.744,9.118 C -3.923,-1.662 -1.961,-0.831 0,0" />
      </g>
      <g
         transform="translate(377.9664,750.9654)"
         id="g276">
        <path
           inkscape:connector-curvature="0"
           id="path278"
           style="fill:none;stroke:#794039;stroke-width:4.76300001;stroke-linecap:round;stroke-linejoin:round;stroke-miterlimit:10;stroke-dasharray:none;stroke-opacity:1"
           d="M 0,0 C 2.604,1.104 5.208,2.207 7.812,3.311 6.721,2.848 3.381,-4.335 2.133,-5.758 c -2.29,-2.611 -4.216,-5.495 -6.652,-7.975 -6.432,-6.542 -13.727,-12.423 -21.098,-17.864 -1.088,-0.802 -2.228,-1.615 -3.553,-1.883 -1.325,-0.269 -2.89,0.16 -3.54,1.345 -0.343,0.624 6.623,6.849 7.404,7.981 2.605,3.778 2.997,8.737 5.678,12.542 3.21,4.557 8.612,6.943 13.744,9.118 C -3.923,-1.662 -1.961,-0.831 0,0 Z" />
      </g>
      <g
         transform="translate(308.2404,705.5726)"
         id="g280">
        <path
           inkscape:connector-curvature="0"
           id="path282"
           style="fill:#cccccc;fill-opacity:1;fill-rule:nonzero;stroke:none"
           d="m 0,0 c -2.309,-2.964 -4.357,-6.155 -6.308,-9.369 -0.265,-0.437 9.924,2.36 10.792,2.628 3.615,1.117 6.925,2.068 10.419,3.707 8.519,3.996 16.766,8.571 24.663,13.687 1.135,0.735 2.297,1.516 3.015,2.661 0.718,1.145 0.868,2.761 -0.011,3.787 0.067,-0.078 -8.553,-2.958 -9.42,-3.125 C 29.994,13.371 27.39,13.645 24.35,13.8 17.72,14.139 11.287,11.004 6.343,6.758 3.989,4.737 1.906,2.446 0,0" />
      </g>
      <g
         transform="translate(308.2404,705.5726)"
         id="g284">
        <path
           inkscape:connector-curvature="0"
           id="path286"
           style="fill:none;stroke:#794039;stroke-width:4.76300001;stroke-linecap:round;stroke-linejoin:round;stroke-miterlimit:10;stroke-dasharray:none;stroke-opacity:1"
           d="m 0,0 c -2.309,-2.964 -4.357,-6.155 -6.308,-9.369 -0.265,-0.437 9.924,2.36 10.792,2.628 3.615,1.117 6.925,2.068 10.419,3.707 8.519,3.996 16.766,8.571 24.663,13.687 1.135,0.735 2.297,1.516 3.015,2.661 0.718,1.145 0.868,2.761 -0.011,3.787 0.067,-0.078 -8.553,-2.958 -9.42,-3.125 C 29.994,13.371 27.39,13.645 24.35,13.8 17.72,14.139 11.287,11.004 6.343,6.758 3.989,4.737 1.906,2.446 0,0 Z" />
      </g>
      <g
         transform="translate(180.7552,952.7657)"
         id="g288">
        <path
           inkscape:connector-curvature="0"
           id="path290"
           style="fill:#cccccc;fill-opacity:1;fill-rule:nonzero;stroke:#794039;stroke-width:5.03100014;stroke-linecap:round;stroke-linejoin:round;stroke-miterlimit:10;stroke-dasharray:none;stroke-opacity:1"
           d="M 0,0 154.194,-217.25" />
      </g>
      <g
         transform="translate(337.0705,698.8104)"
         id="g292">
        <path
           inkscape:connector-curvature="0"
           id="path294"
           style="fill:#603813;fill-opacity:1;fill-rule:nonzero;stroke:#794039;stroke-width:4.76300001;stroke-linecap:round;stroke-linejoin:round;stroke-miterlimit:10;stroke-dasharray:none;stroke-opacity:1"
           d="m 0,0 c 7.369,8.686 16.055,16.254 25.669,22.364 1.796,1.141 4.292,2.19 5.87,0.762 2.159,-1.954 -0.253,-5.423 -0.17,-8.333 5.798,-5.577 10.781,-12 14.742,-19.002 0.958,-1.693 1.878,-3.5 1.927,-5.445 0.049,-1.945 -0.779,-3.796 -1.67,-5.525 -2.321,-4.502 -5.256,-8.783 -9.23,-11.922 -3.974,-3.14 -9.093,-5.047 -14.12,-4.436" />
      </g>
      <g
         transform="translate(474.7828,772.0296)"
         id="g296">
        <path
           inkscape:connector-curvature="0"
           id="path298"
           style="fill:#ffdb9a;fill-opacity:1;fill-rule:nonzero;stroke:none"
           d="m 0,0 -2.421,-51.289 c -68.111,10.521 -120.997,13.2 -117.916,85.134 0.019,0.377 0.032,0.754 0.051,1.125 3.314,-59.992 53.867,-62.954 117.865,-72.839 l 1.805,38.19 z" />
      </g>
      <g
         transform="translate(474.7828,772.0296)"
         id="g300">
        <path
           inkscape:connector-curvature="0"
           id="path302"
           style="fill:none;stroke:#794039;stroke-width:3.773;stroke-linecap:round;stroke-linejoin:round;stroke-miterlimit:10;stroke-dasharray:none;stroke-opacity:1"
           d="m 0,0 -2.421,-51.289 c -68.111,10.521 -120.997,13.2 -117.916,85.134 0.019,0.377 0.032,0.754 0.051,1.125 3.314,-59.992 53.867,-62.954 117.865,-72.839 l 1.805,38.19 z" />
      </g>
      <g
         transform="translate(646.7795,793.3413)"
         id="g304">
        <path
           inkscape:connector-curvature="0"
           id="path306"
           style="fill:#ffdb9a;fill-opacity:1;fill-rule:nonzero;stroke:none"
           d="m 0,0 c -3.062,-71.368 -53.276,-69.589 -121.261,-74.695 l 0.616,13.464 C -52.974,-56.181 -3.056,-57.735 0,13.42 0.912,34.819 1.83,54.666 2.025,72.909 2.289,51.1 1.145,26.764 0,0" />
      </g>
      <g
         transform="translate(646.7795,793.3413)"
         id="g308">
        <path
           inkscape:connector-curvature="0"
           id="path310"
           style="fill:none;stroke:#794039;stroke-width:3.773;stroke-linecap:round;stroke-linejoin:round;stroke-miterlimit:10;stroke-dasharray:none;stroke-opacity:1"
           d="m 0,0 c -3.062,-71.368 -53.276,-69.589 -121.261,-74.695 l 0.616,13.464 C -52.974,-56.181 -3.056,-57.735 0,13.42 0.912,34.819 1.83,54.666 2.025,72.909 2.289,51.1 1.145,26.764 0,0 Z" />
      </g>
      <g
         transform="translate(648.8044,866.2501)"
         id="g312">
        <path
           inkscape:connector-curvature="0"
           id="path314"
           style="fill:#e6e6e6;fill-opacity:1;fill-rule:nonzero;stroke:none"
           d="m 0,0 c -0.195,-18.243 -1.113,-38.089 -2.025,-59.489 -3.056,-71.154 -52.974,-69.601 -120.645,-74.651 l 1.535,33.568 90.076,46.378 c 6.389,3.282 9.435,11.13 6.146,17.52 l 0.134,0.773 v 0.006 l -4.247,7.207 c -7.885,15.312 -26.956,21.337 -42.269,13.457 l -67.867,-34.876 -2.187,-1.088 -2.756,1.396 -73.102,37.625 c -15.312,7.885 -34.123,1.861 -42.009,-13.452 l -3.708,-7.213 -0.405,-0.779 c -3.289,-6.383 -0.781,-14.225 5.609,-17.514 l 83.083,-42.768 -1.805,-38.19 c -63.998,9.886 -114.552,12.848 -117.866,72.84 5.792,135.555 4.949,199.458 155.068,193.019 C -22.11,128.744 -0.994,82.392 0,0" />
      </g>
      <g
         transform="translate(648.8044,866.2501)"
         id="g316">
        <path
           inkscape:connector-curvature="0"
           id="path318"
           style="fill:none;stroke:#794039;stroke-width:5;stroke-linecap:round;stroke-linejoin:round;stroke-miterlimit:10;stroke-dasharray:none;stroke-opacity:1"
           d="m 0,0 c -0.195,-18.243 -1.113,-38.089 -2.025,-59.489 -3.056,-71.154 -52.974,-69.601 -120.645,-74.651 l 1.535,33.568 90.076,46.378 c 6.389,3.282 9.435,11.13 6.146,17.52 l 0.134,0.773 v 0.006 l -4.247,7.207 c -7.885,15.312 -26.956,21.337 -42.269,13.457 l -67.867,-34.876 -2.187,-1.088 -2.756,1.396 -73.102,37.625 c -15.312,7.885 -34.123,1.861 -42.009,-13.452 l -3.708,-7.213 -0.405,-0.779 c -3.289,-6.383 -0.781,-14.225 5.609,-17.514 l 83.083,-42.768 -1.805,-38.19 c -63.998,9.886 -114.552,12.848 -117.866,72.84 5.792,135.555 4.949,199.458 155.068,193.019 C -22.11,128.744 -0.994,82.392 0,0 Z" />
      </g>
      <g
         transform="translate(652.3252,883.6064)"
         id="g320">
        <path
           inkscape:connector-curvature="0"
           id="path322"
           style="fill:#ffdb9a;fill-opacity:1;fill-rule:nonzero;stroke:none"
           d="m 0,0 -144.8,-68.549 v -0.002 L -295.415,3.094 c -9.772,4.647 -12.403,17.356 -5.241,25.468 l 14.195,16.093 140.376,-88.844 0.015,0.459 L -8.788,40.253 5.004,24.664 C 11.94,16.809 9.458,4.503 0,0" />
      </g>
      <g
         transform="translate(652.3252,883.6064)"
         id="g324">
        <path
           inkscape:connector-curvature="0"
           id="path326"
           style="fill:none;stroke:#794039;stroke-width:4;stroke-linecap:round;stroke-linejoin:round;stroke-miterlimit:10;stroke-dasharray:none;stroke-opacity:1"
           d="m 0,0 -144.8,-68.549 v -0.002 L -295.415,3.094 c -9.772,4.647 -12.403,17.356 -5.241,25.468 l 14.195,16.093 140.376,-88.844 0.015,0.459 L -8.788,40.253 5.004,24.664 C 11.94,16.809 9.458,4.503 0,0 Z" />
      </g>
      <g
         transform="translate(467.497,711.4656)"
         id="g328">
        <path
           inkscape:connector-curvature="0"
           id="path330"
           style="fill:#e6e6e6;fill-opacity:1;fill-rule:nonzero;stroke:none"
           d="m 0,0 c -0.915,-6.287 -2.305,-13.348 -7.645,-16.791 -2.137,-1.378 -4.667,-1.983 -7.144,-2.554 -6.169,-1.421 -12.744,-2.752 -18.714,-0.647 -6.609,2.33 -11.334,8.502 -17.985,10.711 4.984,7.713 12.623,13.675 21.316,16.635 8.694,2.959 18.384,2.897 27.039,-0.173 0.689,-0.245 1.387,-0.516 1.945,-0.99 C 0.489,4.768 0.317,2.177 0,0" />
      </g>
      <g
         transform="translate(467.497,711.4656)"
         id="g332">
        <path
           inkscape:connector-curvature="0"
           id="path334"
           style="fill:none;stroke:#794039;stroke-width:4.76300001;stroke-linecap:round;stroke-linejoin:round;stroke-miterlimit:10;stroke-dasharray:none;stroke-opacity:1"
           d="m 0,0 c -0.915,-6.287 -2.305,-13.348 -7.645,-16.791 -2.137,-1.378 -4.667,-1.983 -7.144,-2.554 -6.169,-1.421 -12.744,-2.752 -18.714,-0.647 -6.609,2.33 -11.334,8.502 -17.985,10.711 4.984,7.713 12.623,13.675 21.316,16.635 8.694,2.959 18.384,2.897 27.039,-0.173 0.689,-0.245 1.387,-0.516 1.945,-0.99 C 0.489,4.768 0.317,2.177 0,0 Z" />
      </g>
      <g
         transform="translate(505.2855,859.3351)"
         id="g336">
        <path
           inkscape:connector-curvature="0"
           id="path338"
           style="fill:#e6e6e6;fill-opacity:1;fill-rule:nonzero;stroke:none"
           d="m 0,0 c -1.787,3.566 -36.433,91.556 -32.155,131.868 4.278,40.313 37.311,51.69 37.311,51.69 z" />
      </g>
      <g
         transform="translate(505.2855,859.3351)"
         id="g340">
        <path
           inkscape:connector-curvature="0"
           id="path342"
           style="fill:none;stroke:#794039;stroke-width:4.76300001;stroke-linecap:round;stroke-linejoin:round;stroke-miterlimit:10;stroke-dasharray:none;stroke-opacity:1"
           d="m 0,0 c -1.787,3.566 -36.433,91.556 -32.155,131.868 4.278,40.313 37.311,51.69 37.311,51.69 z" />
      </g>
      <g
         transform="translate(505.2855,859.3351)"
         id="g344">
        <path
           inkscape:connector-curvature="0"
           id="path346"
           style="fill:#e6e6e6;fill-opacity:1;fill-rule:nonzero;stroke:none"
           d="m 0,0 c 1.984,3.46 41.514,89.367 39.506,129.856 -2.009,40.488 -34.35,53.702 -34.35,53.702 z" />
      </g>
      <g
         transform="translate(505.2855,859.3351)"
         id="g348">
        <path
           inkscape:connector-curvature="0"
           id="path350"
           style="fill:none;stroke:#794039;stroke-width:4.76300001;stroke-linecap:round;stroke-linejoin:round;stroke-miterlimit:10;stroke-dasharray:none;stroke-opacity:1"
           d="m 0,0 c 1.984,3.46 41.514,89.367 39.506,129.856 -2.009,40.488 -34.35,53.702 -34.35,53.702 z" />
      </g>
      <g
         transform="translate(452.3687,663.0283)"
         id="g352">
        <path
           inkscape:connector-curvature="0"
           id="path354"
           style="fill:none;stroke:#794039;stroke-width:4.76300001;stroke-linecap:round;stroke-linejoin:round;stroke-miterlimit:10;stroke-dasharray:none;stroke-opacity:1"
           d="m 0,0 c 7.401,-8.206 16.032,-15.294 25.494,-21 5.048,-3.044 10.124,-6.401 15.66,-8.507 4.374,-1.663 11.248,-4.462 15.877,-4.722 2.829,-0.159 5.49,1.223 7.986,2.566 16.124,8.674 32.766,17.783 43.788,32.403" />
      </g>
      <g
         transform="translate(446.7722,620.5325)"
         id="g356">
        <path
           inkscape:connector-curvature="0"
           id="path358"
           style="fill:none;stroke:#794039;stroke-width:4.76300001;stroke-linecap:round;stroke-linejoin:round;stroke-miterlimit:10;stroke-dasharray:none;stroke-opacity:1"
           d="M 0,0 C 6.933,9.659 16.8,17.183 27.949,21.312" />
      </g>
      <g
         transform="translate(536.0807,641.1263)"
         id="g360">
        <path
           inkscape:connector-curvature="0"
           id="path362"
           style="fill:none;stroke:#794039;stroke-width:4.76300001;stroke-linecap:round;stroke-linejoin:round;stroke-miterlimit:10;stroke-dasharray:none;stroke-opacity:1"
           d="M 0,0 C 11.085,-6.556 20.517,-15.88 27.199,-26.889" />
      </g>
      <g
         transform="translate(445.7267,619.5764)"
         id="g364">
        <path
           inkscape:connector-curvature="0"
           id="path366"
           style="fill:none;stroke:#794039;stroke-width:4.76300001;stroke-linecap:round;stroke-linejoin:round;stroke-miterlimit:10;stroke-dasharray:none;stroke-opacity:1"
           d="M 0,0 C 18.143,-13.98 38.085,-25.625 59.177,-34.554" />
      </g>
      <g
         transform="translate(510.1048,585.459)"
         id="g368">
        <path
           inkscape:connector-curvature="0"
           id="path370"
           style="fill:none;stroke:#794039;stroke-width:4.76300001;stroke-linecap:round;stroke-linejoin:round;stroke-miterlimit:10;stroke-dasharray:none;stroke-opacity:1"
           d="M 0,0 C 19.412,2.81 38.268,9.417 55.189,19.337" />
      </g>
      <g
         transform="translate(548.0904,649.0349)"
         id="g372">
        <path
           inkscape:connector-curvature="0"
           id="path374"
           style="fill:none;stroke:#794039;stroke-width:4.76300001;stroke-linecap:round;stroke-linejoin:round;stroke-miterlimit:10;stroke-dasharray:none;stroke-opacity:1"
           d="m 0,0 c 0.592,-5.89 1.183,-11.779 1.775,-17.669 0.43,0.439 0.86,0.878 1.29,1.317" />
      </g>
      <g
         transform="translate(555.5537,657.5474)"
         id="g376">
        <path
           inkscape:connector-curvature="0"
           id="path378"
           style="fill:none;stroke:#794039;stroke-width:4.76300001;stroke-linecap:round;stroke-linejoin:round;stroke-miterlimit:10;stroke-dasharray:none;stroke-opacity:1"
           d="M 0,0 C 1.103,-11.343 1.526,-22.74 1.949,-34.128" />
      </g>
      <g
         transform="translate(461.8018,651.1567)"
         id="g380">
        <path
           inkscape:connector-curvature="0"
           id="path382"
           style="fill:none;stroke:#794039;stroke-width:4.76300001;stroke-linecap:round;stroke-linejoin:round;stroke-miterlimit:10;stroke-dasharray:none;stroke-opacity:1"
           d="M 0,0 C -1.172,-5.358 -1.561,-10.887 -1.149,-16.357" />
      </g>
      <g
         transform="translate(454.8987,657.3929)"
         id="g384">
        <path
           inkscape:connector-curvature="0"
           id="path386"
           style="fill:none;stroke:#794039;stroke-width:4.76300001;stroke-linecap:round;stroke-linejoin:round;stroke-miterlimit:10;stroke-dasharray:none;stroke-opacity:1"
           d="M 0,0 C -2.247,-9.454 -3.401,-19.167 -3.431,-28.885" />
      </g>
      <g
         transform="translate(503.532,694.187)"
         id="g388">
        <path
           inkscape:connector-curvature="0"
           id="path390"
           style="fill:none;stroke:#794039;stroke-width:4.76300001;stroke-linecap:round;stroke-linejoin:round;stroke-miterlimit:10;stroke-dasharray:none;stroke-opacity:1"
           d="m 0,0 c 0.163,-5.059 0.326,-10.117 0.489,-15.176 0.118,-3.647 0.236,-7.3 0.665,-10.923" />
      </g>
      <g
         transform="translate(517.968,699.2383)"
         id="g392">
        <path
           inkscape:connector-curvature="0"
           id="path394"
           style="fill:none;stroke:#794039;stroke-width:4.76300001;stroke-linecap:round;stroke-linejoin:round;stroke-miterlimit:10;stroke-dasharray:none;stroke-opacity:1"
           d="m 0,0 c 3.04,-4.088 6.079,-8.176 9.119,-12.265 2.393,-3.217 4.797,-6.454 6.624,-10.024" />
      </g>
      <g
         transform="translate(486.5813,701.2163)"
         id="g396">
        <path
           inkscape:connector-curvature="0"
           id="path398"
           style="fill:none;stroke:#794039;stroke-width:4.76300001;stroke-linecap:round;stroke-linejoin:round;stroke-miterlimit:10;stroke-dasharray:none;stroke-opacity:1"
           d="M 0,0 C -0.047,0.105 0.164,0.156 0.217,0.054 0.27,-0.048 0.209,-0.17 0.148,-0.268 -4.523,-7.807 -12.114,-13.089 -17.343,-20.253" />
      </g>
      <g
         transform="translate(465.5901,701.1404)"
         id="g400">
        <path
           inkscape:connector-curvature="0"
           id="path402"
           style="fill:none;stroke:#794039;stroke-width:4.76300001;stroke-linecap:round;stroke-linejoin:round;stroke-miterlimit:10;stroke-dasharray:none;stroke-opacity:1"
           d="M 0,0 C 3.506,2.93 7.231,5.598 11.132,7.976" />
      </g>
      <g
         transform="translate(494.2297,696.146)"
         id="g404">
        <path
           inkscape:connector-curvature="0"
           id="path406"
           style="fill:none;stroke:#794039;stroke-width:4.76300001;stroke-linecap:round;stroke-linejoin:round;stroke-miterlimit:10;stroke-dasharray:none;stroke-opacity:1"
           d="M 0,0 C -3.909,-8.1 -7.555,-16.327 -10.932,-24.663" />
      </g>
      <g
         transform="translate(511.6463,695.5004)"
         id="g408">
        <path
           inkscape:connector-curvature="0"
           id="path410"
           style="fill:none;stroke:#794039;stroke-width:4.76300001;stroke-linecap:round;stroke-linejoin:round;stroke-miterlimit:10;stroke-dasharray:none;stroke-opacity:1"
           d="m 0,0 c 1.561,-5.082 3.601,-10.002 5.637,-14.912 1.369,-3.299 2.737,-6.598 4.105,-9.897" />
      </g>
      <g
         transform="translate(526.6321,705.5605)"
         id="g412">
        <path
           inkscape:connector-curvature="0"
           id="path414"
           style="fill:none;stroke:#794039;stroke-width:4.76300001;stroke-linecap:round;stroke-linejoin:round;stroke-miterlimit:10;stroke-dasharray:none;stroke-opacity:1"
           d="m 0,0 c 0.82,-1.078 1.64,-2.157 2.46,-3.235 0.82,-1.079 1.642,-2.159 2.547,-3.167 1.043,-1.162 2.192,-2.222 3.34,-3.281 2.74,-2.529 5.48,-5.057 8.221,-7.586 0.341,-0.315 0.715,-0.758 0.538,-1.188" />
      </g>
      <g
         transform="translate(526.8327,627.2495)"
         id="g416">
        <path
           inkscape:connector-curvature="0"
           id="path418"
           style="fill:#e6e6e6;fill-opacity:1;fill-rule:nonzero;stroke:none"
           d="m 0,0 c 0,-9.724 -7.883,-17.608 -17.608,-17.608 -9.724,0 -17.608,7.884 -17.608,17.608 0,9.725 7.884,17.608 17.608,17.608 C -7.883,17.608 0,9.725 0,0" />
      </g>
      <g
         transform="translate(526.8327,627.2495)"
         id="g420">
        <path
           inkscape:connector-curvature="0"
           id="path422"
           style="fill:none;stroke:#794039;stroke-width:4.76300001;stroke-linecap:round;stroke-linejoin:round;stroke-miterlimit:10;stroke-dasharray:none;stroke-opacity:1"
           d="m 0,0 c 0,-9.724 -7.883,-17.608 -17.608,-17.608 -9.724,0 -17.608,7.884 -17.608,17.608 0,9.725 7.884,17.608 17.608,17.608 C -7.883,17.608 0,9.725 0,0 Z" />
      </g>
      <g
         transform="translate(516.7711,627.2495)"
         id="g424">
        <path
           inkscape:connector-curvature="0"
           id="path426"
           style="fill:#e6e6e6;fill-opacity:1;fill-rule:nonzero;stroke:none"
           d="m 0,0 c 0,-4.168 -3.379,-7.546 -7.546,-7.546 -4.168,0 -7.546,3.378 -7.546,7.546 0,4.168 3.378,7.546 7.546,7.546 C -3.379,7.546 0,4.168 0,0" />
      </g>
      <g
         transform="translate(516.7711,627.2495)"
         id="g428">
        <path
           inkscape:connector-curvature="0"
           id="path430"
           style="fill:none;stroke:#794039;stroke-width:4.76300001;stroke-linecap:round;stroke-linejoin:round;stroke-miterlimit:10;stroke-dasharray:none;stroke-opacity:1"
           d="m 0,0 c 0,-4.168 -3.379,-7.546 -7.546,-7.546 -4.168,0 -7.546,3.378 -7.546,7.546 0,4.168 3.378,7.546 7.546,7.546 C -3.379,7.546 0,4.168 0,0 Z" />
      </g>
      <g
         transform="translate(440.4109,497.3141)"
         id="g432">
        <path
           inkscape:connector-curvature="0"
           id="path434"
           style="fill:none;stroke:#794039;stroke-width:3.773;stroke-linecap:round;stroke-linejoin:round;stroke-miterlimit:10;stroke-dasharray:none;stroke-opacity:1"
           d="M 0,0 C 6.377,14.214 12.753,28.429 19.13,42.643" />
      </g>
      <g
         transform="translate(481.096,485.4479)"
         id="g436">
        <path
           inkscape:connector-curvature="0"
           id="path438"
           style="fill:none;stroke:#794039;stroke-width:3.773;stroke-linecap:round;stroke-linejoin:round;stroke-miterlimit:10;stroke-dasharray:none;stroke-opacity:1"
           d="m 0,0 c 3.006,14.996 6.06,29.982 9.163,44.959 0.241,1.163 0.482,2.326 0.724,3.489" />
      </g>
      <g
         transform="translate(522.8271,484.7439)"
         id="g440">
        <path
           inkscape:connector-curvature="0"
           id="path442"
           style="fill:none;stroke:#794039;stroke-width:3.773;stroke-linecap:round;stroke-linejoin:round;stroke-miterlimit:10;stroke-dasharray:none;stroke-opacity:1"
           d="M 0,0 C -2.718,15.081 -5.435,30.162 -8.153,45.243" />
      </g>
      <g
         transform="translate(559.5286,493.0945)"
         id="g444">
        <path
           inkscape:connector-curvature="0"
           id="path446"
           style="fill:none;stroke:#794039;stroke-width:3.773;stroke-linecap:round;stroke-linejoin:round;stroke-miterlimit:10;stroke-dasharray:none;stroke-opacity:1"
           d="m 0,0 c -3.249,14.807 -7.084,29.486 -11.493,43.99 -0.304,-0.327 -0.375,-0.848 -0.171,-1.245" />
      </g>
      <g
         transform="translate(458.7285,456.7326)"
         id="g448">
        <path
           inkscape:connector-curvature="0"
           id="path450"
           style="fill:#e6e6e6;fill-opacity:1;fill-rule:nonzero;stroke:none"
           d="m 0,0 c -3.795,4.928 -8.376,9.187 -13.758,12.444 -1.645,0.996 -3.561,1.921 -5.422,1.438 -1.037,-0.268 -1.914,-0.946 -2.748,-1.619 -13.308,-10.723 -21.526,-22.31 -24.045,-39.353 -1.518,-10.275 -3.036,-20.55 -4.554,-30.826 1.318,-0.767 2.742,-1.355 4.219,-1.74 1.845,-0.481 -4.252,-31.591 -4.677,-34.858 -1.215,-9.343 -12.926,-16.114 -11.58,-25.917 1.23,-8.96 15.257,-10.354 22.392,-10.083 5.518,0.209 14.225,1.626 18.457,5.216 15.221,12.93 18.05,32.583 23.938,50.518 0.201,0.611 0.446,1.278 1.008,1.592 0.917,0.51 2.112,-0.206 3.096,0.159 0.907,0.337 1.25,1.416 1.476,2.357 1.443,6 2.886,12 4.329,18.001 0.816,3.393 1.636,6.814 1.77,10.302 0.065,1.696 -0.033,3.394 -0.178,5.085 C 12.585,-23.963 8.065,-10.471 0,0" />
      </g>
      <g
         transform="translate(458.7285,456.7326)"
         id="g452">
        <path
           inkscape:connector-curvature="0"
           id="path454"
           style="fill:none;stroke:#794039;stroke-width:4.76300001;stroke-linecap:round;stroke-linejoin:round;stroke-miterlimit:10;stroke-dasharray:none;stroke-opacity:1"
           d="m 0,0 c -3.795,4.928 -8.376,9.187 -13.758,12.444 -1.645,0.996 -3.561,1.921 -5.422,1.438 -1.037,-0.268 -1.914,-0.946 -2.748,-1.619 -13.308,-10.723 -21.526,-22.31 -24.045,-39.353 -1.518,-10.275 -3.036,-20.55 -4.554,-30.826 1.318,-0.767 2.742,-1.355 4.219,-1.74 1.845,-0.481 -4.252,-31.591 -4.677,-34.858 -1.215,-9.343 -12.926,-16.114 -11.58,-25.917 1.23,-8.96 15.257,-10.354 22.392,-10.083 5.518,0.209 14.225,1.626 18.457,5.216 15.221,12.93 18.05,32.583 23.938,50.518 0.201,0.611 0.446,1.278 1.008,1.592 0.917,0.51 2.112,-0.206 3.096,0.159 0.907,0.337 1.25,1.416 1.476,2.357 1.443,6 2.886,12 4.329,18.001 0.816,3.393 1.636,6.814 1.77,10.302 0.065,1.696 -0.033,3.394 -0.178,5.085 C 12.585,-23.963 8.065,-10.471 0,0 Z" />
      </g>
      <g
         transform="translate(407.8679,357.0887)"
         id="g456">
        <path
           inkscape:connector-curvature="0"
           id="path458"
           style="fill:none;stroke:#794039;stroke-width:4.76300001;stroke-linecap:round;stroke-linejoin:round;stroke-miterlimit:10;stroke-dasharray:none;stroke-opacity:1"
           d="m 0,0 c 7.185,3.768 15.86,3.325 23.783,1.576 6.525,-1.44 13.351,-4.067 16.928,-9.712 0.194,-0.306 0.384,-0.665 0.288,-1.015 -0.096,-0.349 -0.642,-0.538 -0.822,-0.223" />
      </g>
      <g
         transform="translate(440.6713,466.5284)"
         id="g460">
        <path
           inkscape:connector-curvature="0"
           id="path462"
           style="fill:none;stroke:#794039;stroke-width:4.76300001;stroke-linecap:round;stroke-linejoin:round;stroke-miterlimit:10;stroke-dasharray:none;stroke-opacity:1"
           d="M 0,0 C -8.686,-34.785 -15.635,-70.004 -20.815,-105.482" />
      </g>
      <g
         transform="translate(413.3195,397.2443)"
         id="g464">
        <path
           inkscape:connector-curvature="0"
           id="path466"
           style="fill:none;stroke:#794039;stroke-width:4.76300001;stroke-linecap:round;stroke-linejoin:round;stroke-miterlimit:10;stroke-dasharray:none;stroke-opacity:1"
           d="m 0,0 c 2.224,-4.429 7.013,-7.011 9.737,-11.151 7.027,5.241 15.685,8.969 23.622,12.692 1.456,0.682 3.192,1.334 4.604,0.565 0.554,-0.302 0.98,-0.791 1.383,-1.277 3.648,-4.396 6.549,-9.411 8.541,-14.765" />
      </g>
      <g
         transform="translate(410.7044,369.0407)"
         id="g468">
        <path
           inkscape:connector-curvature="0"
           id="path470"
           style="fill:none;stroke:#794039;stroke-width:4.76300001;stroke-linecap:round;stroke-linejoin:round;stroke-miterlimit:10;stroke-dasharray:none;stroke-opacity:1"
           d="m 0,0 c 4.111,0.076 8.179,-2.249 10.2,-5.83 6.58,4.774 14.618,5.736 22.577,4.078 3.415,-0.711 6.825,-2.126 9.109,-4.764 -0.068,-0.385 -0.135,-0.77 -0.203,-1.155" />
      </g>
      <g
         transform="translate(471.1492,422.4978)"
         id="g472">
        <path
           inkscape:connector-curvature="0"
           id="path474"
           style="fill:none;stroke:#794039;stroke-width:4.76300001;stroke-linecap:round;stroke-linejoin:round;stroke-miterlimit:10;stroke-dasharray:none;stroke-opacity:1"
           d="m 0,0 c -7.169,-3.228 -14.339,-6.456 -21.509,-9.684 -0.658,-2.689 1.697,-5.068 3.7,-6.979 5.302,-5.059 9.612,-11.155 12.614,-17.84" />
      </g>
      <g
         transform="translate(408.4056,424.8794)"
         id="g476">
        <path
           inkscape:connector-curvature="0"
           id="path478"
           style="fill:#e6e6e6;fill-opacity:1;fill-rule:nonzero;stroke:none"
           d="m 0,0 c 4.822,-0.65 9.519,-2.217 13.766,-4.593 -3.669,-7.818 -9.472,-14.622 -16.614,-19.478 -1.603,1.537 -3.544,2.721 -5.644,3.444 z" />
      </g>
      <g
         transform="translate(408.4056,424.8794)"
         id="g480">
        <path
           inkscape:connector-curvature="0"
           id="path482"
           style="fill:none;stroke:#794039;stroke-width:4.76300001;stroke-linecap:round;stroke-linejoin:round;stroke-miterlimit:10;stroke-dasharray:none;stroke-opacity:1"
           d="m 0,0 c 4.822,-0.65 9.519,-2.217 13.766,-4.593 -3.669,-7.818 -9.472,-14.622 -16.614,-19.478 -1.603,1.537 -3.544,2.721 -5.644,3.444 z" />
      </g>
      <g
         transform="translate(528.6901,459.1248)"
         id="g484">
        <path
           inkscape:connector-curvature="0"
           id="path486"
           style="fill:#e6e6e6;fill-opacity:1;fill-rule:nonzero;stroke:none"
           d="m 0,0 c 4.331,4.465 9.365,8.176 15.083,10.801 1.747,0.802 3.756,1.503 5.55,0.812 1,-0.385 1.794,-1.157 2.547,-1.92 12.002,-12.166 18.851,-24.612 19.417,-41.831 l 1.023,-31.143 c -1.397,-0.613 -2.879,-1.035 -4.389,-1.25 -1.888,-0.268 0.634,-31.869 0.685,-35.164 0.146,-9.42 11.012,-17.478 8.561,-27.064 -2.24,-8.763 -16.334,-8.554 -23.392,-7.474 -5.459,0.835 -13.949,3.231 -17.745,7.279 -13.654,14.576 -14.232,34.423 -18.044,52.91 -0.13,0.631 -0.297,1.321 -0.821,1.696 -0.852,0.612 -2.121,0.036 -3.057,0.511 -0.863,0.437 -1.081,1.548 -1.199,2.509 -0.752,6.125 -1.504,12.251 -2.255,18.376 -0.426,3.464 -0.852,6.956 -0.588,10.436 0.128,1.693 0.418,3.369 0.754,5.033 C -15.226,-22.378 -9.202,-9.487 0,0" />
      </g>
      <g
         transform="translate(528.6901,459.1248)"
         id="g488">
        <path
           inkscape:connector-curvature="0"
           id="path490"
           style="fill:none;stroke:#794039;stroke-width:4.76300001;stroke-linecap:round;stroke-linejoin:round;stroke-miterlimit:10;stroke-dasharray:none;stroke-opacity:1"
           d="m 0,0 c 4.331,4.465 9.365,8.176 15.083,10.801 1.747,0.802 3.756,1.503 5.55,0.812 1,-0.385 1.794,-1.157 2.547,-1.92 12.002,-12.166 18.851,-24.612 19.417,-41.831 l 1.023,-31.143 c -1.397,-0.613 -2.879,-1.035 -4.389,-1.25 -1.888,-0.268 0.634,-31.869 0.685,-35.164 0.146,-9.42 11.012,-17.478 8.561,-27.064 -2.24,-8.763 -16.334,-8.554 -23.392,-7.474 -5.459,0.835 -13.949,3.231 -17.745,7.279 -13.654,14.576 -14.232,34.423 -18.044,52.91 -0.13,0.631 -0.297,1.321 -0.821,1.696 -0.852,0.612 -2.121,0.036 -3.057,0.511 -0.863,0.437 -1.081,1.548 -1.199,2.509 -0.752,6.125 -1.504,12.251 -2.255,18.376 -0.426,3.464 -0.852,6.956 -0.588,10.436 0.128,1.693 0.418,3.369 0.754,5.033 C -15.226,-22.378 -9.202,-9.487 0,0 Z" />
      </g>
      <g
         transform="translate(567.9004,354.3476)"
         id="g492">
        <path
           inkscape:connector-curvature="0"
           id="path494"
           style="fill:none;stroke:#794039;stroke-width:4.76300001;stroke-linecap:round;stroke-linejoin:round;stroke-miterlimit:10;stroke-dasharray:none;stroke-opacity:1"
           d="m 0,0 c -6.71,4.56 -15.38,5.105 -23.45,4.268 -6.646,-0.69 -13.727,-2.524 -17.922,-7.726 -0.227,-0.282 -0.457,-0.617 -0.401,-0.975 0.055,-0.358 0.576,-0.608 0.791,-0.316" />
      </g>
      <g
         transform="translate(547.7433,466.8056)"
         id="g496">
        <path
           inkscape:connector-curvature="0"
           id="path498"
           style="fill:none;stroke:#794039;stroke-width:4.76300001;stroke-linecap:round;stroke-linejoin:round;stroke-miterlimit:10;stroke-dasharray:none;stroke-opacity:1"
           d="M 0,0 C 4.677,-35.547 7.581,-71.327 8.696,-107.163" />
      </g>
      <g
         transform="translate(567.0464,394.8625)"
         id="g500">
        <path
           inkscape:connector-curvature="0"
           id="path502"
           style="fill:none;stroke:#794039;stroke-width:4.76300001;stroke-linecap:round;stroke-linejoin:round;stroke-miterlimit:10;stroke-dasharray:none;stroke-opacity:1"
           d="m 0,0 c -2.713,-4.148 -7.764,-6.169 -10.941,-9.973 -6.386,6.006 -14.565,10.693 -22.027,15.294 -1.369,0.843 -3.02,1.688 -4.51,1.085 -0.585,-0.237 -1.063,-0.675 -1.519,-1.112 -4.124,-3.953 -7.576,-8.606 -10.164,-13.699" />
      </g>
      <g
         transform="translate(566.4402,366.5444)"
         id="g504">
        <path
           inkscape:connector-curvature="0"
           id="path506"
           style="fill:none;stroke:#794039;stroke-width:4.76300001;stroke-linecap:round;stroke-linejoin:round;stroke-miterlimit:10;stroke-dasharray:none;stroke-opacity:1"
           d="m 0,0 c -4.076,0.543 -8.382,-1.306 -10.796,-4.634 -5.996,5.491 -13.872,7.361 -21.968,6.617 -3.474,-0.318 -7.022,-1.337 -9.591,-3.698 0.024,-0.39 0.047,-0.78 0.071,-1.17" />
      </g>
      <g
         transform="translate(512.4602,426.5228)"
         id="g508">
        <path
           inkscape:connector-curvature="0"
           id="path510"
           style="fill:none;stroke:#794039;stroke-width:4.76300001;stroke-linecap:round;stroke-linejoin:round;stroke-miterlimit:10;stroke-dasharray:none;stroke-opacity:1"
           d="m 0,0 c 6.756,-4.022 13.513,-8.043 20.269,-12.065 0.349,-2.746 -2.261,-4.843 -4.468,-6.514 C 9.958,-23.002 4.983,-28.569 1.242,-34.87" />
      </g>
      <g
         transform="translate(575.0682,421.7604)"
         id="g512">
        <path
           inkscape:connector-curvature="0"
           id="path514"
           style="fill:#e6e6e6;fill-opacity:1;fill-rule:nonzero;stroke:none"
           d="m 0,0 c -4.865,-0.098 -9.709,-1.121 -14.198,-2.999 2.756,-8.184 7.749,-15.604 14.292,-21.24 1.768,1.345 3.831,2.301 6,2.781 C 4.062,-14.305 2.031,-7.153 0,0" />
      </g>
      <g
         transform="translate(575.0682,421.7604)"
         id="g516">
        <path
           inkscape:connector-curvature="0"
           id="path518"
           style="fill:none;stroke:#794039;stroke-width:4.76300001;stroke-linecap:round;stroke-linejoin:round;stroke-miterlimit:10;stroke-dasharray:none;stroke-opacity:1"
           d="m 0,0 c -4.865,-0.098 -9.709,-1.121 -14.198,-2.999 2.756,-8.184 7.749,-15.604 14.292,-21.24 1.768,1.345 3.831,2.301 6,2.781 C 4.062,-14.305 2.031,-7.153 0,0 Z" />
      </g>
      <g
         transform="translate(348.2072,491.4334)"
         id="g520">
        <path
           inkscape:connector-curvature="0"
           id="path522"
           style="fill:none;stroke:#794039;stroke-width:4.76300001;stroke-linecap:round;stroke-linejoin:round;stroke-miterlimit:10;stroke-dasharray:none;stroke-opacity:1"
           d="M 0,0 C 16.622,34.666 33.244,69.332 49.865,103.998" />
      </g>
      <g
         transform="translate(353.9382,486.7177)"
         id="g524">
        <path
           inkscape:connector-curvature="0"
           id="path526"
           style="fill:none;stroke:#794039;stroke-width:4.76300001;stroke-linecap:round;stroke-linejoin:round;stroke-miterlimit:10;stroke-dasharray:none;stroke-opacity:1"
           d="M 0,0 C 6.246,11.143 11.692,22.733 16.282,34.654" />
      </g>
      <g
         transform="translate(585.577,453.7591)"
         id="g528">
        <path
           inkscape:connector-curvature="0"
           id="path530"
           style="fill:none;stroke:#794039;stroke-width:4.76300001;stroke-linecap:round;stroke-linejoin:round;stroke-miterlimit:10;stroke-dasharray:none;stroke-opacity:1"
           d="M 0,0 C -0.917,11.313 -1.833,22.626 -2.75,33.939" />
      </g>
      <g
         transform="translate(392.394,463.7137)"
         id="g532">
        <path
           inkscape:connector-curvature="0"
           id="path534"
           style="fill:none;stroke:#794039;stroke-width:4.76300001;stroke-linecap:round;stroke-linejoin:round;stroke-miterlimit:10;stroke-dasharray:none;stroke-opacity:1"
           d="M 0,0 C 3.886,15.063 7.773,30.126 11.659,45.19" />
      </g>
      <g
         transform="translate(392.3615,895.3717)"
         id="g536">
        <path
           inkscape:connector-curvature="0"
           id="path538"
           style="fill:#e6e6e6;fill-opacity:1;fill-rule:nonzero;stroke:none"
           d="m 0,0 c 0,-6.126 -4.966,-11.092 -11.092,-11.092 -6.126,0 -11.092,4.966 -11.092,11.092 0,6.126 4.966,11.092 11.092,11.092 C -4.966,11.092 0,6.126 0,0" />
      </g>
      <g
         transform="translate(392.3615,895.3717)"
         id="g540">
        <path
           inkscape:connector-curvature="0"
           id="path542"
           style="fill:none;stroke:#794039;stroke-width:3.50300002;stroke-linecap:round;stroke-linejoin:round;stroke-miterlimit:10;stroke-dasharray:none;stroke-opacity:1"
           d="m 0,0 c 0,-6.126 -4.966,-11.092 -11.092,-11.092 -6.126,0 -11.092,4.966 -11.092,11.092 0,6.126 4.966,11.092 11.092,11.092 C -4.966,11.092 0,6.126 0,0 Z" />
      </g>
      <g
         transform="translate(429.2746,874.6197)"
         id="g544">
        <path
           inkscape:connector-curvature="0"
           id="path546"
           style="fill:#e6e6e6;fill-opacity:1;fill-rule:nonzero;stroke:none"
           d="m 0,0 c 0,-5.327 -4.318,-9.645 -9.645,-9.645 -5.327,0 -9.646,4.318 -9.646,9.645 0,5.327 4.319,9.645 9.646,9.645 C -4.318,9.645 0,5.327 0,0" />
      </g>
      <g
         transform="translate(429.2746,874.6197)"
         id="g548">
        <path
           inkscape:connector-curvature="0"
           id="path550"
           style="fill:none;stroke:#794039;stroke-width:3.50300002;stroke-linecap:round;stroke-linejoin:round;stroke-miterlimit:10;stroke-dasharray:none;stroke-opacity:1"
           d="m 0,0 c 0,-5.327 -4.318,-9.645 -9.645,-9.645 -5.327,0 -9.646,4.318 -9.646,9.645 0,5.327 4.319,9.645 9.646,9.645 C -4.318,9.645 0,5.327 0,0 Z" />
      </g>
      <g
         transform="translate(463.9134,854.4965)"
         id="g552">
        <path
           inkscape:connector-curvature="0"
           id="path554"
           style="fill:#e6e6e6;fill-opacity:1;fill-rule:nonzero;stroke:none"
           d="m 0,0 c 0,-4.661 -3.779,-8.44 -8.44,-8.44 -4.661,0 -8.439,3.779 -8.439,8.44 0,4.661 3.778,8.44 8.439,8.44 C -3.779,8.44 0,4.661 0,0" />
      </g>
      <g
         transform="translate(463.9134,854.4965)"
         id="g556">
        <path
           inkscape:connector-curvature="0"
           id="path558"
           style="fill:none;stroke:#794039;stroke-width:3.50300002;stroke-linecap:round;stroke-linejoin:round;stroke-miterlimit:10;stroke-dasharray:none;stroke-opacity:1"
           d="m 0,0 c 0,-4.661 -3.779,-8.44 -8.44,-8.44 -4.661,0 -8.439,3.779 -8.439,8.44 0,4.661 3.778,8.44 8.439,8.44 C -3.779,8.44 0,4.661 0,0 Z" />
      </g>
      <g
         transform="translate(492.2636,839.4041)"
         id="g560">
        <path
           inkscape:connector-curvature="0"
           id="path562"
           style="fill:#e6e6e6;fill-opacity:1;fill-rule:nonzero;stroke:none"
           d="m 0,0 c 0,-3.995 -3.239,-7.234 -7.234,-7.234 -3.995,0 -7.234,3.239 -7.234,7.234 0,3.995 3.239,7.234 7.234,7.234 C -3.239,7.234 0,3.995 0,0" />
      </g>
      <g
         transform="translate(492.2636,839.4041)"
         id="g564">
        <path
           inkscape:connector-curvature="0"
           id="path566"
           style="fill:none;stroke:#794039;stroke-width:3.50300002;stroke-linecap:round;stroke-linejoin:round;stroke-miterlimit:10;stroke-dasharray:none;stroke-opacity:1"
           d="m 0,0 c 0,-3.995 -3.239,-7.234 -7.234,-7.234 -3.995,0 -7.234,3.239 -7.234,7.234 0,3.995 3.239,7.234 7.234,7.234 C -3.239,7.234 0,3.995 0,0 Z" />
      </g>
      <g
         transform="translate(620.3745,894.114)"
         id="g568">
        <path
           inkscape:connector-curvature="0"
           id="path570"
           style="fill:#e6e6e6;fill-opacity:1;fill-rule:nonzero;stroke:none"
           d="m 0,0 c 0,-6.126 4.966,-11.092 11.092,-11.092 6.126,0 11.092,4.966 11.092,11.092 0,6.126 -4.966,11.092 -11.092,11.092 C 4.966,11.092 0,6.126 0,0" />
      </g>
      <g
         transform="translate(620.3745,894.114)"
         id="g572">
        <path
           inkscape:connector-curvature="0"
           id="path574"
           style="fill:none;stroke:#794039;stroke-width:3.50300002;stroke-linecap:round;stroke-linejoin:round;stroke-miterlimit:10;stroke-dasharray:none;stroke-opacity:1"
           d="m 0,0 c 0,-6.126 4.966,-11.092 11.092,-11.092 6.126,0 11.092,4.966 11.092,11.092 0,6.126 -4.966,11.092 -11.092,11.092 C 4.966,11.092 0,6.126 0,0 Z" />
      </g>
      <g
         transform="translate(583.4615,873.3619)"
         id="g576">
        <path
           inkscape:connector-curvature="0"
           id="path578"
           style="fill:#e6e6e6;fill-opacity:1;fill-rule:nonzero;stroke:none"
           d="m 0,0 c 0,-5.327 4.318,-9.645 9.645,-9.645 5.327,0 9.646,4.318 9.646,9.645 0,5.327 -4.319,9.645 -9.646,9.645 C 4.318,9.645 0,5.327 0,0" />
      </g>
      <g
         transform="translate(583.4615,873.3619)"
         id="g580">
        <path
           inkscape:connector-curvature="0"
           id="path582"
           style="fill:none;stroke:#794039;stroke-width:3.50300002;stroke-linecap:round;stroke-linejoin:round;stroke-miterlimit:10;stroke-dasharray:none;stroke-opacity:1"
           d="m 0,0 c 0,-5.327 4.318,-9.645 9.645,-9.645 5.327,0 9.646,4.318 9.646,9.645 0,5.327 -4.319,9.645 -9.646,9.645 C 4.318,9.645 0,5.327 0,0 Z" />
      </g>
      <g
         transform="translate(548.8227,853.2388)"
         id="g584">
        <path
           inkscape:connector-curvature="0"
           id="path586"
           style="fill:#e6e6e6;fill-opacity:1;fill-rule:nonzero;stroke:none"
           d="m 0,0 c 0,-4.661 3.779,-8.44 8.44,-8.44 4.661,0 8.439,3.779 8.439,8.44 0,4.661 -3.778,8.44 -8.439,8.44 C 3.779,8.44 0,4.661 0,0" />
      </g>
      <g
         transform="translate(548.8227,853.2388)"
         id="g588">
        <path
           inkscape:connector-curvature="0"
           id="path590"
           style="fill:none;stroke:#794039;stroke-width:3.50300002;stroke-linecap:round;stroke-linejoin:round;stroke-miterlimit:10;stroke-dasharray:none;stroke-opacity:1"
           d="m 0,0 c 0,-4.661 3.779,-8.44 8.44,-8.44 4.661,0 8.439,3.779 8.439,8.44 0,4.661 -3.778,8.44 -8.439,8.44 C 3.779,8.44 0,4.661 0,0 Z" />
      </g>
      <g
         transform="translate(520.4724,838.1464)"
         id="g592">
        <path
           inkscape:connector-curvature="0"
           id="path594"
           style="fill:#e6e6e6;fill-opacity:1;fill-rule:nonzero;stroke:none"
           d="m 0,0 c 0,-3.995 3.239,-7.234 7.234,-7.234 3.995,0 7.234,3.239 7.234,7.234 0,3.995 -3.239,7.234 -7.234,7.234 C 3.239,7.234 0,3.995 0,0" />
      </g>
      <g
         transform="translate(520.4724,838.1464)"
         id="g596">
        <path
           inkscape:connector-curvature="0"
           id="path598"
           style="fill:none;stroke:#794039;stroke-width:3.50300002;stroke-linecap:round;stroke-linejoin:round;stroke-miterlimit:10;stroke-dasharray:none;stroke-opacity:1"
           d="m 0,0 c 0,-3.995 3.239,-7.234 7.234,-7.234 3.995,0 7.234,3.239 7.234,7.234 0,3.995 -3.239,7.234 -7.234,7.234 C 3.239,7.234 0,3.995 0,0 Z" />
      </g>
    </g>
  </g>
</svg>
