<?xml version="1.0" encoding="UTF-8" standalone="no"?>
<!-- Created with Inkscape (http://www.inkscape.org/) -->

<svg
   xmlns:dc="http://purl.org/dc/elements/1.1/"
   xmlns:cc="http://creativecommons.org/ns#"
   xmlns:rdf="http://www.w3.org/1999/02/22-rdf-syntax-ns#"
   xmlns:svg="http://www.w3.org/2000/svg"
   xmlns="http://www.w3.org/2000/svg"
   xmlns:sodipodi="http://sodipodi.sourceforge.net/DTD/sodipodi-0.dtd"
   xmlns:inkscape="http://www.inkscape.org/namespaces/inkscape"
   width="112.0547mm"
   height="115.89268mm"
   viewBox="0 0 112.0547 115.89268"
   version="1.1"
   id="svg7832"
   inkscape:version="0.92.4 (unknown)"
   sodipodi:docname="warrior-avatar.svg">
  <defs
     id="defs7826" />
  <sodipodi:namedview
     id="base"
     pagecolor="#ffffff"
     bordercolor="#666666"
     borderopacity="1.0"
     inkscape:pageopacity="0.0"
     inkscape:pageshadow="2"
     inkscape:zoom="0.35"
     inkscape:cx="560.62418"
     inkscape:cy="-227.0359"
     inkscape:document-units="mm"
     inkscape:current-layer="layer1"
     showgrid="false"
     inkscape:window-width="1920"
     inkscape:window-height="1016"
     inkscape:window-x="0"
     inkscape:window-y="27"
     inkscape:window-maximized="1" />
  <metadata
     id="metadata7829">
    <rdf:RDF>
      <cc:Work
         rdf:about="">
        <dc:format>image/svg+xml</dc:format>
        <dc:type
           rdf:resource="http://purl.org/dc/dcmitype/StillImage" />
        <dc:title></dc:title>
      </cc:Work>
    </rdf:RDF>
  </metadata>
  <g
     inkscape:label="Layer 1"
     inkscape:groupmode="layer"
     id="layer1"
     transform="translate(350.92705,24.105451)">
    <g
       id="g164"
       transform="matrix(0.35277777,0,0,-0.35277777,-246.28732,47.304954)">
      <path
         d="m 0,0 c -3.294,-76.814 -67.153,-111.187 -143.967,-107.893 -76.814,3.294 -137.495,43.008 -134.201,119.822 4.054,94.537 7.883,142.759 145.209,136.87 C 4.367,142.911 4.054,94.538 0,0"
         style="fill:#ffdbc2;fill-opacity:1;fill-rule:nonzero;stroke:none"
         id="path166"
         inkscape:connector-curvature="0" />
    </g>
    <g
       id="g168"
       transform="matrix(0.35277777,0,0,-0.35277777,-246.28732,47.304954)">
      <path
         d="m 0,0 c -3.294,-76.814 -67.153,-111.187 -143.967,-107.893 -76.814,3.294 -137.495,43.008 -134.201,119.822 4.054,94.537 7.883,142.759 145.209,136.87 C 4.367,142.911 4.054,94.538 0,0 Z"
         style="fill:none;stroke:#794039;stroke-width:4.76300001;stroke-linecap:round;stroke-linejoin:round;stroke-miterlimit:10;stroke-dasharray:none;stroke-opacity:1"
         id="path170"
         inkscape:connector-curvature="0" />
    </g>
    <g
       id="g172"
       transform="matrix(0.35277777,0,0,-0.35277777,-280.30377,53.909483)">
      <path
         d="M 0,0 C 1.468,2.322 3.076,4.555 4.812,6.684 5.196,7.155 5.697,7.668 6.3,7.59 6.791,7.527 7.152,7.085 7.629,6.951 c 1.42,-0.401 2.218,1.952 3.686,2.106 0.728,0.076 1.376,-0.419 2.068,-0.655 1.196,-0.406 2.502,-0.026 3.704,0.362 9.737,3.141 19.304,6.812 28.644,10.992 0.473,0.211 0.985,0.429 1.493,0.327 0.548,-0.111 0.951,-0.567 1.31,-0.996 1.473,-1.755 2.945,-3.511 4.417,-5.267 1.767,1.406 3.87,2.385 6.082,2.833 -2.883,3.084 -5.135,6.756 -6.578,10.724 -0.722,1.988 -1.597,4.387 -3.67,4.807 -0.921,0.187 -1.865,-0.093 -2.763,-0.37 -9.6,-2.96 -19.199,-5.92 -28.798,-8.88 C 12.76,21.557 8.21,20.167 3.539,20.2 1.911,20.211 0.065,20.32 -1.099,19.181 -2.292,18.014 -2.188,16.098 -1.989,14.441 -1.409,9.616 -0.746,4.802 0,0"
         style="fill:#794039;fill-opacity:1;fill-rule:nonzero;stroke:none"
         id="path174"
         inkscape:connector-curvature="0" />
    </g>
    <g
       id="g176"
       transform="matrix(0.35277777,0,0,-0.35277777,-307.43274,55.741811)">
      <path
         d="m 0,0 c -0.992,2.562 -2.138,5.063 -3.43,7.488 -0.286,0.536 -0.679,1.136 -1.285,1.176 -0.494,0.033 -0.934,-0.331 -1.427,-0.371 -1.472,-0.118 -1.8,2.344 -3.211,2.779 -0.699,0.215 -1.43,-0.146 -2.155,-0.243 -1.252,-0.168 -2.459,0.457 -3.564,1.07 -8.948,4.963 -17.625,10.413 -25.981,16.318 -0.423,0.299 -0.883,0.612 -1.402,0.609 -0.56,-0.003 -1.042,-0.371 -1.478,-0.723 -1.784,-1.438 -3.567,-2.876 -5.351,-4.315 -1.462,1.72 -3.336,3.088 -5.42,3.955 3.424,2.469 6.343,5.637 8.525,9.251 1.093,1.811 2.415,3.996 4.53,4.008 0.94,0.005 1.812,-0.452 2.64,-0.897 l 26.54,-14.276 C -8.356,23.616 -4.16,21.374 0.429,20.503 2.029,20.199 3.861,19.949 4.784,18.607 5.729,17.232 5.256,15.372 4.741,13.784 3.24,9.163 1.659,4.567 0,0"
         style="fill:#794039;fill-opacity:1;fill-rule:nonzero;stroke:none"
         id="path178"
         inkscape:connector-curvature="0" />
    </g>
    <g
       id="g180"
       transform="matrix(0.35277777,0,0,-0.35277777,-313.01269,56.411489)">
      <path
         d="m 0,0 c -0.398,-9.288 -8.251,-16.495 -17.539,-16.097 -9.289,0.398 -16.496,8.251 -16.097,17.539 0.398,9.289 8.251,16.496 17.539,16.097 C -6.809,17.141 0.398,9.288 0,0"
         style="fill:#794039;fill-opacity:1;fill-rule:nonzero;stroke:none"
         id="path182"
         inkscape:connector-curvature="0" />
    </g>
    <g
       id="g184"
       transform="matrix(0.35277777,0,0,-0.35277777,-319.92195,67.681896)">
      <path
         d="m 0,0 c -0.452,-10.544 -9.366,-18.724 -19.91,-18.272 -10.543,0.452 -18.724,9.366 -18.272,19.909 0.452,10.544 9.366,18.725 19.91,18.273 C -7.729,19.457 0.452,10.544 0,0"
         style="fill:#faacae;fill-opacity:1;fill-rule:nonzero;stroke:none"
         id="path186"
         inkscape:connector-curvature="0" />
    </g>
    <g
       id="g188"
       transform="matrix(0.35277777,0,0,-0.35277777,-277.09346,57.951787)">
      <path
         d="m 0,0 c -0.398,-9.288 6.809,-17.141 16.097,-17.539 9.288,-0.399 17.141,6.808 17.539,16.097 C 34.035,7.846 26.828,15.699 17.539,16.097 8.251,16.495 0.398,9.288 0,0"
         style="fill:#794039;fill-opacity:1;fill-rule:nonzero;stroke:none"
         id="path190"
         inkscape:connector-curvature="0" />
    </g>
    <g
       id="g192"
       transform="matrix(0.35277777,0,0,-0.35277777,-271.15977,69.430646)">
      <path
         d="m 0,0 c -0.429,-10.009 7.337,-18.47 17.345,-18.9 10.009,-0.429 18.471,7.337 18.9,17.346 C 36.674,8.454 28.908,16.916 18.9,17.345 8.891,17.775 0.429,10.009 0,0"
         style="fill:#faacae;fill-opacity:1;fill-rule:nonzero;stroke:none"
         id="path194"
         inkscape:connector-curvature="0" />
    </g>
    <g
       id="g196"
       transform="matrix(0.35277777,0,0,-0.35277777,-311.65093,47.708038)">
      <path
         d="M 0,0 C 0,0 -0.173,0.116 -0.497,0.334 -0.8,0.546 -1.244,0.857 -1.809,1.253 -2.345,1.64 -2.996,2.109 -3.742,2.648 -4.48,3.174 -5.257,3.789 -6.129,4.421 c -0.83,0.67 -1.783,1.321 -2.739,2.047 -0.494,0.345 -1.018,0.674 -1.54,1.024 -0.256,0.18 -0.515,0.362 -0.777,0.547 -0.273,0.164 -0.55,0.331 -0.829,0.499 -0.551,0.344 -1.114,0.686 -1.665,1.066 -0.582,0.328 -1.171,0.66 -1.765,0.995 -1.151,0.749 -2.446,1.265 -3.702,1.888 -0.616,0.346 -1.299,0.521 -1.95,0.784 -0.66,0.245 -1.318,0.49 -1.971,0.733 -1.357,0.365 -2.693,0.723 -3.986,1.071 -1.328,0.204 -2.621,0.429 -3.86,0.647 -0.618,0.14 -1.228,0.127 -1.818,0.184 -0.594,0.047 -1.167,0.341 -1.718,0.385 -1.105,0.083 -2.132,0.406 -3.036,0.406 h -2.367 c -1.332,0 -2.093,-0.212 -2.093,-0.212 0,0 0.714,0.116 1.989,0.504 0.643,0.188 1.425,0.354 2.32,0.616 0.897,0.298 1.937,0.424 3.08,0.596 1.143,0.154 2.389,0.426 3.723,0.472 1.333,0.043 2.754,0.094 4.231,0.095 1.463,-0.145 2.999,-0.249 4.55,-0.458 0.767,-0.168 1.539,-0.339 2.314,-0.509 0.77,-0.193 1.577,-0.296 2.326,-0.586 1.503,-0.551 3.075,-0.978 4.48,-1.726 0.713,-0.349 1.431,-0.684 2.109,-1.067 0.663,-0.409 1.299,-0.846 1.927,-1.268 1.272,-0.824 2.312,-1.876 3.339,-2.792 0.932,-1.028 1.862,-1.935 2.535,-2.945 0.722,-0.959 1.267,-1.93 1.7,-2.808 C -0.899,3.722 -0.608,2.907 -0.404,2.227 -0.208,1.541 -0.098,0.984 -0.049,0.595 0.002,0.211 0,0 0,0"
         style="fill:#794039;fill-opacity:1;fill-rule:nonzero;stroke:none"
         id="path198"
         inkscape:connector-curvature="0" />
    </g>
    <g
       id="g200"
       transform="matrix(0.35277777,0,0,-0.35277777,-278.20217,47.130788)">
      <path
         d="M 0,0 C 0,0 0.03,0.209 0.139,0.581 0.247,0.958 0.44,1.492 0.737,2.14 1.042,2.782 1.452,3.543 2.005,4.356 2.567,5.158 3.251,6.035 4.111,6.874 4.929,7.77 5.985,8.526 7.063,9.401 c 1.153,0.749 2.341,1.631 3.723,2.254 0.685,0.321 1.38,0.657 2.097,0.96 0.729,0.276 1.488,0.498 2.246,0.735 1.503,0.527 3.121,0.711 4.69,1.028 0.784,0.172 1.597,0.152 2.388,0.226 0.792,0.05 1.581,0.1 2.363,0.15 1.565,-0.028 3.099,-0.162 4.567,-0.24 1.459,-0.225 2.855,-0.498 4.167,-0.743 1.311,-0.248 2.5,-0.721 3.606,-1.046 1.104,-0.344 2.108,-0.655 2.949,-1.087 0.846,-0.394 1.583,-0.738 2.19,-1.021 1.202,-0.577 1.872,-0.922 1.872,-0.922 0,0 -0.755,0.102 -2.075,0.281 -0.648,0.099 -1.436,0.22 -2.339,0.359 -0.887,0.185 -1.92,0.218 -3.025,0.304 -0.551,0.04 -1.125,0.081 -1.719,0.124 -0.592,0.034 -1.193,0.139 -1.825,0.094 C 31.681,10.83 30.368,10.803 29.025,10.802 27.694,10.655 26.319,10.503 24.922,10.348 24.24,10.207 23.553,10.065 22.863,9.922 22.18,9.76 21.479,9.692 20.817,9.443 19.48,9.017 18.123,8.703 16.871,8.137 16.234,7.896 15.601,7.657 14.976,7.421 14.375,7.129 13.765,6.876 13.169,6.619 12.868,6.496 12.569,6.373 12.273,6.251 11.987,6.109 11.703,5.968 11.423,5.829 10.854,5.562 10.286,5.316 9.746,5.05 8.691,4.477 7.65,3.978 6.728,3.441 5.77,2.949 4.91,2.459 4.101,2.05 3.281,1.631 2.566,1.265 1.978,0.964 1.359,0.659 0.873,0.419 0.542,0.255 0.188,0.089 0,0 0,0"
         style="fill:#794039;fill-opacity:1;fill-rule:nonzero;stroke:none"
         id="path202"
         inkscape:connector-curvature="0" />
    </g>
    <g
       id="g204"
       transform="matrix(0.35277777,0,0,-0.35277777,-297.37363,69.857436)">
      <path
         d="m 0,0 c 5.157,-0.867 10.456,-0.925 15.631,-0.167 4.223,0.618 8.002,1.343 9.901,5.819"
         style="fill:none;stroke:#794039;stroke-width:2.83100009;stroke-linecap:round;stroke-linejoin:round;stroke-miterlimit:10;stroke-dasharray:none;stroke-opacity:1"
         id="path206"
         inkscape:connector-curvature="0" />
    </g>
    <g
       id="g296"
       transform="matrix(0.35277777,0,0,-0.35277777,-305.36412,72.289276)">
      <path
         d="m 0,0 -2.421,-51.289 c -68.111,10.521 -120.997,13.2 -117.916,85.134 0.019,0.377 0.032,0.754 0.051,1.125 3.314,-59.992 53.867,-62.954 117.865,-72.839 l 1.805,38.19 z"
         style="fill:#ffdb9a;fill-opacity:1;fill-rule:nonzero;stroke:none"
         id="path298"
         inkscape:connector-curvature="0" />
    </g>
    <g
       id="g300"
       transform="matrix(0.35277777,0,0,-0.35277777,-305.36412,72.289276)">
      <path
         d="m 0,0 -2.421,-51.289 c -68.111,10.521 -120.997,13.2 -117.916,85.134 0.019,0.377 0.032,0.754 0.051,1.125 3.314,-59.992 53.867,-62.954 117.865,-72.839 l 1.805,38.19 z"
         style="fill:none;stroke:#794039;stroke-width:3.773;stroke-linecap:round;stroke-linejoin:round;stroke-miterlimit:10;stroke-dasharray:none;stroke-opacity:1"
         id="path302"
         inkscape:connector-curvature="0" />
    </g>
    <g
       id="g304"
       transform="matrix(0.35277777,0,0,-0.35277777,-244.68751,64.770986)">
      <path
         d="m 0,0 c -3.062,-71.368 -53.276,-69.589 -121.261,-74.695 l 0.616,13.464 C -52.974,-56.181 -3.056,-57.735 0,13.42 0.912,34.819 1.83,54.666 2.025,72.909 2.289,51.1 1.145,26.764 0,0"
         style="fill:#ffdb9a;fill-opacity:1;fill-rule:nonzero;stroke:none"
         id="path306"
         inkscape:connector-curvature="0" />
    </g>
    <g
       id="g308"
       transform="matrix(0.35277777,0,0,-0.35277777,-244.68751,64.770986)">
      <path
         d="m 0,0 c -3.062,-71.368 -53.276,-69.589 -121.261,-74.695 l 0.616,13.464 C -52.974,-56.181 -3.056,-57.735 0,13.42 0.912,34.819 1.83,54.666 2.025,72.909 2.289,51.1 1.145,26.764 0,0 Z"
         style="fill:none;stroke:#794039;stroke-width:3.773;stroke-linecap:round;stroke-linejoin:round;stroke-miterlimit:10;stroke-dasharray:none;stroke-opacity:1"
         id="path310"
         inkscape:connector-curvature="0" />
    </g>
    <g
       id="g312"
       transform="matrix(0.35277777,0,0,-0.35277777,-243.97317,39.050377)">
      <path
         d="m 0,0 c -0.195,-18.243 -1.113,-38.089 -2.025,-59.489 -3.056,-71.154 -52.974,-69.601 -120.645,-74.651 l 1.535,33.568 90.076,46.378 c 6.389,3.282 9.435,11.13 6.146,17.52 l 0.134,0.773 v 0.006 l -4.247,7.207 c -7.885,15.312 -26.956,21.337 -42.269,13.457 l -67.867,-34.876 -2.187,-1.088 -2.756,1.396 -73.102,37.625 c -15.312,7.885 -34.123,1.861 -42.009,-13.452 l -3.708,-7.213 -0.405,-0.779 c -3.289,-6.383 -0.781,-14.225 5.609,-17.514 l 83.083,-42.768 -1.805,-38.19 c -63.998,9.886 -114.552,12.848 -117.866,72.84 5.792,135.555 4.949,199.458 155.068,193.019 C -22.11,128.744 -0.994,82.392 0,0"
         style="fill:#e6e6e6;fill-opacity:1;fill-rule:nonzero;stroke:none"
         id="path314"
         inkscape:connector-curvature="0" />
    </g>
    <g
       id="g316"
       transform="matrix(0.35277777,0,0,-0.35277777,-243.97317,39.050377)">
      <path
         d="m 0,0 c -0.195,-18.243 -1.113,-38.089 -2.025,-59.489 -3.056,-71.154 -52.974,-69.601 -120.645,-74.651 l 1.535,33.568 90.076,46.378 c 6.389,3.282 9.435,11.13 6.146,17.52 l 0.134,0.773 v 0.006 l -4.247,7.207 c -7.885,15.312 -26.956,21.337 -42.269,13.457 l -67.867,-34.876 -2.187,-1.088 -2.756,1.396 -73.102,37.625 c -15.312,7.885 -34.123,1.861 -42.009,-13.452 l -3.708,-7.213 -0.405,-0.779 c -3.289,-6.383 -0.781,-14.225 5.609,-17.514 l 83.083,-42.768 -1.805,-38.19 c -63.998,9.886 -114.552,12.848 -117.866,72.84 5.792,135.555 4.949,199.458 155.068,193.019 C -22.11,128.744 -0.994,82.392 0,0 Z"
         style="fill:none;stroke:#794039;stroke-width:5;stroke-linecap:round;stroke-linejoin:round;stroke-miterlimit:10;stroke-dasharray:none;stroke-opacity:1"
         id="path318"
         inkscape:connector-curvature="0" />
    </g>
    <g
       id="g320"
       transform="matrix(0.35277777,0,0,-0.35277777,-242.73111,32.927461)">
      <path
         d="m 0,0 -144.8,-68.549 v -0.002 L -295.415,3.094 c -9.772,4.647 -12.403,17.356 -5.241,25.468 l 14.195,16.093 140.376,-88.844 0.015,0.459 L -8.788,40.253 5.004,24.664 C 11.94,16.809 9.458,4.503 0,0"
         style="fill:#ffdb9a;fill-opacity:1;fill-rule:nonzero;stroke:none"
         id="path322"
         inkscape:connector-curvature="0" />
    </g>
    <g
       id="g324"
       transform="matrix(0.35277777,0,0,-0.35277777,-242.73111,32.927461)">
      <path
         d="m 0,0 -144.8,-68.549 v -0.002 L -295.415,3.094 c -9.772,4.647 -12.403,17.356 -5.241,25.468 l 14.195,16.093 140.376,-88.844 0.015,0.459 L -8.788,40.253 5.004,24.664 C 11.94,16.809 9.458,4.503 0,0 Z"
         style="fill:none;stroke:#794039;stroke-width:4;stroke-linecap:round;stroke-linejoin:round;stroke-miterlimit:10;stroke-dasharray:none;stroke-opacity:1"
         id="path326"
         inkscape:connector-curvature="0" />
    </g>
    <g
       id="g336"
       transform="matrix(0.35277777,0,0,-0.35277777,-294.60344,41.489836)">
      <path
         d="m 0,0 c -1.787,3.566 -36.433,91.556 -32.155,131.868 4.278,40.313 37.311,51.69 37.311,51.69 z"
         style="fill:#e6e6e6;fill-opacity:1;fill-rule:nonzero;stroke:none"
         id="path338"
         inkscape:connector-curvature="0" />
    </g>
    <g
       id="g340"
       transform="matrix(0.35277777,0,0,-0.35277777,-294.60344,41.489836)">
      <path
         d="m 0,0 c -1.787,3.566 -36.433,91.556 -32.155,131.868 4.278,40.313 37.311,51.69 37.311,51.69 z"
         style="fill:none;stroke:#794039;stroke-width:4.76300001;stroke-linecap:round;stroke-linejoin:round;stroke-miterlimit:10;stroke-dasharray:none;stroke-opacity:1"
         id="path342"
         inkscape:connector-curvature="0" />
    </g>
    <g
       id="g344"
       transform="matrix(0.35277777,0,0,-0.35277777,-294.60344,41.489836)">
      <path
         d="m 0,0 c 1.984,3.46 41.514,89.367 39.506,129.856 -2.009,40.488 -34.35,53.702 -34.35,53.702 z"
         style="fill:#e6e6e6;fill-opacity:1;fill-rule:nonzero;stroke:none"
         id="path346"
         inkscape:connector-curvature="0" />
    </g>
    <g
       id="g348"
       transform="matrix(0.35277777,0,0,-0.35277777,-294.60344,41.489836)">
      <path
         d="m 0,0 c 1.984,3.46 41.514,89.367 39.506,129.856 -2.009,40.488 -34.35,53.702 -34.35,53.702 z"
         style="fill:none;stroke:#794039;stroke-width:4.76300001;stroke-linecap:round;stroke-linejoin:round;stroke-miterlimit:10;stroke-dasharray:none;stroke-opacity:1"
         id="path350"
         inkscape:connector-curvature="0" />
    </g>
    <g
       id="g536"
       transform="matrix(0.35277777,0,0,-0.35277777,-334.44052,28.776924)">
      <path
         d="m 0,0 c 0,-6.126 -4.966,-11.092 -11.092,-11.092 -6.126,0 -11.092,4.966 -11.092,11.092 0,6.126 4.966,11.092 11.092,11.092 C -4.966,11.092 0,6.126 0,0"
         style="fill:#e6e6e6;fill-opacity:1;fill-rule:nonzero;stroke:none"
         id="path538"
         inkscape:connector-curvature="0" />
    </g>
    <g
       id="g540"
       transform="matrix(0.35277777,0,0,-0.35277777,-334.44052,28.776924)">
      <path
         d="m 0,0 c 0,-6.126 -4.966,-11.092 -11.092,-11.092 -6.126,0 -11.092,4.966 -11.092,11.092 0,6.126 4.966,11.092 11.092,11.092 C -4.966,11.092 0,6.126 0,0 Z"
         style="fill:none;stroke:#794039;stroke-width:3.50300002;stroke-linecap:round;stroke-linejoin:round;stroke-miterlimit:10;stroke-dasharray:none;stroke-opacity:1"
         id="path542"
         inkscape:connector-curvature="0" />
    </g>
    <g
       id="g544"
       transform="matrix(0.35277777,0,0,-0.35277777,-321.4184,36.097769)">
      <path
         d="m 0,0 c 0,-5.327 -4.318,-9.645 -9.645,-9.645 -5.327,0 -9.646,4.318 -9.646,9.645 0,5.327 4.319,9.645 9.646,9.645 C -4.318,9.645 0,5.327 0,0"
         style="fill:#e6e6e6;fill-opacity:1;fill-rule:nonzero;stroke:none"
         id="path546"
         inkscape:connector-curvature="0" />
    </g>
    <g
       id="g548"
       transform="matrix(0.35277777,0,0,-0.35277777,-321.4184,36.097769)">
      <path
         d="m 0,0 c 0,-5.327 -4.318,-9.645 -9.645,-9.645 -5.327,0 -9.646,4.318 -9.646,9.645 0,5.327 4.319,9.645 9.646,9.645 C -4.318,9.645 0,5.327 0,0 Z"
         style="fill:none;stroke:#794039;stroke-width:3.50300002;stroke-linecap:round;stroke-linejoin:round;stroke-miterlimit:10;stroke-dasharray:none;stroke-opacity:1"
         id="path550"
         inkscape:connector-curvature="0" />
    </g>
    <g
       id="g552"
       transform="matrix(0.35277777,0,0,-0.35277777,-309.1986,43.196786)">
      <path
         d="m 0,0 c 0,-4.661 -3.779,-8.44 -8.44,-8.44 -4.661,0 -8.439,3.779 -8.439,8.44 0,4.661 3.778,8.44 8.439,8.44 C -3.779,8.44 0,4.661 0,0"
         style="fill:#e6e6e6;fill-opacity:1;fill-rule:nonzero;stroke:none"
         id="path554"
         inkscape:connector-curvature="0" />
    </g>
    <g
       id="g556"
       transform="matrix(0.35277777,0,0,-0.35277777,-309.1986,43.196786)">
      <path
         d="m 0,0 c 0,-4.661 -3.779,-8.44 -8.44,-8.44 -4.661,0 -8.439,3.779 -8.439,8.44 0,4.661 3.778,8.44 8.439,8.44 C -3.779,8.44 0,4.661 0,0 Z"
         style="fill:none;stroke:#794039;stroke-width:3.50300002;stroke-linecap:round;stroke-linejoin:round;stroke-miterlimit:10;stroke-dasharray:none;stroke-opacity:1"
         id="path558"
         inkscape:connector-curvature="0" />
    </g>
    <g
       id="g560"
       transform="matrix(0.35277777,0,0,-0.35277777,-299.19728,48.521049)">
      <path
         d="m 0,0 c 0,-3.995 -3.239,-7.234 -7.234,-7.234 -3.995,0 -7.234,3.239 -7.234,7.234 0,3.995 3.239,7.234 7.234,7.234 C -3.239,7.234 0,3.995 0,0"
         style="fill:#e6e6e6;fill-opacity:1;fill-rule:nonzero;stroke:none"
         id="path562"
         inkscape:connector-curvature="0" />
    </g>
    <g
       id="g564"
       transform="matrix(0.35277777,0,0,-0.35277777,-299.19728,48.521049)">
      <path
         d="m 0,0 c 0,-3.995 -3.239,-7.234 -7.234,-7.234 -3.995,0 -7.234,3.239 -7.234,7.234 0,3.995 3.239,7.234 7.234,7.234 C -3.239,7.234 0,3.995 0,0 Z"
         style="fill:none;stroke:#794039;stroke-width:3.50300002;stroke-linecap:round;stroke-linejoin:round;stroke-miterlimit:10;stroke-dasharray:none;stroke-opacity:1"
         id="path566"
         inkscape:connector-curvature="0" />
    </g>
    <g
       id="g568"
       transform="matrix(0.35277777,0,0,-0.35277777,-254.0026,29.220613)">
      <path
         d="m 0,0 c 0,-6.126 4.966,-11.092 11.092,-11.092 6.126,0 11.092,4.966 11.092,11.092 0,6.126 -4.966,11.092 -11.092,11.092 C 4.966,11.092 0,6.126 0,0"
         style="fill:#e6e6e6;fill-opacity:1;fill-rule:nonzero;stroke:none"
         id="path570"
         inkscape:connector-curvature="0" />
    </g>
    <g
       id="g572"
       transform="matrix(0.35277777,0,0,-0.35277777,-254.0026,29.220613)">
      <path
         d="m 0,0 c 0,-6.126 4.966,-11.092 11.092,-11.092 6.126,0 11.092,4.966 11.092,11.092 0,6.126 -4.966,11.092 -11.092,11.092 C 4.966,11.092 0,6.126 0,0 Z"
         style="fill:none;stroke:#794039;stroke-width:3.50300002;stroke-linecap:round;stroke-linejoin:round;stroke-miterlimit:10;stroke-dasharray:none;stroke-opacity:1"
         id="path574"
         inkscape:connector-curvature="0" />
    </g>
    <g
       id="g576"
       transform="matrix(0.35277777,0,0,-0.35277777,-267.02469,36.541493)">
      <path
         d="m 0,0 c 0,-5.327 4.318,-9.645 9.645,-9.645 5.327,0 9.646,4.318 9.646,9.645 0,5.327 -4.319,9.645 -9.646,9.645 C 4.318,9.645 0,5.327 0,0"
         style="fill:#e6e6e6;fill-opacity:1;fill-rule:nonzero;stroke:none"
         id="path578"
         inkscape:connector-curvature="0" />
    </g>
    <g
       id="g580"
       transform="matrix(0.35277777,0,0,-0.35277777,-267.02469,36.541493)">
      <path
         d="m 0,0 c 0,-5.327 4.318,-9.645 9.645,-9.645 5.327,0 9.646,4.318 9.646,9.645 0,5.327 -4.319,9.645 -9.646,9.645 C 4.318,9.645 0,5.327 0,0 Z"
         style="fill:none;stroke:#794039;stroke-width:3.50300002;stroke-linecap:round;stroke-linejoin:round;stroke-miterlimit:10;stroke-dasharray:none;stroke-opacity:1"
         id="path582"
         inkscape:connector-curvature="0" />
    </g>
    <g
       id="g584"
       transform="matrix(0.35277777,0,0,-0.35277777,-279.24449,43.640475)">
      <path
         d="m 0,0 c 0,-4.661 3.779,-8.44 8.44,-8.44 4.661,0 8.439,3.779 8.439,8.44 0,4.661 -3.778,8.44 -8.439,8.44 C 3.779,8.44 0,4.661 0,0"
         style="fill:#e6e6e6;fill-opacity:1;fill-rule:nonzero;stroke:none"
         id="path586"
         inkscape:connector-curvature="0" />
    </g>
    <g
       id="g588"
       transform="matrix(0.35277777,0,0,-0.35277777,-279.24449,43.640475)">
      <path
         d="m 0,0 c 0,-4.661 3.779,-8.44 8.44,-8.44 4.661,0 8.439,3.779 8.439,8.44 0,4.661 -3.778,8.44 -8.439,8.44 C 3.779,8.44 0,4.661 0,0 Z"
         style="fill:none;stroke:#794039;stroke-width:3.50300002;stroke-linecap:round;stroke-linejoin:round;stroke-miterlimit:10;stroke-dasharray:none;stroke-opacity:1"
         id="path590"
         inkscape:connector-curvature="0" />
    </g>
    <g
       id="g592"
       transform="matrix(0.35277777,0,0,-0.35277777,-289.24584,48.964738)">
      <path
         d="m 0,0 c 0,-3.995 3.239,-7.234 7.234,-7.234 3.995,0 7.234,3.239 7.234,7.234 0,3.995 -3.239,7.234 -7.234,7.234 C 3.239,7.234 0,3.995 0,0"
         style="fill:#e6e6e6;fill-opacity:1;fill-rule:nonzero;stroke:none"
         id="path594"
         inkscape:connector-curvature="0" />
    </g>
    <g
       id="g596"
       transform="matrix(0.35277777,0,0,-0.35277777,-289.24584,48.964738)">
      <path
         d="m 0,0 c 0,-3.995 3.239,-7.234 7.234,-7.234 3.995,0 7.234,3.239 7.234,7.234 0,3.995 -3.239,7.234 -7.234,7.234 C 3.239,7.234 0,3.995 0,0 Z"
         style="fill:none;stroke:#794039;stroke-width:3.50300002;stroke-linecap:round;stroke-linejoin:round;stroke-miterlimit:10;stroke-dasharray:none;stroke-opacity:1"
         id="path598"
         inkscape:connector-curvature="0" />
    </g>
  </g>
</svg>
